<?xml version="1.0" standalone="no"?> <!DOCTYPE svg PUBLIC "-//W3C//DTD SVG 1.0//EN" "http://www.w3.org/TR/2001/REC-SVG-20010904/DTD/svg10.dtd" > <svg xmlns="http://www.w3.org/2000/svg" width="100%" height="100%">
<defs >
<font id="DejaVuSans" horiz-adv-x="1038" ><font-face
    font-family="DejaVu Sans"
    units-per-em="2048"
    panose-1="2 11 6 3 3 8 4 2 2 4"
    ascent="2389"
    descent="-717"
    alphabetic="0" />
<missing-glyph horiz-adv-x="1229" d="M102 -362V1444H1126V-362H102ZM217 -248H1012V1329H217V-248Z" />
<glyph unicode=" " glyph-name="space" horiz-adv-x="651" />
<glyph unicode="!" glyph-name="exclam" horiz-adv-x="821" d="M309 254H512V0H309V254ZM309 1493H512V838L492 481H330L309 838V1493Z" />
<glyph unicode="&quot;" glyph-name="quotedbl" horiz-adv-x="942" d="M367 1493V938H197V1493H367ZM745 1493V938H575V1493H745Z" />
<glyph unicode="#" glyph-name="numbersign" horiz-adv-x="1716" d="M1047 901H756L672 567H965L1047 901ZM897 1470L793 1055H1085L1190 1470H1350L1247 1055H1559V901H1208L1126 567H1444V414H1087L983 0H823L926 414H633L530 0H369L473 414H158V567H510L594
901H272V1055H633L735 1470H897Z" />
<glyph unicode="$" glyph-name="dollar" horiz-adv-x="1303" d="M692 -301H592L591 0Q486 2 381 24T170 92V272Q272 208 376 176T592 142V598Q371 634 271 720T170 956Q170 1119 279 1213T592 1321V1556H692V1324Q785 1320 872 1305T1042 1262V1087Q959 1129 872
1152T692 1179V752Q919 717 1026 627T1133 381Q1133 212 1020 115T692 2V-301ZM592 770V1180Q476 1167 415 1114T354 973Q354 887 410 839T592 770ZM692 578V145Q819 162 883 217T948 362Q948 450 887 502T692 578Z" />
<glyph unicode="%" glyph-name="percent" horiz-adv-x="1946" d="M1489 657Q1402 657 1353 583T1303 377Q1303 247 1352 173T1489 98Q1574 98 1623 172T1673 377Q1673 508 1624 582T1489 657ZM1489 784Q1647 784 1740 674T1833 377Q1833 190 1740 81T1489 -29Q1329
-29 1236 80T1143 377Q1143 565 1236 674T1489 784ZM457 1393Q371 1393 322 1319T272 1114Q272 982 321 908T457 834Q544 834 593 908T643 1114Q643 1243 593 1318T457 1393ZM1360 1520H1520L586 -29H426L1360 1520ZM457 1520Q615 1520 709 1411T803 1114Q803 925
710 816T457 707Q298 707 206 816T113 1114Q113 1300 206 1410T457 1520Z" />
<glyph unicode="&amp;" glyph-name="ampersand" horiz-adv-x="1597" d="M498 803Q407 722 365 642T322 473Q322 327 428 230T694 133Q789 133 872 164T1028 260L498 803ZM639 915L1147 395Q1206 484 1239 585T1278 801H1464Q1452 669 1400 540T1255 285L1534 0H1282L1139
147Q1035 58 921 15T676 -29Q435 -29 282 108T129 461Q129 589 196 701T397 913Q349 976 324 1038T299 1161Q299 1323 410 1421T705 1520Q788 1520 870 1502T1038 1448V1266Q951 1313 872 1337T725 1362Q620 1362 555 1307T489 1163Q489 1112 518 1061T639 915Z"
/>
<glyph unicode="&apos;" glyph-name="quotesingle" horiz-adv-x="563" d="M367 1493V938H197V1493H367Z" />
<glyph unicode="(" glyph-name="parenleft" horiz-adv-x="799" d="M635 1554Q501 1324 436 1099T371 643Q371 412 436 186T635 -270H475Q325 -35 251 192T176 643Q176 866 250 1092T475 1554H635Z" />
<glyph unicode=")" glyph-name="parenright" horiz-adv-x="799" d="M164 1554H324Q474 1318 548 1092T623 643Q623 419 549 192T324 -270H164Q297 -41 362 185T428 643Q428 874 363 1099T164 1554Z" />
<glyph unicode="*" glyph-name="asterisk" horiz-adv-x="1024" d="M963 1247L604 1053L963 858L905 760L569 963V586H455V963L119 760L61 858L420 1053L61 1247L119 1346L455 1143V1520H569V1143L905 1346L963 1247Z" />
<glyph unicode="+" glyph-name="plus" horiz-adv-x="1716" d="M942 1284V727H1499V557H942V0H774V557H217V727H774V1284H942Z" />
<glyph unicode="," glyph-name="comma" horiz-adv-x="651" d="M240 254H451V82L287 -238H158L240 82V254Z" />
<glyph unicode="-" glyph-name="hyphen" horiz-adv-x="739" d="M100 643H639V479H100V643Z" />
<glyph unicode="." glyph-name="period" horiz-adv-x="651" d="M219 254H430V0H219V254Z" />
<glyph unicode="/" glyph-name="slash" horiz-adv-x="690" d="M520 1493H690L170 -190H0L520 1493Z" />
<glyph unicode="0" glyph-name="zero" horiz-adv-x="1303" d="M651 1360Q495 1360 417 1207T338 745Q338 438 416 285T651 131Q808 131 886 284T965 745Q965 1053 887 1206T651 1360ZM651 1520Q902 1520 1034 1322T1167 745Q1167 368 1035 170T651 -29Q400 -29
268 169T135 745Q135 1123 267 1321T651 1520Z" />
<glyph unicode="1" glyph-name="one" horiz-adv-x="1303" d="M254 170H584V1309L225 1237V1421L582 1493H784V170H1114V0H254V170Z" />
<glyph unicode="2" glyph-name="two" horiz-adv-x="1303" d="M393 170H1098V0H150V170Q265 289 463 489T713 748Q810 857 848 932T887 1081Q887 1200 804 1275T586 1350Q491 1350 386 1317T160 1217V1421Q282 1470 388 1495T582 1520Q814 1520 952 1404T1090 1094Q1090
1002 1056 920T930 725Q905 696 771 558T393 170Z" />
<glyph unicode="3" glyph-name="three" horiz-adv-x="1303" d="M831 805Q976 774 1057 676T1139 434Q1139 213 987 92T555 -29Q461 -29 362 -11T156 45V240Q240 191 340 166T549 141Q739 141 838 216T938 434Q938 566 846 640T588 715H414V881H596Q745 881 824
940T903 1112Q903 1227 822 1288T588 1350Q505 1350 410 1332T201 1276V1456Q316 1488 416 1504T606 1520Q836 1520 970 1416T1104 1133Q1104 1009 1033 924T831 805Z" />
<glyph unicode="4" glyph-name="four" horiz-adv-x="1303" d="M774 1317L264 520H774V1317ZM721 1493H975V520H1188V352H975V0H774V352H100V547L721 1493Z" />
<glyph unicode="5" glyph-name="five" horiz-adv-x="1303" d="M221 1493H1014V1323H406V957Q450 972 494 979T582 987Q832 987 978 850T1124 479Q1124 238 974 105T551 -29Q457 -29 360 -13T158 35V238Q248 189 344 165T547 141Q720 141 821 232T922 479Q922 635
821 726T547 817Q466 817 386 799T221 743V1493Z" />
<glyph unicode="6" glyph-name="six" horiz-adv-x="1303" d="M676 827Q540 827 461 734T381 479Q381 318 460 225T676 131Q812 131 891 224T971 479Q971 641 892 734T676 827ZM1077 1460V1276Q1001 1312 924 1331T770 1350Q570 1350 465 1215T344 807Q403 894
492 940T688 987Q913 987 1043 851T1174 479Q1174 249 1038 110T676 -29Q417 -29 280 169T143 745Q143 1099 311 1309T762 1520Q838 1520 915 1505T1077 1460Z" />
<glyph unicode="7" glyph-name="seven" horiz-adv-x="1303" d="M168 1493H1128V1407L586 0H375L885 1323H168V1493Z" />
<glyph unicode="8" glyph-name="eight" horiz-adv-x="1303" d="M651 709Q507 709 425 632T342 420Q342 285 424 208T651 131Q795 131 878 208T961 420Q961 555 879 632T651 709ZM449 795Q319 827 247 916T174 1133Q174 1312 301 1416T651 1520Q874 1520 1001 1416T1128
1133Q1128 1005 1056 916T854 795Q1000 761 1081 662T1163 420Q1163 203 1031 87T651 -29Q404 -29 272 87T139 420Q139 563 221 662T449 795ZM375 1114Q375 998 447 933T651 868Q781 868 854 933T928 1114Q928 1230 855 1295T651 1360Q520 1360 448 1295T375 1114Z"
/>
<glyph unicode="9" glyph-name="nine" horiz-adv-x="1303" d="M225 31V215Q301 179 379 160T532 141Q732 141 837 275T958 684Q900 598 811 552T614 506Q390 506 260 641T129 1012Q129 1242 265 1381T627 1520Q886 1520 1022 1322T1159 745Q1159 392 992 182T541
-29Q465 -29 387 -14T225 31ZM627 664Q763 664 842 757T922 1012Q922 1173 843 1266T627 1360Q491 1360 412 1267T332 1012Q332 850 411 757T627 664Z" />
<glyph unicode=":" glyph-name="colon" horiz-adv-x="690" d="M240 254H451V0H240V254ZM240 1059H451V805H240V1059Z" />
<glyph unicode=";" glyph-name="semicolon" horiz-adv-x="690" d="M240 1059H451V805H240V1059ZM240 254H451V82L287 -238H158L240 82V254Z" />
<glyph unicode="&lt;" glyph-name="less" horiz-adv-x="1716" d="M1499 1008L467 641L1499 276V94L217 559V725L1499 1190V1008Z" />
<glyph unicode="=" glyph-name="equal" horiz-adv-x="1716" d="M217 930H1499V762H217V930ZM217 522H1499V352H217V522Z" />
<glyph unicode="&gt;" glyph-name="greater" horiz-adv-x="1716" d="M217 1008V1190L1499 725V559L217 94V276L1247 641L217 1008Z" />
<glyph unicode="?" glyph-name="question" horiz-adv-x="1087" d="M391 254H594V0H391V254ZM588 401H397V555Q397 656 425 721T543 872L633 961Q690 1014 715 1061T741 1157Q741 1246 676 1301T502 1356Q423 1356 334 1321T147 1219V1407Q241 1464 337 1492T537
1520Q721 1520 832 1423T944 1167Q944 1091 908 1023T782 868L694 782Q647 735 628 709T600 657Q594 636 591 606T588 524V401Z" />
<glyph unicode="@" glyph-name="at" horiz-adv-x="2048" d="M762 537Q762 394 833 313T1028 231Q1151 231 1221 313T1292 537Q1292 677 1220 759T1026 842Q905 842 834 760T762 537ZM1307 238Q1247 161 1170 125T989 88Q817 88 710 212T602 537Q602 737 710 862T989
987Q1092 987 1170 950T1307 836V967H1450V231Q1596 253 1678 364T1761 653Q1761 760 1730 854T1634 1028Q1530 1159 1381 1228T1055 1298Q932 1298 819 1266T610 1169Q453 1067 365 902T276 543Q276 384 333 245T500 0Q605 -104 743 -158T1038 -213Q1167 -213
1291 -170T1520 -45L1610 -156Q1485 -253 1338 -304T1038 -356Q853 -356 689 -291T397 -100Q269 25 202 189T135 543Q135 725 203 890T397 1180Q526 1307 695 1374T1053 1442Q1265 1442 1446 1355T1751 1108Q1826 1010 1865 895T1905 657Q1905 394 1746 242T1307
84V238Z" />
<glyph unicode="A" glyph-name="A" horiz-adv-x="1401" d="M700 1294L426 551H975L700 1294ZM586 1493H815L1384 0H1174L1038 383H365L229 0H16L586 1493Z" />
<glyph unicode="B" glyph-name="B" horiz-adv-x="1405" d="M403 713V166H727Q890 166 968 233T1047 440Q1047 580 969 646T727 713H403ZM403 1327V877H702Q850 877 922 932T995 1102Q995 1215 923 1271T702 1327H403ZM201 1493H717Q948 1493 1073 1397T1198 1124Q1198
987 1134 906T946 805Q1095 773 1177 672T1260 418Q1260 218 1124 109T737 0H201V1493Z" />
<glyph unicode="C" glyph-name="C" horiz-adv-x="1430" d="M1319 1378V1165Q1217 1260 1102 1307T856 1354Q600 1354 464 1198T328 745Q328 450 464 294T856 137Q986 137 1101 184T1319 326V115Q1213 43 1095 7T844 -29Q505 -29 310 178T115 745Q115 1105 310
1312T844 1520Q978 1520 1096 1485T1319 1378Z" />
<glyph unicode="D" glyph-name="D" horiz-adv-x="1577" d="M403 1327V166H647Q956 166 1099 306T1243 748Q1243 1048 1100 1187T647 1327H403ZM201 1493H616Q1050 1493 1253 1313T1456 748Q1456 362 1252 181T616 0H201V1493Z" />
<glyph unicode="E" glyph-name="E" horiz-adv-x="1294" d="M201 1493H1145V1323H403V881H1114V711H403V170H1163V0H201V1493Z" />
<glyph unicode="F" glyph-name="F" horiz-adv-x="1178" d="M201 1493H1059V1323H403V883H995V713H403V0H201V1493Z" />
<glyph unicode="G" glyph-name="G" horiz-adv-x="1587" d="M1219 213V614H889V780H1419V139Q1302 56 1161 14T860 -29Q510 -29 313 175T115 745Q115 1111 312 1315T860 1520Q1006 1520 1137 1484T1380 1378V1163Q1268 1258 1142 1306T877 1354Q603 1354 466 1201T328
745Q328 443 465 290T877 137Q984 137 1068 155T1219 213Z" />
<glyph unicode="H" glyph-name="H" horiz-adv-x="1540" d="M201 1493H403V881H1137V1493H1339V0H1137V711H403V0H201V1493Z" />
<glyph unicode="I" glyph-name="I" horiz-adv-x="604" d="M201 1493H403V0H201V1493Z" />
<glyph unicode="J" glyph-name="J" horiz-adv-x="604" d="M201 1493H403V104Q403 -166 301 -288T-29 -410H-106V-240H-43Q91 -240 146 -165T201 104V1493Z" />
<glyph unicode="K" glyph-name="K" horiz-adv-x="1343" d="M201 1493H403V862L1073 1493H1333L592 797L1386 0H1120L403 719V0H201V1493Z" />
<glyph unicode="L" glyph-name="L" horiz-adv-x="1141" d="M201 1493H403V170H1130V0H201V1493Z" />
<glyph unicode="M" glyph-name="M" horiz-adv-x="1767" d="M201 1493H502L883 477L1266 1493H1567V0H1370V1311L985 287H782L397 1311V0H201V1493Z" />
<glyph unicode="N" glyph-name="N" horiz-adv-x="1532" d="M201 1493H473L1135 244V1493H1331V0H1059L397 1249V0H201V1493Z" />
<glyph unicode="O" glyph-name="O" horiz-adv-x="1612" d="M807 1356Q587 1356 458 1192T328 745Q328 463 457 299T807 135Q1027 135 1155 299T1284 745Q1284 1028 1156 1192T807 1356ZM807 1520Q1121 1520 1309 1310T1497 745Q1497 392 1309 182T807 -29Q492
-29 304 181T115 745Q115 1099 303 1309T807 1520Z" />
<glyph unicode="P" glyph-name="P" horiz-adv-x="1235" d="M403 1327V766H657Q798 766 875 839T952 1047Q952 1181 875 1254T657 1327H403ZM201 1493H657Q908 1493 1036 1380T1165 1047Q1165 826 1037 713T657 600H403V0H201V1493Z" />
<glyph unicode="Q" glyph-name="Q" horiz-adv-x="1612" d="M807 1356Q587 1356 458 1192T328 745Q328 463 457 299T807 135Q1027 135 1155 299T1284 745Q1284 1028 1156 1192T807 1356ZM1090 27L1356 -264H1112L891 -25Q858 -27 841 -28T807 -29Q492 -29 304 181T115
745Q115 1099 303 1309T807 1520Q1121 1520 1309 1310T1497 745Q1497 485 1393 300T1090 27Z" />
<glyph unicode="R" glyph-name="R" horiz-adv-x="1423" d="M909 700Q974 678 1035 606T1159 408L1364 0H1147L956 383Q882 533 813 582T623 631H403V0H201V1493H657Q913 1493 1039 1386T1165 1063Q1165 922 1100 829T909 700ZM403 1327V797H657Q803 797 877 864T952
1063Q952 1194 878 1260T657 1327H403Z" />
<glyph unicode="S" glyph-name="S" horiz-adv-x="1300" d="M1096 1444V1247Q981 1302 879 1329T682 1356Q517 1356 428 1292T338 1110Q338 1011 397 961T623 879L745 854Q971 811 1078 703T1186 412Q1186 195 1041 83T614 -29Q508 -29 389 -5T141 66V274Q264 205
382 170T614 135Q787 135 881 203T975 397Q975 507 908 569T686 662L563 686Q337 731 236 827T135 1094Q135 1292 274 1406T659 1520Q764 1520 873 1501T1096 1444Z" />
<glyph unicode="T" glyph-name="T" horiz-adv-x="1251" d="M-6 1493H1257V1323H727V0H524V1323H-6V1493Z" />
<glyph unicode="U" glyph-name="U" horiz-adv-x="1499" d="M178 1493H381V586Q381 346 468 241T750 135Q944 135 1031 240T1118 586V1493H1321V561Q1321 269 1177 120T750 -29Q467 -29 323 120T178 561V1493Z" />
<glyph unicode="V" glyph-name="V" horiz-adv-x="1401" d="M586 0L16 1493H227L700 236L1174 1493H1384L815 0H586Z" />
<glyph unicode="W" glyph-name="W" horiz-adv-x="2025" d="M68 1493H272L586 231L899 1493H1126L1440 231L1753 1493H1958L1583 0H1329L1014 1296L696 0H442L68 1493Z" />
<glyph unicode="X" glyph-name="X" horiz-adv-x="1403" d="M129 1493H346L717 938L1090 1493H1307L827 776L1339 0H1122L702 635L279 0H61L594 797L129 1493Z" />
<glyph unicode="Y" glyph-name="Y" horiz-adv-x="1251" d="M-4 1493H213L627 879L1038 1493H1255L727 711V0H524V711L-4 1493Z" />
<glyph unicode="Z" glyph-name="Z" horiz-adv-x="1403" d="M115 1493H1288V1339L344 170H1311V0H92V154L1036 1323H115V1493Z" />
<glyph unicode="[" glyph-name="bracketleft" horiz-adv-x="799" d="M176 1556H600V1413H360V-127H600V-270H176V1556Z" />
<glyph unicode="\" glyph-name="backslash" horiz-adv-x="690" d="M170 1493L690 -190H520L0 1493H170Z" />
<glyph unicode="]" glyph-name="bracketright" horiz-adv-x="799" d="M623 1556V-270H199V-127H438V1413H199V1556H623Z" />
<glyph unicode="^" glyph-name="asciicircum" horiz-adv-x="1716" d="M956 1493L1499 936H1298L858 1331L418 936H217L760 1493H956Z" />
<glyph unicode="_" glyph-name="underscore" horiz-adv-x="1024" d="M1044 -340V-483H-20V-340H1044Z" />
<glyph unicode="`" glyph-name="grave" horiz-adv-x="1024" d="M367 1638L649 1264H496L170 1638H367Z" />
<glyph unicode="a" glyph-name="a" horiz-adv-x="1255" d="M702 563Q479 563 393 512T307 338Q307 240 371 183T547 125Q700 125 792 233T885 522V563H702ZM1069 639V0H885V170Q822 68 728 20T498 -29Q326 -29 225 67T123 326Q123 515 249 611T627 707H885V725Q885
852 802 921T567 991Q471 991 380 968T205 899V1069Q306 1108 401 1127T586 1147Q829 1147 949 1021T1069 639Z" />
<glyph unicode="b" glyph-name="b" horiz-adv-x="1300" d="M997 559Q997 762 914 877T684 993Q538 993 455 878T371 559Q371 356 454 241T684 125Q830 125 913 240T997 559ZM371 950Q429 1050 517 1098T729 1147Q933 1147 1060 985T1188 559Q1188 295 1061 133T729
-29Q606 -29 518 19T371 168V0H186V1556H371V950Z" />
<glyph unicode="c" glyph-name="c" horiz-adv-x="1126" d="M999 1077V905Q921 948 843 969T684 991Q505 991 406 878T307 559Q307 354 406 241T684 127Q764 127 842 148T999 213V43Q922 7 840 -11T664 -29Q411 -29 262 130T113 559Q113 833 263 990T676 1147Q761
1147 842 1130T999 1077Z" />
<glyph unicode="d" glyph-name="d" horiz-adv-x="1300" d="M930 950V1556H1114V0H930V168Q872 68 784 20T571 -29Q368 -29 241 133T113 559Q113 823 240 985T571 1147Q695 1147 783 1099T930 950ZM303 559Q303 356 386 241T616 125Q762 125 846 240T930 559Q930
762 846 877T616 993Q470 993 387 878T303 559Z" />
<glyph unicode="e" glyph-name="e" horiz-adv-x="1260" d="M1151 606V516H305Q317 326 419 227T705 127Q811 127 910 153T1108 231V57Q1009 15 905 -7T694 -29Q426 -29 270 127T113 549Q113 824 261 985T662 1147Q888 1147 1019 1002T1151 606ZM967 660Q965 811
883 901T664 991Q510 991 418 904T311 659L967 660Z" />
<glyph unicode="f" glyph-name="f" horiz-adv-x="721" d="M760 1556V1403H584Q485 1403 447 1363T408 1219V1120H711V977H408V0H223V977H47V1120H223V1198Q223 1385 310 1470T586 1556H760Z" />
<glyph unicode="g" glyph-name="g" horiz-adv-x="1300" d="M930 573Q930 773 848 883T616 993Q468 993 386 883T303 573Q303 374 385 264T616 154Q765 154 847 264T930 573ZM1114 139Q1114 -147 987 -286T598 -426Q501 -426 415 -412T248 -367V-188Q329 -232 408
-253T569 -274Q750 -274 840 -180T930 106V197Q873 98 784 49T571 0Q365 0 239 157T113 573Q113 833 239 990T571 1147Q695 1147 784 1098T930 950V1120H1114V139Z" />
<glyph unicode="h" glyph-name="h" horiz-adv-x="1298" d="M1124 676V0H940V670Q940 829 878 908T692 987Q543 987 457 892T371 633V0H186V1556H371V946Q437 1047 526 1097T733 1147Q926 1147 1025 1028T1124 676Z" />
<glyph unicode="i" glyph-name="i" horiz-adv-x="569" d="M193 1120H377V0H193V1120ZM193 1556H377V1323H193V1556Z" />
<glyph unicode="j" glyph-name="j" horiz-adv-x="569" d="M193 1120H377V-20Q377 -234 296 -330T33 -426H-37V-270H12Q117 -270 155 -222T193 -20V1120ZM193 1556H377V1323H193V1556Z" />
<glyph unicode="k" glyph-name="k" horiz-adv-x="1186" d="M186 1556H371V637L920 1120H1155L561 596L1180 0H940L371 547V0H186V1556Z" />
<glyph unicode="l" glyph-name="l" horiz-adv-x="569" d="M193 1556H377V0H193V1556Z" />
<glyph unicode="m" glyph-name="m" horiz-adv-x="1995" d="M1065 905Q1134 1029 1230 1088T1456 1147Q1631 1147 1726 1025T1821 676V0H1636V670Q1636 831 1579 909T1405 987Q1262 987 1179 892T1096 633V0H911V670Q911 832 854 909T678 987Q537 987 454 892T371
633V0H186V1120H371V946Q434 1049 522 1098T731 1147Q853 1147 938 1085T1065 905Z" />
<glyph unicode="n" glyph-name="n" horiz-adv-x="1298" d="M1124 676V0H940V670Q940 829 878 908T692 987Q543 987 457 892T371 633V0H186V1120H371V946Q437 1047 526 1097T733 1147Q926 1147 1025 1028T1124 676Z" />
<glyph unicode="o" glyph-name="o" horiz-adv-x="1253" d="M627 991Q479 991 393 876T307 559Q307 358 392 243T627 127Q774 127 860 243T946 559Q946 758 860 874T627 991ZM627 1147Q867 1147 1004 991T1141 559Q1141 284 1004 128T627 -29Q386 -29 250 127T113
559Q113 835 249 991T627 1147Z" />
<glyph unicode="p" glyph-name="p" horiz-adv-x="1300" d="M371 168V-426H186V1120H371V950Q429 1050 517 1098T729 1147Q933 1147 1060 985T1188 559Q1188 295 1061 133T729 -29Q606 -29 518 19T371 168ZM997 559Q997 762 914 877T684 993Q538 993 455 878T371
559Q371 356 454 241T684 125Q830 125 913 240T997 559Z" />
<glyph unicode="q" glyph-name="q" horiz-adv-x="1300" d="M303 559Q303 356 386 241T616 125Q762 125 846 240T930 559Q930 762 846 877T616 993Q470 993 387 878T303 559ZM930 168Q872 68 784 20T571 -29Q368 -29 241 133T113 559Q113 823 240 985T571 1147Q695
1147 783 1099T930 950V1120H1114V-426H930V168Z" />
<glyph unicode="r" glyph-name="r" horiz-adv-x="842" d="M842 948Q811 966 775 974T694 983Q538 983 455 882T371 590V0H186V1120H371V946Q429 1048 522 1097T748 1147Q767 1147 790 1145T841 1137L842 948Z" />
<glyph unicode="s" glyph-name="s" horiz-adv-x="1067" d="M907 1087V913Q829 953 745 973T571 993Q434 993 366 951T297 825Q297 761 346 725T543 655L606 641Q802 599 884 523T967 309Q967 153 844 62T504 -29Q414 -29 317 -12T111 41V231Q213 178 312 152T508
125Q638 125 708 169T778 295Q778 370 728 410T506 487L442 502Q271 538 195 612T119 817Q119 975 231 1061T549 1147Q651 1147 741 1132T907 1087Z" />
<glyph unicode="t" glyph-name="t" horiz-adv-x="803" d="M375 1438V1120H754V977H375V369Q375 232 412 193T565 154H754V0H565Q352 0 271 79T190 369V977H55V1120H190V1438H375Z" />
<glyph unicode="u" glyph-name="u" horiz-adv-x="1298" d="M174 442V1120H358V449Q358 290 420 211T606 131Q755 131 841 226T928 485V1120H1112V0H928V172Q861 70 773 21T567 -29Q374 -29 274 91T174 442Z" />
<glyph unicode="v" glyph-name="v" horiz-adv-x="1212" d="M61 1120H256L606 180L956 1120H1151L731 0H481L61 1120Z" />
<glyph unicode="w" glyph-name="w" horiz-adv-x="1675" d="M86 1120H270L500 246L729 1120H946L1176 246L1405 1120H1589L1296 0H1079L838 918L596 0H379L86 1120Z" />
<glyph unicode="x" glyph-name="x" horiz-adv-x="1212" d="M1124 1120L719 575L1145 0H928L602 440L276 0H59L494 586L96 1120H313L610 721L907 1120H1124Z" />
<glyph unicode="y" glyph-name="y" horiz-adv-x="1212" d="M659 -104Q581 -304 507 -365T309 -426H162V-272H270Q346 -272 388 -236T481 -66L514 18L61 1120H256L606 244L956 1120H1151L659 -104Z" />
<glyph unicode="z" glyph-name="z" horiz-adv-x="1075" d="M113 1120H987V952L295 147H987V0H88V168L780 973H113V1120Z" />
<glyph unicode="{" glyph-name="braceleft" horiz-adv-x="1303" d="M1047 -190V-334H985Q736 -334 652 -260T567 35V274Q567 425 513 483T317 541H256V684H317Q460 684 513 741T567 948V1188Q567 1409 651 1482T985 1556H1047V1413H979Q838 1413 795 1369T752
1184V936Q752 779 707 708T551 612Q662 585 707 514T752 287V39Q752 -102 795 -146T979 -190H1047Z" />
<glyph unicode="|" glyph-name="bar" horiz-adv-x="690" d="M430 1565V-483H260V1565H430Z" />
<glyph unicode="}" glyph-name="braceright" horiz-adv-x="1303" d="M256 -190H326Q466 -190 508 -147T551 39V287Q551 443 596 514T752 612Q641 637 596 708T551 936V1184Q551 1326 509 1369T326 1413H256V1556H319Q568 1556 651 1483T735 1188V948Q735 799 789
742T985 684H1047V541H985Q843 541 789 483T735 274V35Q735 -186 652 -260T319 -334H256V-190Z" />
<glyph unicode="~" glyph-name="asciitilde" horiz-adv-x="1716" d="M1499 817V639Q1394 560 1305 526T1118 492Q1008 492 862 551Q851 555 846 557Q839 560 824 565Q669 627 575 627Q487 627 401 589T217 467V645Q322 724 411 758T598 793Q708 793 855 733Q865
729 870 727Q878 724 892 719Q1047 657 1141 657Q1227 657 1311 695T1499 817Z" />
<glyph unicode="&#xa0;" glyph-name="nbspace" horiz-adv-x="651" />
<glyph unicode="&#xa1;" glyph-name="exclamdown" horiz-adv-x="821" d="M512 1239H309V1493H512V1239ZM512 0H309V655L330 1012H492L512 655V0Z" />
<glyph unicode="&#xa2;" glyph-name="cent" horiz-adv-x="1303" d="M678 131V987Q531 969 449 856T367 559Q367 374 449 261T678 131ZM1059 1077V905Q985 946 917 967T781 991L780 127Q850 132 918 153T1059 213V43Q994 13 926 -4T780 -29V-313H678V-25Q437 -5
305 148T172 559Q172 817 304 970T678 1145V1432H780L781 1145Q854 1141 922 1125T1059 1077Z" />
<glyph unicode="&#xa3;" glyph-name="sterling" horiz-adv-x="1303" d="M1102 1460V1278Q1026 1319 958 1339T829 1360Q681 1360 623 1283T565 993V778H956V635H565V170H1122V0H129V170H365V635H166V778H365V1016Q365 1277 472 1398T811 1520Q872 1520 947 1505T1102
1460Z" />
<glyph unicode="&#xa4;" glyph-name="currency" horiz-adv-x="1303" d="M891 993L1098 1202L1212 1087L1006 881Q1043 822 1061 763T1079 641Q1079 578 1060 521T1001 406L1210 199L1096 86L889 293Q830 253 772 234T653 215Q595 215 535 233T414 289L207 82L94
197L301 403Q264 465 246 524T227 641Q227 705 246 763T303 877L96 1083L211 1198L418 991Q473 1030 531 1048T653 1067Q713 1067 771 1049T891 993ZM922 643Q922 755 845 832T653 909Q541 909 462 832T383 643Q383 529 461 451T653 373Q766 373 844 451T922 643Z"
/>
<glyph unicode="&#xa5;" glyph-name="yen" horiz-adv-x="1303" d="M1165 455H752V0H551V455H135V578H551V629L467 784H135V907H399L82 1493H272L651 793L1028 1493H1219L901 907H1165V784H834L750 629V578H1165V455Z" />
<glyph unicode="&#xa6;" glyph-name="brokenbar" horiz-adv-x="690" d="M430 408V-350H260V408H430ZM430 1432V674H260V1432H430Z" />
<glyph unicode="&#xa7;" glyph-name="section" horiz-adv-x="1024" d="M379 936Q316 890 285 845T254 754Q254 678 323 612T643 410Q706 455 737 500T768 592Q768 667 697 735T379 936ZM829 1462V1298Q746 1337 675 1356T547 1376Q450 1376 396 1336T342 1225Q342
1135 548 1020Q574 1005 588 997Q799 878 864 801T930 623Q930 533 884 463T745 340Q807 288 835 234T864 115Q864 -27 762 -111T487 -195Q414 -195 337 -181T172 -137V27Q259 -12 333 -31T465 -51Q567 -51 623 -9T680 109Q680 211 459 334L434 348Q220 468 156
544T92 723Q92 814 138 885T276 1006Q217 1050 188 1106T158 1231Q158 1361 258 1440T524 1520Q597 1520 673 1506T829 1462Z" />
<glyph unicode="&#xa8;" glyph-name="dieresis" horiz-adv-x="1024" d="M606 1552H809V1350H606V1552ZM215 1552H418V1350H215V1552Z" />
<glyph unicode="&#xa9;" glyph-name="copyright" horiz-adv-x="2048" d="M1024 1485Q1176 1485 1307 1430T1548 1266Q1657 1157 1711 1026T1765 741Q1765 589 1711 459T1548 219Q1439 110 1308 55T1024 0Q872 0 741 55T500 219Q391 328 337 458T283 741Q283 895
337 1026T500 1266Q609 1375 740 1430T1024 1485ZM1024 1382Q893 1382 780 1335T573 1194Q479 1100 431 986T383 741Q383 612 431 499T573 291Q667 197 780 150T1024 102Q1156 102 1269 149T1477 291Q1570 384 1616 497T1663 741Q1663 874 1616 987T1477 1194Q1383
1288 1270 1335T1024 1382ZM1323 1137V1008Q1257 1041 1192 1057T1061 1073Q912 1073 829 986T745 741Q745 582 830 495T1071 408Q1135 408 1196 423T1323 473V346Q1256 317 1188 303T1049 289Q833 289 708 411T582 741Q582 950 707 1071T1049 1192Q1122 1192 1190
1178T1323 1137Z" />
<glyph unicode="&#xaa;" glyph-name="ordfeminine" horiz-adv-x="965" d="M139 592H827V469H139V592ZM825 1165V717H676V829Q632 766 560 732T395 698Q267 698 191 765T115 946Q115 1081 210 1150T494 1219H676V1223Q676 1314 618 1359T442 1405Q380 1405 312
1388T176 1337V1464Q249 1492 321 1506T463 1520Q646 1520 735 1432T825 1165ZM549 1104Q388 1104 325 1071T262 958Q262 894 311 856T442 817Q546 817 611 889T676 1075V1104H549Z" />
<glyph unicode="&#xab;" glyph-name="guillemotleft" horiz-adv-x="1253" d="M1061 1059V868L760 600L1061 332V141L592 559V641L1061 1059ZM627 1059V868L326 600L627 332V141L158 559V641L627 1059Z" />
<glyph unicode="&#xac;" glyph-name="logicalnot" horiz-adv-x="1716" d="M217 862H1499V287H1331V692H217V862Z" />
<glyph unicode="&#xad;" glyph-name="sfthyphen" horiz-adv-x="739" d="M100 643H639V479H100V643Z" />
<glyph unicode="&#xae;" glyph-name="registered" horiz-adv-x="2048" d="M1024 1382Q893 1382 780 1335T573 1194Q479 1100 431 986T383 741Q383 612 431 499T573 291Q667 197 780 150T1024 102Q1156 102 1269 149T1477 291Q1570 384 1616 497T1663 741Q1663
874 1616 987T1477 1194Q1383 1288 1270 1335T1024 1382ZM1024 1485Q1176 1485 1307 1430T1548 1266Q1657 1157 1711 1026T1765 741Q1765 589 1711 459T1548 219Q1439 110 1308 55T1024 0Q872 0 741 55T500 219Q391 328 337 458T283 741Q283 895 337 1026T500 1266Q609
1375 740 1430T1024 1485ZM997 1071H874V795H997Q1107 795 1150 826T1194 932Q1194 1008 1150 1039T997 1071ZM1004 1174Q1180 1174 1267 1115T1354 934Q1354 848 1302 792T1153 719Q1177 711 1210 673T1290 561L1427 338H1255L1126 547Q1067 643 1031 668T940
694H874V338H719V1174H1004Z" />
<glyph unicode="&#xaf;" glyph-name="overscore" horiz-adv-x="1024" d="M213 1526H811V1378H213V1526Z" />
<glyph unicode="&#xb0;" glyph-name="degree" horiz-adv-x="1024" d="M512 1391Q432 1391 377 1336T322 1200Q322 1121 377 1067T512 1012Q592 1012 647 1066T702 1200Q702 1279 647 1335T512 1391ZM512 1520Q576 1520 635 1496T737 1425Q783 1380 806 1323T829
1200Q829 1068 737 977T510 885Q375 885 285 975T195 1200Q195 1334 287 1427T512 1520Z" />
<glyph unicode="&#xb1;" glyph-name="plusminus" horiz-adv-x="1716" d="M942 1284V897H1499V727H942V340H774V727H217V897H774V1284H942ZM217 170H1499V0H217V170Z" />
<glyph unicode="&#xb2;" glyph-name="twosuperior" horiz-adv-x="821" d="M268 782H692V668H94V778Q128 809 191 865Q535 1170 535 1264Q535 1330 483 1370T346 1411Q294 1411 233 1394T100 1341V1464Q177 1492 243 1506T367 1520Q512 1520 599 1454T686 1280Q686
1141 355 857Q299 809 268 782Z" />
<glyph unicode="&#xb3;" glyph-name="threesuperior" horiz-adv-x="821" d="M524 1120Q616 1102 666 1048T717 911Q717 787 622 720T350 653Q293 653 231 663T98 694V815Q150 788 209 775T336 762Q445 762 505 801T565 911Q565 985 510 1023T346 1061H260V1169H354Q448
1169 496 1200T545 1292Q545 1350 495 1380T350 1411Q310 1411 259 1402T127 1370V1485Q200 1502 264 1511T383 1520Q527 1520 611 1461T696 1303Q696 1234 651 1186T524 1120Z" />
<glyph unicode="&#xb4;" glyph-name="acute" horiz-adv-x="1024" d="M651 1638H850L524 1262H371L651 1638Z" />
<glyph unicode="&#xb5;" glyph-name="mu" horiz-adv-x="1303" d="M174 -426V1120H358V424Q358 279 427 205T631 131Q779 131 853 215T928 467V1120H1112V258Q1112 198 1129 170T1184 141Q1193 141 1209 146T1253 164V16Q1212 -7 1176 -18T1104 -29Q1035 -29 994
10T938 129Q888 50 816 11T645 -29Q543 -29 472 10T358 127V-426H174Z" />
<glyph unicode="&#xb6;" glyph-name="paragraph" horiz-adv-x="1303" d="M633 1493H1081V-197H940V1370H750V-197H608V649Q393 666 276 776T158 1071Q158 1261 288 1377T633 1493Z" />
<glyph unicode="&#xb7;" glyph-name="middot" horiz-adv-x="651" d="M219 838H430V584H219V838Z" />
<glyph unicode="&#xb8;" glyph-name="cedilla" horiz-adv-x="1024" d="M596 0Q651 -62 678 -114T705 -215Q705 -304 645 -349T467 -395Q421 -395 378 -389T291 -371V-240Q325 -257 362 -264T446 -272Q505 -272 535 -248T565 -178Q565 -148 544 -105T477 0H596Z" />
<glyph unicode="&#xb9;" glyph-name="onesuperior" horiz-adv-x="821" d="M156 778H360V1389L137 1348V1464L367 1503H504V778H709V668H156V778Z" />
<glyph unicode="&#xba;" glyph-name="ordmasculine" horiz-adv-x="965" d="M139 592H827V469H139V592ZM483 1520Q662 1520 765 1410T868 1108Q868 917 765 808T483 698Q304 698 200 808T96 1108Q96 1299 200 1409T483 1520ZM483 1405Q378 1405 315 1325T252 1108Q252
975 315 895T483 815Q588 815 650 895T713 1108Q713 1245 651 1325T483 1405Z" />
<glyph unicode="&#xbb;" glyph-name="guillemotright" horiz-adv-x="1253" d="M193 1059L662 641V559L193 141V332L494 600L193 868V1059ZM627 1059L1096 641V559L627 141V332L928 600L627 868V1059Z" />
<glyph unicode="&#xbc;" glyph-name="onequarter" horiz-adv-x="1985" d="M156 778H360V1389L137 1348V1464L367 1503H504V778H709V668H156V778ZM1640 714L1331 295H1640V714ZM1618 835H1784V295H1919V186H1784V0H1640V186H1226V307L1618 835ZM1378 1520H1538L606
-29H446L1378 1520Z" />
<glyph unicode="&#xbd;" glyph-name="onehalf" horiz-adv-x="1985" d="M156 778H360V1389L137 1348V1464L367 1503H504V778H709V668H156V778ZM1431 114H1855V0H1257V110Q1291 141 1354 197Q1698 502 1698 596Q1698 662 1646 702T1509 743Q1457 743 1396 726T1263
673V796Q1340 824 1406 838T1530 852Q1675 852 1762 786T1849 612Q1849 473 1518 189Q1462 141 1431 114ZM1378 1520H1538L606 -29H446L1378 1520Z" />
<glyph unicode="&#xbe;" glyph-name="threequarters" horiz-adv-x="1985" d="M524 1120Q616 1102 666 1048T717 911Q717 787 622 720T350 653Q293 653 231 663T98 694V815Q150 788 209 775T336 762Q445 762 505 801T565 911Q565 985 510 1023T346 1061H260V1169H354Q448
1169 496 1200T545 1292Q545 1350 495 1380T350 1411Q310 1411 259 1402T127 1370V1485Q200 1502 264 1511T383 1520Q527 1520 611 1461T696 1303Q696 1234 651 1186T524 1120ZM1640 714L1331 295H1640V714ZM1618 835H1784V295H1919V186H1784V0H1640V186H1226V307L1618
835ZM1378 1520H1538L606 -29H446L1378 1520Z" />
<glyph unicode="&#xbf;" glyph-name="questiondown" horiz-adv-x="1087" d="M500 1092H690V936Q690 835 663 770T545 618L455 530Q397 477 372 430T346 334Q346 245 411 190T586 135Q664 135 754 170T940 272V84Q846 27 750 -1T551 -29Q367 -29 255 68T143 324Q143
400 179 468T305 623L393 709Q441 756 460 782T487 834Q494 855 497 885T500 969V1092ZM696 1239H494V1493H696V1239Z" />
<glyph unicode="&#xc0;" glyph-name="Agrave" horiz-adv-x="1401" d="M700 1294L426 551H975L700 1294ZM586 1493H815L1384 0H1174L1038 383H365L229 0H16L586 1493ZM643 1899L839 1635H686L456 1899H643Z" />
<glyph unicode="&#xc1;" glyph-name="Aacute" horiz-adv-x="1401" d="M700 1294L426 551H975L700 1294ZM586 1493H815L1384 0H1174L1038 383H365L229 0H16L586 1493ZM755 1899H940L712 1635H559L755 1899Z" />
<glyph unicode="&#xc2;" glyph-name="Acircumflex" horiz-adv-x="1401" d="M700 1294L426 551H975L700 1294ZM586 1493H815L1384 0H1174L1038 383H365L229 0H16L586 1493ZM606 1901H794L1005 1635H866L700 1813L534 1635H395L606 1901Z" />
<glyph unicode="&#xc3;" glyph-name="Atilde" horiz-adv-x="1401" d="M700 1294L426 551H975L700 1294ZM586 1493H815L1384 0H1174L1038 383H365L229 0H16L586 1493ZM696 1710L639 1743Q614 1757 599 1762T571 1768Q535 1768 515 1743T495 1673V1667H370Q370 1768
421 1827T559 1886Q595 1886 625 1878T704 1843L761 1813Q784 1800 801 1794T833 1788Q865 1788 885 1813T905 1880V1886H1030Q1028 1786 977 1727T841 1667Q807 1667 778 1675T696 1710Z" />
<glyph unicode="&#xc4;" glyph-name="Adieresis" horiz-adv-x="1401" d="M700 1294L426 551H975L700 1294ZM586 1493H815L1384 0H1174L1038 383H365L229 0H16L586 1493ZM794 1870H997V1667H794V1870ZM403 1870H606V1667H403V1870Z" />
<glyph unicode="&#xc5;" glyph-name="Aring" horiz-adv-x="1401" d="M852 1626Q852 1689 808 1733T700 1778Q636 1778 593 1735T549 1626Q549 1563 593 1519T700 1475Q763 1475 807 1519T852 1626ZM700 1294L428 551H973L700 1294ZM549 1397Q488 1438 457 1495T426
1626Q426 1741 505 1821T700 1901Q814 1901 894 1821T975 1626Q975 1556 944 1497T852 1397L1384 0H1174L1038 383H365L229 0H16L549 1397Z" />
<glyph unicode="&#xc6;" glyph-name="AE" horiz-adv-x="1995" d="M1845 1493V1323H1104V881H1815V711H1104V170H1864V0H901V383H373L213 0H8L633 1493H1845ZM772 1335L442 551H901V1335H772Z" />
<glyph unicode="&#xc7;" glyph-name="Ccedilla" horiz-adv-x="1430" d="M1319 1378V1165Q1217 1260 1102 1307T856 1354Q600 1354 464 1198T328 745Q328 450 464 294T856 137Q986 137 1101 184T1319 326V115Q1213 43 1095 7T844 -29Q505 -29 310 178T115 745Q115
1105 310 1312T844 1520Q978 1520 1096 1485T1319 1378ZM897 0Q952 -62 979 -114T1006 -215Q1006 -304 946 -349T768 -395Q722 -395 679 -389T592 -371V-240Q626 -257 663 -264T747 -272Q806 -272 836 -248T866 -178Q866 -148 845 -105T778 0H897Z" />
<glyph unicode="&#xc8;" glyph-name="Egrave" horiz-adv-x="1294" d="M201 1493H1145V1323H403V881H1114V711H403V170H1163V0H201V1493ZM613 1899L809 1635H656L426 1899H613Z" />
<glyph unicode="&#xc9;" glyph-name="Eacute" horiz-adv-x="1294" d="M201 1493H1145V1323H403V881H1114V711H403V170H1163V0H201V1493ZM725 1899H910L682 1635H529L725 1899Z" />
<glyph unicode="&#xca;" glyph-name="Ecircumflex" horiz-adv-x="1294" d="M201 1493H1145V1323H403V881H1114V711H403V170H1163V0H201V1493ZM576 1901H764L975 1635H836L670 1813L504 1635H365L576 1901Z" />
<glyph unicode="&#xcb;" glyph-name="Edieresis" horiz-adv-x="1294" d="M201 1493H1145V1323H403V881H1114V711H403V170H1163V0H201V1493ZM764 1870H967V1667H764V1870ZM373 1870H576V1667H373V1870Z" />
<glyph unicode="&#xcc;" glyph-name="Igrave" horiz-adv-x="604" d="M201 1493H403V0H201V1493ZM246 1899L442 1635H289L59 1899H246Z" />
<glyph unicode="&#xcd;" glyph-name="Iacute" horiz-adv-x="604" d="M201 1493H403V0H201V1493ZM358 1899H543L315 1635H162L358 1899Z" />
<glyph unicode="&#xce;" glyph-name="Icircumflex" horiz-adv-x="604" d="M201 1493H403V0H201V1493ZM209 1901H397L608 1635H469L303 1813L137 1635H-2L209 1901Z" />
<glyph unicode="&#xcf;" glyph-name="Idieresis" horiz-adv-x="604" d="M201 1493H403V0H201V1493ZM397 1870H600V1667H397V1870ZM6 1870H209V1667H6V1870Z" />
<glyph unicode="&#xd0;" glyph-name="Eth" horiz-adv-x="1587" d="M211 1493H627Q1060 1493 1263 1313T1466 748Q1466 362 1263 181T627 0H211V700H10V844H211V1493ZM414 1327V844H750V700H414V166H657Q966 166 1109 306T1253 748Q1253 1048 1110 1187T657 1327H414Z" />
<glyph unicode="&#xd1;" glyph-name="Ntilde" horiz-adv-x="1532" d="M201 1493H473L1135 244V1493H1331V0H1059L397 1249V0H201V1493ZM762 1710L705 1743Q680 1757 665 1762T637 1768Q601 1768 581 1743T561 1673V1667H436Q436 1768 487 1827T625 1886Q661 1886
691 1878T770 1843L827 1813Q850 1800 867 1794T899 1788Q931 1788 951 1813T971 1880V1886H1096Q1094 1786 1043 1727T907 1667Q873 1667 844 1675T762 1710Z" />
<glyph unicode="&#xd2;" glyph-name="Ograve" horiz-adv-x="1612" d="M807 1356Q587 1356 458 1192T328 745Q328 463 457 299T807 135Q1027 135 1155 299T1284 745Q1284 1028 1156 1192T807 1356ZM807 1520Q1121 1520 1309 1310T1497 745Q1497 392 1309 182T807
-29Q492 -29 304 181T115 745Q115 1099 303 1309T807 1520ZM750 1899L946 1635H793L563 1899H750Z" />
<glyph unicode="&#xd3;" glyph-name="Oacute" horiz-adv-x="1612" d="M807 1356Q587 1356 458 1192T328 745Q328 463 457 299T807 135Q1027 135 1155 299T1284 745Q1284 1028 1156 1192T807 1356ZM807 1520Q1121 1520 1309 1310T1497 745Q1497 392 1309 182T807
-29Q492 -29 304 181T115 745Q115 1099 303 1309T807 1520ZM862 1899H1047L819 1635H666L862 1899Z" />
<glyph unicode="&#xd4;" glyph-name="Ocircumflex" horiz-adv-x="1612" d="M807 1356Q587 1356 458 1192T328 745Q328 463 457 299T807 135Q1027 135 1155 299T1284 745Q1284 1028 1156 1192T807 1356ZM807 1520Q1121 1520 1309 1310T1497 745Q1497 392 1309 182T807
-29Q492 -29 304 181T115 745Q115 1099 303 1309T807 1520ZM713 1901H901L1112 1635H973L807 1813L641 1635H502L713 1901Z" />
<glyph unicode="&#xd5;" glyph-name="Otilde" horiz-adv-x="1612" d="M807 1356Q587 1356 458 1192T328 745Q328 463 457 299T807 135Q1027 135 1155 299T1284 745Q1284 1028 1156 1192T807 1356ZM807 1520Q1121 1520 1309 1310T1497 745Q1497 392 1309 182T807
-29Q492 -29 304 181T115 745Q115 1099 303 1309T807 1520ZM803 1710L746 1743Q721 1757 706 1762T678 1768Q642 1768 622 1743T602 1673V1667H477Q477 1768 528 1827T666 1886Q702 1886 732 1878T811 1843L868 1813Q891 1800 908 1794T940 1788Q972 1788 992 1813T1012
1880V1886H1137Q1135 1786 1084 1727T948 1667Q914 1667 885 1675T803 1710Z" />
<glyph unicode="&#xd6;" glyph-name="Odieresis" horiz-adv-x="1612" d="M807 1356Q587 1356 458 1192T328 745Q328 463 457 299T807 135Q1027 135 1155 299T1284 745Q1284 1028 1156 1192T807 1356ZM807 1520Q1121 1520 1309 1310T1497 745Q1497 392 1309 182T807
-29Q492 -29 304 181T115 745Q115 1099 303 1309T807 1520ZM901 1870H1104V1667H901V1870ZM510 1870H713V1667H510V1870Z" />
<glyph unicode="&#xd7;" glyph-name="multiply" horiz-adv-x="1716" d="M1436 1100L979 641L1436 184L1317 63L858 522L399 63L281 184L737 641L281 1100L399 1221L858 762L1317 1221L1436 1100Z" />
<glyph unicode="&#xd8;" glyph-name="Oslash" horiz-adv-x="1612" d="M1206 1112L489 266Q551 202 631 169T807 135Q1027 135 1155 299T1284 745Q1284 857 1265 949T1206 1112ZM1124 1225Q1063 1289 983 1322T807 1356Q587 1356 458 1192T328 745Q328 633 347
539T406 377L1124 1225ZM272 219Q194 321 155 453T115 745Q115 1099 303 1309T807 1520Q937 1520 1047 1482T1245 1368L1407 1559L1509 1470L1339 1272Q1417 1169 1457 1036T1497 745Q1497 392 1309 182T807 -29Q679 -29 569 8T367 121L205 -70L102 18L272 219Z"
/>
<glyph unicode="&#xd9;" glyph-name="Ugrave" horiz-adv-x="1499" d="M178 1493H381V586Q381 346 468 241T750 135Q944 135 1031 240T1118 586V1493H1321V561Q1321 269 1177 120T750 -29Q467 -29 323 120T178 561V1493ZM693 1899L889 1635H736L506 1899H693Z" />
<glyph unicode="&#xda;" glyph-name="Uacute" horiz-adv-x="1499" d="M178 1493H381V586Q381 346 468 241T750 135Q944 135 1031 240T1118 586V1493H1321V561Q1321 269 1177 120T750 -29Q467 -29 323 120T178 561V1493ZM805 1899H990L762 1635H609L805 1899Z" />
<glyph unicode="&#xdb;" glyph-name="Ucircumflex" horiz-adv-x="1499" d="M178 1493H381V586Q381 346 468 241T750 135Q944 135 1031 240T1118 586V1493H1321V561Q1321 269 1177 120T750 -29Q467 -29 323 120T178 561V1493ZM656 1901H844L1055 1635H916L750 1813L584
1635H445L656 1901Z" />
<glyph unicode="&#xdc;" glyph-name="Udieresis" horiz-adv-x="1499" d="M178 1493H381V586Q381 346 468 241T750 135Q944 135 1031 240T1118 586V1493H1321V561Q1321 269 1177 120T750 -29Q467 -29 323 120T178 561V1493ZM844 1870H1047V1667H844V1870ZM453 1870H656V1667H453V1870Z"
/>
<glyph unicode="&#xdd;" glyph-name="Yacute" horiz-adv-x="1251" d="M-4 1493H213L627 879L1038 1493H1255L727 711V0H524V711L-4 1493ZM682 1899H867L639 1635H486L682 1899Z" />
<glyph unicode="&#xde;" glyph-name="Thorn" horiz-adv-x="1239" d="M201 1493H403V1229H657Q908 1229 1036 1117T1165 784Q1165 564 1037 451T657 338H403V0H201V1493ZM403 1063V504H657Q798 504 875 577T952 784Q952 918 876 990T657 1063H403Z" />
<glyph unicode="&#xdf;" glyph-name="germandbls" horiz-adv-x="1290" d="M186 1137Q186 1337 305 1446T643 1556Q851 1556 960 1440T1073 1100Q922 1092 838 1035T754 881Q754 834 783 794T877 711L934 674Q1100 568 1148 497T1196 326Q1196 154 1084 63T760
-29Q696 -29 628 -17T487 20V184Q567 154 637 140T772 125Q888 125 948 172T1008 311Q1008 374 979 416T848 520L756 575Q660 634 617 701T573 860Q573 987 656 1073T891 1188Q883 1291 818 1347T639 1403Q509 1403 441 1334T373 1133V0H186V1137Z" />
<glyph unicode="&#xe0;" glyph-name="agrave" horiz-adv-x="1255" d="M702 563Q479 563 393 512T307 338Q307 240 371 183T547 125Q700 125 792 233T885 522V563H702ZM1069 639V0H885V170Q822 68 728 20T498 -29Q326 -29 225 67T123 326Q123 515 249 611T627 707H885V725Q885
852 802 921T567 991Q471 991 380 968T205 899V1069Q306 1108 401 1127T586 1147Q829 1147 949 1021T1069 639ZM449 1638L731 1264H578L252 1638H449Z" />
<glyph unicode="&#xe1;" glyph-name="aacute" horiz-adv-x="1255" d="M702 563Q479 563 393 512T307 338Q307 240 371 183T547 125Q700 125 792 233T885 522V563H702ZM1069 639V0H885V170Q822 68 728 20T498 -29Q326 -29 225 67T123 326Q123 515 249 611T627 707H885V725Q885
852 802 921T567 991Q471 991 380 968T205 899V1069Q306 1108 401 1127T586 1147Q829 1147 949 1021T1069 639ZM733 1638H932L606 1262H453L733 1638Z" />
<glyph unicode="&#xe2;" glyph-name="acircumflex" horiz-adv-x="1255" d="M702 563Q479 563 393 512T307 338Q307 240 371 183T547 125Q700 125 792 233T885 522V563H702ZM1069 639V0H885V170Q822 68 728 20T498 -29Q326 -29 225 67T123 326Q123 515 249 611T627
707H885V725Q885 852 802 921T567 991Q471 991 380 968T205 899V1069Q306 1108 401 1127T586 1147Q829 1147 949 1021T1069 639ZM520 1638H668L913 1262H774L594 1507L414 1262H275L520 1638Z" />
<glyph unicode="&#xe3;" glyph-name="atilde" horiz-adv-x="1255" d="M702 563Q479 563 393 512T307 338Q307 240 371 183T547 125Q700 125 792 233T885 522V563H702ZM1069 639V0H885V170Q822 68 728 20T498 -29Q326 -29 225 67T123 326Q123 515 249 611T627 707H885V725Q885
852 802 921T567 991Q471 991 380 968T205 899V1069Q306 1108 401 1127T586 1147Q829 1147 949 1021T1069 639ZM590 1370L533 1425Q511 1445 495 1454T465 1464Q427 1464 409 1428T389 1309H264Q266 1444 317 1517T459 1591Q497 1591 529 1577T598 1530L655 1475Q677
1455 693 1446T723 1436Q761 1436 779 1472T799 1591H924Q922 1456 871 1383T729 1309Q691 1309 659 1323T590 1370Z" />
<glyph unicode="&#xe4;" glyph-name="adieresis" horiz-adv-x="1255" d="M702 563Q479 563 393 512T307 338Q307 240 371 183T547 125Q700 125 792 233T885 522V563H702ZM1069 639V0H885V170Q822 68 728 20T498 -29Q326 -29 225 67T123 326Q123 515 249 611T627
707H885V725Q885 852 802 921T567 991Q471 991 380 968T205 899V1069Q306 1108 401 1127T586 1147Q829 1147 949 1021T1069 639ZM688 1552H891V1350H688V1552ZM297 1552H500V1350H297V1552Z" />
<glyph unicode="&#xe5;" glyph-name="aring" horiz-adv-x="1255" d="M702 563Q479 563 393 512T307 338Q307 240 371 183T547 125Q700 125 792 233T885 522V563H702ZM1069 639V0H885V170Q822 68 728 20T498 -29Q326 -29 225 67T123 326Q123 515 249 611T627 707H885V725Q885
852 802 921T567 991Q471 991 380 968T205 899V1069Q306 1108 401 1127T586 1147Q829 1147 949 1021T1069 639ZM746 1524Q746 1587 702 1631T594 1675Q529 1675 486 1632T442 1524Q442 1459 485 1416T594 1372Q658 1372 702 1416T746 1524ZM868 1524Q868 1409 789
1329T594 1249Q479 1249 400 1329T320 1524Q320 1639 399 1718T594 1798Q709 1798 788 1719T868 1524Z" />
<glyph unicode="&#xe6;" glyph-name="ae" horiz-adv-x="2011" d="M1718 660Q1717 811 1635 901T1415 991Q1262 991 1170 904T1063 659L1718 660ZM995 963Q1069 1053 1175 1100T1413 1147Q1639 1147 1771 1002T1903 606V516H1057Q1069 325 1171 225T1456 125Q1560
125 1660 151T1860 231V57Q1760 15 1656 -7T1446 -29Q1279 -29 1155 31T954 211Q881 91 773 31T522 -29Q333 -29 228 64T123 326Q123 515 249 611T627 707H885V725Q885 852 802 921T567 991Q471 991 380 968T205 899V1069Q306 1108 401 1127T586 1147Q728 1147
834 1099T995 963ZM702 563Q479 563 393 512T307 338Q307 240 371 183T547 125Q700 125 792 233T885 522V563H702Z" />
<glyph unicode="&#xe7;" glyph-name="ccedilla" horiz-adv-x="1126" d="M999 1077V905Q921 948 843 969T684 991Q505 991 406 878T307 559Q307 354 406 241T684 127Q764 127 842 148T999 213V43Q922 7 840 -11T664 -29Q411 -29 262 130T113 559Q113 833 263 990T676
1147Q761 1147 842 1130T999 1077ZM739 0Q794 -62 821 -114T848 -215Q848 -304 788 -349T610 -395Q564 -395 521 -389T434 -371V-240Q468 -257 505 -264T589 -272Q648 -272 678 -248T708 -178Q708 -148 687 -105T620 0H739Z" />
<glyph unicode="&#xe8;" glyph-name="egrave" horiz-adv-x="1260" d="M1151 606V516H305Q317 326 419 227T705 127Q811 127 910 153T1108 231V57Q1009 15 905 -7T694 -29Q426 -29 270 127T113 549Q113 824 261 985T662 1147Q888 1147 1019 1002T1151 606ZM967
660Q965 811 883 901T664 991Q510 991 418 904T311 659L967 660ZM506 1638L788 1264H635L309 1638H506Z" />
<glyph unicode="&#xe9;" glyph-name="eacute" horiz-adv-x="1260" d="M1151 606V516H305Q317 326 419 227T705 127Q811 127 910 153T1108 231V57Q1009 15 905 -7T694 -29Q426 -29 270 127T113 549Q113 824 261 985T662 1147Q888 1147 1019 1002T1151 606ZM967
660Q965 811 883 901T664 991Q510 991 418 904T311 659L967 660ZM790 1638H989L663 1262H510L790 1638Z" />
<glyph unicode="&#xea;" glyph-name="ecircumflex" horiz-adv-x="1260" d="M1151 606V516H305Q317 326 419 227T705 127Q811 127 910 153T1108 231V57Q1009 15 905 -7T694 -29Q426 -29 270 127T113 549Q113 824 261 985T662 1147Q888 1147 1019 1002T1151 606ZM967
660Q965 811 883 901T664 991Q510 991 418 904T311 659L967 660ZM577 1638H725L970 1262H831L651 1507L471 1262H332L577 1638Z" />
<glyph unicode="&#xeb;" glyph-name="edieresis" horiz-adv-x="1260" d="M1151 606V516H305Q317 326 419 227T705 127Q811 127 910 153T1108 231V57Q1009 15 905 -7T694 -29Q426 -29 270 127T113 549Q113 824 261 985T662 1147Q888 1147 1019 1002T1151 606ZM967
660Q965 811 883 901T664 991Q510 991 418 904T311 659L967 660ZM745 1552H948V1350H745V1552ZM354 1552H557V1350H354V1552Z" />
<glyph unicode="&#xec;" glyph-name="igrave" horiz-adv-x="569" d="M140 1638L422 1264H269L-57 1638H140ZM193 1120H377V0H193V1120Z" />
<glyph unicode="&#xed;" glyph-name="iacute" horiz-adv-x="569" d="M424 1638H623L297 1262H144L424 1638ZM193 1120H377V0H193V1120Z" />
<glyph unicode="&#xee;" glyph-name="icircumflex" horiz-adv-x="569" d="M193 1120H377V0H193V1120ZM211 1638H359L604 1262H465L285 1507L105 1262H-34L211 1638Z" />
<glyph unicode="&#xef;" glyph-name="idieresis" horiz-adv-x="569" d="M193 1120H377V0H193V1120ZM379 1552H582V1350H379V1552ZM-12 1552H191V1350H-12V1552Z" />
<glyph unicode="&#xf0;" glyph-name="eth" horiz-adv-x="1253" d="M838 915Q788 932 744 940T659 948Q492 948 400 840T307 537Q307 349 394 238T627 127Q772 127 859 238T946 537Q946 659 919 753T838 915ZM901 1141Q1027 998 1084 854T1141 537Q1141 282 999
127T627 -29Q396 -29 255 126T113 537Q113 787 251 942T610 1098Q628 1098 654 1096T722 1088L563 1268L244 1161L211 1260L492 1352L311 1556H539L666 1411L999 1522L1032 1425L737 1327L901 1141Z" />
<glyph unicode="&#xf1;" glyph-name="ntilde" horiz-adv-x="1298" d="M1124 676V0H940V670Q940 829 878 908T692 987Q543 987 457 892T371 633V0H186V1120H371V946Q437 1047 526 1097T733 1147Q926 1147 1025 1028T1124 676ZM660 1370L603 1425Q581 1445 565 1454T535
1464Q497 1464 479 1428T459 1309H334Q336 1444 387 1517T529 1591Q567 1591 599 1577T668 1530L725 1475Q747 1455 763 1446T793 1436Q831 1436 849 1472T869 1591H994Q992 1456 941 1383T799 1309Q761 1309 729 1323T660 1370Z" />
<glyph unicode="&#xf2;" glyph-name="ograve" horiz-adv-x="1253" d="M627 991Q479 991 393 876T307 559Q307 358 392 243T627 127Q774 127 860 243T946 559Q946 758 860 874T627 991ZM627 1147Q867 1147 1004 991T1141 559Q1141 284 1004 128T627 -29Q386 -29
250 127T113 559Q113 835 249 991T627 1147ZM482 1638L764 1264H611L285 1638H482Z" />
<glyph unicode="&#xf3;" glyph-name="oacute" horiz-adv-x="1253" d="M627 991Q479 991 393 876T307 559Q307 358 392 243T627 127Q774 127 860 243T946 559Q946 758 860 874T627 991ZM627 1147Q867 1147 1004 991T1141 559Q1141 284 1004 128T627 -29Q386 -29
250 127T113 559Q113 835 249 991T627 1147ZM766 1638H965L639 1262H486L766 1638Z" />
<glyph unicode="&#xf4;" glyph-name="ocircumflex" horiz-adv-x="1253" d="M627 991Q479 991 393 876T307 559Q307 358 392 243T627 127Q774 127 860 243T946 559Q946 758 860 874T627 991ZM627 1147Q867 1147 1004 991T1141 559Q1141 284 1004 128T627 -29Q386
-29 250 127T113 559Q113 835 249 991T627 1147ZM553 1638H701L946 1262H807L627 1507L447 1262H308L553 1638Z" />
<glyph unicode="&#xf5;" glyph-name="otilde" horiz-adv-x="1253" d="M627 991Q479 991 393 876T307 559Q307 358 392 243T627 127Q774 127 860 243T946 559Q946 758 860 874T627 991ZM627 1147Q867 1147 1004 991T1141 559Q1141 284 1004 128T627 -29Q386 -29
250 127T113 559Q113 835 249 991T627 1147ZM623 1370L566 1425Q544 1445 528 1454T498 1464Q460 1464 442 1428T422 1309H297Q299 1444 350 1517T492 1591Q530 1591 562 1577T631 1530L688 1475Q710 1455 726 1446T756 1436Q794 1436 812 1472T832 1591H957Q955
1456 904 1383T762 1309Q724 1309 692 1323T623 1370Z" />
<glyph unicode="&#xf6;" glyph-name="odieresis" horiz-adv-x="1253" d="M627 991Q479 991 393 876T307 559Q307 358 392 243T627 127Q774 127 860 243T946 559Q946 758 860 874T627 991ZM627 1147Q867 1147 1004 991T1141 559Q1141 284 1004 128T627 -29Q386
-29 250 127T113 559Q113 835 249 991T627 1147ZM721 1552H924V1350H721V1552ZM330 1552H533V1350H330V1552Z" />
<glyph unicode="&#xf7;" glyph-name="divide" horiz-adv-x="1716" d="M735 1135H981V889H735V1135ZM735 395H981V150H735V395ZM217 727H1499V557H217V727Z" />
<glyph unicode="&#xf8;" glyph-name="oslash" horiz-adv-x="1253" d="M905 801L418 209Q459 167 510 147T627 127Q774 127 860 243T946 559Q946 638 936 696T905 801ZM834 909Q792 950 741 970T627 991Q476 991 392 874T307 545Q307 473 316 418T346 317L834 909ZM221
166Q167 243 140 341T113 559Q113 835 249 991T627 1147Q720 1147 799 1122T946 1044L1085 1212L1180 1133L1034 954Q1087 877 1114 778T1141 559Q1141 284 1004 128T627 -29Q531 -29 451 -3T307 74L168 -94L72 -16L221 166Z" />
<glyph unicode="&#xf9;" glyph-name="ugrave" horiz-adv-x="1298" d="M174 442V1120H358V449Q358 290 420 211T606 131Q755 131 841 226T928 485V1120H1112V0H928V172Q861 70 773 21T567 -29Q374 -29 274 91T174 442ZM490 1638L772 1264H619L293 1638H490Z" />
<glyph unicode="&#xfa;" glyph-name="uacute" horiz-adv-x="1298" d="M174 442V1120H358V449Q358 290 420 211T606 131Q755 131 841 226T928 485V1120H1112V0H928V172Q861 70 773 21T567 -29Q374 -29 274 91T174 442ZM774 1638H973L647 1262H494L774 1638Z" />
<glyph unicode="&#xfb;" glyph-name="ucircumflex" horiz-adv-x="1298" d="M174 442V1120H358V449Q358 290 420 211T606 131Q755 131 841 226T928 485V1120H1112V0H928V172Q861 70 773 21T567 -29Q374 -29 274 91T174 442ZM561 1638H709L954 1262H815L635 1507L455
1262H316L561 1638Z" />
<glyph unicode="&#xfc;" glyph-name="udieresis" horiz-adv-x="1298" d="M174 442V1120H358V449Q358 290 420 211T606 131Q755 131 841 226T928 485V1120H1112V0H928V172Q861 70 773 21T567 -29Q374 -29 274 91T174 442ZM729 1552H932V1350H729V1552ZM338 1552H541V1350H338V1552Z"
/>
<glyph unicode="&#xfd;" glyph-name="yacute" horiz-adv-x="1212" d="M659 -104Q581 -304 507 -365T309 -426H162V-272H270Q346 -272 388 -236T481 -66L514 18L61 1120H256L606 244L956 1120H1151L659 -104ZM745 1638H944L618 1262H465L745 1638Z" />
<glyph unicode="&#xfe;" glyph-name="thorn" horiz-adv-x="1300" d="M371 168V-426H186V1556H371V950Q429 1050 517 1098T729 1147Q933 1147 1060 985T1188 559Q1188 295 1061 133T729 -29Q606 -29 518 19T371 168ZM997 559Q997 762 914 877T684 993Q538 993 455
878T371 559Q371 356 454 241T684 125Q830 125 913 240T997 559Z" />
<glyph unicode="&#xff;" glyph-name="ydieresis" horiz-adv-x="1212" d="M659 -104Q581 -304 507 -365T309 -426H162V-272H270Q346 -272 388 -236T481 -66L514 18L61 1120H256L606 244L956 1120H1151L659 -104ZM700 1552H903V1350H700V1552ZM309 1552H512V1350H309V1552Z" />
<glyph unicode="&#x100;" glyph-name="Amacron" horiz-adv-x="1401" d="M401 1841H999V1693H401V1841ZM700 1294L426 551H975L700 1294ZM586 1493H815L1384 0H1174L1038 383H365L229 0H16L586 1493Z" />
<glyph unicode="&#x101;" glyph-name="amacron" horiz-adv-x="1255" d="M287 1526H885V1378H287V1526ZM702 563Q479 563 393 512T307 338Q307 240 371 183T547 125Q700 125 792 233T885 522V563H702ZM1069 639V0H885V170Q822 68 728 20T498 -29Q326 -29 225 67T123
326Q123 515 249 611T627 707H885V725Q885 852 802 921T567 991Q471 991 380 968T205 899V1069Q306 1108 401 1127T586 1147Q829 1147 949 1021T1069 639Z" />
<glyph unicode="&#x102;" glyph-name="Abreve" horiz-adv-x="1401" d="M405 1938H523Q534 1863 582 1826T718 1788Q804 1788 852 1825T913 1938H1031Q1021 1795 942 1723T718 1651Q573 1651 494 1723T405 1938ZM700 1294L426 551H975L700 1294ZM586 1493H815L1384
0H1174L1038 383H365L229 0H16L586 1493Z" />
<glyph unicode="&#x103;" glyph-name="abreve" horiz-adv-x="1255" d="M278 1823H396Q407 1748 455 1711T591 1673Q677 1673 725 1710T786 1823H904Q894 1680 815 1608T591 1536Q446 1536 367 1608T278 1823ZM702 563Q479 563 393 512T307 338Q307 240 371 183T547
125Q700 125 792 233T885 522V563H702ZM1069 639V0H885V170Q822 68 728 20T498 -29Q326 -29 225 67T123 326Q123 515 249 611T627 707H885V725Q885 852 802 921T567 991Q471 991 380 968T205 899V1069Q306 1108 401 1127T586 1147Q829 1147 949 1021T1069 639Z"
/>
<glyph unicode="&#x104;" glyph-name="Aogonek" horiz-adv-x="1401" d="M700 1294L426 551H975L700 1294ZM586 1493H815L1384 0H1174L1038 383H365L229 0H16L586 1493ZM1180 0H1299Q1254 -61 1233 -105T1211 -180Q1211 -226 1238 -249T1320 -272Q1352 -272 1383
-265T1445 -242V-375Q1407 -385 1373 -390T1309 -395Q1187 -395 1130 -352T1072 -215Q1072 -167 1098 -115T1180 0Z" />
<glyph unicode="&#x105;" glyph-name="aogonek" horiz-adv-x="1255" d="M702 563Q479 563 393 512T307 338Q307 240 371 183T547 125Q700 125 792 233T885 522V563H702ZM1069 639V0H885V170Q822 68 728 20T498 -29Q326 -29 225 67T123 326Q123 515 249 611T627
707H885V725Q885 852 802 921T567 991Q471 991 380 968T205 899V1069Q306 1108 401 1127T586 1147Q829 1147 949 1021T1069 639ZM887 0H1006Q961 -61 940 -105T918 -180Q918 -226 945 -249T1027 -272Q1059 -272 1090 -265T1152 -242V-375Q1114 -385 1080 -390T1016
-395Q894 -395 837 -352T779 -215Q779 -167 805 -115T887 0Z" />
<glyph unicode="&#x106;" glyph-name="Cacute" horiz-adv-x="1430" d="M1319 1378V1165Q1217 1260 1102 1307T856 1354Q600 1354 464 1198T328 745Q328 450 464 294T856 137Q986 137 1101 184T1319 326V115Q1213 43 1095 7T844 -29Q505 -29 310 178T115 745Q115
1105 310 1312T844 1520Q978 1520 1096 1485T1319 1378ZM868 1899H1053L825 1635H672L868 1899Z" />
<glyph unicode="&#x107;" glyph-name="cacute" horiz-adv-x="1126" d="M999 1077V905Q921 948 843 969T684 991Q505 991 406 878T307 559Q307 354 406 241T684 127Q764 127 842 148T999 213V43Q922 7 840 -11T664 -29Q411 -29 262 130T113 559Q113 833 263 990T676
1147Q761 1147 842 1130T999 1077ZM788 1638H987L661 1262H508L788 1638Z" />
<glyph unicode="&#x108;" glyph-name="Ccircumflex" horiz-adv-x="1430" d="M750 1901H938L1149 1635H1010L844 1813L678 1635H539L750 1901ZM1319 1378V1165Q1217 1260 1102 1307T856 1354Q600 1354 464 1198T328 745Q328 450 464 294T856 137Q986 137 1101 184T1319
326V115Q1213 43 1095 7T844 -29Q505 -29 310 178T115 745Q115 1105 310 1312T844 1520Q978 1520 1096 1485T1319 1378Z" />
<glyph unicode="&#x109;" glyph-name="ccircumflex" horiz-adv-x="1126" d="M999 1077V905Q921 948 843 969T684 991Q505 991 406 878T307 559Q307 354 406 241T684 127Q764 127 842 148T999 213V43Q922 7 840 -11T664 -29Q411 -29 262 130T113 559Q113 833 263
990T676 1147Q761 1147 842 1130T999 1077ZM602 1638H750L995 1262H856L676 1507L496 1262H357L602 1638Z" />
<glyph unicode="&#x10a;" glyph-name="Cdotaccent" horiz-adv-x="1430" d="M1319 1378V1165Q1217 1260 1102 1307T856 1354Q600 1354 464 1198T328 745Q328 450 464 294T856 137Q986 137 1101 184T1319 326V115Q1213 43 1095 7T844 -29Q505 -29 310 178T115 745Q115
1105 310 1312T844 1520Q978 1520 1096 1485T1319 1378ZM742 1872H946V1667H742V1872Z" />
<glyph unicode="&#x10b;" glyph-name="cdotaccent" horiz-adv-x="1126" d="M999 1077V905Q921 948 843 969T684 991Q505 991 406 878T307 559Q307 354 406 241T684 127Q764 127 842 148T999 213V43Q922 7 840 -11T664 -29Q411 -29 262 130T113 559Q113 833 263
990T676 1147Q761 1147 842 1130T999 1077ZM574 1552H778V1348H574V1552Z" />
<glyph unicode="&#x10c;" glyph-name="Ccaron" horiz-adv-x="1430" d="M1319 1378V1165Q1217 1260 1102 1307T856 1354Q600 1354 464 1198T328 745Q328 450 464 294T856 137Q986 137 1101 184T1319 326V115Q1213 43 1095 7T844 -29Q505 -29 310 178T115 745Q115
1105 310 1312T844 1520Q978 1520 1096 1485T1319 1378ZM719 1635L508 1901H647L813 1723L979 1901H1118L907 1635H719Z" />
<glyph unicode="&#x10d;" glyph-name="ccaron" horiz-adv-x="1126" d="M999 1077V905Q921 948 843 969T684 991Q505 991 406 878T307 559Q307 354 406 241T684 127Q764 127 842 148T999 213V43Q922 7 840 -11T664 -29Q411 -29 262 130T113 559Q113 833 263 990T676
1147Q761 1147 842 1130T999 1077ZM575 1262L330 1638H469L649 1393L829 1638H968L723 1262H575Z" />
<glyph unicode="&#x10e;" glyph-name="Dcaron" horiz-adv-x="1577" d="M403 1327V166H647Q956 166 1099 306T1243 748Q1243 1048 1100 1187T647 1327H403ZM201 1493H616Q1050 1493 1253 1313T1456 748Q1456 362 1252 181T616 0H201V1493ZM654 1655L443 1921H582L748
1743L914 1921H1053L842 1655H654Z" />
<glyph unicode="&#x10f;" glyph-name="dcaron" horiz-adv-x="1300" d="M930 950V1556H1114V0H930V168Q872 68 784 20T571 -29Q368 -29 241 133T113 559Q113 823 240 985T571 1147Q695 1147 783 1099T930 950ZM303 559Q303 356 386 241T616 125Q762 125 846 240T930
559Q930 762 846 877T616 993Q470 993 387 878T303 559ZM1300 1554H1499L1382 1178H1229L1300 1554Z" />
<glyph unicode="&#x110;" glyph-name="Dcroat" horiz-adv-x="1587" d="M211 1493H627Q1060 1493 1263 1313T1466 748Q1466 362 1263 181T627 0H211V700H10V844H211V1493ZM414 1327V844H750V700H414V166H657Q966 166 1109 306T1253 748Q1253 1048 1110 1187T657 1327H414Z" />
<glyph unicode="&#x111;" glyph-name="" horiz-adv-x="1300" d="M930 950V1284H604V1409H930V1556H1114V1409H1268V1284H1114V0H930V168Q872 68 784 20T571 -29Q368 -29 241 133T113 559Q113 823 240 985T571 1147Q695 1147 783 1099T930 950ZM303 559Q303 356
386 241T616 125Q762 125 846 240T930 559Q930 762 846 877T616 993Q470 993 387 878T303 559Z" />
<glyph unicode="&#x112;" glyph-name="Emacron" horiz-adv-x="1294" d="M201 1493H1145V1323H403V881H1114V711H403V170H1163V0H201V1493ZM374 1843H972V1695H374V1843Z" />
<glyph unicode="&#x113;" glyph-name="emacron" horiz-adv-x="1260" d="M363 1526H961V1378H363V1526ZM1151 606V516H305Q317 326 419 227T705 127Q811 127 910 153T1108 231V57Q1009 15 905 -7T694 -29Q426 -29 270 127T113 549Q113 824 261 985T662 1147Q888
1147 1019 1002T1151 606ZM967 660Q965 811 883 901T664 991Q510 991 418 904T311 659L967 660Z" />
<glyph unicode="&#x114;" glyph-name="Ebreve" horiz-adv-x="1294" d="M360 1901H478Q491 1847 540 1819T673 1790Q755 1790 803 1817T868 1901H986Q976 1782 896 1721T673 1659Q529 1659 450 1720T360 1901ZM201 1493H1145V1323H403V881H1114V711H403V170H1163V0H201V1493Z"
/>
<glyph unicode="&#x115;" glyph-name="ebreve" horiz-adv-x="1260" d="M349 1608H467Q478 1533 526 1496T662 1458Q748 1458 796 1495T857 1608H975Q965 1465 886 1393T662 1321Q517 1321 438 1393T349 1608ZM1151 606V516H305Q317 326 419 227T705 127Q811 127
910 153T1108 231V57Q1009 15 905 -7T694 -29Q426 -29 270 127T113 549Q113 824 261 985T662 1147Q888 1147 1019 1002T1151 606ZM967 660Q965 811 883 901T664 991Q510 991 418 904T311 659L967 660Z" />
<glyph unicode="&#x116;" glyph-name="Edotaccent" horiz-adv-x="1294" d="M201 1493H1145V1323H403V881H1114V711H403V170H1163V0H201V1493ZM571 1872H775V1667H571V1872Z" />
<glyph unicode="&#x117;" glyph-name="edotaccent" horiz-adv-x="1260" d="M1151 606V516H305Q317 326 419 227T705 127Q811 127 910 153T1108 231V57Q1009 15 905 -7T694 -29Q426 -29 270 127T113 549Q113 824 261 985T662 1147Q888 1147 1019 1002T1151 606ZM967
660Q965 811 883 901T664 991Q510 991 418 904T311 659L967 660ZM560 1552H764V1348H560V1552Z" />
<glyph unicode="&#x118;" glyph-name="Eogonek" horiz-adv-x="1294" d="M201 1493H1145V1323H403V881H1114V711H403V170H1163V0H201V1493ZM900 0H1019Q974 -61 953 -105T931 -180Q931 -226 958 -249T1040 -272Q1072 -272 1103 -265T1165 -242V-375Q1127 -385 1093
-390T1029 -395Q907 -395 850 -352T792 -215Q792 -167 818 -115T900 0Z" />
<glyph unicode="&#x119;" glyph-name="eogonek" horiz-adv-x="1260" d="M1151 606V516H305Q317 326 419 227T705 127Q811 127 910 153T1108 231V57Q1009 15 905 -7T694 -29Q426 -29 270 127T113 549Q113 824 261 985T662 1147Q888 1147 1019 1002T1151 606ZM967
660Q965 811 883 901T664 991Q510 991 418 904T311 659L967 660ZM816 0H935Q890 -61 869 -105T847 -180Q847 -226 874 -249T956 -272Q988 -272 1019 -265T1081 -242V-375Q1043 -385 1009 -390T945 -395Q823 -395 766 -352T708 -215Q708 -167 734 -115T816 0Z" />
<glyph unicode="&#x11a;" glyph-name="Ecaron" horiz-adv-x="1294" d="M201 1493H1145V1323H403V881H1114V711H403V170H1163V0H201V1493ZM584 1629L373 1895H512L678 1717L844 1895H983L772 1629H584Z" />
<glyph unicode="&#x11b;" glyph-name="ecaron" horiz-adv-x="1260" d="M1151 606V516H305Q317 326 419 227T705 127Q811 127 910 153T1108 231V57Q1009 15 905 -7T694 -29Q426 -29 270 127T113 549Q113 824 261 985T662 1147Q888 1147 1019 1002T1151 606ZM967
660Q965 811 883 901T664 991Q510 991 418 904T311 659L967 660ZM586 1257L341 1633H480L660 1388L840 1633H979L734 1257H586Z" />
<glyph unicode="&#x11c;" glyph-name="Gcircumflex" horiz-adv-x="1587" d="M766 1901H954L1165 1635H1026L860 1813L694 1635H555L766 1901ZM1219 213V614H889V780H1419V139Q1302 56 1161 14T860 -29Q510 -29 313 175T115 745Q115 1111 312 1315T860 1520Q1006
1520 1137 1484T1380 1378V1163Q1268 1258 1142 1306T877 1354Q603 1354 466 1201T328 745Q328 443 465 290T877 137Q984 137 1068 155T1219 213Z" />
<glyph unicode="&#x11d;" glyph-name="gcircumflex" horiz-adv-x="1300" d="M542 1638H690L935 1262H796L616 1507L436 1262H297L542 1638ZM930 573Q930 773 848 883T616 993Q468 993 386 883T303 573Q303 374 385 264T616 154Q765 154 847 264T930 573ZM1114
139Q1114 -147 987 -286T598 -426Q501 -426 415 -412T248 -367V-188Q329 -232 408 -253T569 -274Q750 -274 840 -180T930 106V197Q873 98 784 49T571 0Q365 0 239 157T113 573Q113 833 239 990T571 1147Q695 1147 784 1098T930 950V1120H1114V139Z" />
<glyph unicode="&#x11e;" glyph-name="Gbreve" horiz-adv-x="1587" d="M1219 213V614H889V780H1419V139Q1302 56 1161 14T860 -29Q510 -29 313 175T115 745Q115 1111 312 1315T860 1520Q1006 1520 1137 1484T1380 1378V1163Q1268 1258 1142 1306T877 1354Q603
1354 466 1201T328 745Q328 443 465 290T877 137Q984 137 1068 155T1219 213ZM482 1901H600Q613 1847 662 1819T795 1790Q877 1790 925 1817T990 1901H1108Q1098 1782 1018 1721T795 1659Q651 1659 572 1720T482 1901Z" />
<glyph unicode="&#x11f;" glyph-name="gbreve" horiz-adv-x="1300" d="M930 573Q930 773 848 883T616 993Q468 993 386 883T303 573Q303 374 385 264T616 154Q765 154 847 264T930 573ZM1114 139Q1114 -147 987 -286T598 -426Q501 -426 415 -412T248 -367V-188Q329
-232 408 -253T569 -274Q750 -274 840 -180T930 106V197Q873 98 784 49T571 0Q365 0 239 157T113 573Q113 833 239 990T571 1147Q695 1147 784 1098T930 950V1120H1114V139ZM338 1608H456Q467 1533 515 1496T651 1458Q737 1458 785 1495T846 1608H964Q954 1465
875 1393T651 1321Q506 1321 427 1393T338 1608Z" />
<glyph unicode="&#x120;" glyph-name="Gdotaccent" horiz-adv-x="1587" d="M758 1872H962V1667H758V1872ZM1219 213V614H889V780H1419V139Q1302 56 1161 14T860 -29Q510 -29 313 175T115 745Q115 1111 312 1315T860 1520Q1006 1520 1137 1484T1380 1378V1163Q1268
1258 1142 1306T877 1354Q603 1354 466 1201T328 745Q328 443 465 290T877 137Q984 137 1068 155T1219 213Z" />
<glyph unicode="&#x121;" glyph-name="gdotaccent" horiz-adv-x="1300" d="M514 1552H718V1348H514V1552ZM930 573Q930 773 848 883T616 993Q468 993 386 883T303 573Q303 374 385 264T616 154Q765 154 847 264T930 573ZM1114 139Q1114 -147 987 -286T598 -426Q501
-426 415 -412T248 -367V-188Q329 -232 408 -253T569 -274Q750 -274 840 -180T930 106V197Q873 98 784 49T571 0Q365 0 239 157T113 573Q113 833 239 990T571 1147Q695 1147 784 1098T930 950V1120H1114V139Z" />
<glyph unicode="&#x122;" glyph-name="Gcommaaccent" horiz-adv-x="1587" d="M794 -191H1005L841 -511H712L794 -191ZM1219 213V614H889V780H1419V139Q1302 56 1161 14T860 -29Q510 -29 313 175T115 745Q115 1111 312 1315T860 1520Q1006 1520 1137 1484T1380
1378V1163Q1268 1258 1142 1306T877 1354Q603 1354 466 1201T328 745Q328 443 465 290T877 137Q984 137 1068 155T1219 213Z" />
<glyph unicode="&#x123;" glyph-name="gcommaaccent" horiz-adv-x="1300" d="M722 1269H511L675 1588H804L722 1269ZM930 573Q930 773 848 883T616 993Q468 993 386 883T303 573Q303 374 385 264T616 154Q765 154 847 264T930 573ZM1114 139Q1114 -147 987 -286T598
-426Q501 -426 415 -412T248 -367V-188Q329 -232 408 -253T569 -274Q750 -274 840 -180T930 106V197Q873 98 784 49T571 0Q365 0 239 157T113 573Q113 833 239 990T571 1147Q695 1147 784 1098T930 950V1120H1114V139Z" />
<glyph unicode="&#x124;" glyph-name="Hcircumflex" horiz-adv-x="1540" d="M676 1901H864L1075 1635H936L770 1813L604 1635H465L676 1901ZM201 1493H403V881H1137V1493H1339V0H1137V711H403V0H201V1493Z" />
<glyph unicode="&#x125;" glyph-name="hcircumflex" horiz-adv-x="1298" d="M184 1901H372L583 1635H444L278 1813L112 1635H-27L184 1901ZM1124 676V0H940V670Q940 829 878 908T692 987Q543 987 457 892T371 633V0H186V1556H371V946Q437 1047 526 1097T733 1147Q926
1147 1025 1028T1124 676Z" />
<glyph unicode="&#x126;" glyph-name="Hbar" horiz-adv-x="1876" d="M369 1493H571V1269H1305V1493H1507V1269H1675V1105H1507V0H1305V711H571V0H369V1105H201V1269H369V1493ZM571 1105V881H1305V1105H571Z" />
<glyph unicode="&#x127;" glyph-name="hbar" horiz-adv-x="1423" d="M1183 676V0H999V670Q999 829 937 908T751 987Q602 987 516 892T430 633V0H245V1270H120V1434H245V1556H430V1434H782V1270H430V946Q496 1047 585 1097T792 1147Q985 1147 1084 1028T1183 676Z" />
<glyph unicode="&#x128;" glyph-name="Itilde" horiz-adv-x="604" d="M298 1710L241 1743Q216 1757 201 1762T173 1768Q137 1768 117 1743T97 1673V1667H-28Q-28 1768 23 1827T161 1886Q197 1886 227 1878T306 1843L363 1813Q386 1800 403 1794T435 1788Q467 1788
487 1813T507 1880V1886H632Q630 1786 579 1727T443 1667Q409 1667 380 1675T298 1710ZM201 1493H403V0H201V1493Z" />
<glyph unicode="&#x129;" glyph-name="itilde" horiz-adv-x="569" d="M281 1370L224 1425Q202 1445 186 1454T156 1464Q118 1464 100 1428T80 1309H-45Q-43 1444 8 1517T150 1591Q188 1591 220 1577T289 1530L346 1475Q368 1455 384 1446T414 1436Q452 1436 470
1472T490 1591H615Q613 1456 562 1383T420 1309Q382 1309 350 1323T281 1370ZM193 1120H377V0H193V1120Z" />
<glyph unicode="&#x12a;" glyph-name="Imacron" horiz-adv-x="604" d="M3 1841H601V1693H3V1841ZM201 1493H403V0H201V1493Z" />
<glyph unicode="&#x12b;" glyph-name="imacron" horiz-adv-x="569" d="M-14 1525H584V1377H-14V1525ZM193 1120H377V0H193V1120Z" />
<glyph unicode="&#x12c;" glyph-name="Ibreve" horiz-adv-x="604" d="M-11 1901H107Q120 1847 169 1819T302 1790Q384 1790 432 1817T497 1901H615Q605 1782 525 1721T302 1659Q158 1659 79 1720T-11 1901ZM201 1493H403V0H201V1493Z" />
<glyph unicode="&#x12d;" glyph-name="ibreve" horiz-adv-x="569" d="M-28 1608H90Q101 1533 149 1496T285 1458Q371 1458 419 1495T480 1608H598Q588 1465 509 1393T285 1321Q140 1321 61 1393T-28 1608ZM193 1120H377V0H193V1120Z" />
<glyph unicode="&#x12e;" glyph-name="Iogonek" horiz-adv-x="604" d="M284 0H403Q358 -61 337 -105T315 -180Q315 -226 342 -249T424 -272Q456 -272 487 -265T549 -242V-375Q511 -385 477 -390T413 -395Q291 -395 234 -352T176 -215Q176 -167 202 -115T284 0ZM201
1493H403V0H201V1493Z" />
<glyph unicode="&#x12f;" glyph-name="iogonek" horiz-adv-x="569" d="M258 0H377Q332 -61 311 -105T289 -180Q289 -226 316 -249T398 -272Q430 -272 461 -265T523 -242V-375Q485 -385 451 -390T387 -395Q265 -395 208 -352T150 -215Q150 -167 176 -115T258 0ZM193
1120H377V0H193V1120ZM193 1556H377V1323H193V1556Z" />
<glyph unicode="&#x130;" glyph-name="Idot" horiz-adv-x="604" d="M201 1493H403V0H201V1493ZM201 1872H405V1667H201V1872Z" />
<glyph unicode="&#x131;" glyph-name="dotlessi" horiz-adv-x="569" d="M193 1120H377V0H193V1120Z" />
<glyph unicode="&#x132;" glyph-name="IJ" horiz-adv-x="1208" d="M805 1493H1007V104Q1007 -166 905 -288T575 -410H498V-240H561Q695 -240 750 -165T805 104V1493ZM201 1493H403V0H201V1493Z" />
<glyph unicode="&#x133;" glyph-name="ij" horiz-adv-x="1138" d="M761 1120H945V-20Q945 -234 864 -330T601 -426H531V-270H580Q685 -270 723 -222T761 -20V1120ZM761 1556H945V1323H761V1556ZM193 1120H377V0H193V1120ZM193 1556H377V1323H193V1556Z" />
<glyph unicode="&#x134;" glyph-name="Jcircumflex" horiz-adv-x="604" d="M208 1901H396L607 1635H468L302 1813L136 1635H-3L208 1901ZM201 1493H403V104Q403 -166 301 -288T-29 -410H-106V-240H-43Q91 -240 146 -165T201 104V1493Z" />
<glyph unicode="&#x135;" glyph-name="jcircumflex" horiz-adv-x="569" d="M211 1638H359L604 1262H465L285 1507L105 1262H-34L211 1638ZM193 1120H377V-20Q377 -234 296 -330T33 -426H-37V-270H12Q117 -270 155 -222T193 -20V1120Z" />
<glyph unicode="&#x136;" glyph-name="Kcommaaccent" horiz-adv-x="1343" d="M727 -162H938L774 -482H645L727 -162ZM201 1493H403V862L1073 1493H1333L592 797L1386 0H1120L403 719V0H201V1493Z" />
<glyph unicode="&#x137;" glyph-name="kcommaaccent" horiz-adv-x="1186" d="M616 -162H827L663 -482H534L616 -162ZM186 1556H371V637L920 1120H1155L561 596L1180 0H940L371 547V0H186V1556Z" />
<glyph unicode="&#x138;" glyph-name="kgreenlandic" horiz-adv-x="1186" d="M186 1120H371V635L920 1120H1155L561 594L1180 0H940L371 545V0H186V1120Z" />
<glyph unicode="&#x139;" glyph-name="Lacute" horiz-adv-x="1141" d="M421 1900H606L378 1636H225L421 1900ZM201 1493H403V170H1130V0H201V1493Z" />
<glyph unicode="&#x13a;" glyph-name="lacute" horiz-adv-x="569" d="M401 1900H586L358 1636H205L401 1900ZM193 1556H377V0H193V1556Z" />
<glyph unicode="&#x13b;" glyph-name="Lcommaaccent" horiz-adv-x="1141" d="M599 -162H810L646 -482H517L599 -162ZM201 1493H403V170H1130V0H201V1493Z" />
<glyph unicode="&#x13c;" glyph-name="lcommaaccent" horiz-adv-x="569" d="M218 -162H429L265 -482H136L218 -162ZM193 1556H377V0H193V1556Z" />
<glyph unicode="&#x13d;" glyph-name="Lcaron" horiz-adv-x="1141" d="M671 1493H870L753 1117H600L671 1493ZM201 1493H403V170H1130V0H201V1493Z" />
<glyph unicode="&#x13e;" glyph-name="lcaron" horiz-adv-x="768" d="M569 1556H768L651 1180H498L569 1556ZM193 1556H377V0H193V1556Z" />
<glyph unicode="&#x13f;" glyph-name="Ldot" horiz-adv-x="1141" d="M780 957H991V703H780V957ZM201 1493H403V170H1130V0H201V1493Z" />
<glyph unicode="&#x140;" glyph-name="ldot" horiz-adv-x="700" d="M433 953H644V699H433V953ZM193 1556H377V0H193V1556Z" />
<glyph unicode="&#x141;" glyph-name="Lslash" horiz-adv-x="1151" d="M211 1493H414V877L727 1096L807 985L414 711V170H1141V0H211V571L63 465L-14 575L211 733V1493Z" />
<glyph unicode="&#x142;" glyph-name="lslash" horiz-adv-x="582" d="M199 1556H383V954L508 1044L584 938L383 797V0H199V666L76 578L2 684L199 825V1556Z" />
<glyph unicode="&#x143;" glyph-name="Nacute" horiz-adv-x="1532" d="M764 1900H949L721 1636H568L764 1900ZM201 1493H473L1135 244V1493H1331V0H1059L397 1249V0H201V1493Z" />
<glyph unicode="&#x144;" glyph-name="nacute" horiz-adv-x="1298" d="M717 1645H916L590 1269H437L717 1645ZM1124 676V0H940V670Q940 829 878 908T692 987Q543 987 457 892T371 633V0H186V1120H371V946Q437 1047 526 1097T733 1147Q926 1147 1025 1028T1124 676Z" />
<glyph unicode="&#x145;" glyph-name="Ncommaaccent" horiz-adv-x="1532" d="M700 -162H911L747 -482H618L700 -162ZM201 1493H473L1135 244V1493H1331V0H1059L397 1249V0H201V1493Z" />
<glyph unicode="&#x146;" glyph-name="ncommaaccent" horiz-adv-x="1298" d="M588 -162H799L635 -482H506L588 -162ZM1124 676V0H940V670Q940 829 878 908T692 987Q543 987 457 892T371 633V0H186V1120H371V946Q437 1047 526 1097T733 1147Q926 1147 1025 1028T1124 676Z" />
<glyph unicode="&#x147;" glyph-name="Ncaron" horiz-adv-x="1532" d="M201 1493H473L1135 244V1493H1331V0H1059L397 1249V0H201V1493ZM663 1621L452 1887H591L757 1709L923 1887H1062L851 1621H663Z" />
<glyph unicode="&#x148;" glyph-name="ncaron" horiz-adv-x="1298" d="M1124 676V0H940V670Q940 829 878 908T692 987Q543 987 457 892T371 633V0H186V1120H371V946Q437 1047 526 1097T733 1147Q926 1147 1025 1028T1124 676ZM579 1262L334 1638H473L653 1393L833
1638H972L727 1262H579Z" />
<glyph unicode="&#x149;" glyph-name="napostrophe" horiz-adv-x="1666" d="M1465 676V0H1281V670Q1281 829 1219 908T1033 987Q884 987 798 892T712 633V0H527V1120H712V946Q778 1047 867 1097T1074 1147Q1267 1147 1366 1028T1465 676ZM287 1493H498V1341L334
1022H205L287 1341V1493Z" />
<glyph unicode="&#x14a;" glyph-name="Eng" horiz-adv-x="1532" d="M1104 895Q1104 1323 797 1323Q618 1323 511 1196T403 846V0H201V1493H403V1252Q481 1386 586 1453Q692 1520 845 1520Q1072 1520 1188 1361T1305 893V-20Q1305 -233 1224 -330Q1142 -426 961
-426H874V-270H923Q1025 -270 1064 -225T1104 -20V895Z" />
<glyph unicode="&#x14b;" glyph-name="eng" horiz-adv-x="1298" d="M1124 676V-20Q1124 -234 1042 -330Q961 -426 780 -426H526V-270H759Q864 -270 902 -222Q940 -173 940 -20V670Q940 829 878 908T692 987Q543 987 457 892T371 633V0H186V1120H371V946Q437 1047
526 1097Q616 1147 733 1147Q926 1147 1025 1028Q1124 908 1124 676Z" />
<glyph unicode="&#x14c;" glyph-name="Omacron" horiz-adv-x="1612" d="M508 1841H1106V1693H508V1841ZM807 1356Q587 1356 458 1192T328 745Q328 463 457 299T807 135Q1027 135 1155 299T1284 745Q1284 1028 1156 1192T807 1356ZM807 1520Q1121 1520 1309 1310T1497
745Q1497 392 1309 182T807 -29Q492 -29 304 181T115 745Q115 1099 303 1309T807 1520Z" />
<glyph unicode="&#x14d;" glyph-name="omacron" horiz-adv-x="1253" d="M328 1781H926V1633H328V1781ZM627 991Q479 991 393 876T307 559Q307 358 392 243T627 127Q774 127 860 243T946 559Q946 758 860 874T627 991ZM627 1147Q867 1147 1004 991T1141 559Q1141
284 1004 128T627 -29Q386 -29 250 127T113 559Q113 835 249 991T627 1147Z" />
<glyph unicode="&#x14e;" glyph-name="Obreve" horiz-adv-x="1612" d="M494 1901H612Q625 1847 674 1819T807 1790Q889 1790 937 1817T1002 1901H1120Q1110 1782 1030 1721T807 1659Q663 1659 584 1720T494 1901ZM807 1356Q587 1356 458 1192T328 745Q328 463
457 299T807 135Q1027 135 1155 299T1284 745Q1284 1028 1156 1192T807 1356ZM807 1520Q1121 1520 1309 1310T1497 745Q1497 392 1309 182T807 -29Q492 -29 304 181T115 745Q115 1099 303 1309T807 1520Z" />
<glyph unicode="&#x14f;" glyph-name="obreve" horiz-adv-x="1253" d="M314 1608H432Q443 1533 491 1496T627 1458Q713 1458 761 1495T822 1608H940Q930 1465 851 1393T627 1321Q482 1321 403 1393T314 1608ZM627 991Q479 991 393 876T307 559Q307 358 392 243T627
127Q774 127 860 243T946 559Q946 758 860 874T627 991ZM627 1147Q867 1147 1004 991T1141 559Q1141 284 1004 128T627 -29Q386 -29 250 127T113 559Q113 835 249 991T627 1147Z" />
<glyph unicode="&#x150;" glyph-name="Ohungarumlaut" horiz-adv-x="1612" d="M1056 1899H1241L1013 1635H860L1056 1899ZM721 1899H906L678 1635H525L721 1899ZM807 1356Q587 1356 458 1192T328 745Q328 463 457 299T807 135Q1027 135 1155 299T1284 745Q1284
1028 1156 1192T807 1356ZM807 1520Q1121 1520 1309 1310T1497 745Q1497 392 1309 182T807 -29Q492 -29 304 181T115 745Q115 1099 303 1309T807 1520Z" />
<glyph unicode="&#x151;" glyph-name="ohungarumlaut" horiz-adv-x="1253" d="M924 1638H1102L854 1262H719L924 1638ZM590 1638H760L537 1262H400L590 1638ZM627 991Q479 991 393 876T307 559Q307 358 392 243T627 127Q774 127 860 243T946 559Q946 758 860 874T627
991ZM627 1147Q867 1147 1004 991T1141 559Q1141 284 1004 128T627 -29Q386 -29 250 127T113 559Q113 835 249 991T627 1147Z" />
<glyph unicode="&#x152;" glyph-name="OE" horiz-adv-x="2191" d="M2042 1493V1323H1300V881H2011V711H1300V170H2060V0H995Q562 0 339 190T115 748Q115 1113 338 1303T995 1493H2042ZM1098 1323H969Q648 1323 488 1180T328 748Q328 459 488 315T969 170H1098V1323Z" />
<glyph unicode="&#x153;" glyph-name="oe" horiz-adv-x="2095" d="M1802 660Q1800 812 1718 901T1499 991Q1346 991 1254 904T1147 659L1802 660ZM1987 606V516H1141Q1153 326 1255 227T1540 127Q1646 127 1746 153T1944 231V57Q1844 15 1740 -7T1530 -29Q1370
-29 1249 26T1047 190Q976 80 872 26T627 -29Q386 -29 250 127T113 559Q113 835 249 991T627 1147Q767 1147 872 1092T1044 928Q1122 1035 1238 1091T1497 1147Q1723 1147 1855 1002T1987 606ZM627 991Q479 991 393 876T307 559Q307 358 392 243T627 127Q774 127
860 243T946 559Q946 758 860 874T627 991Z" />
<glyph unicode="&#x154;" glyph-name="Racute" horiz-adv-x="1423" d="M716 1900H901L673 1636H520L716 1900ZM909 700Q974 678 1035 606T1159 408L1364 0H1147L956 383Q882 533 813 582T623 631H403V0H201V1493H657Q913 1493 1039 1386T1165 1063Q1165 922 1100
829T909 700ZM403 1327V797H657Q803 797 877 864T952 1063Q952 1194 878 1260T657 1327H403Z" />
<glyph unicode="&#x155;" glyph-name="racute" horiz-adv-x="842" d="M717 1645H916L590 1269H437L717 1645ZM842 948Q811 966 775 974T694 983Q538 983 455 882T371 590V0H186V1120H371V946Q429 1048 522 1097T748 1147Q767 1147 790 1145T841 1137L842 948Z" />
<glyph unicode="&#x156;" glyph-name="Rcommaaccent" horiz-adv-x="1423" d="M716 -162H927L763 -482H634L716 -162ZM909 700Q974 678 1035 606T1159 408L1364 0H1147L956 383Q882 533 813 582T623 631H403V0H201V1493H657Q913 1493 1039 1386T1165 1063Q1165
922 1100 829T909 700ZM403 1327V797H657Q803 797 877 864T952 1063Q952 1194 878 1260T657 1327H403Z" />
<glyph unicode="&#x157;" glyph-name="rcommaaccent" horiz-adv-x="842" d="M212 -162H423L259 -482H130L212 -162ZM842 948Q811 966 775 974T694 983Q538 983 455 882T371 590V0H186V1120H371V946Q429 1048 522 1097T748 1147Q767 1147 790 1145T841 1137L842 948Z" />
<glyph unicode="&#x158;" glyph-name="Rcaron" horiz-adv-x="1423" d="M909 700Q974 678 1035 606T1159 408L1364 0H1147L956 383Q882 533 813 582T623 631H403V0H201V1493H657Q913 1493 1039 1386T1165 1063Q1165 922 1100 829T909 700ZM403 1327V797H657Q803
797 877 864T952 1063Q952 1194 878 1260T657 1327H403ZM543 1621L332 1887H471L637 1709L803 1887H942L731 1621H543Z" />
<glyph unicode="&#x159;" glyph-name="rcaron" horiz-adv-x="842" d="M842 948Q811 966 775 974T694 983Q538 983 455 882T371 590V0H186V1120H371V946Q429 1048 522 1097T748 1147Q767 1147 790 1145T841 1137L842 948ZM465 1262L220 1638H359L539 1393L719 1638H858L613
1262H465Z" />
<glyph unicode="&#x15a;" glyph-name="Sacute" horiz-adv-x="1300" d="M716 1900H901L673 1636H520L716 1900ZM1096 1444V1247Q981 1302 879 1329T682 1356Q517 1356 428 1292T338 1110Q338 1011 397 961T623 879L745 854Q971 811 1078 703T1186 412Q1186 195
1041 83T614 -29Q508 -29 389 -5T141 66V274Q264 205 382 170T614 135Q787 135 881 203T975 397Q975 507 908 569T686 662L563 686Q337 731 236 827T135 1094Q135 1292 274 1406T659 1520Q764 1520 873 1501T1096 1444Z" />
<glyph unicode="&#x15b;" glyph-name="sacute" horiz-adv-x="1067" d="M717 1645H916L590 1269H437L717 1645ZM907 1087V913Q829 953 745 973T571 993Q434 993 366 951T297 825Q297 761 346 725T543 655L606 641Q802 599 884 523T967 309Q967 153 844 62T504 -29Q414
-29 317 -12T111 41V231Q213 178 312 152T508 125Q638 125 708 169T778 295Q778 370 728 410T506 487L442 502Q271 538 195 612T119 817Q119 975 231 1061T549 1147Q651 1147 741 1132T907 1087Z" />
<glyph unicode="&#x15c;" glyph-name="Scircumflex" horiz-adv-x="1300" d="M565 1901H753L964 1635H825L659 1813L493 1635H354L565 1901ZM1096 1444V1247Q981 1302 879 1329T682 1356Q517 1356 428 1292T338 1110Q338 1011 397 961T623 879L745 854Q971 811
1078 703T1186 412Q1186 195 1041 83T614 -29Q508 -29 389 -5T141 66V274Q264 205 382 170T614 135Q787 135 881 203T975 397Q975 507 908 569T686 662L563 686Q337 731 236 827T135 1094Q135 1292 274 1406T659 1520Q764 1520 873 1501T1096 1444Z" />
<glyph unicode="&#x15d;" glyph-name="scircumflex" horiz-adv-x="1067" d="M475 1638H623L868 1262H729L549 1507L369 1262H230L475 1638ZM907 1087V913Q829 953 745 973T571 993Q434 993 366 951T297 825Q297 761 346 725T543 655L606 641Q802 599 884 523T967
309Q967 153 844 62T504 -29Q414 -29 317 -12T111 41V231Q213 178 312 152T508 125Q638 125 708 169T778 295Q778 370 728 410T506 487L442 502Q271 538 195 612T119 817Q119 975 231 1061T549 1147Q651 1147 741 1132T907 1087Z" />
<glyph unicode="&#x15e;" glyph-name="Scedilla" horiz-adv-x="1300" d="M1096 1444V1247Q981 1302 879 1329T682 1356Q517 1356 428 1292T338 1110Q338 1011 397 961T623 879L745 854Q971 811 1078 703T1186 412Q1186 195 1041 83T614 -29Q508 -29 389 -5T141
66V274Q264 205 382 170T614 135Q787 135 881 203T975 397Q975 507 908 569T686 662L563 686Q337 731 236 827T135 1094Q135 1292 274 1406T659 1520Q764 1520 873 1501T1096 1444ZM735 0Q790 -62 817 -114T844 -215Q844 -304 784 -349T606 -395Q560 -395 517 -389T430
-371V-240Q464 -257 501 -264T585 -272Q644 -272 674 -248T704 -178Q704 -148 683 -105T616 0H735Z" />
<glyph unicode="&#x15f;" glyph-name="scedilla" horiz-adv-x="1067" d="M907 1087V913Q829 953 745 973T571 993Q434 993 366 951T297 825Q297 761 346 725T543 655L606 641Q802 599 884 523T967 309Q967 153 844 62T504 -29Q414 -29 317 -12T111 41V231Q213
178 312 152T508 125Q638 125 708 169T778 295Q778 370 728 410T506 487L442 502Q271 538 195 612T119 817Q119 975 231 1061T549 1147Q651 1147 741 1132T907 1087ZM619 0Q674 -62 701 -114T728 -215Q728 -304 668 -349T490 -395Q444 -395 401 -389T314 -371V-240Q348
-257 385 -264T469 -272Q528 -272 558 -248T588 -178Q588 -148 567 -105T500 0H619Z" />
<glyph unicode="&#x160;" glyph-name="Scaron" horiz-adv-x="1300" d="M1096 1444V1247Q981 1302 879 1329T682 1356Q517 1356 428 1292T338 1110Q338 1011 397 961T623 879L745 854Q971 811 1078 703T1186 412Q1186 195 1041 83T614 -29Q508 -29 389 -5T141 66V274Q264
205 382 170T614 135Q787 135 881 203T975 397Q975 507 908 569T686 662L563 686Q337 731 236 827T135 1094Q135 1292 274 1406T659 1520Q764 1520 873 1501T1096 1444ZM557 1635L346 1901H485L651 1723L817 1901H956L745 1635H557Z" />
<glyph unicode="&#x161;" glyph-name="scaron" horiz-adv-x="1067" d="M907 1087V913Q829 953 745 973T571 993Q434 993 366 951T297 825Q297 761 346 725T543 655L606 641Q802 599 884 523T967 309Q967 153 844 62T504 -29Q414 -29 317 -12T111 41V231Q213 178
312 152T508 125Q638 125 708 169T778 295Q778 370 728 410T506 487L442 502Q271 538 195 612T119 817Q119 975 231 1061T549 1147Q651 1147 741 1132T907 1087ZM461 1262L216 1638H355L535 1393L715 1638H854L609 1262H461Z" />
<glyph unicode="&#x162;" glyph-name="Tcommaaccent" horiz-adv-x="1251" d="M676 0Q731 -62 758 -114T785 -215Q785 -304 725 -349T547 -395Q501 -395 458 -389T371 -371V-240Q405 -257 442 -264T526 -272Q585 -272 615 -248T645 -178Q645 -148 624 -105T557
0H676ZM-6 1493H1257V1323H727V0H524V1323H-6V1493Z" />
<glyph unicode="&#x163;" glyph-name="tcommaaccent" horiz-adv-x="803" d="M821 0Q876 -62 903 -114T930 -215Q930 -304 870 -349T692 -395Q646 -395 603 -389T516 -371V-240Q550 -257 587 -264T671 -272Q730 -272 760 -248T790 -178Q790 -148 769 -105T702 0H821ZM375
1438V1120H754V977H375V369Q375 232 412 193T565 154H754V0H565Q352 0 271 79T190 369V977H55V1120H190V1438H375Z" />
<glyph unicode="&#x164;" glyph-name="Tcaron" horiz-adv-x="1251" d="M-6 1493H1257V1323H727V0H524V1323H-6V1493ZM533 1621L322 1887H461L627 1709L793 1887H932L721 1621H533Z" />
<glyph unicode="&#x165;" glyph-name="tcaron" horiz-adv-x="803" d="M375 1438V1120H754V977H375V369Q375 232 412 193T565 154H754V0H565Q352 0 271 79T190 369V977H55V1120H190V1438H375ZM567 1666H766L649 1290H496L567 1666Z" />
<glyph unicode="&#x166;" glyph-name="Tbar" horiz-adv-x="1251" d="M-6 1493H1257V1323H727V747H992V577H727V0H524V577H259V747H524V1323H-6V1493Z" />
<glyph unicode="&#x167;" glyph-name="tbar" horiz-adv-x="803" d="M375 1438V1120H754V977H375V744H565V602H375V369Q375 232 412 193Q450 154 565 154H754V0H565Q352 0 271 80Q190 159 190 369V602H55V744H190V977H55V1120H190V1438H375Z" />
<glyph unicode="&#x168;" glyph-name="Utilde" horiz-adv-x="1499" d="M746 1710L689 1743Q664 1757 649 1762T621 1768Q585 1768 565 1743T545 1673V1667H420Q420 1768 471 1827T609 1886Q645 1886 675 1878T754 1843L811 1813Q834 1800 851 1794T883 1788Q915
1788 935 1813T955 1880V1886H1080Q1078 1786 1027 1727T891 1667Q857 1667 828 1675T746 1710ZM178 1493H381V586Q381 346 468 241T750 135Q944 135 1031 240T1118 586V1493H1321V561Q1321 269 1177 120T750 -29Q467 -29 323 120T178 561V1493Z" />
<glyph unicode="&#x169;" glyph-name="utilde" horiz-adv-x="1298" d="M639 1370L582 1425Q560 1445 544 1454T514 1464Q476 1464 458 1428T438 1309H313Q315 1444 366 1517T508 1591Q546 1591 578 1577T647 1530L704 1475Q726 1455 742 1446T772 1436Q810 1436
828 1472T848 1591H973Q971 1456 920 1383T778 1309Q740 1309 708 1323T639 1370ZM174 442V1120H358V449Q358 290 420 211T606 131Q755 131 841 226T928 485V1120H1112V0H928V172Q861 70 773 21T567 -29Q374 -29 274 91T174 442Z" />
<glyph unicode="&#x16a;" glyph-name="Umacron" horiz-adv-x="1499" d="M451 1841H1049V1693H451V1841ZM178 1493H381V586Q381 346 468 241T750 135Q944 135 1031 240T1118 586V1493H1321V561Q1321 269 1177 120T750 -29Q467 -29 323 120T178 561V1493Z" />
<glyph unicode="&#x16b;" glyph-name="umacron" horiz-adv-x="1298" d="M344 1525H942V1377H344V1525ZM174 442V1120H358V449Q358 290 420 211T606 131Q755 131 841 226T928 485V1120H1112V0H928V172Q861 70 773 21T567 -29Q374 -29 274 91T174 442Z" />
<glyph unicode="&#x16c;" glyph-name="Ubreve" horiz-adv-x="1499" d="M437 1901H555Q568 1847 617 1819T750 1790Q832 1790 880 1817T945 1901H1063Q1053 1782 973 1721T750 1659Q606 1659 527 1720T437 1901ZM178 1493H381V586Q381 346 468 241T750 135Q944
135 1031 240T1118 586V1493H1321V561Q1321 269 1177 120T750 -29Q467 -29 323 120T178 561V1493Z" />
<glyph unicode="&#x16d;" glyph-name="ubreve" horiz-adv-x="1298" d="M330 1608H448Q459 1533 507 1496T643 1458Q729 1458 777 1495T838 1608H956Q946 1465 867 1393T643 1321Q498 1321 419 1393T330 1608ZM174 442V1120H358V449Q358 290 420 211T606 131Q755
131 841 226T928 485V1120H1112V0H928V172Q861 70 773 21T567 -29Q374 -29 274 91T174 442Z" />
<glyph unicode="&#x16e;" glyph-name="Uring" horiz-adv-x="1499" d="M178 1493H381V586Q381 346 468 241T750 135Q944 135 1031 240T1118 586V1493H1321V561Q1321 269 1177 120T750 -29Q467 -29 323 120T178 561V1493ZM904 1629Q904 1692 860 1736T752 1780Q687
1780 644 1737T600 1629Q600 1564 643 1521T752 1477Q816 1477 860 1521T904 1629ZM1026 1629Q1026 1514 947 1434T752 1354Q637 1354 558 1434T478 1629Q478 1744 557 1823T752 1903Q867 1903 946 1824T1026 1629Z" />
<glyph unicode="&#x16f;" glyph-name="uring" horiz-adv-x="1298" d="M174 442V1120H358V449Q358 290 420 211T606 131Q755 131 841 226T928 485V1120H1112V0H928V172Q861 70 773 21T567 -29Q374 -29 274 91T174 442ZM788 1720Q788 1783 744 1827T636 1871Q571
1871 528 1828T484 1720Q484 1655 527 1612T636 1568Q700 1568 744 1612T788 1720ZM910 1720Q910 1605 831 1525T636 1445Q521 1445 442 1525T362 1720Q362 1835 441 1914T636 1994Q751 1994 830 1915T910 1720Z" />
<glyph unicode="&#x170;" glyph-name="Uhungarumlaut" horiz-adv-x="1499" d="M999 1899H1184L956 1635H803L999 1899ZM664 1899H849L621 1635H468L664 1899ZM178 1493H381V586Q381 346 468 241T750 135Q944 135 1031 240T1118 586V1493H1321V561Q1321 269 1177
120T750 -29Q467 -29 323 120T178 561V1493Z" />
<glyph unicode="&#x171;" glyph-name="uhungarumlaut" horiz-adv-x="1298" d="M940 1638H1118L870 1262H735L940 1638ZM606 1638H776L553 1262H416L606 1638ZM174 442V1120H358V449Q358 290 420 211T606 131Q755 131 841 226T928 485V1120H1112V0H928V172Q861
70 773 21T567 -29Q374 -29 274 91T174 442Z" />
<glyph unicode="&#x172;" glyph-name="Uogonek" horiz-adv-x="1499" d="M178 1493H381V586Q381 346 468 241T750 135Q944 135 1031 240T1118 586V1493H1321V561Q1321 269 1177 120T750 -29Q467 -29 323 120T178 561V1493ZM690 -16H809Q764 -77 743 -121T721 -196Q721
-242 748 -265T830 -288Q862 -288 893 -281T955 -258V-391Q917 -401 883 -406T819 -411Q697 -411 640 -368T582 -231Q582 -183 608 -131T690 -16Z" />
<glyph unicode="&#x173;" glyph-name="uogonek" horiz-adv-x="1298" d="M174 442V1120H358V449Q358 290 420 211T606 131Q755 131 841 226T928 485V1120H1112V0H928V172Q861 70 773 21T567 -29Q374 -29 274 91T174 442ZM991 0H1110Q1065 -61 1044 -105T1022 -180Q1022
-226 1049 -249T1131 -272Q1163 -272 1194 -265T1256 -242V-375Q1218 -385 1184 -390T1120 -395Q998 -395 941 -352T883 -215Q883 -167 909 -115T991 0Z" />
<glyph unicode="&#x174;" glyph-name="Wcircumflex" horiz-adv-x="2025" d="M919 1908H1107L1318 1642H1179L1013 1820L847 1642H708L919 1908ZM68 1493H272L586 231L899 1493H1126L1440 231L1753 1493H1958L1583 0H1329L1014 1296L696 0H442L68 1493Z" />
<glyph unicode="&#x175;" glyph-name="wcircumflex" horiz-adv-x="1675" d="M763 1645H911L1156 1269H1017L837 1514L657 1269H518L763 1645ZM86 1120H270L500 246L729 1120H946L1176 246L1405 1120H1589L1296 0H1079L838 918L596 0H379L86 1120Z" />
<glyph unicode="&#x176;" glyph-name="Ycircumflex" horiz-adv-x="1251" d="M532 1908H720L931 1642H792L626 1820L460 1642H321L532 1908ZM-4 1493H213L627 879L1038 1493H1255L727 711V0H524V711L-4 1493Z" />
<glyph unicode="&#x177;" glyph-name="ycircumflex" horiz-adv-x="1212" d="M532 1645H680L925 1269H786L606 1514L426 1269H287L532 1645ZM659 -104Q581 -304 507 -365T309 -426H162V-272H270Q346 -272 388 -236T481 -66L514 18L61 1120H256L606 244L956 1120H1151L659
-104Z" />
<glyph unicode="&#x178;" glyph-name="Ydieresis" horiz-adv-x="1251" d="M-4 1493H213L627 879L1038 1493H1255L727 711V0H524V711L-4 1493ZM721 1870H924V1667H721V1870ZM330 1870H533V1667H330V1870Z" />
<glyph unicode="&#x179;" glyph-name="Zacute" horiz-adv-x="1403" d="M716 1900H901L673 1636H520L716 1900ZM115 1493H1288V1339L344 170H1311V0H92V154L1036 1323H115V1493Z" />
<glyph unicode="&#x17a;" glyph-name="zacute" horiz-adv-x="1075" d="M717 1645H916L590 1269H437L717 1645ZM113 1120H987V952L295 147H987V0H88V168L780 973H113V1120Z" />
<glyph unicode="&#x17b;" glyph-name="Zdotaccent" horiz-adv-x="1403" d="M578 1870H782V1665H578V1870ZM115 1493H1288V1339L344 170H1311V0H92V154L1036 1323H115V1493Z" />
<glyph unicode="&#x17c;" glyph-name="zdotaccent" horiz-adv-x="1075" d="M113 1120H987V952L295 147H987V0H88V168L780 973H113V1120ZM410 1552H614V1348H410V1552Z" />
<glyph unicode="&#x17d;" glyph-name="Zcaron" horiz-adv-x="1403" d="M115 1493H1288V1339L344 170H1311V0H92V154L1036 1323H115V1493ZM608 1635L397 1901H536L702 1723L868 1901H1007L796 1635H608Z" />
<glyph unicode="&#x17e;" glyph-name="zcaron" horiz-adv-x="1075" d="M113 1120H987V952L295 147H987V0H88V168L780 973H113V1120ZM465 1262L220 1638H359L539 1393L719 1638H858L613 1262H465Z" />
<glyph unicode="&#x17f;" glyph-name="longs" horiz-adv-x="721" d="M408 0H223V977H47V1120H223V1198Q223 1385 310 1470T586 1556H760V1403H584Q485 1403 446 1363Q408 1322 408 1219V0Z" />
<glyph unicode="&#x180;" glyph-name="uni0180" horiz-adv-x="1300" d="M997 559Q997 762 914 878Q830 993 684 993Q538 993 454 878Q371 762 371 559Q371 356 454 240Q538 125 684 125Q830 125 914 240Q997 356 997 559ZM371 950Q429 1050 518 1098Q606 1147
729 1147Q933 1147 1060 985Q1188 823 1188 559Q1188 295 1060 133Q933 -29 729 -29Q606 -29 518 20Q429 68 371 168V0H186V1284H32V1409H186V1556H371V1409H696V1284H371V950Z" />
<glyph unicode="&#x181;" glyph-name="uni0181" horiz-adv-x="1505" d="M503 713V166H827Q990 166 1068 233T1147 440Q1147 580 1069 646T827 713H503ZM503 1327V877H802Q950 877 1022 932T1095 1102Q1095 1215 1023 1271T802 1327H503ZM301 1493H817Q1048 1493
1173 1397T1298 1124Q1298 987 1234 906T1046 805Q1195 773 1277 672T1360 418Q1360 218 1224 109T837 0H301V1328Q169 1328 110 1281T51 1128V1079H-105V1149Q-105 1330 -9 1411T301 1493Z" />
<glyph unicode="&#x182;" glyph-name="uni0182" horiz-adv-x="1405" d="M1047 439Q1047 578 969 645T727 713H403V166H727Q890 166 968 233T1047 439ZM1155 1493V1327H403V879H737Q988 879 1124 770T1260 439Q1260 218 1129 109T737 0H201V1493H1155Z" />
<glyph unicode="&#x183;" glyph-name="uni0183" horiz-adv-x="1300" d="M371 950Q429 1050 518 1098Q606 1147 729 1147Q933 1147 1060 985Q1188 823 1188 559Q1188 295 1060 133Q933 -29 729 -29Q606 -29 518 20Q429 68 371 168V0H186V1556H1032V1390L371 1391V950ZM997
559Q997 762 914 878Q830 993 684 993Q538 993 454 878Q371 762 371 559Q371 356 454 240Q538 125 684 125Q830 125 914 240Q997 356 997 559Z" />
<glyph unicode="&#x184;" glyph-name="uni0184" horiz-adv-x="1405" d="M1047 439Q1047 578 968 646Q890 713 727 713H403V166H727Q890 166 968 234Q1047 301 1047 439ZM403 1493V879H737Q988 879 1124 770T1260 439Q1260 218 1124 109T737 0H201V1092H0L312 1493H403Z" />
<glyph unicode="&#x185;" glyph-name="uni0185" horiz-adv-x="1300" d="M371 950Q429 1050 517 1098T729 1147Q933 1147 1060 985T1188 559Q1188 295 1061 133T729 -29Q606 -29 518 19T371 168V0H186V1092H0L290 1557H371V950ZM997 559Q997 762 914 877T684 993Q538
993 455 878T371 559Q371 356 454 241T684 125Q830 125 913 240T997 559Z" />
<glyph unicode="&#x186;" glyph-name="uni0186" horiz-adv-x="1440" d="M115 1378Q219 1449 337 1484T590 1520Q929 1520 1124 1313T1319 745Q1319 386 1124 179T590 -29Q458 -29 340 7T115 115V326Q217 231 332 184T578 137Q834 137 970 293T1106 745Q1106 1041
970 1197T578 1354Q448 1354 333 1307T115 1165V1378Z" />
<glyph unicode="&#x187;" glyph-name="uni0187" horiz-adv-x="1430" d="M1319 1378V1165Q1217 1260 1102 1307T856 1354Q600 1354 464 1198T328 745Q328 450 464 294T856 137Q986 137 1101 184T1319 326V115Q1213 43 1095 7T844 -29Q505 -29 310 178T115 745Q115
1105 310 1312T844 1520Q940 1520 1096 1484Q1109 1481 1121 1477Q1137 1672 1220 1770Q1322 1892 1549 1892H1626V1722H1563Q1429 1722 1374 1647T1319 1378Z" />
<glyph unicode="&#x188;" glyph-name="uni0188" horiz-adv-x="1126" d="M999 1150V905Q921 948 843 969T684 991Q505 991 406 878T307 559Q307 354 406 241T684 127Q764 127 842 148T999 213V43Q922 7 840 -11T664 -29Q411 -29 262 130T113 559Q113 833 263 990T676
1147Q747 1147 817 1135V1150Q817 1364 897 1460T1159 1556H1228V1400H1180Q1075 1400 1037 1352T999 1150Z" />
<glyph unicode="&#x189;" glyph-name="uni0189" horiz-adv-x="1587" d="M211 1493H627Q1060 1493 1263 1313T1466 748Q1466 362 1263 181T627 0H211V700H10V844H211V1493ZM414 1327V844H750V700H414V166H657Q966 166 1109 306T1253 748Q1253 1048 1110 1187T657
1327H414Z" />
<glyph unicode="&#x18a;" glyph-name="uni018A" horiz-adv-x="1677" d="M503 1327V166H747Q1056 166 1199 306T1343 748Q1343 1048 1200 1187T747 1327H503ZM301 1493H716Q1150 1493 1353 1313T1556 748Q1556 362 1352 181T716 0H301V1328Q169 1328 110 1281T51
1128V1079H-105V1149Q-105 1330 -9 1411T301 1493Z" />
<glyph unicode="&#x18b;" glyph-name="uni018B" horiz-adv-x="1405" d="M414 439Q414 166 734 166H1058V713H734Q571 713 493 646T414 439ZM414 1493H1260V0H724Q473 0 337 109T201 440Q201 661 337 770T724 879H1058V1327H414V1493Z" />
<glyph unicode="&#x18c;" glyph-name="uni018C" horiz-adv-x="1300" d="M269 1390V1556H1114V0H930V168Q872 68 784 20T571 -29Q368 -29 241 133T113 559Q113 823 240 985T571 1147Q695 1147 783 1099T930 950V1391L269 1390ZM303 559Q303 356 386 241T616 125Q762
125 846 240T930 559Q930 762 846 877T616 993Q470 993 387 878T303 559Z" />
<glyph unicode="&#x18d;" glyph-name="uni018D" horiz-adv-x="1253" d="M875 66Q1032 -13 1032 -154Q1032 -426 591 -426Q370 -426 250 -356V-203Q352 -273 598 -273Q844 -273 844 -156Q844 -64 580 -16Q372 21 255 133Q113 268 113 539Q113 810 250 966T626 1123Q866
1123 1003 967T1140 535Q1140 379 1063 249T875 66ZM946 535Q947 738 862 852T628 967Q480 967 394 851T308 540Q308 346 402 247T622 136Q686 130 737 116Q836 158 891 268T946 535Z" />
<glyph unicode="&#x18e;" glyph-name="uni018E" horiz-adv-x="1294" d="M1093 1493V0H131V170H891V711H180V881H891V1323H149V1493H1093Z" />
<glyph unicode="&#x18f;" glyph-name="uni018F" horiz-adv-x="1612" d="M117 780H1284Q1284 1048 1147 1201T735 1354Q596 1354 470 1306T232 1163V1378Q343 1448 474 1484T752 1520Q1102 1520 1299 1316T1497 745Q1497 392 1309 182T807 -29Q478 -29 298 190T117
780ZM337 614Q350 419 477 277T807 135Q1009 135 1136 277T1277 614H337Z" />
<glyph unicode="&#x190;" glyph-name="uni0190" horiz-adv-x="1258" d="M472 805Q341 838 270 923T199 1133Q199 1311 333 1415T697 1520Q786 1520 886 1504T1102 1456V1276Q988 1314 893 1332T715 1350Q563 1350 482 1289T400 1112Q400 1000 479 941T707 881H889V715H715Q550
715 458 641T365 434Q365 291 464 216T754 141Q863 141 963 166T1147 240V45Q1041 8 942 -10T748 -29Q468 -29 316 92T164 434Q164 578 245 676T472 805Z" />
<glyph unicode="&#x191;" glyph-name="uni0191" horiz-adv-x="1178" d="M201 1493H1059V1323H403V883H995V713H403V104Q403 -166 301 -288T-29 -410H-106V-240H-43Q91 -240 146 -165T201 104V1493Z" />
<glyph unicode="&#x192;" glyph-name="florin" horiz-adv-x="721" d="M760 1556V1403H584Q485 1403 447 1363T408 1219V1120H711V977H408V-68Q408 -255 321 -340T45 -426H-129V-273H47Q146 -273 184 -233T223 -89V977H47V1120H223V1198Q223 1385 310 1470T586 1556H760Z" />
<glyph unicode="&#x193;" glyph-name="uni0193" horiz-adv-x="1587" d="M1219 213V614H889V780H1419V139Q1302 56 1161 14T860 -29Q510 -29 313 175T115 745Q115 1111 312 1315T860 1520Q951 1520 1032 1508T1182 1470Q1182 1658 1282 1775T1610 1892H1687V1722H1624Q1490
1722 1435 1647T1380 1378V1163Q1268 1258 1142 1306T877 1354Q603 1354 466 1201T328 745Q328 443 465 290T877 137Q984 137 1068 155T1219 213Z" />
<glyph unicode="&#x194;" glyph-name="uni0194" horiz-adv-x="1406" d="M703 -259Q757 -259 801 -227Q829 -207 829 -141Q829 -84 798 -11Q747 110 703 202Q659 110 608 -11Q577 -84 577 -141Q577 -207 605 -227Q649 -259 703 -259ZM703 631L1176 1493H1398L816
420Q920 220 987 46Q1033 -73 1033 -139Q1033 -278 958 -343Q858 -430 703 -430Q548 -430 448 -343Q373 -278 373 -139Q373 -73 419 46Q486 220 590 420L8 1493H230L703 631Z" />
<glyph unicode="&#x195;" glyph-name="uni0195" horiz-adv-x="2015" d="M1356 156Q1505 156 1589 254Q1676 355 1676 510Q1676 732 1602 844Q1540 939 1419 972V1120Q1643 1091 1752 948Q1863 803 1863 527Q1863 282 1719 141T1354 0H1284Q1097 0 1019 100T940
406V670Q940 829 878 908T692 987Q543 987 457 892T371 633V0H186V1556H371V946Q437 1047 526 1097T733 1147Q926 1147 1025 1028T1124 676V406Q1124 259 1162 208T1305 156H1356Z" />
<glyph unicode="&#x196;" glyph-name="uni0196" horiz-adv-x="724" d="M201 1493H403V514Q403 320 458 245T647 170H710V0H633Q406 0 304 122T201 514V1493Z" />
<glyph unicode="&#x197;" glyph-name="uni0197" horiz-adv-x="604" d="M201 1493H403V747H594V577H403V0H201V577H10V747H201V1493Z" />
<glyph unicode="&#x198;" glyph-name="uni0198" horiz-adv-x="1527" d="M1527 1096H1357V1217Q1357 1271 1321 1311T1246 1351Q1176 1351 1139 1316L592 797L1386 0H1120L403 719V0H201V1493H403V862L1023 1441Q1108 1520 1221 1520Q1357 1520 1442 1428Q1527
1337 1527 1227V1096Z" />
<glyph unicode="&#x199;" glyph-name="uni0199" horiz-adv-x="1186" d="M185 1150Q185 1364 266 1460T529 1556H720V1400H552Q447 1400 409 1352T371 1150V637L920 1120H1155L561 596L1180 0H940L371 547V0H186L185 1150Z" />
<glyph unicode="&#x19a;" glyph-name="uni019A" horiz-adv-x="569" d="M193 1556H377V844H554V700H377V0H193V700H10V844H193V1556Z" />
<glyph unicode="&#x19b;" glyph-name="uni019B" horiz-adv-x="1212" d="M61 0L552 1074L481 1262L181 1161L148 1260L445 1359L370 1556H570L622 1418L936 1522L969 1425L658 1321L1151 0H956L642 828L256 0H61Z" />
<glyph unicode="&#x19c;" glyph-name="uni019C" horiz-adv-x="1995" d="M934 213Q865 89 769 30T543 -29Q368 -29 273 94Q178 216 178 442V1493H381V452Q381 266 420 213Q477 135 594 135Q737 135 820 230T903 489V1493H1106V452Q1106 290 1163 212Q1220 135 1339
135Q1462 135 1545 230Q1628 326 1628 489V1493H1831V-2H1628V172Q1565 69 1477 20T1268 -29Q1146 -29 1060 33Q975 95 934 213Z" />
<glyph unicode="&#x19d;" glyph-name="uni019D" horiz-adv-x="1532" d="M201 1493H473L1135 244V1493H1331V0H1059L397 1249V104Q397 -166 295 -288T-35 -410H-106V-240H-43Q91 -240 146 -165T201 104V1493Z" />
<glyph unicode="&#x19e;" glyph-name="uni019E" horiz-adv-x="1298" d="M1124 676V-426H940V670Q940 829 878 908T692 987Q543 987 457 892T371 633V0H186V1120H371V946Q437 1047 526 1097Q616 1147 733 1147Q926 1147 1025 1028Q1124 908 1124 676Z" />
<glyph unicode="&#x19f;" glyph-name="uni019F" horiz-adv-x="1612" d="M115 745Q115 1099 303 1309T806 1520Q1121 1520 1309 1310T1497 746Q1497 392 1309 182T806 -29Q492 -29 304 181T115 745ZM808 1356Q606 1356 478 1214T338 877H1278Q1264 1072 1137 1214T808
1356ZM328 710Q336 453 461 294T807 135Q1027 135 1151 293T1283 710H328Z" />
<glyph unicode="&#x1a0;" glyph-name="Ohorn" horiz-adv-x="1870" d="M1051 1356Q831 1356 702 1192T572 745Q572 463 701 299T1051 135Q1271 135 1399 299T1528 745Q1528 1028 1400 1192T1051 1356ZM1051 1520Q1365 1520 1553 1310T1741 745Q1741 392 1553 182T1051
-29Q736 -29 548 181T359 745Q359 1099 547 1309T1051 1520ZM1170 1291V1410Q1231 1365 1275 1344T1350 1322Q1396 1322 1419 1349T1442 1431Q1442 1463 1435 1494T1412 1556H1545Q1555 1518 1560 1484T1565 1420Q1565 1298 1522 1241T1385 1183Q1337 1183 1285
1209T1170 1291Z" />
<glyph unicode="&#x1a1;" glyph-name="ohorn" horiz-adv-x="1253" d="M840 994V1113Q901 1068 945 1047T1020 1025Q1066 1025 1089 1052T1112 1134Q1112 1166 1105 1197T1082 1259H1215Q1225 1221 1230 1187T1235 1123Q1235 1001 1192 944T1055 886Q1007 886 955
912T840 994ZM632 991Q484 991 398 876T312 559Q312 358 397 243T632 127Q779 127 865 243T951 559Q951 758 865 874T632 991ZM632 1147Q872 1147 1009 991T1146 559Q1146 284 1009 128T632 -29Q391 -29 255 127T118 559Q118 835 254 991T632 1147Z" />
<glyph unicode="&#x1a2;" glyph-name="uni01A2" horiz-adv-x="1943" d="M1541 0V979Q1541 1173 1486 1248T1309 1323V182Q1121 -29 806 -29Q492 -29 304 181T115 745Q115 1099 303 1309T807 1520Q919 1520 1016 1493H1311Q1538 1493 1640 1371T1743 979V0H1541ZM807
1356Q587 1356 458 1192T328 746Q328 463 457 299T807 135Q982 135 1110 238V1286Q972 1356 807 1356Z" />
<glyph unicode="&#x1a3;" glyph-name="uni01A3" horiz-adv-x="1555" d="M1185 -426V714Q1185 867 1147 916Q1109 964 1004 964V128Q867 -29 627 -29Q386 -29 250 127T113 559Q113 835 249 991T627 1147Q727 1147 809 1120H1025Q1206 1120 1288 1024Q1369 928 1369
714V-426H1185ZM627 991Q479 991 393 876T307 559Q307 358 392 243T627 127Q756 127 820 185V937Q736 991 627 991Z" />
<glyph unicode="&#x1a4;" glyph-name="uni01A4" horiz-adv-x="1335" d="M503 1327V766H757Q898 766 975 839T1052 1047Q1052 1181 975 1254T757 1327H503ZM301 1493H757Q1008 1493 1136 1380T1265 1047Q1265 826 1137 713T757 600H503V0H301V1328Q169 1328 110
1281T51 1128V1079H-105V1149Q-105 1330 -9 1411T301 1493Z" />
<glyph unicode="&#x1a5;" glyph-name="uni01A5" horiz-adv-x="1300" d="M371 168V-426H185V1150Q185 1364 266 1460T529 1556H783V1400H552Q447 1400 409 1352T371 1150V950Q429 1050 517 1098T729 1147Q933 1147 1060 985T1188 559Q1188 295 1061 133T729 -29Q606
-29 518 19T371 168ZM997 559Q997 762 914 877T684 993Q538 993 455 878T371 559Q371 356 454 241T684 125Q830 125 913 240T997 559Z" />
<glyph unicode="&#x1a6;" glyph-name="uni01A6" horiz-adv-x="1423" d="M909 436Q974 414 1035 342T1159 144L1364 -264H1147L956 119Q882 269 813 318T623 367H403V0H201V1493H403V1229H657Q913 1229 1039 1122T1165 799Q1165 658 1100 565T909 436ZM403 1063V504H657Q798
504 875 577T952 784T876 990T657 1063H403Z" />
<glyph unicode="&#x1a7;" glyph-name="uni01A7" horiz-adv-x="1300" d="M204 1444Q432 1520 659 1520T1025 1406T1165 1108T1064 827T737 686L614 662Q460 631 393 569T325 389T419 203T686 135Q911 135 1159 274V66Q900 -29 686 -29Q405 -29 259 83Q114 195 114
412Q114 594 221 702T555 854L677 879Q843 910 903 960Q962 1011 962 1119T873 1292Q783 1356 608 1356T204 1247V1444Z" />
<glyph unicode="&#x1a8;" glyph-name="uni01A8" horiz-adv-x="1067" d="M160 1087Q236 1117 326 1132T518 1147Q724 1147 836 1061T948 817Q948 687 872 613T625 502L561 487Q390 450 340 410T289 295Q289 214 359 170T559 125Q656 125 755 151T956 231V41Q848
6 751 -11T563 -29Q347 -29 224 62T100 309Q100 446 182 522T461 641L524 655Q672 688 721 724T770 825Q770 909 702 951T496 993Q406 993 322 973T160 913V1087Z" />
<glyph unicode="&#x1a9;" glyph-name="uni01A9" horiz-adv-x="1294" d="M433 170H1163V0H201V170L680 794L201 1323V1493H1145V1323H433L912 798L433 170Z" />
<glyph unicode="&#x1aa;" glyph-name="uni01AA" horiz-adv-x="688" d="M375 1130V-89Q375 -193 413 -233T551 -273H727V-426H553Q364 -426 277 -341T190 -68V1130H0Q-270 1130 -270 1340Q-270 1556 33 1556Q214 1556 296 1460Q349 1396 367 1285H558V1130H375ZM180
1284Q172 1328 155 1352Q122 1400 12 1400Q-112 1400 -115 1335Q-118 1284 1 1284H180Z" />
<glyph unicode="&#x1ab;" glyph-name="uni01AB" horiz-adv-x="803" d="M375 1438V1120H754V977H375V369Q375 232 412 193T565 154H754V-20Q754 -234 672 -330T410 -426H340V-270H388Q494 -270 532 -222Q570 -173 570 -20V0Q357 0 274 79T190 369V977H55V1120H190V1438H375Z"
/>
<glyph unicode="&#x1ac;" glyph-name="uni01AC" horiz-adv-x="1251" d="M430 1493H1257V1323H727V0H524V1323H430Q298 1323 239 1278T180 1128V1079H24V1149Q24 1330 120 1411T430 1493Z" />
<glyph unicode="&#x1ad;" glyph-name="uni01AD" horiz-adv-x="803" d="M375 1219V1120H754V977H375V369Q375 232 412 193T565 154H754V0H565Q352 0 271 79T190 369V977H55V1120H190V1198Q190 1385 277 1470T553 1556H727V1403H551Q452 1403 414 1363T375 1219Z" />
<glyph unicode="&#x1ae;" glyph-name="uni01AE" horiz-adv-x="1251" d="M-6 1493H1257V1323H727V104Q727 -90 782 -165T971 -240H1034V-410H956Q729 -410 627 -288T524 104V1323H-6V1493Z" />
<glyph unicode="&#x1af;" glyph-name="Uhorn" horiz-adv-x="1757" d="M429 1513H632V606Q632 366 719 261T1001 155Q1195 155 1282 260T1369 606V1513H1572V581Q1572 289 1428 140T1001 -9Q718 -9 574 140T429 581V1513ZM1236 1291V1410Q1297 1365 1341 1344T1416
1322Q1462 1322 1485 1349T1508 1431Q1508 1463 1501 1494T1478 1556H1611Q1621 1518 1626 1484T1631 1420Q1631 1298 1588 1241T1451 1183Q1403 1183 1351 1209T1236 1291Z" />
<glyph unicode="&#x1b0;" glyph-name="uhorn" horiz-adv-x="1298" d="M990 994V1113Q1051 1068 1095 1047T1170 1025Q1216 1025 1239 1052T1262 1134Q1262 1166 1255 1197T1232 1259H1365Q1375 1221 1380 1187T1385 1123Q1385 1001 1342 944T1205 886Q1157 886
1105 912T990 994ZM176 442V1120H360V449Q360 290 422 211T608 131Q757 131 843 226T930 485V1120H1114V0H930V172Q863 70 775 21T569 -29Q376 -29 276 91T176 442Z" />
<glyph unicode="&#x1b1;" glyph-name="uni01B1" horiz-adv-x="1565" d="M1487 1304H1167Q1328 1163 1399 1015T1470 673Q1470 364 1278 168T782 -29Q477 -29 286 168T94 683Q94 867 166 1016T397 1304H78V1482H678V1304Q500 1207 401 1041T301 673Q301 434 433
289T782 143Q998 143 1130 288T1262 673Q1262 875 1163 1041T887 1304V1482H1487V1304Z" />
<glyph unicode="&#x1b2;" glyph-name="uni01B2" horiz-adv-x="1476" d="M710 141Q926 141 1058 286T1190 671Q1190 873 1091 1039Q1026 1148 916 1235V1303L1095 1302Q1256 1161 1327 1013T1398 671Q1398 362 1206 165Q1015 -31 710 -31L633 -29Q401 -23 304 93Q201
215 201 485V1493H403V485Q403 291 458 216T647 141H710Z" />
<glyph unicode="&#x1b3;" glyph-name="uni01B3" horiz-adv-x="1523" d="M1239 1351Q1182 1351 1161 1337Q1124 1313 1107 1288L727 711V0H524V711L-4 1493H213L627 879L961 1384Q1051 1520 1214 1520Q1350 1520 1435 1428Q1520 1337 1520 1227V1096H1350V1217Q1350
1271 1314 1311T1239 1351Z" />
<glyph unicode="&#x1b4;" glyph-name="uni01B4" horiz-adv-x="1496" d="M659 -104Q581 -304 507 -365T309 -426H162V-272H270Q346 -272 388 -236T481 -66L514 18L61 1120H256L606 244L888 948Q909 1000 957 1051Q1045 1147 1180 1147Q1311 1147 1403 1052T1496
822V708H1318V822Q1318 880 1278 922T1180 964Q1123 964 1082 922Q1062 902 1052 877L659 -104Z" />
<glyph unicode="&#x1b5;" glyph-name="uni01B5" horiz-adv-x="1403" d="M115 1493H1288V1339L888 844H1169V700H772L344 170H1311V0H92V154L533 700H234V844H649L1036 1323H115V1493Z" />
<glyph unicode="&#x1b6;" glyph-name="uni01B6" horiz-adv-x="1075" d="M113 1120H987V952L736 660H930V516H612L295 147H987V0H88V168L387 516H175V660H511L780 973H113V1120Z" />
<glyph unicode="&#x1b7;" glyph-name="uni01B7" horiz-adv-x="1364" d="M680 107Q872 107 971 182Q1071 257 1071 400Q1071 534 979 607Q886 681 721 681H547V833L932 1323H160V1493H1184V1339L773 849Q879 849 1007 793Q1105 751 1191 642Q1272 538 1272 400Q1272
180 1120 58Q968 -63 688 -63Q569 -63 444 -44Q318 -26 184 11V206Q290 157 417 132Q543 107 680 107Z" />
<glyph unicode="&#x1b8;" glyph-name="uni01B8" horiz-adv-x="1364" d="M684 107Q821 107 947 132Q1074 157 1180 206V11Q1046 -26 920 -44Q795 -63 676 -63Q396 -63 244 58Q92 180 92 400Q92 538 173 642Q259 751 357 793Q485 849 591 849L180 1339V1493H1204V1323H432L817
833V681H643Q478 681 385 607Q293 534 293 400Q293 257 393 182Q492 107 684 107Z" />
<glyph unicode="&#x1b9;" glyph-name="uni01B9" horiz-adv-x="1183" d="M603 476L192 952V1120H1066V973H399L829 474V308H655Q490 308 397 234Q305 159 305 27Q305 -116 405 -191Q504 -266 694 -266Q803 -266 903 -241T1087 -167V-362Q981 -399 881 -418Q782
-436 688 -436Q408 -436 256 -315T104 27Q104 165 185 269Q271 378 369 420Q497 476 603 476Z" />
<glyph unicode="&#x1ba;" glyph-name="uni01BA" horiz-adv-x="1075" d="M639 -274Q723 -274 800 -253Q879 -232 960 -188V-367Q873 -399 793 -412Q707 -426 610 -426Q130 -426 130 -145Q130 93 536 146Q820 183 820 281Q820 405 585 405Q585 405 295 405L780 973H113V1120H987V952L633
540Q1000 540 1000 311Q1000 35 536 -14Q310 -38 310 -135Q310 -274 639 -274Z" />
<glyph unicode="&#x1bb;" glyph-name="uni01BB" horiz-adv-x="1303" d="M393 170H1098V0H150V170L464 490L579 607H234V751H716Q811 860 848 932Q887 1008 887 1081Q887 1200 804 1275Q720 1350 586 1350Q491 1350 386 1317Q280 1284 160 1217V1421Q282 1470 388
1495T582 1520Q814 1520 952 1404T1090 1094Q1090 1002 1056 920Q1025 847 951 751H1055V607H819L771 558L393 170Z" />
<glyph unicode="&#x1bc;" glyph-name="uni01BC" horiz-adv-x="1364" d="M294 400Q294 107 683 107T1072 400Q1072 534 980 607T722 681H201V1493H1130V1323H403V848L774 849Q1030 850 1192 642Q1273 538 1273 394T1214 164L1186 123Q1166 94 1121 58Q969 -63 683
-63T245 58T93 400H294Z" />
<glyph unicode="&#x1bd;" glyph-name="uni01BD" horiz-adv-x="1183" d="M104 -167Q274 -266 480 -266Q886 -266 886 27Q886 161 794 234T536 308H183V1120H976V950H367V476H588Q693 476 807 427T1004 271T1087 21T1028 -209L1000 -250Q980 -279 935 -315Q783 -436
503 -436Q316 -436 104 -362V-167Z" />
<glyph unicode="&#x1be;" glyph-name="uni01BE" horiz-adv-x="1045" d="M545 998L543 873Q713 843 825 724Q933 609 933 439Q933 253 823 128Q686 -29 411 -29Q326 -29 245 -11Q164 6 88 41V213Q161 173 245 149Q323 127 403 127Q582 127 681 241Q738 306 739
439Q739 537 681 613Q595 727 403 727H341L343 998H114V1162H343V1438H545V1162H776V998H545Z" />
<glyph unicode="&#x1bf;" glyph-name="uni01BF" horiz-adv-x="1300" d="M371 -122V-426H186V1120H371V950Q423 1016 558 1098Q639 1147 849 1147Q1033 1147 1110 1035Q1188 922 1188 769Q1188 344 371 -122ZM371 60Q997 460 997 709Q997 842 940 908Q884 973 764
973Q544 973 371 734V60Z" />
<glyph unicode="&#x1c0;" glyph-name="uni01C0" horiz-adv-x="604" d="M201 1493H403V-426H201V1493Z" />
<glyph unicode="&#x1c1;" glyph-name="uni01C1" horiz-adv-x="1008" d="M605 1493H807V-426H605V1493ZM201 1493H403V-426H201V1493Z" />
<glyph unicode="&#x1c2;" glyph-name="uni01C2" horiz-adv-x="940" d="M371 1493H573V876H924V708H573V468H924V298H573V-426H371V298H20V468H371V708H20V876H371V1493Z" />
<glyph unicode="&#x1c3;" glyph-name="uni01C3" horiz-adv-x="605" d="M457 254H660V0H457V254ZM457 1493H660V838L640 481H478L457 838V1493Z" />
<glyph unicode="&#x1c4;" glyph-name="uni01C4" horiz-adv-x="2912" d="M1572 1493H2745V1339L1801 170H2768V0H1549V154L2493 1323H1572V1493ZM2065 1635L1854 1901H1993L2159 1723L2325 1901H2464L2253 1635H2065ZM403 1327V166H647Q956 166 1099 306T1243 748Q1243
1048 1100 1187T647 1327H403ZM201 1493H616Q1050 1493 1253 1313T1456 748Q1456 362 1252 181T616 0H201V1493Z" />
<glyph unicode="&#x1c5;" glyph-name="uni01C5" horiz-adv-x="2660" d="M1606 1120H2480V952L1788 147H2480V0H1581V168L2273 973H1606V1120ZM1958 1262L1713 1638H1852L2032 1393L2212 1638H2351L2106 1262H1958ZM403 1327V166H647Q956 166 1099 306T1243 748Q1243
1048 1100 1187T647 1327H403ZM201 1493H616Q1050 1493 1253 1313T1456 748Q1456 362 1252 181T616 0H201V1493Z" />
<glyph unicode="&#x1c6;" glyph-name="uni01C6" horiz-adv-x="2364" d="M1319 1120H2193V952L1501 147H2193V0H1294V168L1986 973H1319V1120ZM1671 1262L1426 1638H1565L1745 1393L1925 1638H2064L1819 1262H1671ZM930 950V1556H1114V0H930V168Q872 68 784 20T571
-29Q368 -29 241 133T113 559Q113 823 240 985T571 1147Q695 1147 783 1099T930 950ZM303 559Q303 356 386 241T616 125Q762 125 846 240T930 559Q930 762 846 877T616 993Q470 993 387 878T303 559Z" />
<glyph unicode="&#x1c7;" glyph-name="uni01C7" horiz-adv-x="1711" d="M1370 1493H1572V104Q1572 -166 1470 -288T1140 -410H1063V-240H1126Q1260 -240 1315 -165T1370 104V1493ZM201 1493H403V170H1130V0H201V1493Z" />
<glyph unicode="&#x1c8;" glyph-name="uni01C8" horiz-adv-x="1611" d="M1318 1120H1502V-20Q1502 -234 1421 -330T1158 -426H1088V-270H1137Q1242 -270 1280 -222T1318 -20V1120ZM1318 1556H1502V1323H1318V1556ZM201 1493H403V170H1130V0H201V1493Z" />
<glyph unicode="&#x1c9;" glyph-name="uni01C9" horiz-adv-x="935" d="M567 1120H751V-20Q751 -234 670 -330T407 -426H337V-270H386Q491 -270 529 -222T567 -20V1120ZM567 1556H751V1323H567V1556ZM193 1556H377V0H193V1556Z" />
<glyph unicode="&#x1ca;" glyph-name="uni01CA" horiz-adv-x="1907" d="M1576 1493H1778V104Q1778 -166 1676 -288T1346 -410H1269V-240H1332Q1466 -240 1521 -165T1576 104V1493ZM201 1493H473L1135 244V1493H1331V0H1059L397 1249V0H201V1493Z" />
<glyph unicode="&#x1cb;" glyph-name="uni01CB" horiz-adv-x="1892" d="M1535 1120H1719V-20Q1719 -234 1638 -330T1375 -426H1305V-270H1354Q1459 -270 1497 -222T1535 -20V1120ZM1535 1556H1719V1323H1535V1556ZM201 1493H473L1135 244V1493H1331V0H1059L397
1249V0H201V1493Z" />
<glyph unicode="&#x1cc;" glyph-name="uni01CC" horiz-adv-x="1633" d="M1318 1120H1502V-20Q1502 -234 1421 -330T1158 -426H1088V-270H1137Q1242 -270 1280 -222T1318 -20V1120ZM1318 1556H1502V1323H1318V1556ZM1124 676V0H940V670Q940 829 878 908T692 987Q543
987 457 892T371 633V0H186V1120H371V946Q437 1047 526 1097T733 1147Q926 1147 1025 1028T1124 676Z" />
<glyph unicode="&#x1cd;" glyph-name="uni01CD" horiz-adv-x="1401" d="M700 1294L426 551H975L700 1294ZM586 1493H815L1384 0H1174L1038 383H365L229 0H16L586 1493ZM608 1635L397 1901H536L702 1723L868 1901H1007L796 1635H608Z" />
<glyph unicode="&#x1ce;" glyph-name="uni01CE" horiz-adv-x="1255" d="M702 563Q479 563 393 512T307 338Q307 240 371 183T547 125Q700 125 792 233T885 522V563H702ZM1069 639V0H885V170Q822 68 728 20T498 -29Q326 -29 225 67T123 326Q123 515 249 611T627
707H885V725Q885 852 802 921T567 991Q471 991 380 968T205 899V1069Q306 1108 401 1127T586 1147Q829 1147 949 1021T1069 639ZM528 1262L283 1638H422L602 1393L782 1638H921L676 1262H528Z" />
<glyph unicode="&#x1cf;" glyph-name="uni01CF" horiz-adv-x="604" d="M201 1493H403V0H201V1493ZM209 1635L-2 1901H137L303 1723L469 1901H608L397 1635H209Z" />
<glyph unicode="&#x1d0;" glyph-name="uni01D0" horiz-adv-x="569" d="M193 1120H377V0H193V1120ZM213 1262L-32 1638H107L287 1393L467 1638H606L361 1262H213Z" />
<glyph unicode="&#x1d1;" glyph-name="uni01D1" horiz-adv-x="1612" d="M807 1356Q587 1356 458 1192T328 745Q328 463 457 299T807 135Q1027 135 1155 299T1284 745Q1284 1028 1156 1192T807 1356ZM807 1520Q1121 1520 1309 1310T1497 745Q1497 392 1309 182T807
-29Q492 -29 304 181T115 745Q115 1099 303 1309T807 1520ZM713 1635L502 1901H641L807 1723L973 1901H1112L901 1635H713Z" />
<glyph unicode="&#x1d2;" glyph-name="uni01D2" horiz-adv-x="1253" d="M627 991Q479 991 393 876T307 559Q307 358 392 243T627 127Q774 127 860 243T946 559Q946 758 860 874T627 991ZM627 1147Q867 1147 1004 991T1141 559Q1141 284 1004 128T627 -29Q386 -29
250 127T113 559Q113 835 249 991T627 1147ZM556 1262L311 1638H450L630 1393L810 1638H949L704 1262H556Z" />
<glyph unicode="&#x1d3;" glyph-name="uni01D3" horiz-adv-x="1499" d="M178 1493H381V586Q381 346 468 241T750 135Q944 135 1031 240T1118 586V1493H1321V561Q1321 269 1177 120T750 -29Q467 -29 323 120T178 561V1493ZM664 1635L453 1901H592L758 1723L924
1901H1063L852 1635H664Z" />
<glyph unicode="&#x1d4;" glyph-name="uni01D4" horiz-adv-x="1298" d="M174 442V1120H358V449Q358 290 420 211T606 131Q755 131 841 226T928 485V1120H1112V0H928V172Q861 70 773 21T567 -29Q374 -29 274 91T174 442ZM556 1262L311 1638H450L630 1393L810 1638H949L704
1262H556Z" />
<glyph unicode="&#x1d5;" glyph-name="uni01D5" horiz-adv-x="1499" d="M450 2099H1048V1951H450V2099ZM842 1838H1045V1635H842V1838ZM451 1838H654V1635H451V1838ZM178 1493H381V586Q381 346 468 241T750 135Q944 135 1031 240T1118 586V1493H1321V561Q1321
269 1177 120T750 -29Q467 -29 323 120T178 561V1493Z" />
<glyph unicode="&#x1d6;" glyph-name="uni01D6" horiz-adv-x="1298" d="M336 1841H934V1693H336V1841ZM174 442V1120H358V449Q358 290 420 211T606 131Q755 131 841 226T928 485V1120H1112V0H928V172Q861 70 773 21T567 -29Q374 -29 274 91T174 442ZM729 1552H932V1350H729V1552ZM338
1552H541V1350H338V1552Z" />
<glyph unicode="&#x1d7;" glyph-name="uni01D7" horiz-adv-x="1499" d="M178 1493H381V586Q381 346 468 241T750 135Q944 135 1031 240T1118 586V1493H1321V561Q1321 269 1177 120T750 -29Q467 -29 323 120T178 561V1493ZM861 2138H1046L818 1874H665L861 2138ZM848
1838H1051V1635H848V1838ZM457 1838H660V1635H457V1838Z" />
<glyph unicode="&#x1d8;" glyph-name="uni01D8" horiz-adv-x="1298" d="M174 442V1120H358V449Q358 290 420 211T606 131Q755 131 841 226T928 485V1120H1112V0H928V172Q861 70 773 21T567 -29Q374 -29 274 91T174 442ZM741 1826H926L698 1562H545L741 1826ZM728
1526H931V1323H728V1526ZM337 1526H540V1323H337V1526Z" />
<glyph unicode="&#x1d9;" glyph-name="uni01D9" horiz-adv-x="1499" d="M178 1493H381V586Q381 346 468 241T750 135Q944 135 1031 240T1118 586V1493H1321V561Q1321 269 1177 120T750 -29Q467 -29 323 120T178 561V1493ZM654 1872L443 2138H582L748 1960L914
2138H1053L842 1872H654ZM842 1838H1045V1635H842V1838ZM451 1838H654V1635H451V1838Z" />
<glyph unicode="&#x1da;" glyph-name="uni01DA" horiz-adv-x="1298" d="M174 442V1120H358V449Q358 290 420 211T606 131Q755 131 841 226T928 485V1120H1112V0H928V172Q861 70 773 21T567 -29Q374 -29 274 91T174 442ZM546 1560L335 1826H474L640 1648L806 1826H945L734
1560H546ZM734 1526H937V1323H734V1526ZM343 1526H546V1323H343V1526Z" />
<glyph unicode="&#x1db;" glyph-name="uni01DB" horiz-adv-x="1499" d="M178 1493H381V586Q381 346 468 241T750 135Q944 135 1031 240T1118 586V1493H1321V561Q1321 269 1177 120T750 -29Q467 -29 323 120T178 561V1493ZM643 2144L839 1880H686L456 2144H643ZM842
1844H1045V1641H842V1844ZM451 1844H654V1641H451V1844Z" />
<glyph unicode="&#x1dc;" glyph-name="uni01DC" horiz-adv-x="1298" d="M174 442V1120H358V449Q358 290 420 211T606 131Q755 131 841 226T928 485V1120H1112V0H928V172Q861 70 773 21T567 -29Q374 -29 274 91T174 442ZM529 1826L725 1562H572L342 1826H529ZM728
1526H931V1323H728V1526ZM337 1526H540V1323H337V1526Z" />
<glyph unicode="&#x1dd;" glyph-name="uni01DD" horiz-adv-x="1260" d="M113 512V602H959Q947 792 845 891T559 991Q453 991 354 965T156 887V1061Q255 1103 359 1125T570 1147Q838 1147 994 991T1151 569Q1151 294 1003 133T602 -29Q376 -29 245 116T113 512ZM297
458Q299 307 381 217T600 127Q754 127 846 214T953 459L297 458Z" />
<glyph unicode="&#x1de;" glyph-name="uni01DE" horiz-adv-x="1401" d="M700 1294L426 551H975L700 1294ZM586 1493H815L1384 0H1174L1038 383H365L229 0H16L586 1493ZM402 2099H1000V1951H402V2099ZM794 1838H997V1635H794V1838ZM403 1838H606V1635H403V1838Z" />
<glyph unicode="&#x1df;" glyph-name="uni01DF" horiz-adv-x="1255" d="M702 563Q479 563 393 512T307 338Q307 240 371 183T547 125Q700 125 792 233T885 522V563H702ZM1069 639V0H885V170Q822 68 728 20T498 -29Q326 -29 225 67T123 326Q123 515 249 611T627
707H885V725Q885 852 802 921T567 991Q471 991 380 968T205 899V1069Q306 1108 401 1127T586 1147Q829 1147 949 1021T1069 639ZM688 1552H891V1350H688V1552ZM297 1552H500V1350H297V1552ZM295 1841H893V1693H295V1841Z" />
<glyph unicode="&#x1e0;" glyph-name="uni01E0" horiz-adv-x="1401" d="M700 1294L426 551H975L700 1294ZM586 1493H815L1384 0H1174L1038 383H365L229 0H16L586 1493ZM598 1835H802V1630H598V1835ZM402 2099H1000V1951H402V2099Z" />
<glyph unicode="&#x1e1;" glyph-name="uni01E1" horiz-adv-x="1255" d="M702 563Q479 563 393 512T307 338Q307 240 371 183T547 125Q700 125 792 233T885 522V563H702ZM1069 639V0H885V170Q822 68 728 20T498 -29Q326 -29 225 67T123 326Q123 515 249 611T627
707H885V725Q885 852 802 921T567 991Q471 991 380 968T205 899V1069Q306 1108 401 1127T586 1147Q829 1147 949 1021T1069 639ZM489 1516H693V1311H489V1516ZM293 1780H891V1632H293V1780Z" />
<glyph unicode="&#x1e2;" glyph-name="uni01E2" horiz-adv-x="1995" d="M940 1844H1538V1696H940V1844ZM1845 1493V1323H1104V881H1815V711H1104V170H1864V0H901V383H373L213 0H8L633 1493H1845ZM772 1335L442 551H901V1335H772Z" />
<glyph unicode="&#x1e3;" glyph-name="uni01E3" horiz-adv-x="2011" d="M701 1522H1299V1374H701V1522ZM1718 660Q1717 811 1635 901T1415 991Q1262 991 1170 904T1063 659L1718 660ZM995 963Q1069 1053 1175 1100T1413 1147Q1639 1147 1771 1002T1903 606V516H1057Q1069
325 1171 225T1456 125Q1560 125 1660 151T1860 231V57Q1760 15 1656 -7T1446 -29Q1279 -29 1155 31T954 211Q881 91 773 31T522 -29Q333 -29 228 64T123 326Q123 515 249 611T627 707H885V725Q885 852 802 921T567 991Q471 991 380 968T205 899V1069Q306 1108
401 1127T586 1147Q728 1147 834 1099T995 963ZM702 563Q479 563 393 512T307 338Q307 240 371 183T547 125Q700 125 792 233T885 522V563H702Z" />
<glyph unicode="&#x1e4;" glyph-name="uni01E4" horiz-adv-x="1587" d="M1419 780V482H1540V394H1419V139Q1302 56 1161 14T860 -29Q510 -29 313 175T115 745Q115 1111 312 1315T860 1520Q1006 1520 1137 1484T1380 1378V1163Q1268 1258 1142 1306T877 1354Q603
1354 466 1201T328 745Q328 443 465 290T877 137Q984 137 1068 155T1219 213V394H966V482H1219V614H889V780H1419Z" />
<glyph unicode="&#x1e5;" glyph-name="uni01E5" horiz-adv-x="1300" d="M930 573Q930 773 848 883T616 993Q468 993 386 883T303 573Q303 374 385 264T616 154Q765 154 847 264T930 573ZM1114 139Q1114 29 1095 -59H1274V-129H1076Q1045 -222 987 -286Q860 -426
598 -426Q501 -426 415 -412T248 -367V-188Q329 -232 408 -253T569 -274Q750 -274 840 -179Q861 -156 878 -128H242V-59H908Q930 12 930 106V197Q873 98 784 49T571 0Q365 0 239 157T113 573Q113 833 239 990T571 1147Q695 1147 784 1098T930 950V1120H1114V139Z"
/>
<glyph unicode="&#x1e6;" glyph-name="Gcaron" horiz-adv-x="1587" d="M1219 213V614H889V780H1419V139Q1302 56 1161 14T860 -29Q510 -29 313 175T115 745Q115 1111 312 1315T860 1520Q1006 1520 1137 1484T1380 1378V1163Q1268 1258 1142 1306T877 1354Q603
1354 466 1201T328 745Q328 443 465 290T877 137Q984 137 1068 155T1219 213ZM748 1635L537 1901H676L842 1723L1008 1901H1147L936 1635H748Z" />
<glyph unicode="&#x1e7;" glyph-name="gcaron" horiz-adv-x="1300" d="M512 1515L267 1891H406L586 1646L766 1891H905L660 1515H512ZM930 573Q930 773 848 883T616 993Q468 993 386 883T303 573Q303 374 385 264T616 154Q765 154 847 264T930 573ZM1114 139Q1114
-147 987 -286T598 -426Q501 -426 415 -412T248 -367V-188Q329 -232 408 -253T569 -274Q750 -274 840 -180T930 106V197Q873 98 784 49T571 0Q365 0 239 157T113 573Q113 833 239 990T571 1147Q695 1147 784 1098T930 950V1120H1114V139Z" />
<glyph unicode="&#x1e8;" glyph-name="uni01E8" horiz-adv-x="1343" d="M580 1635L369 1901H508L674 1723L840 1901H979L768 1635H580ZM201 1493H403V862L1073 1493H1333L592 797L1386 0H1120L403 719V0H201V1493Z" />
<glyph unicode="&#x1e9;" glyph-name="uni01E9" horiz-adv-x="1186" d="M186 1556H371V637L920 1120H1155L561 596L1180 0H940L371 547V0H186V1556ZM188 1635L-23 1901H116L282 1723L448 1901H587L376 1635H188Z" />
<glyph unicode="&#x1ea;" glyph-name="uni01EA" horiz-adv-x="1612" d="M748 -16H867Q822 -77 801 -121T779 -196Q779 -242 806 -265T888 -288Q920 -288 951 -281T1013 -258V-391Q975 -401 941 -406T877 -411Q755 -411 698 -368T640 -231Q640 -183 666 -131T748
-16ZM807 1356Q587 1356 458 1192T328 745Q328 463 457 299T807 135Q1027 135 1155 299T1284 745Q1284 1028 1156 1192T807 1356ZM807 1520Q1121 1520 1309 1310T1497 745Q1497 392 1309 182T807 -29Q492 -29 304 181T115 745Q115 1099 303 1309T807 1520Z" />
<glyph unicode="&#x1eb;" glyph-name="uni01EB" horiz-adv-x="1253" d="M568 -16H687Q642 -77 621 -121T599 -196Q599 -242 626 -265T708 -288Q740 -288 771 -281T833 -258V-391Q795 -401 761 -406T697 -411Q575 -411 518 -368T460 -231Q460 -183 486 -131T568
-16ZM627 991Q479 991 393 876T307 559Q307 358 392 243T627 127Q774 127 860 243T946 559Q946 758 860 874T627 991ZM627 1147Q867 1147 1004 991T1141 559Q1141 284 1004 128T627 -29Q386 -29 250 127T113 559Q113 835 249 991T627 1147Z" />
<glyph unicode="&#x1ec;" glyph-name="uni01EC" horiz-adv-x="1612" d="M508 1841H1106V1693H508V1841ZM748 -16H867Q822 -77 801 -121T779 -196Q779 -242 806 -265T888 -288Q920 -288 951 -281T1013 -258V-391Q975 -401 941 -406T877 -411Q755 -411 698 -368T640
-231Q640 -183 666 -131T748 -16ZM807 1356Q587 1356 458 1192T328 745Q328 463 457 299T807 135Q1027 135 1155 299T1284 745Q1284 1028 1156 1192T807 1356ZM807 1520Q1121 1520 1309 1310T1497 745Q1497 392 1309 182T807 -29Q492 -29 304 181T115 745Q115 1099
303 1309T807 1520Z" />
<glyph unicode="&#x1ed;" glyph-name="uni01ED" horiz-adv-x="1253" d="M328 1781H926V1633H328V1781ZM568 -16H687Q642 -77 621 -121T599 -196Q599 -242 626 -265T708 -288Q740 -288 771 -281T833 -258V-391Q795 -401 761 -406T697 -411Q575 -411 518 -368T460
-231Q460 -183 486 -131T568 -16ZM627 991Q479 991 393 876T307 559Q307 358 392 243T627 127Q774 127 860 243T946 559Q946 758 860 874T627 991ZM627 1147Q867 1147 1004 991T1141 559Q1141 284 1004 128T627 -29Q386 -29 250 127T113 559Q113 835 249 991T627
1147Z" />
<glyph unicode="&#x1ee;" glyph-name="uni01EE" horiz-adv-x="1364" d="M608 1635L397 1901H536L702 1723L868 1901H1007L796 1635H608ZM680 107Q872 107 971 182Q1071 257 1071 400Q1071 534 979 607Q886 681 721 681H547V833L932 1323H160V1493H1184V1339L773
849Q879 849 1007 793Q1105 751 1191 642Q1272 538 1272 400Q1272 180 1120 58Q968 -63 688 -63Q569 -63 444 -44Q318 -26 184 11V206Q290 157 417 132Q543 107 680 107Z" />
<glyph unicode="&#x1ef;" glyph-name="uni01EF" horiz-adv-x="1183" d="M465 1262L220 1638H359L539 1393L719 1638H858L613 1262H465ZM572 476Q678 476 806 420Q904 378 990 269Q1071 165 1071 27Q1071 -194 919 -315T487 -436Q393 -436 294 -418Q194 -399 88
-362V-167Q172 -216 272 -241T481 -266Q671 -266 770 -191Q870 -116 870 27Q870 159 778 234Q685 308 520 308H346V474L776 973H109V1120H983V952L572 476Z" />
<glyph unicode="&#x1f0;" glyph-name="uni01F0" horiz-adv-x="569" d="M219 1262L-26 1638H113L293 1393L473 1638H612L367 1262H219ZM193 1120H377V-20Q377 -234 296 -330T33 -426H-37V-270H12Q117 -270 155 -222T193 -20V1120Z" />
<glyph unicode="&#x1f1;" glyph-name="uni01F1" horiz-adv-x="2912" d="M1572 1493H2745V1339L1801 170H2768V0H1549V154L2493 1323H1572V1493ZM403 1327V166H647Q956 166 1099 306T1243 748Q1243 1048 1100 1187T647 1327H403ZM201 1493H616Q1050 1493 1253 1313T1456
748Q1456 362 1252 181T616 0H201V1493Z" />
<glyph unicode="&#x1f2;" glyph-name="uni01F2" horiz-adv-x="2660" d="M1606 1120H2480V952L1788 147H2480V0H1581V168L2273 973H1606V1120ZM403 1327V166H647Q956 166 1099 306T1243 748Q1243 1048 1100 1187T647 1327H403ZM201 1493H616Q1050 1493 1253 1313T1456
748Q1456 362 1252 181T616 0H201V1493Z" />
<glyph unicode="&#x1f3;" glyph-name="uni01F3" horiz-adv-x="2364" d="M1319 1120H2193V952L1501 147H2193V0H1294V168L1986 973H1319V1120ZM930 950V1556H1114V0H930V168Q872 68 784 20T571 -29Q368 -29 241 133T113 559Q113 823 240 985T571 1147Q695 1147
783 1099T930 950ZM303 559Q303 356 386 241T616 125Q762 125 846 240T930 559Q930 762 846 877T616 993Q470 993 387 878T303 559Z" />
<glyph unicode="&#x1f4;" glyph-name="uni01F4" horiz-adv-x="1587" d="M850 1900H1035L807 1636H654L850 1900ZM1219 213V614H889V780H1419V139Q1302 56 1161 14T860 -29Q510 -29 313 175T115 745Q115 1111 312 1315T860 1520Q1006 1520 1137 1484T1380 1378V1163Q1268
1258 1142 1306T877 1354Q603 1354 466 1201T328 745Q328 443 465 290T877 137Q984 137 1068 155T1219 213Z" />
<glyph unicode="&#x1f5;" glyph-name="uni01F5" horiz-adv-x="1300" d="M930 573Q930 773 848 883T616 993Q468 993 386 883T303 573Q303 374 385 264T616 154Q765 154 847 264T930 573ZM1114 139Q1114 -147 987 -286T598 -426Q501 -426 415 -412T248 -367V-188Q329
-232 408 -253T569 -274Q750 -274 840 -180T930 106V197Q873 98 784 49T571 0Q365 0 239 157T113 573Q113 833 239 990T571 1147Q695 1147 784 1098T930 950V1120H1114V139ZM678 1891H877L551 1515H398L678 1891Z" />
<glyph unicode="&#x1f6;" glyph-name="uni01F6" horiz-adv-x="2279" d="M201 1493H403V881H1137V1493H1339V449Q1339 290 1401 210Q1462 132 1615 131Q1763 131 1829 210Q1891 285 1891 449V1120H2093V442Q2093 219 1993 91Q1897 -29 1615 -29Q1340 -29 1237 91Q1137
209 1137 442V711H403V0H201V1493Z" />
<glyph unicode="&#x1f7;" glyph-name="uni01F7" horiz-adv-x="1397" d="M403 156V-426H201V1493H403V1308Q459 1380 604 1467Q691 1520 917 1520Q1115 1520 1198 1400Q1282 1278 1282 1114Q1282 657 403 156ZM403 351Q1076 781 1076 1049Q1076 1192 1015 1263Q955
1333 826 1333Q589 1333 403 1076V351Z" />
<glyph unicode="&#x1f8;" glyph-name="uni01F8" horiz-adv-x="1532" d="M741 1899L937 1635H784L554 1899H741ZM201 1493H473L1135 244V1493H1331V0H1059L397 1249V0H201V1493Z" />
<glyph unicode="&#x1f9;" glyph-name="uni01F9" horiz-adv-x="1298" d="M1124 676V0H940V670Q940 829 878 908T692 987Q543 987 457 892T371 633V0H186V1120H371V946Q437 1047 526 1097T733 1147Q926 1147 1025 1028T1124 676ZM647 1636L929 1262H776L450 1636H647Z" />
<glyph unicode="&#x1fa;" glyph-name="Aringacute" horiz-adv-x="1401" d="M852 1626Q852 1689 808 1733T700 1778Q636 1778 593 1735T549 1626Q549 1563 593 1519T700 1475Q763 1475 807 1519T852 1626ZM700 1294L428 551H973L700 1294ZM549 1397Q488 1438 457
1495T426 1626Q426 1741 505 1821T700 1901Q814 1901 894 1821T975 1626Q975 1556 944 1497T852 1397L1384 0H1174L1038 383H365L229 0H16L549 1397ZM1171 1907H1356L1128 1643H975L1171 1907Z" />
<glyph unicode="&#x1fb;" glyph-name="aringacute" horiz-adv-x="1255" d="M702 563Q479 563 393 512T307 338Q307 240 371 183T547 125Q700 125 792 233T885 522V563H702ZM1069 639V0H885V170Q822 68 728 20T498 -29Q326 -29 225 67T123 326Q123 515 249 611T627
707H885V725Q885 852 802 921T567 991Q471 991 380 968T205 899V1069Q306 1108 401 1127T586 1147Q829 1147 949 1021T1069 639ZM746 1524Q746 1587 702 1631T594 1675Q529 1675 486 1632T442 1524Q442 1459 485 1416T594 1372Q658 1372 702 1416T746 1524ZM868
1524Q868 1409 789 1329T594 1249Q479 1249 400 1329T320 1524Q320 1639 399 1718T594 1798Q709 1798 788 1719T868 1524ZM1059 1907H1244L1016 1643H863L1059 1907Z" />
<glyph unicode="&#x1fc;" glyph-name="AEacute" horiz-adv-x="1995" d="M1171 1900H1356L1128 1636H975L1171 1900ZM1845 1493V1323H1104V881H1815V711H1104V170H1864V0H901V383H373L213 0H8L633 1493H1845ZM772 1335L442 551H901V1335H772Z" />
<glyph unicode="&#x1fd;" glyph-name="aeacute" horiz-adv-x="2011" d="M1718 660Q1717 811 1635 901T1415 991Q1262 991 1170 904T1063 659L1718 660ZM995 963Q1069 1053 1175 1100T1413 1147Q1639 1147 1771 1002T1903 606V516H1057Q1069 325 1171 225T1456
125Q1560 125 1660 151T1860 231V57Q1760 15 1656 -7T1446 -29Q1279 -29 1155 31T954 211Q881 91 773 31T522 -29Q333 -29 228 64T123 326Q123 515 249 611T627 707H885V725Q885 852 802 921T567 991Q471 991 380 968T205 899V1069Q306 1108 401 1127T586 1147Q728
1147 834 1099T995 963ZM702 563Q479 563 393 512T307 338Q307 240 371 183T547 125Q700 125 792 233T885 522V563H702ZM1008 1635H1207L881 1259H728L1008 1635Z" />
<glyph unicode="&#x1fe;" glyph-name="Oslashacute" horiz-adv-x="1612" d="M821 1900H1006L778 1636H625L821 1900ZM1206 1112L489 266Q551 202 631 169T807 135Q1027 135 1155 299T1284 745Q1284 857 1265 949T1206 1112ZM1124 1225Q1063 1289 983 1322T807
1356Q587 1356 458 1192T328 745Q328 633 347 539T406 377L1124 1225ZM272 219Q194 321 155 453T115 745Q115 1099 303 1309T807 1520Q937 1520 1047 1482T1245 1368L1407 1559L1509 1470L1339 1272Q1417 1169 1457 1036T1497 745Q1497 392 1309 182T807 -29Q679
-29 569 8T367 121L205 -70L102 18L272 219Z" />
<glyph unicode="&#x1ff;" glyph-name="oslashacute" horiz-adv-x="1253" d="M905 801L418 209Q459 167 510 147T627 127Q774 127 860 243T946 559Q946 638 936 696T905 801ZM834 909Q792 950 741 970T627 991Q476 991 392 874T307 545Q307 473 316 418T346 317L834
909ZM221 166Q167 243 140 341T113 559Q113 835 249 991T627 1147Q720 1147 799 1122T946 1044L1085 1212L1180 1133L1034 954Q1087 877 1114 778T1141 559Q1141 284 1004 128T627 -29Q531 -29 451 -3T307 74L168 -94L72 -16L221 166ZM679 1891H878L552 1515H399L679
1891Z" />
<glyph unicode="&#x200;" glyph-name="uni0200" horiz-adv-x="1401" d="M700 1294L426 551H975L700 1294ZM586 1493H815L1384 0H1174L1038 383H365L229 0H16L586 1493ZM492 1904L688 1640H535L307 1904H492ZM827 1904L1023 1640H870L642 1904H827Z" />
<glyph unicode="&#x201;" glyph-name="uni0201" horiz-adv-x="1255" d="M423 1636L628 1260H493L245 1636H423ZM757 1636L947 1260H810L587 1636H757ZM702 563Q479 563 393 512T307 338Q307 240 371 183T547 125Q700 125 792 233T885 522V563H702ZM1069 639V0H885V170Q822
68 728 20T498 -29Q326 -29 225 67T123 326Q123 515 249 611T627 707H885V725Q885 852 802 921T567 991Q471 991 380 968T205 899V1069Q306 1108 401 1127T586 1147Q829 1147 949 1021T1069 639Z" />
<glyph unicode="&#x202;" glyph-name="uni0202" horiz-adv-x="1401" d="M700 1294L426 551H975L700 1294ZM586 1493H815L1384 0H1174L1038 383H365L229 0H16L586 1493ZM1013 1604H895Q882 1658 833 1686T700 1715Q618 1715 570 1688T505 1604H387Q397 1723 477
1784T700 1846Q844 1846 923 1785T1013 1604Z" />
<glyph unicode="&#x203;" glyph-name="uni0203" horiz-adv-x="1255" d="M918 1321H800Q789 1396 741 1433T605 1471Q519 1471 471 1434T410 1321H292Q302 1464 381 1536T605 1608T829 1536T918 1321ZM702 563Q479 563 393 512T307 338Q307 240 371 183T547 125Q700
125 792 233T885 522V563H702ZM1069 639V0H885V170Q822 68 728 20T498 -29Q326 -29 225 67T123 326Q123 515 249 611T627 707H885V725Q885 852 802 921T567 991Q471 991 380 968T205 899V1069Q306 1108 401 1127T586 1147Q829 1147 949 1021T1069 639Z" />
<glyph unicode="&#x204;" glyph-name="uni0204" horiz-adv-x="1294" d="M201 1493H1145V1323H403V881H1114V711H403V170H1163V0H201V1493ZM428 1904L624 1640H471L243 1904H428ZM763 1904L959 1640H806L578 1904H763Z" />
<glyph unicode="&#x205;" glyph-name="uni0205" horiz-adv-x="1260" d="M457 1635L662 1259H527L279 1635H457ZM791 1635L981 1259H844L621 1635H791ZM1151 606V516H305Q317 326 419 227T705 127Q811 127 910 153T1108 231V57Q1009 15 905 -7T694 -29Q426 -29
270 127T113 549Q113 824 261 985T662 1147Q888 1147 1019 1002T1151 606ZM967 660Q965 811 883 901T664 991Q510 991 418 904T311 659L967 660Z" />
<glyph unicode="&#x206;" glyph-name="uni0206" horiz-adv-x="1294" d="M201 1493H1145V1323H403V881H1114V711H403V170H1163V0H201V1493ZM991 1604H873Q860 1658 811 1686T678 1715Q596 1715 548 1688T483 1604H365Q375 1723 455 1784T678 1846Q822 1846 901
1785T991 1604Z" />
<glyph unicode="&#x207;" glyph-name="uni0207" horiz-adv-x="1260" d="M986 1321H868Q857 1396 809 1433T673 1471Q587 1471 539 1434T478 1321H360Q370 1464 449 1536T673 1608T897 1536T986 1321ZM1151 606V516H305Q317 326 419 227T705 127Q811 127 910 153T1108
231V57Q1009 15 905 -7T694 -29Q426 -29 270 127T113 549Q113 824 261 985T662 1147Q888 1147 1019 1002T1151 606ZM967 660Q965 811 883 901T664 991Q510 991 418 904T311 659L967 660Z" />
<glyph unicode="&#x208;" glyph-name="uni0208" horiz-adv-x="604" d="M201 1493H403V0H201V1493ZM96 1904L292 1640H139L-89 1904H96ZM431 1904L627 1640H474L246 1904H431Z" />
<glyph unicode="&#x209;" glyph-name="uni0209" horiz-adv-x="569" d="M117 1635L322 1259H187L-61 1635H117ZM451 1635L641 1259H504L281 1635H451ZM193 1120H377V0H193V1120Z" />
<glyph unicode="&#x20a;" glyph-name="uni020A" horiz-adv-x="604" d="M201 1493H403V0H201V1493ZM631 1604H513Q500 1658 451 1686T318 1715Q236 1715 188 1688T123 1604H5Q15 1723 95 1784T318 1846Q462 1846 541 1785T631 1604Z" />
<glyph unicode="&#x20b;" glyph-name="uni020B" horiz-adv-x="569" d="M597 1321H479Q468 1396 420 1433T284 1471Q198 1471 150 1434T89 1321H-29Q-19 1464 60 1536T284 1608T508 1536T597 1321ZM193 1120H377V0H193V1120Z" />
<glyph unicode="&#x20c;" glyph-name="uni020C" horiz-adv-x="1612" d="M807 1356Q587 1356 458 1192T328 745Q328 463 457 299T807 135Q1027 135 1155 299T1284 745Q1284 1028 1156 1192T807 1356ZM807 1520Q1121 1520 1309 1310T1497 745Q1497 392 1309 182T807
-29Q492 -29 304 181T115 745Q115 1099 303 1309T807 1520ZM584 1904L780 1640H627L399 1904H584ZM919 1904L1115 1640H962L734 1904H919Z" />
<glyph unicode="&#x20d;" glyph-name="uni020D" horiz-adv-x="1253" d="M430 1636L635 1260H500L252 1636H430ZM764 1636L954 1260H817L594 1636H764ZM627 991Q479 991 393 876T307 559Q307 358 392 243T627 127Q774 127 860 243T946 559Q946 758 860 874T627
991ZM627 1147Q867 1147 1004 991T1141 559Q1141 284 1004 128T627 -29Q386 -29 250 127T113 559Q113 835 249 991T627 1147Z" />
<glyph unicode="&#x20e;" glyph-name="uni020E" horiz-adv-x="1612" d="M807 1356Q587 1356 458 1192T328 745Q328 463 457 299T807 135Q1027 135 1155 299T1284 745Q1284 1028 1156 1192T807 1356ZM807 1520Q1121 1520 1309 1310T1497 745Q1497 392 1309 182T807
-29Q492 -29 304 181T115 745Q115 1099 303 1309T807 1520ZM1109 1604H991Q978 1658 929 1686T796 1715Q714 1715 666 1688T601 1604H483Q493 1723 573 1784T796 1846Q940 1846 1019 1785T1109 1604Z" />
<glyph unicode="&#x20f;" glyph-name="uni020F" horiz-adv-x="1253" d="M969 1321H851Q840 1396 792 1433T656 1471Q570 1471 522 1434T461 1321H343Q353 1464 432 1536T656 1608T880 1536T969 1321ZM627 991Q479 991 393 876T307 559Q307 358 392 243T627 127Q774
127 860 243T946 559Q946 758 860 874T627 991ZM627 1147Q867 1147 1004 991T1141 559Q1141 284 1004 128T627 -29Q386 -29 250 127T113 559Q113 835 249 991T627 1147Z" />
<glyph unicode="&#x210;" glyph-name="uni0210" horiz-adv-x="1423" d="M909 700Q974 678 1035 606T1159 408L1364 0H1147L956 383Q882 533 813 582T623 631H403V0H201V1493H657Q913 1493 1039 1386T1165 1063Q1165 922 1100 829T909 700ZM403 1327V797H657Q803
797 877 864T952 1063Q952 1194 878 1260T657 1327H403ZM384 1904L580 1640H427L199 1904H384ZM719 1904L915 1640H762L534 1904H719Z" />
<glyph unicode="&#x211;" glyph-name="uni0211" horiz-adv-x="842" d="M308 1635L513 1259H378L130 1635H308ZM642 1635L832 1259H695L472 1635H642ZM842 948Q811 966 775 974T694 983Q538 983 455 882T371 590V0H186V1120H371V946Q429 1048 522 1097T748 1147Q767
1147 790 1145T841 1137L842 948Z" />
<glyph unicode="&#x212;" glyph-name="uni0212" horiz-adv-x="1423" d="M909 700Q974 678 1035 606T1159 408L1364 0H1147L956 383Q882 533 813 582T623 631H403V0H201V1493H657Q913 1493 1039 1386T1165 1063Q1165 922 1100 829T909 700ZM403 1327V797H657Q803
797 877 864T952 1063Q952 1194 878 1260T657 1327H403ZM953 1604H835Q822 1658 773 1686T640 1715Q558 1715 510 1688T445 1604H327Q337 1723 417 1784T640 1846Q784 1846 863 1785T953 1604Z" />
<glyph unicode="&#x213;" glyph-name="uni0213" horiz-adv-x="842" d="M862 1321H744Q733 1396 685 1433T549 1471Q463 1471 415 1434T354 1321H236Q246 1464 325 1536T549 1608T773 1536T862 1321ZM842 948Q811 966 775 974T694 983Q538 983 455 882T371 590V0H186V1120H371V946Q429
1048 522 1097T748 1147Q767 1147 790 1145T841 1137L842 948Z" />
<glyph unicode="&#x214;" glyph-name="uni0214" horiz-adv-x="1499" d="M178 1493H381V586Q381 346 468 241T750 135Q944 135 1031 240T1118 586V1493H1321V561Q1321 269 1177 120T750 -29Q467 -29 323 120T178 561V1493ZM540 1904L736 1640H583L355 1904H540ZM875
1904L1071 1640H918L690 1904H875Z" />
<glyph unicode="&#x215;" glyph-name="uni0215" horiz-adv-x="1298" d="M483 1636L688 1260H553L305 1636H483ZM817 1636L1007 1260H870L647 1636H817ZM174 442V1120H358V449Q358 290 420 211T606 131Q755 131 841 226T928 485V1120H1112V0H928V172Q861 70 773
21T567 -29Q374 -29 274 91T174 442Z" />
<glyph unicode="&#x216;" glyph-name="uni0216" horiz-adv-x="1499" d="M178 1493H381V586Q381 346 468 241T750 135Q944 135 1031 240T1118 586V1493H1321V561Q1321 269 1177 120T750 -29Q467 -29 323 120T178 561V1493ZM1061 1604H943Q930 1658 881 1686T748
1715Q666 1715 618 1688T553 1604H435Q445 1723 525 1784T748 1846Q892 1846 971 1785T1061 1604Z" />
<glyph unicode="&#x217;" glyph-name="uni0217" horiz-adv-x="1298" d="M988 1321H870Q859 1396 811 1433T675 1471Q589 1471 541 1434T480 1321H362Q372 1464 451 1536T675 1608T899 1536T988 1321ZM174 442V1120H358V449Q358 290 420 211T606 131Q755 131 841
226T928 485V1120H1112V0H928V172Q861 70 773 21T567 -29Q374 -29 274 91T174 442Z" />
<glyph unicode="&#x218;" glyph-name="Scommaaccent" horiz-adv-x="1300" d="M562 -172H773L609 -492H480L562 -172ZM1096 1444V1247Q981 1302 879 1329T682 1356Q517 1356 428 1292T338 1110Q338 1011 397 961T623 879L745 854Q971 811 1078 703T1186 412Q1186
195 1041 83T614 -29Q508 -29 389 -5T141 66V274Q264 205 382 170T614 135Q787 135 881 203T975 397Q975 507 908 569T686 662L563 686Q337 731 236 827T135 1094Q135 1292 274 1406T659 1520Q764 1520 873 1501T1096 1444Z" />
<glyph unicode="&#x219;" glyph-name="scommaaccent" horiz-adv-x="1067" d="M488 -172H699L535 -492H406L488 -172ZM907 1087V913Q829 953 745 973T571 993Q434 993 366 951T297 825Q297 761 346 725T543 655L606 641Q802 599 884 523T967 309Q967 153 844 62T504
-29Q414 -29 317 -12T111 41V231Q213 178 312 152T508 125Q638 125 708 169T778 295Q778 370 728 410T506 487L442 502Q271 538 195 612T119 817Q119 975 231 1061T549 1147Q651 1147 741 1132T907 1087Z" />
<glyph unicode="&#x21a;" glyph-name="uni021A" horiz-adv-x="1251" d="M527 -172H738L574 -492H445L527 -172ZM-6 1493H1257V1323H727V0H524V1323H-6V1493Z" />
<glyph unicode="&#x21b;" glyph-name="uni021B" horiz-adv-x="803" d="M444 -172H655L491 -492H362L444 -172ZM375 1438V1120H754V977H375V369Q375 232 412 193T565 154H754V0H565Q352 0 271 79T190 369V977H55V1120H190V1438H375Z" />
<glyph unicode="&#x21c;" glyph-name="uni021C" horiz-adv-x="1284" d="M831 674Q1139 607 1139 314Q1139 202 1084 99T936 -84T715 -232T448 -348T156 -430V-270Q356 -215 508 -145T753 1T892 156T938 314Q938 415 876 481T701 547Q606 547 491 496L328 424V595L576
701Q636 727 687 759T790 841T872 960T903 1112Q903 1167 886 1210T841 1278T776 1321T702 1344T628 1350Q444 1350 201 1166V1356Q440 1520 646 1520Q777 1520 878 1477T1042 1343T1104 1124Q1104 1064 1093 1013T1052 906T968 791T831 674Z" />
<glyph unicode="&#x21d;" glyph-name="uni021D" horiz-adv-x="1068" d="M679 461Q749 453 805 419T892 340T939 251T956 170Q956 95 923 26T836 -97T706 -199T552 -283T384 -348T220 -398T71 -433V-303Q233 -257 355 -209T557 -116T685 -21T755 73T775 170Q775
258 716 314T564 370Q505 370 442 345L226 259V398L449 483Q483 496 515 512T591 558T666 622T720 708T743 816Q743 860 728 895T688 951T630 985T564 1004T496 1009Q427 1009 343 980T112 860V1014Q378 1147 512 1147Q624 1147 716 1112T866 1003T924 833Q924
723 873 647T679 461Z" />
<glyph unicode="&#x21e;" glyph-name="uni021E" horiz-adv-x="1540" d="M678 1635L467 1901H606L772 1723L938 1901H1077L866 1635H678ZM201 1493H403V881H1137V1493H1339V0H1137V711H403V0H201V1493Z" />
<glyph unicode="&#x21f;" glyph-name="uni021F" horiz-adv-x="1298" d="M195 1635L-16 1901H123L289 1723L455 1901H594L383 1635H195ZM1124 676V0H940V670Q940 829 878 908T692 987Q543 987 457 892T371 633V0H186V1556H371V946Q437 1047 526 1097T733 1147Q926
1147 1025 1028T1124 676Z" />
<glyph unicode="&#x220;" glyph-name="uni0220" horiz-adv-x="1506" d="M1104 895Q1104 1110 1027 1216T797 1323Q618 1323 511 1196T403 846V0H201V1493H403V1252Q484 1387 586 1454T845 1520Q1072 1520 1188 1361T1305 893V-426H1104V895Z" />
<glyph unicode="&#x221;" glyph-name="uni0221" horiz-adv-x="1716" d="M1206 130Q1223 125 1260 125Q1420 125 1420 300Q1420 345 1368 346Q1316 346 1206 130ZM1114 314Q1224 498 1360 498Q1604 498 1604 292Q1604 -29 1262 -29Q1189 -29 1136 -14Q1102 -86
1078 -144H882Q911 -75 978 72Q930 132 930 168Q872 68 784 20Q695 -29 571 -29Q368 -29 240 133Q113 295 113 559T240 985Q368 1147 571 1147Q695 1147 784 1098Q872 1050 930 950V1556H1114V314ZM303 762T303 559T386 240Q470 125 616 125T846 240Q930 356 930
559T846 878Q762 993 616 993T386 878Q303 762 303 559Z" />
<glyph unicode="&#x222;" glyph-name="uni0222" horiz-adv-x="1430" d="M715 709Q531 709 425 632Q318 555 318 420T425 208Q531 131 715 131T1006 208Q1113 286 1113 420Q1113 555 1007 632T715 709ZM657 1260Q527 1257 442 1195T357 1054Q357 985 452 913Q511
868 715 868Q883 868 978 933Q1074 998 1074 1134Q1074 1292 998 1335Q889 1412 759 1420V1520Q987 1520 1137 1416Q1276 1319 1276 1133Q1276 1005 1191 916T954 795Q1126 761 1221 662Q1317 563 1317 420Q1317 203 1161 87Q1006 -29 715 -29T269 87Q113 203 113
420Q113 563 209 662Q306 761 477 795Q306 826 239 896Q154 985 154 1073Q154 1203 284 1286Q400 1360 657 1360V1260Z" />
<glyph unicode="&#x223;" glyph-name="uni0223" horiz-adv-x="1250" d="M625 709Q481 709 398 632Q316 555 316 420T398 208Q481 131 625 131T852 208Q935 286 935 420Q935 555 852 632Q770 709 625 709ZM1024 1295Q1082 1231 1082 1133Q1082 980 1030 916Q958
827 828 795Q974 761 1056 662Q1137 563 1137 420Q1137 203 1004 87Q872 -29 625 -29T246 87Q113 203 113 420Q113 563 195 662T423 795Q279 830 220 916Q168 991 168 1133Q168 1222 231 1295H392Q349 1230 349 1114T422 933Q494 868 625 868Q755 868 828 933Q902
998 902 1114Q902 1233 858 1295H1024Z" />
<glyph unicode="&#x224;" glyph-name="uni0224" horiz-adv-x="1403" d="M1311 -20Q1311 -309 1153 -389Q1081 -426 967 -426H713V-270H946Q1051 -270 1089 -222Q1127 -173 1127 -20V0H92V154L1036 1323H115V1493H1288V1339L344 170H1311V-20Z" />
<glyph unicode="&#x225;" glyph-name="uni0225" horiz-adv-x="1075" d="M987 -20Q987 -309 829 -389Q757 -426 643 -426H389V-270H622Q727 -270 765 -222Q803 -173 803 -20V0H88V168L780 973H113V1120H987V952L295 147H987V-20Z" />
<glyph unicode="&#x226;" glyph-name="uni0226" horiz-adv-x="1401" d="M700 1294L426 551H975L700 1294ZM586 1493H815L1384 0H1174L1038 383H365L229 0H16L586 1493ZM606 1872H810V1668H606V1872Z" />
<glyph unicode="&#x227;" glyph-name="uni0227" horiz-adv-x="1255" d="M702 563Q479 563 393 512T307 338Q307 240 371 183T547 125Q700 125 792 233T885 522V563H702ZM1069 639V0H885V170Q822 68 728 20T498 -29Q326 -29 225 67T123 326Q123 515 249 611T627
707H885V725Q885 852 802 921T567 991Q471 991 380 968T205 899V1069Q306 1108 401 1127T586 1147Q829 1147 949 1021T1069 639ZM505 1554H709V1350H505V1554Z" />
<glyph unicode="&#x228;" glyph-name="uni0228" horiz-adv-x="1294" d="M201 1493H1145V1323H403V881H1114V711H403V170H1163V0H201V1493ZM758 0Q813 -62 840 -114T867 -215Q867 -304 807 -349T629 -395Q583 -395 540 -389T453 -371V-240Q487 -257 524 -264T608
-272Q667 -272 697 -248T727 -178Q727 -148 706 -105T639 0H758Z" />
<glyph unicode="&#x229;" glyph-name="uni0229" horiz-adv-x="1260" d="M1151 606V516H305Q317 326 419 227T705 127Q811 127 910 153T1108 231V57Q1009 15 905 -7T694 -29Q426 -29 270 127T113 549Q113 824 261 985T662 1147Q888 1147 1019 1002T1151 606ZM967
660Q965 811 883 901T664 991Q510 991 418 904T311 659L967 660ZM719 0Q774 -62 801 -114T828 -215Q828 -304 768 -349T590 -395Q544 -395 501 -389T414 -371V-240Q448 -257 485 -264T569 -272Q628 -272 658 -248T688 -178Q688 -148 667 -105T600 0H719Z" />
<glyph unicode="&#x22a;" glyph-name="uni022A" horiz-adv-x="1612" d="M807 1356Q587 1356 458 1192T328 745Q328 463 457 299T807 135Q1027 135 1155 299T1284 745Q1284 1028 1156 1192T807 1356ZM807 1520Q1121 1520 1309 1310T1497 745Q1497 392 1309 182T807
-29Q492 -29 304 181T115 745Q115 1099 303 1309T807 1520ZM500 2099H1098V1951H500V2099ZM892 1838H1095V1635H892V1838ZM501 1838H704V1635H501V1838Z" />
<glyph unicode="&#x22b;" glyph-name="uni022B" horiz-adv-x="1253" d="M627 991Q479 991 393 876T307 559Q307 358 392 243T627 127Q774 127 860 243T946 559Q946 758 860 874T627 991ZM627 1147Q867 1147 1004 991T1141 559Q1141 284 1004 128T627 -29Q386 -29
250 127T113 559Q113 835 249 991T627 1147ZM721 1552H924V1350H721V1552ZM330 1552H533V1350H330V1552ZM328 1841H926V1693H328V1841Z" />
<glyph unicode="&#x22c;" glyph-name="uni022C" horiz-adv-x="1612" d="M807 1356Q587 1356 458 1192T328 745Q328 463 457 299T807 135Q1027 135 1155 299T1284 745Q1284 1028 1156 1192T807 1356ZM807 1520Q1121 1520 1309 1310T1497 745Q1497 392 1309 182T807
-29Q492 -29 304 181T115 745Q115 1099 303 1309T807 1520ZM805 1685L748 1718Q723 1732 708 1737T680 1743Q644 1743 624 1718T604 1648V1642H479Q479 1743 530 1802T668 1861Q704 1861 734 1853T813 1818L870 1788Q893 1775 910 1769T942 1763Q974 1763 994 1788T1014
1855V1861H1139Q1137 1761 1086 1702T950 1642Q916 1642 887 1650T805 1685ZM507 2099H1105V1951H507V2099Z" />
<glyph unicode="&#x22d;" glyph-name="uni022D" horiz-adv-x="1253" d="M627 991Q479 991 393 876T307 559Q307 358 392 243T627 127Q774 127 860 243T946 559Q946 758 860 874T627 991ZM627 1147Q867 1147 1004 991T1141 559Q1141 284 1004 128T627 -29Q386 -29
250 127T113 559Q113 835 249 991T627 1147ZM625 1355L568 1388Q543 1402 528 1407T500 1413Q464 1413 444 1388T424 1318V1312H299Q299 1413 350 1472T488 1531Q524 1531 554 1523T633 1488L690 1458Q713 1445 730 1439T762 1433Q794 1433 814 1458T834 1525V1531H959Q957
1431 906 1372T770 1312Q736 1312 707 1320T625 1355ZM327 1769H925V1621H327V1769Z" />
<glyph unicode="&#x22e;" glyph-name="uni022E" horiz-adv-x="1612" d="M705 1871H909V1666H705V1871ZM807 1356Q587 1356 458 1192T328 745Q328 463 457 299T807 135Q1027 135 1155 299T1284 745Q1284 1028 1156 1192T807 1356ZM807 1520Q1121 1520 1309 1310T1497
745Q1497 392 1309 182T807 -29Q492 -29 304 181T115 745Q115 1099 303 1309T807 1520Z" />
<glyph unicode="&#x22f;" glyph-name="uni022F" horiz-adv-x="1253" d="M525 1552H729V1348H525V1552ZM627 991Q479 991 393 876T307 559Q307 358 392 243T627 127Q774 127 860 243T946 559Q946 758 860 874T627 991ZM627 1147Q867 1147 1004 991T1141 559Q1141
284 1004 128T627 -29Q386 -29 250 127T113 559Q113 835 249 991T627 1147Z" />
<glyph unicode="&#x230;" glyph-name="uni0230" horiz-adv-x="1612" d="M807 1356Q587 1356 458 1192T328 745Q328 463 457 299T807 135Q1027 135 1155 299T1284 745Q1284 1028 1156 1192T807 1356ZM807 1520Q1121 1520 1309 1310T1497 745Q1497 392 1309 182T807
-29Q492 -29 304 181T115 745Q115 1099 303 1309T807 1520ZM704 1835H908V1630H704V1835ZM508 2099H1106V1951H508V2099Z" />
<glyph unicode="&#x231;" glyph-name="uni0231" horiz-adv-x="1253" d="M525 1552H729V1348H525V1552ZM627 991Q479 991 393 876T307 559Q307 358 392 243T627 127Q774 127 860 243T946 559Q946 758 860 874T627 991ZM627 1147Q867 1147 1004 991T1141 559Q1141
284 1004 128T627 -29Q386 -29 250 127T113 559Q113 835 249 991T627 1147ZM328 1841H926V1693H328V1841Z" />
<glyph unicode="&#x232;" glyph-name="uni0232" horiz-adv-x="1251" d="M327 1841H925V1693H327V1841ZM-4 1493H213L627 879L1038 1493H1255L727 711V0H524V711L-4 1493Z" />
<glyph unicode="&#x233;" glyph-name="uni0233" horiz-adv-x="1212" d="M307 1781H905V1633H307V1781ZM659 -104Q581 -304 507 -365T309 -426H162V-272H270Q346 -272 388 -236T481 -66L514 18L61 1120H256L606 244L956 1120H1151L659 -104Z" />
<glyph unicode="&#x234;" glyph-name="uni0234" horiz-adv-x="972" d="M462 130Q479 125 516 125Q676 125 676 300Q676 345 624 346Q572 346 462 130ZM370 314Q480 498 616 498Q860 498 860 292Q860 -29 518 -29Q445 -29 392 -14Q358 -86 334 -144H138Q167 -75
234 72Q185 132 186 222V1550H370V314Z" />
<glyph unicode="&#x235;" glyph-name="uni0235" horiz-adv-x="1726" d="M1216 130Q1233 125 1270 125Q1430 125 1430 300Q1430 345 1378 346Q1326 346 1216 130ZM1124 314Q1234 498 1370 498Q1614 498 1614 292Q1614 -29 1272 -29Q1199 -29 1146 -14Q1112 -86
1088 -144H892Q921 -75 988 72Q939 132 940 222V670Q940 829 878 908T692 987Q543 987 457 892T371 633V0H186V1120H371V946Q437 1047 526 1097Q616 1147 733 1147Q926 1147 1025 1028Q1124 908 1124 676V314Z" />
<glyph unicode="&#x236;" glyph-name="uni0236" horiz-adv-x="977" d="M467 130Q484 125 521 125Q681 125 681 300Q681 345 629 346Q577 346 467 130ZM375 314Q485 498 621 498Q865 498 865 292Q865 -29 523 -29Q450 -29 396 -14Q363 -86 339 -144H143Q172 -75
239 72Q190 132 190 222V977H55V1120H190V1438H375V1120H754V977H375V314Z" />
<glyph unicode="&#x237;" glyph-name="dotlessj" horiz-adv-x="569" d="M193 1120H377V-20Q377 -234 296 -330T33 -426H-37V-270H12Q117 -270 155 -222T193 -20V1120Z" />
<glyph unicode="&#x238;" glyph-name="uni0238" horiz-adv-x="2044" d="M303 762T303 559T386 240Q470 125 616 125T846 240T930 559T846 877T616 993T386 878Q303 762 303 559ZM571 1147Q816 1147 930 950V1556H1115V950Q1229 1147 1473 1147Q1677 1147 1804
985T1932 559T1805 133T1473 -29Q1229 -29 1115 168V0H930V168Q816 -29 571 -29Q368 -29 240 133Q113 295 113 559T240 985Q368 1147 571 1147ZM1741 356T1741 559T1658 878Q1574 993 1428 993T1198 878Q1115 762 1115 559T1198 240Q1282 125 1428 125T1658 240Q1741
356 1741 559Z" />
<glyph unicode="&#x239;" glyph-name="uni0239" horiz-adv-x="2044" d="M1741 356T1741 559T1658 878Q1574 993 1428 993T1198 878Q1115 762 1115 559T1198 240Q1282 125 1428 125T1658 240Q1741 356 1741 559ZM1473 -29Q1229 -29 1115 168V-426H930V168Q816 -29
571 -29Q368 -29 240 133Q113 295 113 559T240 985Q368 1147 571 1147Q816 1147 930 950V1120H1115V950Q1229 1147 1473 1147Q1677 1147 1804 985T1932 559T1805 133T1473 -29ZM303 762T303 559T386 240Q470 125 616 125T846 240T930 559T846 877T616 993T386 878Q303
762 303 559Z" />
<glyph unicode="&#x23a;" glyph-name="uni023A" horiz-adv-x="1401" d="M586 1493H815L949 1142L1302 1559L1404 1470L1004 997L1384 0H1174L1038 383H484L279 142L229 0H159L100 -70L18 0H16L17 1L-3 18L44 74L586 1493ZM700 1294L426 551H448L815 984L700 1294ZM626
551H975L869 838L626 551Z" />
<glyph unicode="&#x23b;" glyph-name="uni023B" horiz-adv-x="1430" d="M114 -70L12 18L232 279Q115 466 115 745Q115 1105 310 1312Q505 1520 844 1520Q978 1520 1096 1484Q1157 1466 1215 1439L1316 1559L1418 1470L1319 1352V1165Q1273 1208 1224 1241L444
319Q453 306 464 294Q600 137 856 137Q986 137 1102 184Q1217 231 1319 326V115Q1213 43 1094 7Q976 -29 844 -29Q512 -29 318 170L114 -70ZM375 447L1103 1307H1102Q986 1354 856 1354Q600 1354 464 1198Q328 1041 328 745Q328 572 375 447Z" />
<glyph unicode="&#x23c;" glyph-name="uni023C" horiz-adv-x="1126" d="M105 -94L9 -16L198 214Q113 355 113 559Q113 833 264 990Q414 1147 676 1147Q761 1147 842 1130Q888 1120 933 1104L1022 1212L1117 1133L999 990V905Q974 919 950 930L393 256Q400 248
406 240Q505 127 684 127Q764 127 842 148Q921 170 999 213V43Q922 7 840 -11Q757 -29 664 -29Q424 -29 277 115L105 -94ZM332 376L826 974Q755 991 684 991Q505 991 406 878Q307 764 307 559Q307 456 332 376Z" />
<glyph unicode="&#x23d;" glyph-name="uni023D" horiz-adv-x="1141" d="M201 1493H403V844H594V700H403V170H1130V0H201V700H10V844H201V1493Z" />
<glyph unicode="&#x23e;" glyph-name="uni023E" horiz-adv-x="1251" d="M1257 1385V1323H1205L727 759V0H524V519L25 -70L-78 18L524 729V1323H-6V1493H1171L1227 1559L1329 1470L1257 1385ZM727 969L1027 1323H727V969Z" />
<glyph unicode="&#x23f;" glyph-name="uni023F" horiz-adv-x="1067" d="M778 295Q778 370 728 410Q677 450 506 487L442 502Q271 538 195 612Q119 687 119 817Q119 975 231 1061T549 1147Q651 1147 741 1132T907 1087V913Q829 953 745 973T571 993Q434 993 366
951Q297 909 297 825Q297 761 346 724Q395 688 543 655L606 641Q804 597 884 522Q967 446 967 309Q967 153 844 62Q757 -2 625 -21L784 -180L931 -306Q973 -342 1049 -342V-496H1010Q926 -496 812 -435Q741 -397 652 -306L415 -63Q385 -33 349 -17Q333 -14 316
-12Q219 6 111 41V231Q213 178 312 152Q411 125 508 125Q638 125 708 170Q778 214 778 295Z" />
<glyph unicode="&#x240;" glyph-name="uni0240" horiz-adv-x="1075" d="M113 1120H987V952L297 149Q389 133 438 84L702 -180L849 -306Q891 -342 967 -342H1075V-496H928Q844 -496 730 -435Q659 -397 570 -306L333 -63Q272 0 182 0H88V156V168L780 973H113V1120Z" />
<glyph unicode="&#x241;" glyph-name="uni0241" horiz-adv-x="1235" d="M657 602H618V0H416V768H657Q798 768 875 840T952 1048Q952 1184 875 1255T657 1327H403Q334 1327 247 1306T80 1241V1423Q232 1493 403 1493H657Q901 1493 1033 1383T1165 1048Q1165 833
1033 718T657 602Z" />
<glyph unicode="&#x242;" glyph-name="uni0242" horiz-adv-x="981" d="M303 422H403Q544 422 621 494T698 702Q698 843 622 908Q537 980 403 980Q330 980 244 959Q158 938 80 895V1077Q232 1147 403 1147Q654 1147 779 1037Q911 921 911 702Q911 489 805 375T505
260V0H303V422Z" />
<glyph unicode="&#x243;" glyph-name="uni0243" horiz-adv-x="1405" d="M403 713V512H750V368H403V166H727Q890 166 968 233T1047 440Q1047 580 969 646T727 713H403ZM403 1327V877H702Q850 877 922 932T995 1102Q995 1215 923 1271T702 1327H403ZM201 1493H717Q948
1493 1073 1397T1198 1124Q1198 987 1134 906T946 805Q1095 773 1177 672T1260 418Q1260 218 1124 109T737 0H201V368H10V512H201V1493Z" />
<glyph unicode="&#x244;" glyph-name="uni0244" horiz-adv-x="1499" d="M178 1493H381V875H1118V1493H1321V875H1486V711H1321V561Q1321 269 1177 120T750 -29Q467 -29 323 120T178 561V711H12V875H178V1493ZM1118 711H381V586Q381 346 468 241T750 135Q944 135
1031 240T1118 586V711Z" />
<glyph unicode="&#x245;" glyph-name="uni0245" horiz-adv-x="1401" d="M229 0H16L586 1493H815L1384 0H1174L700 1294L229 0Z" />
<glyph unicode="&#x246;" glyph-name="uni0246" horiz-adv-x="1294" d="M952 1683H1122L1057 1493H1145V1323H999L848 881H1114V711H790L605 170H1163V0H547L482 -190H312L377 0H201V1493H887L952 1683ZM435 170L620 711H403V170H435ZM678 881L829 1323H403V881H678Z" />
<glyph unicode="&#x247;" glyph-name="uni0247" horiz-adv-x="1260" d="M967 660Q965 811 882 901Q868 917 852 930L741 660H967ZM1151 606V516H682L534 155Q608 127 705 127Q811 127 910 153T1108 231V57Q1009 15 905 -7T694 -29Q571 -29 472 4L392 -190H222L331
75Q298 98 270 127Q113 283 113 549Q113 824 261 985T662 1147Q718 1147 767 1138L838 1310H1008L916 1086Q973 1052 1020 1002Q1151 856 1151 606ZM571 659L706 989Q686 991 664 991Q510 991 418 904T311 659H571ZM401 246L512 516H305Q316 344 401 246Z" />
<glyph unicode="&#x248;" glyph-name="uni0248" horiz-adv-x="604" d="M594 631H403V104Q403 -166 301 -288T-29 -410H-106V-240H-43Q91 -240 146 -165T201 104V631H10V797H201V1493H403V797H594V631Z" />
<glyph unicode="&#x249;" glyph-name="uni0249" horiz-adv-x="569" d="M193 1120H377V616H540V452H377V-20Q377 -234 296 -330T33 -426H-37V-270H12Q117 -270 155 -222T193 -20V452H12V616H193V1120ZM193 1556H377V1323H193V1556Z" />
<glyph unicode="&#x24a;" glyph-name="uni024A" horiz-adv-x="1600" d="M1203 1261V1493H1399V104Q1399 -90 1454 -165T1643 -240H1712V-410H1635Q1408 -410 1306 -288T1203 104V231Q1126 99 1008 35T725 -29Q455 -29 285 184T115 746Q115 1094 285 1307T725 1521Q890
1521 1008 1457T1203 1261ZM325 745Q325 460 442 298T763 135Q968 135 1085 297T1203 745Q1203 1030 1086 1192T763 1355Q559 1355 442 1193T325 745Z" />
<glyph unicode="&#x24b;" glyph-name="uni024B" horiz-adv-x="1300" d="M1344 -426H1274Q1093 -426 1012 -330T930 -20V168Q872 68 784 20T571 -29Q368 -29 241 133T113 559Q113 823 240 985T571 1147Q695 1147 783 1099T930 950V1120H1114V-20Q1114 -173 1152
-221T1295 -270H1344V-426ZM303 559Q303 356 386 241T616 125Q762 125 846 240T930 559Q930 762 846 877T616 993Q470 993 387 878T303 559Z" />
<glyph unicode="&#x24c;" glyph-name="uni024C" horiz-adv-x="1423" d="M909 700Q974 678 1035 606T1159 408L1364 0H1147L956 383Q882 533 813 582T623 631H403V0H201V631H10V797H201V1493H657Q913 1493 1039 1386T1165 1063Q1165 922 1100 829T909 700ZM403
1327V797H657Q803 797 877 864T952 1063Q952 1194 878 1260T657 1327H403Z" />
<glyph unicode="&#x24d;" glyph-name="uni024D" horiz-adv-x="842" d="M542 616V452H371V0H186V452H14V616H186V1120H371V946Q429 1048 522 1097T748 1147Q767 1147 790 1145T841 1137L842 948Q811 966 775 974T694 983Q538 983 455 880T371 616H542Z" />
<glyph unicode="&#x24e;" glyph-name="uni024E" horiz-adv-x="1251" d="M-4 1493H213L364 1269H888L1038 1493H1255L1104 1269H1260V1105H993L727 711V0H524V711L258 1105H-10V1269H147L-4 1493ZM778 1105H475L627 879L778 1105Z" />
<glyph unicode="&#x24f;" glyph-name="uni024F" horiz-adv-x="1212" d="M659 -104Q581 -304 507 -365T309 -426H162V-272H270Q346 -272 388 -236T481 -66L514 18L309 516H11V659H251L61 1120H256L440 659H772L956 1120H1151L966 659H1205V516H908L659 -104ZM715
516H497L606 244L715 516Z" />
<glyph unicode="&#x250;" glyph-name="uni0250" horiz-adv-x="1229" d="M541 555Q764 555 850 606T936 780Q936 878 871 936Q807 993 696 993Q543 993 451 884Q358 776 358 596V555H541ZM174 479V1118H358V948Q421 1050 515 1098Q609 1147 745 1147Q917 1147 1019
1050Q1120 954 1120 792Q1120 603 993 507Q867 411 616 411H358V393Q358 266 441 196Q525 127 676 127Q772 127 863 150T1038 219V49Q937 10 842 -10Q747 -29 657 -29Q414 -29 294 97T174 479Z" />
<glyph unicode="&#x251;" glyph-name="uni0251" horiz-adv-x="1300" d="M930 950V1120H1114V0H930V168Q872 68 784 20T571 -29Q368 -29 241 133T113 559Q113 823 240 985T571 1147Q695 1147 783 1099T930 950ZM303 559Q303 356 386 241T616 125Q762 125 846 240T930
559Q930 762 846 877T616 993Q470 993 387 878T303 559Z" />
<glyph unicode="&#x252;" glyph-name="uni0252" horiz-adv-x="1300" d="M997 559Q997 762 914 877T684 993Q538 993 454 878T370 559Q370 356 454 241T684 125Q830 125 913 240T997 559ZM370 950Q428 1050 516 1098T729 1147Q932 1147 1059 985T1187 559Q1187
295 1060 133T729 -29Q605 -29 517 19T370 168V-2H186V1118H370V950Z" />
<glyph unicode="&#x253;" glyph-name="uni0253" horiz-adv-x="1300" d="M997 559Q997 762 914 877T684 993Q538 993 455 878T371 559Q371 356 454 241T684 125Q830 125 913 240T997 559ZM371 950Q429 1050 517 1098T729 1147Q933 1147 1060 985T1188 559Q1188
295 1061 133T729 -29Q606 -29 518 19T371 168V0H186V1150Q186 1345 275 1450T530 1556H784V1400H551Q461 1400 416 1338T370 1150L371 950Z" />
<glyph unicode="&#x254;" glyph-name="uni0254" horiz-adv-x="1125" d="M127 1077Q203 1112 284 1130Q365 1147 450 1147Q712 1147 862 990Q1013 833 1013 559Q1013 289 864 130T462 -29Q369 -29 286 -11Q204 7 127 43V213Q205 170 284 148Q362 127 442 127Q621
127 720 240Q819 354 819 559Q819 764 720 878Q621 991 442 991Q362 991 284 970Q205 948 127 905V1077Z" />
<glyph unicode="&#x255;" glyph-name="uni0255" horiz-adv-x="1126" d="M999 1077V905Q921 948 843 969T684 991Q505 991 406 878T307 559Q307 354 406 240Q413 232 419 226Q458 307 520 351Q593 402 699 402Q862 402 936 330Q999 269 999 180Q999 55 904 8Q821
-33 666 -33Q586 -33 513 -16Q507 -73 507 -141H354Q354 -37 366 44Q309 79 262 130Q113 291 113 559Q113 833 263 990T676 1147Q761 1147 842 1130T999 1077ZM549 146Q607 127 684 127Q830 127 830 184Q830 259 698 259Q597 259 549 146Z" />
<glyph unicode="&#x256;" glyph-name="uni0256" horiz-adv-x="1300" d="M1344 -426H1274Q1093 -426 1012 -330T930 -20V168Q872 68 784 20T571 -29Q368 -29 241 133T113 559Q113 823 240 985T571 1147Q695 1147 783 1099T930 950V1556H1114V-20Q1114 -173 1152
-221T1295 -270H1344V-426ZM303 559Q303 356 386 241T616 125Q762 125 846 240T930 559Q930 762 846 877T616 993Q470 993 387 878T303 559Z" />
<glyph unicode="&#x257;" glyph-name="uni0257" horiz-adv-x="1426" d="M930 950V1150Q930 1364 1011 1460T1274 1556H1465V1400H1295Q1190 1400 1152 1352T1114 1150V0H930V168Q872 68 784 20T571 -29Q368 -29 241 133T113 559Q113 823 240 985T571 1147Q695
1147 783 1099T930 950ZM303 559Q303 356 386 241T616 125Q762 125 846 240T930 559Q930 762 846 877T616 993Q470 993 387 878T303 559Z" />
<glyph unicode="&#x258;" glyph-name="uni0258" horiz-adv-x="1260" d="M113 606Q113 856 244 1002Q376 1147 602 1147Q854 1147 1002 986Q1151 824 1151 549Q1151 283 994 127Q838 -29 570 -29Q463 -29 359 -7T156 57V231Q254 179 354 153Q453 127 559 127Q742
127 844 226Q947 326 959 516H113V606ZM297 660L953 659Q939 817 846 904Q754 991 600 991Q464 991 382 901Q299 811 297 660Z" />
<glyph unicode="&#x259;" glyph-name="uni0259" horiz-adv-x="1260" d="M113 512V602H959Q947 792 845 891T559 991Q453 991 354 965T156 887V1061Q255 1103 359 1125T570 1147Q838 1147 994 991T1151 569Q1151 294 1003 133T602 -29Q376 -29 245 116T113 512ZM297
458Q299 307 381 217T600 127Q754 127 846 214T953 459L297 458Z" />
<glyph unicode="&#x25a;" glyph-name="uni025A" horiz-adv-x="1678" d="M846 214Q948 352 946 559Q947 621 937 677L320 321Q350 252 382 217Q464 127 600 127Q768 127 846 214ZM1120 783Q1151 687 1151 569Q1151 294 1002 132Q854 -29 602 -29Q374 -29 244 116Q152
219 124 375L890 818Q871 857 844 892Q768 992 559 991Q451 990 354 965Q254 939 156 887V1061Q255 1103 359 1125T570 1147Q838 1147 994 991Q1030 956 1057 915L1260 1032H1444V884Q1444 731 1482 682Q1520 634 1625 634H1668V478H1604Q1429 478 1342 574Q1260
664 1260 864L1120 783Z" />
<glyph unicode="&#x25b;" glyph-name="uni025B" horiz-adv-x="1107" d="M395 604Q283 628 223 693Q163 757 163 850Q163 991 277 1070Q390 1148 586 1148Q662 1148 747 1136T930 1100V933Q833 962 753 975Q672 988 601 988Q482 988 413 942Q343 896 343 832Q343
762 411 717Q478 673 594 673H749V521H601Q464 521 392 470Q314 414 314 326Q314 236 398 180Q483 124 634 124Q727 124 812 142Q897 161 968 198V27Q878 -1 794 -15Q709 -29 629 -29Q391 -29 262 62Q133 153 133 326Q133 434 202 507T395 604Z" />
<glyph unicode="&#x25c;" glyph-name="uni025C" horiz-adv-x="1089" d="M706 604Q830 580 899 507T968 326Q968 153 839 62T472 -29Q392 -29 308 -15T133 27V198Q204 161 289 143T467 124Q618 124 702 180T787 326Q787 414 712 467T500 521H352V673H507Q623 673
690 717T758 832Q758 896 689 942T500 988Q429 988 349 975T171 933V1100Q269 1124 354 1136T515 1148Q711 1148 824 1070T938 850Q938 757 878 693T706 604Z" />
<glyph unicode="&#x25d;" glyph-name="uni025D" horiz-adv-x="1588" d="M706 604Q830 580 899 507T968 326Q968 153 839 62T472 -29Q392 -29 307 -15Q223 -1 133 27V198Q204 161 289 142Q374 124 467 124Q618 124 703 180Q787 236 787 326Q787 414 709 470Q637
521 500 521H352V673H507Q623 673 690 717Q758 762 758 832Q758 896 688 942Q619 988 500 988Q429 988 348 975Q268 962 171 933V1100Q269 1124 354 1136T515 1148Q711 1148 824 1070Q919 1004 934 898L1170 1032H1354V884Q1354 731 1392 682Q1430 634 1535 634H1578V478H1514Q1339
478 1252 574Q1170 664 1170 864L882 698Q818 628 706 604Z" />
<glyph unicode="&#x25e;" glyph-name="uni025E" horiz-adv-x="1360" d="M753 988Q502 988 406 878Q307 764 307 559Q307 351 406 240Q510 124 720 124Q871 124 956 180Q1040 236 1040 326Q1040 414 962 470Q890 521 753 521H605V673H760Q876 673 943 717Q1011
762 1011 832Q1011 896 941 942Q872 988 753 988ZM768 1148Q964 1148 1077 1070Q1191 991 1191 850Q1191 757 1131 693Q1071 628 959 604Q1083 580 1152 507T1221 326Q1221 153 1092 62T725 -29Q411 -29 262 130T113 559Q113 833 264 990Q415 1148 768 1148Z" />
<glyph unicode="&#x25f;" glyph-name="uni025F" horiz-adv-x="569" d="M193 1120H377V616H540V452H377V-20Q377 -234 296 -330T33 -426H-37V-270H12Q117 -270 155 -222T193 -20V452H12V616H193V1120Z" />
<glyph unicode="&#x260;" glyph-name="uni0260" horiz-adv-x="1425" d="M930 573Q930 773 848 883T616 993Q468 993 386 883T303 573Q303 374 385 264T616 154Q765 154 847 264T930 573ZM1114 139Q1114 -147 987 -286T598 -426Q501 -426 415 -412T248 -367V-188Q329
-232 408 -253T569 -274Q750 -274 840 -180T930 106V197Q873 98 784 49T571 0Q365 0 239 157T113 573Q113 833 239 990T571 1147Q695 1147 784 1098T930 950V1150Q930 1364 1011 1460T1274 1556H1464V1400H1295Q1190 1400 1152 1352T1114 1150V139Z" />
<glyph unicode="&#x261;" glyph-name="uni0261" horiz-adv-x="1300" d="M930 573V965H588Q453 965 378 863T303 573Q303 374 385 264T616 154Q765 154 847 264T930 573ZM1114 139Q1114 -147 987 -286T598 -426Q501 -426 415 -412T248 -367V-188Q329 -232 408 -253T569
-274Q750 -274 840 -180T930 106V197Q873 98 784 49T571 0Q365 0 239 157T113 573Q113 822 239 971T571 1120H1114V139Z" />
<glyph unicode="&#x262;" glyph-name="uni0262" horiz-adv-x="1289" d="M937 158V431H782V571H1103V43Q1002 7 895 -11T664 -29Q411 -29 262 130T113 559Q113 833 263 990T676 1147Q780 1147 878 1120T1070 1037V867Q975 929 879 960T684 991Q505 991 406 878T307
559Q307 354 406 241T684 127Q763 127 825 134T937 158Z" />
<glyph unicode="&#x263;" glyph-name="uni0263" horiz-adv-x="1220" d="M610 488L932 1120H1124L707 316Q813 139 851 56Q910 -72 910 -171Q910 -300 835 -365T610 -430Q460 -430 385 -365T310 -171Q310 -72 369 56Q407 139 513 316L96 1120H288L610 488ZM610
-274Q677 -274 708 -247Q736 -223 736 -178Q736 -109 708 -36Q668 64 610 163Q552 64 512 -36Q484 -109 484 -178Q484 -223 512 -247Q543 -274 610 -274Z" />
<glyph unicode="&#x264;" glyph-name="uni0264" horiz-adv-x="1220" d="M610 721L907 1120H1124L726 586Q797 488 841 412Q910 292 910 230Q910 100 835 36T610 -29Q460 -29 385 35T310 230Q310 292 379 412Q423 488 494 586L96 1120H313L610 721ZM610 127Q677
127 708 154Q736 178 736 223Q736 256 697 320Q666 370 610 440Q554 370 523 320Q484 256 484 223Q484 178 512 154Q543 127 610 127Z" />
<glyph unicode="&#x265;" glyph-name="uni0265" horiz-adv-x="1298" d="M174 442V1120H358V449Q358 290 420 211T606 131Q755 131 841 226T928 485V1120H1112V-426H928V172Q861 70 773 21T567 -29Q374 -29 274 91T174 442Z" />
<glyph unicode="&#x266;" glyph-name="uni0266" horiz-adv-x="1298" d="M1124 676V0H940V670Q940 829 878 908T692 987Q543 987 457 892T371 633V0H186V1150Q186 1364 267 1460T530 1556H784V1400H553Q448 1400 410 1352T371 1150V946Q437 1047 526 1097T733 1147Q926
1147 1025 1028T1124 676Z" />
<glyph unicode="&#x267;" glyph-name="uni0267" horiz-adv-x="1298" d="M1124 676V-20Q1124 -234 1043 -330T780 -426H526V-270H759Q864 -270 902 -222T940 -20V670Q940 987 692 987Q543 987 457 892T371 633V0H186V1150Q186 1364 267 1460T530 1556H784V1400H553Q448
1400 410 1352T371 1150V946Q502 1147 733 1147Q926 1147 1025 1028T1124 676Z" />
<glyph unicode="&#x268;" glyph-name="uni0268" horiz-adv-x="569" d="M194 1120H378V616H542V452H378V0H194V452H14V616H194V1120ZM194 1556H378V1323H194V1556Z" />
<glyph unicode="&#x269;" glyph-name="uni0269" horiz-adv-x="693" d="M355 1120V395Q355 250 389 204Q425 156 533 156H622V0H511Q331 0 249 96Q167 194 167 406L166 1120H355Z" />
<glyph unicode="&#x26a;" glyph-name="uni026A" horiz-adv-x="761" d="M116 956V1120H644V956H476V164H644V0H116V164H292V956H116Z" />
<glyph unicode="&#x26b;" glyph-name="uni026B" horiz-adv-x="810" d="M317 1556H501V769Q503 768 504 767Q521 758 534 758Q572 758 590 795Q608 831 610 913H735Q733 778 682 705Q631 631 540 631Q520 631 501 635V0H317V770Q311 774 306 777Q289 786 276 786Q238
786 220 749Q202 713 200 631H75Q77 766 128 839Q179 913 270 913Q295 913 317 907V1556Z" />
<glyph unicode="&#x26c;" glyph-name="uni026C" horiz-adv-x="998" d="M418 1556H602V786H852V626H602V0H418V596Q418 611 417 626H356Q76 626 77 815Q78 1061 323 1061Q376 1061 418 1036V1556ZM402 786Q379 918 324 918Q247 918 246 843Q246 786 338 786H402Z" />
<glyph unicode="&#x26d;" glyph-name="uni026D" horiz-adv-x="570" d="M377 1556V-30Q377 -154 407 -212T558 -270H607V-426H537Q346 -426 270 -324T193 -20V1556H377Z" />
<glyph unicode="&#x26e;" glyph-name="uni026E" horiz-adv-x="1446" d="M835 476Q940 476 1069 420Q1168 377 1253 269Q1334 165 1334 27Q1334 -194 1182 -315T750 -436Q656 -436 557 -418Q457 -399 351 -362V-167Q435 -216 535 -241T744 -266Q934 -266 1033 -191Q1133
-116 1133 27Q1133 159 1041 234Q950 308 783 308H609V474L1039 973H377V0H193V1556H377V1120H1246V952L835 476Z" />
<glyph unicode="&#x26f;" glyph-name="uni026F" horiz-adv-x="1995" d="M942 216Q875 95 777 34Q681 -26 551 -26Q376 -26 281 97T186 446V1122H371V452Q371 290 428 212T602 134Q745 134 828 230Q911 324 911 488V1122H1096V452Q1096 290 1153 212T1329 134Q1470
134 1553 230T1636 488V1122H1821V0H1636V176Q1575 75 1485 24Q1397 -26 1276 -26Q1154 -26 1068 36Q983 98 942 216Z" />
<glyph unicode="&#x270;" glyph-name="uni0270" horiz-adv-x="1995" d="M942 216Q875 95 777 34Q681 -26 551 -26Q376 -26 281 97T186 446V1122H371V452Q371 290 428 212T602 134Q745 134 828 230Q911 324 911 488V1122H1096V452Q1096 290 1153 212T1329 134Q1470
134 1553 230T1636 488V1122H1821V-426H1636V176Q1575 75 1485 24Q1397 -26 1276 -26Q1154 -26 1068 36Q983 98 942 216Z" />
<glyph unicode="&#x271;" glyph-name="uni0271" horiz-adv-x="1995" d="M1065 905Q1134 1029 1230 1088T1456 1147Q1631 1147 1726 1024Q1821 902 1821 676V-20Q1821 -234 1739 -330Q1658 -426 1477 -426H1223V-270H1456Q1561 -270 1599 -222Q1637 -173 1637 -20L1636
670Q1636 831 1579 909T1405 987Q1262 987 1179 892T1096 633V0H911V670Q911 832 854 910Q797 987 678 987Q537 987 454 892Q371 796 371 633V0H186V1120H371V946Q434 1049 522 1098T731 1147Q853 1147 938 1085Q1024 1023 1065 905Z" />
<glyph unicode="&#x272;" glyph-name="uni0272" horiz-adv-x="1323" d="M1131 676V0H947V670Q947 829 885 908T699 987Q550 987 464 892T377 633V-20Q377 -234 296 -330T33 -426H-37V-270H12Q117 -270 155 -222T193 -20V1120H378V946Q444 1047 533 1097T740 1147Q933
1147 1032 1028T1131 676Z" />
<glyph unicode="&#x273;" glyph-name="uni0273" horiz-adv-x="1315" d="M1022 -330Q940 -234 940 -20V670Q940 829 878 908T692 987Q543 987 457 892T371 633V0H186V1120H371V946Q437 1047 526 1097T733 1147Q926 1147 1025 1028T1124 676V-20Q1124 -173 1162
-222Q1200 -270 1305 -270H1354V-426H1284Q1103 -426 1022 -330Z" />
<glyph unicode="&#x274;" glyph-name="uni0274" horiz-adv-x="1298" d="M179 1120H451L928 217V1120H1124V0H852L375 876V0H179V1120Z" />
<glyph unicode="&#x275;" glyph-name="uni0275" horiz-adv-x="1253" d="M625 991Q478 991 404 895T311 671H939Q921 798 847 894T625 991ZM626 127Q775 127 859 243T943 507H309Q309 359 393 243T626 127ZM627 1147Q867 1147 1004 991T1141 559Q1141 284 1004
128T627 -29Q386 -29 250 127T113 559Q113 835 249 991T627 1147Z" />
<glyph unicode="&#x276;" glyph-name="uni0276" horiz-adv-x="1757" d="M1558 1120V966H1002V675H1535V520H1002V156H1572V0H773Q448 0 281 142Q113 285 113 561Q113 835 281 977Q448 1120 773 1120H1558ZM815 990H778Q538 990 418 882Q298 775 298 559Q298 342
418 234Q538 125 778 125H815V990Z" />
<glyph unicode="&#x277;" glyph-name="uni0277" horiz-adv-x="1491" d="M840 660V464Q840 301 888 211T989 120T1081 168Q1154 259 1154 416Q1154 687 1050 839T745 992T443 840T342 416Q342 259 415 168Q453 120 506 120T608 210T656 464V660H840ZM148 460Q148
800 309 974T743 1148T1179 974T1342 416Q1342 308 1313 219T1238 76Q1141 -36 1034 -36T845 45T752 244Q734 123 656 44T470 -36T256 82T148 460Z" />
<glyph unicode="&#x278;" glyph-name="uni0278" horiz-adv-x="1351" d="M764 1556V1143Q963 1143 1096 990Q1233 834 1233 559Q1233 284 1096 128Q963 -25 764 -25V-426H581V-25Q382 -25 248 128Q112 284 112 559Q112 834 248 990Q382 1143 581 1143V1556H764ZM764
139Q877 139 954 242Q1038 357 1039 559Q1040 759 954 876Q877 979 764 979V139ZM581 139V979Q468 979 392 876Q305 759 306 559Q307 357 392 242Q468 139 581 139Z" />
<glyph unicode="&#x279;" glyph-name="uni0279" horiz-adv-x="848" d="M471 174Q357 -27 94 -27Q57 -27 1 -17L0 172Q60 137 148 137Q304 137 387 238T471 530V1120H656V0H471V174Z" />
<glyph unicode="&#x27a;" glyph-name="uni027A" horiz-adv-x="848" d="M471 174Q357 -27 94 -27Q57 -27 1 -17L0 172Q60 137 148 137Q307 137 389 240T471 530V1546H656V0H471V174Z" />
<glyph unicode="&#x27b;" glyph-name="uni027B" horiz-adv-x="847" d="M471 174Q357 -27 94 -27Q57 -27 1 -17L0 172Q60 137 148 137Q304 137 387 238T471 530V1120H656V-20Q656 -173 694 -221T837 -270H886V-426H816Q635 -426 554 -330T472 -20L471 174Z" />
<glyph unicode="&#x27c;" glyph-name="uni027C" horiz-adv-x="842" d="M842 948Q811 966 775 974T694 983Q538 983 455 882T371 590V-424H186V1120H371V946Q429 1048 522 1097T748 1147Q767 1147 790 1145T841 1137L842 948Z" />
<glyph unicode="&#x27d;" glyph-name="uni027D" horiz-adv-x="841" d="M842 948Q811 966 775 974T694 983Q537 983 454 882T370 590V-20Q370 -173 408 -221T551 -270H784V-426H530Q349 -426 268 -330T186 -20V1120H371V946Q429 1048 522 1097T748 1147Q767 1147
790 1145T841 1137L842 948Z" />
<glyph unicode="&#x27e;" glyph-name="uni027E" horiz-adv-x="1086" d="M480 741V164H644V0H132V164H296V741Q296 955 377 1051T640 1147H894V991H661Q556 991 518 943T480 741Z" />
<glyph unicode="&#x27f;" glyph-name="uni027F" horiz-adv-x="1086" d="M714 741V164H894V0H366V164H530V741Q530 894 492 942T349 991H116V1147H370Q551 1147 632 1051T714 741Z" />
<glyph unicode="&#x280;" glyph-name="uni0280" horiz-adv-x="1236" d="M788 525Q836 515 893 457T1001 306L1175 0H980L818 287Q744 415 683 444T540 473H371V0H186V1120H574Q792 1120 899 1041T1006 797Q1006 692 950 622T788 525ZM371 965V628H569Q688 628
751 671T815 792Q815 869 757 917T569 965H371Z" />
<glyph unicode="&#x281;" glyph-name="uni0281" horiz-adv-x="1236" d="M186 1120H371V647H540Q621 647 682 676T818 833L980 1120H1175L1001 814Q951 721 894 663T788 595Q894 568 950 498T1006 323Q1006 158 899 79T574 0H186V1120ZM371 492V155H569Q698 155
756 203T815 328Q815 406 752 449T569 492H371Z" />
<glyph unicode="&#x282;" glyph-name="uni0282" horiz-adv-x="1067" d="M907 1087V913Q829 953 745 973T571 993Q434 993 366 951T297 825Q297 761 346 725T543 655L606 641Q802 599 884 523T967 309Q967 153 844 62T504 -29Q404 -29 316 -12L295 -8V-20Q295 -173
333 -221T476 -270H709V-426H455Q274 -426 193 -330T111 -20V231Q315 125 508 125Q638 125 708 169T778 295Q778 370 728 410T506 487L442 502Q271 538 195 612T119 817Q119 975 231 1061T549 1147Q651 1147 741 1132T907 1087Z" />
<glyph unicode="&#x283;" glyph-name="uni0283" horiz-adv-x="688" d="M190 -20V1198Q190 1385 277 1470T553 1556H727V1403H551Q452 1403 414 1363T375 1219V-20Q375 -234 294 -330T31 -426H-39V-270H10Q115 -270 152 -222T190 -20Z" />
<glyph unicode="&#x284;" glyph-name="uni0284" horiz-adv-x="688" d="M190 1120V1198Q190 1385 277 1470T553 1556H727V1403H551Q452 1403 414 1363T375 1219V619L376 616H538V452H375V-20Q375 -234 294 -330T31 -426H-39V-270H10Q115 -270 152 -222T190 -20V452H10V616H190V977H15V1120H190Z"
/>
<glyph unicode="&#x285;" glyph-name="uni0285" horiz-adv-x="945" d="M407 -20V788Q407 892 369 932T231 972H55V1125H229Q418 1125 505 1040T592 767V-20Q592 -173 629 -221T772 -270H821V-426H751Q570 -426 489 -330T407 -20Z" />
<glyph unicode="&#x286;" glyph-name="uni0286" horiz-adv-x="688" d="M375 0H558V-155H367Q349 -266 296 -330Q214 -426 33 -426Q-270 -426 -270 -210Q-270 0 0 0H190V1198Q190 1385 277 1470T553 1556H727V1403H551Q452 1403 414 1363T375 1219V0ZM180 -154H1Q-118
-154 -115 -205Q-112 -270 12 -270Q122 -270 155 -222Q172 -198 180 -154Z" />
<glyph unicode="&#x287;" glyph-name="uni0287" horiz-adv-x="803" d="M434 -320V-2H55V141H434V749Q434 886 397 925T244 964H55V1118H244Q457 1118 538 1039T619 749V141H754V-2H619V-320H434Z" />
<glyph unicode="&#x288;" glyph-name="uni0288" horiz-adv-x="803" d="M375 1438V1120H754V977H375V-20Q375 -173 413 -221T556 -270H758V-426H534Q353 -426 272 -330T190 -20V977H55V1120H190V1438H375Z" />
<glyph unicode="&#x289;" glyph-name="uni0289" horiz-adv-x="1298" d="M174 616V1120H358V616H928V1120H1112V616H1298V452H1112V0H928V172Q861 70 773 21T567 -29Q374 -29 274 91T174 442V452H0V616H174ZM927 451H358V449Q358 290 420 211T606 131Q749 131 838
224T927 451Z" />
<glyph unicode="&#x28a;" glyph-name="uni028A" horiz-adv-x="1265" d="M1156 956H920Q1017 884 1080 767T1144 497Q1144 262 1002 116T635 -30Q410 -30 268 116T126 497Q126 649 189 766T350 956H113V1120H555V900Q453 834 385 727T317 480Q317 321 405 224T637
127Q781 127 869 224T957 480Q957 619 889 726T719 900L720 1120H1156V956Z" />
<glyph unicode="&#x28b;" glyph-name="uni028B" horiz-adv-x="1225" d="M1116 527Q1116 289 974 146Q829 0 607 0H537Q356 0 274 96Q193 192 193 406V1120H377V406Q377 253 415 204Q455 154 558 156H609Q753 156 841 254T929 510Q929 742 855 843Q782 942 672
972V1122Q776 1114 864 1066Q1031 975 1082 804Q1116 689 1116 527Z" />
<glyph unicode="&#x28c;" glyph-name="uni028C" horiz-adv-x="1212" d="M61 0L481 1120H731L1151 0H956L606 940L256 0H61Z" />
<glyph unicode="&#x28d;" glyph-name="uni028D" horiz-adv-x="1675" d="M1589 0H1405L1175 874L946 0H729L499 874L270 0H86L379 1120H596L837 202L1079 1120H1296L1589 0Z" />
<glyph unicode="&#x28e;" glyph-name="uni028E" horiz-adv-x="1212" d="M61 0L553 1234Q633 1433 705 1495Q779 1556 903 1556H1050V1402H942Q866 1402 824 1366Q778 1331 731 1196L698 1102L1151 0H956L605 876L256 0H61Z" />
<glyph unicode="&#x28f;" glyph-name="uni028F" horiz-adv-x="1251" d="M102 1120H319L612 664L914 1120H1131L712 496V0H509V496L102 1120Z" />
<glyph unicode="&#x290;" glyph-name="uni0290" horiz-adv-x="1075" d="M113 1120H987V952L295 147H987V-20Q987 -173 1025 -221T1168 -270H1215V-426H1145Q964 -426 883 -330T801 -20V0H88V168L780 973H113V1120Z" />
<glyph unicode="&#x291;" glyph-name="uni0291" horiz-adv-x="1075" d="M113 1120H987V952L295 147H470Q504 309 588 380Q653 435 749 435Q881 435 939 348Q977 291 977 204Q978 108 916 61Q834 0 708 0H603Q600 -51 600 -111H447Q447 -52 450 0H88V168L780 973H113V1120ZM624
147H680Q818 147 818 201Q818 294 748 292Q660 290 624 147Z" />
<glyph unicode="&#x292;" glyph-name="uni0292" horiz-adv-x="1183" d="M572 476Q678 476 806 420Q904 378 990 269Q1071 165 1071 27Q1071 -194 919 -315T487 -436Q393 -436 294 -418Q194 -399 88 -362V-167Q172 -216 272 -241T481 -266Q671 -266 770 -191Q870
-116 870 27Q870 159 778 234Q685 308 520 308H346V474L776 973H109V1120H983V952L572 476Z" />
<glyph unicode="&#x293;" glyph-name="uni0293" horiz-adv-x="1183" d="M487 -436Q152 -436 154 -247Q156 4 454 -1Q700 -5 858 -64Q870 -22 870 27Q870 160 778 234Q684 308 520 308H346V474L776 973H109V1120H983V952L572 476Q677 476 806 420Q906 377 990 269Q1071
166 1071 27Q1071 -86 1032 -171Q1132 -272 1132 -436H979Q979 -354 939 -298Q939 -298 919 -315Q768 -436 487 -436ZM777 -186Q652 -144 455 -144Q324 -144 323 -219Q323 -266 481 -266Q671 -266 770 -191L777 -186Z" />
<glyph unicode="&#x294;" glyph-name="uni0294" horiz-adv-x="1045" d="M340 798H403Q595 798 681 912Q739 988 739 1086Q738 1219 681 1284Q582 1398 403 1398Q323 1398 244 1376Q166 1355 88 1312V1484Q164 1519 245 1536Q326 1554 411 1554Q686 1554 824 1397Q933
1272 933 1086Q933 916 825 801Q713 682 543 652V0H341L340 798Z" />
<glyph unicode="&#x295;" glyph-name="uni0295" horiz-adv-x="1045" d="M680 798V0H478V652Q308 682 196 801Q88 916 88 1086Q88 1272 198 1397Q335 1554 610 1554Q695 1554 776 1536Q857 1519 933 1484V1312Q855 1355 776 1376Q698 1398 618 1398Q439 1398 340
1284Q283 1219 282 1086Q282 988 340 912Q426 798 618 798H680Z" />
<glyph unicode="&#x296;" glyph-name="uni0296" horiz-adv-x="1045" d="M340 756L341 1554H543V902Q713 872 825 753Q933 638 933 468Q933 282 824 157Q686 0 411 0Q326 0 245 18Q164 35 88 70V242Q166 199 244 178Q323 156 403 156Q582 156 681 270Q738 335 739
468Q739 566 681 642Q595 756 403 756H340Z" />
<glyph unicode="&#x297;" glyph-name="uni0297" horiz-adv-x="1045" d="M88 1088Q88 1274 198 1399Q335 1556 610 1556Q695 1556 776 1538Q857 1521 933 1486V1314Q860 1354 776 1378Q698 1400 618 1400Q442 1400 340 1286Q282 1221 282 1088V32Q282 -101 340
-166Q442 -280 618 -280Q698 -280 776 -258Q855 -237 933 -194V-366Q857 -401 776 -418Q695 -436 610 -436Q335 -436 198 -279Q88 -154 88 32V1088Z" />
<glyph unicode="&#x298;" glyph-name="uni0298" horiz-adv-x="1612" d="M693 745Q693 791 727 825Q759 859 807 859Q853 859 887 825Q919 791 919 745Q919 698 886 665T806 632T727 665Q693 698 693 745ZM1027 1356T807 1356T458 1192T328 745Q328 463 457 299T807
135T1155 299T1284 745Q1284 1028 1156 1192ZM807 1520Q1121 1520 1309 1310T1497 745Q1497 392 1309 182T807 -29Q492 -29 304 181T115 745T303 1309T807 1520Z" />
<glyph unicode="&#x299;" glyph-name="uni0299" horiz-adv-x="1187" d="M370 516V147H632Q758 147 824 194T890 332Q890 422 824 469T632 516H370ZM370 973V663H612Q716 663 782 704T848 820Q848 894 782 933T612 973H370ZM186 1120H624Q821 1120 927 1048T1033
843Q1033 740 979 680T819 604Q946 580 1016 504T1086 314Q1086 164 971 82T641 0H186V1120Z" />
<glyph unicode="&#x29a;" glyph-name="uni029A" horiz-adv-x="1360" d="M581 988Q462 988 393 942Q323 896 323 832Q323 762 391 717Q458 673 574 673H729V521H581Q444 521 372 470Q294 414 294 326Q294 236 378 180Q463 124 614 124Q824 124 928 240Q1027 351
1027 559Q1027 764 928 878Q832 988 581 988ZM566 1148Q919 1148 1070 990Q1221 833 1221 559Q1221 289 1072 130T609 -29Q371 -29 242 62T113 326Q113 434 182 507T375 604Q263 628 203 693Q143 757 143 850Q143 991 257 1070Q370 1148 566 1148Z" />
<glyph unicode="&#x29b;" glyph-name="uni029B" horiz-adv-x="1450" d="M937 158V431H782V571H1103V43Q1002 7 895 -11T664 -29Q411 -29 262 130T113 559Q113 833 263 990T676 1147Q731 1147 783 1140T885 1117V1150Q885 1364 966 1460T1229 1556H1483V1400H1252Q1147
1400 1109 1352T1070 1150V867Q975 929 879 960T684 991Q505 991 406 878T307 559Q307 354 406 241T684 127Q763 127 825 134T937 158Z" />
<glyph unicode="&#x29c;" glyph-name="uni029C" horiz-adv-x="1339" d="M186 1120H371V663H968V1120H1153V0H968V516H371V0H186V1120Z" />
<glyph unicode="&#x29d;" glyph-name="uni029D" horiz-adv-x="598" d="M193 1556H377V1323H193V1556ZM193 1120H377V0H558V-139H369Q351 -259 296 -330Q221 -426 33 -426Q-270 -426 -270 -205Q-270 0 0 0H193V1120ZM185 -139H1Q-116 -139 -115 -205Q-115 -270
12 -270Q107 -270 150 -222Q179 -190 185 -139Z" />
<glyph unicode="&#x29e;" glyph-name="uni029E" horiz-adv-x="1366" d="M1180 -436H995V483L446 0H211L805 524L186 1120H426L995 573V1120H1180V-436Z" />
<glyph unicode="&#x29f;" glyph-name="uni029F" d="M186 1120H370V147H1009V0H186V1120Z" />
<glyph unicode="&#x2a0;" glyph-name="uni02A0" horiz-adv-x="1489" d="M303 559Q303 356 386 241T616 125Q762 125 846 240T930 559Q930 762 846 877T616 993Q470 993 387 878T303 559ZM930 168Q872 68 784 20T571 -29Q368 -29 241 133T113 559Q113 823 240 985T571
1147Q695 1147 783 1099T930 950V1148Q930 1362 1011 1458T1274 1554H1528V1398H1297Q1192 1398 1154 1350T1115 1148V-426H930V168Z" />
<glyph unicode="&#x2a1;" glyph-name="uni02A1" horiz-adv-x="1045" d="M340 798H403Q595 798 681 912Q739 988 739 1086Q738 1219 681 1284Q582 1398 403 1398Q323 1398 244 1376Q166 1355 88 1312V1484Q164 1519 245 1536Q326 1554 411 1554Q686 1554 824 1397Q933
1272 933 1086Q933 916 825 801Q713 682 543 652V440H774V276H543V0H341V276H112V440H340V798Z" />
<glyph unicode="&#x2a2;" glyph-name="uni02A2" horiz-adv-x="1045" d="M247 276V440H478V652Q308 682 196 801Q88 916 88 1086Q88 1272 198 1397Q335 1554 610 1554Q695 1554 776 1536Q857 1519 933 1484V1312Q855 1355 776 1376Q698 1398 618 1398Q439 1398
340 1284Q283 1219 282 1086Q282 988 340 912Q426 798 618 798H680V440H909V276H680V0H478V276H247Z" />
<glyph unicode="&#x2a3;" glyph-name="uni02A3" horiz-adv-x="2077" d="M303 762T303 559T386 240Q470 125 616 125T846 240Q930 356 930 559T846 878Q762 993 616 993T386 878Q303 762 303 559ZM930 950V1556H1114V1120H1987V952L1295 147H1987V0H1114H1088H930V168Q872
68 784 20Q695 -29 571 -29Q368 -29 240 133Q113 295 113 559T240 985Q368 1147 571 1147Q695 1147 784 1098Q872 1050 930 950ZM1114 973V198L1780 973H1114Z" />
<glyph unicode="&#x2a4;" glyph-name="uni02A4" horiz-adv-x="2166" d="M1114 973V0H930V168Q872 68 784 20Q695 -29 571 -29Q368 -29 240 133Q113 295 113 559T240 985Q368 1147 571 1147Q695 1147 784 1098Q872 1050 930 950V1556H1114V1120H1988V952L1577 476Q1683
476 1811 420Q1909 378 1995 269Q2076 165 2076 27Q2076 -194 1924 -315T1492 -436Q1398 -436 1299 -418Q1199 -399 1093 -362V-167Q1177 -216 1277 -241T1486 -266Q1676 -266 1775 -191Q1875 -116 1875 27Q1875 159 1783 234Q1690 308 1525 308H1351V474L1781
973H1114ZM303 762T303 559T386 240Q470 125 616 125T846 240Q930 356 930 559T846 878Q762 993 616 993T386 878Q303 762 303 559Z" />
<glyph unicode="&#x2a5;" glyph-name="uni02A5" horiz-adv-x="2074" d="M303 762T303 559T386 240Q470 125 616 125T846 240Q930 356 930 559T846 878Q762 993 616 993T386 878Q303 762 303 559ZM1114 973V199L1779 973H1114ZM1114 1120H1986V952L1294 147H1469Q1529
435 1748 435Q1975 435 1976 189Q1977 0 1643 0H1602Q1599 -51 1599 -111H1446Q1446 -52 1449 0H1087H930V168Q872 68 784 20Q695 -29 571 -29Q368 -29 240 133Q113 295 113 559T240 985Q368 1147 571 1147Q695 1147 784 1098Q872 1050 930 950V1556H1114V1120ZM1623
147H1643Q1817 147 1817 201Q1817 292 1747 292Q1659 290 1623 147Z" />
<glyph unicode="&#x2a6;" glyph-name="uni02A6" horiz-adv-x="1688" d="M1540 1087V913Q1462 953 1378 973T1204 993Q1067 993 998 951Q930 909 930 825Q930 761 979 724Q1028 688 1176 655L1239 641Q1437 597 1518 522Q1600 446 1600 309Q1600 153 1476 62Q1353
-29 1137 -29Q1047 -29 950 -12Q857 5 754 38V0H565Q352 0 271 80Q190 159 190 369V977H55V1120H190V1438H375V1120H754V977H375V369Q375 232 412 193Q450 154 565 154H744V231Q846 178 945 152Q1044 125 1141 125Q1271 125 1341 170Q1411 214 1411 295Q1411 370
1360 410Q1316 446 1139 487L1075 502Q904 538 828 612Q752 687 752 817Q752 975 864 1061T1182 1147Q1284 1147 1374 1132T1540 1087Z" />
<glyph unicode="&#x2a7;" glyph-name="uni02A7" horiz-adv-x="1249" d="M375 1438V1120H751Q751 1120 751 1198Q751 1379 838 1470Q919 1556 1114 1556H1288V1403H1112Q1013 1403 975 1363Q936 1323 936 1219L938 -20Q938 -234 857 -330Q775 -426 594 -426H524V-270H573Q678
-270 716 -222Q754 -173 754 -20V0H565Q352 0 271 80Q190 159 190 369V977H55V1120H190V1438H375ZM753 154Q751 572 751 977H375V369Q375 232 412 193Q450 154 565 154H753Z" />
<glyph unicode="&#x2a8;" glyph-name="uni02A8" horiz-adv-x="1594" d="M375 1438V1120H754V998Q903 1147 1158 1147Q1243 1147 1324 1130Q1405 1112 1481 1077V905Q1403 948 1324 970Q1246 991 1166 991Q987 991 888 878Q789 764 789 559T888 240L896 231Q975
402 1181 402Q1480 402 1481 156Q1481 38 1380 -3Q1305 -33 1148 -33Q1064 -33 991 -15Q989 -65 989 -141L836 -144Q836 -65 842 0H565Q352 0 271 80Q190 159 190 369V977H55V1120H190V1438H375ZM1017 151Q1083 127 1166 127Q1261 127 1282 134Q1313 145 1312 184Q1311
259 1180 259Q1066 259 1026 173Q1021 163 1017 151ZM723 154Q595 311 595 559Q595 822 734 977H375V369Q375 232 412 193Q450 154 565 154H723Z" />
<glyph unicode="&#x2a9;" glyph-name="uni02A9" horiz-adv-x="1737" d="M1647 676V-20Q1647 -234 1565 -330Q1484 -426 1303 -426H1049V-270H1282Q1387 -270 1425 -222Q1463 -173 1463 -20V670Q1463 829 1401 908T1215 987Q1066 987 980 892T894 633V0H709V977H408V0H223V977H47V1120H223V1198Q223
1385 310 1470Q397 1556 586 1556H760V1403H584Q485 1403 446 1363Q408 1323 408 1219V1120H709H711H894V946Q960 1047 1049 1097Q1139 1147 1256 1147Q1449 1147 1548 1028Q1647 908 1647 676Z" />
<glyph unicode="&#x2aa;" glyph-name="uni02AA" horiz-adv-x="1312" d="M1165 1087V913Q1087 953 1003 973T829 993Q692 993 624 951Q555 909 555 825Q555 761 604 724Q653 688 801 655L864 641Q1062 597 1142 522Q1225 446 1225 309Q1225 153 1102 62Q978 -29
762 -29Q672 -29 574 -12Q481 5 377 38V0H193V1556H377V818Q377 975 489 1061T807 1147Q909 1147 999 1132T1165 1087ZM377 817V227Q475 177 570 152Q669 125 766 125Q896 125 966 170Q1036 214 1036 295Q1036 370 986 410Q941 446 764 487L700 502Q529 538 453
612Q377 687 377 817Z" />
<glyph unicode="&#x2ab;" glyph-name="uni02AB" horiz-adv-x="1340" d="M193 1556H377V1120H1250V952L558 147H1250V0H377H351H193V1556ZM377 973V198L1043 973H377Z" />
<glyph unicode="&#x2ac;" glyph-name="uni02AC" horiz-adv-x="1055" d="M54 597H170L315 108L459 597H596L741 108L885 597H1001L816 -30H680L528 484L375 -30H239L54 597ZM54 1311H170L315 822L459 1311H596L741 822L885 1311H1001L816 684H680L528 1198L375
684H239L54 1311Z" />
<glyph unicode="&#x2ad;" glyph-name="uni02AD" horiz-adv-x="1055" d="M54 597H1001V173H858V434H197V173H54V597ZM54 1311H1001V887H858V1148H197V887H54V1311Z" />
<glyph unicode="&#x2ae;" glyph-name="uni02AE" horiz-adv-x="1354" d="M983 172Q852 -29 621 -29Q428 -29 329 90T230 442V1150Q230 1303 192 1351T49 1400H0V1556H70Q251 1556 332 1460T414 1150V448Q414 131 662 131Q811 131 897 226T983 485V1118H1168V-438H983V172Z" />
<glyph unicode="&#x2af;" glyph-name="uni02AF" horiz-adv-x="1359" d="M983 172Q852 -29 621 -29Q428 -29 329 90T230 442V1150Q230 1303 192 1351T49 1400H0V1556H70Q251 1556 332 1460T414 1150V448Q414 131 662 131Q811 131 897 226T983 485V1118H1168V-20Q1164
-168 1204 -219T1348 -270H1398V-426H1328Q1146 -426 1067 -334T983 -20V172Z" />
<glyph unicode="&#x2b0;" glyph-name="uni02B0" horiz-adv-x="828" d="M708 1047V668H592V1043Q592 1132 553 1176T436 1221Q342 1221 288 1168T234 1022V668H117V1539H234V1198Q275 1254 331 1282T462 1310Q583 1310 645 1243T708 1047Z" />
<glyph unicode="&#x2b1;" glyph-name="uni02B1" horiz-adv-x="817" d="M708 1047V668H592V1043Q592 1132 553 1176T436 1221Q342 1221 288 1168T234 1022V668H117V1312Q117 1432 168 1485T334 1539H494V1452H348Q282 1452 258 1425T234 1312V1198Q275 1254 331
1282T462 1310Q583 1310 645 1243T708 1047Z" />
<glyph unicode="&#x2b2;" glyph-name="uni02B2" horiz-adv-x="358" d="M122 1295H238V657Q238 537 186 483Q135 429 21 429H-23V517H8Q74 517 98 544Q122 571 122 657V1295ZM122 1539H238V1409H122V1539Z" />
<glyph unicode="&#x2b3;" glyph-name="uni02B3" horiz-adv-x="530" d="M530 1199Q511 1209 488 1213T437 1218Q339 1218 287 1162T234 998V668H117V1295H234V1198Q270 1255 328 1282T471 1310Q483 1310 497 1309T530 1305V1199Z" />
<glyph unicode="&#x2b4;" glyph-name="uni02B4" horiz-adv-x="605" d="M72 764Q91 754 114 750T165 745Q263 745 315 801T368 965V1295H484V668H368V765Q332 708 274 681T131 653Q119 653 105 654T72 658V764Z" />
<glyph unicode="&#x2b5;" glyph-name="uni02B5" horiz-adv-x="606" d="M72 764Q91 754 114 750T165 745Q263 745 315 801T368 965V1295H484V668V657Q484 571 508 544T598 517H629V429H585Q471 429 420 483T368 657V668V765Q332 708 274 681T131 653Q119 653 105
654T72 658V764Z" />
<glyph unicode="&#x2b6;" glyph-name="uni02B6" horiz-adv-x="776" d="M411 1001Q478 986 513 947T548 849Q548 758 481 713Q413 668 276 668H32V1295H148V1030H255Q316 1030 353 1051Q390 1071 430 1134L532 1295H655L545 1124Q512 1071 479 1041Q445 1011 411
1001ZM148 755H273Q348 755 387 778Q428 802 428 849Q428 895 387 919Q348 944 273 944H148V755Z" />
<glyph unicode="&#x2b7;" glyph-name="uni02B7" horiz-adv-x="1055" d="M54 1295H170L315 806L459 1295H596L741 806L885 1295H1001L816 668H680L528 1182L375 668H239L54 1295Z" />
<glyph unicode="&#x2b8;" glyph-name="uni02B8" horiz-adv-x="763" d="M415 610Q366 498 319 464Q273 429 195 429H102V516H170Q218 516 244 536Q271 556 303 631L324 678L38 1295H161L382 805L602 1295H725L415 610Z" />
<glyph unicode="&#x2b9;" glyph-name="uni02B9" horiz-adv-x="570" d="M160 1140L225 1638H415L305 1140H160Z" />
<glyph unicode="&#x2ba;" glyph-name="uni02BA" horiz-adv-x="942" d="M160 1140L225 1638H415L305 1140H160ZM532 1140L597 1638H787L677 1140H532Z" />
<glyph unicode="&#x2bb;" glyph-name="uni02BB" horiz-adv-x="651" d="M385 1001H174V1174L338 1493H467L385 1174V1001Z" />
<glyph unicode="&#x2bc;" glyph-name="uni02BC" horiz-adv-x="651" d="M260 1493H471V1341L307 1022H178L260 1341V1493Z" />
<glyph unicode="&#x2bd;" glyph-name="uni02BD" horiz-adv-x="651" d="M407 1754V1582L489 1262H360L196 1582V1754H407Z" />
<glyph unicode="&#x2be;" glyph-name="uni02BE" horiz-adv-x="629" d="M117 1007V1130Q181 1130 225 1174T269 1282Q269 1345 225 1389T117 1433V1556Q232 1556 312 1476Q391 1397 391 1282T312 1087Q232 1007 117 1007Z" />
<glyph unicode="&#x2bf;" glyph-name="uni02BF" horiz-adv-x="629" d="M391 1007Q276 1007 196 1087Q117 1167 117 1282T196 1476Q276 1556 391 1556V1433Q327 1433 283 1389T239 1282Q239 1218 283 1174T391 1130V1007Z" />
<glyph unicode="&#x2c0;" glyph-name="uni02C0" horiz-adv-x="757" d="M276 1115H315Q436 1115 491 1179Q527 1221 527 1276Q526 1351 491 1387Q428 1451 315 1451Q265 1451 215 1439Q166 1427 117 1403V1499Q165 1519 216 1528Q267 1538 320 1538Q494 1538 581
1450Q649 1380 649 1276Q649 1181 581 1117Q511 1050 404 1033V668H276V1115Z" />
<glyph unicode="&#x2c1;" glyph-name="uni02C1" horiz-adv-x="757" d="M490 1115V668H363V1033Q256 1050 185 1117Q117 1181 117 1276Q117 1380 186 1450Q273 1538 446 1538Q499 1538 550 1528Q601 1519 649 1499V1403Q600 1427 550 1439Q501 1451 451 1451Q338
1451 276 1387Q240 1351 239 1276Q239 1221 276 1179Q330 1115 451 1115H490Z" />
<glyph unicode="&#x2c2;" glyph-name="uni02C2" horiz-adv-x="1024" d="M267 1467L757 1712V1573L398 1393L757 1213V1074L267 1319V1467Z" />
<glyph unicode="&#x2c3;" glyph-name="uni02C3" horiz-adv-x="1024" d="M757 1319L267 1074V1213L626 1393L267 1573V1712L757 1467V1319Z" />
<glyph unicode="&#x2c4;" glyph-name="uni02C4" horiz-adv-x="1024" d="M438 1638H586L831 1148H692L512 1507L332 1148H193L438 1638Z" />
<glyph unicode="&#x2c5;" glyph-name="uni02C5" horiz-adv-x="1024" d="M438 1148L193 1638H332L512 1279L692 1638H831L586 1148H438Z" />
<glyph unicode="&#x2c6;" glyph-name="circumflex" horiz-adv-x="1024" d="M438 1638H586L831 1262H692L512 1507L332 1262H193L438 1638Z" />
<glyph unicode="&#x2c7;" glyph-name="caron" horiz-adv-x="1024" d="M438 1262L193 1638H332L512 1393L692 1638H831L586 1262H438Z" />
<glyph unicode="&#x2c8;" glyph-name="uni02C8" horiz-adv-x="563" d="M350 1554V999H214V1554H350Z" />
<glyph unicode="&#x2c9;" glyph-name="uni02C9" horiz-adv-x="1024" d="M213 1526H811V1378H213V1526Z" />
<glyph unicode="&#x2ca;" glyph-name="uni02CA" horiz-adv-x="1024" d="M651 1638H850L524 1262H371L651 1638Z" />
<glyph unicode="&#x2cb;" glyph-name="uni02CB" horiz-adv-x="1024" d="M367 1638L649 1264H496L170 1638H367Z" />
<glyph unicode="&#x2cc;" glyph-name="uni02CC" horiz-adv-x="563" d="M350 252V-303H214V252H350Z" />
<glyph unicode="&#x2cd;" glyph-name="uni02CD" horiz-adv-x="1024" d="M213 -172H811V-320H213V-172Z" />
<glyph unicode="&#x2ce;" glyph-name="uni02CE" horiz-adv-x="1024" d="M367 -110L649 -484H496L170 -110H367Z" />
<glyph unicode="&#x2cf;" glyph-name="uni02CF" horiz-adv-x="1024" d="M651 -108H850L524 -484H371L651 -108Z" />
<glyph unicode="&#x2d0;" glyph-name="uni02D0" horiz-adv-x="690" d="M289 729L111 1059H468L289 729ZM289 330L468 0H111L289 330Z" />
<glyph unicode="&#x2d1;" glyph-name="uni02D1" horiz-adv-x="690" d="M289 729L111 1059H468L289 729Z" />
<glyph unicode="&#x2d2;" glyph-name="uni02D2" horiz-adv-x="629" d="M117 510V633Q181 633 225 677T269 785Q269 848 225 892T117 936V1059Q232 1059 312 979Q391 900 391 785T312 590Q232 510 117 510Z" />
<glyph unicode="&#x2d3;" glyph-name="uni02D3" horiz-adv-x="629" d="M391 510Q276 510 196 590Q117 670 117 785T196 979Q276 1059 391 1059V936Q327 936 283 892T239 785Q239 721 283 677T391 633V510Z" />
<glyph unicode="&#x2d4;" glyph-name="uni02D4" horiz-adv-x="1024" d="M737 618V468H287V618H437V918H587V618H737Z" />
<glyph unicode="&#x2d5;" glyph-name="uni02D5" horiz-adv-x="1024" d="M287 768V918H737V768H587V468H437V768H287Z" />
<glyph unicode="&#x2d6;" glyph-name="uni02D6" horiz-adv-x="798" d="M324 629V853H474V629H698V479H474V255H324V479H100V629H324Z" />
<glyph unicode="&#x2d7;" glyph-name="uni02D7" horiz-adv-x="650" d="M550 479H100V629H550V479Z" />
<glyph unicode="&#x2d8;" glyph-name="breve" horiz-adv-x="1024" d="M199 1608H317Q328 1533 376 1496T512 1458Q598 1458 646 1495T707 1608H825Q815 1465 736 1393T512 1321Q367 1321 288 1393T199 1608Z" />
<glyph unicode="&#x2d9;" glyph-name="dotaccent" horiz-adv-x="1024" d="M410 1552H614V1348H410V1552Z" />
<glyph unicode="&#x2da;" glyph-name="ring" horiz-adv-x="1024" d="M664 1524Q664 1587 620 1631T512 1675Q447 1675 404 1632T360 1524Q360 1459 403 1416T512 1372Q576 1372 620 1416T664 1524ZM786 1524Q786 1409 707 1329T512 1249Q397 1249 318 1329T238
1524Q238 1639 317 1718T512 1798Q627 1798 706 1719T786 1524Z" />
<glyph unicode="&#x2db;" glyph-name="ogonek" horiz-adv-x="1024" d="M440 0H559Q514 -61 493 -105T471 -180Q471 -226 498 -249T580 -272Q612 -272 643 -265T705 -242V-375Q667 -385 633 -390T569 -395Q447 -395 390 -352T332 -215Q332 -167 358 -115T440 0Z" />
<glyph unicode="&#x2dc;" glyph-name="tilde" horiz-adv-x="1024" d="M508 1370L451 1425Q429 1445 413 1454T383 1464Q345 1464 327 1428T307 1309H182Q184 1444 235 1517T377 1591Q415 1591 447 1577T516 1530L573 1475Q595 1455 611 1446T641 1436Q679 1436
697 1472T717 1591H842Q840 1456 789 1383T647 1309Q609 1309 577 1323T508 1370Z" />
<glyph unicode="&#x2dd;" glyph-name="hungarumlaut" horiz-adv-x="1024" d="M764 1638H942L694 1262H559L764 1638ZM430 1638H600L377 1262H240L430 1638Z" />
<glyph unicode="&#x2de;" glyph-name="uni02DE" horiz-adv-x="646" d="M-1 868L277 1032H461V884Q461 731 499 682Q537 634 642 634H685V478H621Q446 478 359 574Q277 664 277 864L0 702L-1 868Z" />
<glyph unicode="&#x2df;" glyph-name="uni02DF" horiz-adv-x="1024" d="M604 1262L512 1359L419 1262H239L420 1449L239 1638H419L512 1542L604 1638H784L602 1449L784 1262H604Z" />
<glyph unicode="&#x2e0;" glyph-name="uni02E0" horiz-adv-x="872" d="M517 988Q695 739 695 559Q695 427 453 427Q186 427 186 559Q186 750 367 992L117 1295H254L445 1071L628 1295H765L517 988ZM441 921Q304 747 304 595Q304 518 440 518Q569 518 569 595Q569
732 441 921Z" />
<glyph unicode="&#x2e1;" glyph-name="uni02E1" horiz-adv-x="340" d="M122 1539H238V668H122V1539Z" />
<glyph unicode="&#x2e2;" glyph-name="uni02E2" horiz-adv-x="764" d="M618 1293V1196Q569 1218 516 1229Q464 1240 407 1240Q320 1240 277 1217Q234 1193 234 1146Q234 1110 265 1090Q296 1069 389 1051L429 1043Q554 1019 604 977Q656 934 656 857Q656 770 578
719Q501 668 365 668Q308 668 246 678Q185 688 117 707V814Q181 784 244 769Q306 754 367 754Q449 754 493 779T537 849Q537 891 505 914Q477 934 366 957L326 965Q218 986 170 1027Q122 1069 122 1142Q122 1230 193 1278Q263 1327 393 1327Q457 1327 514 1318Q571
1310 618 1293Z" />
<glyph unicode="&#x2e3;" glyph-name="uni02E3" horiz-adv-x="909" d="M788 1295L533 990L801 668H664L459 914L254 668H117L391 996L140 1295H277L464 1072L651 1295H788Z" />
<glyph unicode="&#x2e4;" glyph-name="uni02E4" horiz-adv-x="757" d="M490 1115V668H363V1033Q256 1050 185 1117Q117 1181 117 1276Q117 1380 186 1450Q273 1538 446 1538Q499 1538 550 1528Q601 1519 649 1499V1403Q600 1427 550 1439Q501 1451 451 1451Q338
1451 276 1387Q240 1351 239 1276Q239 1221 276 1179Q330 1115 451 1115H490Z" />
<glyph unicode="&#x2e5;" glyph-name="uni02E5" horiz-adv-x="1010" d="M661 0V1232H214V1368H797V0H661Z" />
<glyph unicode="&#x2e6;" glyph-name="uni02E6" horiz-adv-x="1010" d="M661 0V924H214V1060H661V1368H797V0H661Z" />
<glyph unicode="&#x2e7;" glyph-name="uni02E7" horiz-adv-x="1010" d="M661 0V616H214V752H661V1368H797V0H661Z" />
<glyph unicode="&#x2e8;" glyph-name="uni02E8" horiz-adv-x="1010" d="M661 0V308H214V444H661V1368H797V0H661Z" />
<glyph unicode="&#x2e9;" glyph-name="uni02E9" horiz-adv-x="1010" d="M661 136V1368H797V0H214V136H661Z" />
<glyph unicode="&#x2ec;" glyph-name="uni02EC" horiz-adv-x="1024" d="M438 -532L193 -42H332L512 -401L692 -42H831L586 -532H438Z" />
<glyph unicode="&#x2ed;" glyph-name="uni02ED" horiz-adv-x="1024" d="M213 1654H811V1506H213V1654ZM213 1654H811V1506H213V1654Z" />
<glyph unicode="&#x2ee;" glyph-name="uni02EE" horiz-adv-x="1061" d="M256 1493H467V1321L303 1001H174L256 1321V1493ZM666 1493H877V1321L713 1001H584L666 1321V1493Z" />
<glyph unicode="&#x2f3;" glyph-name="uni02F3" horiz-adv-x="1024" d="M664 -217Q664 -154 620 -110T512 -66Q447 -66 404 -109T360 -217Q360 -282 403 -325T512 -369Q576 -369 620 -325T664 -217ZM786 -217Q786 -332 707 -412T512 -492Q397 -492 318 -412T238
-217Q238 -102 317 -23T512 57Q627 57 706 -22T786 -217Z" />
<glyph unicode="&#x2f7;" glyph-name="uni02F7" horiz-adv-x="1024" d="M508 -333L451 -278Q429 -258 412 -248Q396 -239 383 -239Q345 -239 327 -276Q309 -312 307 -394H182Q184 -259 235 -186Q286 -112 377 -112Q415 -112 447 -126T516 -173L573 -228Q595 -248
612 -258Q628 -267 641 -267Q679 -267 697 -230Q715 -194 717 -112H842Q840 -247 789 -320Q738 -394 647 -394Q609 -394 577 -380T508 -333Z" />
<glyph unicode="&#x300;" glyph-name="gravecomb" horiz-adv-x="0" d="M-659 1638L-377 1264H-530L-856 1638H-659Z" />
<glyph unicode="&#x301;" glyph-name="acutecomb" horiz-adv-x="0" d="M-375 1638H-176L-502 1262H-655L-375 1638Z" />
<glyph unicode="&#x302;" glyph-name="uni0302" horiz-adv-x="0" d="M-586 1638H-438L-193 1262H-332L-512 1507L-692 1262H-831L-586 1638Z" />
<glyph unicode="&#x303;" glyph-name="tildecomb" horiz-adv-x="0" d="M-518 1370L-575 1425Q-597 1445 -613 1454T-643 1464Q-681 1464 -699 1428T-719 1309H-844Q-842 1444 -791 1517T-649 1591Q-611 1591 -579 1577T-510 1530L-453 1475Q-431 1455 -415 1446T-385
1436Q-347 1436 -329 1472T-309 1591H-184Q-186 1456 -237 1383T-379 1309Q-417 1309 -449 1323T-518 1370Z" />
<glyph unicode="&#x304;" glyph-name="uni0304" horiz-adv-x="0" d="M-807 1526H-209V1378H-807V1526Z" />
<glyph unicode="&#x305;" glyph-name="uni0305" horiz-adv-x="0" d="M20 1547V1404H-1044V1547H20Z" />
<glyph unicode="&#x306;" glyph-name="uni0306" horiz-adv-x="0" d="M-833 1608H-715Q-704 1533 -656 1496T-520 1458Q-434 1458 -386 1495T-325 1608H-207Q-217 1465 -296 1393T-520 1321Q-665 1321 -744 1393T-833 1608Z" />
<glyph unicode="&#x307;" glyph-name="uni0307" horiz-adv-x="0" d="M-616 1552H-412V1323H-616V1552Z" />
<glyph unicode="&#x308;" glyph-name="uni0308" horiz-adv-x="0" d="M-418 1552H-215V1350H-418V1552ZM-809 1552H-606V1350H-809V1552Z" />
<glyph unicode="&#x309;" glyph-name="hookabovecomb" horiz-adv-x="0" d="M-713 1608Q-601 1659 -496 1659Q-392 1659 -329 1617T-265 1507Q-265 1446 -353 1381L-397 1349Q-432 1323 -436 1314Q-443 1298 -443 1266H-562V1278Q-562 1318 -547 1345T-481 1409L-436
1443Q-390 1477 -390 1517Q-390 1538 -421 1556T-523 1574Q-613 1574 -713 1522V1608Z" />
<glyph unicode="&#x30a;" glyph-name="uni030A" horiz-adv-x="0" d="M-362 1524Q-362 1587 -406 1631T-514 1675Q-579 1675 -622 1632T-666 1524Q-666 1459 -623 1416T-514 1372Q-450 1372 -406 1416T-362 1524ZM-240 1524Q-240 1409 -319 1329T-514 1249Q-629
1249 -708 1329T-788 1524Q-788 1639 -709 1718T-514 1798Q-399 1798 -320 1719T-240 1524Z" />
<glyph unicode="&#x30b;" glyph-name="uni030B" horiz-adv-x="0" d="M-256 1638H-78L-326 1262H-461L-256 1638ZM-590 1638H-420L-643 1262H-780L-590 1638Z" />
<glyph unicode="&#x30c;" glyph-name="uni030C" horiz-adv-x="0" d="M-582 1262L-827 1638H-688L-508 1393L-328 1638H-189L-434 1262H-582Z" />
<glyph unicode="&#x30d;" glyph-name="uni030D" horiz-adv-x="0" d="M-444 1704V1260H-580V1704H-444Z" />
<glyph unicode="&#x30e;" glyph-name="uni030E" horiz-adv-x="0" d="M-648 1704V1260H-784V1704H-648ZM-240 1704V1260H-376V1704H-240Z" />
<glyph unicode="&#x30f;" glyph-name="uni030F" horiz-adv-x="0" d="M-753 1638L-548 1262H-683L-931 1638H-753ZM-419 1638L-229 1262H-366L-589 1638H-419Z" />
<glyph unicode="&#x310;" glyph-name="uni0310" horiz-adv-x="0" d="M-610 1750H-406V1546H-610V1750ZM-833 1608H-715Q-704 1533 -656 1496T-520 1458Q-434 1458 -386 1495T-325 1608H-207Q-217 1465 -296 1393T-520 1321Q-665 1321 -744 1393T-833 1608Z" />
<glyph unicode="&#x311;" glyph-name="uni0311" horiz-adv-x="0" d="M-207 1321H-325Q-336 1396 -384 1433T-520 1471Q-606 1471 -654 1434T-715 1321H-833Q-823 1464 -744 1536T-520 1608T-296 1536T-207 1321Z" />
<glyph unicode="&#x312;" glyph-name="uni0312" horiz-adv-x="0" d="M-270 1001H-481L-317 1320H-188L-270 1001Z" />
<glyph unicode="&#x313;" glyph-name="uni0313" horiz-adv-x="0" d="M-382 1475Q-382 1218 -624 1218V1341Q-512 1338 -512 1475H-624V1729H-382V1475Z" />
<glyph unicode="&#x314;" glyph-name="uni0314" horiz-adv-x="0" d="M-624 1475V1729H-383V1475H-494Q-494 1338 -382 1341V1218Q-624 1218 -624 1475Z" />
</font>
</defs>
</svg>
