<?xml version="1.0" standalone="no"?> <!DOCTYPE svg PUBLIC "-//W3C//DTD SVG 1.0//EN" "http://www.w3.org/TR/2001/REC-SVG-20010904/DTD/svg10.dtd" > <svg xmlns="http://www.w3.org/2000/svg" width="100%" height="100%">
<defs >
<font id="DejaVuSansMono" horiz-adv-x="1233" ><font-face
    font-family="DejaVu Sans Mono"
    units-per-em="2048"
    panose-1="2 11 6 9 3 8 4 2 2 4"
    ascent="2133"
    descent="-767"
    alphabetic="0" />
<missing-glyph d="M104 -362V1444H1128V-362H104ZM219 -248H1014V1329H219V-248Z" />
<glyph unicode=" " glyph-name="space" />
<glyph unicode="!" glyph-name="exclam" d="M516 1493H719V838L698 481H537L516 838V1493ZM516 254H719V0H516V254Z" />
<glyph unicode="&quot;" glyph-name="quotedbl" d="M895 1493V938H721V1493H895ZM512 1493V938H338V1493H512Z" />
<glyph unicode="#" glyph-name="numbersign" d="M684 1470L580 1055H825L930 1470H1090L985 1055H1229V901H948L864 567H1114V414H825L721 0H561L666 414H420L315 0H156L260 414H2V567H299L383 901H117V1055H420L524 1470H684ZM788 901H543L459 567H705L788 901Z" />
<glyph unicode="$" glyph-name="dollar" d="M692 580V146Q802 149 864 207T926 365Q926 458 870 509T692 580ZM592 770V1183Q488 1179 430 1123T371 973Q371 887 425 837T592 770ZM692 -301H592L591 0Q489 5 389 28T190 92V272Q290 210 391 177T592 142V600Q392
631 291 722T190 963Q190 1120 295 1213T592 1321V1556H692L693 1321Q772 1316 853 1301T1018 1260V1087Q933 1130 853 1153T692 1181V750Q898 719 1006 622T1114 371Q1114 217 998 114T693 2L692 -301Z" />
<glyph unicode="%" glyph-name="percent" d="M696 319Q696 241 748 188T879 135Q956 135 1009 188T1063 319Q1063 396 1009 450T879 504Q801 504 749 451T696 319ZM561 319Q561 454 653 546T879 639Q943 639 1000 615T1104 545Q1150 498 1175 440T1200 319Q1200
186 1107 93T879 0Q743 0 652 91T561 319ZM121 465L86 561L1128 979L1169 883L121 465ZM168 1112Q168 1033 220 981T352 928Q429 928 483 981T537 1112Q537 1189 483 1242T352 1296Q275 1296 222 1243T168 1112ZM33 1112Q33 1247 125 1339T352 1432Q416 1432 474
1408T578 1339Q623 1294 647 1236T672 1112Q672 978 579 886T352 793Q217 793 125 885T33 1112Z" />
<glyph unicode="&amp;" glyph-name="ampersand" d="M547 907L963 348Q1002 397 1021 472T1040 651Q1040 683 1037 753L1036 760H1200V721Q1200 560 1163 439T1051 229L1221 0H1008L930 109Q847 39 754 5T555 -29Q339 -29 198 105T57 444Q57 581 126 698T334 915Q284
987 260 1056T236 1196Q236 1346 335 1433T608 1520Q673 1520 738 1508T874 1473V1290Q815 1329 753 1347T621 1366Q524 1366 468 1321T412 1198Q412 1139 441 1075T547 907ZM416 803Q324 730 279 649T233 475Q233 324 333 225T588 125Q630 125 676 137T766 172Q793
187 810 198T844 223L416 803Z" />
<glyph unicode="&apos;" glyph-name="quotesingle" d="M702 1493V938H528V1493H702Z" />
<glyph unicode="(" glyph-name="parenleft" d="M885 1554Q752 1326 687 1100T621 643Q621 414 686 187T885 -270H725Q574 -32 500 193T426 643Q426 866 500 1092T725 1554H885Z" />
<glyph unicode=")" glyph-name="parenright" d="M348 1554H508Q659 1318 733 1092T807 643Q807 418 733 192T508 -270H348Q481 -38 546 189T612 643Q612 871 547 1098T348 1554Z" />
<glyph unicode="*" glyph-name="asterisk" d="M1067 1247L709 1053L1067 858L1010 760L674 963V586H559V963L223 760L166 858L524 1053L166 1247L223 1346L559 1143V1520H674V1143L1010 1346L1067 1247Z" />
<glyph unicode="+" glyph-name="plus" d="M700 1171V727H1145V557H700V113H532V557H88V727H532V1171H700Z" />
<glyph unicode="," glyph-name="comma" d="M502 303H754V96L557 -287H403L502 96V303Z" />
<glyph unicode="-" glyph-name="hyphen" d="M356 643H877V479H356V643Z" />
<glyph unicode="." glyph-name="period" d="M489 305H741V0H489V305Z" />
<glyph unicode="/" glyph-name="slash" d="M889 1493H1079L293 -190H102L889 1493Z" />
<glyph unicode="0" glyph-name="zero" d="M483 750Q483 805 521 845T614 885Q670 885 710 845T750 750Q750 694 711 655T614 616Q558 616 521 654T483 750ZM616 1360Q475 1360 406 1208T336 745Q336 435 405 283T616 131Q758 131 827 283T897 745Q897 1056 828
1208T616 1360ZM616 1520Q855 1520 977 1324T1100 745Q1100 363 978 167T616 -29Q377 -29 255 167T133 745Q133 1128 255 1324T616 1520Z" />
<glyph unicode="1" glyph-name="one" d="M270 170H584V1311L246 1235V1419L582 1493H784V170H1094V0H270V170Z" />
<glyph unicode="2" glyph-name="two" d="M373 170H1059V0H152V170Q339 367 479 518T672 731Q772 853 807 928T842 1083Q842 1208 769 1279T567 1350Q476 1350 376 1317T164 1217V1421Q267 1470 366 1495T563 1520Q782 1520 915 1404T1049 1098Q1049 1002 1005
906T860 694Q804 629 698 514T373 170Z" />
<glyph unicode="3" glyph-name="three" d="M776 799Q923 760 1001 661T1079 412Q1079 206 941 89T557 -29Q454 -29 347 -10T137 45V246Q239 193 338 167T535 141Q701 141 790 216T879 432Q879 562 790 638T549 715H395V881H549Q688 881 766 942T844 1112Q844 1227
772 1288T565 1350Q476 1350 381 1330T182 1270V1456Q303 1488 397 1504T565 1520Q783 1520 913 1411T1044 1120Q1044 997 976 915T776 799Z" />
<glyph unicode="4" glyph-name="four" d="M735 1309L264 520H735V1309ZM702 1493H936V520H1135V356H936V0H735V356H102V547L702 1493Z" />
<glyph unicode="5" glyph-name="five" d="M207 1493H963V1323H391V956Q434 972 477 979T565 987Q797 987 933 850T1069 479Q1069 243 927 107T537 -29Q418 -29 320 -13T143 35V240Q235 190 328 166T518 141Q685 141 775 229T866 479Q866 639 773 728T512 817Q431
817 354 799T207 743V1493Z" />
<glyph unicode="6" glyph-name="six" d="M991 1460V1274Q928 1311 857 1330T709 1350Q517 1350 418 1206T319 780Q367 880 452 933T647 987Q863 987 981 855T1100 479Q1100 237 978 104T635 -29Q375 -29 254 157T133 745Q133 1123 278 1321T700 1520Q774 1520
848 1505T991 1460ZM631 829Q502 829 428 736T354 479Q354 315 428 222T631 129Q765 129 833 217T901 479Q901 653 833 741T631 829Z" />
<glyph unicode="7" glyph-name="seven" d="M139 1493H1079V1407L545 0H334L854 1323H139V1493Z" />
<glyph unicode="8" glyph-name="eight" d="M616 709Q481 709 408 634T334 420Q334 282 408 206T616 129Q752 129 825 204T899 420Q899 557 825 633T616 709ZM440 793Q311 826 239 916T166 1133Q166 1311 287 1415T616 1520Q825 1520 946 1416T1067 1133Q1067 1006
995 916T793 793Q943 760 1022 660T1102 401Q1102 199 973 85T616 -29Q388 -29 260 84T131 399Q131 559 210 659T440 793ZM367 1114Q367 994 431 931T616 868Q738 868 802 931T866 1114Q866 1236 803 1300T616 1364Q495 1364 431 1300T367 1114Z" />
<glyph unicode="9" glyph-name="nine" d="M596 662Q725 662 798 755T872 1012Q872 1176 799 1269T596 1362Q462 1362 394 1274T326 1012Q326 838 393 750T596 662ZM236 31V217Q299 180 370 161T518 141Q710 141 808 285T907 711Q860 611 775 558T580 504Q364 504
246 637T127 1014Q127 1255 248 1387T592 1520Q852 1520 973 1333T1094 745Q1094 368 949 170T526 -29Q453 -29 379 -14T236 31Z" />
<glyph unicode=":" glyph-name="colon" d="M489 1063H741V760H489V1063ZM489 305H741V0H489V305Z" />
<glyph unicode=";" glyph-name="semicolon" d="M502 303H754V96L557 -287H403L502 96V303ZM489 1063H741V760H489V1063Z" />
<glyph unicode="&lt;" glyph-name="less" d="M1145 961L295 641L1145 324V141L88 559V725L1145 1143V961Z" />
<glyph unicode="=" glyph-name="equal" d="M88 524H1145V352H88V524ZM88 930H1145V760H88V930Z" />
<glyph unicode="&gt;" glyph-name="greater" d="M88 961V1143L1145 725V559L88 141V324L938 641L88 961Z" />
<glyph unicode="?" glyph-name="question" d="M684 401H494V555Q494 653 524 721T639 872L729 961Q791 1020 814 1064T838 1157Q838 1246 773 1301T598 1356Q520 1356 431 1322T244 1219V1407Q338 1464 433 1492T633 1520Q819 1520 929 1424T1040 1167Q1040 1091
1007 1026T879 868L791 782Q722 716 703 674T684 571V524V401ZM487 254H690V0H487V254Z" />
<glyph unicode="@" glyph-name="at" d="M1038 545Q1038 674 974 751T803 829Q696 829 632 752T567 545Q567 415 631 338T803 260Q910 260 974 337T1038 545ZM1178 135H1034V246Q997 183 932 149T784 115Q623 115 518 236T412 545Q412 733 517 854T784 975Q864
975 931 940T1034 844V907Q1034 1063 946 1158T713 1253Q467 1253 322 1062T176 543Q176 214 341 19T780 -176Q834 -176 888 -166T999 -135L1047 -270Q984 -295 923 -307T803 -319Q446 -319 237 -86T27 543Q27 933 215 1164T719 1395Q928 1395 1053 1262T1178 905V135Z"
/>
<glyph unicode="A" glyph-name="A" d="M616 1315L403 551H829L616 1315ZM494 1493H739L1196 0H987L877 389H354L246 0H37L494 1493Z" />
<glyph unicode="B" glyph-name="B" d="M369 713V166H608Q784 166 859 227T934 430Q934 576 855 644T608 713H369ZM369 1327V877H604Q750 877 815 933T881 1114Q881 1227 817 1277T604 1327H369ZM166 1493H608Q837 1493 961 1394T1085 1114Q1085 977 1020 898T823
799Q970 777 1053 674T1137 410Q1137 207 1004 104T608 0H166V1493Z" />
<glyph unicode="C" glyph-name="C" d="M1073 53Q996 12 915 -8T743 -29Q456 -29 298 174T139 745Q139 1111 298 1315T743 1520Q834 1520 915 1500T1073 1438V1231Q999 1292 914 1324T743 1356Q546 1356 448 1204T350 745Q350 439 448 287T743 135Q831 135 915
167T1073 260V53Z" />
<glyph unicode="D" glyph-name="D" d="M436 166Q691 166 792 291T893 745Q893 1076 793 1201T436 1327H340V166H436ZM440 1493Q782 1493 944 1311T1106 745Q1106 363 944 182T440 0H137V1493H440Z" />
<glyph unicode="E" glyph-name="E" d="M197 1493H1083V1323H399V881H1053V711H399V170H1102V0H197V1493Z" />
<glyph unicode="F" glyph-name="F" d="M233 1493H1112V1323H436V883H1049V713H436V0H233V1493Z" />
<glyph unicode="G" glyph-name="G" d="M1104 123Q1023 48 922 10T702 -29Q418 -29 260 174T102 745Q102 1111 262 1315T707 1520Q801 1520 887 1494T1053 1413V1206Q972 1283 887 1319T707 1356Q510 1356 412 1204T313 745Q313 434 408 285T702 135Q769 135 819
150T911 199V600H694V766H1104V123Z" />
<glyph unicode="H" glyph-name="H" d="M137 1493H340V881H893V1493H1096V0H893V711H340V0H137V1493Z" />
<glyph unicode="I" glyph-name="I" d="M201 1493H1030V1323H717V170H1030V0H201V170H514V1323H201V1493Z" />
<glyph unicode="J" glyph-name="J" d="M109 61V297Q200 216 297 176T498 135Q641 135 697 209T754 487V1323H373V1493H956V487Q956 205 851 88T498 -29Q402 -29 307 -7T109 61Z" />
<glyph unicode="K" glyph-name="K" d="M137 1493H340V829L971 1493H1208L627 883L1225 0H981L494 748L340 584V0H137V1493Z" />
<glyph unicode="L" glyph-name="L" d="M215 1493H418V170H1139V0H215V1493Z" />
<glyph unicode="M" glyph-name="M" d="M86 1493H356L614 733L874 1493H1145V0H958V1319L692 532H539L272 1319V0H86V1493Z" />
<glyph unicode="N" glyph-name="N" d="M139 1493H395L899 264V1493H1094V0H838L334 1229V0H139V1493Z" />
<glyph unicode="O" glyph-name="O" d="M905 745Q905 1074 838 1215T616 1356Q463 1356 396 1215T328 745Q328 417 395 276T616 135Q770 135 837 275T905 745ZM1116 745Q1116 355 993 163T616 -29Q363 -29 240 162T117 745Q117 1136 240 1328T616 1520Q869 1520
992 1328T1116 745Z" />
<glyph unicode="P" glyph-name="P" d="M399 1327V766H633Q773 766 851 840T930 1047Q930 1180 852 1253T633 1327H399ZM197 1493H633Q883 1493 1012 1380T1141 1047Q1141 826 1013 713T633 600H399V0H197V1493Z" />
<glyph unicode="Q" glyph-name="Q" d="M655 -27Q648 -27 635 -28T614 -29Q364 -29 241 163T117 745Q117 1136 240 1328T616 1520Q869 1520 992 1328T1116 745Q1116 451 1048 272T840 20L1040 -170L889 -270L655 -27ZM905 745Q905 1074 838 1215T616 1356Q463 1356
396 1215T328 745Q328 417 395 276T616 135Q770 135 837 275T905 745Z" />
<glyph unicode="R" glyph-name="R" d="M760 705Q838 685 893 630T1030 408L1233 0H1016L838 377Q761 538 700 584T539 631H346V0H143V1493H559Q805 1493 936 1382T1067 1061Q1067 913 987 820T760 705ZM346 1327V797H567Q712 797 783 862T854 1061Q854 1190 779
1258T559 1327H346Z" />
<glyph unicode="S" glyph-name="S" d="M1012 1442V1237Q920 1296 828 1326T641 1356Q498 1356 415 1290T332 1110Q332 1011 386 959T590 872L696 848Q906 799 1002 694T1098 408Q1098 195 966 83T582 -29Q477 -29 371 -7T158 61V276Q273 203 375 169T582 135Q735
135 820 203T905 395Q905 507 847 566T643 657L535 682Q327 729 233 824T139 1079Q139 1279 273 1399T631 1520Q717 1520 812 1501T1012 1442Z" />
<glyph unicode="T" glyph-name="T" d="M47 1493H1186V1323H719V0H516V1323H47V1493Z" />
<glyph unicode="U" glyph-name="U" d="M147 573V1493H350V481Q350 372 356 326T377 254Q409 195 469 165T616 135Q703 135 763 165T856 254Q871 279 877 325T883 479V1493H1085V573Q1085 344 1057 248T958 88Q892 29 807 0T616 -29Q511 -29 426 0T274 88Q205 150
176 248T147 573Z" />
<glyph unicode="V" glyph-name="V" d="M616 170L967 1493H1176L739 0H494L57 1493H266L616 170Z" />
<glyph unicode="W" glyph-name="W" d="M0 1493H197L340 281L510 1083H721L893 279L1036 1493H1233L1010 0H819L616 887L414 0H223L0 1493Z" />
<glyph unicode="X" glyph-name="X" d="M86 1493H303L631 930L965 1493H1182L735 791L1214 0H997L631 643L236 0H18L518 791L86 1493Z" />
<glyph unicode="Y" glyph-name="Y" d="M37 1493H252L616 834L979 1493H1196L717 670V0H514V670L37 1493Z" />
<glyph unicode="Z" glyph-name="Z" d="M178 1493H1147V1339L367 170H1169V0H156V154L915 1323H178V1493Z" />
<glyph unicode="[" glyph-name="bracketleft" d="M463 1556H887V1413H647V-127H887V-270H463V1556Z" />
<glyph unicode="\" glyph-name="backslash" d="M293 1493L1079 -190H889L102 1493H293Z" />
<glyph unicode="]" glyph-name="bracketright" d="M770 1556V-270H346V-127H586V1413H346V1556H770Z" />
<glyph unicode="^" glyph-name="asciicircum" d="M705 1493L1161 936H983L616 1331L250 936H72L528 1493H705Z" />
<glyph unicode="_" glyph-name="underscore" d="M1233 -403V-483H0V-403H1233Z" />
<glyph unicode="`" glyph-name="grave" d="M477 1638L758 1262H604L279 1638H477Z" />
<glyph unicode="a" glyph-name="a" d="M702 563H641Q480 563 399 507T317 338Q317 237 378 181T547 125Q699 125 786 230T874 522V563H702ZM1059 639V0H874V166Q815 66 726 19T508 -29Q337 -29 235 67T133 326Q133 513 258 610T627 707H874V736Q873 870 806 930T592
991Q498 991 402 964T215 885V1069Q317 1108 410 1127T592 1147Q731 1147 829 1106T989 983Q1027 933 1043 860T1059 639Z" />
<glyph unicode="b" glyph-name="b" d="M918 559Q918 773 850 882T649 991Q515 991 446 882T377 559Q377 347 446 237T649 127Q782 127 850 236T918 559ZM377 977Q421 1059 498 1103T678 1147Q880 1147 996 992T1112 563Q1112 286 996 129T676 -29Q576 -29 500
14T377 141V0H193V1556H377V977Z" />
<glyph unicode="c" glyph-name="c" d="M1061 57Q987 14 909 -7T748 -29Q488 -29 342 127T195 559Q195 835 341 991T748 1147Q829 1147 906 1126T1061 1061V868Q988 933 915 962T748 991Q575 991 482 879T389 559Q389 352 482 240T748 127Q844 127 920 156T1061 248V57Z" />
<glyph unicode="d" glyph-name="d" d="M858 977V1556H1042V0H858V141Q812 58 736 15T559 -29Q356 -29 240 128T123 563Q123 836 240 991T559 1147Q660 1147 737 1104T858 977ZM317 559Q317 345 385 236T586 127Q719 127 788 237T858 559Q858 772 789 881T586 991Q453
991 385 882T317 559Z" />
<glyph unicode="e" glyph-name="e" d="M1112 606V516H315V510Q315 327 410 227T680 127Q768 127 864 155T1069 240V57Q964 14 867 -7T678 -29Q417 -29 270 127T123 559Q123 827 267 987T651 1147Q865 1147 988 1002T1112 606ZM928 660Q924 822 852 906T643 991Q510
991 424 903T322 659L928 660Z" />
<glyph unicode="f" glyph-name="f" d="M1063 1556V1403H854Q755 1403 717 1363T678 1219V1120H1063V977H678V0H494V977H195V1120H494V1198Q494 1382 578 1469T842 1556H1063Z" />
<glyph unicode="g" glyph-name="g" d="M858 569Q858 776 791 883T594 991Q459 991 388 884T317 569Q317 362 388 254T596 145Q723 145 790 254T858 569ZM1042 72Q1042 -180 923 -310T573 -440Q497 -440 414 -426T248 -385V-203Q346 -249 426 -271T573 -293Q722
-293 790 -212T858 45V53V178Q814 84 738 38T553 -8Q357 -8 240 149T123 569Q123 833 240 990T553 1147Q661 1147 736 1104T858 971V1116H1042V72Z" />
<glyph unicode="h" glyph-name="h" d="M1051 694V0H866V694Q866 845 813 916T647 987Q518 987 449 896T379 633V0H195V1556H379V952Q428 1048 512 1097T711 1147Q882 1147 966 1035T1051 694Z" />
<glyph unicode="i" glyph-name="i" d="M256 1120H727V143H1092V0H178V143H543V977H256V1120ZM543 1556H727V1323H543V1556Z" />
<glyph unicode="j" glyph-name="j" d="M600 -20V977H283V1120H784V-20Q784 -215 695 -320T440 -426H186V-270H420Q510 -270 555 -208T600 -20ZM600 1556H784V1323H600V1556Z" />
<glyph unicode="k" glyph-name="k" d="M236 1556H426V655L909 1120H1133L692 698L1202 0H977L563 578L426 449V0H236V1556Z" />
<glyph unicode="l" glyph-name="l" d="M639 406Q639 282 684 219T819 156H1034V0H801Q636 0 546 106T455 406V1423H160V1567H639V406Z" />
<glyph unicode="m" glyph-name="m" d="M676 1006Q710 1078 762 1112T889 1147Q1024 1147 1079 1043T1135 649V0H967V641Q967 878 941 935T844 993Q764 993 735 932T705 641V0H537V641Q537 881 509 937T406 993Q333 993 305 932T276 641V0H109V1120H276V1024Q309
1084 358 1115T471 1147Q547 1147 597 1112T676 1006Z" />
<glyph unicode="n" glyph-name="n" d="M1051 694V0H866V694Q866 845 813 916T647 987Q518 987 449 896T379 633V0H195V1120H379V952Q428 1048 512 1097T711 1147Q882 1147 966 1035T1051 694Z" />
<glyph unicode="o" glyph-name="o" d="M616 991Q476 991 404 882T332 559Q332 346 404 237T616 127Q757 127 829 236T901 559Q901 773 829 882T616 991ZM616 1147Q849 1147 972 996T1096 559Q1096 272 973 122T616 -29Q383 -29 260 121T137 559Q137 845 260 996T616
1147Z" />
<glyph unicode="p" glyph-name="p" d="M375 141V-426H190V1120H375V977Q421 1060 497 1103T674 1147Q877 1147 992 990T1108 555Q1108 282 992 127T674 -29Q572 -29 496 14T375 141ZM915 559Q915 773 848 882T647 991Q513 991 444 882T375 559Q375 347 444 237T647
127Q780 127 847 236T915 559Z" />
<glyph unicode="q" glyph-name="q" d="M332 555Q332 341 399 232T600 123Q733 123 801 232T870 555Q870 768 802 877T600 987Q467 987 400 878T332 555ZM870 139Q825 56 749 12T571 -33Q370 -33 254 122T137 551Q137 829 253 986T571 1143Q671 1143 747 1100T870
973V1116H1055V-430H870V139Z" />
<glyph unicode="r" glyph-name="r" d="M1155 889Q1096 935 1035 956T901 977Q729 977 638 869T547 557V0H362V1120H547V901Q593 1020 688 1083T915 1147Q983 1147 1042 1130T1155 1077V889Z" />
<glyph unicode="s" glyph-name="s" d="M973 1081V901Q894 947 814 970T651 993Q526 993 465 953T403 829Q403 754 449 717T678 645L752 631Q889 605 959 527T1030 324Q1030 158 912 65T584 -29Q501 -29 410 -12T213 41V231Q316 178 410 152T588 125Q710 125 777
174T844 313Q844 441 599 490L591 492L522 506Q363 537 290 610T217 811Q217 972 326 1059T637 1147Q727 1147 810 1131T973 1081Z" />
<glyph unicode="t" glyph-name="t" d="M614 1438V1120H1032V977H614V369Q614 245 661 196T825 147H1032V0H807Q600 0 515 83T430 369V977H131V1120H430V1438H614Z" />
<glyph unicode="u" glyph-name="u" d="M195 424V1118H379V424Q379 273 432 202T598 131Q728 131 797 222T866 485V1118H1051V0H866V168Q817 71 733 21T535 -29Q363 -29 279 83T195 424Z" />
<glyph unicode="v" glyph-name="v" d="M100 1120H291L616 180L942 1120H1133L735 0H498L100 1120Z" />
<glyph unicode="w" glyph-name="w" d="M0 1120H182L377 215L537 793H694L856 215L1051 1120H1233L971 0H795L616 614L438 0H262L0 1120Z" />
<glyph unicode="x" glyph-name="x" d="M1118 1120L717 584L1157 0H944L616 449L289 0H76L516 584L115 1120H319L616 715L911 1120H1118Z" />
<glyph unicode="y" glyph-name="y" d="M858 360Q812 243 741 52Q642 -212 608 -270Q562 -348 493 -387T332 -426H184V-272H293Q374 -272 420 -225T537 18L104 1120H299L631 244L958 1120H1153L858 360Z" />
<glyph unicode="z" glyph-name="z" d="M227 1122H1040V954L397 150H1040V0H203V170L846 975H227V1122Z" />
<glyph unicode="{" glyph-name="braceleft" d="M1012 -190V-334H948Q699 -334 615 -260T530 35V274Q530 425 477 483T283 541H221V684H283Q424 684 477 741T530 948V1188Q530 1409 614 1482T948 1556H1012V1413H942Q802 1413 760 1370T717 1184V936Q717 779 672
708T516 612Q627 585 672 514T717 287V39Q717 -104 759 -147T942 -190H1012Z" />
<glyph unicode="|" glyph-name="bar" d="M702 1565V-483H530V1565H702Z" />
<glyph unicode="}" glyph-name="braceright" d="M221 -190H289Q430 -190 473 -146T516 39V287Q516 443 561 514T717 612Q607 637 562 708T516 936V1184Q516 1325 473 1369T289 1413H221V1556H283Q532 1556 616 1483T700 1188V948Q700 798 753 741T948 684H1012V541H948Q807
541 754 483T700 274V35Q700 -186 616 -260T283 -334H221V-190Z" />
<glyph unicode="~" glyph-name="asciitilde" d="M1145 780V606Q1070 547 999 520T848 492Q758 492 645 543Q623 553 612 557Q535 590 484 602T381 614Q302 614 232 585T88 492V666Q166 726 239 753T395 780Q448 780 498 769T622 727Q634 722 655 712Q771 657 864
657Q934 657 1002 687T1145 780Z" />
<glyph unicode="&#xa0;" glyph-name="nbspace" />
<glyph unicode="&#xa1;" glyph-name="exclamdown" d="M516 1239V1493H719V1239H516ZM516 0V655L537 1012H698L719 655V0H516Z" />
<glyph unicode="&#xa2;" glyph-name="cent" d="M1061 1077V905Q994 945 929 967T801 993V123Q864 128 929 150T1061 213V41Q988 10 923 -7T801 -27V-313H698V-27Q473 -5 343 151T213 559Q213 809 344 967T698 1145V1432H801V1145Q858 1142 923 1125T1061 1077ZM698
127V991Q566 979 486 861T406 559Q406 375 486 258T698 127Z" />
<glyph unicode="&#xa3;" glyph-name="sterling" d="M1092 1462V1278Q1030 1322 967 1344T836 1366Q702 1366 639 1277T575 995V778H946V635H575V170H1112V0H139V170H375V635H176V778H375V1016Q375 1270 484 1395T817 1520Q882 1520 950 1506T1092 1462Z" />
<glyph unicode="&#xa4;" glyph-name="currency" d="M868 643Q868 733 806 794T653 856Q563 856 501 795T438 643Q438 551 500 489T653 426Q744 426 806 489T868 643ZM844 924L1010 1090L1100 997L934 831Q964 782 978 736T993 641Q993 591 978 546T932 455L1100
289L1006 195L840 362Q794 331 749 316T653 301Q605 301 557 315T461 358L297 195L205 285L371 451Q340 502 326 548T311 641Q311 691 326 737T373 829L205 995L299 1090L465 922Q511 953 556 968T653 983Q699 983 746 969T844 924Z" />
<glyph unicode="&#xa5;" glyph-name="yen" d="M37 1493H252L616 834L979 1493H1196L866 932H1118V821H803L717 670V635H1118V524H717V0H514V524H115V635H514V670L424 821H115V932H358L37 1493Z" />
<glyph unicode="&#xa6;" glyph-name="brokenbar" d="M702 1432V674H530V1432H702ZM702 408V-350H530V408H702Z" />
<glyph unicode="&#xa7;" glyph-name="section" d="M936 1462V1298Q853 1337 782 1356T653 1376Q556 1376 503 1336T449 1225Q449 1135 654 1020Q680 1005 694 997Q906 878 971 801T1036 623Q1036 533 991 463T852 340Q913 288 942 234T971 115Q971 -27 869 -111T594
-195Q521 -195 444 -181T279 -137V27Q366 -12 440 -31T571 -51Q673 -51 729 -9T786 109Q786 211 565 334L541 348Q327 468 263 544T199 723Q199 814 245 885T383 1006Q323 1050 294 1106T264 1231Q264 1361 364 1440T631 1520Q703 1520 779 1506T936 1462ZM485
936Q423 891 393 846T362 754Q362 678 432 611T750 410Q812 455 842 500T872 592Q872 668 801 736T485 936Z" />
<glyph unicode="&#xa8;" glyph-name="dieresis" d="M319 1552H522V1350H319V1552ZM711 1552H913V1350H711V1552Z" />
<glyph unicode="&#xa9;" glyph-name="copyright" d="M864 1071V963Q806 991 751 1004T637 1018Q520 1018 453 944T385 741Q385 609 455 538T655 467Q711 467 762 479T864 518V414Q812 391 755 380T637 369Q457 369 354 469T250 741Q250 914 354 1015T637 1116Q698
1116 755 1105T864 1071ZM616 1255Q510 1255 420 1218T254 1106Q179 1031 141 939T102 741Q102 637 140 546T254 379Q330 303 420 265T616 227Q722 227 812 265T979 379Q1055 455 1092 545T1130 741Q1130 847 1092 939T979 1106Q904 1181 814 1218T616 1255ZM616
1358Q743 1358 852 1313T1051 1178Q1141 1087 1187 977T1233 741Q1233 616 1188 507T1051 307Q960 216 851 171T616 125Q491 125 382 170T182 307Q91 398 46 507T0 741Q0 867 46 977T182 1178Q272 1268 381 1313T616 1358Z" />
<glyph unicode="&#xaa;" glyph-name="ordfeminine" d="M684 1104Q540 1104 478 1070T416 958Q416 894 459 856T575 817Q680 817 745 888T811 1075V1104H684ZM954 1165V717H811V829Q762 764 697 731T549 698Q420 698 345 766T270 950Q270 1079 363 1149T629 1219H811V1223Q811
1313 752 1359T575 1405Q524 1405 462 1388T332 1337V1464Q400 1492 467 1506T598 1520Q782 1520 868 1434T954 1165ZM293 592H961V469H293V592Z" />
<glyph unicode="&#xab;" glyph-name="guillemotleft" d="M588 1059V868L287 600L588 332V141L119 559V641L588 1059ZM1042 1059V868L741 600L1042 332V141L573 559V641L1042 1059Z" />
<glyph unicode="&#xac;" glyph-name="logicalnot" d="M88 862H1145V371H977V690H88V862Z" />
<glyph unicode="&#xad;" glyph-name="sfthyphen" d="M356 643H877V479H356V643Z" />
<glyph unicode="&#xae;" glyph-name="registered" d="M600 1100Q747 1100 819 1051T891 901Q891 830 847 784T723 723Q742 718 771 685T838 592L952 406H809L702 580Q653 660 623 681T547 702H492V406H362V1100H600ZM594 1016H492V784H594Q684 784 721 811T758
901Q758 963 721 989T594 1016ZM616 1358Q743 1358 852 1313T1051 1178Q1141 1087 1187 977T1233 741Q1233 616 1188 507T1051 307Q960 216 851 171T616 125Q491 125 382 170T182 307Q91 398 46 507T0 741Q0 867 46 977T182 1178Q272 1268 381 1313T616 1358ZM616
1255Q510 1255 420 1218T254 1106Q179 1031 141 939T102 741Q102 637 140 546T254 379Q330 303 420 265T616 227Q722 227 812 265T979 379Q1055 455 1092 545T1130 741Q1130 847 1092 939T979 1106Q904 1181 814 1218T616 1255Z" />
<glyph unicode="&#xaf;" glyph-name="overscore" d="M317 1526H915V1378H317V1526Z" />
<glyph unicode="&#xb0;" glyph-name="degree" d="M616 1520Q681 1520 739 1496T842 1425Q887 1380 910 1323T934 1200Q934 1068 841 977T614 885Q479 885 389 975T299 1200Q299 1334 391 1427T616 1520ZM616 1391Q537 1391 482 1336T426 1200Q426 1120 480 1066T614
1012Q694 1012 750 1067T807 1200Q807 1279 751 1335T616 1391Z" />
<glyph unicode="&#xb1;" glyph-name="plusminus" d="M88 170H1145V0H88V170ZM700 1171V842H1145V672H700V340H532V672H88V842H532V1171H700Z" />
<glyph unicode="&#xb2;" glyph-name="twosuperior" d="M483 782H893V668H322V778L553 1004Q654 1101 694 1162T735 1274Q735 1335 685 1373T553 1411Q504 1411 448 1393T328 1339V1464Q393 1492 453 1506T573 1520Q715 1520 801 1454T887 1280Q887 1223 850 1164T694
987L483 782Z" />
<glyph unicode="&#xb3;" glyph-name="threesuperior" d="M731 1120Q825 1099 874 1045T924 911Q924 787 829 720T557 653Q499 653 442 663T326 694V815Q395 788 451 775T553 762Q654 762 713 802T772 911Q772 985 717 1023T553 1061H487V1169H561Q654 1169 703
1200T752 1292Q752 1348 704 1379T569 1411Q525 1411 469 1399T354 1364V1485Q423 1502 481 1511T590 1520Q735 1520 819 1461T903 1303Q903 1232 859 1186T731 1120Z" />
<glyph unicode="&#xb4;" glyph-name="acute" d="M756 1638H954L629 1262H475L756 1638Z" />
<glyph unicode="&#xb5;" glyph-name="mu" d="M195 -428V1120H379V424Q379 282 439 207T610 131Q737 131 801 216T866 467V1120H1051V256Q1051 197 1067 169T1116 141Q1125 141 1139 146T1182 164V16Q1144 -7 1110 -18T1042 -29Q980 -29 943 10T893 129Q847 49
781 10T625 -29Q533 -29 470 9T362 127V-428H195Z" />
<glyph unicode="&#xb6;" glyph-name="paragraph" d="M582 1493H1030V-197H889V1370H698V-197H557V649Q342 666 224 776T106 1071Q106 1261 236 1377T582 1493Z" />
<glyph unicode="&#xb7;" glyph-name="middot" d="M489 864H741V559H489V864Z" />
<glyph unicode="&#xb8;" glyph-name="cedilla" d="M700 0Q756 -62 782 -114T809 -215Q809 -304 749 -349T571 -395Q526 -395 483 -389T395 -371V-240Q429 -257 466 -264T551 -272Q609 -272 639 -248T670 -178Q670 -148 648 -105T582 0H700Z" />
<glyph unicode="&#xb9;" glyph-name="onesuperior" d="M362 778H567V1389L344 1348V1464L573 1503H711V778H915V668H362V778Z" />
<glyph unicode="&#xba;" glyph-name="ordmasculine" d="M616 1403Q514 1403 457 1325T399 1108Q399 969 456 892T616 815Q717 815 775 893T834 1108Q834 1247 777 1325T616 1403ZM616 1520Q786 1520 887 1408T989 1108Q989 921 888 810T616 698Q446 698 345 809T244
1108Q244 1296 345 1408T616 1520ZM276 592H952V469H276V592Z" />
<glyph unicode="&#xbb;" glyph-name="guillemotright" d="M647 1059L1116 641V559L647 141V332L948 600L647 868V1059ZM193 1059L662 641V559L193 141V332L494 600L193 868V1059Z" />
<glyph unicode="&#xbc;" glyph-name="onequarter" d="M815 565H977V27H1093V-84H977V-270H839V-84H452V37L815 565ZM839 440L565 27H839V440ZM104 934H309V1545L86 1504V1620L315 1659H453V934H657V824H104V934ZM51 504L27 612L1087 874L1114 766L51 504Z" />
<glyph unicode="&#xbd;" glyph-name="onehalf" d="M104 934H309V1545L86 1504V1620L315 1659H453V934H657V824H104V934ZM51 504L27 612L1087 874L1114 766L51 504ZM684 -156H1094V-270H523V-160L754 66Q855 163 895 224T936 336Q936 397 886 435T754 473Q705 473
649 455T529 401V526Q594 554 654 568T774 582Q916 582 1002 516T1088 342Q1088 285 1051 226T895 49L684 -156Z" />
<glyph unicode="&#xbe;" glyph-name="threequarters" d="M815 565H977V27H1093V-84H977V-270H839V-84H452V37L815 565ZM839 440L565 27H839V440ZM504 1276Q598 1255 647 1201T697 1067Q697 943 602 876T330 809Q272 809 215 819T99 850V971Q168 944 224 931T326
918Q427 918 486 958T545 1067Q545 1141 490 1179T326 1217H260V1325H334Q427 1325 476 1356T525 1448Q525 1504 477 1535T342 1567Q298 1567 242 1555T127 1520V1641Q196 1658 254 1667T363 1676Q508 1676 592 1617T676 1459Q676 1388 632 1342T504 1276ZM51 504L27
612L1087 874L1114 766L51 504Z" />
<glyph unicode="&#xbf;" glyph-name="questiondown" d="M549 1092H739V938Q739 840 709 772T594 621L504 532Q442 473 419 429T395 336Q395 247 460 192T635 137Q713 137 802 171T989 274V86Q895 29 800 1T600 -27Q414 -27 304 69T193 326Q193 402 226 467T354
625L442 711Q509 775 528 817T547 922Q547 923 547 927Q549 950 549 969V1092ZM745 1239H543V1493H745V1239Z" />
<glyph unicode="&#xc0;" glyph-name="Agrave" d="M616 1315L403 551H829L616 1315ZM494 1493H739L1196 0H987L877 389H354L246 0H37L494 1493ZM561 1899L758 1635H604L377 1899H561Z" />
<glyph unicode="&#xc1;" glyph-name="Aacute" d="M616 1315L403 551H829L616 1315ZM494 1493H739L1196 0H987L877 389H354L246 0H37L494 1493ZM672 1899H858L629 1635H475L672 1899Z" />
<glyph unicode="&#xc2;" glyph-name="Acircumflex" d="M616 1315L403 551H829L616 1315ZM494 1493H739L1196 0H987L877 389H354L246 0H37L494 1493ZM522 1901H711L922 1635H782L616 1813L451 1635H311L522 1901Z" />
<glyph unicode="&#xc3;" glyph-name="Atilde" d="M616 1315L403 551H829L616 1315ZM494 1493H739L1196 0H987L877 389H354L246 0H37L494 1493ZM612 1710L555 1743Q530 1757 515 1762T487 1768Q452 1768 432 1743T412 1673V1667H287Q287 1768 338 1827T475 1886Q511
1886 541 1878T621 1843L678 1813Q700 1800 717 1794T750 1788Q781 1788 801 1813T821 1880V1886H946Q944 1786 893 1727T758 1667Q724 1667 694 1675T612 1710Z" />
<glyph unicode="&#xc4;" glyph-name="Adieresis" d="M616 1315L403 551H829L616 1315ZM494 1493H739L1196 0H987L877 389H354L246 0H37L494 1493ZM319 1870H522V1667H319V1870ZM711 1870H913V1667H711V1870Z" />
<glyph unicode="&#xc5;" glyph-name="Aring" d="M768 1626Q768 1689 724 1733T616 1778Q552 1778 509 1735T465 1626Q465 1563 509 1519T616 1475Q679 1475 723 1519T768 1626ZM616 1311L403 551H829L616 1311ZM465 1399Q407 1432 375 1492T342 1626Q342 1740
422 1820T616 1901Q730 1901 810 1821T891 1626Q891 1553 859 1494T768 1399L1196 0H987L877 389H354L246 0H37L465 1399Z" />
<glyph unicode="&#xc6;" glyph-name="AE" d="M1161 1493V1323H823V881H1130V711H823V170H1180V0H637V383H285L184 0H0L410 1493H1161ZM530 1323L328 551H637V1323H530Z" />
<glyph unicode="&#xc7;" glyph-name="Ccedilla" d="M800 0Q856 -62 882 -114T909 -215Q909 -304 849 -349T671 -395Q626 -395 583 -389T495 -371V-240Q529 -257 566 -264T651 -272Q709 -272 739 -248T770 -178Q770 -148 748 -105T682 0H800ZM1073 53Q996 12 915
-8T743 -29Q456 -29 298 174T139 745Q139 1111 298 1315T743 1520Q834 1520 915 1500T1073 1438V1231Q999 1292 914 1324T743 1356Q546 1356 448 1204T350 745Q350 439 448 287T743 135Q831 135 915 167T1073 260V53Z" />
<glyph unicode="&#xc8;" glyph-name="Egrave" d="M197 1493H1083V1323H399V881H1053V711H399V170H1102V0H197V1493ZM579 1899L776 1635H622L395 1899H579Z" />
<glyph unicode="&#xc9;" glyph-name="Eacute" d="M197 1493H1083V1323H399V881H1053V711H399V170H1102V0H197V1493ZM690 1899H876L647 1635H493L690 1899Z" />
<glyph unicode="&#xca;" glyph-name="Ecircumflex" d="M197 1493H1083V1323H399V881H1053V711H399V170H1102V0H197V1493ZM540 1901H729L940 1635H800L634 1813L469 1635H329L540 1901Z" />
<glyph unicode="&#xcb;" glyph-name="Edieresis" d="M197 1493H1083V1323H399V881H1053V711H399V170H1102V0H197V1493ZM337 1870H540V1667H337V1870ZM729 1870H931V1667H729V1870Z" />
<glyph unicode="&#xcc;" glyph-name="Igrave" d="M201 1493H1030V1323H717V170H1030V0H201V170H514V1323H201V1493ZM561 1899L758 1635H604L377 1899H561Z" />
<glyph unicode="&#xcd;" glyph-name="Iacute" d="M201 1493H1030V1323H717V170H1030V0H201V170H514V1323H201V1493ZM672 1899H858L629 1635H475L672 1899Z" />
<glyph unicode="&#xce;" glyph-name="Icircumflex" d="M201 1493H1030V1323H717V170H1030V0H201V170H514V1323H201V1493ZM522 1901H711L922 1635H782L616 1813L451 1635H311L522 1901Z" />
<glyph unicode="&#xcf;" glyph-name="Idieresis" d="M201 1493H1030V1323H717V170H1030V0H201V170H514V1323H201V1493ZM319 1870H522V1667H319V1870ZM711 1870H913V1667H711V1870Z" />
<glyph unicode="&#xd0;" glyph-name="Eth" d="M436 1493Q778 1493 940 1311T1102 745Q1102 363 940 182T436 0H133V709H8V858H133V1493H436ZM436 166Q691 166 792 291T893 745Q893 1076 793 1201T436 1327H340V858H604V709H340V166H436Z" />
<glyph unicode="&#xd1;" glyph-name="Ntilde" d="M139 1493H395L899 264V1493H1094V0H838L334 1229V0H139V1493ZM612 1714L555 1747Q530 1761 515 1766T487 1772Q452 1772 432 1747T412 1677V1671H287Q287 1772 338 1831T475 1890Q511 1890 541 1882T621 1847L678
1817Q700 1804 717 1798T750 1792Q781 1792 801 1817T821 1884V1890H946Q944 1790 893 1731T758 1671Q724 1671 694 1679T612 1714Z" />
<glyph unicode="&#xd2;" glyph-name="Ograve" d="M905 745Q905 1074 838 1215T616 1356Q463 1356 396 1215T328 745Q328 417 395 276T616 135Q770 135 837 275T905 745ZM1116 745Q1116 355 993 163T616 -29Q363 -29 240 162T117 745Q117 1136 240 1328T616 1520Q869
1520 992 1328T1116 745ZM561 1899L758 1635H604L377 1899H561Z" />
<glyph unicode="&#xd3;" glyph-name="Oacute" d="M905 745Q905 1074 838 1215T616 1356Q463 1356 396 1215T328 745Q328 417 395 276T616 135Q770 135 837 275T905 745ZM1116 745Q1116 355 993 163T616 -29Q363 -29 240 162T117 745Q117 1136 240 1328T616 1520Q869
1520 992 1328T1116 745ZM672 1899H858L629 1635H475L672 1899Z" />
<glyph unicode="&#xd4;" glyph-name="Ocircumflex" d="M905 745Q905 1074 838 1215T616 1356Q463 1356 396 1215T328 745Q328 417 395 276T616 135Q770 135 837 275T905 745ZM1116 745Q1116 355 993 163T616 -29Q363 -29 240 162T117 745Q117 1136 240 1328T616
1520Q869 1520 992 1328T1116 745ZM522 1901H711L922 1635H782L616 1813L451 1635H311L522 1901Z" />
<glyph unicode="&#xd5;" glyph-name="Otilde" d="M905 745Q905 1074 838 1215T616 1356Q463 1356 396 1215T328 745Q328 417 395 276T616 135Q770 135 837 275T905 745ZM1116 745Q1116 355 993 163T616 -29Q363 -29 240 162T117 745Q117 1136 240 1328T616 1520Q869
1520 992 1328T1116 745ZM612 1710L555 1743Q530 1757 515 1762T487 1768Q452 1768 432 1743T412 1673V1667H287Q287 1768 338 1827T475 1886Q511 1886 541 1878T621 1843L678 1813Q700 1800 717 1794T750 1788Q781 1788 801 1813T821 1880V1886H946Q944 1786 893
1727T758 1667Q724 1667 694 1675T612 1710Z" />
<glyph unicode="&#xd6;" glyph-name="Odieresis" d="M905 745Q905 1074 838 1215T616 1356Q463 1356 396 1215T328 745Q328 417 395 276T616 135Q770 135 837 275T905 745ZM1116 745Q1116 355 993 163T616 -29Q363 -29 240 162T117 745Q117 1136 240 1328T616
1520Q869 1520 992 1328T1116 745ZM319 1870H522V1667H319V1870ZM711 1870H913V1667H711V1870Z" />
<glyph unicode="&#xd7;" glyph-name="multiply" d="M150 293L500 641L150 991L266 1108L616 758L967 1108L1083 991L733 641L1081 293L965 174L616 524L268 174L150 293Z" />
<glyph unicode="&#xd8;" glyph-name="Oslash" d="M371 303Q401 225 466 180T616 135Q770 135 837 275T905 745Q905 855 900 923T885 1036L371 303ZM338 471L842 1190Q817 1271 760 1313T616 1356Q459 1356 394 1210T328 686Q328 606 330 556T338 471ZM1032 1247Q1073
1166 1094 1037T1116 745Q1116 355 993 163T616 -29Q495 -29 405 11T254 133L111 -70L8 0L186 252Q154 325 136 456T117 745Q117 1136 240 1328T616 1520Q731 1520 817 1479T961 1358L1100 1559L1200 1485L1032 1247Z" />
<glyph unicode="&#xd9;" glyph-name="Ugrave" d="M147 573V1493H350V481Q350 372 356 326T377 254Q409 195 469 165T616 135Q703 135 763 165T856 254Q871 279 877 325T883 479V1493H1085V573Q1085 344 1057 248T958 88Q892 29 807 0T616 -29Q511 -29 426 0T274
88Q205 150 176 248T147 573ZM561 1899L758 1635H604L377 1899H561Z" />
<glyph unicode="&#xda;" glyph-name="Uacute" d="M147 573V1493H350V481Q350 372 356 326T377 254Q409 195 469 165T616 135Q703 135 763 165T856 254Q871 279 877 325T883 479V1493H1085V573Q1085 344 1057 248T958 88Q892 29 807 0T616 -29Q511 -29 426 0T274
88Q205 150 176 248T147 573ZM672 1899H858L629 1635H475L672 1899Z" />
<glyph unicode="&#xdb;" glyph-name="Ucircumflex" d="M147 573V1493H350V481Q350 372 356 326T377 254Q409 195 469 165T616 135Q703 135 763 165T856 254Q871 279 877 325T883 479V1493H1085V573Q1085 344 1057 248T958 88Q892 29 807 0T616 -29Q511 -29 426
0T274 88Q205 150 176 248T147 573ZM522 1901H711L922 1635H782L616 1813L451 1635H311L522 1901Z" />
<glyph unicode="&#xdc;" glyph-name="Udieresis" d="M147 573V1493H350V481Q350 372 356 326T377 254Q409 195 469 165T616 135Q703 135 763 165T856 254Q871 279 877 325T883 479V1493H1085V573Q1085 344 1057 248T958 88Q892 29 807 0T616 -29Q511 -29 426 0T274
88Q205 150 176 248T147 573ZM319 1870H522V1667H319V1870ZM711 1870H913V1667H711V1870Z" />
<glyph unicode="&#xdd;" glyph-name="Yacute" d="M37 1493H252L616 834L979 1493H1196L717 670V0H514V670L37 1493ZM672 1899H858L629 1635H475L672 1899Z" />
<glyph unicode="&#xde;" glyph-name="Thorn" d="M403 1057V532H637Q795 532 873 598T952 795Q952 926 874 991T637 1057H403ZM201 1493H403V1223H657Q917 1223 1041 1118T1165 795Q1165 576 1041 472T657 367H403V0H201V1493Z" />
<glyph unicode="&#xdf;" glyph-name="germandbls" d="M188 1137Q188 1350 293 1453T614 1556Q818 1556 923 1446T1030 1119Q875 1105 791 1043T707 881Q707 832 734 794T829 713L887 676Q1038 583 1093 501T1149 303Q1149 149 1037 60T729 -29Q660 -29 593 -17T459
20V184Q535 153 601 138T727 123Q835 123 899 171T963 301Q963 372 931 419T778 541L711 580Q619 636 574 702T528 848Q528 976 609 1061T846 1182Q844 1289 784 1346T610 1403Q489 1403 432 1338T375 1133V0H188V1137Z" />
<glyph unicode="&#xe0;" glyph-name="agrave" d="M702 563H641Q480 563 399 507T317 338Q317 237 378 181T547 125Q699 125 786 230T874 522V563H702ZM1059 639V0H874V166Q815 66 726 19T508 -29Q337 -29 235 67T133 326Q133 513 258 610T627 707H874V736Q873
870 806 930T592 991Q498 991 402 964T215 885V1069Q317 1108 410 1127T592 1147Q731 1147 829 1106T989 983Q1027 933 1043 860T1059 639ZM477 1638L758 1262H604L279 1638H477Z" />
<glyph unicode="&#xe1;" glyph-name="aacute" d="M702 563H641Q480 563 399 507T317 338Q317 237 378 181T547 125Q699 125 786 230T874 522V563H702ZM1059 639V0H874V166Q815 66 726 19T508 -29Q337 -29 235 67T133 326Q133 513 258 610T627 707H874V736Q873
870 806 930T592 991Q498 991 402 964T215 885V1069Q317 1108 410 1127T592 1147Q731 1147 829 1106T989 983Q1027 933 1043 860T1059 639ZM756 1638H954L629 1262H475L756 1638Z" />
<glyph unicode="&#xe2;" glyph-name="acircumflex" d="M702 563H641Q480 563 399 507T317 338Q317 237 378 181T547 125Q699 125 786 230T874 522V563H702ZM1059 639V0H874V166Q815 66 726 19T508 -29Q337 -29 235 67T133 326Q133 513 258 610T627 707H874V736Q873
870 806 930T592 991Q498 991 402 964T215 885V1069Q317 1108 410 1127T592 1147Q731 1147 829 1106T989 983Q1027 933 1043 860T1059 639ZM543 1638H690L936 1262H797L616 1507L436 1262H297L543 1638Z" />
<glyph unicode="&#xe3;" glyph-name="atilde" d="M702 563H641Q480 563 399 507T317 338Q317 237 378 181T547 125Q699 125 786 230T874 522V563H702ZM1059 639V0H874V166Q815 66 726 19T508 -29Q337 -29 235 67T133 326Q133 513 258 610T627 707H874V736Q873
870 806 930T592 991Q498 991 402 964T215 885V1069Q317 1108 410 1127T592 1147Q731 1147 829 1106T989 983Q1027 933 1043 860T1059 639ZM612 1370L555 1425Q534 1445 518 1454T487 1464Q449 1464 431 1427T411 1309H287Q288 1443 339 1517T481 1591Q520 1591
552 1577T621 1530L678 1475Q699 1455 715 1446T745 1436Q784 1436 802 1473T821 1591H946Q945 1457 894 1383T752 1309Q713 1309 681 1323T612 1370Z" />
<glyph unicode="&#xe4;" glyph-name="adieresis" d="M702 563H641Q480 563 399 507T317 338Q317 237 378 181T547 125Q699 125 786 230T874 522V563H702ZM1059 639V0H874V166Q815 66 726 19T508 -29Q337 -29 235 67T133 326Q133 513 258 610T627 707H874V736Q873
870 806 930T592 991Q498 991 402 964T215 885V1069Q317 1108 410 1127T592 1147Q731 1147 829 1106T989 983Q1027 933 1043 860T1059 639ZM319 1552H522V1350H319V1552ZM711 1552H913V1350H711V1552Z" />
<glyph unicode="&#xe5;" glyph-name="aring" d="M702 563H641Q480 563 399 507T317 338Q317 237 378 181T547 125Q699 125 786 230T874 522V563H702ZM1059 639V0H874V166Q815 66 726 19T508 -29Q337 -29 235 67T133 326Q133 513 258 610T627 707H874V736Q873 870
806 930T592 991Q498 991 402 964T215 885V1069Q317 1108 410 1127T592 1147Q731 1147 829 1106T989 983Q1027 933 1043 860T1059 639ZM891 1524Q891 1409 812 1329T616 1249Q501 1249 422 1329T342 1524Q342 1639 421 1718T616 1798Q732 1798 811 1719T891 1524ZM768
1524Q768 1587 724 1631T616 1675Q552 1675 509 1632T465 1524Q465 1459 508 1416T616 1372Q680 1372 724 1416T768 1524Z" />
<glyph unicode="&#xe6;" glyph-name="ae" d="M543 442V514H494Q325 514 265 469T205 311Q205 222 249 174T377 125Q469 125 506 191T543 442ZM1036 657V709Q1036 860 998 926T872 993Q785 993 747 925T709 700V657H1036ZM1200 514H709Q708 499 708 482T707 430Q707
269 757 197T920 125Q999 125 1063 150T1178 227V55Q1123 14 1057 -7T920 -29Q810 -29 736 12T629 131Q590 51 524 11T360 -29Q204 -29 123 57T41 307Q41 478 141 567T432 657H549V745Q549 865 500 929T356 993Q300 993 234 972T106 911V1079Q183 1114 249 1130T375
1147Q466 1147 528 1116T627 1020Q660 1081 726 1114T881 1147Q1055 1147 1127 1029T1200 604V514Z" />
<glyph unicode="&#xe7;" glyph-name="ccedilla" d="M804 0Q860 -62 886 -114T913 -215Q913 -304 853 -349T675 -395Q630 -395 587 -389T499 -371V-240Q533 -257 570 -264T655 -272Q713 -272 743 -248T774 -178Q774 -148 752 -105T686 0H804ZM1061 57Q987 14 909
-7T748 -29Q488 -29 342 127T195 559Q195 835 341 991T748 1147Q829 1147 906 1126T1061 1061V868Q988 933 915 962T748 991Q575 991 482 879T389 559Q389 352 482 240T748 127Q844 127 920 156T1061 248V57Z" />
<glyph unicode="&#xe8;" glyph-name="egrave" d="M1112 606V516H315V510Q315 327 410 227T680 127Q768 127 864 155T1069 240V57Q964 14 867 -7T678 -29Q417 -29 270 127T123 559Q123 827 267 987T651 1147Q865 1147 988 1002T1112 606ZM928 660Q924 822 852 906T643
991Q510 991 424 903T322 659L928 660ZM491 1638L772 1262H618L293 1638H491Z" />
<glyph unicode="&#xe9;" glyph-name="eacute" d="M1112 606V516H315V510Q315 327 410 227T680 127Q768 127 864 155T1069 240V57Q964 14 867 -7T678 -29Q417 -29 270 127T123 559Q123 827 267 987T651 1147Q865 1147 988 1002T1112 606ZM928 660Q924 822 852 906T643
991Q510 991 424 903T322 659L928 660ZM770 1638H968L643 1262H489L770 1638Z" />
<glyph unicode="&#xea;" glyph-name="ecircumflex" d="M1112 606V516H315V510Q315 327 410 227T680 127Q768 127 864 155T1069 240V57Q964 14 867 -7T678 -29Q417 -29 270 127T123 559Q123 827 267 987T651 1147Q865 1147 988 1002T1112 606ZM928 660Q924 822
852 906T643 991Q510 991 424 903T322 659L928 660ZM557 1638H704L950 1262H811L630 1507L450 1262H311L557 1638Z" />
<glyph unicode="&#xeb;" glyph-name="edieresis" d="M1112 606V516H315V510Q315 327 410 227T680 127Q768 127 864 155T1069 240V57Q964 14 867 -7T678 -29Q417 -29 270 127T123 559Q123 827 267 987T651 1147Q865 1147 988 1002T1112 606ZM928 660Q924 822 852
906T643 991Q510 991 424 903T322 659L928 660ZM333 1552H536V1350H333V1552ZM725 1552H927V1350H725V1552Z" />
<glyph unicode="&#xec;" glyph-name="igrave" d="M256 1120H727V143H1092V0H178V143H543V977H256V1120ZM477 1638L758 1262H604L279 1638H477Z" />
<glyph unicode="&#xed;" glyph-name="iacute" d="M256 1120H727V143H1092V0H178V143H543V977H256V1120ZM756 1638H954L629 1262H475L756 1638Z" />
<glyph unicode="&#xee;" glyph-name="icircumflex" d="M256 1120H727V143H1092V0H178V143H543V977H256V1120ZM543 1638H690L936 1262H797L616 1507L436 1262H297L543 1638Z" />
<glyph unicode="&#xef;" glyph-name="idieresis" d="M256 1120H727V143H1092V0H178V143H543V977H256V1120ZM343 1552H546V1350H343V1552ZM735 1552H937V1350H735V1552Z" />
<glyph unicode="&#xf0;" glyph-name="eth" d="M717 1327Q914 1115 1005 925T1096 535Q1096 267 971 119T616 -29Q388 -29 263 119T137 535Q137 800 262 948T612 1096Q646 1096 663 1095T696 1092Q663 1137 627 1181T553 1270L274 1178L244 1276L481 1356L299 1556H518L645
1411L934 1505L967 1407L717 1327ZM793 918Q758 931 717 937T631 944Q485 944 409 839T332 535Q332 339 406 233T616 127Q753 127 827 233T901 535Q901 645 872 746T793 918Z" />
<glyph unicode="&#xf1;" glyph-name="ntilde" d="M1051 694V0H866V694Q866 845 813 916T647 987Q518 987 449 896T379 633V0H195V1120H379V952Q428 1048 512 1097T711 1147Q882 1147 966 1035T1051 694ZM612 1370L555 1425Q534 1445 518 1454T487 1464Q449 1464
431 1427T411 1309H287Q288 1443 339 1517T481 1591Q520 1591 552 1577T621 1530L678 1475Q699 1455 715 1446T745 1436Q784 1436 802 1473T821 1591H946Q945 1457 894 1383T752 1309Q713 1309 681 1323T612 1370Z" />
<glyph unicode="&#xf2;" glyph-name="ograve" d="M616 991Q476 991 404 882T332 559Q332 346 404 237T616 127Q757 127 829 236T901 559Q901 773 829 882T616 991ZM616 1147Q849 1147 972 996T1096 559Q1096 272 973 122T616 -29Q383 -29 260 121T137 559Q137
845 260 996T616 1147ZM477 1638L758 1262H604L279 1638H477Z" />
<glyph unicode="&#xf3;" glyph-name="oacute" d="M616 991Q476 991 404 882T332 559Q332 346 404 237T616 127Q757 127 829 236T901 559Q901 773 829 882T616 991ZM616 1147Q849 1147 972 996T1096 559Q1096 272 973 122T616 -29Q383 -29 260 121T137 559Q137
845 260 996T616 1147ZM756 1638H954L629 1262H475L756 1638Z" />
<glyph unicode="&#xf4;" glyph-name="ocircumflex" d="M616 991Q476 991 404 882T332 559Q332 346 404 237T616 127Q757 127 829 236T901 559Q901 773 829 882T616 991ZM616 1147Q849 1147 972 996T1096 559Q1096 272 973 122T616 -29Q383 -29 260 121T137 559Q137
845 260 996T616 1147ZM543 1638H690L936 1262H797L616 1507L436 1262H297L543 1638Z" />
<glyph unicode="&#xf5;" glyph-name="otilde" d="M616 991Q476 991 404 882T332 559Q332 346 404 237T616 127Q757 127 829 236T901 559Q901 773 829 882T616 991ZM616 1147Q849 1147 972 996T1096 559Q1096 272 973 122T616 -29Q383 -29 260 121T137 559Q137
845 260 996T616 1147ZM612 1370L555 1425Q534 1445 518 1454T487 1464Q449 1464 431 1427T411 1309H287Q288 1443 339 1517T481 1591Q520 1591 552 1577T621 1530L678 1475Q699 1455 715 1446T745 1436Q784 1436 802 1473T821 1591H946Q945 1457 894 1383T752
1309Q713 1309 681 1323T612 1370Z" />
<glyph unicode="&#xf6;" glyph-name="odieresis" d="M616 991Q476 991 404 882T332 559Q332 346 404 237T616 127Q757 127 829 236T901 559Q901 773 829 882T616 991ZM616 1147Q849 1147 972 996T1096 559Q1096 272 973 122T616 -29Q383 -29 260 121T137 559Q137
845 260 996T616 1147ZM319 1552H522V1350H319V1552ZM711 1552H913V1350H711V1552Z" />
<glyph unicode="&#xf7;" glyph-name="divide" d="M494 395H739V150H494V395ZM494 1135H739V889H494V1135ZM88 727H1145V557H88V727Z" />
<glyph unicode="&#xf8;" glyph-name="oslash" d="M877 780L414 221Q450 174 500 151T616 127Q757 127 829 236T901 559Q901 611 895 666T877 780ZM817 897Q782 945 733 968T616 991Q477 991 403 884T328 575Q328 527 335 469T356 340L817 897ZM217 180Q178 251
158 348T137 559Q137 845 260 996T616 1147Q716 1147 795 1120T934 1036L1081 1212L1174 1135L1010 940Q1052 874 1074 778T1096 559Q1096 272 973 122T616 -29Q513 -29 435 0T299 90L139 -96L47 -20L217 180Z" />
<glyph unicode="&#xf9;" glyph-name="ugrave" d="M195 424V1118H379V424Q379 273 432 202T598 131Q728 131 797 222T866 485V1118H1051V0H866V168Q817 71 733 21T535 -29Q363 -29 279 83T195 424ZM477 1638L758 1262H604L279 1638H477Z" />
<glyph unicode="&#xfa;" glyph-name="uacute" d="M195 424V1118H379V424Q379 273 432 202T598 131Q728 131 797 222T866 485V1118H1051V0H866V168Q817 71 733 21T535 -29Q363 -29 279 83T195 424ZM756 1638H954L629 1262H475L756 1638Z" />
<glyph unicode="&#xfb;" glyph-name="ucircumflex" d="M195 424V1118H379V424Q379 273 432 202T598 131Q728 131 797 222T866 485V1118H1051V0H866V168Q817 71 733 21T535 -29Q363 -29 279 83T195 424ZM543 1638H690L936 1262H797L616 1507L436 1262H297L543 1638Z" />
<glyph unicode="&#xfc;" glyph-name="udieresis" d="M195 424V1118H379V424Q379 273 432 202T598 131Q728 131 797 222T866 485V1118H1051V0H866V168Q817 71 733 21T535 -29Q363 -29 279 83T195 424ZM319 1552H522V1350H319V1552ZM711 1552H913V1350H711V1552Z" />
<glyph unicode="&#xfd;" glyph-name="yacute" d="M858 360Q812 243 741 52Q642 -212 608 -270Q562 -348 493 -387T332 -426H184V-272H293Q374 -272 420 -225T537 18L104 1120H299L631 244L958 1120H1153L858 360ZM756 1638H954L629 1262H475L756 1638Z" />
<glyph unicode="&#xfe;" glyph-name="thorn" d="M375 141V-426H190V1567H375V977Q421 1060 497 1103T674 1147Q877 1147 992 990T1108 555Q1108 282 992 127T674 -29Q572 -29 496 14T375 141ZM915 559Q915 773 848 882T647 991Q513 991 444 882T375 559Q375 347
444 237T647 127Q780 127 847 236T915 559Z" />
<glyph unicode="&#xff;" glyph-name="ydieresis" d="M858 360Q812 243 741 52Q642 -212 608 -270Q562 -348 493 -387T332 -426H184V-272H293Q374 -272 420 -225T537 18L104 1120H299L631 244L958 1120H1153L858 360ZM319 1552H522V1350H319V1552ZM711 1552H913V1350H711V1552Z"
/>
<glyph unicode="&#x100;" glyph-name="Amacron" d="M317 1840H915V1692H317V1840ZM616 1315L403 551H829L616 1315ZM494 1493H739L1196 0H987L877 389H354L246 0H37L494 1493Z" />
<glyph unicode="&#x101;" glyph-name="amacron" d="M317 1526H915V1378H317V1526ZM702 563H641Q480 563 399 507T317 338Q317 237 378 181T547 125Q699 125 786 230T874 522V563H702ZM1059 639V0H874V166Q815 66 726 19T508 -29Q337 -29 235 67T133 326Q133 513
258 610T627 707H874V736Q873 870 806 930T592 991Q498 991 402 964T215 885V1069Q317 1108 410 1127T592 1147Q731 1147 829 1106T989 983Q1027 933 1043 860T1059 639Z" />
<glyph unicode="&#x102;" glyph-name="Abreve" d="M303 1901H422Q434 1847 484 1819T616 1790Q699 1790 747 1817T811 1901H930Q919 1782 840 1721T616 1659Q472 1659 393 1720T303 1901ZM616 1315L403 551H829L616 1315ZM494 1493H739L1196 0H987L877 389H354L246
0H37L494 1493Z" />
<glyph unicode="&#x103;" glyph-name="abreve" d="M303 1608H422Q433 1532 481 1495T616 1458Q701 1458 749 1495T811 1608H930Q919 1465 840 1393T616 1321Q472 1321 393 1393T303 1608ZM702 563H641Q480 563 399 507T317 338Q317 237 378 181T547 125Q699 125
786 230T874 522V563H702ZM1059 639V0H874V166Q815 66 726 19T508 -29Q337 -29 235 67T133 326Q133 513 258 610T627 707H874V736Q873 870 806 930T592 991Q498 991 402 964T215 885V1069Q317 1108 410 1127T592 1147Q731 1147 829 1106T989 983Q1027 933 1043
860T1059 639Z" />
<glyph unicode="&#x104;" glyph-name="Aogonek" d="M983 0H1102Q1057 -61 1036 -105T1014 -180Q1014 -226 1041 -249T1123 -272Q1155 -272 1186 -265T1248 -242V-375Q1210 -385 1176 -390T1112 -395Q990 -395 933 -352T875 -215Q875 -167 901 -115T983 0ZM616
1315L403 551H829L616 1315ZM494 1493H739L1196 0H987L877 389H354L246 0H37L494 1493Z" />
<glyph unicode="&#x105;" glyph-name="aogonek" d="M873 0H992Q947 -61 926 -105T904 -180Q904 -226 931 -249T1013 -272Q1045 -272 1076 -265T1138 -242V-375Q1100 -385 1066 -390T1002 -395Q880 -395 823 -352T765 -215Q765 -167 791 -115T873 0ZM702 563H641Q480
563 399 507T317 338Q317 237 378 181T547 125Q699 125 786 230T874 522V563H702ZM1059 639V0H874V166Q815 66 726 19T508 -29Q337 -29 235 67T133 326Q133 513 258 610T627 707H874V736Q873 870 806 930T592 991Q498 991 402 964T215 885V1069Q317 1108 410 1127T592
1147Q731 1147 829 1106T989 983Q1027 933 1043 860T1059 639Z" />
<glyph unicode="&#x106;" glyph-name="Cacute" d="M1073 53Q996 12 915 -8T743 -29Q456 -29 298 174T139 745Q139 1111 298 1315T743 1520Q834 1520 915 1500T1073 1438V1231Q999 1292 914 1324T743 1356Q546 1356 448 1204T350 745Q350 439 448 287T743 135Q831
135 915 167T1073 260V53ZM762 1899H948L719 1635H565L762 1899Z" />
<glyph unicode="&#x107;" glyph-name="cacute" d="M1061 57Q987 14 909 -7T748 -29Q488 -29 342 127T195 559Q195 835 341 991T748 1147Q829 1147 906 1126T1061 1061V868Q988 933 915 962T748 991Q575 991 482 879T389 559Q389 352 482 240T748 127Q844 127 920
156T1061 248V57ZM846 1638H1044L719 1262H565L846 1638Z" />
<glyph unicode="&#x108;" glyph-name="Ccircumflex" d="M648 1908H837L1048 1642H908L742 1820L577 1642H437L648 1908ZM1073 53Q996 12 915 -8T743 -29Q456 -29 298 174T139 745Q139 1111 298 1315T743 1520Q834 1520 915 1500T1073 1438V1231Q999 1292 914 1324T743
1356Q546 1356 448 1204T350 745Q350 439 448 287T743 135Q831 135 915 167T1073 260V53Z" />
<glyph unicode="&#x109;" glyph-name="ccircumflex" d="M633 1638H780L1026 1262H887L706 1507L526 1262H387L633 1638ZM1061 57Q987 14 909 -7T748 -29Q488 -29 342 127T195 559Q195 835 341 991T748 1147Q829 1147 906 1126T1061 1061V868Q988 933 915 962T748
991Q575 991 482 879T389 559Q389 352 482 240T748 127Q844 127 920 156T1061 248V57Z" />
<glyph unicode="&#x10a;" glyph-name="Cdotaccent" d="M588 1872H793V1667H588V1872ZM1073 53Q996 12 915 -8T743 -29Q456 -29 298 174T139 745Q139 1111 298 1315T743 1520Q834 1520 915 1500T1073 1438V1231Q999 1292 914 1324T743 1356Q546 1356 448 1204T350
745Q350 439 448 287T743 135Q831 135 915 167T1073 260V53Z" />
<glyph unicode="&#x10b;" glyph-name="cdotaccent" d="M588 1552H793V1348H588V1552ZM1061 57Q987 14 909 -7T748 -29Q488 -29 342 127T195 559Q195 835 341 991T748 1147Q829 1147 906 1126T1061 1061V868Q988 933 915 962T748 991Q575 991 482 879T389 559Q389
352 482 240T748 127Q844 127 920 156T1061 248V57Z" />
<glyph unicode="&#x10c;" glyph-name="Ccaron" d="M1073 53Q996 12 915 -8T743 -29Q456 -29 298 174T139 745Q139 1111 298 1315T743 1520Q834 1520 915 1500T1073 1438V1231Q999 1292 914 1324T743 1356Q546 1356 448 1204T350 745Q350 439 448 287T743 135Q831
135 915 167T1073 260V53ZM612 1635L401 1901H541L706 1723L872 1901H1012L801 1635H612Z" />
<glyph unicode="&#x10d;" glyph-name="ccaron" d="M1061 57Q987 14 909 -7T748 -29Q488 -29 342 127T195 559Q195 835 341 991T748 1147Q829 1147 906 1126T1061 1061V868Q988 933 915 962T748 991Q575 991 482 879T389 559Q389 352 482 240T748 127Q844 127 920
156T1061 248V57ZM633 1262L387 1638H526L706 1393L887 1638H1026L780 1262H633Z" />
<glyph unicode="&#x10e;" glyph-name="Dcaron" d="M436 166Q691 166 792 291T893 745Q893 1076 793 1201T436 1327H340V166H436ZM440 1493Q782 1493 944 1311T1106 745Q1106 363 944 182T440 0H137V1493H440ZM444 1629L233 1895H373L538 1717L704 1895H844L633 1629H444Z" />
<glyph unicode="&#x10f;" glyph-name="dcaron" d="M1114 1557H1312L1199 1181H1045L1114 1557ZM858 977V1556H1042V0H858V141Q812 58 736 15T559 -29Q356 -29 240 128T123 563Q123 836 240 991T559 1147Q660 1147 737 1104T858 977ZM317 559Q317 345 385 236T586
127Q719 127 788 237T858 559Q858 772 789 881T586 991Q453 991 385 882T317 559Z" />
<glyph unicode="&#x110;" glyph-name="Dcroat" d="M436 1493Q778 1493 940 1311T1102 745Q1102 363 940 182T436 0H133V709H8V858H133V1493H436ZM436 166Q691 166 792 291T893 745Q893 1076 793 1201T436 1327H340V858H604V709H340V166H436Z" />
<glyph unicode="&#x111;" glyph-name="" d="M858 977V1286H553V1407H858V1556H1042V1407H1233V1286H1042V0H858V141Q812 58 736 15T559 -29Q356 -29 240 128T123 563Q123 836 240 991T559 1147Q660 1147 737 1104T858 977ZM317 559Q317 345 385 236T586 127Q719
127 788 237T858 559Q858 772 789 881T586 991Q453 991 385 882T317 559Z" />
<glyph unicode="&#x112;" glyph-name="Emacron" d="M335 1840H933V1692H335V1840ZM197 1493H1083V1323H399V881H1053V711H399V170H1102V0H197V1493Z" />
<glyph unicode="&#x113;" glyph-name="emacron" d="M352 1526H950V1378H352V1526ZM1112 606V516H315V510Q315 327 410 227T680 127Q768 127 864 155T1069 240V57Q964 14 867 -7T678 -29Q417 -29 270 127T123 559Q123 827 267 987T651 1147Q865 1147 988 1002T1112
606ZM928 660Q924 822 852 906T643 991Q510 991 424 903T322 659L928 660Z" />
<glyph unicode="&#x114;" glyph-name="Ebreve" d="M321 1901H440Q452 1847 502 1819T634 1790Q717 1790 765 1817T829 1901H948Q937 1782 858 1721T634 1659Q490 1659 411 1720T321 1901ZM197 1493H1083V1323H399V881H1053V711H399V170H1102V0H197V1493Z" />
<glyph unicode="&#x115;" glyph-name="ebreve" d="M317 1608H436Q447 1532 495 1495T630 1458Q715 1458 763 1495T825 1608H944Q933 1465 854 1393T630 1321Q486 1321 407 1393T317 1608ZM1112 606V516H315V510Q315 327 410 227T680 127Q768 127 864 155T1069
240V57Q964 14 867 -7T678 -29Q417 -29 270 127T123 559Q123 827 267 987T651 1147Q865 1147 988 1002T1112 606ZM928 660Q924 822 852 906T643 991Q510 991 424 903T322 659L928 660Z" />
<glyph unicode="&#x116;" glyph-name="Edotaccent" d="M531 1872H736V1667H531V1872ZM197 1493H1083V1323H399V881H1053V711H399V170H1102V0H197V1493Z" />
<glyph unicode="&#x117;" glyph-name="edotaccent" d="M527 1552H732V1348H527V1552ZM1112 606V516H315V510Q315 327 410 227T680 127Q768 127 864 155T1069 240V57Q964 14 867 -7T678 -29Q417 -29 270 127T123 559Q123 827 267 987T651 1147Q865 1147 988 1002T1112
606ZM928 660Q924 822 852 906T643 991Q510 991 424 903T322 659L928 660Z" />
<glyph unicode="&#x118;" glyph-name="Eogonek" d="M833 0H952Q907 -61 886 -105T864 -180Q864 -226 891 -249T973 -272Q1005 -272 1036 -265T1098 -242V-375Q1060 -385 1026 -390T962 -395Q840 -395 783 -352T725 -215Q725 -167 751 -115T833 0ZM197 1493H1083V1323H399V881H1053V711H399V170H1102V0H197V1493Z"
/>
<glyph unicode="&#x119;" glyph-name="eogonek" d="M774 0H893Q848 -61 827 -105T805 -180Q805 -226 832 -249T914 -272Q946 -272 977 -265T1039 -242V-375Q1001 -385 967 -390T903 -395Q781 -395 724 -352T666 -215Q666 -167 692 -115T774 0ZM1112 606V516H315V510Q315
327 410 227T680 127Q768 127 864 155T1069 240V57Q964 14 867 -7T678 -29Q417 -29 270 127T123 559Q123 827 267 987T651 1147Q865 1147 988 1002T1112 606ZM928 660Q924 822 852 906T643 991Q510 991 424 903T322 659L928 660Z" />
<glyph unicode="&#x11a;" glyph-name="Ecaron" d="M197 1493H1083V1323H399V881H1053V711H399V170H1102V0H197V1493ZM558 1629L347 1895H487L652 1717L818 1895H958L747 1629H558Z" />
<glyph unicode="&#x11b;" glyph-name="ecaron" d="M1112 606V516H315V510Q315 327 410 227T680 127Q768 127 864 155T1069 240V57Q964 14 867 -7T678 -29Q417 -29 270 127T123 559Q123 827 267 987T651 1147Q865 1147 988 1002T1112 606ZM928 660Q924 822 852
906T643 991Q510 991 424 903T322 659L928 660ZM578 1513L332 1889H471L651 1644L832 1889H971L725 1513H578Z" />
<glyph unicode="&#x11c;" glyph-name="Gcircumflex" d="M522 1901H711L922 1635H782L616 1813L451 1635H311L522 1901ZM1104 123Q1023 48 922 10T702 -29Q418 -29 260 174T102 745Q102 1111 262 1315T707 1520Q801 1520 887 1494T1053 1413V1206Q972 1283 887
1319T707 1356Q510 1356 412 1204T313 745Q313 434 408 285T702 135Q769 135 819 150T911 199V600H694V766H1104V123Z" />
<glyph unicode="&#x11d;" glyph-name="gcircumflex" d="M543 1638H690L936 1262H797L616 1507L436 1262H297L543 1638ZM858 569Q858 776 791 883T594 991Q459 991 388 884T317 569Q317 362 388 254T596 145Q723 145 790 254T858 569ZM1042 72Q1042 -180 923 -310T573
-440Q497 -440 414 -426T248 -385V-203Q346 -249 426 -271T573 -293Q722 -293 790 -212T858 45V53V178Q814 84 738 38T553 -8Q357 -8 240 149T123 569Q123 833 240 990T553 1147Q661 1147 736 1104T858 971V1116H1042V72Z" />
<glyph unicode="&#x11e;" glyph-name="Gbreve" d="M353 1901H472Q484 1847 534 1819T666 1790Q749 1790 797 1817T861 1901H980Q969 1782 890 1721T666 1659Q522 1659 443 1720T353 1901ZM1104 123Q1023 48 922 10T702 -29Q418 -29 260 174T102 745Q102 1111 262
1315T707 1520Q801 1520 887 1494T1053 1413V1206Q972 1283 887 1319T707 1356Q510 1356 412 1204T313 745Q313 434 408 285T702 135Q769 135 819 150T911 199V600H694V766H1104V123Z" />
<glyph unicode="&#x11f;" glyph-name="gbreve" d="M303 1608H422Q433 1532 481 1495T616 1458Q701 1458 749 1495T811 1608H930Q919 1465 840 1393T616 1321Q472 1321 393 1393T303 1608ZM858 569Q858 776 791 883T594 991Q459 991 388 884T317 569Q317 362 388
254T596 145Q723 145 790 254T858 569ZM1042 72Q1042 -180 923 -310T573 -440Q497 -440 414 -426T248 -385V-203Q346 -249 426 -271T573 -293Q722 -293 790 -212T858 45V53V178Q814 84 738 38T553 -8Q357 -8 240 149T123 569Q123 833 240 990T553 1147Q661 1147
736 1104T858 971V1116H1042V72Z" />
<glyph unicode="&#x120;" glyph-name="Gdotaccent" d="M563 1872H768V1667H563V1872ZM1104 123Q1023 48 922 10T702 -29Q418 -29 260 174T102 745Q102 1111 262 1315T707 1520Q801 1520 887 1494T1053 1413V1206Q972 1283 887 1319T707 1356Q510 1356 412 1204T313
745Q313 434 408 285T702 135Q769 135 819 150T911 199V600H694V766H1104V123Z" />
<glyph unicode="&#x121;" glyph-name="gdotaccent" d="M513 1552H718V1348H513V1552ZM858 569Q858 776 791 883T594 991Q459 991 388 884T317 569Q317 362 388 254T596 145Q723 145 790 254T858 569ZM1042 72Q1042 -180 923 -310T573 -440Q497 -440 414 -426T248
-385V-203Q346 -249 426 -271T573 -293Q722 -293 790 -212T858 45V53V178Q814 84 738 38T553 -8Q357 -8 240 149T123 569Q123 833 240 990T553 1147Q661 1147 736 1104T858 971V1116H1042V72Z" />
<glyph unicode="&#x122;" glyph-name="Gcommaaccent" d="M630 -228H869L682 -573H536L630 -228ZM1104 123Q1023 48 922 10T702 -29Q418 -29 260 174T102 745Q102 1111 262 1315T707 1520Q801 1520 887 1494T1053 1413V1206Q972 1283 887 1319T707 1356Q510 1356
412 1204T313 745Q313 434 408 285T702 135Q769 135 819 150T911 199V600H694V766H1104V123Z" />
<glyph unicode="&#x123;" glyph-name="gcommaaccent" d="M725 1269H486L673 1614H819L725 1269ZM858 569Q858 776 791 883T594 991Q459 991 388 884T317 569Q317 362 388 254T596 145Q723 145 790 254T858 569ZM1042 72Q1042 -180 923 -310T573 -440Q497 -440
414 -426T248 -385V-203Q346 -249 426 -271T573 -293Q722 -293 790 -212T858 45V53V178Q814 84 738 38T553 -8Q357 -8 240 149T123 569Q123 833 240 990T553 1147Q661 1147 736 1104T858 971V1116H1042V72Z" />
<glyph unicode="&#x124;" glyph-name="Hcircumflex" d="M522 1901H711L922 1635H782L616 1813L451 1635H311L522 1901ZM137 1493H340V881H893V1493H1096V0H893V711H340V0H137V1493Z" />
<glyph unicode="&#x125;" glyph-name="hcircumflex" d="M522 1901H711L922 1635H782L616 1813L451 1635H311L522 1901ZM1051 694V0H866V694Q866 845 813 916T647 987Q518 987 449 896T379 633V0H195V1556H379V952Q428 1048 512 1097T711 1147Q882 1147 966 1035T1051
694Z" />
<glyph unicode="&#x126;" glyph-name="Hbar" d="M137 1493H339V1269H893V1493H1095V1269H1230V1105H1095V0H893V711H339V0H137V1105H3V1269H137V1493ZM339 1105V881H893V1105H339Z" />
<glyph unicode="&#x127;" glyph-name="hbar" d="M1051 694V0H866V694Q866 845 813 916T647 987Q518 987 449 896T379 633V0H195V1270H70V1434H195V1556H379V1434H732V1270H379V952Q428 1048 512 1097T711 1147Q882 1147 966 1035T1051 694Z" />
<glyph unicode="&#x128;" glyph-name="Itilde" d="M612 1710L555 1743Q530 1757 515 1762T487 1768Q452 1768 432 1743T412 1673V1667H287Q287 1768 338 1827T475 1886Q511 1886 541 1878T621 1843L678 1813Q700 1800 717 1794T750 1788Q781 1788 801 1813T821
1880V1886H946Q944 1786 893 1727T758 1667Q724 1667 694 1675T612 1710ZM201 1493H1030V1323H717V170H1030V0H201V170H514V1323H201V1493Z" />
<glyph unicode="&#x129;" glyph-name="itilde" d="M612 1370L555 1425Q534 1445 518 1454T487 1464Q449 1464 431 1427T411 1309H287Q288 1443 339 1517T481 1591Q520 1591 552 1577T621 1530L678 1475Q699 1455 715 1446T745 1436Q784 1436 802 1473T821 1591H946Q945
1457 894 1383T752 1309Q713 1309 681 1323T612 1370ZM256 1120H727V143H1092V0H178V143H543V977H256V1120Z" />
<glyph unicode="&#x12a;" glyph-name="Imacron" d="M317 1840H915V1692H317V1840ZM201 1493H1030V1323H717V170H1030V0H201V170H514V1323H201V1493Z" />
<glyph unicode="&#x12b;" glyph-name="imacron" d="M317 1526H915V1378H317V1526ZM256 1120H727V143H1092V0H178V143H543V977H256V1120Z" />
<glyph unicode="&#x12c;" glyph-name="Ibreve" d="M303 1901H422Q434 1847 484 1819T616 1790Q699 1790 747 1817T811 1901H930Q919 1782 840 1721T616 1659Q472 1659 393 1720T303 1901ZM201 1493H1030V1323H717V170H1030V0H201V170H514V1323H201V1493Z" />
<glyph unicode="&#x12d;" glyph-name="ibreve" d="M303 1608H422Q433 1532 481 1495T616 1458Q701 1458 749 1495T811 1608H930Q919 1465 840 1393T616 1321Q472 1321 393 1393T303 1608ZM256 1120H727V143H1092V0H178V143H543V977H256V1120Z" />
<glyph unicode="&#x12e;" glyph-name="Iogonek" d="M201 1493H1030V1323H717V170H1030V0H201V170H514V1323H201V1493ZM598 0H717Q672 -61 651 -105T629 -180Q629 -226 656 -249T738 -272Q770 -272 801 -265T863 -242V-375Q825 -385 791 -390T727 -395Q605 -395
548 -352T490 -215Q490 -167 516 -115T598 0Z" />
<glyph unicode="&#x12f;" glyph-name="iogonek" d="M256 1120H727V143H1092V0H178V143H543V977H256V1120ZM543 1556H727V1323H543V1556ZM608 0H727Q682 -61 661 -105T639 -180Q639 -226 666 -249T748 -272Q780 -272 811 -265T873 -242V-375Q835 -385 801 -390T737
-395Q615 -395 558 -352T500 -215Q500 -167 526 -115T608 0Z" />
<glyph unicode="&#x130;" glyph-name="Idot" d="M513 1872H718V1667H513V1872ZM201 1493H1030V1323H717V170H1030V0H201V170H514V1323H201V1493Z" />
<glyph unicode="&#x131;" glyph-name="dotlessi" d="M256 1120H727V143H1092V0H178V143H543V977H256V1120Z" />
<glyph unicode="&#x132;" glyph-name="IJ" d="M652 64V300Q713 219 779 179T916 138Q1013 138 1052 212Q1090 287 1090 490V1326H831V1496H1228V490Q1228 208 1156 91Q1084 -26 916 -26Q851 -26 786 -4Q722 18 652 64ZM-1 1493H604V1323H376V170H604V0H-1V170H227V1323H-1V1493Z"
/>
<glyph unicode="&#x133;" glyph-name="ij" d="M978 -31V966H661V1109H1162V-31Q1162 -226 1073 -331T818 -437H564V-281H798Q888 -281 933 -219T978 -31ZM978 1545H1162V1312H978V1545ZM59 1120H445V143H745V0H-5V143H294V977H59V1120ZM294 1556H445V1323H294V1556Z" />
<glyph unicode="&#x134;" glyph-name="Jcircumflex" d="M570 1901H759L970 1635H830L664 1813L499 1635H359L570 1901ZM109 61V297Q200 216 297 176T498 135Q641 135 697 209T754 487V1323H373V1493H956V487Q956 205 851 88T498 -29Q402 -29 307 -7T109 61Z" />
<glyph unicode="&#x135;" glyph-name="jcircumflex" d="M543 1638H690L936 1262H797L616 1507L436 1262H297L543 1638ZM600 -20V977H283V1120H784V-20Q784 -215 695 -320T440 -426H186V-270H420Q510 -270 555 -208T600 -20Z" />
<glyph unicode="&#x136;" glyph-name="Kcommaaccent" d="M608 57H847L660 -288H514L608 57ZM137 1493H340V829L971 1493H1208L627 883L1225 0H981L494 748L340 584V0H137V1493Z" />
<glyph unicode="&#x137;" glyph-name="kcommaaccent" d="M646 -199H885L698 -544H552L646 -199ZM236 1556H426V655L909 1120H1133L692 698L1202 0H977L563 578L426 449V0H236V1556Z" />
<glyph unicode="&#x138;" glyph-name="kgreenlandic" d="M236 1120H426V655L909 1120H1133L692 698L1202 0H977L563 578L426 449V0H236V1120Z" />
<glyph unicode="&#x139;" glyph-name="Lacute" d="M397 1900H583L354 1636H200L397 1900ZM215 1493H418V170H1139V0H215V1493Z" />
<glyph unicode="&#x13a;" glyph-name="lacute" d="M577 1900H763L534 1636H380L577 1900ZM639 406Q639 282 684 219T819 156H1034V0H801Q636 0 546 106T455 406V1423H160V1567H639V406Z" />
<glyph unicode="&#x13b;" glyph-name="Lcommaaccent" d="M604 57H843L656 -288H510L604 57ZM215 1493H418V170H1139V0H215V1493Z" />
<glyph unicode="&#x13c;" glyph-name="lcommaaccent" d="M753 57H992L805 -288H659L753 57ZM639 406Q639 282 684 219T819 156H1034V0H801Q636 0 546 106T455 406V1423H160V1567H639V406Z" />
<glyph unicode="&#x13d;" glyph-name="Lcaron" d="M718 1491H916L803 1115H649L718 1491ZM215 1493H418V170H1139V0H215V1493Z" />
<glyph unicode="&#x13e;" glyph-name="lcaron" d="M960 1567H1158L1045 1191H891L960 1567ZM639 406Q639 282 684 219T819 156H1034V0H801Q636 0 546 106T455 406V1423H160V1567H639V406Z" />
<glyph unicode="&#x13f;" glyph-name="Ldot" d="M841 998H1093V693H841V998ZM215 1493H418V170H1139V0H215V1493Z" />
<glyph unicode="&#x140;" glyph-name="ldot" d="M960 1008H1212V703H960V1008ZM639 406Q639 282 684 219T819 156H1034V0H801Q636 0 546 106T455 406V1423H160V1567H639V406Z" />
<glyph unicode="&#x141;" glyph-name="Lslash" d="M215 1493H418V877L733 1096L811 985L418 711V170H1139V0H215V571L70 465L-10 575L215 733V1493Z" />
<glyph unicode="&#x142;" glyph-name="lslash" d="M639 406Q639 282 684 219T819 156H1034V0H801Q636 0 546 106T455 406V698L156 489L76 600L455 864V1423H160V1567H639V989L954 1208L1034 1098L639 823V406Z" />
<glyph unicode="&#x143;" glyph-name="Nacute" d="M705 1899H891L662 1635H508L705 1899ZM139 1493H395L899 264V1493H1094V0H838L334 1229V0H139V1493Z" />
<glyph unicode="&#x144;" glyph-name="nacute" d="M776 1645H974L649 1269H495L776 1645ZM1051 694V0H866V694Q866 845 813 916T647 987Q518 987 449 896T379 633V0H195V1120H379V952Q428 1048 512 1097T711 1147Q882 1147 966 1035T1051 694Z" />
<glyph unicode="&#x145;" glyph-name="Ncommaaccent" d="M544 57H783L596 -288H450L544 57ZM139 1493H395L899 264V1493H1094V0H838L334 1229V0H139V1493Z" />
<glyph unicode="&#x146;" glyph-name="ncommaaccent" d="M550 57H789L602 -288H456L550 57ZM1051 694V0H866V694Q866 845 813 916T647 987Q518 987 449 896T379 633V0H195V1120H379V952Q428 1048 512 1097T711 1147Q882 1147 966 1035T1051 694Z" />
<glyph unicode="&#x147;" glyph-name="Ncaron" d="M139 1493H395L899 264V1493H1094V0H838L334 1229V0H139V1493ZM564 1635L353 1901H493L658 1723L824 1901H964L753 1635H564Z" />
<glyph unicode="&#x148;" glyph-name="ncaron" d="M1051 694V0H866V694Q866 845 813 916T647 987Q518 987 449 896T379 633V0H195V1120H379V952Q428 1048 512 1097T711 1147Q882 1147 966 1035T1051 694ZM787 1262L541 1638H680L860 1393L1041 1638H1180L934 1262H787Z" />
<glyph unicode="&#x149;" glyph-name="napostrophe" d="M1174 694V0H989V694Q989 845 936 916T770 987Q641 987 572 896T502 633V0H318V1120H502V952Q551 1048 635 1097T834 1147Q1005 1147 1089 1035T1174 694ZM122 1556H374V1350L177 967H24L122 1350V1556Z" />
<glyph unicode="&#x14a;" glyph-name="Eng" d="M1085 999V-20Q1085 -215 996 -320Q906 -426 741 -426H536V-270H703Q793 -270 838 -208Q882 -146 882 0V1009Q882 1189 824 1273T642 1358Q501 1358 425 1249T349 937V0H147V1493H349V1295Q403 1406 495 1464T713
1522Q900 1522 992 1392T1085 999Z" />
<glyph unicode="&#x14b;" glyph-name="eng" d="M1051 694V-20Q1051 -215 962 -320Q872 -426 707 -426H502V-270H687Q777 -270 822 -208Q866 -146 866 -20V694Q866 845 813 916T647 987Q518 987 448 896Q379 804 379 633V0H195V1120H379V952Q428 1048 512 1098Q596
1147 711 1147Q882 1147 966 1034Q1051 922 1051 694Z" />
<glyph unicode="&#x14c;" glyph-name="Omacron" d="M317 1840H915V1692H317V1840ZM905 745Q905 1074 838 1215T616 1356Q463 1356 396 1215T328 745Q328 417 395 276T616 135Q770 135 837 275T905 745ZM1116 745Q1116 355 993 163T616 -29Q363 -29 240 162T117
745Q117 1136 240 1328T616 1520Q869 1520 992 1328T1116 745Z" />
<glyph unicode="&#x14d;" glyph-name="omacron" d="M317 1526H915V1378H317V1526ZM616 991Q476 991 404 882T332 559Q332 346 404 237T616 127Q757 127 829 236T901 559Q901 773 829 882T616 991ZM616 1147Q849 1147 972 996T1096 559Q1096 272 973 122T616 -29Q383
-29 260 121T137 559Q137 845 260 996T616 1147Z" />
<glyph unicode="&#x14e;" glyph-name="Obreve" d="M303 1901H422Q434 1847 484 1819T616 1790Q699 1790 747 1817T811 1901H930Q919 1782 840 1721T616 1659Q472 1659 393 1720T303 1901ZM905 745Q905 1074 838 1215T616 1356Q463 1356 396 1215T328 745Q328 417
395 276T616 135Q770 135 837 275T905 745ZM1116 745Q1116 355 993 163T616 -29Q363 -29 240 162T117 745Q117 1136 240 1328T616 1520Q869 1520 992 1328T1116 745Z" />
<glyph unicode="&#x14f;" glyph-name="obreve" d="M303 1608H422Q433 1532 481 1495T616 1458Q701 1458 749 1495T811 1608H930Q919 1465 840 1393T616 1321Q472 1321 393 1393T303 1608ZM616 991Q476 991 404 882T332 559Q332 346 404 237T616 127Q757 127 829
236T901 559Q901 773 829 882T616 991ZM616 1147Q849 1147 972 996T1096 559Q1096 272 973 122T616 -29Q383 -29 260 121T137 559Q137 845 260 996T616 1147Z" />
<glyph unicode="&#x150;" glyph-name="Ohungarumlaut" d="M860 1899H1046L817 1635H663L860 1899ZM541 1899H727L498 1635H344L541 1899ZM905 745Q905 1074 838 1215T616 1356Q463 1356 396 1215T328 745Q328 417 395 276T616 135Q770 135 837 275T905 745ZM1116
745Q1116 355 993 163T616 -29Q363 -29 240 162T117 745Q117 1136 240 1328T616 1520Q869 1520 992 1328T1116 745Z" />
<glyph unicode="&#x151;" glyph-name="ohungarumlaut" d="M535 1638H705L481 1262H344L535 1638ZM868 1638H1047L799 1262H664L868 1638ZM616 991Q476 991 404 882T332 559Q332 346 404 237T616 127Q757 127 829 236T901 559Q901 773 829 882T616 991ZM616 1147Q849
1147 972 996T1096 559Q1096 272 973 122T616 -29Q383 -29 260 121T137 559Q137 845 260 996T616 1147Z" />
<glyph unicode="&#x152;" glyph-name="OE" d="M1217 170V0H612Q317 0 195 166T72 745Q72 1162 194 1327T612 1493H1206V1323H848V881H1176V711H848V170H1217ZM590 1323Q413 1323 344 1208T274 745Q274 399 343 285T590 170H651V1323H590Z" />
<glyph unicode="&#x153;" glyph-name="oe" d="M1047 657Q1047 668 1048 687T1049 715Q1049 860 1009 927T883 995Q796 995 758 927T719 700V657H1047ZM373 123Q475 123 516 207T557 530Q557 821 517 908T373 995Q270 995 230 912T190 559Q190 290 230 207T373
123ZM1210 514H719V430Q719 267 768 195T930 123Q1010 123 1075 149T1188 227V55Q1129 12 1067 -8T930 -29Q832 -29 759 4T637 104Q585 36 521 4T373 -29Q184 -29 99 109T14 559Q14 871 99 1009T373 1147Q462 1147 526 1116T637 1020Q674 1082 739 1114T891 1147Q1066
1147 1138 1029T1210 604V514Z" />
<glyph unicode="&#x154;" glyph-name="Racute" d="M597 1899H783L554 1635H400L597 1899ZM760 705Q838 685 893 630T1030 408L1233 0H1016L838 377Q761 538 700 584T539 631H346V0H143V1493H559Q805 1493 936 1382T1067 1061Q1067 913 987 820T760 705ZM346 1327V797H567Q712
797 783 862T854 1061Q854 1190 779 1258T559 1327H346Z" />
<glyph unicode="&#x155;" glyph-name="racute" d="M962 1645H1160L835 1269H681L962 1645ZM1155 889Q1096 935 1035 956T901 977Q729 977 638 869T547 557V0H362V1120H547V901Q593 1020 688 1083T915 1147Q983 1147 1042 1130T1155 1077V889Z" />
<glyph unicode="&#x156;" glyph-name="Rcommaaccent" d="M616 57H855L668 -288H522L616 57ZM760 705Q838 685 893 630T1030 408L1233 0H1016L838 377Q761 538 700 584T539 631H346V0H143V1493H559Q805 1493 936 1382T1067 1061Q1067 913 987 820T760 705ZM346
1327V797H567Q712 797 783 862T854 1061Q854 1190 779 1258T559 1327H346Z" />
<glyph unicode="&#x157;" glyph-name="rcommaaccent" d="M638 57H877L690 -288H544L638 57ZM1155 889Q1096 935 1035 956T901 977Q729 977 638 869T547 557V0H362V1120H547V901Q593 1020 688 1083T915 1147Q983 1147 1042 1130T1155 1077V889Z" />
<glyph unicode="&#x158;" glyph-name="Rcaron" d="M760 705Q838 685 893 630T1030 408L1233 0H1016L838 377Q761 538 700 584T539 631H346V0H143V1493H559Q805 1493 936 1382T1067 1061Q1067 913 987 820T760 705ZM346 1327V797H567Q712 797 783 862T854 1061Q854
1190 779 1258T559 1327H346ZM462 1629L251 1895H391L556 1717L722 1895H862L651 1629H462Z" />
<glyph unicode="&#x159;" glyph-name="rcaron" d="M1155 889Q1096 935 1035 956T901 977Q729 977 638 869T547 557V0H362V1120H547V901Q593 1020 688 1083T915 1147Q983 1147 1042 1130T1155 1077V889ZM633 1262L387 1638H526L706 1393L887 1638H1026L780 1262H633Z" />
<glyph unicode="&#x15a;" glyph-name="Sacute" d="M697 1899H883L654 1635H500L697 1899ZM1012 1442V1237Q920 1296 828 1326T641 1356Q498 1356 415 1290T332 1110Q332 1011 386 959T590 872L696 848Q906 799 1002 694T1098 408Q1098 195 966 83T582 -29Q477
-29 371 -7T158 61V276Q273 203 375 169T582 135Q735 135 820 203T905 395Q905 507 847 566T643 657L535 682Q327 729 233 824T139 1079Q139 1279 273 1399T631 1520Q717 1520 812 1501T1012 1442Z" />
<glyph unicode="&#x15b;" glyph-name="sacute" d="M782 1645H980L655 1269H501L782 1645ZM973 1081V901Q894 947 814 970T651 993Q526 993 465 953T403 829Q403 754 449 717T678 645L752 631Q889 605 959 527T1030 324Q1030 158 912 65T584 -29Q501 -29 410 -12T213
41V231Q316 178 410 152T588 125Q710 125 777 174T844 313Q844 441 599 490L591 492L522 506Q363 537 290 610T217 811Q217 972 326 1059T637 1147Q727 1147 810 1131T973 1081Z" />
<glyph unicode="&#x15c;" glyph-name="Scircumflex" d="M522 1901H711L922 1635H782L616 1813L451 1635H311L522 1901ZM1012 1442V1237Q920 1296 828 1326T641 1356Q498 1356 415 1290T332 1110Q332 1011 386 959T590 872L696 848Q906 799 1002 694T1098 408Q1098
195 966 83T582 -29Q477 -29 371 -7T158 61V276Q273 203 375 169T582 135Q735 135 820 203T905 395Q905 507 847 566T643 657L535 682Q327 729 233 824T139 1079Q139 1279 273 1399T631 1520Q717 1520 812 1501T1012 1442Z" />
<glyph unicode="&#x15d;" glyph-name="scircumflex" d="M543 1638H690L936 1262H797L616 1507L436 1262H297L543 1638ZM973 1081V901Q894 947 814 970T651 993Q526 993 465 953T403 829Q403 754 449 717T678 645L752 631Q889 605 959 527T1030 324Q1030 158 912
65T584 -29Q501 -29 410 -12T213 41V231Q316 178 410 152T588 125Q710 125 777 174T844 313Q844 441 599 490L591 492L522 506Q363 537 290 610T217 811Q217 972 326 1059T637 1147Q727 1147 810 1131T973 1081Z" />
<glyph unicode="&#x15e;" glyph-name="Scedilla" d="M700 0Q756 -62 782 -114T809 -215Q809 -304 749 -349T571 -395Q526 -395 483 -389T395 -371V-240Q429 -257 466 -264T551 -272Q609 -272 639 -248T670 -178Q670 -148 648 -105T582 0H700ZM1012 1442V1237Q920
1296 828 1326T641 1356Q498 1356 415 1290T332 1110Q332 1011 386 959T590 872L696 848Q906 799 1002 694T1098 408Q1098 195 966 83T582 -29Q477 -29 371 -7T158 61V276Q273 203 375 169T582 135Q735 135 820 203T905 395Q905 507 847 566T643 657L535 682Q327
729 233 824T139 1079Q139 1279 273 1399T631 1520Q717 1520 812 1501T1012 1442Z" />
<glyph unicode="&#x15f;" glyph-name="scedilla" d="M700 0Q756 -62 782 -114T809 -215Q809 -304 749 -349T571 -395Q526 -395 483 -389T395 -371V-240Q429 -257 466 -264T551 -272Q609 -272 639 -248T670 -178Q670 -148 648 -105T582 0H700ZM973 1081V901Q894
947 814 970T651 993Q526 993 465 953T403 829Q403 754 449 717T678 645L752 631Q889 605 959 527T1030 324Q1030 158 912 65T584 -29Q501 -29 410 -12T213 41V231Q316 178 410 152T588 125Q710 125 777 174T844 313Q844 441 599 490L591 492L522 506Q363 537 290
610T217 811Q217 972 326 1059T637 1147Q727 1147 810 1131T973 1081Z" />
<glyph unicode="&#x160;" glyph-name="Scaron" d="M1012 1442V1237Q920 1296 828 1326T641 1356Q498 1356 415 1290T332 1110Q332 1011 386 959T590 872L696 848Q906 799 1002 694T1098 408Q1098 195 966 83T582 -29Q477 -29 371 -7T158 61V276Q273 203 375 169T582
135Q735 135 820 203T905 395Q905 507 847 566T643 657L535 682Q327 729 233 824T139 1079Q139 1279 273 1399T631 1520Q717 1520 812 1501T1012 1442ZM522 1635L311 1901H451L616 1723L782 1901H922L711 1635H522Z" />
<glyph unicode="&#x161;" glyph-name="scaron" d="M973 1081V901Q894 947 814 970T651 993Q526 993 465 953T403 829Q403 754 449 717T678 645L752 631Q889 605 959 527T1030 324Q1030 158 912 65T584 -29Q501 -29 410 -12T213 41V231Q316 178 410 152T588 125Q710
125 777 174T844 313Q844 441 599 490L591 492L522 506Q363 537 290 610T217 811Q217 972 326 1059T637 1147Q727 1147 810 1131T973 1081ZM543 1262L297 1638H436L616 1393L797 1638H936L690 1262H543Z" />
<glyph unicode="&#x162;" glyph-name="Tcommaaccent" d="M700 0Q756 -62 782 -114T809 -215Q809 -304 749 -349T571 -395Q526 -395 483 -389T395 -371V-240Q429 -257 466 -264T551 -272Q609 -272 639 -248T670 -178Q670 -148 648 -105T582 0H700ZM47 1493H1186V1323H719V0H516V1323H47V1493Z"
/>
<glyph unicode="&#x163;" glyph-name="tcommaaccent" d="M821 0Q877 -62 903 -114T930 -215Q930 -304 870 -349T692 -395Q647 -395 604 -389T516 -371V-240Q550 -257 587 -264T672 -272Q730 -272 760 -248T791 -178Q791 -148 769 -105T703 0H821ZM614 1438V1120H1032V977H614V369Q614
245 661 196T825 147H1032V0H807Q600 0 515 83T430 369V977H131V1120H430V1438H614Z" />
<glyph unicode="&#x164;" glyph-name="Tcaron" d="M47 1493H1186V1323H719V0H516V1323H47V1493ZM528 1635L317 1901H457L622 1723L788 1901H928L717 1635H528Z" />
<glyph unicode="&#x165;" glyph-name="tcaron" d="M614 1438V1120H1032V977H614V369Q614 245 661 196T825 147H1032V0H807Q600 0 515 83T430 369V977H131V1120H430V1438H614ZM820 1662H1018L905 1286H751L820 1662Z" />
<glyph unicode="&#x166;" glyph-name="Tbar" d="M47 1493H1186V1323H719V747H984V577H719V0H516V577H251V747H516V1323H47V1493Z" />
<glyph unicode="&#x167;" glyph-name="tbar" d="M614 1438V1120H1032V977H614V744H843V602H614V369Q614 245 661 196T825 147H1032V0H807Q600 0 515 83T430 369V602H201V744H430V977H131V1120H430V1438H614Z" />
<glyph unicode="&#x168;" glyph-name="Utilde" d="M612 1710L555 1743Q530 1757 515 1762T487 1768Q452 1768 432 1743T412 1673V1667H287Q287 1768 338 1827T475 1886Q511 1886 541 1878T621 1843L678 1813Q700 1800 717 1794T750 1788Q781 1788 801 1813T821
1880V1886H946Q944 1786 893 1727T758 1667Q724 1667 694 1675T612 1710ZM147 573V1493H350V481Q350 372 356 326T377 254Q409 195 469 165T616 135Q703 135 763 165T856 254Q871 279 877 325T883 479V1493H1085V573Q1085 344 1057 248T958 88Q892 29 807 0T616
-29Q511 -29 426 0T274 88Q205 150 176 248T147 573Z" />
<glyph unicode="&#x169;" glyph-name="utilde" d="M612 1370L555 1425Q534 1445 518 1454T487 1464Q449 1464 431 1427T411 1309H287Q288 1443 339 1517T481 1591Q520 1591 552 1577T621 1530L678 1475Q699 1455 715 1446T745 1436Q784 1436 802 1473T821 1591H946Q945
1457 894 1383T752 1309Q713 1309 681 1323T612 1370ZM195 424V1118H379V424Q379 273 432 202T598 131Q728 131 797 222T866 485V1118H1051V0H866V168Q817 71 733 21T535 -29Q363 -29 279 83T195 424Z" />
<glyph unicode="&#x16a;" glyph-name="Umacron" d="M317 1840H915V1692H317V1840ZM147 573V1493H350V481Q350 372 356 326T377 254Q409 195 469 165T616 135Q703 135 763 165T856 254Q871 279 877 325T883 479V1493H1085V573Q1085 344 1057 248T958 88Q892 29
807 0T616 -29Q511 -29 426 0T274 88Q205 150 176 248T147 573Z" />
<glyph unicode="&#x16b;" glyph-name="umacron" d="M317 1526H915V1378H317V1526ZM195 424V1118H379V424Q379 273 432 202T598 131Q728 131 797 222T866 485V1118H1051V0H866V168Q817 71 733 21T535 -29Q363 -29 279 83T195 424Z" />
<glyph unicode="&#x16c;" glyph-name="Ubreve" d="M303 1901H422Q434 1847 484 1819T616 1790Q699 1790 747 1817T811 1901H930Q919 1782 840 1721T616 1659Q472 1659 393 1720T303 1901ZM147 573V1493H350V481Q350 372 356 326T377 254Q409 195 469 165T616 135Q703
135 763 165T856 254Q871 279 877 325T883 479V1493H1085V573Q1085 344 1057 248T958 88Q892 29 807 0T616 -29Q511 -29 426 0T274 88Q205 150 176 248T147 573Z" />
<glyph unicode="&#x16d;" glyph-name="ubreve" d="M303 1608H422Q433 1532 481 1495T616 1458Q701 1458 749 1495T811 1608H930Q919 1465 840 1393T616 1321Q472 1321 393 1393T303 1608ZM195 424V1118H379V424Q379 273 432 202T598 131Q728 131 797 222T866 485V1118H1051V0H866V168Q817
71 733 21T535 -29Q363 -29 279 83T195 424Z" />
<glyph unicode="&#x16e;" glyph-name="Uring" d="M147 573V1493H350V481Q350 372 356 326T377 254Q409 195 469 165T616 135Q703 135 763 165T856 254Q871 279 877 325T883 479V1493H1085V573Q1085 344 1057 248T958 88Q892 29 807 0T616 -29Q511 -29 426 0T274
88Q205 150 176 248T147 573ZM901 1859Q901 1744 822 1664T626 1584Q511 1584 432 1664T352 1859Q352 1974 431 2053T626 2133Q742 2133 821 2054T901 1859ZM778 1859Q778 1922 734 1966T626 2010Q562 2010 519 1967T475 1859Q475 1794 518 1751T626 1707Q690 1707
734 1751T778 1859Z" />
<glyph unicode="&#x16f;" glyph-name="uring" d="M195 424V1118H379V424Q379 273 432 202T598 131Q728 131 797 222T866 485V1118H1051V0H866V168Q817 71 733 21T535 -29Q363 -29 279 83T195 424ZM906 1735Q906 1620 827 1540T631 1460Q516 1460 437 1540T357
1735Q357 1850 436 1929T631 2009Q747 2009 826 1930T906 1735ZM783 1735Q783 1798 739 1842T631 1886Q567 1886 524 1843T480 1735Q480 1670 523 1627T631 1583Q695 1583 739 1627T783 1735Z" />
<glyph unicode="&#x170;" glyph-name="Uhungarumlaut" d="M860 1899H1046L817 1635H663L860 1899ZM541 1899H727L498 1635H344L541 1899ZM147 573V1493H350V481Q350 372 356 326T377 254Q409 195 469 165T616 135Q703 135 763 165T856 254Q871 279 877 325T883
479V1493H1085V573Q1085 344 1057 248T958 88Q892 29 807 0T616 -29Q511 -29 426 0T274 88Q205 150 176 248T147 573Z" />
<glyph unicode="&#x171;" glyph-name="uhungarumlaut" d="M535 1638H705L481 1262H344L535 1638ZM868 1638H1047L799 1262H664L868 1638ZM195 424V1118H379V424Q379 273 432 202T598 131Q728 131 797 222T866 485V1118H1051V0H866V168Q817 71 733 21T535 -29Q363
-29 279 83T195 424Z" />
<glyph unicode="&#x172;" glyph-name="Uogonek" d="M147 573V1493H350V481Q350 372 356 326T377 254Q409 195 469 165T616 135Q703 135 763 165T856 254Q871 279 877 325T883 479V1493H1085V573Q1085 344 1057 248T958 88Q892 29 807 0T616 -29Q511 -29 426 0T274
88Q205 150 176 248T147 573ZM556 240H675Q630 179 609 135T587 60Q587 14 614 -9T696 -32Q728 -32 759 -25T821 -2V-135Q783 -145 749 -150T685 -155Q563 -155 506 -112T448 25Q448 73 474 125T556 240Z" />
<glyph unicode="&#x173;" glyph-name="uogonek" d="M195 424V1118H379V424Q379 273 432 202T598 131Q728 131 797 222T866 485V1118H1051V0H866V168Q817 71 733 21T535 -29Q363 -29 279 83T195 424ZM935 0H1054Q1009 -61 988 -105T966 -180Q966 -226 993 -249T1075
-272Q1107 -272 1138 -265T1200 -242V-375Q1162 -385 1128 -390T1064 -395Q942 -395 885 -352T827 -215Q827 -167 853 -115T935 0Z" />
<glyph unicode="&#x174;" glyph-name="Wcircumflex" d="M522 1908H711L922 1642H782L616 1820L451 1642H311L522 1908ZM0 1493H197L340 281L510 1083H721L893 279L1036 1493H1233L1010 0H819L616 887L414 0H223L0 1493Z" />
<glyph unicode="&#x175;" glyph-name="wcircumflex" d="M543 1645H690L936 1269H797L616 1514L436 1269H297L543 1645ZM0 1120H182L377 215L537 793H694L856 215L1051 1120H1233L971 0H795L616 614L438 0H262L0 1120Z" />
<glyph unicode="&#x176;" glyph-name="Ycircumflex" d="M522 1908H711L922 1642H782L616 1820L451 1642H311L522 1908ZM37 1493H252L616 834L979 1493H1196L717 670V0H514V670L37 1493Z" />
<glyph unicode="&#x177;" glyph-name="ycircumflex" d="M555 1645H702L948 1269H809L628 1514L448 1269H309L555 1645ZM858 360Q812 243 741 52Q642 -212 608 -270Q562 -348 493 -387T332 -426H184V-272H293Q374 -272 420 -225T537 18L104 1120H299L631 244L958
1120H1153L858 360Z" />
<glyph unicode="&#x178;" glyph-name="Ydieresis" d="M37 1493H252L616 834L979 1493H1196L717 670V0H514V670L37 1493ZM319 1870H522V1667H319V1870ZM711 1870H913V1667H711V1870Z" />
<glyph unicode="&#x179;" glyph-name="Zacute" d="M699 1899H885L656 1635H502L699 1899ZM178 1493H1147V1339L367 170H1169V0H156V154L915 1323H178V1493Z" />
<glyph unicode="&#x17a;" glyph-name="zacute" d="M842 1645H1040L715 1269H561L842 1645ZM227 1122H1040V954L397 150H1040V0H203V170L846 975H227V1122Z" />
<glyph unicode="&#x17b;" glyph-name="Zdotaccent" d="M563 1872H768V1667H563V1872ZM178 1493H1147V1339L367 170H1169V0H156V154L915 1323H178V1493Z" />
<glyph unicode="&#x17c;" glyph-name="zdotaccent" d="M513 1552H718V1348H513V1552ZM227 1122H1040V954L397 150H1040V0H203V170L846 975H227V1122Z" />
<glyph unicode="&#x17d;" glyph-name="Zcaron" d="M178 1493H1147V1339L367 170H1169V0H156V154L915 1323H178V1493ZM522 1635L311 1901H451L616 1723L782 1901H922L711 1635H522Z" />
<glyph unicode="&#x17e;" glyph-name="zcaron" d="M227 1122H1040V954L397 150H1040V0H203V170L846 975H227V1122ZM543 1262L297 1638H436L616 1393L797 1638H936L690 1262H543Z" />
<glyph unicode="&#x17f;" glyph-name="longs" d="M678 1219V0H494V977H195V1120H494V1198Q494 1382 578 1469T842 1556H1063V1403H854Q755 1403 717 1363T678 1219Z" />
<glyph unicode="&#x180;" glyph-name="uni0180" d="M377 977Q421 1059 498 1103T678 1147Q880 1147 996 992T1112 563Q1112 286 996 129T676 -29Q576 -29 500 14T377 141V0H193V1270H70V1434H193V1556H377V1434H379H732V1270H379H377V977ZM918 345T918 559T850
882T649 991Q515 991 446 882T377 559Q377 347 446 237T649 127Q782 127 850 236Z" />
<glyph unicode="&#x181;" glyph-name="uni0181" d="M540 713V166H660Q836 166 911 227T986 430Q986 576 907 644T660 713H540ZM540 1327V877H656Q802 877 867 933T933 1114Q933 1227 869 1277T656 1327H540ZM338 1493H660Q889 1493 1013 1394T1137 1114Q1137 977
1072 898T875 799Q1022 777 1105 674T1189 410Q1189 207 1056 104T660 0H338V1327Q276 1327 226 1284T176 1128V1079H20V1149Q20 1308 104 1400T338 1493Z" />
<glyph unicode="&#x182;" glyph-name="uni0182" d="M369 713V166H608Q784 166 859 227T934 430Q934 576 855 644T608 713H369ZM1068 1327H369V877H604Q983 862 1084 671Q1137 571 1137 410Q1137 207 1004 104Q871 0 608 0H166V1493H1068V1327Z" />
<glyph unicode="&#x183;" glyph-name="uni0183" d="M377 977Q421 1059 498 1103T678 1147Q880 1147 996 992T1112 563Q1112 286 996 129T676 -29Q576 -29 500 14T377 141V0H193V1556H945V1372H377V977ZM918 345T918 559T850 882T649 991Q515 991 446 882T377 559Q377
347 446 237T649 127Q782 127 850 236Z" />
<glyph unicode="&#x184;" glyph-name="uni0184" d="M417 713V166H656Q832 166 907 228Q982 289 982 430Q982 576 903 644Q824 713 656 713H417ZM417 877H652Q1031 862 1132 671Q1185 571 1185 410Q1185 207 1052 104Q919 0 656 0H214V948L48 1176L417 1493V877Z" />
<glyph unicode="&#x185;" glyph-name="uni0185" d="M978 345T978 559T910 882T710 991Q576 991 506 882Q438 772 438 559Q438 347 506 237Q576 127 710 127Q842 127 910 236ZM438 977Q482 1059 559 1103T738 1147Q940 1147 1056 992Q1172 836 1172 563Q1172 286
1056 128Q940 -29 736 -29Q636 -29 560 14Q484 58 438 141V0H254V948L60 1176L438 1556V977Z" />
<glyph unicode="&#x186;" glyph-name="uni0186" d="M139 1438Q216 1479 297 1499T469 1520Q754 1520 913 1316T1073 745Q1073 377 915 174T469 -29Q378 -29 297 -9T139 53V260Q212 199 296 167T469 135Q666 135 764 287T862 745Q862 1052 764 1204T469 1356Q383
1356 298 1324T139 1231V1438Z" />
<glyph unicode="&#x187;" glyph-name="uni0187" d="M994 53Q917 12 836 -8T664 -29Q377 -29 219 174T60 745Q60 1043 219 1247T664 1452Q754 1452 833 1432Q856 1483 898 1533Q988 1639 1153 1639H1173V1483Q1089 1483 1038 1421Q994 1368 994 1233V1163Q920 1224
835 1256T664 1288Q467 1288 369 1136T271 745Q271 439 369 287T664 135Q752 135 836 167T994 260V53Z" />
<glyph unicode="&#x188;" glyph-name="uni0188" d="M960 57Q886 14 808 -7T647 -29Q387 -29 241 127T94 559T240 991T647 1147Q717 1147 784 1131Q803 1245 864 1316Q954 1422 1119 1422H1139V1266Q1049 1266 1004 1204Q960 1142 960 1016V868Q887 933 814 962T647
991Q474 991 381 879T288 559Q288 352 381 240T647 127Q743 127 819 156T960 248V57Z" />
<glyph unicode="&#x189;" glyph-name="uni0189" d="M436 1493Q778 1493 940 1311T1102 745Q1102 363 940 182T436 0H133V709H8V858H133V1493H436ZM436 166Q691 166 792 291T893 745Q893 1076 793 1201T436 1327H340V858H604V709H340V166H436Z" />
<glyph unicode="&#x18a;" glyph-name="uni018A" d="M326 1493H559Q901 1493 1063 1311T1225 745Q1225 363 1063 182T559 0H326V1327Q272 1327 212 1280Q164 1242 164 1128V1079H8V1149Q8 1330 104 1411T326 1493ZM555 166Q810 166 911 291T1012 745Q1012 1076
912 1201T555 1327H529V166H555Z" />
<glyph unicode="&#x18b;" glyph-name="uni018B" d="M899 713H660Q492 713 413 645T334 430Q334 289 409 228T660 166H899V713ZM200 1327V1493H1102V0H660Q397 0 264 103T131 410Q131 571 184 671Q285 862 664 877H899V1327H200Z" />
<glyph unicode="&#x18c;" glyph-name="uni018C" d="M351 773T351 559T419 236T620 127Q754 127 823 237T892 559Q892 772 823 881T620 991Q487 991 419 882ZM324 1372V1556H1076V0H892V141Q846 58 770 15T593 -29Q390 -29 274 128T157 563Q157 836 273 991T591
1147Q693 1147 770 1103T892 977V1372H324Z" />
<glyph unicode="&#x18d;" glyph-name="uni018D" d="M616 127Q756 127 828 236T900 559Q900 772 828 881T616 991Q475 991 403 882T331 559Q331 345 403 236T616 127ZM898 51Q917 42 957 2Q1019 -59 1019 -151Q1019 -287 901 -369Q782 -451 585 -451Q483 -451 433
-439L282 -403V-230Q348 -254 418 -269Q493 -284 566 -284Q575 -284 585 -284L617 -283Q690 -281 750 -238L789 -210Q816 -186 816 -140Q816 -107 803 -88Q786 -64 745 -43Q721 -30 616 -29Q381 -26 260 122Q136 273 136 559Q136 846 259 996T616 1147Q849 1147
972 997T1095 559Q1095 273 972 122Q941 84 898 51Z" />
<glyph unicode="&#x18e;" glyph-name="uni018E" d="M1102 1493V0H197V170H900V711H246V881H900V1323H216V1493H1102Z" />
<glyph unicode="&#x18f;" glyph-name="uni018F" d="M117 745V828H904V836Q904 1077 835 1216T616 1356Q530 1356 445 1324T286 1231V1438Q363 1479 444 1499T616 1520Q869 1520 992 1328T1116 745Q1116 355 993 163T616 -29Q363 -29 240 162T117 745ZM332 644Q332
396 402 266T620 135Q768 135 831 262T903 644H332Z" />
<glyph unicode="&#x190;" glyph-name="uni0190" d="M440 799Q309 833 241 914T172 1118Q172 1299 302 1409T651 1520Q724 1520 818 1504T1034 1456V1270Q930 1310 835 1330T651 1350Q517 1350 445 1289T372 1112Q372 1003 450 942T667 881H821V715H667Q515 715
426 639T337 432Q337 291 426 216T681 141Q779 141 878 167T1079 246V45Q976 9 869 -10T659 -29Q414 -29 276 88T137 412Q137 561 215 660T440 799Z" />
<glyph unicode="&#x191;" glyph-name="uni0191" d="M380 1493H1170V1323H583V883H1107V713H583V-20Q583 -215 494 -320Q404 -426 239 -426H63V-270H201Q291 -270 336 -208Q380 -146 380 -20V1493Z" />
<glyph unicode="&#x192;" glyph-name="florin" d="M1063 1556V1403H854H852Q755 1403 716 1362Q678 1322 678 1219V1120H1063V977H678V-20Q678 -234 597 -330Q515 -426 334 -426H264V-270H313Q418 -270 456 -222Q494 -173 494 -20L492 977H195V1120H491V1198Q491
1378 578 1470Q615 1509 675 1530Q745 1556 842 1556H851H854H1063Z" />
<glyph unicode="&#x193;" glyph-name="uni0193" d="M1054 123Q972 48 871 10T652 -29Q368 -29 210 174T52 745Q52 1111 212 1315T656 1520Q750 1520 836 1494Q853 1488 870 1482Q885 1508 906 1533Q996 1639 1162 1639H1181V1483Q1097 1483 1046 1421Q1003 1367
1002 1233V1206Q922 1283 837 1319T656 1356Q460 1356 361 1204T262 745Q262 434 358 285T652 135Q718 135 769 150T860 199V600H644V766H1054V123Z" />
<glyph unicode="&#x194;" glyph-name="uni0194" d="M730 650Q1054 201 1054 -194Q1054 -430 638 -430Q198 -430 198 -194Q198 173 492 657L28 1353H244L616 798L988 1353H1206L730 650ZM600 495Q402 194 402 -130Q402 -268 618 -268Q822 -268 822 -130Q822 195 600 495Z" />
<glyph unicode="&#x195;" glyph-name="uni0195" d="M755 694V406H754Q754 253 788 204Q826 152 881 156Q900 158 954 231Q1001 297 1001 453V864H1168V453Q1168 225 1092 113T862 0Q735 0 661 96Q588 192 588 406V694Q588 845 541 916T427 987Q356 987 294 896T231
633V0H65V1556H231V952Q308 1086 325 1098Q400 1147 485 1147Q603 1147 679 1035T755 694Z" />
<glyph unicode="&#x196;" glyph-name="uni0196" d="M514 1323H201V1493H1030V1323H717V421Q717 294 761 233Q806 171 896 171H1081L1082 0H865Q695 0 603 106Q514 208 514 406V1323Z" />
<glyph unicode="&#x197;" glyph-name="uni0197" d="M201 1493H1030V1323H717V747H719H984V577H719H717V170H1030V0H201V170H514V577H251V747H514V1323H201V1493Z" />
<glyph unicode="&#x198;" glyph-name="uni0198" d="M647 1180Q808 1350 913 1362Q934 1365 954 1365Q1080 1365 1172 1266L1219 1215L1113 1101L1080 1138Q1035 1189 975 1189Q958 1189 939 1185Q873 1170 764 1055L600 883L1198 0H954L467 748L313 584V0H110V1493H313V829L647
1180Z" />
<glyph unicode="&#x199;" glyph-name="uni0199" d="M236 1002V1150Q236 1345 325 1450Q415 1556 580 1556H785V1400H600Q510 1400 465 1338Q421 1276 421 1150H426V655L909 1120H1133L692 698L1202 0H977L563 578L426 449V0H236V1002Z" />
<glyph unicode="&#x19a;" glyph-name="uni019A" d="M639 406Q639 282 684 219T819 156H1034V0H801Q636 0 546 106T455 406V602H227V744H455V1423H160V1567H639V744H648H869V602H648H639V406Z" />
<glyph unicode="&#x19b;" glyph-name="uni019B" d="M579 1213L927 1455L1007 1345L636 1087L1133 0H942L621 704L291 0H100L525 913L491 987L129 736L49 847L434 1113L260 1493H451L579 1213Z" />
<glyph unicode="&#x19c;" glyph-name="uni019C" d="M568 114Q534 42 482 8T355 -27Q220 -27 165 77T109 471V1493H277V479Q277 242 303 185T400 127Q480 127 509 188T539 479V1493H707V479Q707 239 735 183T838 127Q911 127 939 188T968 479V1493H1135V0H968V96Q935
36 886 5T773 -27Q697 -27 647 8T568 114Z" />
<glyph unicode="&#x19d;" glyph-name="uni019D" d="M190 1493H420L874 264V1493H1049V0H819L366 1229V-20Q366 -215 285 -320Q204 -426 56 -426H29V-270Q110 -270 150 -208Q190 -147 190 -20V1493Z" />
<glyph unicode="&#x19e;" glyph-name="uni019E" d="M1051 694V-430H866V694Q866 845 813 916T647 987Q518 987 449 896T379 633V0H195V1120H379V952Q428 1048 512 1097T711 1147Q882 1147 966 1035T1051 694Z" />
<glyph unicode="&#x19f;" glyph-name="uni019F" d="M1116 745Q1116 355 993 163T616 -29T240 162T117 745Q117 1136 240 1328T616 1520Q869 1520 992 1328T1116 745ZM904 828Q896 1092 838 1215Q770 1356 616 1356Q463 1356 396 1215Q337 1092 329 828H904ZM330
644Q339 394 396 276Q463 135 616 135Q770 135 838 276Q894 393 903 644H330Z" />
<glyph unicode="&#x1a0;" glyph-name="Ohorn" d="M796 1292V1411Q857 1366 901 1345T976 1323Q1022 1323 1045 1350T1068 1432Q1068 1464 1061 1495T1038 1557H1171Q1181 1519 1186 1485T1191 1421Q1191 1299 1148 1242T1011 1184Q963 1184 911 1210T796 1292ZM1050
745Q1050 1074 983 1215T761 1356Q608 1356 541 1215T473 745Q473 417 540 276T761 135Q915 135 982 275T1050 745ZM1261 745Q1261 355 1138 163T761 -29Q508 -29 385 162T262 745Q262 1136 385 1328T761 1520Q1014 1520 1137 1328T1261 745Z" />
<glyph unicode="&#x1a1;" glyph-name="ohorn" d="M807 872V991Q868 946 912 925T987 903Q1033 903 1056 930T1079 1012Q1079 1044 1072 1075T1049 1137H1182Q1192 1099 1197 1065T1202 1001Q1202 879 1159 822T1022 764Q974 764 922 790T807 872ZM767 991Q627
991 555 882T483 559Q483 346 555 237T767 127Q908 127 980 236T1052 559Q1052 773 980 882T767 991ZM767 1147Q1000 1147 1123 996T1247 559Q1247 272 1124 122T767 -29Q534 -29 411 121T288 559Q288 845 411 996T767 1147Z" />
<glyph unicode="&#x1a2;" glyph-name="uni01A2" d="M45 745Q45 1417 379 1506Q432 1520 494 1520Q700 1520 811 1362L958 1493H1188V0H1013V1229L833 1069V163Q722 -29 494 -29T156 162T45 745ZM693 1215Q632 1356 494 1356Q356 1356 296 1215T235 745Q235 417
295 276T494 135Q632 135 693 276V1215Z" />
<glyph unicode="&#x1a3;" glyph-name="uni01A3" d="M86 559Q86 995 336 1110Q416 1147 517 1147Q727 1147 838 996V953L964 1063H1195V-430H1019V799L838 642V122Q728 -29 517 -29Q283 -29 172 159Q86 305 86 559ZM262 559Q262 164 477 130Q496 127 517 127Q644
127 709 236V882Q644 991 517 991Q311 991 271 705Q262 639 262 559Z" />
<glyph unicode="&#x1a4;" glyph-name="uni01A4" d="M1177 1047Q1177 699 865 622Q779 600 669 600H576V0H374V1327Q320 1327 260 1280Q212 1242 212 1128V1079H56V1149Q56 1330 152 1412Q248 1493 374 1493H669Q1076 1493 1158 1201Q1177 1132 1177 1047ZM669
766Q880 766 944 923Q966 979 966 1047Q966 1180 888 1253T669 1327H576V766H669Z" />
<glyph unicode="&#x1a5;" glyph-name="uni01A5" d="M375 559Q375 184 584 134Q613 127 647 127Q780 127 847 236T915 559Q915 977 664 991Q655 991 647 991Q433 991 387 718Q375 648 375 559ZM375 977Q466 1141 660 1147Q667 1147 674 1147Q877 1147 992 990T1108
555Q1108 282 992 127T674 -29Q572 -29 496 14T375 141V-426H190V1026Q190 1328 393 1407Q456 1432 534 1432H739V1276H554Q385 1276 376 1055Q375 1041 375 1026V977Z" />
<glyph unicode="&#x1a6;" glyph-name="uni01A6" d="M760 441Q838 421 893 366Q947 311 1030 144L1233 -264H1016L838 113Q761 274 700 320T539 367H346V0H143V1493H346V1229H559Q805 1229 936 1118T1067 797Q1067 649 987 556T760 441ZM346 1063V533H567Q712 533
783 598T854 797Q854 926 779 994T559 1063H346Z" />
<glyph unicode="&#x1a7;" glyph-name="uni01A7" d="M225 1442Q330 1481 425 1500T606 1520Q829 1520 963 1400T1098 1079Q1098 919 1004 824T702 682L594 657Q449 625 391 566T332 395Q332 272 417 204T655 135Q759 135 861 169T1079 276V61Q972 16 866 -6T655
-29Q403 -29 271 83T139 408Q139 589 235 694T541 848L647 872Q796 907 850 959T905 1110Q905 1223 822 1289T596 1356Q502 1356 410 1326T225 1237V1442Z" />
<glyph unicode="&#x1a8;" glyph-name="uni01A8" d="M270 1081Q350 1114 433 1130T606 1147Q808 1147 917 1060T1026 811Q1026 684 953 611T721 506L652 492L644 490Q399 441 399 313Q399 224 466 175T655 125Q739 125 833 151T1030 231V41Q924 6 833 -11T659 -29Q449
-29 331 64T213 324Q213 449 283 527T491 631L565 645Q748 680 794 717T840 829Q840 912 779 952T592 993Q509 993 429 970T270 901V1081Z" />
<glyph unicode="&#x1a9;" glyph-name="uni01A9" d="M786 747L331 170H1133V0H120V170L574 747L120 1323V1493H1133V1323H331L786 747Z" />
<glyph unicode="&#x1aa;" glyph-name="uni01AA" d="M568 1284Q561 1329 543 1352Q510 1400 400 1400Q276 1400 273 1335Q270 1284 389 1284H568ZM765 1130L763 -89Q763 -192 802 -233Q839 -273 939 -273H1115V-426H941Q746 -426 665 -340Q578 -248 578 -68V1130H388Q118
1130 118 1340Q118 1556 421 1556Q602 1556 684 1460Q737 1396 755 1285H946V1130H765Z" />
<glyph unicode="&#x1ab;" glyph-name="uni01AB" d="M614 1438V1120H1032V977H614V369Q614 245 661 196T825 147H1032V0V-20Q1032 -215 943 -320Q853 -426 688 -426H483V-270H668Q758 -270 803 -208Q847 -146 847 -20V0H807Q600 0 515 83T430 369V977H131V1120H430V1438H614Z"
/>
<glyph unicode="&#x1ac;" glyph-name="uni01AC" d="M453 1327Q322 1335 252 1280Q203 1242 203 1128V1079H47V1149Q47 1330 143 1411T453 1493H1186V1323H719V0H516V1323L453 1327Z" />
<glyph unicode="&#x1ad;" glyph-name="uni01AD" d="M614 1120H1032V977H614V369Q614 245 661 196T825 147H1032V0H807Q600 0 515 83T430 369V977H131V1120H429V1150Q429 1345 518 1450Q608 1556 773 1556H978V1400H793Q703 1400 658 1338Q614 1276 614 1150V1120Z" />
<glyph unicode="&#x1ae;" glyph-name="uni01AE" d="M47 1493H1186V1323H719V-20Q719 -146 763 -208Q808 -270 898 -270H1083V-426H860Q695 -426 605 -320Q516 -215 516 -20V1323H47V1493Z" />
<glyph unicode="&#x1af;" glyph-name="Uhorn" d="M829 1296V1415Q890 1370 934 1349T1009 1327Q1055 1327 1078 1354T1101 1436Q1101 1468 1094 1499T1071 1561H1204Q1214 1523 1219 1489T1224 1425Q1224 1303 1181 1246T1044 1188Q996 1188 944 1214T829 1296ZM9
573V1493H212V481Q212 372 218 326T239 254Q271 195 331 165T478 135Q565 135 625 165T718 254Q733 279 739 325T745 479V1493H947V573Q947 344 919 248T820 88Q754 29 669 0T478 -29Q373 -29 288 0T136 88Q67 150 38 248T9 573Z" />
<glyph unicode="&#x1b0;" glyph-name="uhorn" d="M799 872V991Q860 946 904 925T979 903Q1025 903 1048 930T1071 1012Q1071 1044 1064 1075T1041 1137H1174Q1184 1099 1189 1065T1194 1001Q1194 879 1151 822T1014 764Q966 764 914 790T799 872ZM39 424V1118H223V424Q223
273 276 202T442 131Q572 131 641 222T710 485V1118H895V0H710V168Q661 71 577 21T379 -29Q207 -29 123 83T39 424Z" />
<glyph unicode="&#x1b1;" glyph-name="uni01B1" d="M1159 1460V1288H914Q1037 1154 1092 1010T1147 678Q1147 367 1003 184T619 0Q377 0 233 183T88 678Q88 866 143 1010T322 1288H74V1460H537V1288Q417 1212 350 1048T283 661Q283 431 373 299T617 166T860 298T950
661Q950 883 883 1047T696 1288V1460H1159Z" />
<glyph unicode="&#x1b2;" glyph-name="uni01B2" d="M506 0Q336 0 244 106Q154 208 154 406V1493H358V421Q358 295 402 233Q446 171 536 171Q690 171 780 303T870 666Q870 888 803 1052T616 1293H834Q956 1159 1011 1015T1066 683Q1066 372 922 188Q775 0 506 0Z" />
<glyph unicode="&#x1b3;" glyph-name="uni01B3" d="M875 1140L629 670V0H446V670L17 1493H210L538 834L737 1235Q836 1435 945 1477Q991 1495 1036 1495Q1116 1495 1191 1438L1216 1419L1145 1285L1135 1294Q1101 1325 1061 1325Q1033 1325 1002 1309Q951 1285 875 1140Z" />
<glyph unicode="&#x1b4;" glyph-name="uni01B4" d="M622 -104Q541 -307 470 -365Q396 -426 272 -426H125V-272H233Q309 -272 351 -236T444 -66L477 18L24 1120H219L569 244L848 943Q898 1069 979 1110Q1022 1132 1073 1132Q1122 1132 1177 1112L1225 1095L1172
948L1144 958Q1116 969 1094 969Q1051 969 1035 928L622 -104Z" />
<glyph unicode="&#x1b5;" glyph-name="uni01B5" d="M178 1493H1147V1339L752 747H984V577H719H639L367 170H1169V0H156V154L431 577H251V747H541L915 1323H178V1493Z" />
<glyph unicode="&#x1b6;" glyph-name="uni01B6" d="M222 1122H1035V954L765 616H1077V452H723H634L392 150H1035V0H198V170L423 452H156V616H554L841 975H222V1122Z" />
<glyph unicode="&#x1b7;" glyph-name="uni01B7" d="M228 435Q228 292 328 217Q427 142 616 142T906 217Q1006 292 1006 435Q1006 569 914 642Q820 716 656 716H482V882L852 1323H114V1493H1084V1325L708 884Q812 884 942 828Q1040 785 1126 677Q1206 573 1206
435Q1206 214 1054 93T622 -28Q330 -28 178 93T26 435H228Z" />
<glyph unicode="&#x1b8;" glyph-name="uni01B8" d="M1006 435H1206Q1206 214 1054 93T610 -28Q330 -28 178 93T26 435Q26 573 108 677Q193 785 292 828Q421 884 526 884L150 1325V1493H1118V1323H382L752 882V716H578Q412 716 320 642Q228 569 228 435Q228 292
328 217Q427 142 616 142T906 217Q1006 292 1006 435Z" />
<glyph unicode="&#x1b9;" glyph-name="uni01B9" d="M624 476L213 952V1120H1087V973H420L850 474V308H676Q511 308 418 234Q326 159 326 27Q326 -116 426 -191Q525 -266 715 -266Q824 -266 924 -241T1108 -167V-362Q1002 -399 902 -418Q803 -436 709 -436Q429
-436 277 -315T125 27Q125 165 206 269Q292 378 390 420Q518 476 624 476Z" />
<glyph unicode="&#x1ba;" glyph-name="uni01BA" d="M699 -274Q783 -274 860 -253Q939 -232 1020 -188V-367Q933 -399 853 -412Q767 -426 670 -426Q190 -426 190 -145Q190 93 596 146Q880 183 880 281Q880 405 645 405Q645 405 355 405L840 973H173V1120H1047V952L693
540Q1060 540 1060 311Q1060 35 596 -14Q370 -38 370 -135Q370 -274 699 -274Z" />
<glyph unicode="&#x1bb;" glyph-name="uni01BB" d="M164 1421Q372 1520 563 1520Q782 1520 915 1404T1049 1098Q1049 1002 1004 906Q970 832 904 747H984V577H754L698 514L373 170H1059V0H152V170L534 577H251V747H685Q790 877 820 961Q842 1021 842 1083Q842
1268 692 1328Q635 1350 567 1350Q386 1350 164 1217V1421Z" />
<glyph unicode="&#x1bc;" glyph-name="uni01BC" d="M616 142Q932 142 993 341Q1006 384 1006 435Q1006 569 914 642Q820 716 656 716H215V1493H1139V1323H418V884H708Q813 884 942 828Q1041 785 1126 677Q1206 576 1206 435Q1206 214 1054 93T622 -28Q192 -28
70 228Q26 319 26 435H228Q228 254 386 183Q477 142 616 142Z" />
<glyph unicode="&#x1bd;" glyph-name="uni01BD" d="M518 -266Q829 -266 892 -71Q907 -26 907 27Q907 161 815 234Q722 308 557 308H257V1120H1009V936H441V475L609 476Q712 477 843 420Q942 377 1027 269Q1108 165 1108 27Q1108 -194 956 -315T524 -436Q337 -436
125 -362V-167Q295 -266 518 -266Z" />
<glyph unicode="&#x1be;" glyph-name="uni01BE" d="M845 439Q845 553 771 632Q682 727 509 727H447V998H218V1162H447V1438H649V1162H880V998H649V873Q814 844 922 734Q1039 615 1039 439Q1039 254 929 128Q791 -29 517 -29Q346 -29 194 41V213Q350 127 509 127Q688
127 787 241Q844 306 845 439Z" />
<glyph unicode="&#x1bf;" glyph-name="uni01BF" d="M310 -122V-426H125V1120H310V950Q362 1016 497 1098Q578 1147 788 1147Q972 1147 1049 1035Q1127 922 1127 769Q1127 344 310 -122ZM310 60Q936 460 936 709Q936 842 879 908Q823 973 703 973Q483 973 310 734V60Z" />
<glyph unicode="&#x1c0;" glyph-name="uni01C0" d="M516 1493H718V0H516V1493Z" />
<glyph unicode="&#x1c1;" glyph-name="uni01C1" d="M314 1493H516V0H314V1493ZM718 1493H920V0H718V1493Z" />
<glyph unicode="&#x1c2;" glyph-name="uni01C2" d="M516 1493H718V1089H1068V921H718V681H1068V511H718V0H516V511H164V681H516V921H164V1089H516V1493Z" />
<glyph unicode="&#x1c3;" glyph-name="uni01C3" d="M771 1493H974V838L953 481H792L771 838V1493ZM771 254H974V0H771V254Z" />
<glyph unicode="&#x1cd;" glyph-name="uni01CD" d="M616 1315L403 551H829L616 1315ZM494 1493H739L1196 0H987L877 389H354L246 0H37L494 1493ZM522 1635L311 1901H451L616 1723L782 1901H922L711 1635H522Z" />
<glyph unicode="&#x1ce;" glyph-name="uni01CE" d="M702 563H641Q480 563 399 507T317 338Q317 237 378 181T547 125Q699 125 786 230T874 522V563H702ZM1059 639V0H874V166Q815 66 726 19T508 -29Q337 -29 235 67T133 326Q133 513 258 610T627 707H874V736Q873
870 806 930T592 991Q498 991 402 964T215 885V1069Q317 1108 410 1127T592 1147Q731 1147 829 1106T989 983Q1027 933 1043 860T1059 639ZM543 1262L297 1638H436L616 1393L797 1638H936L690 1262H543Z" />
<glyph unicode="&#x1cf;" glyph-name="uni01CF" d="M201 1493H1030V1323H717V170H1030V0H201V170H514V1323H201V1493ZM522 1635L311 1901H451L616 1723L782 1901H922L711 1635H522Z" />
<glyph unicode="&#x1d0;" glyph-name="uni01D0" d="M256 1120H727V143H1092V0H178V143H543V977H256V1120ZM543 1262L297 1638H436L616 1393L797 1638H936L690 1262H543Z" />
<glyph unicode="&#x1d1;" glyph-name="uni01D1" d="M905 745Q905 1074 838 1215T616 1356Q463 1356 396 1215T328 745Q328 417 395 276T616 135Q770 135 837 275T905 745ZM1116 745Q1116 355 993 163T616 -29Q363 -29 240 162T117 745Q117 1136 240 1328T616 1520Q869
1520 992 1328T1116 745ZM522 1635L311 1901H451L616 1723L782 1901H922L711 1635H522Z" />
<glyph unicode="&#x1d2;" glyph-name="uni01D2" d="M616 991Q476 991 404 882T332 559Q332 346 404 237T616 127Q757 127 829 236T901 559Q901 773 829 882T616 991ZM616 1147Q849 1147 972 996T1096 559Q1096 272 973 122T616 -29Q383 -29 260 121T137 559Q137
845 260 996T616 1147ZM543 1262L297 1638H436L616 1393L797 1638H936L690 1262H543Z" />
<glyph unicode="&#x1d3;" glyph-name="uni01D3" d="M147 573V1493H350V481Q350 372 356 326T377 254Q409 195 469 165T616 135Q703 135 763 165T856 254Q871 279 877 325T883 479V1493H1085V573Q1085 344 1057 248T958 88Q892 29 807 0T616 -29Q511 -29 426 0T274
88Q205 150 176 248T147 573ZM522 1635L311 1901H451L616 1723L782 1901H922L711 1635H522Z" />
<glyph unicode="&#x1d4;" glyph-name="uni01D4" d="M195 424V1118H379V424Q379 273 432 202T598 131Q728 131 797 222T866 485V1118H1051V0H866V168Q817 71 733 21T535 -29Q363 -29 279 83T195 424ZM543 1262L297 1638H436L616 1393L797 1638H936L690 1262H543Z" />
<glyph unicode="&#x1d5;" glyph-name="uni01D5" d="M319 1746H522V1543H319V1746ZM711 1746H913V1543H711V1746ZM147 573V1493H350V481Q350 372 356 326T377 254Q409 195 469 165T616 135Q703 135 763 165T856 254Q871 279 877 325T883 479V1493H1085V573Q1085
344 1057 248T958 88Q892 29 807 0T616 -29Q511 -29 426 0T274 88Q205 150 176 248T147 573ZM317 1952H915V1804H317V1952Z" />
<glyph unicode="&#x1d6;" glyph-name="uni01D6" d="M319 1552H522V1350H319V1552ZM711 1552H913V1350H711V1552ZM195 424V1118H379V424Q379 273 432 202T598 131Q728 131 797 222T866 485V1118H1051V0H866V168Q817 71 733 21T535 -29Q363 -29 279 83T195 424ZM317
1842H915V1694H317V1842Z" />
<glyph unicode="&#x1d7;" glyph-name="uni01D7" d="M319 1746H522V1543H319V1746ZM711 1746H913V1543H711V1746ZM147 573V1493H350V481Q350 372 356 326T377 254Q409 195 469 165T616 135Q703 135 763 165T856 254Q871 279 877 325T883 479V1493H1085V573Q1085
344 1057 248T958 88Q892 29 807 0T616 -29Q511 -29 426 0T274 88Q205 150 176 248T147 573ZM672 2041H858L629 1777H475L672 2041Z" />
<glyph unicode="&#x1d8;" glyph-name="uni01D8" d="M319 1552H522V1350H319V1552ZM711 1552H913V1350H711V1552ZM195 424V1118H379V424Q379 273 432 202T598 131Q728 131 797 222T866 485V1118H1051V0H866V168Q817 71 733 21T535 -29Q363 -29 279 83T195 424ZM756
1954H954L629 1578H475L756 1954Z" />
<glyph unicode="&#x1d9;" glyph-name="uni01D9" d="M319 1746H522V1543H319V1746ZM711 1746H913V1543H711V1746ZM147 573V1493H350V481Q350 372 356 326T377 254Q409 195 469 165T616 135Q703 135 763 165T856 254Q871 279 877 325T883 479V1493H1085V573Q1085
344 1057 248T958 88Q892 29 807 0T616 -29Q511 -29 426 0T274 88Q205 150 176 248T147 573ZM522 1777L311 2043H451L616 1865L782 2043H922L711 1777H522Z" />
<glyph unicode="&#x1da;" glyph-name="uni01DA" d="M319 1552H522V1350H319V1552ZM711 1552H913V1350H711V1552ZM195 424V1118H379V424Q379 273 432 202T598 131Q728 131 797 222T866 485V1118H1051V0H866V168Q817 71 733 21T535 -29Q363 -29 279 83T195 424ZM543
1578L297 1954H436L616 1709L797 1954H936L690 1578H543Z" />
<glyph unicode="&#x1db;" glyph-name="uni01DB" d="M319 1746H522V1543H319V1746ZM711 1746H913V1543H711V1746ZM147 573V1493H350V481Q350 372 356 326T377 254Q409 195 469 165T616 135Q703 135 763 165T856 254Q871 279 877 325T883 479V1493H1085V573Q1085
344 1057 248T958 88Q892 29 807 0T616 -29Q511 -29 426 0T274 88Q205 150 176 248T147 573ZM561 2041L758 1777H604L377 2041H561Z" />
<glyph unicode="&#x1dc;" glyph-name="uni01DC" d="M477 1954L758 1578H604L279 1954H477ZM195 424V1118H379V424Q379 273 432 202T598 131Q728 131 797 222T866 485V1118H1051V0H866V168Q817 71 733 21T535 -29Q363 -29 279 83T195 424ZM319 1552H522V1350H319V1552ZM711
1552H913V1350H711V1552Z" />
<glyph unicode="&#x1dd;" glyph-name="uni01DD" d="M122 512V602H919V608Q919 791 824 891T554 991Q466 991 370 963T165 878V1061Q270 1104 367 1125T556 1147Q817 1147 964 991T1111 559Q1111 291 967 131T583 -29Q369 -29 246 116T122 512ZM306 459Q306 297
380 212T591 127Q724 127 810 215T912 459H306Z" />
<glyph unicode="&#x1de;" glyph-name="uni01DE" d="M319 1746H522V1543H319V1746ZM711 1746H913V1543H711V1746ZM317 1952H915V1804H317V1952ZM616 1315L403 551H829L616 1315ZM494 1493H739L1196 0H987L877 389H354L246 0H37L494 1493Z" />
<glyph unicode="&#x1df;" glyph-name="uni01DF" d="M317 1842H915V1694H317V1842ZM702 563H641Q480 563 399 507T317 338Q317 237 378 181T547 125Q699 125 786 230T874 522V563H702ZM1059 639V0H874V166Q815 66 726 19T508 -29Q337 -29 235 67T133 326Q133 513
258 610T627 707H874V736Q873 870 806 930T592 991Q498 991 402 964T215 885V1069Q317 1108 410 1127T592 1147Q731 1147 829 1106T989 983Q1027 933 1043 860T1059 639ZM319 1552H522V1350H319V1552ZM711 1552H913V1350H711V1552Z" />
<glyph unicode="&#x1e0;" glyph-name="uni01E0" d="M317 1952H915V1804H317V1952ZM513 2004H718V1799H513V2004ZM616 1315L403 551H829L616 1315ZM494 1493H739L1196 0H987L877 389H354L246 0H37L494 1493Z" />
<glyph unicode="&#x1e1;" glyph-name="uni01E1" d="M317 1842H915V1694H317V1842ZM513 1552H718V1348H513V1552ZM702 563H641Q480 563 399 507T317 338Q317 237 378 181T547 125Q699 125 786 230T874 522V563H702ZM1059 639V0H874V166Q815 66 726 19T508 -29Q337
-29 235 67T133 326Q133 513 258 610T627 707H874V736Q873 870 806 930T592 991Q498 991 402 964T215 885V1069Q317 1108 410 1127T592 1147Q731 1147 829 1106T989 983Q1027 933 1043 860T1059 639Z" />
<glyph unicode="&#x1e2;" glyph-name="uni01E2" d="M487 1840H1085V1692H487V1840ZM1161 1493V1323H823V881H1130V711H823V170H1180V0H637V383H285L184 0H0L410 1493H1161ZM530 1323L328 551H637V1323H530Z" />
<glyph unicode="&#x1e3;" glyph-name="uni01E3" d="M317 1526H915V1378H317V1526ZM543 442V514H494Q325 514 265 469T205 311Q205 222 249 174T377 125Q469 125 506 191T543 442ZM1036 657V709Q1036 860 998 926T872 993Q785 993 747 925T709 700V657H1036ZM1200
514H709Q708 499 708 482T707 430Q707 269 757 197T920 125Q999 125 1063 150T1178 227V55Q1123 14 1057 -7T920 -29Q810 -29 736 12T629 131Q590 51 524 11T360 -29Q204 -29 123 57T41 307Q41 478 141 567T432 657H549V745Q549 865 500 929T356 993Q300 993 234
972T106 911V1079Q183 1114 249 1130T375 1147Q466 1147 528 1116T627 1020Q660 1081 726 1114T881 1147Q1055 1147 1127 1029T1200 604V514Z" />
<glyph unicode="&#x1e6;" glyph-name="Gcaron" d="M522 1635L311 1901H451L616 1723L782 1901H922L711 1635H522ZM1104 123Q1023 48 922 10T702 -29Q418 -29 260 174T102 745Q102 1111 262 1315T707 1520Q801 1520 887 1494T1053 1413V1206Q972 1283 887 1319T707
1356Q510 1356 412 1204T313 745Q313 434 408 285T702 135Q769 135 819 150T911 199V600H694V766H1104V123Z" />
<glyph unicode="&#x1e7;" glyph-name="gcaron" d="M543 1262L297 1638H436L616 1393L797 1638H936L690 1262H543ZM858 569Q858 776 791 883T594 991Q459 991 388 884T317 569Q317 362 388 254T596 145Q723 145 790 254T858 569ZM1042 72Q1042 -180 923 -310T573
-440Q497 -440 414 -426T248 -385V-203Q346 -249 426 -271T573 -293Q722 -293 790 -212T858 45V53V178Q814 84 738 38T553 -8Q357 -8 240 149T123 569Q123 833 240 990T553 1147Q661 1147 736 1104T858 971V1116H1042V72Z" />
<glyph unicode="&#x1e8;" glyph-name="uni01E8" d="M522 1635L311 1901H451L616 1723L782 1901H922L711 1635H522ZM137 1493H340V829L971 1493H1208L627 883L1225 0H981L494 748L340 584V0H137V1493Z" />
<glyph unicode="&#x1e9;" glyph-name="uni01E9" d="M522 1635L311 1901H451L616 1723L782 1901H922L711 1635H522ZM236 1556H426V655L909 1120H1133L692 698L1202 0H977L563 578L426 449V0H236V1556Z" />
<glyph unicode="&#x1ea;" glyph-name="uni01EA" d="M556 240H675Q630 179 609 135T587 60Q587 14 614 -9T696 -32Q728 -32 759 -25T821 -2V-135Q783 -145 749 -150T685 -155Q563 -155 506 -112T448 25Q448 73 474 125T556 240ZM905 745Q905 1074 838 1215T616
1356Q463 1356 396 1215T328 745Q328 417 395 276T616 135Q770 135 837 275T905 745ZM1116 745Q1116 355 993 163T616 -29Q363 -29 240 162T117 745Q117 1136 240 1328T616 1520Q869 1520 992 1328T1116 745Z" />
<glyph unicode="&#x1eb;" glyph-name="uni01EB" d="M556 240H675Q630 179 609 135T587 60Q587 14 614 -9T696 -32Q728 -32 759 -25T821 -2V-135Q783 -145 749 -150T685 -155Q563 -155 506 -112T448 25Q448 73 474 125T556 240ZM616 991Q476 991 404 882T332 559Q332
346 404 237T616 127Q757 127 829 236T901 559Q901 773 829 882T616 991ZM616 1147Q849 1147 972 996T1096 559Q1096 272 973 122T616 -29Q383 -29 260 121T137 559Q137 845 260 996T616 1147Z" />
<glyph unicode="&#x1ec;" glyph-name="uni01EC" d="M317 1840H915V1692H317V1840ZM556 240H675Q630 179 609 135T587 60Q587 14 614 -9T696 -32Q728 -32 759 -25T821 -2V-135Q783 -145 749 -150T685 -155Q563 -155 506 -112T448 25Q448 73 474 125T556 240ZM905
745Q905 1074 838 1215T616 1356Q463 1356 396 1215T328 745Q328 417 395 276T616 135Q770 135 837 275T905 745ZM1116 745Q1116 355 993 163T616 -29Q363 -29 240 162T117 745Q117 1136 240 1328T616 1520Q869 1520 992 1328T1116 745Z" />
<glyph unicode="&#x1ed;" glyph-name="uni01ED" d="M317 1526H915V1378H317V1526ZM556 240H675Q630 179 609 135T587 60Q587 14 614 -9T696 -32Q728 -32 759 -25T821 -2V-135Q783 -145 749 -150T685 -155Q563 -155 506 -112T448 25Q448 73 474 125T556 240ZM616
991Q476 991 404 882T332 559Q332 346 404 237T616 127Q757 127 829 236T901 559Q901 773 829 882T616 991ZM616 1147Q849 1147 972 996T1096 559Q1096 272 973 122T616 -29Q383 -29 260 121T137 559Q137 845 260 996T616 1147Z" />
<glyph unicode="&#x1ee;" glyph-name="uni01EE" d="M522 1635L311 1901H451L616 1723L782 1901H922L711 1635H522ZM228 435Q228 292 328 217Q427 142 616 142T906 217Q1006 292 1006 435Q1006 569 914 642Q820 716 656 716H482V882L852 1323H114V1493H1084V1325L708
884Q812 884 942 828Q1040 785 1126 677Q1206 573 1206 435Q1206 214 1054 93T622 -28Q330 -28 178 93T26 435H228Z" />
<glyph unicode="&#x1ef;" glyph-name="uni01EF" d="M543 1262L297 1638H436L616 1393L797 1638H936L690 1262H543ZM609 476Q715 476 843 420Q941 378 1027 269Q1108 165 1108 27Q1108 -194 956 -315T524 -436Q430 -436 331 -418Q231 -399 125 -362V-167Q209 -216
309 -241T518 -266Q708 -266 807 -191Q907 -116 907 27Q907 159 815 234Q722 308 557 308H383V474L813 973H146V1120H1020V952L609 476Z" />
<glyph unicode="&#x1f0;" glyph-name="uni01F0" d="M578 1513L332 1889H471L651 1644L832 1889H971L725 1513H578ZM600 -20V977H283V1120H784V-20Q784 -215 695 -320T440 -426H186V-270H420Q510 -270 555 -208T600 -20Z" />
<glyph unicode="&#x1f4;" glyph-name="uni01F4" d="M762 1899H948L719 1635H565L762 1899ZM1104 123Q1023 48 922 10T702 -29Q418 -29 260 174T102 745Q102 1111 262 1315T707 1520Q801 1520 887 1494T1053 1413V1206Q972 1283 887 1319T707 1356Q510 1356 412
1204T313 745Q313 434 408 285T702 135Q769 135 819 150T911 199V600H694V766H1104V123Z" />
<glyph unicode="&#x1f5;" glyph-name="uni01F5" d="M756 1638H954L629 1262H475L756 1638ZM858 569Q858 776 791 883T594 991Q459 991 388 884T317 569Q317 362 388 254T596 145Q723 145 790 254T858 569ZM1042 72Q1042 -180 923 -310T573 -440Q497 -440 414 -426T248
-385V-203Q346 -249 426 -271T573 -293Q722 -293 790 -212T858 45V53V178Q814 84 738 38T553 -8Q357 -8 240 149T123 569Q123 833 240 990T553 1147Q661 1147 736 1104T858 971V1116H1042V72Z" />
<glyph unicode="&#x1f6;" glyph-name="uni01F6" d="M877 135Q931 135 956 214Q989 316 989 586V881H1171V561Q1171 188 1067 48Q1010 -29 877 -29Q749 -29 677 54Q543 207 543 561V711H244V0H62V1493H244V881H543V1493H726V586Q726 313 808 174Q831 135 877 135Z" />
<glyph unicode="&#x1f8;" glyph-name="uni01F8" d="M561 1899L758 1635H604L377 1899H561ZM139 1493H395L899 264V1493H1094V0H838L334 1229V0H139V1493Z" />
<glyph unicode="&#x1f9;" glyph-name="uni01F9" d="M477 1638L758 1262H604L279 1638H477ZM1051 694V0H866V694Q866 845 813 916T647 987Q518 987 449 896T379 633V0H195V1120H379V952Q428 1048 512 1097T711 1147Q882 1147 966 1035T1051 694Z" />
<glyph unicode="&#x1fc;" glyph-name="AEacute" d="M912 1899H1098L869 1635H715L912 1899ZM1161 1493V1323H823V881H1130V711H823V170H1180V0H637V383H285L184 0H0L410 1493H1161ZM530 1323L328 551H637V1323H530Z" />
<glyph unicode="&#x1fd;" glyph-name="aeacute" d="M756 1638H954L629 1262H475L756 1638ZM543 442V514H494Q325 514 265 469T205 311Q205 222 249 174T377 125Q469 125 506 191T543 442ZM1036 657V709Q1036 860 998 926T872 993Q785 993 747 925T709 700V657H1036ZM1200
514H709Q708 499 708 482T707 430Q707 269 757 197T920 125Q999 125 1063 150T1178 227V55Q1123 14 1057 -7T920 -29Q810 -29 736 12T629 131Q590 51 524 11T360 -29Q204 -29 123 57T41 307Q41 478 141 567T432 657H549V745Q549 865 500 929T356 993Q300 993 234
972T106 911V1079Q183 1114 249 1130T375 1147Q466 1147 528 1116T627 1020Q660 1081 726 1114T881 1147Q1055 1147 1127 1029T1200 604V514Z" />
<glyph unicode="&#x1fe;" glyph-name="Oslashacute" d="M672 1899H858L629 1635H475L672 1899ZM371 303Q401 225 466 180T616 135Q770 135 837 275T905 745Q905 855 900 923T885 1036L371 303ZM338 471L842 1190Q817 1271 760 1313T616 1356Q459 1356 394 1210T328
686Q328 606 330 556T338 471ZM1032 1247Q1073 1166 1094 1037T1116 745Q1116 355 993 163T616 -29Q495 -29 405 11T254 133L111 -70L8 0L186 252Q154 325 136 456T117 745Q117 1136 240 1328T616 1520Q731 1520 817 1479T961 1358L1100 1559L1200 1485L1032 1247Z"
/>
<glyph unicode="&#x1ff;" glyph-name="oslashacute" d="M756 1638H954L629 1262H475L756 1638ZM877 780L414 221Q450 174 500 151T616 127Q757 127 829 236T901 559Q901 611 895 666T877 780ZM817 897Q782 945 733 968T616 991Q477 991 403 884T328 575Q328 527
335 469T356 340L817 897ZM217 180Q178 251 158 348T137 559Q137 845 260 996T616 1147Q716 1147 795 1120T934 1036L1081 1212L1174 1135L1010 940Q1052 874 1074 778T1096 559Q1096 272 973 122T616 -29Q513 -29 435 0T299 90L139 -96L47 -20L217 180Z" />
<glyph unicode="&#x200;" glyph-name="uni0200" d="M373 1899L570 1635H416L187 1899H373ZM692 1899L889 1635H735L506 1899H692ZM616 1315L403 551H829L616 1315ZM494 1493H739L1196 0H987L877 389H354L246 0H37L494 1493Z" />
<glyph unicode="&#x201;" glyph-name="uni0201" d="M388 1638L593 1262H458L210 1638H388ZM722 1638L912 1262H775L552 1638H722ZM702 563H641Q480 563 399 507T317 338Q317 237 378 181T547 125Q699 125 786 230T874 522V563H702ZM1059 639V0H874V166Q815 66
726 19T508 -29Q337 -29 235 67T133 326Q133 513 258 610T627 707H874V736Q873 870 806 930T592 991Q498 991 402 964T215 885V1069Q317 1108 410 1127T592 1147Q731 1147 829 1106T989 983Q1027 933 1043 860T1059 639Z" />
<glyph unicode="&#x202;" glyph-name="uni0202" d="M303 1659Q314 1779 393 1840T616 1901T839 1840T930 1659H811Q796 1715 748 1742T616 1770Q534 1770 484 1742T422 1659H303ZM616 1315L403 551H829L616 1315ZM494 1493H739L1196 0H987L877 389H354L246 0H37L494
1493Z" />
<glyph unicode="&#x203;" glyph-name="uni0203" d="M303 1321Q314 1464 393 1536T616 1608Q761 1608 840 1536T930 1321H811Q797 1397 749 1434T616 1471Q529 1471 481 1434T422 1321H303ZM702 563H641Q480 563 399 507T317 338Q317 237 378 181T547 125Q699 125
786 230T874 522V563H702ZM1059 639V0H874V166Q815 66 726 19T508 -29Q337 -29 235 67T133 326Q133 513 258 610T627 707H874V736Q873 870 806 930T592 991Q498 991 402 964T215 885V1069Q317 1108 410 1127T592 1147Q731 1147 829 1106T989 983Q1027 933 1043
860T1059 639Z" />
<glyph unicode="&#x204;" glyph-name="uni0204" d="M373 1899L570 1635H416L187 1899H373ZM692 1899L889 1635H735L506 1899H692ZM197 1493H1083V1323H399V881H1053V711H399V170H1102V0H197V1493Z" />
<glyph unicode="&#x205;" glyph-name="uni0205" d="M402 1638L607 1262H472L224 1638H402ZM736 1638L926 1262H789L566 1638H736ZM1112 606V516H315V510Q315 327 410 227T680 127Q768 127 864 155T1069 240V57Q964 14 867 -7T678 -29Q417 -29 270 127T123 559Q123
827 267 987T651 1147Q865 1147 988 1002T1112 606ZM928 660Q924 822 852 906T643 991Q510 991 424 903T322 659L928 660Z" />
<glyph unicode="&#x206;" glyph-name="uni0206" d="M303 1659Q314 1779 393 1840T616 1901T839 1840T930 1659H811Q796 1715 748 1742T616 1770Q534 1770 484 1742T422 1659H303ZM197 1493H1083V1323H399V881H1053V711H399V170H1102V0H197V1493Z" />
<glyph unicode="&#x207;" glyph-name="uni0207" d="M317 1321Q328 1464 407 1536T630 1608Q775 1608 854 1536T944 1321H825Q811 1397 763 1434T630 1471Q543 1471 495 1434T436 1321H317ZM1112 606V516H315V510Q315 327 410 227T680 127Q768 127 864 155T1069
240V57Q964 14 867 -7T678 -29Q417 -29 270 127T123 559Q123 827 267 987T651 1147Q865 1147 988 1002T1112 606ZM928 660Q924 822 852 906T643 991Q510 991 424 903T322 659L928 660Z" />
<glyph unicode="&#x208;" glyph-name="uni0208" d="M373 1899L570 1635H416L187 1899H373ZM692 1899L889 1635H735L506 1899H692ZM201 1493H1030V1323H717V170H1030V0H201V170H514V1323H201V1493Z" />
<glyph unicode="&#x209;" glyph-name="uni0209" d="M388 1638L593 1262H458L210 1638H388ZM722 1638L912 1262H775L552 1638H722ZM256 1120H727V143H1092V0H178V143H543V977H256V1120Z" />
<glyph unicode="&#x20a;" glyph-name="uni020A" d="M303 1659Q314 1779 393 1840T616 1901T839 1840T930 1659H811Q796 1715 748 1742T616 1770Q534 1770 484 1742T422 1659H303ZM201 1493H1030V1323H717V170H1030V0H201V170H514V1323H201V1493Z" />
<glyph unicode="&#x20b;" glyph-name="uni020B" d="M303 1321Q314 1464 393 1536T616 1608Q761 1608 840 1536T930 1321H811Q797 1397 749 1434T616 1471Q529 1471 481 1434T422 1321H303ZM256 1120H727V143H1092V0H178V143H543V977H256V1120Z" />
<glyph unicode="&#x20c;" glyph-name="uni020C" d="M373 1899L570 1635H416L187 1899H373ZM692 1899L889 1635H735L506 1899H692ZM905 745Q905 1074 838 1215T616 1356Q463 1356 396 1215T328 745Q328 417 395 276T616 135Q770 135 837 275T905 745ZM1116 745Q1116
355 993 163T616 -29Q363 -29 240 162T117 745Q117 1136 240 1328T616 1520Q869 1520 992 1328T1116 745Z" />
<glyph unicode="&#x20d;" glyph-name="uni020D" d="M388 1638L593 1262H458L210 1638H388ZM722 1638L912 1262H775L552 1638H722ZM616 991Q476 991 404 882T332 559Q332 346 404 237T616 127Q757 127 829 236T901 559Q901 773 829 882T616 991ZM616 1147Q849 1147
972 996T1096 559Q1096 272 973 122T616 -29Q383 -29 260 121T137 559Q137 845 260 996T616 1147Z" />
<glyph unicode="&#x20e;" glyph-name="uni020E" d="M303 1659Q314 1779 393 1840T616 1901T839 1840T930 1659H811Q796 1715 748 1742T616 1770Q534 1770 484 1742T422 1659H303ZM905 745Q905 1074 838 1215T616 1356Q463 1356 396 1215T328 745Q328 417 395 276T616
135Q770 135 837 275T905 745ZM1116 745Q1116 355 993 163T616 -29Q363 -29 240 162T117 745Q117 1136 240 1328T616 1520Q869 1520 992 1328T1116 745Z" />
<glyph unicode="&#x20f;" glyph-name="uni020F" d="M303 1321Q314 1464 393 1536T616 1608Q761 1608 840 1536T930 1321H811Q797 1397 749 1434T616 1471Q529 1471 481 1434T422 1321H303ZM616 991Q476 991 404 882T332 559Q332 346 404 237T616 127Q757 127 829
236T901 559Q901 773 829 882T616 991ZM616 1147Q849 1147 972 996T1096 559Q1096 272 973 122T616 -29Q383 -29 260 121T137 559Q137 845 260 996T616 1147Z" />
<glyph unicode="&#x210;" glyph-name="uni0210" d="M579 1899L776 1635H622L393 1899H579ZM898 1899L1095 1635H941L712 1899H898ZM760 705Q838 685 893 630T1030 408L1233 0H1016L838 377Q761 538 700 584T539 631H346V0H143V1493H559Q805 1493 936 1382T1067
1061Q1067 913 987 820T760 705ZM346 1327V797H567Q712 797 783 862T854 1061Q854 1190 779 1258T559 1327H346Z" />
<glyph unicode="&#x211;" glyph-name="uni0211" d="M538 1638L743 1262H608L360 1638H538ZM872 1638L1062 1262H925L702 1638H872ZM1155 889Q1096 935 1035 956T901 977Q729 977 638 869T547 557V0H362V1120H547V901Q593 1020 688 1083T915 1147Q983 1147 1042
1130T1155 1077V889Z" />
<glyph unicode="&#x212;" glyph-name="uni0212" d="M509 1659Q520 1779 599 1840T822 1901T1045 1840T1136 1659H1017Q1002 1715 954 1742T822 1770Q740 1770 690 1742T628 1659H509ZM760 705Q838 685 893 630T1030 408L1233 0H1016L838 377Q761 538 700 584T539
631H346V0H143V1493H559Q805 1493 936 1382T1067 1061Q1067 913 987 820T760 705ZM346 1327V797H567Q712 797 783 862T854 1061Q854 1190 779 1258T559 1327H346Z" />
<glyph unicode="&#x213;" glyph-name="uni0213" d="M453 1321Q464 1464 543 1536T766 1608Q911 1608 990 1536T1080 1321H961Q947 1397 899 1434T766 1471Q679 1471 631 1434T572 1321H453ZM1155 889Q1096 935 1035 956T901 977Q729 977 638 869T547 557V0H362V1120H547V901Q593
1020 688 1083T915 1147Q983 1147 1042 1130T1155 1077V889Z" />
<glyph unicode="&#x214;" glyph-name="uni0214" d="M373 1899L570 1635H416L187 1899H373ZM692 1899L889 1635H735L506 1899H692ZM147 573V1493H350V481Q350 372 356 326T377 254Q409 195 469 165T616 135Q703 135 763 165T856 254Q871 279 877 325T883 479V1493H1085V573Q1085
344 1057 248T958 88Q892 29 807 0T616 -29Q511 -29 426 0T274 88Q205 150 176 248T147 573Z" />
<glyph unicode="&#x215;" glyph-name="uni0215" d="M388 1638L593 1262H458L210 1638H388ZM722 1638L912 1262H775L552 1638H722ZM195 424V1118H379V424Q379 273 432 202T598 131Q728 131 797 222T866 485V1118H1051V0H866V168Q817 71 733 21T535 -29Q363 -29
279 83T195 424Z" />
<glyph unicode="&#x216;" glyph-name="uni0216" d="M303 1659Q314 1779 393 1840T616 1901T839 1840T930 1659H811Q796 1715 748 1742T616 1770Q534 1770 484 1742T422 1659H303ZM147 573V1493H350V481Q350 372 356 326T377 254Q409 195 469 165T616 135Q703 135
763 165T856 254Q871 279 877 325T883 479V1493H1085V573Q1085 344 1057 248T958 88Q892 29 807 0T616 -29Q511 -29 426 0T274 88Q205 150 176 248T147 573Z" />
<glyph unicode="&#x217;" glyph-name="uni0217" d="M303 1321Q314 1464 393 1536T616 1608Q761 1608 840 1536T930 1321H811Q797 1397 749 1434T616 1471Q529 1471 481 1434T422 1321H303ZM195 424V1118H379V424Q379 273 432 202T598 131Q728 131 797 222T866
485V1118H1051V0H866V168Q817 71 733 21T535 -29Q363 -29 279 83T195 424Z" />
<glyph unicode="&#x218;" glyph-name="Scommaaccent" d="M502 -197H741L554 -542H408L502 -197ZM1012 1442V1237Q920 1296 828 1326T641 1356Q498 1356 415 1290T332 1110Q332 1011 386 959T590 872L696 848Q906 799 1002 694T1098 408Q1098 195 966 83T582 -29Q477
-29 371 -7T158 61V276Q273 203 375 169T582 135Q735 135 820 203T905 395Q905 507 847 566T643 657L535 682Q327 729 233 824T139 1079Q139 1279 273 1399T631 1520Q717 1520 812 1501T1012 1442Z" />
<glyph unicode="&#x219;" glyph-name="scommaaccent" d="M502 -197H741L554 -542H408L502 -197ZM973 1081V901Q894 947 814 970T651 993Q526 993 465 953T403 829Q403 754 449 717T678 645L752 631Q889 605 959 527T1030 324Q1030 158 912 65T584 -29Q501 -29
410 -12T213 41V231Q316 178 410 152T588 125Q710 125 777 174T844 313Q844 441 599 490L591 492L522 506Q363 537 290 610T217 811Q217 972 326 1059T637 1147Q727 1147 810 1131T973 1081Z" />
<glyph unicode="&#x21a;" glyph-name="uni021A" d="M502 -197H741L554 -542H408L502 -197ZM47 1493H1186V1323H719V0H516V1323H47V1493Z" />
<glyph unicode="&#x21b;" glyph-name="uni021B" d="M591 -197H830L643 -542H497L591 -197ZM614 1438V1120H1032V977H614V369Q614 245 661 196T825 147H1032V0H807Q600 0 515 83T430 369V977H131V1120H430V1438H614Z" />
<glyph unicode="&#x21c;" glyph-name="uni021C" d="M800 674Q1108 607 1108 314Q1108 202 1053 99T905 -84T684 -232T417 -348T125 -430V-270Q325 -215 477 -145T722 1T861 156T907 314Q907 415 845 481T670 547Q575 547 460 496L297 424V595L545 701Q605 727
656 759T759 841T841 960T872 1112Q872 1167 855 1210T810 1278T745 1321T671 1344T597 1350Q413 1350 170 1166V1356Q409 1520 615 1520Q746 1520 847 1477T1011 1343T1073 1124Q1073 1064 1062 1013T1021 906T937 791T800 674Z" />
<glyph unicode="&#x21d;" glyph-name="uni021D" d="M782 461Q852 453 908 419T995 340T1042 251T1059 170Q1059 95 1026 26T939 -97T809 -199T655 -283T487 -348T323 -398T174 -433V-303Q336 -257 458 -209T660 -116T788 -21T858 73T878 170Q878 258 819 314T667
370Q608 370 545 345L329 259V398L552 483Q586 496 618 512T694 558T769 622T823 708T846 816Q846 860 831 895T791 951T733 985T667 1004T599 1009Q530 1009 446 980T215 860V1014Q481 1147 615 1147Q727 1147 819 1112T969 1003T1027 833Q1027 723 976 647T782
461Z" />
<glyph unicode="&#x21e;" glyph-name="uni021E" d="M522 1635L311 1901H451L616 1723L782 1901H922L711 1635H522ZM137 1493H340V881H893V1493H1096V0H893V711H340V0H137V1493Z" />
<glyph unicode="&#x21f;" glyph-name="uni021F" d="M522 1635L311 1901H451L616 1723L782 1901H922L711 1635H522ZM1051 694V0H866V694Q866 845 813 916T647 987Q518 987 449 896T379 633V0H195V1556H379V952Q428 1048 512 1097T711 1147Q882 1147 966 1035T1051 694Z" />
<glyph unicode="&#x220;" glyph-name="uni0220" d="M1085 999V-430H882V1009Q882 1189 824 1273T642 1358Q501 1358 425 1249T349 937V0H147V1493H349V1295Q403 1406 495 1464T713 1522Q900 1522 992 1392T1085 999Z" />
<glyph unicode="&#x221;" glyph-name="uni0221" d="M877 144Q889 126 955 127Q1078 127 1081 282Q1085 344 1021 344T877 144ZM788 406Q788 290 801 255Q915 499 1019 500Q1183 502 1183 284Q1183 -29 933 -29Q862 -29 814 -12Q784 -91 764 -148H645L713 46Q681
59 643 148L627 185Q599 95 543 42Q466 -30 366 -29Q203 -27 111 128Q18 286 18 563Q18 836 111 991T366 1147Q446 1147 507 1104T604 977V1556H788V406ZM173 773T173 559T227 236T387 127T548 237T604 559Q604 772 549 881T387 991T227 882Z" />
<glyph unicode="&#x224;" glyph-name="uni0224" d="M178 1493H1147V1339L367 170H1169V128H1170V-20Q1170 -215 1081 -320Q991 -426 826 -426H621V-270H806Q896 -270 941 -208Q985 -146 985 -20V0H156V154L915 1323H178V1493Z" />
<glyph unicode="&#x225;" glyph-name="uni0225" d="M227 1122H1040V954L397 150H1040V0H1032V-20Q1032 -215 943 -320Q853 -426 688 -426H483V-270H668Q758 -270 803 -208Q847 -146 847 -20V0H203V170L846 975H227V1122Z" />
<glyph unicode="&#x226;" glyph-name="uni0226" d="M513 1872H718V1667H513V1872ZM616 1315L403 551H829L616 1315ZM494 1493H739L1196 0H987L877 389H354L246 0H37L494 1493Z" />
<glyph unicode="&#x227;" glyph-name="uni0227" d="M513 1552H718V1348H513V1552ZM702 563H641Q480 563 399 507T317 338Q317 237 378 181T547 125Q699 125 786 230T874 522V563H702ZM1059 639V0H874V166Q815 66 726 19T508 -29Q337 -29 235 67T133 326Q133 513
258 610T627 707H874V736Q873 870 806 930T592 991Q498 991 402 964T215 885V1069Q317 1108 410 1127T592 1147Q731 1147 829 1106T989 983Q1027 933 1043 860T1059 639Z" />
<glyph unicode="&#x228;" glyph-name="uni0228" d="M750 0Q806 -62 832 -114T859 -215Q859 -304 799 -349T621 -395Q576 -395 533 -389T445 -371V-240Q479 -257 516 -264T601 -272Q659 -272 689 -248T720 -178Q720 -148 698 -105T632 0H750ZM197 1493H1083V1323H399V881H1053V711H399V170H1102V0H197V1493Z"
/>
<glyph unicode="&#x229;" glyph-name="uni0229" d="M750 0Q806 -62 832 -114T859 -215Q859 -304 799 -349T621 -395Q576 -395 533 -389T445 -371V-240Q479 -257 516 -264T601 -272Q659 -272 689 -248T720 -178Q720 -148 698 -105T632 0H750ZM1112 606V516H315V510Q315
327 410 227T680 127Q768 127 864 155T1069 240V57Q964 14 867 -7T678 -29Q417 -29 270 127T123 559Q123 827 267 987T651 1147Q865 1147 988 1002T1112 606ZM928 660Q924 822 852 906T643 991Q510 991 424 903T322 659L928 660Z" />
<glyph unicode="&#x22a;" glyph-name="uni022A" d="M319 1746H522V1543H319V1746ZM711 1746H913V1543H711V1746ZM317 1952H915V1804H317V1952ZM905 745Q905 1074 838 1215T616 1356Q463 1356 396 1215T328 745Q328 417 395 276T616 135Q770 135 837 275T905 745ZM1116
745Q1116 355 993 163T616 -29Q363 -29 240 162T117 745Q117 1136 240 1328T616 1520Q869 1520 992 1328T1116 745Z" />
<glyph unicode="&#x22b;" glyph-name="uni022B" d="M317 1842H915V1694H317V1842ZM616 991Q476 991 404 882T332 559Q332 346 404 237T616 127Q757 127 829 236T901 559Q901 773 829 882T616 991ZM616 1147Q849 1147 972 996T1096 559Q1096 272 973 122T616 -29Q383
-29 260 121T137 559Q137 845 260 996T616 1147ZM319 1552H522V1350H319V1552ZM711 1552H913V1350H711V1552Z" />
<glyph unicode="&#x22c;" glyph-name="uni022C" d="M905 745Q905 1074 838 1215T616 1356Q463 1356 396 1215T328 745Q328 417 395 276T616 135Q770 135 837 275T905 745ZM1116 745Q1116 355 993 163T616 -29Q363 -29 240 162T117 745Q117 1136 240 1328T616 1520Q869
1520 992 1328T1116 745ZM612 1582L555 1615Q530 1629 515 1634T487 1640Q452 1640 432 1615T412 1545V1539H287Q287 1640 338 1699T475 1758Q511 1758 541 1750T621 1715L678 1685Q700 1672 717 1666T750 1660Q781 1660 801 1685T821 1752V1758H946Q944 1658 893
1599T758 1539Q724 1539 694 1547T612 1582ZM317 1952H915V1804H317V1952Z" />
<glyph unicode="&#x22d;" glyph-name="uni022D" d="M321 1842H919V1694H321V1842ZM616 991Q476 991 404 882T332 559Q332 346 404 237T616 127Q757 127 829 236T901 559Q901 773 829 882T616 991ZM616 1147Q849 1147 972 996T1096 559Q1096 272 973 122T616 -29Q383
-29 260 121T137 559Q137 845 260 996T616 1147ZM612 1370L555 1425Q534 1445 518 1454T487 1464Q449 1464 431 1427T411 1309H287Q288 1443 339 1517T481 1591Q520 1591 552 1577T621 1530L678 1475Q699 1455 715 1446T745 1436Q784 1436 802 1473T821 1591H946Q945
1457 894 1383T752 1309Q713 1309 681 1323T612 1370Z" />
<glyph unicode="&#x22e;" glyph-name="uni022E" d="M513 1872H718V1667H513V1872ZM905 745Q905 1074 838 1215T616 1356Q463 1356 396 1215T328 745Q328 417 395 276T616 135Q770 135 837 275T905 745ZM1116 745Q1116 355 993 163T616 -29Q363 -29 240 162T117
745Q117 1136 240 1328T616 1520Q869 1520 992 1328T1116 745Z" />
<glyph unicode="&#x22f;" glyph-name="uni022F" d="M513 1552H718V1348H513V1552ZM616 991Q476 991 404 882T332 559Q332 346 404 237T616 127Q757 127 829 236T901 559Q901 773 829 882T616 991ZM616 1147Q849 1147 972 996T1096 559Q1096 272 973 122T616 -29Q383
-29 260 121T137 559Q137 845 260 996T616 1147Z" />
<glyph unicode="&#x230;" glyph-name="uni0230" d="M317 1952H915V1804H317V1952ZM513 2004H718V1799H513V2004ZM905 745Q905 1074 838 1215T616 1356Q463 1356 396 1215T328 745Q328 417 395 276T616 135Q770 135 837 275T905 745ZM1116 745Q1116 355 993 163T616
-29Q363 -29 240 162T117 745Q117 1136 240 1328T616 1520Q869 1520 992 1328T1116 745Z" />
<glyph unicode="&#x231;" glyph-name="uni0231" d="M317 1842H915V1694H317V1842ZM513 1552H718V1348H513V1552ZM616 991Q476 991 404 882T332 559Q332 346 404 237T616 127Q757 127 829 236T901 559Q901 773 829 882T616 991ZM616 1147Q849 1147 972 996T1096
559Q1096 272 973 122T616 -29Q383 -29 260 121T137 559Q137 845 260 996T616 1147Z" />
<glyph unicode="&#x232;" glyph-name="uni0232" d="M317 1840H915V1692H317V1840ZM37 1493H252L616 834L979 1493H1196L717 670V0H514V670L37 1493Z" />
<glyph unicode="&#x233;" glyph-name="uni0233" d="M317 1526H915V1378H317V1526ZM858 360Q812 243 741 52Q642 -212 608 -270Q562 -348 493 -387T332 -426H184V-272H293Q374 -272 420 -225T537 18L104 1120H299L631 244L958 1120H1153L858 360Z" />
<glyph unicode="&#x234;" glyph-name="uni0234" d="M728 144Q740 126 806 127Q929 127 932 282Q936 344 872 344T728 144ZM664 -12Q635 -91 615 -148H496L564 46Q545 51 494 148Q455 222 455 406V1423H160V1567H639V406Q639 290 652 255Q766 499 870 500Q1034
502 1034 284Q1034 -29 784 -29Q714 -29 664 -12Z" />
<glyph unicode="&#x235;" glyph-name="uni0235" d="M820 144Q832 126 898 127Q1021 127 1024 282Q1028 344 964 344T820 144ZM715 406Q715 292 737 246Q859 498 962 500Q1121 502 1126 296Q1126 290 1126 284Q1126 -28 876 -29Q805 -29 756 -12Q727 -91 707 -148H588L656
46Q637 51 586 148Q547 222 547 406V641Q547 878 521 935T404 993Q331 993 303 932T274 641V0H107V1120H274V1024Q307 1084 356 1115T469 1147Q602 1147 659 1042Q715 941 715 649V406Z" />
<glyph unicode="&#x236;" glyph-name="uni0236" d="M703 144Q715 126 781 127Q904 127 907 282Q911 344 847 344T703 144ZM614 406Q614 290 627 255Q741 499 845 500Q1009 502 1009 284Q1009 -29 759 -29Q688 -29 640 -12Q610 -91 590 -148H471L539 46Q520 51
469 148Q430 222 430 406V977H131V1120H430V1438H614V1120H1032V977H614V406Z" />
<glyph unicode="&#x237;" glyph-name="dotlessj" d="M600 -20V977H283V1120H784V-20Q784 -215 695 -320T440 -426H186V-270H420Q510 -270 555 -208T600 -20Z" />
<glyph unicode="&#x238;" glyph-name="uni0238" d="M237 773T237 559T277 236T398 127T519 237T561 559Q561 772 520 881T398 991T278 882ZM996 345T996 559T956 882T835 991Q754 991 713 882T672 559Q672 347 713 237T835 127Q915 127 955 236ZM672 977Q698 1059
744 1103T852 1147Q974 1147 1043 992T1113 563Q1113 286 1043 129T851 -29Q791 -29 745 14T672 141V0H561V141Q534 58 488 15T382 -29Q260 -29 190 128T120 563Q120 836 190 991T382 1147Q442 1147 488 1104T561 977V1556H672V977Z" />
<glyph unicode="&#x239;" glyph-name="uni0239" d="M996 345T996 559T956 882T835 991T714 881T672 559Q672 346 713 237T835 127T955 236ZM237 773T237 559T277 236T398 127Q478 127 519 236T561 559Q561 771 520 881T398 991Q318 991 278 882ZM561 141Q535 59
489 15T381 -29Q260 -29 190 126T120 555Q120 832 190 989T382 1147Q442 1147 488 1104T561 977V1118H672V977Q699 1060 745 1103T851 1147Q973 1147 1043 990T1113 555Q1113 282 1043 127T851 -29Q790 -29 744 14T672 141V-438H561V141Z" />
<glyph unicode="&#x23a;" glyph-name="uni023A" d="M494 1493H739L835 1180L1100 1559L1200 1485L881 1029L1196 0H987L877 389H432L302 203L246 0H160L111 -70L8 0L60 74L494 1493ZM546 551H829L748 840L546 551ZM705 995L616 1315L409 572L705 995Z" />
<glyph unicode="&#x23b;" glyph-name="uni023B" d="M368 514L932 1318L914 1324Q829 1356 743 1356Q546 1356 448 1204T350 745Q350 619 368 514ZM1073 53Q996 12 915 -8T743 -29Q456 -29 298 174L289 185L111 -70L8 0L220 303Q139 482 139 745Q139 1111 298 1315T743
1520Q834 1520 915 1500Q974 1485 1030 1459L1100 1559L1200 1485L1073 1304V1231Q1057 1244 1040 1256L411 358Q427 319 448 287Q546 135 743 135Q831 135 915 167T1073 260V53Z" />
<glyph unicode="&#x23c;" glyph-name="uni023C" d="M405 406L881 973Q819 991 748 991Q575 991 482 879T389 559Q389 476 405 406ZM1061 57Q987 14 909 -7T748 -29Q488 -29 342 127L334 136L139 -96L47 -20L263 238Q195 370 195 559Q195 835 341 991T748 1147Q829
1147 906 1126Q946 1115 986 1098L1081 1212L1174 1135L1061 1001V868Q1027 898 994 920L454 279Q467 258 482 240Q576 127 748 127Q844 127 920 156T1061 248V57Z" />
<glyph unicode="&#x23d;" glyph-name="uni023D" d="M288 1493H491V747H754V577H491V170H1212V0H288V577H21V747H288V1493Z" />
<glyph unicode="&#x23e;" glyph-name="uni023E" d="M717 976L960 1323H717V976ZM514 687V1323H47V1493H1079L1125 1559L1225 1485L1186 1429V1323H1112L717 760V0H514V470L136 -70L33 0L514 687Z" />
<glyph unicode="&#x23f;" glyph-name="uni023F" d="M973 1081V901Q894 947 814 970T651 993Q526 993 465 953T403 829Q403 754 449 717T678 645L752 631Q889 605 959 527T1030 324Q1030 158 912 64Q808 -18 632 -28L784 -180L931 -306Q973 -342 1049 -342V-496H1010Q926
-496 812 -435Q741 -397 652 -306L415 -63Q364 -10 263 25L213 41V231Q336 236 458 140Q526 125 588 125Q710 125 777 174T844 313Q844 441 599 490L591 492L522 506Q361 539 290 610Q217 684 217 811Q217 972 326 1059T637 1147Q727 1147 810 1131T973 1081Z"
/>
<glyph unicode="&#x240;" glyph-name="uni0240" d="M227 1122H1040V954L378 133Q427 116 459 84L723 -180L870 -306Q912 -342 988 -342H1040V-496H949Q865 -496 751 -435Q680 -397 591 -306L354 -63Q293 0 203 0V156V170L846 975H227V1122Z" />
<glyph unicode="&#x241;" glyph-name="uni0241" d="M374 1327Q320 1327 260 1280Q212 1242 212 1128V1079H56V1149Q56 1330 152 1411T374 1493H669Q919 1493 1048 1380T1177 1047Q1177 826 1049 713T669 600V0H467V766H669Q809 766 887 840T966 1047T888 1253T669
1327H374Z" />
<glyph unicode="&#x244;" glyph-name="uni0244" d="M21 577V747H147V1493H350V747H883V1493H1085V747H1212V577H1085V573Q1085 344 1057 248T958 88Q892 29 807 0T616 -29Q511 -29 426 0T274 88Q205 150 176 248T147 573V577H21ZM883 577H350V481Q350 372 356
326T377 254Q409 195 469 165T616 135Q703 135 763 165T856 254Q871 279 877 325T883 479V577Z" />
<glyph unicode="&#x245;" glyph-name="uni0245" d="M617 1323L266 0H57L494 1493H739L1176 0H967L617 1323Z" />
<glyph unicode="&#x24c;" glyph-name="uni024C" d="M227 1493H559Q805 1493 936 1382T1067 1061Q1067 913 987 820T760 705Q838 685 893 630Q947 575 1030 408L1233 0H1016L838 377Q761 538 700 584T539 631H430V0H227V631H21V797H227V1493ZM430 1327V797H567Q712
797 783 862T854 1061Q854 1190 779 1258T559 1327H430Z" />
<glyph unicode="&#x24d;" glyph-name="uni024D" d="M1155 889Q1096 935 1035 956T901 977Q729 977 638 869Q561 777 549 616H1062V452H547V0H362V452H142V616H362V1120H547V901Q593 1020 688 1083T915 1147Q983 1147 1042 1130T1155 1077V889Z" />
<glyph unicode="&#x250;" glyph-name="uni0250" d="M510 555H572Q732 555 814 611T896 780Q896 881 835 937T666 993Q514 993 426 888T338 596V555H510ZM154 479V1118H338V952Q398 1052 487 1099T704 1147Q876 1147 978 1051T1080 792Q1080 605 954 508T586 411H338V382Q338
248 406 188T620 127Q714 127 810 154T998 233V49Q896 10 802 -9T620 -29Q482 -29 383 12T224 135Q186 185 170 258T154 479Z" />
<glyph unicode="&#x251;" glyph-name="uni0251" d="M858 977V1118H1042V0H858V141Q812 58 736 15T559 -29Q356 -29 240 128T123 563Q123 836 240 991T559 1147Q660 1147 737 1104T858 977ZM317 559Q317 345 385 236T586 127Q719 127 788 237T858 559Q858 772 789
881T586 991Q453 991 385 882T317 559Z" />
<glyph unicode="&#x252;" glyph-name="uni0252" d="M917 557Q917 771 849 880T648 989Q515 989 446 879T376 557Q376 344 445 235T648 125Q781 125 849 234T917 557ZM376 975Q422 1058 498 1101T675 1145Q878 1145 994 988T1111 553Q1111 280 994 125T675 -31Q574
-31 497 12T376 139V0H192V1118H376V975Z" />
<glyph unicode="&#x253;" glyph-name="uni0253" d="M918 559Q918 773 850 882T649 991Q515 991 446 882T377 559Q377 347 446 237T649 127Q782 127 850 236T918 559ZM377 977Q421 1059 498 1103T678 1147Q880 1147 996 992T1112 563Q1112 286 996 129T676 -29Q576
-29 500 14T377 141V0H193V1150Q193 1345 282 1450T537 1556H741V1400H557Q467 1400 422 1338T377 1150V977Z" />
<glyph unicode="&#x254;" glyph-name="uni0254" d="M184 1061Q258 1104 336 1125T496 1147Q756 1147 903 991T1050 559Q1050 283 903 127T496 -29Q416 -29 339 -8T184 57V250Q256 185 330 156T496 127Q670 127 763 239T856 559Q856 766 762 878T496 991Q400 991
324 962T184 870V1061Z" />
<glyph unicode="&#x255;" glyph-name="uni0255" d="M436 -141Q436 -37 449 44Q392 79 344 130Q195 291 195 559Q195 835 341 991T748 1147Q829 1147 906 1126T1061 1061V868Q988 933 915 962T748 991Q575 991 482 879T389 559Q389 339 488 240Q495 233 501 226Q586
402 781 402Q1082 402 1082 156Q1082 -33 748 -33Q666 -33 595 -16Q589 -73 589 -141H436ZM632 146Q692 127 766 127Q912 127 912 184Q912 259 780 259Q679 259 632 146Z" />
<glyph unicode="&#x256;" glyph-name="uni0256" d="M316 773T316 559T370 236T531 127T694 237T750 559Q750 772 694 881T532 991T371 882ZM750 977V1556H931V-20Q931 -146 966 -208Q1002 -270 1074 -270H1080V-426H1024Q892 -426 820 -320Q749 -215 749 -20V141Q712
58 651 14Q590 -29 510 -29Q330 -29 227 128T123 563Q123 836 227 991T510 1147Q591 1147 652 1104T750 977Z" />
<glyph unicode="&#x257;" glyph-name="uni0257" d="M315 773T315 559T369 236T530 127Q637 127 692 237T748 559Q748 772 693 881T530 991Q424 991 370 882ZM748 1002V1150Q748 1345 819 1450Q891 1556 1023 1556H1079V1400H1074Q1002 1400 966 1338Q931 1276
931 1150V0H748V141Q712 58 651 15T509 -29Q329 -29 226 128T123 563Q123 836 226 991T509 1147Q590 1147 651 1104T748 977V1002Z" />
<glyph unicode="&#x258;" glyph-name="uni0258" d="M122 606Q122 857 245 1002T583 1147Q823 1147 967 987T1111 559Q1111 284 964 128T556 -29Q465 -29 368 -8T165 57V240Q274 183 370 155T554 127Q728 127 823 227T919 510V516H122V606ZM306 659H912Q896 815
810 903T591 991Q455 991 381 906T306 659Z" />
<glyph unicode="&#x259;" glyph-name="uni0259" d="M122 512V602H919V608Q919 791 824 891T554 991Q466 991 370 963T165 878V1061Q270 1104 367 1125T556 1147Q817 1147 964 991T1111 559Q1111 291 967 131T583 -29Q369 -29 246 116T122 512ZM306 459Q306 297
380 212T591 127Q724 127 810 215T912 459H306Z" />
<glyph unicode="&#x25a;" glyph-name="uni025A" d="M578 214Q654 352 654 559Q654 621 647 677L178 321Q201 252 226 217Q288 127 403 127T578 214ZM368 1147Q620 1147 739 915L893 1032H1033V884Q1033 731 1061 683T1170 634H1203V478H1154Q1022 478 958 571T893
864L787 783Q810 687 810 569Q810 294 697 133T402 -29T121 116Q50 219 30 375L612 818Q597 858 577 892Q519 991 360 991T54 887V1061Q208 1147 368 1147Z" />
<glyph unicode="&#x25b;" glyph-name="uni025B" d="M449 607Q330 632 265 697Q201 761 201 855Q201 989 323 1068T654 1147Q735 1147 826 1135Q918 1123 1023 1099V932Q919 959 832 972Q746 984 670 984Q532 984 458 941T384 824Q384 763 456 720Q528 676 663
676H829V532H670Q520 532 436 477T352 341Q352 243 442 190Q533 138 706 138Q805 138 896 156Q987 173 1064 207V34Q967 6 877 -8Q786 -22 700 -22Q446 -22 307 69Q169 161 169 327Q169 436 243 510T449 607Z" />
<glyph unicode="&#x25c;" glyph-name="uni025C" d="M783 607Q915 584 989 510T1064 327Q1064 161 926 70T532 -22Q447 -22 356 -8T169 34V207Q245 173 336 156T527 138Q700 138 790 190T881 341Q881 422 797 477T562 532H404V676H569Q705 676 777 719T849 824Q849
898 775 941T562 984Q487 984 401 972T210 932V1099Q315 1123 406 1135T578 1147Q788 1147 910 1068T1032 855Q1032 761 967 697T783 607Z" />
<glyph unicode="&#x25d;" glyph-name="uni025D" d="M517 607Q616 584 672 510Q728 436 728 327Q728 161 624 69Q520 -22 329 -22Q265 -22 197 -8T57 34V207Q114 173 182 156Q250 138 325 138Q455 138 522 190Q591 243 591 341Q591 422 527 477Q464 532 351 532H233V676H357Q459
676 513 720Q567 763 567 824Q567 898 511 941Q455 984 351 984Q295 984 230 972Q165 959 87 932V1099Q166 1123 234 1135Q303 1147 363 1147Q521 1147 612 1068Q687 1003 701 901L870 1032H1008V884Q1008 731 1037 682Q1065 634 1144 634H1176V478H1128Q997 478
932 574Q871 664 871 864L660 702V703L655 697Q606 632 517 607Z" />
<glyph unicode="&#x25e;" glyph-name="uni025E" d="M670 984Q331 984 331 566Q331 119 670 119Q788 119 848 178Q907 237 907 313Q907 389 848 443Q815 473 676 473H540V630H676Q815 630 848 660Q907 715 907 792T847 926T670 984ZM451 1099Q536 1145 697 1145Q857
1145 957 1059T1058 824Q1058 721 1005 650T853 552Q951 524 1004 453T1058 279Q1058 131 957 44T695 -43Q536 -43 451 18Q176 212 176 556Q176 950 451 1099Z" />
<glyph unicode="&#x25f;" glyph-name="uni025F" d="M1137 616V452H784V-20Q784 -215 695 -320T440 -426H186V-270H420Q510 -270 555 -208T600 -20V452H217V616H600V975H283V1118H784V616H1137Z" />
<glyph unicode="&#x260;" glyph-name="uni0260" d="M749 1118V1150Q749 1345 821 1450Q893 1556 1027 1556H1076V1400H1050Q992 1400 963 1338Q935 1276 935 1150V72Q935 -179 831 -310Q727 -440 521 -440Q459 -440 392 -426T258 -385V-203Q337 -249 402 -271T521
-293Q641 -293 696 -212T751 45V53V178Q716 84 655 38T505 -8Q331 -8 227 149T123 569Q123 802 227 960T505 1118H749ZM752 569V992H538Q429 992 372 884T314 569T371 254T539 145Q642 145 697 254T752 569Z" />
<glyph unicode="&#x261;" glyph-name="uni0261" d="M892 569V992H628Q493 992 422 884T351 569T422 254T630 145Q757 145 824 254T892 569ZM1076 72Q1076 -180 957 -310T607 -440Q531 -440 448 -426T282 -385V-203Q380 -249 460 -271T607 -293Q756 -293 824 -212T892
45V53V178Q848 84 772 38T587 -8Q391 -8 274 149T157 569Q157 794 274 959Q387 1118 587 1118H1076V72Z" />
<glyph unicode="&#x262;" glyph-name="uni0262" d="M946 178V460H790V600H1112V72Q1040 38 952 18Q874 0 672 0Q420 0 271 159T122 588Q122 862 272 1019T684 1176Q746 1176 850 1158Q954 1141 1082 1066V894Q962 971 850 998Q764 1020 692 1020Q514 1020 414
906Q316 793 316 588T414 270Q514 156 692 156Q866 156 946 178Z" />
<glyph unicode="&#x263;" glyph-name="uni0263" d="M738 572Q1022 144 1022 -189Q1022 -245 1001 -288T933 -363T807 -413T617 -430T428 -413T302 -364T234 -288T212 -189Q212 151 500 579L102 1118H320L622 720L914 1118H1130L738 572ZM497 -268T610 -268T772
-230T821 -123Q821 167 618 452Q399 148 399 -123Q399 -192 448 -230Z" />
<glyph unicode="&#x264;" glyph-name="uni0264" d="M726 575Q904 334 904 167T619 0Q316 0 316 167Q316 344 500 586L102 1118H320L616 721L914 1118H1130L726 575ZM608 440Q491 282 491 223Q491 119 614 119Q727 119 727 223Q727 286 608 440Z" />
<glyph unicode="&#x265;" glyph-name="uni0265" d="M188 424V1118H372V424Q372 273 426 202T592 131Q722 131 791 222T860 485V1118H1044V-430H860V168Q810 71 726 21T528 -29Q356 -29 272 83T188 424Z" />
<glyph unicode="&#x266;" glyph-name="uni0266" d="M381 962L379 952Q429 1048 513 1097T711 1147Q883 1147 967 1035T1051 694V0H867V694Q867 845 814 916T647 987Q519 987 449 896T379 633V0H195V1002V1150Q195 1345 285 1450Q375 1556 539 1556H745V1400H559Q469
1400 425 1338T381 1150V962Z" />
<glyph unicode="&#x267;" glyph-name="uni0267" d="M381 962L379 952Q428 1048 512 1097T711 1147Q882 1147 966 1035T1051 694V-20Q1051 -215 963 -320Q872 -426 707 -426H503V-270H687Q778 -270 823 -208Q867 -146 867 -20V694Q867 845 814 916T647 987Q519
987 449 896T379 633V0H195V1002V1150Q195 1345 285 1450Q375 1556 539 1556H745V1400H559Q469 1400 425 1338T381 1150V962Z" />
<glyph unicode="&#x268;" glyph-name="uni0268" d="M524 1556H708V1323H524V1556ZM238 1118H708V616H1062V452H708V143H1074V0H160V143H524V452H142V616H524V977H238V1118Z" />
<glyph unicode="&#x269;" glyph-name="uni0269" d="M1034 0H830Q664 0 574 106Q486 208 486 406V977H198V1118H670V406Q670 280 714 218T848 156H1034V0Z" />
<glyph unicode="&#x26a;" glyph-name="uni026A" d="M160 1118H1074V977H708V143H1074V0H160V143H524V977H160V1118Z" />
<glyph unicode="&#x26b;" glyph-name="uni026B" d="M658 406Q658 259 704 219Q776 156 838 156H1054V0H820Q656 0 565 106T474 406V604Q428 614 381 614Q302 614 232 585T88 492V666Q166 726 239 753T395 780Q436 780 474 774V1423H180V1567H658V710Q772 657 864
657Q934 657 1002 687T1145 780V606Q1070 547 999 520T848 492Q763 492 658 537V406Z" />
<glyph unicode="&#x26c;" glyph-name="uni026C" d="M682 406Q682 282 727 219T862 156H1076V0H844Q679 0 589 106T498 406V626H436Q157 626 157 815Q157 1061 403 1061Q456 1061 498 1036V1423H203V1567H682V786H932V626H682V406ZM498 786Q475 918 404 918Q326
918 326 843Q326 786 418 786H498Z" />
<glyph unicode="&#x26d;" glyph-name="uni026D" d="M639 -20Q639 -144 684 -207T819 -270H1034V-426H801Q636 -426 546 -320T455 -20V1423H160V1567H639V-20Z" />
<glyph unicode="&#x26e;" glyph-name="uni026E" d="M424 406Q424 282 460 219T568 156H740V0H553Q421 0 349 106T276 406V1423H40V1567H424V1120H1122V952L793 476Q877 476 980 420Q1059 377 1128 269Q1192 165 1192 27Q1192 -194 1071 -315T725 -436Q650 -436
571 -418Q491 -399 406 -362V-167Q473 -216 553 -241T720 -266Q872 -266 952 -191T1032 27Q1032 159 958 234Q884 308 752 308H612V474L956 973H424V406Z" />
<glyph unicode="&#x26f;" glyph-name="uni026F" d="M562 141Q528 69 476 35T350 0Q214 0 159 104T104 498V1147H272V506Q272 269 298 212T394 154Q474 154 504 215T534 506V1147H702V506Q702 266 730 210T832 154T934 215T962 506V1147H1130V27H962V123Q930 63
880 32T768 0Q692 0 641 35T562 141Z" />
<glyph unicode="&#x270;" glyph-name="uni0270" d="M562 141Q528 69 476 35T350 0Q214 0 159 104T104 498V1147H272V506Q272 269 298 212T394 154Q474 154 504 215T534 506V1147H702V506Q702 266 730 210T832 154T934 215T962 506V1147H1130V-430H962V123Q930
63 880 32T768 0Q692 0 641 35T562 141Z" />
<glyph unicode="&#x271;" glyph-name="uni0271" d="M670 1006Q704 1078 756 1112T883 1147Q1018 1147 1073 1043T1129 649V-20Q1129 -214 1049 -320T818 -426H632V-270H800Q883 -270 922 -208T961 -20V641Q961 878 935 935T838 993Q758 993 729 932T699 641V0H531V641Q531
881 503 937T400 993Q327 993 299 932T270 641V0H103V1118H270V1024Q303 1088 352 1117T465 1147Q548 1147 592 1112Q645 1069 670 1006Z" />
<glyph unicode="&#x272;" glyph-name="uni0272" d="M490 -20Q490 -234 429 -330T231 -426H178V-270H180Q248 -270 276 -222Q304 -173 304 -20V1118H490V946Q539 1047 607 1097Q674 1147 761 1147Q929 1147 1015 1028Q1101 908 1101 676V0H916V670Q916 829 870
908T730 987Q619 987 554 892Q490 797 490 633V-20Z" />
<glyph unicode="&#x273;" glyph-name="uni0273" d="M744 -20V670Q744 829 698 908Q651 987 558 987Q446 987 382 892Q317 797 317 633V0H136V1118H317V946Q367 1047 434 1097T589 1147Q757 1147 843 1028Q929 908 929 676V-20Q929 -173 958 -222Q987 -270 1050
-270H1054V-426H1002Q866 -426 806 -330Q744 -234 744 -20Z" />
<glyph unicode="&#x274;" glyph-name="uni0274" d="M144 1147H416L893 244V1147H1089V0H817L340 903V0H144V1147Z" />
<glyph unicode="&#x275;" glyph-name="uni0275" d="M383 1147T616 1147T972 996T1096 559Q1096 272 973 122T616 -29Q383 -29 260 121T137 559Q137 845 260 996ZM616 991Q476 991 404 882Q341 787 333 611H900Q892 787 829 882Q757 991 616 991ZM895 447H338Q352
315 404 236Q476 127 616 127Q757 127 829 236Q881 315 895 447Z" />
<glyph unicode="&#x276;" glyph-name="uni0276" d="M1153 1120V950H780V675H1136V520H780V172H1164V0H564Q321 0 195 142Q69 285 69 561Q69 835 195 977Q321 1120 564 1120H1153ZM596 973H573Q422 973 347 869Q272 766 272 559Q272 351 347 247Q422 142 573 142H596V973Z" />
<glyph unicode="&#x277;" glyph-name="uni0277" d="M896 510Q896 666 839 779Q759 940 614 940Q483 940 411 829Q337 714 337 483Q337 171 461 171Q495 171 536 250Q558 293 558 478V660H675V478Q675 293 698 250Q739 171 771 171Q896 171 896 510ZM1062 435Q1062
264 1014 128Q959 -30 822 -30Q727 -30 660 92Q633 142 617 243Q601 142 574 92Q507 -30 412 -30Q294 -30 226 124Q170 248 170 431Q170 686 234 859Q340 1147 617 1147Q852 1147 972 910Q1062 734 1062 435Z" />
<glyph unicode="&#x278;" glyph-name="uni0278" d="M532 1391H292V1555H956V1391H716V1139Q877 1113 972 996Q1096 845 1096 559Q1096 272 973 122Q878 5 716 -21V-261H956V-426H292V-261H532V-24Q360 -1 260 122Q137 272 137 559Q137 845 260 996Q360 1119 532
1142V1391ZM716 974V144Q785 170 829 236Q901 346 901 559Q901 773 829 882Q785 948 716 974ZM532 139V979Q453 955 404 882Q332 773 332 559Q332 346 404 236Q453 163 532 139Z" />
<glyph unicode="&#x279;" glyph-name="uni0279" d="M152 231Q211 185 272 164T406 143Q578 143 669 251T760 563V1118H945V0H760V219Q714 100 619 37T392 -27Q324 -27 265 -10T152 43V231Z" />
<glyph unicode="&#x27a;" glyph-name="uni027A" d="M152 231Q211 185 272 164T406 143Q578 143 669 251T760 563V1567H945V0H760V219Q714 100 619 37T392 -27Q324 -27 265 -10T152 43V231Z" />
<glyph unicode="&#x27b;" glyph-name="uni027B" d="M895 -20Q895 -145 939 -207T1074 -270H1152V-426H1054Q889 -426 800 -321T710 -20V219Q664 100 569 37T342 -27Q274 -27 215 -10T102 43V231Q161 185 222 164T356 143Q528 143 619 251T710 563V1118H895V-20Z" />
<glyph unicode="&#x27c;" glyph-name="uni027C" d="M1155 889Q1096 935 1035 956T901 977Q729 977 638 869T547 557V-426H362V1118H547V901Q593 1020 688 1083T915 1147Q983 1147 1042 1130T1155 1077V889Z" />
<glyph unicode="&#x27d;" glyph-name="uni027D" d="M547 -20Q547 -145 591 -208Q635 -270 726 -270H960V-426H706Q541 -426 452 -321T362 -20V1118H547V901Q593 1020 688 1083T915 1147Q983 1147 1042 1130T1155 1077V889Q1096 935 1035 956T901 977Q729 977 638
869Q547 761 547 557V-20Z" />
<glyph unicode="&#x27e;" glyph-name="uni027E" d="M520 741Q520 953 602 1051Q684 1147 864 1147H1074V991H886Q780 991 742 943Q706 893 706 741V143H1074V0H160V143H520V741Z" />
<glyph unicode="&#x27f;" glyph-name="uni027F" d="M712 741V143H1074V0H160V143H526V741Q526 895 490 943T346 991H160V1147H368Q548 1147 630 1051Q712 953 712 741Z" />
<glyph unicode="&#x280;" glyph-name="uni0280" d="M724 525Q779 508 832 454Q884 400 937 306L1111 0H916L754 287Q691 400 632 436Q573 473 476 473H307V0H122V1118H510Q727 1118 835 1040Q942 963 942 797Q942 692 886 622T724 525ZM307 965V628H505Q624 628
687 671Q751 714 751 797Q751 881 687 923Q624 965 505 965H307Z" />
<glyph unicode="&#x281;" glyph-name="uni0281" d="M724 595Q830 568 886 498T942 323Q942 161 835 80Q727 0 510 0H122V1118H307V647H476Q573 647 632 684Q691 720 754 833L916 1118H1111L937 814Q884 720 832 666Q779 612 724 595ZM307 155H505Q624 155 687
197Q751 239 751 323Q751 406 687 449Q624 492 505 492H307V155Z" />
<glyph unicode="&#x282;" glyph-name="uni0282" d="M984 1087V913Q906 953 823 973T648 993Q512 993 444 951Q374 909 374 825Q374 761 424 724Q472 688 620 655L684 641Q880 599 962 522Q1044 446 1044 309Q1044 152 922 62Q798 -29 582 -29Q478 -29 372 -8Q372
-167 410 -222Q444 -270 554 -270H786V-426H532Q352 -426 270 -330T188 -20V231Q290 178 390 152Q488 125 586 125Q716 125 786 170Q856 214 856 295Q856 370 806 410Q754 450 584 487L520 502Q348 538 272 612Q196 687 196 817Q196 975 308 1061T626 1147Q728
1147 818 1132T984 1087Z" />
<glyph unicode="&#x283;" glyph-name="uni0283" d="M723 -20Q723 -215 634 -320T379 -426H125V-270H359Q449 -270 494 -208T539 -20V1198Q539 1382 623 1469T887 1556H1108V1403H899Q800 1403 762 1363T723 1219V-20Z" />
<glyph unicode="&#x284;" glyph-name="uni0284" d="M1076 616V452H723V-20Q723 -215 634 -320T379 -426H125V-270H359Q449 -270 494 -208T539 -20V452H156V616H539V977H222V1118H539V1198Q539 1382 623 1469T887 1556H1108V1403H899Q800 1403 762 1363T723 1219V616H1076Z"
/>
<glyph unicode="&#x285;" glyph-name="uni0285" d="M723 712V-89Q723 -192 762 -232Q800 -273 899 -273H1108V-426H887Q708 -426 624 -339T539 -68V712Q539 836 494 900Q449 962 359 962H125V1118H379Q544 1118 633 1013T723 712Z" />
<glyph unicode="&#x286;" glyph-name="uni0286" d="M568 -154H389Q273 -154 273 -205Q273 -270 400 -270Q510 -270 543 -222Q561 -199 568 -154ZM763 0H946V-155H755Q737 -266 684 -330Q602 -426 421 -426Q118 -426 118 -210Q118 0 388 0H578V1198Q578 1378 665
1470Q746 1556 941 1556H1115V1403H939Q839 1403 802 1363Q763 1322 763 1219V0Z" />
<glyph unicode="&#x287;" glyph-name="uni0287" d="M584 -318V0H166V143H584V751Q584 875 537 924T373 973H166V1120H391Q598 1120 683 1037T768 751V143H1067V0H768V-318H584Z" />
<glyph unicode="&#x288;" glyph-name="uni0288" d="M614 1438V1120H1032V977H614V-56Q614 -180 661 -229T825 -278H1032V-425H807Q600 -425 515 -342T430 -56V977H131V1120H430V1438H614Z" />
<glyph unicode="&#x289;" glyph-name="uni0289" d="M0 452V616H142V1120H326V616H896V1120H1080V616H1233V452H1080V0H896V172Q829 70 740 20Q651 -29 534 -29Q341 -29 242 91T142 442V452H0ZM895 452H326V449Q326 290 388 210Q450 131 574 131Q723 131 810 226Q887
311 895 452Z" />
<glyph unicode="&#x28a;" glyph-name="uni028A" d="M95 956V1120H537V900Q428 831 365 726Q299 615 299 480Q299 321 387 224T619 127T851 224Q939 322 939 480Q939 626 873 726Q802 837 702 900V1120H1138V956H902Q1016 856 1072 743Q1126 633 1126 497Q1126
262 984 116T617 -30T250 115Q108 261 108 489Q108 636 160 743Q213 852 332 956H95Z" />
<glyph unicode="&#x28b;" glyph-name="uni028B" d="M597 986H919Q1033 886 1089 773Q1143 663 1143 527Q1143 292 1001 146T634 0H564Q383 0 301 96Q220 192 220 406V977H65V1120H404V406Q404 253 442 204Q482 154 585 156L636 157Q780 157 868 254Q956 352 956
510Q956 656 890 756Q811 875 719 930Q643 974 597 986Z" />
<glyph unicode="&#x28c;" glyph-name="uni028C" d="M1162 0H966L616 940L266 0H72L492 1120H742L1162 0Z" />
<glyph unicode="&#x28d;" glyph-name="uni028D" d="M1218 0H1070L886 874L703 0H530L346 874L162 0H15L250 1120H423L616 202L810 1120H983L1218 0Z" />
<glyph unicode="&#x28e;" glyph-name="uni028E" d="M564 1224Q642 1424 716 1485T914 1546H1060V1392H952Q876 1392 834 1356T742 1186L708 1102L1162 0H966L616 876L266 0H72L564 1224Z" />
<glyph unicode="&#x28f;" glyph-name="uni028F" d="M102 1149H319L612 693L914 1149H1131L712 525V0H509V525L102 1149Z" />
<glyph unicode="&#x290;" glyph-name="uni0290" d="M213 1120H892V952L373 147H910L911 -20Q911 -173 932 -222Q953 -270 1012 -270H1039V-426H987Q851 -426 790 -330T729 -20V0H194V168L713 973H213V1120Z" />
<glyph unicode="&#x291;" glyph-name="uni0291" d="M682 0Q679 -51 679 -111H526Q526 -52 529 0H167V168L859 973H192V1120H1066V952L374 147H549Q609 435 828 435Q1055 435 1056 189Q1057 0 723 0H682ZM703 147H723Q897 147 897 201Q897 292 827 292Q739 290 703 147Z" />
<glyph unicode="&#x292;" glyph-name="uni0292" d="M609 476Q715 476 843 420Q941 378 1027 269Q1108 165 1108 27Q1108 -194 956 -315T524 -436Q430 -436 331 -418Q231 -399 125 -362V-167Q209 -216 309 -241T518 -266Q708 -266 807 -191Q907 -116 907 27Q907
159 815 234Q722 308 557 308H383V474L813 973H146V1120H1020V952L609 476Z" />
<glyph unicode="&#x293;" glyph-name="uni0293" d="M483 -436Q148 -436 150 -247Q152 4 450 -1Q696 -5 854 -64Q866 -22 866 27Q866 160 774 234Q680 308 516 308H342V474L772 973H105V1120H979V952L568 476Q673 476 802 420Q902 377 986 269Q1067 166 1067 27Q1067
-86 1028 -171Q1128 -272 1128 -436H975Q975 -354 935 -298Q935 -298 915 -315Q764 -436 483 -436ZM773 -186Q648 -144 451 -144Q320 -144 319 -219Q319 -266 477 -266Q667 -266 766 -191L773 -186Z" />
<glyph unicode="&#x294;" glyph-name="uni0294" d="M446 798H509Q700 798 787 912Q845 988 845 1086Q845 1219 787 1284Q685 1398 509 1398Q429 1398 350 1376Q272 1355 194 1312V1484Q270 1519 351 1536Q432 1554 517 1554Q792 1554 930 1397Q1039 1272 1039
1086Q1039 916 931 801Q819 682 649 652V0H446V798Z" />
<glyph unicode="&#x295;" glyph-name="uni0295" d="M786 798V0H584V652Q414 682 302 801Q194 916 194 1086Q194 1272 304 1397Q441 1554 716 1554Q801 1554 882 1536Q963 1519 1039 1484V1312Q961 1355 882 1376Q804 1398 724 1398Q545 1398 446 1284Q389 1219
388 1086Q388 988 446 912Q532 798 724 798H786Z" />
<glyph unicode="&#x296;" glyph-name="uni0296" d="M446 756V1554H649V902Q819 872 931 753Q1039 638 1039 468Q1039 282 930 157Q792 0 517 0Q432 0 351 18Q270 35 194 70V242Q272 199 350 178Q429 156 509 156Q688 156 787 270Q844 335 845 468Q845 566 787
642Q701 756 509 756H446Z" />
<glyph unicode="&#x297;" glyph-name="uni0297" d="M194 1086Q194 1272 304 1397Q441 1554 716 1554Q801 1554 882 1536Q963 1519 1039 1484V1312Q961 1355 882 1376Q804 1398 724 1398Q545 1398 446 1284Q389 1219 388 1086V30Q389 -103 446 -168Q545 -282 724
-282Q804 -282 882 -260Q961 -239 1039 -196V-368Q963 -403 882 -420Q801 -438 716 -438Q441 -438 304 -281Q194 -156 194 30V1086Z" />
<glyph unicode="&#x298;" glyph-name="uni0298" d="M95 565Q95 777 249 933Q403 1090 619 1090Q831 1090 985 933Q1139 777 1139 565Q1139 349 988 197T620 45T249 197T95 565ZM276 566Q276 425 377 326Q477 227 618 227T858 326T957 566Q957 704 857 806Q756
908 618 908Q477 908 377 806Q276 704 276 566ZM503 567Q503 613 537 647Q570 681 617 681Q663 681 697 647Q730 613 730 567Q730 520 697 487T617 454T537 487Q503 520 503 567Z" />
<glyph unicode="&#x299;" glyph-name="uni0299" d="M411 530V170H632Q725 170 772 222T820 338Q820 430 775 480T636 530H411ZM411 980V700H621Q706 700 748 742T790 848Q790 894 748 937T620 980H411ZM209 1149H606Q784 1149 880 1075T976 865Q976 760 927 698T782
620Q897 595 960 517T1024 322Q1024 168 920 84T622 0H209V1149Z" />
<glyph unicode="&#x29a;" glyph-name="uni029A" d="M562 984Q447 984 390 930Q326 869 326 792T386 660Q418 630 556 630H693V473H556Q418 473 386 443Q326 389 326 311Q326 237 390 173Q445 119 562 119Q902 120 902 566Q902 984 562 984ZM782 1099Q1058 948
1058 556Q1058 212 782 18Q696 -44 549 -42Q376 -42 276 45Q176 131 176 279Q176 382 229 453T380 552Q282 579 229 650T176 824Q176 972 276 1059Q376 1145 549 1145Q699 1145 782 1099Z" />
<glyph unicode="&#x29b;" glyph-name="uni029B" d="M718 178V460H602V600H888V72Q887 68 724 18Q666 0 514 0Q302 0 179 159Q54 319 54 588Q54 859 181 1019Q305 1176 524 1176Q575 1176 647 1158Q671 1152 684 1147V1148Q684 1364 746 1458Q806 1554 942 1554H1132V1398H1003Q925
1398 895 1350Q867 1299 867 1148V1000H865V894Q836 932 647 998Q584 1020 529 1020Q395 1020 320 906Q246 793 246 588T320 270Q395 156 529 156Q659 156 718 178Z" />
<glyph unicode="&#x29c;" glyph-name="uni029C" d="M144 1147H346V700H887V1147H1089V0H887V530H346V0H144V1147Z" />
<glyph unicode="&#x29d;" glyph-name="uni029D" d="M666 1556H850V1323H666V1556ZM850 1120V0H1030V-155H840Q821 -267 768 -330Q687 -426 506 -426Q202 -426 202 -205Q202 0 472 0H666V977H348V1120H850ZM655 -154H474Q355 -154 358 -205Q361 -270 484 -270Q590
-270 628 -222Q645 -199 655 -154Z" />
<glyph unicode="&#x29e;" glyph-name="uni029E" d="M1114 -436H928V483L380 0H144L738 524L120 1120H360L928 573V1120H1114V-436Z" />
<glyph unicode="&#x29f;" glyph-name="uni029F" d="M245 1147H447V170H988V0H245V1147Z" />
<glyph unicode="&#x2a0;" glyph-name="uni02A0" d="M699 168Q655 68 589 20Q522 -29 429 -29Q255 -29 145 133Q36 295 36 559T145 985Q255 1147 429 1147Q522 1147 589 1098Q655 1050 699 950V1148Q699 1362 760 1458Q821 1554 957 1554H1147V1398H1020Q941 1398
912 1350Q884 1301 884 1148V-426H699V168ZM228 762T228 559T291 240Q354 125 463 125T636 240Q699 356 699 559T636 878Q573 993 464 993T291 878Q228 762 228 559Z" />
<glyph unicode="&#x2a1;" glyph-name="uni02A1" d="M446 798H509Q700 798 787 912Q845 988 845 1086Q845 1219 787 1284Q685 1398 509 1398Q429 1398 350 1376Q272 1355 194 1312V1484Q270 1519 351 1536Q432 1554 517 1554Q792 1554 930 1397Q1039 1272 1039
1086Q1039 916 931 801Q819 682 649 652V440H880V276H649V0H447V276H218V440H446V798Z" />
<glyph unicode="&#x2a2;" glyph-name="uni02A2" d="M584 440V652Q414 682 302 801Q194 916 194 1086Q194 1272 304 1397Q441 1554 716 1554Q801 1554 882 1536Q963 1519 1039 1484V1312Q961 1355 882 1376Q804 1398 724 1398Q548 1398 446 1284Q388 1219 388 1086Q388
988 446 912Q533 798 724 798H786V440H1015V276H786V0H584V276H353V440H584Z" />
<glyph unicode="&#x2a3;" glyph-name="uni02A3" d="M168 762T168 559T218 241T355 125T493 240T544 559T494 877T356 993T218 878ZM544 950V1556H654V1120H1177V952L762 147H1177V0H654H638H544V168Q511 71 452 20Q396 -29 318 -29Q190 -29 110 133T29 559T109
985T318 1147Q396 1147 452 1098Q510 1050 544 950ZM654 973V200L1053 973H654Z" />
<glyph unicode="&#x2a4;" glyph-name="uni02A4" d="M141 762T141 559T191 240Q241 125 329 125Q416 125 467 240Q517 356 517 559T467 878Q416 993 329 993Q241 993 191 878Q141 762 141 559ZM627 973L628 0H517V168Q482 68 429 20Q376 -29 302 -29Q180 -29 104
133Q27 295 27 559T104 985Q180 1147 302 1147Q376 1147 429 1098Q482 1050 517 950V1556H628L627 1120H1151V952L905 476Q968 476 1045 420Q1104 378 1155 269Q1204 165 1204 27Q1204 -194 1113 -315T854 -436Q797 -436 738 -418Q678 -399 614 -362V-167Q665 -216
725 -241T850 -266Q964 -266 1023 -191Q1083 -116 1083 27Q1083 159 1028 234Q972 308 873 308H769V474L1027 973H628H627Z" />
<glyph unicode="&#x2a5;" glyph-name="uni02A5" d="M169 762T169 559T219 241T356 125T494 240T545 559T495 877T357 993T219 878ZM652 973L655 203L1052 973H655H652ZM655 1120H1176V952L761 147H866Q902 435 1034 435Q1170 435 1170 189Q1171 0 971 0H946Q944
-51 944 -111H852Q852 -28 853 -1L637 0H545V168Q510 68 457 20T329 -29Q208 -29 132 133T55 559T131 985T329 1147Q404 1147 457 1099T545 950V1556H655V1120ZM959 147H971Q1075 147 1075 201Q1075 292 1033 292Q980 290 959 147Z" />
<glyph unicode="&#x2a6;" glyph-name="uni02A6" d="M1044 1087V913Q997 953 947 973T842 993Q760 993 719 951T678 825Q678 761 707 725T826 655L863 641Q982 597 1030 522Q1080 446 1080 309Q1080 153 1006 62T802 -29Q748 -29 690 -12Q634 5 572 38V0H459Q331
0 283 79T234 369V977H153V1120H234V1438H345V1120H572V977H345V369Q345 232 367 193T459 154H566V231Q628 178 687 152T805 125Q883 125 925 169T967 295Q967 370 936 410Q909 446 803 487L765 502Q662 538 617 612T571 817Q571 975 638 1061T829 1147Q890 1147
944 1132T1044 1087Z" />
<glyph unicode="&#x2a7;" glyph-name="uni02A7" d="M393 1438V1120H674V1198Q674 1380 739 1470Q799 1556 946 1556H1076V1403H944Q870 1403 842 1363Q812 1322 812 1219L814 -20Q814 -235 753 -330Q692 -426 556 -426H503V-270H540Q618 -270 647 -222Q676 -172
676 -20V0H535Q374 0 315 80Q254 157 254 369V977H153V1120H254V1438H393ZM675 154Q674 433 674 977H393V369Q393 231 421 193Q450 154 535 154H675Z" />
<glyph unicode="&#x2a8;" glyph-name="uni02A8" d="M373 1438V1120H601V990Q691 1147 848 1147Q899 1147 948 1130Q996 1112 1042 1077V905Q995 948 948 970Q901 991 853 991Q745 991 686 878Q627 764 627 559T686 240Q690 233 694 226Q744 402 862 402Q1041 402
1042 156Q1042 -33 842 -33Q793 -33 750 -16Q747 -73 747 -141L655 -144Q655 -40 662 44Q629 78 601 128V0H487Q359 0 311 79T262 369V977H181V1120H262V1438H373ZM772 146Q808 127 853 127Q940 127 940 184Q940 259 861 259Q800 259 772 146ZM587 154Q510 311
510 559Q510 822 594 977H373V369Q373 232 395 193T487 154H587Z" />
<glyph unicode="&#x2a9;" glyph-name="uni02A9" d="M1095 676V-20Q1095 -234 1046 -330Q997 -426 889 -426H736V-270H876Q939 -270 962 -222Q985 -173 985 -20V670Q985 829 948 908T836 987Q747 987 695 892T643 633V0H532V977H352V0H242V977H136V1120H242V1198Q242
1385 294 1470T459 1556H564V1403H458Q399 1403 376 1363T352 1219V1120H532H534H643V946Q683 1047 736 1097Q790 1147 860 1147Q976 1147 1036 1028Q1095 908 1095 676Z" />
<glyph unicode="&#x2aa;" glyph-name="uni02AA" d="M958 1087V913Q899 954 837 973Q772 993 706 993Q603 993 552 951T501 825Q501 762 537 724Q575 688 685 655L732 641Q881 597 941 522Q1003 446 1003 309Q1003 154 910 62Q819 -29 656 -29Q591 -29 515 -12Q436
9 368 38V0H230V1556H368V846Q376 984 451 1061Q535 1147 690 1147Q766 1147 834 1132Q901 1117 958 1087ZM368 788V226Q443 175 512 152Q586 125 659 125Q756 125 809 170Q861 213 861 295Q861 370 824 410Q790 445 657 487L609 502Q481 538 424 612Q374 677 368
788Z" />
<glyph unicode="&#x2ab;" glyph-name="uni02AB" d="M219 1556H357V1120H1012V952L493 147H1012V0H357H337H219V1556ZM357 973V199L856 973H357Z" />
<glyph unicode="&#x2ac;" glyph-name="uni02AC" d="M143 597H259L404 108L548 597H685L830 108L974 597H1090L905 -30H769L617 484L464 -30H328L143 597ZM143 1311H259L404 822L548 1311H685L830 822L974 1311H1090L905 684H769L617 1198L464 684H328L143 1311Z" />
<glyph unicode="&#x2ad;" glyph-name="uni02AD" d="M143 597H1090V173H947V434H286V173H143V597ZM143 1311H1090V887H947V1148H286V887H143V1311Z" />
<glyph unicode="&#x2ae;" glyph-name="uni02AE" d="M644 -29Q351 -29 351 442V1150Q351 1303 323 1351T215 1400H178V1556H231Q367 1556 428 1460T489 1150V448Q489 131 675 131Q787 131 851 226T916 485V1118H1054V-438H916V172Q817 -29 644 -29Z" />
<glyph unicode="&#x2af;" glyph-name="uni02AF" d="M446 448Q446 131 594 131Q684 131 735 226T787 485V1118H898V-20Q896 -168 920 -219T1006 -270H1036V-426H994Q885 -426 838 -334Q788 -231 787 0V172Q708 -29 570 -29Q335 -29 335 442V1150Q335 1303 312 1352Q289
1400 226 1400H197V1556H239Q348 1556 397 1460T446 1150V448Z" />
<glyph unicode="&#x2b0;" glyph-name="uni02B0" d="M912 1047V668H796V1043Q796 1132 757 1176T640 1221Q546 1221 492 1168T438 1022V668H321V1539H438V1198Q479 1254 535 1282T666 1310Q787 1310 849 1243T912 1047Z" />
<glyph unicode="&#x2b1;" glyph-name="uni02B1" d="M437 1196H438Q479 1253 535 1281T666 1309Q787 1309 849 1242T912 1045V667H796V1042Q796 1131 757 1175T640 1219Q546 1219 492 1166T438 1021V667H321V1228V1311Q321 1430 373 1484Q424 1538 538 1538H698V1451H551Q485
1451 461 1424Q437 1396 437 1311V1196Z" />
<glyph unicode="&#x2b2;" glyph-name="uni02B2" d="M631 1295H747V657Q747 537 696 483T530 429H486V517H517Q583 517 607 544T631 657V1295ZM631 1539H747V1409H631V1539Z" />
<glyph unicode="&#x2b3;" glyph-name="uni02B3" d="M823 1199Q804 1209 781 1213T730 1218Q632 1218 579 1162T526 998V668H410V1295H526V1198Q563 1255 621 1282T764 1310Q776 1310 790 1309T823 1305V1199Z" />
<glyph unicode="&#x2b4;" glyph-name="uni02B4" d="M410 764Q429 754 452 750T503 745Q601 745 654 801T707 965V1295H823V668H707V765Q670 708 612 681T469 653Q457 653 443 654T410 658V764Z" />
<glyph unicode="&#x2b5;" glyph-name="uni02B5" d="M337 764Q357 754 380 750T431 745Q529 745 581 801T634 965V1295H751V740V668V657Q751 571 775 544Q799 517 865 517H896V429H851Q737 429 686 483Q635 537 635 657V668H634V765Q598 708 539 681T397 653Q385
653 371 654T338 658L337 764Z" />
<glyph unicode="&#x2b6;" glyph-name="uni02B6" d="M684 1001Q751 986 786 947T822 849Q822 758 754 713Q686 668 549 668H305V1295H422V1030H528Q589 1030 626 1051Q663 1071 703 1134L805 1295H928L818 1124Q785 1071 752 1041Q719 1011 684 1001ZM422 755H546Q621
755 661 778Q701 802 701 849Q701 895 661 919Q621 944 546 944H422V755Z" />
<glyph unicode="&#x2b7;" glyph-name="uni02B7" d="M143 1295H259L404 806L548 1295H685L830 806L974 1295H1090L905 668H769L617 1182L464 668H328L143 1295Z" />
<glyph unicode="&#x2b8;" glyph-name="uni02B8" d="M650 610Q601 498 555 464T429 429H337V516H405Q453 516 479 536T538 631L559 678L273 1295H396L616 805L837 1295H960L650 610Z" />
<glyph unicode="&#x2b9;" glyph-name="uni02B9" d="M492 1140L557 1638H747L637 1140H492Z" />
<glyph unicode="&#x2bb;" glyph-name="uni02BB" d="M715 967H463V1174L659 1556H813L715 1174V967Z" />
<glyph unicode="&#x2bc;" glyph-name="uni02BC" d="M561 1556H813V1350L616 967H463L561 1350V1556Z" />
<glyph unicode="&#x2bd;" glyph-name="uni02BD" d="M496 1475V1729H737V1475H625Q625 1341 737 1341V1218Q496 1218 496 1475Z" />
<glyph unicode="&#x2be;" glyph-name="uni02BE" d="M480 1007Q480 1068 480 1130Q544 1130 588 1174T632 1282Q632 1345 588 1389T480 1433Q480 1494 480 1556Q594 1556 674 1476Q754 1397 754 1282T674 1087Q594 1007 480 1007Z" />
<glyph unicode="&#x2bf;" glyph-name="uni02BF" d="M754 1007Q638 1007 558 1087Q480 1167 480 1282T558 1476Q638 1556 754 1556Q754 1494 754 1433Q690 1433 646 1389T602 1282Q602 1218 646 1174T754 1130Q754 1068 754 1007Z" />
<glyph unicode="&#x2c0;" glyph-name="uni02C0" d="M509 1357H549Q670 1357 724 1421Q760 1463 760 1518Q760 1593 724 1629Q662 1693 549 1693Q498 1693 449 1681Q399 1669 350 1645V1741Q398 1761 449 1770Q500 1780 554 1780Q727 1780 814 1692Q883 1622 883
1518Q883 1423 815 1359Q744 1292 637 1275V910H510L509 1357Z" />
<glyph unicode="&#x2c1;" glyph-name="uni02C1" d="M723 1357V910H596V1275Q489 1292 418 1359Q350 1423 350 1518Q350 1622 420 1692Q506 1780 679 1780Q733 1780 784 1770Q835 1761 883 1741V1645Q834 1669 784 1681Q735 1693 684 1693Q571 1693 509 1629Q473
1593 473 1518Q473 1463 509 1421Q563 1357 684 1357H723Z" />
<glyph unicode="&#x2c6;" glyph-name="circumflex" d="M543 1638H690L936 1262H797L616 1507L436 1262H297L543 1638Z" />
<glyph unicode="&#x2c7;" glyph-name="caron" d="M543 1262L297 1638H436L616 1393L797 1638H936L690 1262H543Z" />
<glyph unicode="&#x2c8;" glyph-name="uni02C8" d="M684 1554V999H548V1554H684Z" />
<glyph unicode="&#x2c9;" glyph-name="uni02C9" d="M317 1526H915V1378H317V1526Z" />
<glyph unicode="&#x2cc;" glyph-name="uni02CC" d="M684 252V-303H548V252H684Z" />
<glyph unicode="&#x2cd;" glyph-name="uni02CD" d="M318 -209H916V-357H318V-209Z" />
<glyph unicode="&#x2d0;" glyph-name="uni02D0" d="M616 729L438 1059H795L616 729ZM616 330L795 0H438L616 330Z" />
<glyph unicode="&#x2d1;" glyph-name="uni02D1" d="M616 729L438 1059H795L616 729Z" />
<glyph unicode="&#x2d2;" glyph-name="uni02D2" d="M480 510Q480 571 480 633Q544 633 588 677T632 785Q632 848 588 892T480 936Q480 997 480 1059Q594 1059 674 979Q754 900 754 785T674 590Q594 510 480 510Z" />
<glyph unicode="&#x2d3;" glyph-name="uni02D3" d="M754 510Q638 510 558 590Q480 670 480 785T558 979Q638 1059 754 1059Q754 997 754 936Q690 936 646 892T602 785Q602 721 646 677T754 633Q754 571 754 510Z" />
<glyph unicode="&#x2d6;" glyph-name="uni02D6" d="M542 629V853H692V629H916V479H692V255H542V479H318V629H542Z" />
<glyph unicode="&#x2d7;" glyph-name="uni02D7" d="M842 479H392V629H842V479Z" />
<glyph unicode="&#x2d8;" glyph-name="breve" d="M303 1608H422Q433 1532 481 1495T616 1458Q701 1458 749 1495T811 1608H930Q919 1465 840 1393T616 1321Q472 1321 393 1393T303 1608Z" />
<glyph unicode="&#x2d9;" glyph-name="dotaccent" d="M513 1552H718V1348H513V1552Z" />
<glyph unicode="&#x2da;" glyph-name="ring" d="M891 1524Q891 1409 812 1329T616 1249Q501 1249 422 1329T342 1524Q342 1639 421 1718T616 1798Q732 1798 811 1719T891 1524ZM768 1524Q768 1587 724 1631T616 1675Q552 1675 509 1632T465 1524Q465 1459 508
1416T616 1372Q680 1372 724 1416T768 1524Z" />
<glyph unicode="&#x2db;" glyph-name="ogonek" d="M528 0H647Q602 -61 581 -105T559 -180Q559 -226 586 -249T668 -272Q700 -272 731 -265T793 -242V-375Q755 -385 721 -390T657 -395Q535 -395 478 -352T420 -215Q420 -167 446 -115T528 0Z" />
<glyph unicode="&#x2dc;" glyph-name="tilde" d="M612 1370L555 1425Q534 1445 518 1454T487 1464Q449 1464 431 1427T411 1309H287Q288 1443 339 1517T481 1591Q520 1591 552 1577T621 1530L678 1475Q699 1455 715 1446T745 1436Q784 1436 802 1473T821 1591H946Q945
1457 894 1383T752 1309Q713 1309 681 1323T612 1370Z" />
<glyph unicode="&#x2dd;" glyph-name="hungarumlaut" d="M535 1638H705L481 1262H344L535 1638ZM868 1638H1047L799 1262H664L868 1638Z" />
<glyph unicode="&#x2de;" glyph-name="uni02DE" d="M-351 868L268 1032H452V884Q452 731 490 682Q528 634 633 634H883V478H612Q437 478 350 574Q268 664 268 864L-350 702L-351 868Z" />
<glyph unicode="&#x2e0;" glyph-name="uni02E0" d="M693 988Q871 739 871 559Q871 430 629 427Q363 424 362 559Q361 751 543 992L293 1295H429L620 1071L804 1295H940L693 988ZM616 921Q477 747 480 595Q481 518 616 518Q744 518 744 595Q745 735 616 921Z" />
<glyph unicode="&#x2e1;" glyph-name="uni02E1" d="M644 895Q644 826 672 791T756 755H892V668H746Q642 668 585 727T528 895V1465H342V1546H644V895Z" />
<glyph unicode="&#x2e2;" glyph-name="uni02E2" d="M848 1293V1196Q799 1218 746 1229T637 1240Q550 1240 507 1217T464 1146Q464 1110 495 1090T619 1051L659 1043Q784 1019 834 977Q886 934 886 857Q886 770 809 719T594 668Q538 668 477 678T347 707V814Q411
784 473 769T597 754Q679 754 723 779T767 849Q767 891 735 914Q707 934 596 957L555 965Q448 986 400 1027T352 1142Q352 1230 422 1278T623 1327Q687 1327 743 1319T848 1293Z" />
<glyph unicode="&#x2e3;" glyph-name="uni02E3" d="M945 1295L690 990L959 668H822L616 914L411 668H274L548 996L298 1295H434L622 1072L809 1295H945Z" />
<glyph unicode="&#x2e4;" glyph-name="uni02E4" d="M723 1115V668H596V1033Q489 1050 418 1117Q350 1181 350 1276Q350 1380 420 1450Q506 1538 679 1538Q733 1538 784 1528Q835 1519 883 1499V1403Q834 1427 784 1439Q735 1451 684 1451Q571 1451 509 1387Q473
1351 473 1276Q473 1221 509 1179Q563 1115 684 1115H723Z" />
<glyph unicode="&#x2e5;" glyph-name="uni02E5" d="M797 0V1232H300V1368H933V0H797Z" />
<glyph unicode="&#x2e6;" glyph-name="uni02E6" d="M797 0V924H300V1060H797V1368H933V0H797Z" />
<glyph unicode="&#x2e7;" glyph-name="uni02E7" d="M797 752V1368H933V0H797V616H300V752H797Z" />
<glyph unicode="&#x2e8;" glyph-name="uni02E8" d="M797 444V1368H933V0H797V308H300V444H797Z" />
<glyph unicode="&#x2e9;" glyph-name="uni02E9" d="M797 136V1368H933V0H300V136H797Z" />
<glyph unicode="&#x2ee;" glyph-name="uni02EE" d="M768 1556H1020V1350L823 967H670L768 1350V1556ZM309 1556H561V1350L365 967H211L309 1350V1556Z" />
<glyph unicode="&#x2f3;" glyph-name="uni02F3" d="M836 -282Q836 -374 773 -438T616 -502Q524 -502 461 -438T397 -282Q397 -190 460 -127T616 -63Q709 -63 772 -126T836 -282ZM738 -282Q738 -232 703 -197T616 -161Q565 -161 530 -196T495 -282Q495 -334 530
-369T616 -404Q667 -404 702 -369T738 -282Z" />
<glyph unicode="&#x300;" glyph-name="gravecomb" d="M477 1638L758 1262H604L279 1638H477Z" />
<glyph unicode="&#x301;" glyph-name="acutecomb" d="M756 1638H954L629 1262H475L756 1638Z" />
<glyph unicode="&#x302;" glyph-name="uni0302" d="M543 1638H690L936 1262H797L616 1507L436 1262H297L543 1638Z" />
<glyph unicode="&#x303;" glyph-name="tildecomb" d="M612 1370L555 1425Q534 1445 518 1454T487 1464Q449 1464 431 1427T411 1309H287Q288 1443 339 1517T481 1591Q520 1591 552 1577T621 1530L678 1475Q699 1455 715 1446T745 1436Q784 1436 802 1473T821 1591H946Q945
1457 894 1383T752 1309Q713 1309 681 1323T612 1370Z" />
<glyph unicode="&#x304;" glyph-name="uni0304" d="M317 1526H915V1378H317V1526Z" />
<glyph unicode="&#x305;" glyph-name="uni0305" d="M1233 1547V1467H0V1547H1233Z" />
<glyph unicode="&#x306;" glyph-name="uni0306" d="M303 1608H422Q433 1532 481 1495T616 1458Q701 1458 749 1495T811 1608H930Q919 1465 840 1393T616 1321Q472 1321 393 1393T303 1608Z" />
<glyph unicode="&#x307;" glyph-name="uni0307" d="M513 1552H718V1348H513V1552Z" />
<glyph unicode="&#x308;" glyph-name="uni0308" d="M319 1552H522V1350H319V1552ZM711 1552H913V1350H711V1552Z" />
<glyph unicode="&#x309;" glyph-name="hookabovecomb" d="M586 1734Q816 1734 823 1564Q824 1559 824 1554Q824 1490 796 1454Q746 1387 694 1354V1266H546V1374Q613 1396 662 1444Q684 1464 684 1517Q684 1611 564 1611Q474 1611 410 1579V1710Q496 1734 586 1734Z" />
<glyph unicode="&#x30a;" glyph-name="uni030A" d="M891 1524Q891 1409 812 1329T616 1249Q501 1249 422 1329T342 1524Q342 1639 421 1718T616 1798Q732 1798 811 1719T891 1524ZM768 1524Q768 1587 724 1631T616 1675Q552 1675 509 1632T465 1524Q465 1459 508
1416T616 1372Q680 1372 724 1416T768 1524Z" />
<glyph unicode="&#x30b;" glyph-name="uni030B" d="M535 1638H705L481 1262H344L535 1638ZM868 1638H1047L799 1262H664L868 1638Z" />
<glyph unicode="&#x30c;" glyph-name="uni030C" d="M543 1262L297 1638H436L616 1393L797 1638H936L690 1262H543Z" />
<glyph unicode="&#x30d;" glyph-name="uni030D" d="M682 1706V1262H546V1706H682Z" />
<glyph unicode="&#x30e;" glyph-name="uni030E" d="M886 1706V1262H750V1706H886ZM478 1706V1262H342V1706H478Z" />
<glyph unicode="&#x30f;" glyph-name="uni030F" d="M388 1638L593 1262H458L210 1638H388ZM722 1638L912 1262H775L552 1638H722Z" />
<glyph unicode="&#x310;" glyph-name="uni0310" d="M513 1756H718V1552H513V1756ZM303 1608H422Q433 1532 481 1495T616 1458Q701 1458 749 1495T811 1608H930Q919 1465 840 1393T616 1321Q472 1321 393 1393T303 1608Z" />
<glyph unicode="&#x311;" glyph-name="uni0311" d="M303 1321Q314 1464 393 1536T616 1608Q761 1608 840 1536T930 1321H811Q797 1397 749 1434T616 1471Q529 1471 481 1434T422 1321H303Z" />
<glyph unicode="&#x312;" glyph-name="uni0312" d="M708 967H469L656 1312H802L708 967Z" />
<glyph unicode="&#x313;" glyph-name="uni0313" d="M737 1475Q737 1218 496 1218V1341Q608 1338 608 1475H496V1729H737V1475Z" />
<glyph unicode="&#x314;" glyph-name="uni0314" d="M496 1475V1729H737V1475H625Q625 1341 737 1341V1218Q496 1218 496 1475Z" />
<glyph unicode="&#x315;" glyph-name="uni0315" d="M544 1638H742L629 1262H475L544 1638Z" />
<glyph unicode="&#x316;" glyph-name="uni0316" d="M575 -208L856 -584H702L377 -208H575Z" />
<glyph unicode="&#x317;" glyph-name="uni0317" d="M658 -208H856L531 -584H377L658 -208Z" />
<glyph unicode="&#x318;" glyph-name="uni0318" d="M588 -454V-277H724V-767H588V-590H412V-454H588Z" />
<glyph unicode="&#x319;" glyph-name="uni0319" d="M596 -590V-767H460V-277H596V-454H772V-590H596Z" />
<glyph unicode="&#x31a;" glyph-name="uni031A" d="M726 1768H372V1904H862V1414H726V1768Z" />
<glyph unicode="&#x31b;" glyph-name="uni031B" d="M419 872V991Q480 946 524 925T599 903Q645 903 668 930T691 1012Q691 1044 684 1075T661 1137H794Q804 1099 809 1065T814 1001Q814 879 771 822T634 764Q586 764 534 790T419 872Z" />
<glyph unicode="&#x31c;" glyph-name="uni031C" d="M726 -404V-502Q633 -502 570 -438T506 -282T569 -127T726 -63V-161Q675 -161 640 -196T604 -282Q604 -333 639 -368T726 -404Z" />
<glyph unicode="&#x31d;" glyph-name="uni031D" d="M667 -454H844V-590H354V-454H531V-277H667V-454Z" />
<glyph unicode="&#x31e;" glyph-name="uni031E" d="M527 -413H350V-277H840V-413H663V-590H527V-413Z" />
<glyph unicode="&#x31f;" glyph-name="uni031F" d="M528 -590H351V-454H528V-277H664V-454H841V-590H664V-767H528V-590Z" />
<glyph unicode="&#x320;" glyph-name="uni0320" d="M372 -413V-277H862V-413H372Z" />
<glyph unicode="&#x321;" glyph-name="uni0321" d="M1051 128V-20Q1051 -215 962 -320Q872 -426 707 -426H502V-270H687Q777 -270 822 -208Q866 -146 866 -20V128H1051Z" />
<glyph unicode="&#x322;" glyph-name="uni0322" d="M182 128H367V-20Q367 -146 411 -208Q456 -270 546 -270H731V-426H526Q361 -426 271 -320Q182 -215 182 -20V128Z" />
<glyph unicode="&#x323;" glyph-name="dotbelowcomb" d="M513 -209H718V-413H513V-209Z" />
<glyph unicode="&#x324;" glyph-name="uni0324" d="M320 -210H522V-412H320V-210ZM712 -210H914V-412H712V-210Z" />
<glyph unicode="&#x325;" glyph-name="uni0325" d="M836 -282Q836 -374 773 -438T616 -502Q524 -502 461 -438T397 -282Q397 -190 460 -127T616 -63Q709 -63 772 -126T836 -282ZM738 -282Q738 -232 703 -197T616 -161Q565 -161 530 -196T495 -282Q495 -334 530
-369T616 -404Q667 -404 702 -369T738 -282Z" />
<glyph unicode="&#x326;" glyph-name="uni0326" d="M502 -197H741L554 -542H408L502 -197Z" />
<glyph unicode="&#x327;" glyph-name="uni0327" d="M700 0Q756 -62 782 -114T809 -215Q809 -304 749 -349T571 -395Q526 -395 483 -389T395 -371V-240Q429 -257 466 -264T551 -272Q609 -272 639 -248T670 -178Q670 -148 648 -105T582 0H700Z" />
<glyph unicode="&#x328;" glyph-name="uni0328" d="M538 0H657Q612 -61 591 -105T569 -180Q569 -226 596 -249T678 -272Q710 -272 741 -265T803 -242V-375Q765 -385 731 -390T667 -395Q545 -395 488 -352T430 -215Q430 -167 456 -115T538 0Z" />
<glyph unicode="&#x329;" glyph-name="uni0329" d="M684 -209V-653H548V-209H684Z" />
<glyph unicode="&#x32a;" glyph-name="uni032A" d="M892 -209V-539H755V-345H478V-539H341V-209H892Z" />
<glyph unicode="&#x32b;" glyph-name="uni032B" d="M616 -373Q557 -455 441 -455Q223 -455 206 -173Q206 -171 206 -168H324Q337 -318 440 -318Q542 -318 558 -168H676Q687 -317 792 -318Q894 -318 909 -168H1027Q1012 -454 792 -455Q676 -455 616 -373Z" />
<glyph unicode="&#x32c;" glyph-name="uni032C" d="M543 -485L297 -109H436L616 -354L797 -109H936L690 -485H543Z" />
<glyph unicode="&#x32d;" glyph-name="uni032D" d="M543 -109H690L936 -485H797L616 -240L436 -485H297L543 -109Z" />
<glyph unicode="&#x32e;" glyph-name="uni032E" d="M303 -200H422Q433 -276 481 -313T616 -350Q701 -350 749 -313T811 -200H930Q919 -343 840 -415T616 -487Q472 -487 393 -415T303 -200Z" />
<glyph unicode="&#x32f;" glyph-name="uni032F" d="M930 -485H811Q800 -409 752 -372T617 -335Q532 -335 484 -372T422 -485H303Q314 -342 393 -270T617 -198Q761 -198 840 -270T930 -485Z" />
<glyph unicode="&#x330;" glyph-name="uni0330" d="M612 -424L555 -369Q534 -349 518 -340T487 -330Q449 -330 431 -367T411 -485H287Q288 -351 339 -277T481 -203Q520 -203 552 -217T621 -264L678 -319Q699 -339 715 -348T745 -358Q784 -358 802 -321T821 -203H946Q945
-337 894 -411T752 -485Q713 -485 681 -471T612 -424Z" />
<glyph unicode="&#x331;" glyph-name="uni0331" d="M318 -209H916V-357H318V-209Z" />
<glyph unicode="&#x332;" glyph-name="uni0332" d="M1233 -403V-483H0V-403H1233Z" />
<glyph unicode="&#x333;" glyph-name="uni0333" d="M1233 -403V-483H0V-403H1233ZM1233 -163V-243H0V-163H1233Z" />
<glyph unicode="&#x334;" glyph-name="uni0334" d="M1145 780V606Q1070 547 999 520T848 492Q758 492 645 543Q623 553 612 557Q535 590 484 602T381 614Q302 614 232 585T88 492V666Q166 726 239 753T395 780Q448 780 498 769T622 727Q634 722 655 712Q771 657
864 657Q934 657 1002 687T1145 780Z" />
<glyph unicode="&#x335;" glyph-name="uni0335" d="M1062 616V452H142V616H1062Z" />
<glyph unicode="&#x336;" glyph-name="uni0336" d="M0 452V616H1233V452H0Z" />
<glyph unicode="&#x337;" glyph-name="uni0337" d="M139 -96L47 -20L1081 1212L1174 1135L139 -96Z" />
<glyph unicode="&#x338;" glyph-name="uni0338" d="M111 -70L8 0L1100 1559L1200 1485L111 -70Z" />
<glyph unicode="&#x339;" glyph-name="uni0339" d="M506 -404Q557 -404 592 -369T628 -282Q628 -232 593 -197T506 -161V-63Q599 -63 662 -126T726 -282T663 -438T506 -502V-404Z" />
<glyph unicode="&#x33a;" glyph-name="uni033A" d="M341 -384V-54H478V-248H755V-54H892V-384H341Z" />
<glyph unicode="&#x33b;" glyph-name="uni033B" d="M892 -209V-759H341V-209H892ZM755 -623V-345H478V-623H755Z" />
<glyph unicode="&#x33c;" glyph-name="uni033C" d="M616 -250Q676 -168 792 -168Q1010 -168 1027 -450Q1027 -452 1027 -455H910Q896 -305 792 -305Q691 -305 676 -455H558Q546 -306 441 -305Q339 -305 324 -455H206Q221 -169 441 -168Q557 -168 616 -250Z" />
<glyph unicode="&#x33d;" glyph-name="uni033D" d="M616 1353L491 1228L395 1324L520 1449L395 1574L491 1671L616 1545L742 1671L838 1574L713 1449L838 1324L742 1228L616 1353Z" />
<glyph unicode="&#x33e;" glyph-name="uni033E" d="M536 1479Q504 1507 490 1531T476 1583Q476 1663 549 1703T758 1746V1636Q676 1634 639 1621T602 1579Q602 1569 612 1557Q623 1542 642 1528L696 1485Q730 1457 744 1433T758 1381Q758 1301 684 1261T476 1218V1328Q558
1330 594 1343T630 1385Q630 1395 621 1407Q610 1422 592 1436L536 1479Z" />
<glyph unicode="&#x33f;" glyph-name="uni033F" d="M1233 1547V1467H0V1547H1233ZM1233 1307V1227H0V1307H1233Z" />
<glyph unicode="&#x343;" glyph-name="uni0343" d="M737 1475Q737 1218 496 1218V1341Q608 1338 608 1475H496V1729H737V1475Z" />
<glyph unicode="&#x358;" glyph-name="uni0358" d="M1026 1552H1231V1348H1026V1552Z" />
<glyph unicode="&#x361;" glyph-name="uni0361" d="M672 1710T617 1710T276 1685Q8 1662 -118 1520H-236Q-236 1760 272 1820Q500 1847 616 1847T962 1820Q1470 1760 1470 1520H1352Q1225 1662 956 1685Q672 1710 617 1710Z" />
<glyph unicode="&#x374;" glyph-name="uni0374" d="M492 1140L557 1638H747L637 1140H492Z" />
<glyph unicode="&#x375;" glyph-name="uni0375" d="M741 72L676 -426H486L596 72H741Z" />
<glyph unicode="&#x37a;" glyph-name="uni037A" d="M762 -426H630Q542 -426 542 -243V-92H691V-256Q691 -360 742 -360H762V-426Z" />
<glyph unicode="&#x37e;" glyph-name="uni037E" d="M502 303H754V96L557 -287H403L502 96V303ZM489 1063H741V760H489V1063Z" />
<glyph unicode="&#x384;" glyph-name="tonos" d="M756 1638H954L629 1262H475L756 1638Z" />
<glyph unicode="&#x385;" glyph-name="dieresistonos" d="M319 1552H522V1350H319V1552ZM711 1552H913V1350H711V1552ZM756 2008H954L629 1632H475L756 2008Z" />
<glyph unicode="&#x386;" glyph-name="Alphatonos" d="M616 1315L403 551H829L616 1315ZM494 1493H739L1196 0H987L877 389H354L246 0H37L494 1493ZM306 1638H504L179 1262H25L306 1638Z" />
<glyph unicode="&#x387;" glyph-name="anoteleia" d="M489 864H741V559H489V864Z" />
<glyph unicode="&#x388;" glyph-name="Epsilontonos" d="M197 1493H1083V1323H399V881H1053V711H399V170H1102V0H197V1493ZM56 1638H254L-71 1262H-225L56 1638Z" />
<glyph unicode="&#x389;" glyph-name="Etatonos" d="M137 1493H340V881H893V1493H1096V0H893V711H340V0H137V1493ZM6 1638H204L-121 1262H-275L6 1638Z" />
<glyph unicode="&#x38a;" glyph-name="Iotatonos" d="M201 1493H1030V1323H717V170H1030V0H201V170H514V1323H201V1493ZM56 1638H254L-71 1262H-225L56 1638Z" />
<glyph unicode="&#x38c;" glyph-name="Omicrontonos" d="M905 745Q905 1074 838 1215T616 1356Q463 1356 396 1215T328 745Q328 417 395 276T616 135Q770 135 837 275T905 745ZM1116 745Q1116 355 993 163T616 -29Q363 -29 240 162T117 745Q117 1136 240 1328T616
1520Q869 1520 992 1328T1116 745ZM206 1638H404L79 1262H-75L206 1638Z" />
<glyph unicode="&#x38e;" glyph-name="Upsilontonos" d="M37 1493H252L616 834L979 1493H1196L717 670V0H514V670L37 1493ZM-119 1638H79L-246 1262H-400L-119 1638Z" />
<glyph unicode="&#x38f;" glyph-name="Omegatonos" d="M74 0V172H319Q196 306 141 450T86 782Q86 1093 230 1276T614 1460Q856 1460 1000 1277T1145 782Q1145 594 1090 450T911 172H1159V0H696V172Q816 248 883 412T950 799Q950 1029 860 1161T616 1294Q462 1294
373 1162T283 799Q283 577 350 413T537 172V0H74ZM231 1638H429L104 1262H-50L231 1638Z" />
<glyph unicode="&#x390;" glyph-name="iotadieresistonos" d="M708 1120V395Q708 250 742 204Q778 156 886 156H975V0H864Q684 0 602 96Q521 194 520 406V977H310V1120H708ZM319 1552H522V1350H319V1552ZM711 1552H913V1350H711V1552ZM756 2008H954L629 1632H475L756
2008Z" />
<glyph unicode="&#x391;" glyph-name="Alpha" d="M616 1315L403 551H829L616 1315ZM494 1493H739L1196 0H987L877 389H354L246 0H37L494 1493Z" />
<glyph unicode="&#x392;" glyph-name="Beta" d="M369 713V166H608Q784 166 859 227T934 430Q934 576 855 644T608 713H369ZM369 1327V877H604Q750 877 815 933T881 1114Q881 1227 817 1277T604 1327H369ZM166 1493H608Q837 1493 961 1394T1085 1114Q1085 977 1020
898T823 799Q970 777 1053 674T1137 410Q1137 207 1004 104T608 0H166V1493Z" />
<glyph unicode="&#x393;" glyph-name="Gamma" d="M215 0V1493H1139V1323H418V0H215Z" />
<glyph unicode="&#x394;" glyph-name="uni0394" d="M938 170L616 1315L294 170H938ZM1196 0H37L494 1493H739L1196 0Z" />
<glyph unicode="&#x395;" glyph-name="Epsilon" d="M197 1493H1083V1323H399V881H1053V711H399V170H1102V0H197V1493Z" />
<glyph unicode="&#x396;" glyph-name="Zeta" d="M178 1493H1147V1339L367 170H1169V0H156V154L915 1323H178V1493Z" />
<glyph unicode="&#x397;" glyph-name="Eta" d="M137 1493H340V881H893V1493H1096V0H893V711H340V0H137V1493Z" />
<glyph unicode="&#x398;" glyph-name="Theta" d="M816 711H417V881H816V711ZM905 745Q905 1074 838 1215T616 1356Q463 1356 396 1215T328 745Q328 417 395 276T616 135Q770 135 837 275T905 745ZM1116 745Q1116 355 993 163T616 -29Q363 -29 240 162T117 745Q117
1136 240 1328T616 1520Q869 1520 992 1328T1116 745Z" />
<glyph unicode="&#x399;" glyph-name="Iota" d="M201 1493H1030V1323H717V170H1030V0H201V170H514V1323H201V1493Z" />
<glyph unicode="&#x39a;" glyph-name="Kappa" d="M137 1493H340V829L971 1493H1208L627 883L1225 0H981L494 748L340 584V0H137V1493Z" />
<glyph unicode="&#x39b;" glyph-name="Lambda" d="M246 0H37L494 1493H739L1196 0H987L616 1315L246 0Z" />
<glyph unicode="&#x39c;" glyph-name="Mu" d="M86 1493H356L614 733L874 1493H1145V0H958V1319L692 532H539L272 1319V0H86V1493Z" />
<glyph unicode="&#x39d;" glyph-name="Nu" d="M139 1493H395L899 264V1493H1094V0H838L334 1229V0H139V1493Z" />
<glyph unicode="&#x39e;" glyph-name="Xi" d="M1096 1493V1323H137V1493H1096ZM893 711H340V881H893V711ZM1096 170V0H137V170H1096Z" />
<glyph unicode="&#x39f;" glyph-name="Omicron" d="M905 745Q905 1074 838 1215T616 1356Q463 1356 396 1215T328 745Q328 417 395 276T616 135Q770 135 837 275T905 745ZM1116 745Q1116 355 993 163T616 -29Q363 -29 240 162T117 745Q117 1136 240 1328T616 1520Q869
1520 992 1328T1116 745Z" />
<glyph unicode="&#x3a0;" glyph-name="Pi" d="M137 1493H1096V0H893V1323H340V0H137V1493Z" />
<glyph unicode="&#x3a1;" glyph-name="Rho" d="M399 1327V766H633Q773 766 851 840T930 1047Q930 1180 852 1253T633 1327H399ZM197 1493H633Q883 1493 1012 1380T1141 1047Q1141 826 1013 713T633 600H399V0H197V1493Z" />
<glyph unicode="&#x3a3;" glyph-name="Sigma" d="M786 747L331 170H1133V0H120V170L574 747L120 1323V1493H1133V1323H331L786 747Z" />
<glyph unicode="&#x3a4;" glyph-name="Tau" d="M47 1493H1186V1323H719V0H516V1323H47V1493Z" />
<glyph unicode="&#x3a5;" glyph-name="Upsilon" d="M37 1493H252L616 834L979 1493H1196L717 670V0H514V670L37 1493Z" />
<glyph unicode="&#x3a6;" glyph-name="Phi" d="M717 1323V1205Q893 1186 990 1095Q1114 980 1114 745Q1114 510 991 395Q894 305 717 286V170H864V0H367V170H514V286Q337 305 240 395Q117 510 117 745Q117 980 240 1095Q338 1186 514 1205V1323H367V1493H864V1323H717ZM717
462Q793 478 836 520Q903 588 903 745Q903 903 836 971Q793 1013 717 1029V462ZM514 462V1029Q438 1013 396 971Q328 903 328 745Q328 588 396 520Q438 478 514 462Z" />
<glyph unicode="&#x3a7;" glyph-name="Chi" d="M86 1493H303L631 930L965 1493H1182L735 791L1214 0H997L631 643L236 0H18L518 791L86 1493Z" />
<glyph unicode="&#x3a8;" glyph-name="Psi" d="M717 1493V560Q790 594 836 681Q911 826 911 1150V1493H1114V1150Q1114 758 991 567Q893 416 717 384V170H864V0H367V170H514V384Q338 416 240 567Q117 758 117 1150V1493H320V1150Q320 826 396 681Q441 594 514
560V1493H717Z" />
<glyph unicode="&#x3a9;" glyph-name="Omega" d="M74 0V172H319Q196 306 141 450T86 782Q86 1093 230 1276T614 1460Q856 1460 1000 1277T1145 782Q1145 594 1090 450T911 172H1159V0H696V172Q816 248 883 412T950 799Q950 1029 860 1161T616 1294Q462 1294 373
1162T283 799Q283 577 350 413T537 172V0H74Z" />
<glyph unicode="&#x3aa;" glyph-name="Iotadieresis" d="M319 1870H522V1667H319V1870ZM711 1870H913V1667H711V1870ZM201 1493H1030V1323H717V170H1030V0H201V170H514V1323H201V1493Z" />
<glyph unicode="&#x3ab;" glyph-name="Upsilondieresis" d="M319 1870H522V1667H319V1870ZM711 1870H913V1667H711V1870ZM37 1493H252L616 834L979 1493H1196L717 670V0H514V670L37 1493Z" />
<glyph unicode="&#x3ac;" glyph-name="alphatonos" d="M766 521L722 752Q677 988 500 989Q402 990 341 879Q264 742 264 559Q264 339 338 234Q415 127 500 127Q633 127 705 340L766 521ZM810 1150T869 827L968 1120H1132L927 513L967 294Q976 245 1011 204Q1052
156 1084 156H1172V0H1062Q968 0 884 84Q843 126 826 214Q780 105 688 16Q643 -26 500 -25Q302 -23 188 127Q70 283 70 559Q70 856 196 991Q339 1142 500 1145Q810 1150 869 827ZM756 1638H954L629 1262H475L756 1638Z" />
<glyph unicode="&#x3ad;" glyph-name="epsilontonos" d="M449 607Q330 632 265 697Q201 761 201 855Q201 989 323 1068T654 1147Q735 1147 826 1135Q918 1123 1023 1099V932Q919 959 832 972Q746 984 670 984Q532 984 458 941T384 824Q384 763 456 720Q528 676
663 676H829V532H670Q520 532 436 477T352 341Q352 243 442 190Q533 138 706 138Q805 138 896 156Q987 173 1064 207V34Q967 6 877 -8Q786 -22 700 -22Q446 -22 307 69Q169 161 169 327Q169 436 243 510T449 607ZM756 1638H954L629 1262H475L756 1638Z" />
<glyph unicode="&#x3ae;" glyph-name="etatonos" d="M1051 694V-426H866V694Q866 845 813 916T647 987Q518 987 449 896T379 633V0H195V1120H379V952Q428 1048 512 1097T711 1147Q882 1147 966 1035T1051 694ZM756 1638H954L629 1262H475L756 1638Z" />
<glyph unicode="&#x3af;" glyph-name="iotatonos" d="M708 1120V395Q708 250 742 204Q778 156 886 156H975V0H864Q684 0 602 96Q521 194 520 406V977H310V1120H708ZM756 1638H954L629 1262H475L756 1638Z" />
<glyph unicode="&#x3b0;" glyph-name="upsilondieresistonos" d="M628 156Q778 156 868 335Q927 453 942 640Q950 742 920 870Q892 989 786 1120H972V1120Q1042 1030 1087 907Q1129 792 1129 638Q1129 413 1001 210Q868 -1 606 0Q426 0 344 96Q262 194 262 406L261
977H51V1120H450V395Q450 250 484 204Q519 156 628 156ZM319 1552H522V1350H319V1552ZM711 1552H913V1350H711V1552ZM756 2008H954L629 1632H475L756 2008Z" />
<glyph unicode="&#x3b1;" glyph-name="alpha" d="M766 521L722 752Q677 988 500 989Q402 990 341 879Q264 742 264 559Q264 339 338 234Q415 127 500 127Q633 127 705 340L766 521ZM810 1150T869 827L968 1120H1132L927 513L967 294Q976 245 1011 204Q1052 156
1084 156H1172V0H1062Q968 0 884 84Q843 126 826 214Q780 105 688 16Q643 -26 500 -25Q302 -23 188 127Q70 283 70 559Q70 856 196 991Q339 1142 500 1145Q810 1150 869 827Z" />
<glyph unicode="&#x3b2;" glyph-name="beta" d="M337 69V-426H152V1113Q152 1600 613 1569Q1012 1542 1012 1184Q1011 908 840 810Q1118 756 1120 453Q1124 2 638 -21Q508 -27 337 69ZM337 342Q418 201 645 180Q933 155 933 450Q933 732 469 710V880Q832 874 832
1178Q832 1367 598 1380Q337 1395 337 1107V342Z" />
<glyph unicode="&#x3b3;" glyph-name="gamma" d="M220 836Q175 962 81 962H32V1120H102Q296 1120 361 944L616 259L942 1120H1133L712 0V-426H522V0L220 836Z" />
<glyph unicode="&#x3b4;" glyph-name="delta" d="M616 991Q476 991 404 882T332 559Q332 346 404 237T616 127Q757 127 829 236T901 559Q901 773 829 882T616 991ZM334 1067Q315 1076 275 1116Q213 1177 213 1269Q213 1405 331 1487T647 1569Q749 1569 799 1557L950
1521V1348Q884 1372 814 1387Q729 1404 647 1402L615 1401Q542 1399 482 1356L443 1328Q416 1304 416 1258Q416 1225 429 1206Q446 1182 487 1161Q511 1148 616 1147Q851 1144 972 996Q1096 845 1096 559Q1096 272 973 122T616 -29Q383 -29 260 121T137 559Q137
845 260 996Q291 1034 334 1067Z" />
<glyph unicode="&#x3b5;" glyph-name="epsilon" d="M449 607Q330 632 265 697Q201 761 201 855Q201 989 323 1068T654 1147Q735 1147 826 1135Q918 1123 1023 1099V932Q919 959 832 972Q746 984 670 984Q532 984 458 941T384 824Q384 763 456 720Q528 676 663
676H829V532H670Q520 532 436 477T352 341Q352 243 442 190Q533 138 706 138Q805 138 896 156Q987 173 1064 207V34Q967 6 877 -8Q786 -22 700 -22Q446 -22 307 69Q169 161 169 327Q169 436 243 510T449 607Z" />
<glyph unicode="&#x3b6;" glyph-name="zeta" d="M760 127Q892 126 971 51Q1055 -28 1055 -148Q1055 -263 981 -343Q901 -430 738 -430Q738 -355 738 -279Q807 -284 849 -240Q881 -205 881 -168Q881 -115 849 -71Q818 -29 760 -29Q173 -29 153 534Q136 1014 724
1371H192V1556H1062V1371Q292 956 338 534Q382 127 760 127Z" />
<glyph unicode="&#x3b7;" glyph-name="eta" d="M1051 694V-426H866V694Q866 845 813 916T647 987Q518 987 449 896T379 633V0H195V1120H379V952Q428 1048 512 1097T711 1147Q882 1147 966 1035T1051 694Z" />
<glyph unicode="&#x3b8;" glyph-name="theta" d="M899 828Q892 1054 829 1189Q757 1342 616 1342Q476 1342 404 1189Q341 1054 334 828H899ZM899 644H334Q340 420 404 283Q476 129 616 129Q757 129 829 283Q893 420 899 644ZM616 1500Q849 1500 972 1304T1096
736Q1096 362 973 167T616 -29Q383 -29 260 166T137 736Q137 1107 260 1303T616 1500Z" />
<glyph unicode="&#x3b9;" glyph-name="iota" d="M708 1120V395Q708 250 742 204Q778 156 886 156H975V0H864Q684 0 602 96Q521 194 520 406V977H310V1120H708Z" />
<glyph unicode="&#x3ba;" glyph-name="kappa" d="M236 1120H426V655L909 1120H1133L692 698L1202 0H977L563 578L426 449V0H236V1120Z" />
<glyph unicode="&#x3bb;" glyph-name="lambda" d="M642 1381L1158 0H963L649 828L263 0H68L559 1074L485 1272Q438 1399 284 1398H235V1556L305 1554Q579 1547 642 1381Z" />
<glyph unicode="&#x3bc;" glyph-name="uni03BC" d="M195 -428V1120H379V424Q379 282 439 207T610 131Q737 131 801 216T866 467V1120H1051V256Q1051 197 1067 169T1116 141Q1125 141 1139 146T1182 164V16Q1144 -7 1110 -18T1042 -29Q980 -29 943 10T893 129Q847
49 781 10T625 -29Q533 -29 470 9T362 127V-428H195Z" />
<glyph unicode="&#x3bd;" glyph-name="nu" d="M458 0L116 1120H314L603 180Q723 304 823 476Q899 605 903 717Q905 770 881 870Q853 989 747 1120H933V1120Q1002 1031 1048 907Q1090 793 1090 715Q1090 519 954 344Q777 116 654 0H458Z" />
<glyph unicode="&#x3be;" glyph-name="xi" d="M785 127Q917 126 996 51Q1080 -28 1080 -148Q1080 -263 1006 -343Q926 -430 763 -430Q763 -355 763 -279Q832 -284 874 -240Q906 -205 906 -168Q906 -115 874 -71Q842 -29 785 -29Q163 -29 162 452Q162 684 495 796Q215
832 215 1092Q215 1289 435 1371H227V1556H1016V1371Q387 1371 387 1080Q387 889 915 880V710Q346 672 347 452Q349 131 785 127Z" />
<glyph unicode="&#x3bf;" glyph-name="omicron" d="M616 991Q476 991 404 882T332 559Q332 346 404 237T616 127Q757 127 829 236T901 559Q901 773 829 882T616 991ZM616 1147Q849 1147 972 996T1096 559Q1096 272 973 122T616 -29Q383 -29 260 121T137 559Q137
845 260 996T616 1147Z" />
<glyph unicode="&#x3c0;" glyph-name="pi" d="M80 1120H1153V936H1012V248Q1012 176 1036 145T1116 113Q1131 113 1153 115T1182 119V-14Q1147 -27 1110 -33T1036 -39Q923 -39 877 26T831 268V936H403V0H223V936H80V1120Z" />
<glyph unicode="&#x3c1;" glyph-name="rho" d="M644 1147Q876 1148 992 990Q1108 833 1108 555Q1108 282 992 127T674 -29Q572 -29 496 14T375 141V-426H190V540Q190 856 300 990Q431 1147 644 1147ZM915 559Q915 773 848 882T647 991Q513 991 444 882T375 559Q375
347 444 237T647 127Q780 127 847 236T915 559Z" />
<glyph unicode="&#x3c2;" glyph-name="sigma1" d="M748 127Q880 126 959 51Q1043 -28 1043 -148Q1043 -263 969 -343Q889 -430 726 -430Q726 -355 726 -279Q795 -284 837 -240Q869 -205 869 -168Q869 -115 837 -71Q806 -29 748 -29Q488 -29 342 127T195 559T341
991T748 1147Q829 1147 906 1126T1061 1061V868Q988 933 915 962T748 991Q575 991 482 879T389 559Q389 350 482 240Q576 129 748 127Z" />
<glyph unicode="&#x3c3;" glyph-name="sigma" d="M609 935Q474 935 404 855Q332 772 332 559Q332 346 404 237T616 127Q757 127 829 236T901 492Q901 741 729 870Q669 915 609 935ZM890 936Q1096 774 1096 492Q1096 264 945 97Q831 -30 616 -29Q383 -29 260 121T137
559Q137 824 260 977Q375 1120 616 1120H1131V936H890Z" />
<glyph unicode="&#x3c4;" glyph-name="tau" d="M742 204Q778 156 886 156H975V0H864Q684 0 602 96Q520 194 520 406V936H160V1118H1074V936H708V395Q708 250 742 204Z" />
<glyph unicode="&#x3c5;" glyph-name="upsilon" d="M628 156Q778 156 868 335Q927 453 942 640Q950 742 920 870Q892 989 786 1120H972V1120Q1042 1030 1087 907Q1129 792 1129 638Q1129 413 1001 210Q868 -1 606 0Q426 0 344 96Q262 194 262 406L261 977H51V1120H450V395Q450
250 484 204Q519 156 628 156Z" />
<glyph unicode="&#x3c6;" glyph-name="phi" d="M773 971Q708 971 708 826V140Q800 140 886 244Q963 337 963 560Q963 781 886 880Q815 971 773 971ZM773 1128Q911 1128 1030 996Q1157 855 1157 560Q1157 278 1030 128Q901 -24 708 -24V-426H525V-25Q326 -25 202
128Q76 283 76 559Q76 859 202 991Q306 1100 460 1128V965Q395 939 346 864Q270 749 270 559Q270 343 346 242Q424 139 525 139V826Q525 1128 773 1128Z" />
<glyph unicode="&#x3c7;" glyph-name="chi" d="M750 -250L608 128L343 -426H152L524 351L341 836Q294 962 138 962H89V1120H159Q415 1120 482 944L625 564L891 1120H1082L709 340L891 -142Q938 -268 1095 -268H1144V-426H1074Q817 -426 750 -250Z" />
<glyph unicode="&#x3c8;" glyph-name="psi" d="M708 140Q771 162 833 226Q917 313 917 479V1120H1102V472Q1102 256 972 111Q851 -24 708 -25V-426H525V-25Q382 -24 261 111Q131 256 131 472V1120H316V479Q316 313 400 226Q462 162 525 140V1120H708V140Z" />
</font>
</defs>
</svg>
