<?xml version="1.0" standalone="no"?> <!DOCTYPE svg PUBLIC "-//W3C//DTD SVG 1.0//EN" "http://www.w3.org/TR/2001/REC-SVG-20010904/DTD/svg10.dtd" > <svg xmlns="http://www.w3.org/2000/svg" width="100%" height="100%">
<defs >
<font id="DejaVuSansMono-Bold" horiz-adv-x="1233" ><font-face
    font-family="DejaVu Sans Mono"
    units-per-em="2048"
    panose-1="2 11 7 9 3 6 4 2 2 4"
    ascent="2154"
    descent="-807"
    alphabetic="0" />
<missing-glyph d="M104 -362V1444H1128V-362H104ZM219 -248H1014V1329H219V-248Z" />
<glyph unicode=" " glyph-name="space" />
<glyph unicode="!" glyph-name="exclam" d="M483 283H750V0H483V283ZM483 1493H750V838L717 481H518L483 838V1493Z" />
<glyph unicode="&quot;" glyph-name="quotedbl" d="M999 1493V938H743V1493H999ZM487 1493V938H231V1493H487Z" />
<glyph unicode="#" glyph-name="numbersign" d="M707 1470L612 1096H815L909 1470H1133L1036 1096H1229V881H983L909 588H1114V373H856L762 0H541L635 373H430L336 0H115L209 373H2V588H262L336 881H117V1096H391L485 1470H707ZM762 881H557L483 588H688L762 881Z" />
<glyph unicode="$" glyph-name="dollar" d="M694 528V226Q757 235 792 274T827 375Q827 437 793 476T694 528ZM553 817V1100Q491 1092 460 1059T428 967Q428 910 459 872T553 817ZM694 -301H553L552 0Q465 3 370 26T172 92V354Q275 293 371 260T553 226V555Q356
594 260 689T164 942Q164 1109 266 1208T553 1319V1556H694L695 1319Q766 1315 842 1301T999 1262V1006Q937 1046 861 1070T694 1100V793Q891 762 991 659T1092 383Q1092 219 984 114T695 0L694 -301Z" />
<glyph unicode="%" glyph-name="percent" d="M33 1112Q33 1246 126 1339T352 1432Q485 1432 578 1339T672 1112Q672 979 579 886T352 793Q219 793 126 885T33 1112ZM352 1249Q295 1249 255 1210T215 1112Q215 1054 255 1015T352 975Q410 975 449 1014T489 1112Q489
1169 449 1209T352 1249ZM86 561L1128 979L1169 883L121 465L86 561ZM580 319Q580 453 672 546T899 639Q1031 639 1125 546T1219 319Q1219 187 1125 94T899 0Q765 0 673 92T580 319ZM897 457Q841 457 802 417T762 319Q762 261 801 222T897 182Q955 182 995 222T1036
319Q1036 376 995 416T897 457Z" />
<glyph unicode="&amp;" glyph-name="ampersand" d="M870 72Q795 22 711 -3T539 -29Q315 -29 176 102T37 442Q37 587 107 706T317 913Q267 991 243 1057T219 1184Q219 1346 328 1433T643 1520Q716 1520 786 1509T924 1477V1221Q860 1257 795 1275T664 1294Q584
1294 543 1266T502 1184Q502 1148 532 1085T631 920L944 440Q965 478 976 527T987 633Q987 663 985 691T979 745H1214V694Q1214 549 1180 441T1073 246L1235 0H918L870 72ZM440 731Q374 688 341 629T307 496Q307 374 385 291T578 207Q606 207 635 213T693 232Q695
233 701 236Q730 250 748 262L440 731Z" />
<glyph unicode="&apos;" glyph-name="quotesingle" d="M743 1493V938H487V1493H743Z" />
<glyph unicode="(" glyph-name="parenleft" d="M924 1554Q792 1315 728 1091T664 643Q664 421 728 196T924 -270H696Q537 -39 460 185T383 643Q383 875 460 1100T696 1554H924Z" />
<glyph unicode=")" glyph-name="parenright" d="M309 1554H537Q695 1326 772 1101T850 643Q850 410 773 186T537 -270H309Q441 -30 505 195T569 643Q569 867 505 1091T309 1554Z" />
<glyph unicode="*" glyph-name="asterisk" d="M1108 1217L778 1044L1108 870L1032 729L700 913V569H528V913L197 729L121 870L453 1044L121 1217L197 1358L528 1176V1520H700V1176L1032 1358L1108 1217Z" />
<glyph unicode="+" glyph-name="plus" d="M735 1192V762H1165V524H735V92H498V524H66V762H498V1192H735Z" />
<glyph unicode="," glyph-name="comma" d="M461 367H774V96L578 -287H362L461 96V367Z" />
<glyph unicode="-" glyph-name="hyphen" d="M301 735H932V444H301V735Z" />
<glyph unicode="." glyph-name="period" d="M449 367H782V0H449V367Z" />
<glyph unicode="/" glyph-name="slash" d="M899 1493H1120L334 -190H113L899 1493Z" />
<glyph unicode="0" glyph-name="zero" d="M492 745Q492 798 528 834T616 870Q669 870 705 834T741 745Q741 693 705 657T616 621Q564 621 528 656T492 745ZM616 1270Q514 1270 467 1145T420 745Q420 471 467 346T616 221Q719 221 766 346T813 745Q813 1020 766
1145T616 1270ZM123 745Q123 1133 246 1326T616 1520Q864 1520 987 1327T1110 745Q1110 357 987 164T616 -29Q369 -29 246 164T123 745Z" />
<glyph unicode="1" glyph-name="one" d="M188 260H518V1229L211 1153V1419L520 1493H805V260H1135V0H188V260Z" />
<glyph unicode="2" glyph-name="two" d="M434 260H1063V0H115V252L275 422Q560 725 621 795Q696 881 729 947T762 1079Q762 1179 702 1233T530 1288Q451 1288 353 1257T147 1165V1440Q254 1479 356 1499T553 1520Q790 1520 925 1410T1061 1108Q1061 1020 1032
943T930 772Q877 704 639 466Q510 337 434 260Z" />
<glyph unicode="3" glyph-name="three" d="M549 668H391V928H549Q659 928 719 971T780 1094Q780 1177 720 1223T549 1270Q465 1270 369 1249T170 1188V1456Q273 1487 373 1503T565 1520Q801 1520 933 1417T1065 1133Q1065 1000 989 916T772 805Q932 777 1016 678T1100
416Q1100 199 961 85T557 -29Q444 -29 335 -10T125 45V319Q219 272 328 248T557 223Q677 223 747 278T817 428Q817 543 747 605T549 668Z" />
<glyph unicode="4" glyph-name="four" d="M694 1165L317 575H694V1165ZM668 1493H977V575H1141V322H977V0H694V322H102V608L668 1493Z" />
<glyph unicode="5" glyph-name="five" d="M193 1493H1004V1233H432V956Q468 970 509 976T596 983Q818 983 956 843T1094 479Q1094 244 945 108T537 -29Q441 -29 343 -13T143 35V301Q226 260 313 240T489 219Q645 219 726 285T807 479Q807 596 727 666T512 737Q433
737 354 718T193 659V1493Z" />
<glyph unicode="6" glyph-name="six" d="M643 748Q547 748 497 679T446 477Q446 346 496 277T643 207Q739 207 790 276T842 477Q842 608 791 678T643 748ZM1030 1458V1190Q951 1235 879 1257T739 1280Q579 1280 496 1173T408 855Q455 920 528 952T700 985Q902
985 1012 858T1122 496Q1122 245 999 107T651 -31Q378 -31 255 152T131 743Q131 1131 282 1324T735 1518Q805 1518 879 1503T1030 1458Z" />
<glyph unicode="7" glyph-name="seven" d="M135 1493H1079V1284L573 0H272L758 1233H135V1493Z" />
<glyph unicode="8" glyph-name="eight" d="M616 666Q517 666 456 604T395 438Q395 335 456 272T616 209Q715 209 776 273T838 438Q838 541 777 603T616 666ZM397 791Q284 830 225 913T166 1118Q166 1304 287 1412T616 1520Q825 1520 946 1412T1067 1118Q1067 998
1009 915T840 791Q964 753 1034 655T1104 420Q1104 205 977 88T616 -29Q383 -29 256 88T129 420Q129 558 200 656T397 791ZM428 1094Q428 1006 478 955T616 903Q704 903 754 954T805 1094Q805 1181 755 1231T616 1282Q530 1282 479 1231T428 1094Z" />
<glyph unicode="9" glyph-name="nine" d="M203 20V289Q282 243 354 221T494 199Q653 199 736 305T825 624Q778 559 705 527T532 494Q331 494 221 621T111 983Q111 1233 234 1370T582 1507Q855 1507 978 1325T1102 735Q1102 348 951 155T498 -39Q428 -39 354 -24T203
20ZM590 741Q685 741 735 810T786 1012Q786 1143 736 1212T590 1282Q494 1282 443 1213T391 1012Q391 881 442 811T590 741Z" />
<glyph unicode=":" glyph-name="colon" d="M449 1063H782V698H449V1063ZM449 367H782V0H449V367Z" />
<glyph unicode=";" glyph-name="semicolon" d="M449 367H782V96L586 -287H371L449 96V367ZM449 1063H782V698H449V1063Z" />
<glyph unicode="&lt;" glyph-name="less" d="M1145 926L350 641L1145 358V109L88 524V760L1145 1176V926Z" />
<glyph unicode="=" glyph-name="equal" d="M88 532H1145V295H88V532ZM88 987H1145V752H88V987Z" />
<glyph unicode="&gt;" glyph-name="greater" d="M88 926V1176L1145 760V524L88 109V358L883 641L88 926Z" />
<glyph unicode="?" glyph-name="question" d="M440 283H707V0H440V283ZM707 401H440V555Q440 654 471 724T582 872L672 961Q735 1022 757 1062T780 1145Q780 1212 734 1246T596 1280Q512 1280 421 1245T233 1139V1407Q331 1463 431 1491T633 1520Q835 1520 950
1426T1065 1167Q1065 1091 1031 1026T903 868L815 782Q747 716 728 674T709 571Q709 562 709 550T707 524V401Z" />
<glyph unicode="@" glyph-name="at" d="M973 545Q973 658 922 722T782 786Q693 786 643 722T592 545Q592 431 642 367T782 303Q871 303 922 367T973 545ZM1159 135H963V217Q925 164 874 140T750 115Q586 115 486 233T385 545Q385 738 485 855T750 973Q821 973
875 949T963 877V918Q963 1054 889 1128T676 1202Q468 1202 337 1019T205 543Q205 236 357 55T762 -127Q842 -127 917 -104T1061 -33L1153 -209Q1072 -264 977 -291T772 -319Q422 -319 214 -86T6 543Q6 930 193 1162T688 1395Q906 1395 1032 1264T1159 905V135Z"
/>
<glyph unicode="A" glyph-name="A" d="M616 1223L477 612H756L616 1223ZM436 1493H797L1200 0H905L813 369H418L328 0H33L436 1493Z" />
<glyph unicode="B" glyph-name="B" d="M410 678V236H606Q747 236 803 284T860 451Q860 572 801 625T606 678H410ZM410 1260V913H606Q718 913 765 953T813 1085Q813 1177 765 1218T606 1260H410ZM125 1495H606Q855 1495 980 1401T1106 1118Q1106 974 1032 893T815
799Q986 782 1072 684T1159 410Q1159 194 1029 97T606 0H125V1495Z" />
<glyph unicode="C" glyph-name="C" d="M1081 43Q1011 7 934 -11T772 -29Q470 -29 311 170T152 745Q152 1122 311 1321T772 1520Q857 1520 935 1502T1081 1448V1120Q1005 1190 934 1222T786 1255Q624 1255 542 1127T459 745Q459 493 541 365T786 236Q862 236 933
268T1081 371V43Z" />
<glyph unicode="D" glyph-name="D" d="M432 1227V266H512Q686 266 760 375T834 748Q834 1009 760 1118T512 1227H432ZM137 1493H453Q819 1493 980 1319T1141 748Q1141 351 980 176T453 0H137V1493Z" />
<glyph unicode="E" glyph-name="E" d="M1098 0H168V1493H1098V1233H463V911H1038V651H463V260H1098V0Z" />
<glyph unicode="F" glyph-name="F" d="M1112 1233H477V911H1055V651H477V0H182V1493H1112V1233Z" />
<glyph unicode="G" glyph-name="G" d="M872 270V555H670V803H1130V119Q1045 46 943 9T723 -29Q433 -29 275 172T117 745Q117 1122 276 1321T737 1520Q827 1520 914 1495T1077 1421V1094Q1015 1174 935 1214T758 1255Q590 1255 507 1129T424 745Q424 496 504 366T737
236Q783 236 817 244T872 270Z" />
<glyph unicode="H" glyph-name="H" d="M137 1493H432V924H801V1493H1096V0H801V664H432V0H137V1493Z" />
<glyph unicode="I" glyph-name="I" d="M172 1233V1493H1061V1233H764V260H1061V0H172V260H469V1233H172Z" />
<glyph unicode="J" glyph-name="J" d="M109 74V416Q195 328 292 282T489 236Q605 236 659 294T713 479V1233H352V1493H1008V479Q1008 206 894 89T516 -29Q421 -29 318 -3T109 74Z" />
<glyph unicode="K" glyph-name="K" d="M117 1493H412V903L874 1493H1208L737 905L1225 0H897L543 672L412 506V0H117V1493Z" />
<glyph unicode="L" glyph-name="L" d="M225 0V1493H520V260H1151V0H225Z" />
<glyph unicode="M" glyph-name="M" d="M86 1493H438L616 838L793 1493H1147V0H893V1196L735 543H500L340 1196V0H86V1493Z" />
<glyph unicode="N" glyph-name="N" d="M119 1493H436L852 408V1493H1112V0H797L379 1085V0H119V1493Z" />
<glyph unicode="O" glyph-name="O" d="M616 1255Q503 1255 451 1135T399 745Q399 477 451 357T616 236Q730 236 782 356T834 745Q834 1014 782 1134T616 1255ZM92 745Q92 1128 224 1324T616 1520Q876 1520 1008 1324T1141 745Q1141 363 1009 167T616 -29Q357 -29
225 167T92 745Z" />
<glyph unicode="P" glyph-name="P" d="M457 1245V807H578Q723 807 781 856T840 1026Q840 1147 782 1196T578 1245H457ZM162 1493H567Q876 1493 1011 1383T1147 1026Q1147 779 1012 669T567 559H457V0H162V1493Z" />
<glyph unicode="Q" glyph-name="Q" d="M656 -23Q642 -26 633 -27T614 -29Q357 -29 225 167T92 745Q92 1128 224 1324T616 1520Q876 1520 1008 1324T1141 745Q1141 482 1078 305T895 51L1081 -131L879 -281L656 -23ZM616 1255Q503 1255 451 1135T399 745Q399 477
451 357T616 236Q730 236 782 356T834 745Q834 1014 782 1134T616 1255Z" />
<glyph unicode="R" glyph-name="R" d="M807 705Q851 696 883 664T963 537L1233 0H909L729 377Q721 393 708 421Q629 590 522 590H428V0H133V1493H559Q847 1493 972 1391T1098 1059Q1098 905 1023 814T807 705ZM428 1245V838H567Q688 838 740 885T793 1042Q793
1151 741 1198T567 1245H428Z" />
<glyph unicode="S" glyph-name="S" d="M510 655Q287 740 208 833T129 1085Q129 1288 259 1404T616 1520Q719 1520 822 1497T1026 1427V1139Q931 1206 833 1241T639 1276Q532 1276 475 1233T418 1110Q418 1048 459 1008T633 918L760 870Q940 804 1025 695T1110
420Q1110 194 977 83T573 -29Q462 -29 351 -3T135 76V381Q253 297 363 256T582 215Q691 215 751 264T811 403Q811 470 771 520T655 600L510 655Z" />
<glyph unicode="T" glyph-name="T" d="M764 0H469V1235H90V1493H1143V1235H764V0Z" />
<glyph unicode="U" glyph-name="U" d="M106 551V1493H401V477Q401 365 458 302T616 238Q717 238 774 301T831 477V1493H1126V551Q1126 247 1005 109T616 -29Q349 -29 228 109T106 551Z" />
<glyph unicode="V" glyph-name="V" d="M616 246L879 1493H1176L821 0H412L57 1493H354L616 246Z" />
<glyph unicode="W" glyph-name="W" d="M0 1493H258L365 397L494 1106H739L889 397L973 1493H1233L1061 0H786L616 784L457 0H184L0 1493Z" />
<glyph unicode="X" glyph-name="X" d="M1206 0H901L616 494L332 0H27L465 758L39 1493H344L616 1018L889 1493H1194L770 758L1206 0Z" />
<glyph unicode="Y" glyph-name="Y" d="M8 1493H326L616 893L907 1493H1225L764 588V0H469V588L8 1493Z" />
<glyph unicode="Z" glyph-name="Z" d="M137 1493H1147V1249L455 260H1161V0H115V244L786 1233H137V1493Z" />
<glyph unicode="[" glyph-name="bracketleft" d="M422 1556H930V1366H688V-80H930V-270H422V1556Z" />
<glyph unicode="\" glyph-name="backslash" d="M334 1493L1120 -190H897L111 1493H334Z" />
<glyph unicode="]" glyph-name="bracketright" d="M811 1556V-270H303V-80H545V1366H303V1556H811Z" />
<glyph unicode="^" glyph-name="asciicircum" d="M739 1493L1176 936H934L616 1237L299 936H57L494 1493H739Z" />
<glyph unicode="_" glyph-name="underscore" d="M1233 -293V-483H0V-293H1233Z" />
<glyph unicode="`" glyph-name="grave" d="M481 1638L764 1262H567L199 1638H481Z" />
<glyph unicode="a" glyph-name="a" d="M700 526Q536 526 471 484T406 340Q406 264 451 219T573 174Q689 174 753 261T817 506V526H700ZM1108 639V0H817V125Q764 51 681 11T498 -29Q307 -29 201 72T94 354Q94 550 221 643T614 737H817V786Q817 857 766 893T614
930Q509 930 411 904T205 819V1069Q302 1109 402 1128T614 1147Q887 1147 997 1036T1108 639Z" />
<glyph unicode="b" glyph-name="b" d="M850 557Q850 719 796 811T647 903Q552 903 497 811T442 557Q442 395 497 303T647 211Q742 211 796 303T850 557ZM442 961Q496 1054 567 1100T729 1147Q928 1147 1035 995T1143 559Q1143 279 1037 125T739 -29Q638 -29 563
20T442 166V0H150V1556H442V961Z" />
<glyph unicode="c" glyph-name="c" d="M1061 57Q987 14 902 -7T719 -29Q460 -29 314 127T168 559Q168 836 315 992T721 1149Q811 1149 894 1128T1061 1063V795Q997 850 921 879T762 909Q619 909 542 818T465 559Q465 391 542 301T762 211Q847 211 921 239T1061 326V57Z" />
<glyph unicode="d" glyph-name="d" d="M791 961V1556H1083V0H791V166Q744 69 670 20T494 -29Q302 -29 196 125T90 559Q90 843 197 995T504 1147Q594 1147 665 1101T791 961ZM383 557Q383 395 437 303T586 211Q681 211 736 303T791 557Q791 719 736 811T586 903Q491
903 437 811T383 557Z" />
<glyph unicode="e" glyph-name="e" d="M1102 55Q1000 13 894 -8T670 -29Q389 -29 241 121T92 555Q92 829 235 988T625 1147Q874 1147 1011 1000T1149 584V465H390Q391 333 468 268T698 203Q799 203 897 232T1102 324V55ZM854 685Q852 801 795 860T625 920Q524
920 464 859T393 684L854 685Z" />
<glyph unicode="f" glyph-name="f" d="M739 1218V1120H1083V895H739V0H446V895H174V1120H446V1198Q446 1400 530 1478T842 1556H1083V1331H854Q788 1331 765 1307T739 1218Z" />
<glyph unicode="g" glyph-name="g" d="M803 578Q803 728 746 818T596 909Q504 909 448 819T391 578Q391 426 447 336T596 246Q689 246 746 336T803 578ZM1096 84Q1096 -185 975 -304T580 -424Q488 -424 398 -411T215 -369V-100Q298 -146 384 -168T561 -190Q685
-190 744 -132T803 51V172Q760 92 689 53T516 14Q324 14 211 164T98 571Q98 837 211 993T514 1149Q610 1149 685 1104T803 977V1120H1096V84Z" />
<glyph unicode="h" glyph-name="h" d="M1071 727V0H780V682Q780 803 746 855T633 907Q553 907 508 837T463 641V0H172V1556H463V952Q494 1045 569 1096T750 1147Q909 1147 990 1042T1071 727Z" />
<glyph unicode="i" glyph-name="i" d="M221 1120H801V225H1165V0H143V225H508V895H221V1120ZM508 1665H801V1323H508V1665Z" />
<glyph unicode="j" glyph-name="j" d="M850 43Q850 -209 760 -316T459 -424H143V-199H377Q475 -199 516 -144T557 43V895H260V1120H850V43ZM850 1323H557V1665H850V1323Z" />
<glyph unicode="k" glyph-name="k" d="M174 1556H467V739L819 1120H1174L750 702L1198 0H874L567 524L467 428V0H174V1556Z" />
<glyph unicode="l" glyph-name="l" d="M387 467V1331H90V1556H680V467Q680 335 721 280T860 225H1094V0H778Q569 0 478 108T387 467Z" />
<glyph unicode="m" glyph-name="m" d="M690 1008Q723 1079 774 1113T899 1147Q1044 1147 1099 1047T1155 631V0H915V719Q915 844 896 886T827 928Q777 928 757 885T737 719V0H500V719Q500 842 480 885T410 928Q360 928 341 886T322 719V0H82V1120H295V1004Q320
1070 375 1108T498 1147Q566 1147 622 1107T690 1008Z" />
<glyph unicode="n" glyph-name="n" d="M1071 727V0H780V682Q780 804 746 856T633 909Q554 909 509 838T463 641V0H172V1120H463V952Q494 1045 569 1096T750 1147Q909 1147 990 1042T1071 727Z" />
<glyph unicode="o" glyph-name="o" d="M616 909Q511 909 451 817T391 559Q391 394 451 302T616 209Q722 209 782 301T842 559Q842 724 782 816T616 909ZM98 559Q98 830 238 988T616 1147Q854 1147 994 989T1135 559Q1135 288 995 130T616 -29Q379 -29 239 129T98 559Z" />
<glyph unicode="p" glyph-name="p" d="M442 158V-426H150V1120H442V952Q488 1049 563 1098T739 1147Q931 1147 1037 993T1143 559Q1143 275 1036 123T729 -29Q639 -29 568 17T442 158ZM850 561Q850 723 796 815T647 907Q552 907 497 815T442 561Q442 399 497 307T647
215Q742 215 796 307T850 561Z" />
<glyph unicode="q" glyph-name="q" d="M383 561Q383 399 437 307T586 215Q681 215 736 307T791 561Q791 723 736 815T586 907Q491 907 437 815T383 561ZM791 158Q737 64 666 18T504 -29Q305 -29 198 123T90 559Q90 839 196 993T494 1147Q595 1147 669 1098T791
952V1120H1083V-426H791V158Z" />
<glyph unicode="r" glyph-name="r" d="M1151 811Q1103 855 1039 877T897 899Q804 899 735 867T627 772Q603 734 594 680T584 516V0H291V1120H584V946Q627 1042 716 1094T924 1147Q984 1147 1041 1133T1151 1090V811Z" />
<glyph unicode="s" glyph-name="s" d="M991 1085V829Q910 881 823 907T647 934Q549 934 499 906T449 821Q449 741 663 691L674 688L758 668Q918 630 992 546T1067 317Q1067 144 954 58T612 -29Q511 -29 405 -12T190 41V297Q287 242 387 213T582 184Q685 184 738
214T791 301Q791 357 754 387T575 451L494 469Q326 507 249 588T172 805Q172 967 289 1057T618 1147Q713 1147 807 1132T991 1085Z" />
<glyph unicode="t" glyph-name="t" d="M690 1438V1120H1073V895H690V365Q690 290 726 258T848 225H1073V0H827Q575 0 486 80T397 379V895H111V1120H397V1438H690Z" />
<glyph unicode="u" glyph-name="u" d="M160 391V1120H453V436Q453 315 487 263T600 211Q679 211 723 281T768 477V1120H1061V0H768V166Q737 73 663 22T483 -29Q323 -29 242 77T160 391Z" />
<glyph unicode="v" glyph-name="v" d="M1153 1120L797 0H436L80 1120H377L616 246L856 1120H1153Z" />
<glyph unicode="w" glyph-name="w" d="M0 1120H244L377 262L498 827H735L854 262L989 1120H1233L1030 0H752L616 582L481 0H203L0 1120Z" />
<glyph unicode="x" glyph-name="x" d="M1145 1120L768 584L1178 0H836L616 377L397 0H55L469 584L88 1120H430L616 786L803 1120H1145Z" />
<glyph unicode="y" glyph-name="y" d="M711 -121Q652 -279 570 -351T369 -424H127V-201H246Q336 -201 378 -171T463 -29L485 31L59 1120H367L623 393L868 1120H1176L711 -121Z" />
<glyph unicode="z" glyph-name="z" d="M186 1120H1081V891L492 219H1081V0H162V229L752 901H186V1120Z" />
<glyph unicode="{" glyph-name="braceleft" d="M1053 -143V-334H903Q654 -334 570 -260T485 35V250Q485 401 432 458T238 516H176V707H238Q378 707 431 764T485 973V1188Q485 1409 569 1482T903 1556H1053V1366H930Q826 1366 791 1324T756 1139V930Q756 765 707
698T532 612Q658 591 707 523T756 291V86Q756 -58 791 -100T930 -143H1053Z" />
<glyph unicode="|" glyph-name="bar" d="M729 1565V-483H502V1565H729Z" />
<glyph unicode="}" glyph-name="braceright" d="M180 -143H301Q405 -143 441 -100T477 86V291Q477 455 526 523T700 612Q574 631 526 698T477 930V1139Q477 1280 442 1323T301 1366H180V1556H330Q578 1556 661 1483T745 1188V973Q745 822 799 765T995 707H1057V516H995Q854
516 800 458T745 250V35Q745 -186 662 -260T330 -334H180V-143Z" />
<glyph unicode="~" glyph-name="asciitilde" d="M1145 811V578Q1070 518 999 491T848 463Q758 463 645 514Q623 524 612 528Q535 562 484 574T381 586Q303 586 233 557T88 465V694Q166 755 239 782T395 809Q448 809 498 798T622 756Q633 751 655 741Q771 686 864
686Q934 686 1003 716T1145 811Z" />
<glyph unicode="&#xa0;" glyph-name="nbspace" />
<glyph unicode="&#xa1;" glyph-name="exclamdown" d="M750 1210H483V1493H750V1210ZM750 0H483V655L516 1012H715L750 655V0Z" />
<glyph unicode="&#xa2;" glyph-name="cent" d="M1036 1077V809Q980 851 920 875T797 907V215Q861 220 920 244T1036 311V43Q984 14 924 -3T797 -25V-313H655V-25Q420 -3 284 154T147 561Q147 816 283 972T655 1145V1432H797V1145Q858 1140 916 1124T1036 1077ZM655
215V907Q541 893 480 804T418 561Q418 406 481 314T655 215Z" />
<glyph unicode="&#xa3;" glyph-name="sterling" d="M1102 1462V1188Q1045 1229 980 1250T846 1272Q740 1272 691 1206T641 995V819H977V594H641V260H1122V0H119V260H354V594H156V819H354V1016Q354 1272 466 1396T811 1520Q894 1520 965 1506T1102 1462Z" />
<glyph unicode="&#xa4;" glyph-name="currency" d="M827 643Q827 716 777 765T653 815Q580 815 530 766T479 643Q479 569 529 518T653 467Q727 467 777 518T827 643ZM819 938L991 1108L1118 979L948 809Q971 768 982 727T993 641Q993 594 982 554T946 477L1118
307L987 176L817 348Q781 324 741 313T653 301Q614 301 572 311T485 344L315 176L186 305L356 475Q334 517 323 558T311 641Q311 688 322 728T358 807L186 977L317 1108L483 936Q524 960 565 971T653 983Q692 983 732 972T819 938Z" />
<glyph unicode="&#xa5;" glyph-name="yen" d="M8 1493H326L616 893L907 1493H1225L952 965H1176V778H854L768 627H1176V438H764V0H469V438H57V627H465L379 778H57V965H281L8 1493Z" />
<glyph unicode="&#xa6;" glyph-name="brokenbar" d="M729 408V-350H502V408H729ZM729 1432V674H502V1432H729Z" />
<glyph unicode="&#xa7;" glyph-name="section" d="M518 856Q463 820 439 786T414 711Q414 657 462 613T711 473Q766 509 790 543T815 621Q815 702 550 840L518 856ZM930 1460V1235Q845 1265 779 1279T659 1294Q583 1294 541 1265T498 1184Q498 1109 701 1004Q720
994 729 989Q943 879 1002 809T1061 637Q1061 548 1014 484T864 373Q934 323 966 262T999 119Q999 -28 895 -111T604 -195Q515 -195 429 -181T258 -137V92Q343 62 424 47T578 31Q655 31 696 59T737 141Q737 211 523 326L512 332L486 346Q170 516 170 688Q170 782
222 851T371 954Q300 1004 268 1064T236 1206Q236 1348 340 1434T616 1520Q690 1520 768 1505T930 1460Z" />
<glyph unicode="&#xa8;" glyph-name="dieresis" d="M696 1585H932V1339H696V1585ZM301 1585H537V1339H301V1585Z" />
<glyph unicode="&#xa9;" glyph-name="copyright" d="M848 1049V881Q796 912 751 926T657 940Q560 940 507 888T453 741Q453 646 506 595T657 543Q710 543 758 557T848 602V434Q793 417 740 408T637 399Q468 399 367 492T266 741Q266 897 367 990T637 1083Q692
1083 744 1075T848 1049ZM616 1358Q743 1358 852 1313T1051 1178Q1141 1087 1187 977T1233 741Q1233 616 1188 507T1051 307Q960 216 851 171T616 125Q491 125 382 170T182 307Q91 398 46 507T0 741Q0 867 46 977T182 1178Q272 1268 381 1313T616 1358ZM616 1229Q517
1229 432 1194T274 1085Q203 1014 167 928T131 741Q131 643 167 558T274 401Q345 329 431 293T616 256Q716 256 802 292T958 401Q1030 473 1066 558T1102 741Q1102 842 1066 928T958 1085Q886 1158 802 1193T616 1229Z" />
<glyph unicode="&#xaa;" glyph-name="ordfeminine" d="M786 1049V1079H684Q575 1079 525 1053T475 971Q475 922 505 894T590 866Q676 866 731 917T786 1049ZM786 809Q736 752 676 725T537 698Q407 698 332 766T256 952Q256 1086 348 1152T629 1219H786V1245Q786
1294 741 1318T604 1343Q522 1343 451 1327T315 1276V1464Q388 1492 462 1506T612 1520Q801 1520 890 1434T979 1165V717H786V809ZM293 598H981V428H293V598Z" />
<glyph unicode="&#xab;" glyph-name="guillemotleft" d="M1042 1059V821L766 600L1042 379V141L573 535V666L1042 1059ZM588 1059V821L311 600L588 379V141L119 535V666L588 1059Z" />
<glyph unicode="&#xac;" glyph-name="logicalnot" d="M88 899H1145V362H907V662H88V899Z" />
<glyph unicode="&#xad;" glyph-name="sfthyphen" d="M301 735H932V444H301V735Z" />
<glyph unicode="&#xae;" glyph-name="registered" d="M616 1358Q743 1358 852 1313T1051 1178Q1141 1087 1187 977T1233 741Q1233 616 1188 507T1051 307Q960 216 851 171T616 125Q491 125 382 170T182 307Q91 398 46 507T0 741Q0 867 46 977T182 1178Q272 1268
381 1313T616 1358ZM588 944H524V780H588Q645 780 673 800T702 860Q702 903 674 923T588 944ZM606 1055Q739 1055 803 1011T868 877Q868 812 829 770T719 715Q757 701 784 673T836 596L915 430H743L680 563Q653 621 625 644T555 670H524V430H360V1055H606ZM616
1229Q517 1229 432 1194T274 1085Q203 1014 167 928T131 741Q131 643 167 558T274 399Q346 328 431 292T616 256Q715 256 801 292T958 399Q1030 473 1066 558T1102 741Q1102 842 1066 928T958 1085Q886 1158 802 1193T616 1229Z" />
<glyph unicode="&#xaf;" glyph-name="overscore" d="M301 1556H932V1368H301V1556Z" />
<glyph unicode="&#xb0;" glyph-name="degree" d="M616 1520Q683 1520 744 1495T852 1421Q899 1374 923 1314T948 1186Q948 1120 923 1059T852 952Q804 905 743 880T614 854Q473 854 378 949T283 1186Q283 1327 379 1423T616 1520ZM616 1358Q544 1358 494 1308T444
1186Q444 1114 493 1065T614 1016Q686 1016 736 1065T786 1186Q786 1258 737 1308T616 1358Z" />
<glyph unicode="&#xb1;" glyph-name="plusminus" d="M735 1284V930H1145V694H735V340H498V694H88V930H498V1284H735ZM88 238H1145V0H88V238Z" />
<glyph unicode="&#xb2;" glyph-name="twosuperior" d="M500 813H940V668H274V809Q325 852 415 927Q729 1189 729 1268Q729 1320 686 1350T567 1380Q511 1380 444 1363T299 1311V1475Q374 1497 445 1508T582 1520Q751 1520 844 1458T938 1284Q938 1158 583 878Q529
836 500 813Z" />
<glyph unicode="&#xb3;" glyph-name="threesuperior" d="M582 1042H471V1188H582Q656 1188 698 1213T741 1282Q741 1327 702 1352T592 1378Q523 1378 454 1367T317 1333V1485Q386 1502 455 1511T592 1520Q754 1520 846 1462T938 1303Q938 1230 886 1183T735 1120Q846
1105 904 1049T963 901Q963 780 867 717T586 653Q511 653 436 663T287 694V848Q354 821 430 807T586 793Q671 793 718 825T766 913Q766 974 717 1008T582 1042Z" />
<glyph unicode="&#xb4;" glyph-name="acute" d="M752 1638H1034L666 1262H469L752 1638Z" />
<glyph unicode="&#xb5;" glyph-name="mu" d="M174 -428V1120H461V440Q461 326 502 269T625 211Q706 211 746 268T786 440V1120H1075V344Q1075 273 1088 242T1133 211Q1147 211 1160 216T1188 233V16Q1145 -7 1108 -18T1036 -29Q964 -29 919 8T846 129Q809 51 754
11T629 -29Q570 -29 529 -6T461 66L463 -428H174Z" />
<glyph unicode="&#xb6;" glyph-name="paragraph" d="M545 1493H1065V-197H874V1346H684V-197H496V649Q291 674 181 783T70 1071Q70 1261 200 1377T545 1493Z" />
<glyph unicode="&#xb7;" glyph-name="middot" d="M449 895H782V530H449V895Z" />
<glyph unicode="&#xb8;" glyph-name="cedilla" d="M707 0Q764 -62 791 -115T819 -215Q819 -310 758 -355T569 -401Q521 -401 471 -395T367 -375V-219Q412 -236 454 -245T532 -254Q590 -254 622 -231T655 -168Q655 -142 634 -101T567 0H707Z" />
<glyph unicode="&#xb9;" glyph-name="onesuperior" d="M313 813H539V1356L319 1313V1462L541 1503H735V813H961V668H313V813Z" />
<glyph unicode="&#xba;" glyph-name="ordmasculine" d="M293 598H981V428H293V598ZM274 1108Q274 1297 372 1408T637 1520Q803 1520 901 1409T999 1108Q999 919 902 809T637 698Q471 698 373 808T274 1108ZM637 1343Q564 1343 522 1280T479 1108Q479 999 521 937T637
874Q710 874 752 936T795 1108Q795 1217 753 1280T637 1343Z" />
<glyph unicode="&#xbb;" glyph-name="guillemotright" d="M193 1059L662 666V535L193 141V379L469 600L193 821V1059ZM647 1059L1116 666V535L647 141V379L924 600L647 821V1059Z" />
<glyph unicode="&#xbc;" glyph-name="onequarter" d="M823 383L573 53H823V383ZM805 565H1009V53H1118V-90H1009V-270H823V-90H430V72L805 565ZM55 969H281V1512L61 1469V1618L283 1659H477V969H703V824H55V969ZM84 500L47 618L1106 881L1143 762L84 500Z" />
<glyph unicode="&#xbd;" glyph-name="onehalf" d="M55 969H281V1512L61 1469V1618L283 1659H477V969H703V824H55V969ZM84 500L47 618L1106 881L1143 762L84 500ZM701 -125H1141V-270H475V-129Q526 -86 616 -11Q930 251 930 330Q930 382 887 412T768 442Q712 442
645 425T500 373V537Q575 559 646 570T783 582Q952 582 1045 520T1139 346Q1139 220 784 -60Q730 -102 701 -125Z" />
<glyph unicode="&#xbe;" glyph-name="threequarters" d="M823 383L573 53H823V383ZM805 565H1009V53H1118V-90H1009V-270H823V-90H430V72L805 565ZM355 1198H244V1344H355Q429 1344 471 1369T514 1438Q514 1483 475 1508T365 1534Q296 1534 227 1523T90 1489V1641Q159
1658 228 1667T365 1676Q527 1676 619 1618T711 1459Q711 1386 659 1339T508 1276Q619 1261 677 1205T736 1057Q736 936 640 873T359 809Q284 809 209 819T60 850V1004Q127 977 203 963T359 949Q444 949 491 981T539 1069Q539 1130 490 1164T355 1198ZM84 500L47
618L1106 881L1143 762L84 500Z" />
<glyph unicode="&#xbf;" glyph-name="questiondown" d="M799 1210H532V1493H799V1210ZM532 1092H799V938Q799 839 768 769T657 621L567 532Q506 473 484 433T461 348Q461 281 507 247T645 213Q728 213 818 248T1006 354V86Q908 30 808 2T606 -27Q405 -27 291 67T176
326Q176 402 210 467T338 625L426 711Q492 775 511 817T530 922Q530 923 531 928Q532 949 532 969V1092Z" />
<glyph unicode="&#xc0;" glyph-name="Agrave" d="M616 1223L477 612H756L616 1223ZM436 1493H797L1200 0H905L813 369H418L328 0H33L436 1493ZM567 1899L766 1635H569L283 1899H567Z" />
<glyph unicode="&#xc1;" glyph-name="Aacute" d="M616 1223L477 612H756L616 1223ZM436 1493H797L1200 0H905L813 369H418L328 0H33L436 1493ZM668 1899H952L666 1635H469L668 1899Z" />
<glyph unicode="&#xc2;" glyph-name="Acircumflex" d="M616 1223L477 612H756L616 1223ZM436 1493H797L1200 0H905L813 369H418L328 0H33L436 1493ZM461 1899H770L993 1635H815L616 1796L418 1635H240L461 1899Z" />
<glyph unicode="&#xc3;" glyph-name="Atilde" d="M616 1223L477 612H756L616 1223ZM436 1493H797L1200 0H905L813 369H418L328 0H33L436 1493ZM618 1684L564 1718Q559 1721 552 1725Q507 1751 479 1751Q448 1751 428 1721T408 1641V1635H268V1665Q268 1771 322
1836T465 1901Q501 1901 538 1889T614 1852L674 1813Q695 1799 714 1792T750 1784Q786 1784 805 1814T825 1901H965Q965 1896 964 1886T963 1870Q963 1764 910 1700T768 1635Q731 1635 696 1646T618 1684Z" />
<glyph unicode="&#xc4;" glyph-name="Adieresis" d="M616 1223L477 612H756L616 1223ZM436 1493H797L1200 0H905L813 369H418L328 0H33L436 1493ZM696 1899H932V1653H696V1899ZM301 1899H537V1653H301V1899Z" />
<glyph unicode="&#xc5;" glyph-name="Aring" d="M815 1421L1200 0H905L813 369H418L328 0H33L418 1421Q374 1458 353 1506T332 1616Q332 1733 415 1817T616 1901Q734 1901 817 1817T901 1616Q901 1554 880 1507T815 1421ZM485 1616Q485 1562 524 1524T616 1485Q671
1485 709 1523T748 1616Q748 1670 709 1708T616 1747Q563 1747 524 1709T485 1616ZM616 1223L477 612H756L616 1223Z" />
<glyph unicode="&#xc6;" glyph-name="AE" d="M1161 1493V1233H870V922H1130V662H870V260H1180V0H616V362H334L248 0H0L358 1493H1161ZM537 1233L389 598H616V1233H537Z" />
<glyph unicode="&#xc7;" glyph-name="Ccedilla" d="M824 0Q881 -62 908 -115T936 -215Q936 -310 875 -355T686 -401Q638 -401 588 -395T484 -375V-219Q529 -236 571 -245T649 -254Q707 -254 739 -231T772 -168Q772 -142 751 -101T684 0H824ZM1081 43Q1011 7 934
-11T772 -29Q470 -29 311 170T152 745Q152 1122 311 1321T772 1520Q857 1520 935 1502T1081 1448V1120Q1005 1190 934 1222T786 1255Q624 1255 542 1127T459 745Q459 493 541 365T786 236Q862 236 933 268T1081 371V43Z" />
<glyph unicode="&#xc8;" glyph-name="Egrave" d="M1098 0H168V1493H1098V1233H463V911H1038V651H463V260H1098V0ZM598 1899L797 1635H600L314 1899H598Z" />
<glyph unicode="&#xc9;" glyph-name="Eacute" d="M1098 0H168V1493H1098V1233H463V911H1038V651H463V260H1098V0ZM699 1899H983L697 1635H500L699 1899Z" />
<glyph unicode="&#xca;" glyph-name="Ecircumflex" d="M1098 0H168V1493H1098V1233H463V911H1038V651H463V260H1098V0ZM492 1899H801L1024 1635H846L647 1796L449 1635H271L492 1899Z" />
<glyph unicode="&#xcb;" glyph-name="Edieresis" d="M1098 0H168V1493H1098V1233H463V911H1038V651H463V260H1098V0ZM727 1899H963V1653H727V1899ZM332 1899H568V1653H332V1899Z" />
<glyph unicode="&#xcc;" glyph-name="Igrave" d="M172 1233V1493H1061V1233H764V260H1061V0H172V260H469V1233H172ZM567 1899L766 1635H569L283 1899H567Z" />
<glyph unicode="&#xcd;" glyph-name="Iacute" d="M172 1233V1493H1061V1233H764V260H1061V0H172V260H469V1233H172ZM668 1899H952L666 1635H469L668 1899Z" />
<glyph unicode="&#xce;" glyph-name="Icircumflex" d="M172 1233V1493H1061V1233H764V260H1061V0H172V260H469V1233H172ZM461 1899H770L993 1635H815L616 1796L418 1635H240L461 1899Z" />
<glyph unicode="&#xcf;" glyph-name="Idieresis" d="M172 1233V1493H1061V1233H764V260H1061V0H172V260H469V1233H172ZM696 1899H932V1653H696V1899ZM301 1899H537V1653H301V1899Z" />
<glyph unicode="&#xd0;" glyph-name="Eth" d="M432 1227V901H643V664H432V266H512Q686 266 760 375T834 748Q834 1009 760 1118T512 1227H432ZM137 1493H453Q819 1493 980 1319T1141 748Q1141 351 980 176T453 0H137V664H0V901H137V1493Z" />
<glyph unicode="&#xd1;" glyph-name="Ntilde" d="M119 1493H436L852 408V1493H1112V0H797L379 1085V0H119V1493ZM618 1684L564 1718Q559 1721 552 1725Q507 1751 479 1751Q448 1751 428 1721T408 1641V1635H268V1665Q268 1771 322 1836T465 1901Q501 1901 538
1889T614 1852L674 1813Q695 1799 714 1792T750 1784Q786 1784 805 1814T825 1901H965Q965 1896 964 1886T963 1870Q963 1764 910 1700T768 1635Q731 1635 696 1646T618 1684Z" />
<glyph unicode="&#xd2;" glyph-name="Ograve" d="M616 1255Q503 1255 451 1135T399 745Q399 477 451 357T616 236Q730 236 782 356T834 745Q834 1014 782 1134T616 1255ZM92 745Q92 1128 224 1324T616 1520Q876 1520 1008 1324T1141 745Q1141 363 1009 167T616
-29Q357 -29 225 167T92 745ZM567 1899L766 1635H569L283 1899H567Z" />
<glyph unicode="&#xd3;" glyph-name="Oacute" d="M616 1255Q503 1255 451 1135T399 745Q399 477 451 357T616 236Q730 236 782 356T834 745Q834 1014 782 1134T616 1255ZM92 745Q92 1128 224 1324T616 1520Q876 1520 1008 1324T1141 745Q1141 363 1009 167T616
-29Q357 -29 225 167T92 745ZM668 1899H952L666 1635H469L668 1899Z" />
<glyph unicode="&#xd4;" glyph-name="Ocircumflex" d="M616 1255Q503 1255 451 1135T399 745Q399 477 451 357T616 236Q730 236 782 356T834 745Q834 1014 782 1134T616 1255ZM92 745Q92 1128 224 1324T616 1520Q876 1520 1008 1324T1141 745Q1141 363 1009 167T616
-29Q357 -29 225 167T92 745ZM461 1899H770L993 1635H815L616 1796L418 1635H240L461 1899Z" />
<glyph unicode="&#xd5;" glyph-name="Otilde" d="M616 1255Q503 1255 451 1135T399 745Q399 477 451 357T616 236Q730 236 782 356T834 745Q834 1014 782 1134T616 1255ZM92 745Q92 1128 224 1324T616 1520Q876 1520 1008 1324T1141 745Q1141 363 1009 167T616
-29Q357 -29 225 167T92 745ZM618 1684L564 1718Q559 1721 552 1725Q507 1751 479 1751Q448 1751 428 1721T408 1641V1635H268V1665Q268 1771 322 1836T465 1901Q501 1901 538 1889T614 1852L674 1813Q695 1799 714 1792T750 1784Q786 1784 805 1814T825 1901H965Q965
1896 964 1886T963 1870Q963 1764 910 1700T768 1635Q731 1635 696 1646T618 1684Z" />
<glyph unicode="&#xd6;" glyph-name="Odieresis" d="M616 1255Q503 1255 451 1135T399 745Q399 477 451 357T616 236Q730 236 782 356T834 745Q834 1014 782 1134T616 1255ZM92 745Q92 1128 224 1324T616 1520Q876 1520 1008 1324T1141 745Q1141 363 1009 167T616
-29Q357 -29 225 167T92 745ZM696 1899H932V1653H696V1899ZM301 1899H537V1653H301V1899Z" />
<glyph unicode="&#xd7;" glyph-name="multiply" d="M1112 971L782 643L1112 313L944 147L614 475L287 147L119 313L449 643L119 971L287 1139L614 811L944 1139L1112 971Z" />
<glyph unicode="&#xd8;" glyph-name="Oslash" d="M451 354Q475 297 517 267T616 236Q730 236 782 356T834 745Q834 773 833 804T829 888L451 354ZM772 1153Q746 1204 707 1229T616 1255Q504 1255 452 1135T399 756V629L772 1153ZM162 289Q127 377 110 490T92 745Q92
1128 224 1324T616 1520Q719 1520 802 1489T946 1397L1059 1559L1221 1444L1063 1221Q1102 1127 1121 1008T1141 745Q1141 363 1009 167T616 -29Q510 -29 425 4T276 104L156 -63L-6 51L162 289Z" />
<glyph unicode="&#xd9;" glyph-name="Ugrave" d="M106 551V1493H401V477Q401 365 458 302T616 238Q717 238 774 301T831 477V1493H1126V551Q1126 247 1005 109T616 -29Q349 -29 228 109T106 551ZM567 1899L766 1635H569L283 1899H567Z" />
<glyph unicode="&#xda;" glyph-name="Uacute" d="M106 551V1493H401V477Q401 365 458 302T616 238Q717 238 774 301T831 477V1493H1126V551Q1126 247 1005 109T616 -29Q349 -29 228 109T106 551ZM668 1899H952L666 1635H469L668 1899Z" />
<glyph unicode="&#xdb;" glyph-name="Ucircumflex" d="M106 551V1493H401V477Q401 365 458 302T616 238Q717 238 774 301T831 477V1493H1126V551Q1126 247 1005 109T616 -29Q349 -29 228 109T106 551ZM461 1899H770L993 1635H815L616 1796L418 1635H240L461 1899Z" />
<glyph unicode="&#xdc;" glyph-name="Udieresis" d="M106 551V1493H401V477Q401 365 458 302T616 238Q717 238 774 301T831 477V1493H1126V551Q1126 247 1005 109T616 -29Q349 -29 228 109T106 551ZM696 1899H932V1653H696V1899ZM301 1899H537V1653H301V1899Z" />
<glyph unicode="&#xdd;" glyph-name="Yacute" d="M8 1493H326L616 893L907 1493H1225L764 588V0H469V588L8 1493ZM668 1899H952L666 1635H469L668 1899Z" />
<glyph unicode="&#xde;" glyph-name="Thorn" d="M457 1014V575H578Q724 575 782 624T840 793Q840 914 782 964T578 1014H457ZM162 1493H457V1255H567Q876 1255 1011 1146T1147 788Q1147 549 1010 441T567 332H457V0H162V1493Z" />
<glyph unicode="&#xdf;" glyph-name="germandbls" d="M1034 1059Q909 1053 845 1008T780 881Q780 817 896 728Q909 718 915 713L1012 639Q1094 577 1134 501T1174 330Q1174 163 1062 67T756 -29Q695 -29 633 -17T504 20V270Q562 239 619 223T731 207Q804 207 846
240T889 332Q889 404 774 492Q745 514 729 526L643 594Q584 642 554 705T524 846Q524 972 598 1057T809 1174Q800 1248 751 1284T610 1321Q516 1321 468 1271T420 1122V0H127V1126Q127 1337 247 1446T598 1556Q821 1556 927 1438T1034 1073V1059Z" />
<glyph unicode="&#xe0;" glyph-name="agrave" d="M700 526Q536 526 471 484T406 340Q406 264 451 219T573 174Q689 174 753 261T817 506V526H700ZM1108 639V0H817V125Q764 51 681 11T498 -29Q307 -29 201 72T94 354Q94 550 221 643T614 737H817V786Q817 857 766
893T614 930Q509 930 411 904T205 819V1069Q302 1109 402 1128T614 1147Q887 1147 997 1036T1108 639ZM481 1638L764 1262H567L199 1638H481Z" />
<glyph unicode="&#xe1;" glyph-name="aacute" d="M700 526Q536 526 471 484T406 340Q406 264 451 219T573 174Q689 174 753 261T817 506V526H700ZM1108 639V0H817V125Q764 51 681 11T498 -29Q307 -29 201 72T94 354Q94 550 221 643T614 737H817V786Q817 857 766
893T614 930Q509 930 411 904T205 819V1069Q302 1109 402 1128T614 1147Q887 1147 997 1036T1108 639ZM752 1638H1034L666 1262H469L752 1638Z" />
<glyph unicode="&#xe2;" glyph-name="acircumflex" d="M700 526Q536 526 471 484T406 340Q406 264 451 219T573 174Q689 174 753 261T817 506V526H700ZM1108 639V0H817V125Q764 51 681 11T498 -29Q307 -29 201 72T94 354Q94 550 221 643T614 737H817V786Q817 857
766 893T614 930Q509 930 411 904T205 819V1069Q302 1109 402 1128T614 1147Q887 1147 997 1036T1108 639ZM496 1638H737L993 1262H815L616 1487L418 1262H240L496 1638Z" />
<glyph unicode="&#xe3;" glyph-name="atilde" d="M700 526Q536 526 471 484T406 340Q406 264 451 219T573 174Q689 174 753 261T817 506V526H700ZM1108 639V0H817V125Q764 51 681 11T498 -29Q307 -29 201 72T94 354Q94 550 221 643T614 737H817V786Q817 857 766
893T614 930Q509 930 411 904T205 819V1069Q302 1109 402 1128T614 1147Q887 1147 997 1036T1108 639ZM618 1364L563 1401Q560 1403 551 1409Q508 1438 481 1438Q445 1438 427 1407T408 1317V1309H268Q268 1445 319 1519T465 1593Q501 1593 537 1580T614 1536L676
1493Q697 1478 715 1470T750 1462Q786 1462 805 1493T825 1583V1591H965Q965 1455 914 1381T768 1307Q732 1307 699 1319T618 1364Z" />
<glyph unicode="&#xe4;" glyph-name="adieresis" d="M700 526Q536 526 471 484T406 340Q406 264 451 219T573 174Q689 174 753 261T817 506V526H700ZM1108 639V0H817V125Q764 51 681 11T498 -29Q307 -29 201 72T94 354Q94 550 221 643T614 737H817V786Q817 857
766 893T614 930Q509 930 411 904T205 819V1069Q302 1109 402 1128T614 1147Q887 1147 997 1036T1108 639ZM696 1585H932V1339H696V1585ZM301 1585H537V1339H301V1585Z" />
<glyph unicode="&#xe5;" glyph-name="aring" d="M700 526Q536 526 471 484T406 340Q406 264 451 219T573 174Q689 174 753 261T817 506V526H700ZM1108 639V0H817V125Q764 51 681 11T498 -29Q307 -29 201 72T94 354Q94 550 221 643T614 737H817V786Q817 857 766
893T614 930Q509 930 411 904T205 819V1069Q302 1109 402 1128T614 1147Q887 1147 997 1036T1108 639ZM332 1534Q332 1652 415 1735T616 1819Q735 1819 818 1736T901 1534Q901 1416 818 1333T616 1249Q498 1249 415 1332T332 1534ZM485 1534Q485 1479 523 1441T616
1403Q671 1403 709 1441T748 1534Q748 1588 709 1626T616 1665Q562 1665 524 1627T485 1534Z" />
<glyph unicode="&#xe6;" glyph-name="ae" d="M489 401V483H416Q329 483 285 444T240 330Q240 259 272 222T365 184Q428 184 458 227T489 358V401ZM963 690V713Q963 838 938 885T850 932Q787 932 762 885T737 713V690H963ZM1188 479H737Q737 335 787 260T932 184Q992
184 1052 213T1171 301V57Q1121 13 1059 -8T913 -29Q810 -29 735 13T618 135Q577 51 512 11T348 -29Q188 -29 101 63T14 326Q14 511 115 602T420 694H496V745Q496 838 457 885T342 932Q285 932 218 905T76 823V1069Q150 1108 220 1127T354 1147Q452 1147 514 1116T612
1020Q641 1081 706 1114T864 1147Q1041 1147 1114 1028T1188 606V479Z" />
<glyph unicode="&#xe7;" glyph-name="ccedilla" d="M779 0Q836 -62 863 -115T891 -215Q891 -310 830 -355T641 -401Q593 -401 543 -395T439 -375V-219Q484 -236 526 -245T604 -254Q662 -254 694 -231T727 -168Q727 -142 706 -101T639 0H779ZM1061 57Q987 14 902
-7T719 -29Q460 -29 314 127T168 559Q168 836 315 992T721 1149Q811 1149 894 1128T1061 1063V795Q997 850 921 879T762 909Q619 909 542 818T465 559Q465 391 542 301T762 211Q847 211 921 239T1061 326V57Z" />
<glyph unicode="&#xe8;" glyph-name="egrave" d="M1102 55Q1000 13 894 -8T670 -29Q389 -29 241 121T92 555Q92 829 235 988T625 1147Q874 1147 1011 1000T1149 584V465H390Q391 333 468 268T698 203Q799 203 897 232T1102 324V55ZM854 685Q852 801 795 860T625
920Q524 920 464 859T393 684L854 685ZM520 1638L803 1262H606L238 1638H520Z" />
<glyph unicode="&#xe9;" glyph-name="eacute" d="M1102 55Q1000 13 894 -8T670 -29Q389 -29 241 121T92 555Q92 829 235 988T625 1147Q874 1147 1011 1000T1149 584V465H390Q391 333 468 268T698 203Q799 203 897 232T1102 324V55ZM854 685Q852 801 795 860T625
920Q524 920 464 859T393 684L854 685ZM791 1638H1073L705 1262H508L791 1638Z" />
<glyph unicode="&#xea;" glyph-name="ecircumflex" d="M1102 55Q1000 13 894 -8T670 -29Q389 -29 241 121T92 555Q92 829 235 988T625 1147Q874 1147 1011 1000T1149 584V465H390Q391 333 468 268T698 203Q799 203 897 232T1102 324V55ZM854 685Q852 801 795 860T625
920Q524 920 464 859T393 684L854 685ZM535 1638H776L1032 1262H854L655 1487L457 1262H279L535 1638Z" />
<glyph unicode="&#xeb;" glyph-name="edieresis" d="M1102 55Q1000 13 894 -8T670 -29Q389 -29 241 121T92 555Q92 829 235 988T625 1147Q874 1147 1011 1000T1149 584V465H390Q391 333 468 268T698 203Q799 203 897 232T1102 324V55ZM854 685Q852 801 795 860T625
920Q524 920 464 859T393 684L854 685ZM735 1585H971V1339H735V1585ZM340 1585H576V1339H340V1585Z" />
<glyph unicode="&#xec;" glyph-name="igrave" d="M221 1120H801V225H1165V0H143V225H508V895H221V1120ZM481 1638L764 1262H567L199 1638H481Z" />
<glyph unicode="&#xed;" glyph-name="iacute" d="M221 1120H801V225H1165V0H143V225H508V895H221V1120ZM752 1638H1034L666 1262H469L752 1638Z" />
<glyph unicode="&#xee;" glyph-name="icircumflex" d="M221 1120H801V225H1165V0H143V225H508V895H221V1120ZM496 1638H737L993 1262H815L616 1487L418 1262H240L496 1638Z" />
<glyph unicode="&#xef;" glyph-name="idieresis" d="M221 1120H801V225H1165V0H143V225H508V895H221V1120ZM696 1585H932V1339H696V1585ZM301 1585H537V1339H301V1585Z" />
<glyph unicode="&#xf0;" glyph-name="eth" d="M811 760Q762 787 713 801T616 815Q511 815 450 743T389 545Q389 387 448 298T612 209Q721 209 778 299T836 563Q836 608 830 657T811 760ZM940 1100Q1040 963 1083 837T1126 559Q1126 283 990 127T612 -29Q376 -29
237 124T98 537Q98 773 228 913T575 1053Q615 1053 646 1047T705 1028L545 1247L233 1128L178 1245L461 1354L303 1556H596L688 1440L985 1567L1051 1444L774 1327L940 1100Z" />
<glyph unicode="&#xf1;" glyph-name="ntilde" d="M1071 727V0H780V682Q780 804 746 856T633 909Q554 909 509 838T463 641V0H172V1120H463V952Q494 1045 569 1096T750 1147Q909 1147 990 1042T1071 727ZM618 1364L563 1401Q560 1403 551 1409Q508 1438 481 1438Q445
1438 427 1407T408 1317V1309H268Q268 1445 319 1519T465 1593Q501 1593 537 1580T614 1536L676 1493Q697 1478 715 1470T750 1462Q786 1462 805 1493T825 1583V1591H965Q965 1455 914 1381T768 1307Q732 1307 699 1319T618 1364Z" />
<glyph unicode="&#xf2;" glyph-name="ograve" d="M733 1640L1016 1264H819L451 1640H733ZM616 909Q511 909 451 817T391 559Q391 394 451 302T616 209Q722 209 782 301T842 559Q842 724 782 816T616 909ZM98 559Q98 830 238 988T616 1147Q854 1147 994 989T1135
559Q1135 288 995 130T616 -29Q379 -29 239 129T98 559Z" />
<glyph unicode="&#xf3;" glyph-name="oacute" d="M754 1639H1036L668 1263H471L754 1639ZM616 909Q511 909 451 817T391 559Q391 394 451 302T616 209Q722 209 782 301T842 559Q842 724 782 816T616 909ZM98 559Q98 830 238 988T616 1147Q854 1147 994 989T1135
559Q1135 288 995 130T616 -29Q379 -29 239 129T98 559Z" />
<glyph unicode="&#xf4;" glyph-name="ocircumflex" d="M496 1639H737L993 1263H815L616 1488L418 1263H240L496 1639ZM616 909Q511 909 451 817T391 559Q391 394 451 302T616 209Q722 209 782 301T842 559Q842 724 782 816T616 909ZM98 559Q98 830 238 988T616
1147Q854 1147 994 989T1135 559Q1135 288 995 130T616 -29Q379 -29 239 129T98 559Z" />
<glyph unicode="&#xf5;" glyph-name="otilde" d="M618 1587L563 1624Q560 1626 551 1632Q508 1661 481 1661Q445 1661 427 1630T408 1540V1532H268Q268 1668 319 1742T465 1816Q501 1816 537 1803T614 1759L676 1716Q697 1701 715 1693T750 1685Q786 1685 805
1716T825 1806V1814H965Q965 1678 914 1604T768 1530Q732 1530 699 1542T618 1587ZM616 909Q511 909 451 817T391 559Q391 394 451 302T616 209Q722 209 782 301T842 559Q842 724 782 816T616 909ZM98 559Q98 830 238 988T616 1147Q854 1147 994 989T1135 559Q1135
288 995 130T616 -29Q379 -29 239 129T98 559Z" />
<glyph unicode="&#xf6;" glyph-name="odieresis" d="M696 1817H932V1571H696V1817ZM301 1817H537V1571H301V1817ZM616 909Q511 909 451 817T391 559Q391 394 451 302T616 209Q722 209 782 301T842 559Q842 724 782 816T616 909ZM98 559Q98 830 238 988T616 1147Q854
1147 994 989T1135 559Q1135 288 995 130T616 -29Q379 -29 239 129T98 559Z" />
<glyph unicode="&#xf7;" glyph-name="divide" d="M461 1198H770V889H461V1198ZM461 395H770V86H461V395ZM66 762H1165V524H66V762Z" />
<glyph unicode="&#xf8;" glyph-name="oslash" d="M831 675L483 262Q514 235 547 222T618 209Q722 209 782 302T842 559Q842 588 840 617T831 675ZM399 449L745 860Q719 885 688 897T618 909Q512 909 452 817T391 559Q391 525 393 499T399 449ZM188 199Q143 272
121 361T98 559Q98 830 238 988T616 1147Q701 1147 774 1126T915 1059L1063 1235L1202 1114L1042 926Q1088 850 1111 758T1135 559Q1135 288 995 130T616 -29Q533 -29 458 -7T315 61L164 -117L25 2L188 199Z" />
<glyph unicode="&#xf9;" glyph-name="ugrave" d="M160 391V1120H453V436Q453 315 487 263T600 211Q679 211 723 281T768 477V1120H1061V0H768V166Q737 73 663 22T483 -29Q323 -29 242 77T160 391ZM481 1638L764 1262H567L199 1638H481Z" />
<glyph unicode="&#xfa;" glyph-name="uacute" d="M160 391V1120H453V436Q453 315 487 263T600 211Q679 211 723 281T768 477V1120H1061V0H768V166Q737 73 663 22T483 -29Q323 -29 242 77T160 391ZM752 1638H1034L666 1262H469L752 1638Z" />
<glyph unicode="&#xfb;" glyph-name="ucircumflex" d="M160 391V1120H453V436Q453 315 487 263T600 211Q679 211 723 281T768 477V1120H1061V0H768V166Q737 73 663 22T483 -29Q323 -29 242 77T160 391ZM496 1638H737L993 1262H815L616 1487L418 1262H240L496 1638Z" />
<glyph unicode="&#xfc;" glyph-name="udieresis" d="M160 391V1120H453V436Q453 315 487 263T600 211Q679 211 723 281T768 477V1120H1061V0H768V166Q737 73 663 22T483 -29Q323 -29 242 77T160 391ZM696 1585H932V1339H696V1585ZM301 1585H537V1339H301V1585Z" />
<glyph unicode="&#xfd;" glyph-name="yacute" d="M711 -121Q652 -279 570 -351T369 -424H127V-201H246Q336 -201 378 -171T463 -29L485 31L59 1120H367L623 393L868 1120H1176L711 -121ZM752 1638H1034L666 1262H469L752 1638Z" />
<glyph unicode="&#xfe;" glyph-name="thorn" d="M442 158V-426H150V1556H442V952Q488 1049 563 1098T739 1147Q931 1147 1037 993T1143 559Q1143 275 1036 123T729 -29Q639 -29 568 17T442 158ZM850 561Q850 723 796 815T647 907Q552 907 497 815T442 561Q442
399 497 307T647 215Q742 215 796 307T850 561Z" />
<glyph unicode="&#xff;" glyph-name="ydieresis" d="M711 -121Q652 -279 570 -351T369 -424H127V-201H246Q336 -201 378 -171T463 -29L485 31L59 1120H367L623 393L868 1120H1176L711 -121ZM696 1585H932V1339H696V1585ZM301 1585H537V1339H301V1585Z" />
<glyph unicode="&#x100;" glyph-name="Amacron" d="M301 1870H932V1682H301V1870ZM616 1223L477 612H756L616 1223ZM436 1493H797L1200 0H905L813 369H418L328 0H33L436 1493Z" />
<glyph unicode="&#x101;" glyph-name="amacron" d="M301 1556H932V1368H301V1556ZM700 526Q536 526 471 484T406 340Q406 264 451 219T573 174Q689 174 753 261T817 506V526H700ZM1108 639V0H817V125Q764 51 681 11T498 -29Q307 -29 201 72T94 354Q94 550 221
643T614 737H817V786Q817 857 766 893T614 930Q509 930 411 904T205 819V1069Q302 1109 402 1128T614 1147Q887 1147 997 1036T1108 639Z" />
<glyph unicode="&#x102;" glyph-name="Abreve" d="M616 1223L477 612H756L616 1223ZM436 1493H797L1200 0H905L813 369H418L328 0H33L436 1493ZM281 1899H422Q442 1839 491 1809T616 1778Q693 1778 741 1808T809 1899H952Q937 1770 851 1703T616 1635Q469 1635
383 1702T281 1899Z" />
<glyph unicode="&#x103;" glyph-name="abreve" d="M700 526Q536 526 471 484T406 340Q406 264 451 219T573 174Q689 174 753 261T817 506V526H700ZM1108 639V0H817V125Q764 51 681 11T498 -29Q307 -29 201 72T94 354Q94 550 221 643T614 737H817V786Q817 857 766
893T614 930Q509 930 411 904T205 819V1069Q302 1109 402 1128T614 1147Q887 1147 997 1036T1108 639ZM281 1606H422Q433 1537 483 1500T616 1462Q699 1462 748 1499T809 1606H952Q946 1462 860 1386T616 1309Q460 1309 374 1385T281 1606Z" />
<glyph unicode="&#x104;" glyph-name="Aogonek" d="M912 0H1053Q1000 -71 982 -106T963 -166Q963 -205 993 -229T1074 -254Q1112 -254 1150 -247T1229 -223V-379Q1175 -390 1128 -395T1039 -401Q925 -401 863 -355T801 -223Q801 -170 828 -116T912 0ZM616 1223L477
612H756L616 1223ZM436 1493H797L1200 0H905L813 369H418L328 0H33L436 1493Z" />
<glyph unicode="&#x105;" glyph-name="aogonek" d="M815 0H956Q903 -71 885 -106T866 -166Q866 -205 896 -229T977 -254Q1015 -254 1053 -247T1132 -223V-379Q1078 -390 1031 -395T942 -401Q828 -401 766 -355T704 -223Q704 -170 731 -116T815 0ZM700 526Q536
526 471 484T406 340Q406 264 451 219T573 174Q689 174 753 261T817 506V526H700ZM1108 639V0H817V125Q764 51 681 11T498 -29Q307 -29 201 72T94 354Q94 550 221 643T614 737H817V786Q817 857 766 893T614 930Q509 930 411 904T205 819V1069Q302 1109 402 1128T614
1147Q887 1147 997 1036T1108 639Z" />
<glyph unicode="&#x106;" glyph-name="Cacute" d="M1081 43Q1011 7 934 -11T772 -29Q470 -29 311 170T152 745Q152 1122 311 1321T772 1520Q857 1520 935 1502T1081 1448V1120Q1005 1190 934 1222T786 1255Q624 1255 542 1127T459 745Q459 493 541 365T786 236Q862
236 933 268T1081 371V43ZM805 1899H1089L803 1635H606L805 1899Z" />
<glyph unicode="&#x107;" glyph-name="cacute" d="M1061 57Q987 14 902 -7T719 -29Q460 -29 314 127T168 559Q168 836 315 992T721 1149Q811 1149 894 1128T1061 1063V795Q997 850 921 879T762 909Q619 909 542 818T465 559Q465 391 542 301T762 211Q847 211 921
239T1061 326V57ZM854 1638H1136L768 1262H571L854 1638Z" />
<glyph unicode="&#x108;" glyph-name="Ccircumflex" d="M617 1899H926L1149 1635H971L772 1796L574 1635H396L617 1899ZM1081 43Q1011 7 934 -11T772 -29Q470 -29 311 170T152 745Q152 1122 311 1321T772 1520Q857 1520 935 1502T1081 1448V1120Q1005 1190 934
1222T786 1255Q624 1255 542 1127T459 745Q459 493 541 365T786 236Q862 236 933 268T1081 371V43Z" />
<glyph unicode="&#x109;" glyph-name="ccircumflex" d="M601 1638H842L1098 1262H920L721 1487L523 1262H345L601 1638ZM1061 57Q987 14 902 -7T719 -29Q460 -29 314 127T168 559Q168 836 315 992T721 1149Q811 1149 894 1128T1061 1063V795Q997 850 921 879T762
909Q619 909 542 818T465 559Q465 391 542 301T762 211Q847 211 921 239T1061 326V57Z" />
<glyph unicode="&#x10a;" glyph-name="Cdotaccent" d="M1081 43Q1011 7 934 -11T772 -29Q470 -29 311 170T152 745Q152 1122 311 1321T772 1520Q857 1520 935 1502T1081 1448V1120Q1005 1190 934 1222T786 1255Q624 1255 542 1127T459 745Q459 493 541 365T786
236Q862 236 933 268T1081 371V43ZM579 1899H854V1653H579V1899Z" />
<glyph unicode="&#x10b;" glyph-name="cdotaccent" d="M1061 57Q987 14 902 -7T719 -29Q460 -29 314 127T168 559Q168 836 315 992T721 1149Q811 1149 894 1128T1061 1063V795Q997 850 921 879T762 909Q619 909 542 818T465 559Q465 391 542 301T762 211Q847 211
921 239T1061 326V57ZM554 1585H829V1339H554V1585Z" />
<glyph unicode="&#x10c;" glyph-name="Ccaron" d="M1081 43Q1011 7 934 -11T772 -29Q470 -29 311 170T152 745Q152 1122 311 1321T772 1520Q857 1520 935 1502T1081 1448V1120Q1005 1190 934 1222T786 1255Q624 1255 542 1127T459 745Q459 493 541 365T786 236Q862
236 933 268T1081 371V43ZM598 1635L377 1899H555L753 1737L952 1899H1130L907 1635H598Z" />
<glyph unicode="&#x10d;" glyph-name="ccaron" d="M1061 57Q987 14 902 -7T719 -29Q460 -29 314 127T168 559Q168 836 315 992T721 1149Q811 1149 894 1128T1061 1063V795Q997 850 921 879T762 909Q619 909 542 818T465 559Q465 391 542 301T762 211Q847 211 921
239T1061 326V57ZM598 1262L342 1638H520L718 1411L917 1638H1095L839 1262H598Z" />
<glyph unicode="&#x10e;" glyph-name="Dcaron" d="M432 1227V266H512Q686 266 760 375T834 748Q834 1009 760 1118T512 1227H432ZM137 1493H453Q819 1493 980 1319T1141 748Q1141 351 980 176T453 0H137V1493ZM448 1653L227 1917H405L603 1755L802 1917H980L757
1653H448Z" />
<glyph unicode="&#x10f;" glyph-name="dcaron" d="M1168 1555H1456L1292 1172H1090L1168 1555ZM791 961V1556H1083V0H791V166Q744 69 670 20T494 -29Q302 -29 196 125T90 559Q90 843 197 995T504 1147Q594 1147 665 1101T791 961ZM383 557Q383 395 437 303T586
211Q681 211 736 303T791 557Q791 719 736 811T586 903Q491 903 437 811T383 557Z" />
<glyph unicode="&#x110;" glyph-name="Dcroat" d="M432 1227V901H643V664H432V266H512Q686 266 760 375T834 748Q834 1009 760 1118T512 1227H432ZM137 1493H453Q819 1493 980 1319T1141 748Q1141 351 980 176T453 0H137V664H0V901H137V1493Z" />
<glyph unicode="&#x111;" glyph-name="" d="M791 961V1251H485V1440H791V1556H1083V1440H1229V1251H1083V0H791V166Q744 69 670 20T494 -29Q302 -29 196 125T90 559Q90 843 197 995T504 1147Q594 1147 665 1101T791 961ZM383 557Q383 395 437 303T586 211Q681
211 736 303T791 557Q791 719 736 811T586 903Q491 903 437 811T383 557Z" />
<glyph unicode="&#x112;" glyph-name="Emacron" d="M332 1870H963V1682H332V1870ZM1098 0H168V1493H1098V1233H463V911H1038V651H463V260H1098V0Z" />
<glyph unicode="&#x113;" glyph-name="emacron" d="M340 1556H971V1368H340V1556ZM1102 55Q1000 13 894 -8T670 -29Q389 -29 241 121T92 555Q92 829 235 988T625 1147Q874 1147 1011 1000T1149 584V465H390Q391 333 468 268T698 203Q799 203 897 232T1102 324V55ZM854
685Q852 801 795 860T625 920Q524 920 464 859T393 684L854 685Z" />
<glyph unicode="&#x114;" glyph-name="Ebreve" d="M1098 0H168V1493H1098V1233H463V911H1038V651H463V260H1098V0ZM312 1899H453Q473 1839 522 1809T647 1778Q724 1778 772 1808T840 1899H983Q968 1770 882 1703T647 1635Q500 1635 414 1702T312 1899Z" />
<glyph unicode="&#x115;" glyph-name="ebreve" d="M1102 55Q1000 13 894 -8T670 -29Q389 -29 241 121T92 555Q92 829 235 988T625 1147Q874 1147 1011 1000T1149 584V465H390Q391 333 468 268T698 203Q799 203 897 232T1102 324V55ZM854 685Q852 801 795 860T625
920Q524 920 464 859T393 684L854 685ZM320 1606H461Q472 1537 522 1500T655 1462Q738 1462 787 1499T848 1606H991Q985 1462 899 1386T655 1309Q499 1309 413 1385T320 1606Z" />
<glyph unicode="&#x116;" glyph-name="Edotaccent" d="M1098 0H168V1493H1098V1233H463V911H1038V651H463V260H1098V0ZM510 1899H785V1653H510V1899Z" />
<glyph unicode="&#x117;" glyph-name="edotaccent" d="M1102 55Q1000 13 894 -8T670 -29Q389 -29 241 121T92 555Q92 829 235 988T625 1147Q874 1147 1011 1000T1149 584V465H390Q391 333 468 268T698 203Q799 203 897 232T1102 324V55ZM854 685Q852 801 795 860T625
920Q524 920 464 859T393 684L854 685ZM518 1585H793V1339H518V1585Z" />
<glyph unicode="&#x118;" glyph-name="Eogonek" d="M782 0H923Q870 -71 852 -106T833 -166Q833 -205 863 -229T944 -254Q982 -254 1020 -247T1099 -223V-379Q1045 -390 998 -395T909 -401Q795 -401 733 -355T671 -223Q671 -170 698 -116T782 0ZM1098 0H168V1493H1098V1233H463V911H1038V651H463V260H1098V0Z"
/>
<glyph unicode="&#x119;" glyph-name="eogonek" d="M788 0H929Q876 -71 858 -106T839 -166Q839 -205 869 -229T950 -254Q988 -254 1026 -247T1105 -223V-379Q1051 -390 1004 -395T915 -401Q801 -401 739 -355T677 -223Q677 -170 704 -116T788 0ZM1102 55Q1000
13 894 -8T670 -29Q389 -29 241 121T92 555Q92 829 235 988T625 1147Q874 1147 1011 1000T1149 584V465H390Q391 333 468 268T698 203Q799 203 897 232T1102 324V55ZM854 685Q852 801 795 860T625 920Q524 920 464 859T393 684L854 685Z" />
<glyph unicode="&#x11a;" glyph-name="Ecaron" d="M1098 0H168V1493H1098V1233H463V911H1038V651H463V260H1098V0ZM514 1635L293 1899H471L669 1737L868 1899H1046L823 1635H514Z" />
<glyph unicode="&#x11b;" glyph-name="ecaron" d="M1102 55Q1000 13 894 -8T670 -29Q389 -29 241 121T92 555Q92 829 235 988T625 1147Q874 1147 1011 1000T1149 584V465H390Q391 333 468 268T698 203Q799 203 897 232T1102 324V55ZM854 685Q852 801 795 860T625
920Q524 920 464 859T393 684L854 685ZM513 1267L257 1643H435L633 1416L832 1643H1010L754 1267H513Z" />
<glyph unicode="&#x11c;" glyph-name="Gcircumflex" d="M582 1899H891L1114 1635H936L737 1796L539 1635H361L582 1899ZM872 270V555H670V803H1130V119Q1045 46 943 9T723 -29Q433 -29 275 172T117 745Q117 1122 276 1321T737 1520Q827 1520 914 1495T1077 1421V1094Q1015
1174 935 1214T758 1255Q590 1255 507 1129T424 745Q424 496 504 366T737 236Q783 236 817 244T872 270Z" />
<glyph unicode="&#x11d;" glyph-name="gcircumflex" d="M732 1638H973L1229 1262H1051L852 1487L654 1262H476L732 1638ZM803 578Q803 728 746 818T596 909Q504 909 448 819T391 578Q391 426 447 336T596 246Q689 246 746 336T803 578ZM1096 84Q1096 -185 975
-304T580 -424Q488 -424 398 -411T215 -369V-100Q298 -146 384 -168T561 -190Q685 -190 744 -132T803 51V172Q760 92 689 53T516 14Q324 14 211 164T98 571Q98 837 211 993T514 1149Q610 1149 685 1104T803 977V1120H1096V84Z" />
<glyph unicode="&#x11e;" glyph-name="Gbreve" d="M872 270V555H670V803H1130V119Q1045 46 943 9T723 -29Q433 -29 275 172T117 745Q117 1122 276 1321T737 1520Q827 1520 914 1495T1077 1421V1094Q1015 1174 935 1214T758 1255Q590 1255 507 1129T424 745Q424
496 504 366T737 236Q783 236 817 244T872 270ZM331 1899H472Q492 1839 541 1809T666 1778Q743 1778 791 1808T859 1899H1002Q987 1770 901 1703T666 1635Q519 1635 433 1702T331 1899Z" />
<glyph unicode="&#x11f;" glyph-name="gbreve" d="M803 578Q803 728 746 818T596 909Q504 909 448 819T391 578Q391 426 447 336T596 246Q689 246 746 336T803 578ZM1096 84Q1096 -185 975 -304T580 -424Q488 -424 398 -411T215 -369V-100Q298 -146 384 -168T561
-190Q685 -190 744 -132T803 51V172Q760 92 689 53T516 14Q324 14 211 164T98 571Q98 837 211 993T514 1149Q610 1149 685 1104T803 977V1120H1096V84ZM281 1606H422Q433 1537 483 1500T616 1462Q699 1462 748 1499T809 1606H952Q946 1462 860 1386T616 1309Q460
1309 374 1385T281 1606Z" />
<glyph unicode="&#x120;" glyph-name="Gdotaccent" d="M872 270V555H670V803H1130V119Q1045 46 943 9T723 -29Q433 -29 275 172T117 745Q117 1122 276 1321T737 1520Q827 1520 914 1495T1077 1421V1094Q1015 1174 935 1214T758 1255Q590 1255 507 1129T424 745Q424
496 504 366T737 236Q783 236 817 244T872 270ZM529 1899H804V1653H529V1899Z" />
<glyph unicode="&#x121;" glyph-name="gdotaccent" d="M803 578Q803 728 746 818T596 909Q504 909 448 819T391 578Q391 426 447 336T596 246Q689 246 746 336T803 578ZM1096 84Q1096 -185 975 -304T580 -424Q488 -424 398 -411T215 -369V-100Q298 -146 384 -168T561
-190Q685 -190 744 -132T803 51V172Q760 92 689 53T516 14Q324 14 211 164T98 571Q98 837 211 993T514 1149Q610 1149 685 1104T803 977V1120H1096V84ZM479 1585H754V1339H479V1585Z" />
<glyph unicode="&#x122;" glyph-name="Gcommaaccent" d="M627 -187H909L732 -493H538L627 -187ZM872 270V555H670V803H1130V119Q1045 46 943 9T723 -29Q433 -29 275 172T117 745Q117 1122 276 1321T737 1520Q827 1520 914 1495T1077 1421V1094Q1015 1174 935 1214T758
1255Q590 1255 507 1129T424 745Q424 496 504 366T737 236Q783 236 817 244T872 270Z" />
<glyph unicode="&#x123;" glyph-name="gcommaaccent" d="M737 1259H455L632 1565H826L737 1259ZM803 578Q803 728 746 818T596 909Q504 909 448 819T391 578Q391 426 447 336T596 246Q689 246 746 336T803 578ZM1096 84Q1096 -185 975 -304T580 -424Q488 -424
398 -411T215 -369V-100Q298 -146 384 -168T561 -190Q685 -190 744 -132T803 51V172Q760 92 689 53T516 14Q324 14 211 164T98 571Q98 837 211 993T514 1149Q610 1149 685 1104T803 977V1120H1096V84Z" />
<glyph unicode="&#x124;" glyph-name="Hcircumflex" d="M461 1899H770L993 1635H815L616 1796L418 1635H240L461 1899ZM137 1493H432V924H801V1493H1096V0H801V664H432V0H137V1493Z" />
<glyph unicode="&#x125;" glyph-name="hcircumflex" d="M160 1899H469L692 1635H514L315 1796L117 1635H-61L160 1899ZM1071 727V0H780V682Q780 803 746 855T633 907Q553 907 508 837T463 641V0H172V1556H463V952Q494 1045 569 1096T750 1147Q909 1147 990 1042T1071
727Z" />
<glyph unicode="&#x126;" glyph-name="Hbar" d="M137 1493H432V1269H801V1493H1095V1269H1230V1105H1095V0H801V664H432V0H137V1105H3V1269H137V1493ZM432 1105V924H801V1105H432Z" />
<glyph unicode="&#x127;" glyph-name="hbar" d="M1071 727V0H780V682Q780 803 746 855T633 907Q553 907 508 836Q463 766 463 641V0H172V1270H12V1434H172V1556H463V1434Q602 1434 740 1434V1270H463V952Q494 1045 569 1096T750 1147Q909 1147 990 1042Q1071 936
1071 727Z" />
<glyph unicode="&#x128;" glyph-name="Itilde" d="M618 1684L564 1718Q559 1721 552 1725Q507 1751 479 1751Q448 1751 428 1721T408 1641V1635H268V1665Q268 1771 322 1836T465 1901Q501 1901 538 1889T614 1852L674 1813Q695 1799 714 1792T750 1784Q786 1784
805 1814T825 1901H965Q965 1896 964 1886T963 1870Q963 1764 910 1700T768 1635Q731 1635 696 1646T618 1684ZM172 1233V1493H1061V1233H764V260H1061V0H172V260H469V1233H172Z" />
<glyph unicode="&#x129;" glyph-name="itilde" d="M618 1364L563 1401Q560 1403 551 1409Q508 1438 481 1438Q445 1438 427 1407T408 1317V1309H268Q268 1445 319 1519T465 1593Q501 1593 537 1580T614 1536L676 1493Q697 1478 715 1470T750 1462Q786 1462 805
1493T825 1583V1591H965Q965 1455 914 1381T768 1307Q732 1307 699 1319T618 1364ZM221 1120H801V225H1165V0H143V225H508V895H221V1120Z" />
<glyph unicode="&#x12a;" glyph-name="Imacron" d="M301 1870H932V1682H301V1870ZM172 1233V1493H1061V1233H764V260H1061V0H172V260H469V1233H172Z" />
<glyph unicode="&#x12b;" glyph-name="imacron" d="M301 1556H932V1368H301V1556ZM221 1120H801V225H1165V0H143V225H508V895H221V1120Z" />
<glyph unicode="&#x12c;" glyph-name="Ibreve" d="M172 1233V1493H1061V1233H764V260H1061V0H172V260H469V1233H172ZM281 1899H422Q442 1839 491 1809T616 1778Q693 1778 741 1808T809 1899H952Q937 1770 851 1703T616 1635Q469 1635 383 1702T281 1899Z" />
<glyph unicode="&#x12d;" glyph-name="ibreve" d="M221 1120H801V225H1165V0H143V225H508V895H221V1120ZM281 1606H422Q433 1537 483 1500T616 1462Q699 1462 748 1499T809 1606H952Q946 1462 860 1386T616 1309Q460 1309 374 1385T281 1606Z" />
<glyph unicode="&#x12e;" glyph-name="Iogonek" d="M172 1233V1493H1061V1233H764V260H1061V0H172V260H469V1233H172ZM623 0H764Q711 -71 693 -106T674 -166Q674 -205 704 -229T785 -254Q823 -254 861 -247T940 -223V-379Q886 -390 839 -395T750 -401Q636 -401
574 -355T512 -223Q512 -170 539 -116T623 0Z" />
<glyph unicode="&#x12f;" glyph-name="iogonek" d="M221 1120H801V225H1165V0H143V225H508V895H221V1120ZM508 1665H801V1323H508V1665ZM660 0H801Q748 -71 730 -106T711 -166Q711 -205 741 -229T822 -254Q860 -254 898 -247T977 -223V-379Q923 -390 876 -395T787
-401Q673 -401 611 -355T549 -223Q549 -170 576 -116T660 0Z" />
<glyph unicode="&#x130;" glyph-name="Idot" d="M172 1233V1493H1061V1233H764V260H1061V0H172V260H469V1233H172ZM479 1899H754V1653H479V1899Z" />
<glyph unicode="&#x131;" glyph-name="dotlessi" d="M221 1120H801V225H1165V0H143V225H508V895H221V1120Z" />
<glyph unicode="&#x132;" glyph-name="IJ" d="M574 77V419Q637 331 708 285T851 239Q936 239 975 297Q1015 355 1015 482V1236H751V1496H1230V482Q1230 209 1147 92Q1063 -26 871 -26Q802 -26 727 0T574 77ZM-9 1233V1493H560V1233H370V260H560V0H-9V260H181V1233H-9Z" />
<glyph unicode="&#x133;" glyph-name="ij" d="M1233 33Q1233 -219 1143 -326T842 -434H526V-209H760Q858 -209 899 -154T940 33V885H643V1110H1233V33ZM1233 1313H940V1655H1233V1313ZM64 1120H469V225H724V0H10V225H265V895H64V1120ZM265 1665H469V1323H265V1665Z" />
<glyph unicode="&#x134;" glyph-name="Jcircumflex" d="M525 1899H834L1057 1635H879L680 1796L482 1635H304L525 1899ZM109 74V416Q195 328 292 282T489 236Q605 236 659 294T713 479V1233H352V1493H1008V479Q1008 206 894 89T516 -29Q421 -29 318 -3T109 74Z" />
<glyph unicode="&#x135;" glyph-name="jcircumflex" d="M496 1638H737L993 1262H815L616 1487L418 1262H240L496 1638ZM850 43Q850 -209 760 -316T459 -424H143V-199H377Q475 -199 516 -144T557 43V895H260V1120H850V43Z" />
<glyph unicode="&#x136;" glyph-name="Kcommaaccent" d="M575 -158H857L680 -464H486L575 -158ZM117 1493H412V903L874 1493H1208L737 905L1225 0H897L543 672L412 506V0H117V1493Z" />
<glyph unicode="&#x137;" glyph-name="kcommaaccent" d="M589 -158H871L694 -464H500L589 -158ZM174 1556H467V739L819 1120H1174L750 702L1198 0H874L567 524L467 428V0H174V1556Z" />
<glyph unicode="&#x138;" glyph-name="kgreenlandic" d="M174 1120H467V739L819 1120H1174L750 702L1198 0H874L567 524L467 428V0H174V1120Z" />
<glyph unicode="&#x139;" glyph-name="Lacute" d="M669 1900H953L667 1636H470L669 1900ZM225 0V1493H520V260H1151V0H225Z" />
<glyph unicode="&#x13a;" glyph-name="lacute" d="M669 1900H953L667 1636H470L669 1900ZM387 467V1331H90V1556H680V467Q680 335 721 280T860 225H1094V0H778Q569 0 478 108T387 467Z" />
<glyph unicode="&#x13b;" glyph-name="Lcommaaccent" d="M591 -158H873L696 -464H502L591 -158ZM225 0V1493H520V260H1151V0H225Z" />
<glyph unicode="&#x13c;" glyph-name="lcommaaccent" d="M465 -158H747L570 -464H376L465 -158ZM387 467V1331H90V1556H680V467Q680 335 721 280T860 225H1094V0H778Q569 0 478 108T387 467Z" />
<glyph unicode="&#x13d;" glyph-name="Lcaron" d="M869 1493H1151L990 1117H793L869 1493ZM225 0V1493H520V260H1151V0H225Z" />
<glyph unicode="&#x13e;" glyph-name="lcaron" d="M908 1556H1190L1029 1180H832L908 1556ZM387 467V1331H90V1556H680V467Q680 335 721 280T860 225H1094V0H778Q569 0 478 108T387 467Z" />
<glyph unicode="&#x13f;" glyph-name="Ldot" d="M837 1067H1170V702H837V1067ZM225 0V1493H520V260H1151V0H225Z" />
<glyph unicode="&#x140;" glyph-name="ldot" d="M890 1067H1223V702H890V1067ZM387 467V1331H90V1556H680V467Q680 335 721 280T860 225H1094V0H778Q569 0 478 108T387 467Z" />
<glyph unicode="&#x141;" glyph-name="Lslash" d="M225 0V537L74 426L-39 580L225 768V1493H520V973L795 1167L907 1014L520 741V260H1151V0H225Z" />
<glyph unicode="&#x142;" glyph-name="lslash" d="M410 467V633L137 438L37 600L410 864V1331H115V1556H702V1071L997 1280L1100 1120L702 840V467Q702 335 743 280T883 225H1116V0H801Q592 0 501 108T410 467Z" />
<glyph unicode="&#x143;" glyph-name="Nacute" d="M699 1900H983L697 1636H500L699 1900ZM119 1493H436L852 408V1493H1112V0H797L379 1085V0H119V1493Z" />
<glyph unicode="&#x144;" glyph-name="nacute" d="M1006 1645H1288L920 1269H723L1006 1645ZM1071 727V0H780V682Q780 804 746 856T633 909Q554 909 509 838T463 641V0H172V1120H463V952Q494 1045 569 1096T750 1147Q909 1147 990 1042T1071 727Z" />
<glyph unicode="&#x145;" glyph-name="Ncommaaccent" d="M519 -158H801L624 -464H430L519 -158ZM119 1493H436L852 408V1493H1112V0H797L379 1085V0H119V1493Z" />
<glyph unicode="&#x146;" glyph-name="ncommaaccent" d="M525 -158H807L630 -464H436L525 -158ZM1071 727V0H780V682Q780 804 746 856T633 909Q554 909 509 838T463 641V0H172V1120H463V952Q494 1045 569 1096T750 1147Q909 1147 990 1042T1071 727Z" />
<glyph unicode="&#x147;" glyph-name="Ncaron" d="M119 1493H436L852 408V1493H1112V0H797L379 1085V0H119V1493ZM502 1635L281 1899H459L657 1737L856 1899H1034L811 1635H502Z" />
<glyph unicode="&#x148;" glyph-name="ncaron" d="M1071 727V0H780V682Q780 804 746 856T633 909Q554 909 509 838T463 641V0H172V1120H463V952Q494 1045 569 1096T750 1147Q909 1147 990 1042T1071 727ZM532 1262L276 1638H454L652 1411L851 1638H1029L773 1262H532Z" />
<glyph unicode="&#x149;" glyph-name="napostrophe" d="M1230 727V0H939V682Q939 804 905 856T792 909Q713 909 668 838T622 641V0H331V1120H622V952Q653 1045 728 1096T909 1147Q1068 1147 1149 1042T1230 727ZM-12 1556H302V1286L105 903H-110L-12 1286V1556Z" />
<glyph unicode="&#x14a;" glyph-name="Eng" d="M1125 942V58Q1125 -208 1033 -318Q941 -426 733 -426H612V-199H649Q749 -199 790 -144T831 44V1015Q831 1144 784 1199T631 1255Q522 1255 463 1180Q401 1102 401 972V0H106V1493H401V1253Q438 1381 527 1451T743
1522Q932 1522 1028 1377T1125 942Z" />
<glyph unicode="&#x14b;" glyph-name="eng" d="M1071 727V43Q1071 -209 980 -316Q890 -424 680 -424H559V-199H598Q698 -199 739 -144T780 43V682Q780 804 746 856Q711 909 633 909Q554 909 508 838Q463 767 463 641V0H172V1120H463V952Q494 1045 569 1096T750
1147Q909 1147 990 1042Q1071 936 1071 727Z" />
<glyph unicode="&#x14c;" glyph-name="Omacron" d="M301 1870H932V1682H301V1870ZM616 1255Q503 1255 451 1135T399 745Q399 477 451 357T616 236Q730 236 782 356T834 745Q834 1014 782 1134T616 1255ZM92 745Q92 1128 224 1324T616 1520Q876 1520 1008 1324T1141
745Q1141 363 1009 167T616 -29Q357 -29 225 167T92 745Z" />
<glyph unicode="&#x14d;" glyph-name="omacron" d="M301 1556H932V1368H301V1556ZM616 909Q511 909 451 817T391 559Q391 394 451 302T616 209Q722 209 782 301T842 559Q842 724 782 816T616 909ZM98 559Q98 830 238 988T616 1147Q854 1147 994 989T1135 559Q1135
288 995 130T616 -29Q379 -29 239 129T98 559Z" />
<glyph unicode="&#x14e;" glyph-name="Obreve" d="M616 1255Q503 1255 451 1135T399 745Q399 477 451 357T616 236Q730 236 782 356T834 745Q834 1014 782 1134T616 1255ZM92 745Q92 1128 224 1324T616 1520Q876 1520 1008 1324T1141 745Q1141 363 1009 167T616
-29Q357 -29 225 167T92 745ZM281 1899H422Q442 1839 491 1809T616 1778Q693 1778 741 1808T809 1899H952Q937 1770 851 1703T616 1635Q469 1635 383 1702T281 1899Z" />
<glyph unicode="&#x14f;" glyph-name="obreve" d="M616 909Q511 909 451 817T391 559Q391 394 451 302T616 209Q722 209 782 301T842 559Q842 724 782 816T616 909ZM98 559Q98 830 238 988T616 1147Q854 1147 994 989T1135 559Q1135 288 995 130T616 -29Q379 -29
239 129T98 559ZM281 1606H422Q433 1537 483 1500T616 1462Q699 1462 748 1499T809 1606H952Q946 1462 860 1386T616 1309Q460 1309 374 1385T281 1606Z" />
<glyph unicode="&#x150;" glyph-name="Ohungarumlaut" d="M616 1255Q503 1255 451 1135T399 745Q399 477 451 357T616 236Q730 236 782 356T834 745Q834 1014 782 1134T616 1255ZM92 745Q92 1128 224 1324T616 1520Q876 1520 1008 1324T1141 745Q1141 363 1009
167T616 -29Q357 -29 225 167T92 745ZM838 1899H1122L836 1635H639L838 1899ZM463 1899H747L461 1635H264L463 1899Z" />
<glyph unicode="&#x151;" glyph-name="ohungarumlaut" d="M616 909Q511 909 451 817T391 559Q391 394 451 302T616 209Q722 209 782 301T842 559Q842 724 782 816T616 909ZM98 559Q98 830 238 988T616 1147Q854 1147 994 989T1135 559Q1135 288 995 130T616 -29Q379
-29 239 129T98 559ZM854 1638H1085L813 1262H639L854 1638ZM492 1638H709L461 1262H297L492 1638Z" />
<glyph unicode="&#x152;" glyph-name="OE" d="M1217 260V0H633Q309 0 189 155T68 745Q68 1181 189 1337T633 1493H1206V1233H874V922H1176V662H874V260H1217ZM569 1233Q446 1233 400 1144T354 745Q354 434 399 347T569 260H621V1233H569Z" />
<glyph unicode="&#x153;" glyph-name="oe" d="M1210 479H760Q760 335 809 260T954 184Q1014 184 1074 213T1194 301V57Q1145 13 1083 -8T936 -29Q838 -29 767 8T649 119Q606 42 540 7T373 -29Q183 -29 99 109T14 559Q14 874 98 1010T373 1147Q472 1147 534 1118T637
1022Q665 1082 730 1114T887 1147Q1064 1147 1137 1028T1210 606V479ZM985 690V725Q985 841 960 887T872 934Q810 934 785 887T760 713V690H985ZM520 559Q520 801 491 867T385 934Q307 934 278 868T248 559Q248 317 277 251T385 184Q462 184 491 251T520 559Z"
/>
<glyph unicode="&#x154;" glyph-name="Racute" d="M669 1900H953L667 1636H470L669 1900ZM807 705Q851 696 883 664T963 537L1233 0H909L729 377Q721 393 708 421Q629 590 522 590H428V0H133V1493H559Q847 1493 972 1391T1098 1059Q1098 905 1023 814T807 705ZM428
1245V838H567Q688 838 740 885T793 1042Q793 1151 741 1198T567 1245H428Z" />
<glyph unicode="&#x155;" glyph-name="racute" d="M906 1645H1188L820 1269H623L906 1645ZM1151 811Q1103 855 1039 877T897 899Q804 899 735 867T627 772Q603 734 594 680T584 516V0H291V1120H584V946Q627 1042 716 1094T924 1147Q984 1147 1041 1133T1151 1090V811Z" />
<glyph unicode="&#x156;" glyph-name="Rcommaaccent" d="M587 -158H869L692 -464H498L587 -158ZM807 705Q851 696 883 664T963 537L1233 0H909L729 377Q721 393 708 421Q629 590 522 590H428V0H133V1493H559Q847 1493 972 1391T1098 1059Q1098 905 1023 814T807
705ZM428 1245V838H567Q688 838 740 885T793 1042Q793 1151 741 1198T567 1245H428Z" />
<glyph unicode="&#x157;" glyph-name="rcommaaccent" d="M597 -158H879L702 -464H508L597 -158ZM1151 811Q1103 855 1039 877T897 899Q804 899 735 867T627 772Q603 734 594 680T584 516V0H291V1120H584V946Q627 1042 716 1094T924 1147Q984 1147 1041 1133T1151
1090V811Z" />
<glyph unicode="&#x158;" glyph-name="Rcaron" d="M807 705Q851 696 883 664T963 537L1233 0H909L729 377Q721 393 708 421Q629 590 522 590H428V0H133V1493H559Q847 1493 972 1391T1098 1059Q1098 905 1023 814T807 705ZM428 1245V838H567Q688 838 740 885T793
1042Q793 1151 741 1198T567 1245H428ZM430 1635L209 1899H387L585 1737L784 1899H962L739 1635H430Z" />
<glyph unicode="&#x159;" glyph-name="rcaron" d="M1151 811Q1103 855 1039 877T897 899Q804 899 735 867T627 772Q603 734 594 680T584 516V0H291V1120H584V946Q627 1042 716 1094T924 1147Q984 1147 1041 1133T1151 1090V811ZM598 1262L342 1638H520L718 1411L917
1638H1095L839 1262H598Z" />
<glyph unicode="&#x15a;" glyph-name="Sacute" d="M699 1900H983L697 1636H500L699 1900ZM510 655Q287 740 208 833T129 1085Q129 1288 259 1404T616 1520Q719 1520 822 1497T1026 1427V1139Q931 1206 833 1241T639 1276Q532 1276 475 1233T418 1110Q418 1048
459 1008T633 918L760 870Q940 804 1025 695T1110 420Q1110 194 977 83T573 -29Q462 -29 351 -3T135 76V381Q253 297 363 256T582 215Q691 215 751 264T811 403Q811 470 771 520T655 600L510 655Z" />
<glyph unicode="&#x15b;" glyph-name="sacute" d="M1006 1645H1288L920 1269H723L1006 1645ZM991 1085V829Q910 881 823 907T647 934Q549 934 499 906T449 821Q449 741 663 691L674 688L758 668Q918 630 992 546T1067 317Q1067 144 954 58T612 -29Q511 -29 405
-12T190 41V297Q287 242 387 213T582 184Q685 184 738 214T791 301Q791 357 754 387T575 451L494 469Q326 507 249 588T172 805Q172 967 289 1057T618 1147Q713 1147 807 1132T991 1085Z" />
<glyph unicode="&#x15c;" glyph-name="Scircumflex" d="M461 1899H770L993 1635H815L616 1796L418 1635H240L461 1899ZM510 655Q287 740 208 833T129 1085Q129 1288 259 1404T616 1520Q719 1520 822 1497T1026 1427V1139Q931 1206 833 1241T639 1276Q532 1276
475 1233T418 1110Q418 1048 459 1008T633 918L760 870Q940 804 1025 695T1110 420Q1110 194 977 83T573 -29Q462 -29 351 -3T135 76V381Q253 297 363 256T582 215Q691 215 751 264T811 403Q811 470 771 520T655 600L510 655Z" />
<glyph unicode="&#x15d;" glyph-name="scircumflex" d="M496 1638H737L993 1262H815L616 1487L418 1262H240L496 1638ZM991 1085V829Q910 881 823 907T647 934Q549 934 499 906T449 821Q449 741 663 691L674 688L758 668Q918 630 992 546T1067 317Q1067 144 954
58T612 -29Q511 -29 405 -12T190 41V297Q287 242 387 213T582 184Q685 184 738 214T791 301Q791 357 754 387T575 451L494 469Q326 507 249 588T172 805Q172 967 289 1057T618 1147Q713 1147 807 1132T991 1085Z" />
<glyph unicode="&#x15e;" glyph-name="Scedilla" d="M707 0Q764 -62 791 -115T819 -215Q819 -310 758 -355T569 -401Q521 -401 471 -395T367 -375V-219Q412 -236 454 -245T532 -254Q590 -254 622 -231T655 -168Q655 -142 634 -101T567 0H707ZM510 655Q287 740
208 833T129 1085Q129 1288 259 1404T616 1520Q719 1520 822 1497T1026 1427V1139Q931 1206 833 1241T639 1276Q532 1276 475 1233T418 1110Q418 1048 459 1008T633 918L760 870Q940 804 1025 695T1110 420Q1110 194 977 83T573 -29Q462 -29 351 -3T135 76V381Q253
297 363 256T582 215Q691 215 751 264T811 403Q811 470 771 520T655 600L510 655Z" />
<glyph unicode="&#x15f;" glyph-name="scedilla" d="M707 0Q764 -62 791 -115T819 -215Q819 -310 758 -355T569 -401Q521 -401 471 -395T367 -375V-219Q412 -236 454 -245T532 -254Q590 -254 622 -231T655 -168Q655 -142 634 -101T567 0H707ZM991 1085V829Q910
881 823 907T647 934Q549 934 499 906T449 821Q449 741 663 691L674 688L758 668Q918 630 992 546T1067 317Q1067 144 954 58T612 -29Q511 -29 405 -12T190 41V297Q287 242 387 213T582 184Q685 184 738 214T791 301Q791 357 754 387T575 451L494 469Q326 507 249
588T172 805Q172 967 289 1057T618 1147Q713 1147 807 1132T991 1085Z" />
<glyph unicode="&#x160;" glyph-name="Scaron" d="M510 655Q287 740 208 833T129 1085Q129 1288 259 1404T616 1520Q719 1520 822 1497T1026 1427V1139Q931 1206 833 1241T639 1276Q532 1276 475 1233T418 1110Q418 1048 459 1008T633 918L760 870Q940 804 1025
695T1110 420Q1110 194 977 83T573 -29Q462 -29 351 -3T135 76V381Q253 297 363 256T582 215Q691 215 751 264T811 403Q811 470 771 520T655 600L510 655ZM461 1635L240 1899H418L616 1737L815 1899H993L770 1635H461Z" />
<glyph unicode="&#x161;" glyph-name="scaron" d="M991 1085V829Q910 881 823 907T647 934Q549 934 499 906T449 821Q449 741 663 691L674 688L758 668Q918 630 992 546T1067 317Q1067 144 954 58T612 -29Q511 -29 405 -12T190 41V297Q287 242 387 213T582 184Q685
184 738 214T791 301Q791 357 754 387T575 451L494 469Q326 507 249 588T172 805Q172 967 289 1057T618 1147Q713 1147 807 1132T991 1085ZM496 1262L240 1638H418L616 1411L815 1638H993L737 1262H496Z" />
<glyph unicode="&#x162;" glyph-name="Tcommaaccent" d="M707 0Q764 -62 791 -115T819 -215Q819 -310 758 -355T569 -401Q521 -401 471 -395T367 -375V-219Q412 -236 454 -245T532 -254Q590 -254 622 -231T655 -168Q655 -142 634 -101T567 0H707ZM764 0H469V1235H90V1493H1143V1235H764V0Z"
/>
<glyph unicode="&#x163;" glyph-name="tcommaaccent" d="M888 0Q945 -62 972 -115T1000 -215Q1000 -310 939 -355T750 -401Q702 -401 652 -395T548 -375V-219Q593 -236 635 -245T713 -254Q771 -254 803 -231T836 -168Q836 -142 815 -101T748 0H888ZM690 1438V1120H1073V895H690V365Q690
290 726 258T848 225H1073V0H827Q575 0 486 80T397 379V895H111V1120H397V1438H690Z" />
<glyph unicode="&#x164;" glyph-name="Tcaron" d="M764 0H469V1235H90V1493H1143V1235H764V0ZM454 1647L233 1911H411L609 1749L808 1911H986L763 1647H454Z" />
<glyph unicode="&#x165;" glyph-name="tcaron" d="M690 1438V1120H1073V895H690V365Q690 290 726 258T848 225H1073V0H827Q575 0 486 80T397 379V895H111V1120H397V1438H690ZM909 1687H1191L1030 1311H833L909 1687Z" />
<glyph unicode="&#x166;" glyph-name="Tbar" d="M764 0H469V538H222V730H469V1235H90V1493H1143V1235H764V730H1011V538H764V0Z" />
<glyph unicode="&#x167;" glyph-name="tbar" d="M690 1438V1120H1073V895H690V753H874V561H690V365Q690 290 726 258Q763 225 848 225H1073V0H827Q575 0 486 80Q397 161 397 379V561H219V753H397V895H111V1120H397V1438H690Z" />
<glyph unicode="&#x168;" glyph-name="Utilde" d="M618 1684L564 1718Q559 1721 552 1725Q507 1751 479 1751Q448 1751 428 1721T408 1641V1635H268V1665Q268 1771 322 1836T465 1901Q501 1901 538 1889T614 1852L674 1813Q695 1799 714 1792T750 1784Q786 1784
805 1814T825 1901H965Q965 1896 964 1886T963 1870Q963 1764 910 1700T768 1635Q731 1635 696 1646T618 1684ZM106 551V1493H401V477Q401 365 458 302T616 238Q717 238 774 301T831 477V1493H1126V551Q1126 247 1005 109T616 -29Q349 -29 228 109T106 551Z" />
<glyph unicode="&#x169;" glyph-name="utilde" d="M618 1364L563 1401Q560 1403 551 1409Q508 1438 481 1438Q445 1438 427 1407T408 1317V1309H268Q268 1445 319 1519T465 1593Q501 1593 537 1580T614 1536L676 1493Q697 1478 715 1470T750 1462Q786 1462 805
1493T825 1583V1591H965Q965 1455 914 1381T768 1307Q732 1307 699 1319T618 1364ZM160 391V1120H453V436Q453 315 487 263T600 211Q679 211 723 281T768 477V1120H1061V0H768V166Q737 73 663 22T483 -29Q323 -29 242 77T160 391Z" />
<glyph unicode="&#x16a;" glyph-name="Umacron" d="M301 1870H932V1682H301V1870ZM106 551V1493H401V477Q401 365 458 302T616 238Q717 238 774 301T831 477V1493H1126V551Q1126 247 1005 109T616 -29Q349 -29 228 109T106 551Z" />
<glyph unicode="&#x16b;" glyph-name="umacron" d="M301 1556H932V1368H301V1556ZM160 391V1120H453V436Q453 315 487 263T600 211Q679 211 723 281T768 477V1120H1061V0H768V166Q737 73 663 22T483 -29Q323 -29 242 77T160 391Z" />
<glyph unicode="&#x16c;" glyph-name="Ubreve" d="M106 551V1493H401V477Q401 365 458 302T616 238Q717 238 774 301T831 477V1493H1126V551Q1126 247 1005 109T616 -29Q349 -29 228 109T106 551ZM281 1899H422Q442 1839 491 1809T616 1778Q693 1778 741 1808T809
1899H952Q937 1770 851 1703T616 1635Q469 1635 383 1702T281 1899Z" />
<glyph unicode="&#x16d;" glyph-name="ubreve" d="M160 391V1120H453V436Q453 315 487 263T600 211Q679 211 723 281T768 477V1120H1061V0H768V166Q737 73 663 22T483 -29Q323 -29 242 77T160 391ZM281 1606H422Q433 1537 483 1500T616 1462Q699 1462 748 1499T809
1606H952Q946 1462 860 1386T616 1309Q460 1309 374 1385T281 1606Z" />
<glyph unicode="&#x16e;" glyph-name="Uring" d="M106 551V1493H401V477Q401 365 458 302T616 238Q717 238 774 301T831 477V1493H1126V551Q1126 247 1005 109T616 -29Q349 -29 228 109T106 551ZM337 1869Q337 1987 420 2070T621 2154Q740 2154 823 2071T906 1869Q906
1751 823 1668T621 1584Q503 1584 420 1667T337 1869ZM490 1869Q490 1814 528 1776T621 1738Q676 1738 714 1776T753 1869Q753 1923 714 1961T621 2000Q567 2000 529 1962T490 1869Z" />
<glyph unicode="&#x16f;" glyph-name="uring" d="M160 391V1120H453V436Q453 315 487 263T600 211Q679 211 723 281T768 477V1120H1061V0H768V166Q737 73 663 22T483 -29Q323 -29 242 77T160 391ZM332 1534Q332 1652 415 1735T616 1819Q735 1819 818 1736T901
1534Q901 1416 818 1333T616 1249Q498 1249 415 1332T332 1534ZM485 1534Q485 1479 523 1441T616 1403Q671 1403 709 1441T748 1534Q748 1588 709 1626T616 1665Q562 1665 524 1627T485 1534Z" />
<glyph unicode="&#x170;" glyph-name="Uhungarumlaut" d="M106 551V1493H401V477Q401 365 458 302T616 238Q717 238 774 301T831 477V1493H1126V551Q1126 247 1005 109T616 -29Q349 -29 228 109T106 551ZM838 1899H1122L836 1635H639L838 1899ZM463 1899H747L461
1635H264L463 1899Z" />
<glyph unicode="&#x171;" glyph-name="uhungarumlaut" d="M160 391V1120H453V436Q453 315 487 263T600 211Q679 211 723 281T768 477V1120H1061V0H768V166Q737 73 663 22T483 -29Q323 -29 242 77T160 391ZM854 1638H1085L813 1262H639L854 1638ZM492 1638H709L461
1262H297L492 1638Z" />
<glyph unicode="&#x172;" glyph-name="Uogonek" d="M106 551V1493H401V477Q401 365 458 302T616 238Q717 238 774 301T831 477V1493H1126V551Q1126 247 1005 109T616 -29Q349 -29 228 109T106 551ZM801 240H942Q889 169 871 134T852 74Q852 35 882 11T963 -14Q1001
-14 1039 -7T1118 17V-139Q1064 -150 1017 -155T928 -161Q814 -161 752 -115T690 17Q690 70 717 124T801 240Z" />
<glyph unicode="&#x173;" glyph-name="uogonek" d="M160 391V1120H453V436Q453 315 487 263T600 211Q679 211 723 281T768 477V1120H1061V0H768V166Q737 73 663 22T483 -29Q323 -29 242 77T160 391ZM911 0H1052Q999 -71 981 -106T962 -166Q962 -205 992 -229T1073
-254Q1111 -254 1149 -247T1228 -223V-379Q1174 -390 1127 -395T1038 -401Q924 -401 862 -355T800 -223Q800 -170 827 -116T911 0Z" />
<glyph unicode="&#x174;" glyph-name="Wcircumflex" d="M461 1906H770L993 1642H815L616 1803L418 1642H240L461 1906ZM0 1493H258L365 397L494 1106H739L889 397L973 1493H1233L1061 0H786L616 784L457 0H184L0 1493Z" />
<glyph unicode="&#x175;" glyph-name="wcircumflex" d="M496 1645H737L993 1269H815L616 1494L418 1269H240L496 1645ZM0 1120H244L377 262L498 827H735L854 262L989 1120H1233L1030 0H752L616 582L481 0H203L0 1120Z" />
<glyph unicode="&#x176;" glyph-name="Ycircumflex" d="M461 1906H770L993 1642H815L616 1803L418 1642H240L461 1906ZM8 1493H326L616 893L907 1493H1225L764 588V0H469V588L8 1493Z" />
<glyph unicode="&#x177;" glyph-name="ycircumflex" d="M497 1645H738L994 1269H816L617 1494L419 1269H241L497 1645ZM711 -121Q652 -279 570 -351T369 -424H127V-201H246Q336 -201 378 -171T463 -29L485 31L59 1120H367L623 393L868 1120H1176L711 -121Z" />
<glyph unicode="&#x178;" glyph-name="Ydieresis" d="M8 1493H326L616 893L907 1493H1225L764 588V0H469V588L8 1493ZM696 1899H932V1653H696V1899ZM301 1899H537V1653H301V1899Z" />
<glyph unicode="&#x179;" glyph-name="Zacute" d="M699 1900H983L697 1636H500L699 1900ZM137 1493H1147V1249L455 260H1161V0H115V244L786 1233H137V1493Z" />
<glyph unicode="&#x17a;" glyph-name="zacute" d="M1006 1645H1288L920 1269H723L1006 1645ZM186 1120H1081V891L492 219H1081V0H162V229L752 901H186V1120Z" />
<glyph unicode="&#x17b;" glyph-name="Zdotaccent" d="M137 1493H1147V1249L455 260H1161V0H115V244L786 1233H137V1493ZM529 1899H804V1653H529V1899Z" />
<glyph unicode="&#x17c;" glyph-name="zdotaccent" d="M186 1120H1081V891L492 219H1081V0H162V229L752 901H186V1120ZM479 1585H754V1339H479V1585Z" />
<glyph unicode="&#x17d;" glyph-name="Zcaron" d="M137 1493H1147V1249L455 260H1161V0H115V244L786 1233H137V1493ZM461 1635L240 1899H418L616 1737L815 1899H993L770 1635H461Z" />
<glyph unicode="&#x17e;" glyph-name="zcaron" d="M186 1120H1081V891L492 219H1081V0H162V229L752 901H186V1120ZM496 1262L240 1638H418L616 1411L815 1638H993L737 1262H496Z" />
<glyph unicode="&#x17f;" glyph-name="longs" d="M739 0H446V895H174V1120H446V1198Q446 1400 530 1478T842 1556H1083V1331H854Q788 1331 765 1307T739 1218V0Z" />
<glyph unicode="&#x180;" glyph-name="uni0180" d="M442 961Q496 1054 567 1100T729 1147Q928 1147 1035 995T1143 559Q1143 279 1037 125T739 -29Q638 -29 563 20T442 166V0H150V1270H12V1434H150V1556H442V1434H740V1270H442V961ZM850 395T850 557T796 811T647
903T497 811T442 557T497 303T647 211T796 303Z" />
<glyph unicode="&#x181;" glyph-name="uni0181" d="M626 678V236H671Q812 236 868 284T925 451Q925 572 866 625T671 678H626ZM626 1260V913H671Q783 913 830 953T878 1085T830 1218T671 1260H626ZM396 1495H671Q920 1495 1045 1401T1171 1118Q1171 974 1097 893T880
799Q1051 782 1137 684T1224 410Q1224 194 1094 97T671 0H341V1216Q275 1216 251 1193T226 1103V1078H0V1137Q0 1339 84 1417T396 1495Z" />
<glyph unicode="&#x182;" glyph-name="uni0182" d="M457 248H578Q723 248 781 297T840 467Q840 588 782 637T578 686H457V248ZM162 1493H1092V1233H457V934H567Q876 934 1011 824T1147 467Q1147 220 1012 110T567 0H162V1493Z" />
<glyph unicode="&#x183;" glyph-name="uni0183" d="M739 -29Q534 -29 442 166V0H150V1556H949V1347H442V961Q550 1147 729 1147Q931 1147 1039 991Q1143 841 1143 559Q1143 279 1037 125T739 -29ZM850 395T850 557T796 811T647 903T497 811T442 557T497 303T647
211T796 303Z" />
<glyph unicode="&#x184;" glyph-name="uni0184" d="M500 248H621Q766 248 824 297T883 467T825 637T621 686H500V248ZM205 0V934L43 1068L500 1493V934H610Q919 934 1054 824T1190 467T1055 110T610 0H205Z" />
<glyph unicode="&#x185;" glyph-name="uni0185" d="M895 395T895 557T841 811T692 903T542 811T487 557T542 303T692 211T841 303ZM487 961Q541 1054 612 1100T774 1147Q973 1147 1080 995T1188 559Q1188 279 1082 125T784 -29Q683 -29 608 20T487 166V0H195V934L45
1068L487 1556V961Z" />
<glyph unicode="&#x186;" glyph-name="uni0186" d="M152 1448Q220 1484 298 1502T461 1520Q763 1520 922 1321T1081 745Q1081 369 922 170T461 -29Q376 -29 299 -11T152 43V371Q228 301 299 269T447 236Q609 236 691 364T774 745Q774 998 692 1126T447 1255Q371
1255 300 1223T152 1120V1448Z" />
<glyph unicode="&#x187;" glyph-name="uni0187" d="M786 236Q934 236 1081 371V43Q941 -29 772 -29Q470 -29 311 170T152 745Q152 1292 477 1456Q604 1520 772 1520Q820 1520 865 1514Q953 1643 1181 1643H1278V1418H1263Q1171 1418 1122 1363Q1081 1317 1081
1176V1120Q935 1255 786 1255Q624 1255 542 1127T459 745Q459 267 748 238Q767 236 786 236Z" />
<glyph unicode="&#x188;" glyph-name="uni0188" d="M762 211Q930 211 1061 326V57Q913 -29 719 -29Q460 -29 314 127T168 559Q168 836 315 992T721 1149Q748 1149 774 1147Q790 1362 862 1448Q952 1556 1162 1556H1283V1331H1244Q1149 1331 1103 1276Q1068 1233
1062 1089L1061 1063V795Q928 909 762 909Q591 909 516 782Q465 697 465 559Q465 291 651 228Q702 211 762 211Z" />
<glyph unicode="&#x189;" glyph-name="uni0189" d="M432 1227V901H643V664H432V266H512Q686 266 760 375T834 748Q834 1009 760 1118T512 1227H432ZM137 1493H453Q819 1493 980 1319T1141 748Q1141 351 980 176T453 0H137V664H0V901H137V1493Z" />
<glyph unicode="&#x18a;" glyph-name="uni018A" d="M282 1206Q253 1206 242 1168Q227 1116 227 1088Q227 1088 227 1064H-28V1141Q-28 1291 20 1361Q95 1470 231 1489Q256 1493 282 1493H518Q884 1493 1045 1319T1206 748Q1206 351 1045 176T518 0H282V1206ZM577
1227V266Q751 266 825 375T899 748Q899 1009 825 1118T577 1227Z" />
<glyph unicode="&#x18b;" glyph-name="uni018B" d="M874 678H678Q542 678 483 625T424 451Q424 332 480 284T678 236H874V678ZM207 1494L1159 1493V0H678Q385 0 255 97T125 410Q125 420 125 429Q128 603 200 684Q206 691 223 713L266 763Q406 910 678 913H874V1260H207V1494Z"
/>
<glyph unicode="&#x18c;" glyph-name="uni018C" d="M554 -29Q362 -29 256 125T150 559Q150 841 254 991Q362 1147 564 1147Q743 1147 851 961V1347H344V1556H1143V0H851V166Q759 -29 554 -29ZM443 719T443 557T497 303T646 211T796 303T851 557T796 811T646 903T497 811Z" />
<glyph unicode="&#x18d;" glyph-name="uni018D" d="M905 53Q1050 -10 1050 -161Q1050 -296 924 -374Q799 -451 575 -451Q476 -451 392 -439Q387 -438 382 -437Q351 -433 230 -403V-188Q242 -192 255 -196Q351 -227 389 -234Q479 -249 560 -249Q664 -249 722 -215L744
-200Q779 -175 779 -131Q779 -29 616 -29Q378 -29 238 129T97 559T237 988T616 1147Q853 1147 993 989T1134 559Q1134 296 994 130Q931 55 905 53ZM616 209Q721 209 781 301T841 559T781 816T616 909Q510 909 450 817T390 559T450 302T616 209Z" />
<glyph unicode="&#x18e;" glyph-name="uni018E" d="M1098 1493V0H168V260H803V651H228V911H803V1233H168V1493H1098Z" />
<glyph unicode="&#x18f;" glyph-name="uni018F" d="M92 745V840H832V845Q832 1035 777 1145T602 1255Q526 1255 455 1223T307 1120V1448Q377 1484 454 1502T616 1520Q876 1520 1008 1324T1141 745Q1141 363 1009 167T616 -29Q357 -29 225 167T92 745ZM405 580Q416
405 468 321T618 236Q718 236 765 324T828 580H405Z" />
<glyph unicode="&#x190;" glyph-name="uni0190" d="M453 805Q312 831 236 915T160 1133Q160 1314 292 1417T660 1520Q752 1520 852 1504T1055 1456V1188Q952 1228 856 1249T676 1270Q566 1270 506 1224T445 1094Q445 1015 505 972T676 928H834V668H676Q548 668
478 606T408 428Q408 334 478 279T668 223Q788 223 897 247T1100 319V45Q1000 9 891 -10T668 -29Q403 -29 264 85T125 416Q125 578 209 677T453 805Z" />
<glyph unicode="&#x191;" glyph-name="uni0191" d="M1125 1233H585V911H1068V651H585V168V43V0Q577 -216 494 -316Q404 -424 194 -424H108V-199Q212 -199 253 -144Q290 -94 290 43V168V1493H1125V1233Z" />
<glyph unicode="&#x192;" glyph-name="florin" d="M798 1218V1120H1142V895H798V0Q792 -217 708 -316Q616 -424 407 -424H91V-199H325Q424 -199 464 -144Q505 -88 505 43V895H233V1120H505V1198Q505 1400 589 1478T901 1556H1142V1331H913Q802 1332 798 1218Z" />
<glyph unicode="&#x193;" glyph-name="uni0193" d="M658 236Q751 236 793 270V555H591V803H1051V119Q879 -29 644 -29Q354 -29 196 172T38 745Q38 1287 358 1453Q487 1520 658 1520Q718 1520 778 1508Q788 1523 798 1535Q888 1643 1098 1643H1195V1418H1180Q1088
1418 1039 1363Q998 1317 998 1176V1094L995 1098Q870 1255 679 1255Q364 1255 346 801Q345 774 345 745Q345 333 557 254Q603 236 658 236Z" />
<glyph unicode="&#x194;" glyph-name="uni0194" d="M431 762L33 1493H354L616 1012L877 1493H1200L802 762Q1010 380 1012 -14Q1014 -285 610 -290T204 -14Q202 335 431 762ZM616 510Q472 243 474 126Q475 0 611 0Q750 0 750 130Q750 279 616 510Z" />
<glyph unicode="&#x195;" glyph-name="uni0195" d="M1221 569Q1225 316 1121 158Q1023 4 863 0L774 -2Q638 -5 570 116Q499 241 498 460L497 727Q493 813 470 855Q443 907 380 907Q316 907 280 836Q244 766 244 641V0H12V1556H244V952Q269 1045 329 1096T474 1147Q601
1147 666 1042Q731 936 731 727L732 460Q734 289 739 279Q767 227 796 231L809 233Q897 246 940 330Q989 424 989 560V936H1221V569Z" />
<glyph unicode="&#x196;" glyph-name="uni0196" d="M470 462Q470 238 580 118Q689 0 894 0H1128V260L942 261Q840 262 802 307Q764 353 764 495V1233H1061V1493H172V1233H469L470 462Z" />
<glyph unicode="&#x197;" glyph-name="uni0197" d="M172 1233V1493H1061V1233H764V730H1011V538H764V260H1061V0H172V260H469V538H222V730H469V1233H172Z" />
<glyph unicode="&#x198;" glyph-name="uni0198" d="M764 1060L640 905L1128 0H800L446 672L315 506V0H20V1493H315V903L571 1230Q744 1451 878 1479Q1008 1505 1149 1392L1213 1341L1073 1165Q996 1226 928 1210Q874 1197 764 1060Z" />
<glyph unicode="&#x199;" glyph-name="uni0199" d="M174 1089Q174 1339 265 1448Q355 1556 565 1556H686V1331H647Q549 1331 506 1276Q465 1223 465 1089H467V739L819 1120H1174L750 702L1198 0H874L567 524L467 428V0H174V964V1089Z" />
<glyph unicode="&#x19a;" glyph-name="uni019A" d="M690 753H874V561H690H680V467Q680 335 721 280T860 225H1094V0H778Q569 0 478 108T387 467V561H219V753H387V1331H90V1556H680V753H690Z" />
<glyph unicode="&#x19b;" glyph-name="uni019B" d="M768 1518L871 1358L641 1195L1153 0H856L601 596L377 0H80L443 965L413 1034L203 885L103 1047L337 1213L190 1556H487L565 1374L768 1518Z" />
<glyph unicode="&#x19c;" glyph-name="uni019C" d="M547 112Q514 41 463 7T338 -27Q193 -27 138 73T82 489V1493H322V401Q322 276 341 234T410 192T480 235T500 401V1493H737V401Q737 278 757 235T827 192T896 234T915 401V1493H1155V0H942V116Q917 50 862 12T739
-27T615 13T547 112Z" />
<glyph unicode="&#x19d;" glyph-name="uni019D" d="M469 0Q460 -284 312 -374Q228 -426 78 -426H30V-201H90Q149 -201 192 -126Q210 -97 210 41V1493H526L942 408V1493H1202V0H888L470 1085V0H469Z" />
<glyph unicode="&#x19e;" glyph-name="uni019E" d="M1071 727V-426H780V682Q780 804 746 856T633 909Q554 909 509 838T463 641V0H172V1120H463V952Q494 1045 569 1096T750 1147Q909 1147 990 1042T1071 727Z" />
<glyph unicode="&#x19f;" glyph-name="uni019F" d="M616 -29Q247 -29 137 362Q92 522 92 745Q92 1373 441 1493Q520 1520 616 1520Q876 1520 1008 1324T1141 745Q1141 105 777 -7Q704 -29 616 -29ZM828 911Q810 1108 752 1187Q701 1255 616 1255Q468 1255 423
1041Q413 991 405 911H828ZM832 651H401Q410 451 451 356Q503 236 616 236Q730 236 782 356Q822 449 832 651Z" />
<glyph unicode="&#x1a0;" glyph-name="Ohorn" d="M828 1238V1379Q895 1329 931 1310T994 1291Q1033 1291 1057 1320T1082 1399Q1082 1438 1075 1476T1051 1555H1207Q1218 1500 1223 1453T1229 1365Q1229 1250 1183 1189T1051 1127Q998 1127 944 1154T828 1238ZM784
1255Q671 1255 619 1135T567 745Q567 477 619 357T784 236Q898 236 950 356T1002 745Q1002 1014 950 1134T784 1255ZM260 745Q260 1128 392 1324T784 1520Q1044 1520 1176 1324T1309 745Q1309 363 1177 167T784 -29Q525 -29 393 167T260 745Z" />
<glyph unicode="&#x1a1;" glyph-name="ohorn" d="M823 850V991Q890 941 926 922T989 903Q1028 903 1052 932T1077 1011Q1077 1050 1070 1088T1046 1167H1202Q1213 1112 1218 1065T1224 977Q1224 862 1178 801T1046 739Q993 739 939 766T823 850ZM783 909Q678 909
618 817T558 559Q558 394 618 302T783 209Q889 209 949 301T1009 559Q1009 724 949 816T783 909ZM265 559Q265 830 405 988T783 1147Q1021 1147 1161 989T1302 559Q1302 288 1162 130T783 -29Q546 -29 406 129T265 559Z" />
<glyph unicode="&#x1a2;" glyph-name="uni01A2" d="M501 -29Q170 -29 70 362Q30 522 30 745Q30 1384 355 1497Q422 1520 501 1520Q710 1520 827 1365L920 1493H1203V0H969V1136L855 976V167Q735 -29 501 -29ZM306 745Q306 394 391 289Q434 236 501 236Q604 236
651 356V1134Q604 1255 501 1255Q360 1255 322 1011Q306 907 306 745Z" />
<glyph unicode="&#x1a3;" glyph-name="uni01A3" d="M18 288T18 559T158 988T536 1147Q691 1147 819 1023L950 1124H1233V-426H999V804L852 690V130Q712 -29 536 -29Q299 -29 159 129ZM536 909Q431 909 371 817T311 559T371 302T536 209Q580 209 640 302V816Q580
909 536 909Z" />
<glyph unicode="&#x1a4;" glyph-name="uni01A4" d="M625 1245V807H644Q789 807 847 856T906 1026T848 1196T644 1245H625ZM330 1206Q301 1206 290 1168Q275 1116 275 1088V1064H20V1141Q20 1291 68 1361Q143 1470 279 1489Q304 1493 330 1493H633Q942 1493 1077
1383T1213 1026T1078 669T633 559H625V0H330V1206Z" />
<glyph unicode="&#x1a5;" glyph-name="uni01A5" d="M850 399T850 561T796 815T647 907T497 815T442 561T497 307T647 215T796 307ZM729 -29Q549 -29 442 158V-426H150L151 1063H150L151 1089Q161 1351 242 1448Q332 1556 542 1556H663V1331H624Q529 1331 483 1276Q448
1233 442 1089H443L442 952Q534 1147 739 1147Q931 1147 1037 993T1143 559Q1143 134 912 13Q831 -29 729 -29Z" />
<glyph unicode="&#x1a6;" glyph-name="uni01A6" d="M807 467Q851 458 884 426Q915 394 963 299L1233 -238H909L729 139Q708 182 708 183Q629 352 522 352H428V0H133V1493H428V1255H559Q847 1255 972 1153T1098 821Q1098 667 1023 576T807 467ZM428 1007V600H567Q688
600 740 647T793 804T741 960T567 1007H428Z" />
<glyph unicode="&#x1a7;" glyph-name="uni01A7" d="M729 655Q729 655 584 600Q508 571 468 521T428 403Q428 314 488 265T657 215Q765 215 875 256T1104 381V76Q1000 24 889 -2T666 -29Q396 -29 263 82T129 420Q129 586 214 695T479 870L606 918Q738 967 779 1007T821
1110Q821 1190 764 1233T600 1276Q504 1276 406 1241T213 1139V1427Q314 1473 417 1496T623 1520Q850 1520 980 1404T1110 1085Q1110 927 1031 834T729 655Z" />
<glyph unicode="&#x1a8;" glyph-name="uni01A8" d="M248 1085Q337 1116 431 1131T621 1147Q833 1147 950 1057T1067 805Q1067 669 990 588T745 469L664 451Q523 417 486 387T448 301Q448 244 501 214T657 184Q751 184 851 213T1049 297V41Q940 6 834 -11T627 -29Q399
-29 286 57T172 317Q172 461 246 545T481 668L565 688L576 691Q790 741 790 821Q790 877 740 905T592 934Q504 934 417 908T248 829V1085Z" />
<glyph unicode="&#x1a9;" glyph-name="uni01A9" d="M499 747L98 260V0H1144V260H438L840 747L438 1233H1144V1493H98V1234L499 747Z" />
<glyph unicode="&#x1aa;" glyph-name="uni01AA" d="M798 987V-86Q798 -150 824 -175Q849 -199 913 -199H1142V-424H901Q673 -424 589 -346T505 -66V987H370Q62 987 59 1263Q55 1545 357 1555V1556H407Q616 1556 708 1448Q783 1359 796 1198H933Q1049 1198 1105
1197V987H937H798ZM496 1197Q485 1247 464 1276Q424 1330 328 1331Q264 1326 265 1273Q266 1197 371 1197Q443 1197 496 1197ZM328 1331H357H328Z" />
<glyph unicode="&#x1ab;" glyph-name="uni01AB" d="M690 1438V1120H1073V895H690V365Q690 290 726 258T848 225H1073V43V0H1072Q1065 -214 980 -316Q890 -424 680 -424H559V-199H598Q696 -199 739 -144Q773 -100 779 1Q566 8 486 80Q397 161 397 379V895H111V1120H397V1438H690Z"
/>
<glyph unicode="&#x1ac;" glyph-name="uni01AC" d="M390 1237L469 1235V0H764V1235H1143V1493L390 1495Q438 1490 333 1490Q210 1490 120 1414Q87 1385 69 1361Q21 1296 21 1141V1064H276Q276 1097 277 1111Q283 1183 310 1216Q326 1235 370 1236Q371 1237 390 1237Z" />
<glyph unicode="&#x1ad;" glyph-name="uni01AD" d="M399 1120Q399 1339 490 1448Q572 1546 748 1555Q768 1556 790 1556H911V1331H872Q774 1331 731 1276Q690 1223 690 1120H1073V895H690V365Q690 290 726 258T848 225H1073V0H827Q575 0 486 80T397 379V895H111V1120H399Z"
/>
<glyph unicode="&#x1ae;" glyph-name="uni01AE" d="M469 0V1235H90V1493H1143V1235H764V41Q764 -93 806 -147T946 -201H985V-426H859Q649 -426 563 -322T469 0Z" />
<glyph unicode="&#x1af;" glyph-name="Uhorn" d="M827 1238V1379Q894 1329 930 1310T993 1291Q1032 1291 1056 1320T1081 1399Q1081 1438 1074 1476T1050 1555H1206Q1217 1500 1222 1453T1228 1365Q1228 1250 1182 1189T1050 1127Q997 1127 943 1154T827 1238ZM261
551V1493H556V477Q556 365 613 302T771 238Q872 238 929 301T986 477V1493H1281V551Q1281 247 1160 109T771 -29Q504 -29 383 109T261 551Z" />
<glyph unicode="&#x1b0;" glyph-name="uhorn" d="M824 850V991Q891 941 927 922T990 903Q1029 903 1053 932T1078 1011Q1078 1050 1071 1088T1047 1167H1203Q1214 1112 1219 1065T1225 977Q1225 862 1179 801T1047 739Q994 739 940 766T824 850ZM8 391V1120H301V436Q301
315 335 263T448 211Q527 211 571 281T616 477V1120H909V0H616V166Q585 73 511 22T331 -29Q171 -29 90 77T8 391Z" />
<glyph unicode="&#x1b1;" glyph-name="uni01B1" d="M1143 1249H905Q1025 1140 1079 1005T1133 678Q1133 366 994 183T619 0Q382 0 241 183T100 678Q100 869 154 1004T328 1249H90V1460H561V1192Q480 1113 441 996T402 712Q402 498 458 382T617 266Q719 266 775
382T832 712Q832 878 792 996T670 1192V1460H1143V1249Z" />
<glyph unicode="&#x1b2;" glyph-name="uni01B2" d="M805 707Q805 1035 643 1187V1244H878Q998 1135 1052 1000T1106 673Q1106 361 966 178Q831 0 542 0Q289 0 184 176Q118 286 118 462L117 1233V1493H412V495Q412 353 450 307Q488 262 590 261Q744 261 789 509Q805
597 805 707Z" />
<glyph unicode="&#x1b3;" glyph-name="uni01B3" d="M933 1026L727 588V0H432V588L3 1493H305L581 893L678 1104Q825 1424 866 1452Q1000 1544 1169 1467L1230 1439L1167 1224Q1136 1243 1083 1241Q1034 1239 933 1026Z" />
<glyph unicode="&#x1b4;" glyph-name="uni01B4" d="M928 664L650 -121Q543 -424 308 -424H66V-201H185Q275 -201 317 -171T402 -29L424 31L29 1120H322L565 393L677 744Q768 1025 850 1084Q933 1143 1152 1105L1204 1096L1145 880Q1051 915 1003 836Q969 779 928 664Z" />
<glyph unicode="&#x1b5;" glyph-name="uni01B5" d="M137 1493H1147V1249L784 730H1011V538H650L455 260H1161V0H115V244L314 538H222V730H445L786 1233H137V1493Z" />
<glyph unicode="&#x1b6;" glyph-name="uni01B6" d="M181 1120H1076V891L849 632H1004V438H679L487 219H1076V0H157V229L340 438H230V632H511L747 901H181V1120Z" />
<glyph unicode="&#x1b7;" glyph-name="uni01B7" d="M1223 425Q1223 144 982 35Q841 -28 623 -28Q285 -28 154 88Q10 216 10 439H328Q328 332 425 275Q494 234 592 234Q827 234 868 380Q876 408 876 439Q876 618 652 642Q618 646 579 646H324V864L696 1233H130V1493H1140V1249L739
848Q884 839 962 816Q1069 785 1142 685Q1223 575 1223 425Z" />
<glyph unicode="&#x1b8;" glyph-name="uni01B8" d="M641 234Q782 234 856 312Q905 365 905 439H1223Q1223 216 1079 88Q948 -28 610 -28Q152 -28 42 246Q10 326 10 425Q10 568 81 670Q160 783 271 816Q349 839 494 848L93 1249V1493H1103V1233H537L909 864V646H654Q357
646 357 439Q357 300 495 254Q555 234 641 234Z" />
<glyph unicode="&#x1b9;" glyph-name="uni01B9" d="M922 452V234H754Q607 234 532 182Q457 129 457 27Q457 -72 530 -125T741 -178Q834 -178 930 -150Q1026 -123 1123 -69V-366Q1021 -403 917 -422Q813 -440 710 -440Q416 -440 263 -324Q110 -209 110 13Q110 156
181 258Q258 371 371 404Q449 427 594 436L203 891V1120H1098V901H532L922 452Z" />
<glyph unicode="&#x1ba;" glyph-name="uni01BA" d="M792 546Q903 529 981 481Q1097 409 1097 261Q1097 123 1005 56Q916 -9 687 -36L627 -43Q521 -55 489 -73Q454 -92 454 -132Q454 -180 505 -204Q555 -228 655 -228Q765 -228 872 -206Q979 -185 1080 -142Q1080
-142 1080 -368Q953 -399 850 -412Q737 -426 631 -426Q385 -426 257 -351Q131 -277 131 -127Q131 14 222 81Q300 139 573 175L633 183Q734 196 760 210Q796 228 796 266Q796 311 749 331Q699 352 451 352H239L725 901H131V1120H1097V901L792 546Z" />
<glyph unicode="&#x1bb;" glyph-name="uni01BB" d="M434 260H1063V0H115V252L275 422L384 538H222V730H562L621 795Q696 881 729 947T762 1079Q762 1179 702 1233T530 1288Q451 1288 353 1257T147 1165V1440Q254 1479 356 1499T553 1520Q790 1520 925 1410T1061
1108Q1061 1020 1032 943T930 772Q917 756 894 730H1011V538H764H711L639 466L434 260Z" />
<glyph unicode="&#x1bc;" glyph-name="uni01BC" d="M324 646H182V1493H1112V1233H477V880H739Q855 880 996 816Q1071 786 1152 670Q1223 568 1223 425Q1223 203 1070 88Q916 -28 623 -28Q285 -28 154 88Q10 216 10 439H328Q328 344 407 287Q481 234 592 234Q730
234 803 287T876 439Q876 541 801 594Q726 646 579 646H477H324Z" />
<glyph unicode="&#x1bd;" glyph-name="uni01BD" d="M620 452Q756 452 876 404Q981 360 1052 258Q1123 155 1123 13Q1123 -209 970 -324Q816 -440 523 -440Q420 -440 316 -422Q212 -403 110 -366V-69Q205 -122 303 -150T492 -178Q630 -178 703 -125T776 27Q776
129 701 182Q626 234 479 234H311H222V1120H1021V911H513V452H620Z" />
<glyph unicode="&#x1be;" glyph-name="uni01BE" d="M686 1078V1029Q856 998 947 904Q1087 759 1087 528Q1087 313 968 180Q780 -30 563 -30Q400 -30 327 -12Q254 5 186 40V338Q256 295 326 274Q398 252 470 252Q631 252 720 366Q772 432 772 528Q772 599 721 675Q643
789 448 789H364V1078H146V1272H360H364V1438H686V1272H919V1078H686Z" />
<glyph unicode="&#x1bf;" glyph-name="uni01BF" d="M396 -132V-426H81V1120H396V955Q472 1066 548 1103Q640 1147 810 1147Q990 1147 1058 1035Q1138 908 1138 769Q1138 349 396 -132ZM396 145Q813 479 813 643Q813 756 763 822Q713 887 603 887Q525 887 396 684V145Z" />
<glyph unicode="&#x1c0;" glyph-name="uni01C0" d="M483 1493H750V0H483V1493Z" />
<glyph unicode="&#x1c1;" glyph-name="uni01C1" d="M712 1493H979V0H712V1493ZM254 1493H521V0H254V1493Z" />
<glyph unicode="&#x1c2;" glyph-name="uni01C2" d="M483 1493H750V1146H1160V911H750V691H1160V454H750V0H483V454H73V691H483V911H73V1146H483V1493Z" />
<glyph unicode="&#x1c3;" glyph-name="uni01C3" d="M483 283H750V0H483V283ZM483 1493H750V838L717 481H518L483 838V1493Z" />
<glyph unicode="&#x1cd;" glyph-name="uni01CD" d="M616 1223L477 612H756L616 1223ZM436 1493H797L1200 0H905L813 369H418L328 0H33L436 1493ZM461 1635L240 1899H418L616 1737L815 1899H993L770 1635H461Z" />
<glyph unicode="&#x1ce;" glyph-name="uni01CE" d="M700 526Q536 526 471 484T406 340Q406 264 451 219T573 174Q689 174 753 261T817 506V526H700ZM1108 639V0H817V125Q764 51 681 11T498 -29Q307 -29 201 72T94 354Q94 550 221 643T614 737H817V786Q817 857
766 893T614 930Q509 930 411 904T205 819V1069Q302 1109 402 1128T614 1147Q887 1147 997 1036T1108 639ZM496 1262L240 1638H418L616 1411L815 1638H993L737 1262H496Z" />
<glyph unicode="&#x1cf;" glyph-name="uni01CF" d="M172 1233V1493H1061V1233H764V260H1061V0H172V260H469V1233H172ZM461 1635L240 1899H418L616 1737L815 1899H993L770 1635H461Z" />
<glyph unicode="&#x1d0;" glyph-name="uni01D0" d="M221 1120H801V225H1165V0H143V225H508V895H221V1120ZM496 1262L240 1638H418L616 1411L815 1638H993L737 1262H496Z" />
<glyph unicode="&#x1d1;" glyph-name="uni01D1" d="M616 1255Q503 1255 451 1135T399 745Q399 477 451 357T616 236Q730 236 782 356T834 745Q834 1014 782 1134T616 1255ZM92 745Q92 1128 224 1324T616 1520Q876 1520 1008 1324T1141 745Q1141 363 1009 167T616
-29Q357 -29 225 167T92 745ZM461 1635L240 1899H418L616 1737L815 1899H993L770 1635H461Z" />
<glyph unicode="&#x1d2;" glyph-name="uni01D2" d="M616 909Q511 909 451 817T391 559Q391 394 451 302T616 209Q722 209 782 301T842 559Q842 724 782 816T616 909ZM98 559Q98 830 238 988T616 1147Q854 1147 994 989T1135 559Q1135 288 995 130T616 -29Q379
-29 239 129T98 559ZM496 1262L240 1638H418L616 1411L815 1638H993L737 1262H496Z" />
<glyph unicode="&#x1d3;" glyph-name="uni01D3" d="M106 551V1493H401V477Q401 365 458 302T616 238Q717 238 774 301T831 477V1493H1126V551Q1126 247 1005 109T616 -29Q349 -29 228 109T106 551ZM461 1635L240 1899H418L616 1737L815 1899H993L770 1635H461Z" />
<glyph unicode="&#x1d4;" glyph-name="uni01D4" d="M160 391V1120H453V436Q453 315 487 263T600 211Q679 211 723 281T768 477V1120H1061V0H768V166Q737 73 663 22T483 -29Q323 -29 242 77T160 391ZM496 1262L240 1638H418L616 1411L815 1638H993L737 1262H496Z" />
<glyph unicode="&#x1d5;" glyph-name="uni01D5" d="M696 1771H932V1525H696V1771ZM301 1771H537V1525H301V1771ZM106 551V1493H401V477Q401 365 458 302T616 238Q717 238 774 301T831 477V1493H1126V551Q1126 247 1005 109T616 -29Q349 -29 228 109T106 551ZM301
2017H932V1829H301V2017Z" />
<glyph unicode="&#x1d6;" glyph-name="uni01D6" d="M301 1871H932V1683H301V1871ZM160 391V1120H453V436Q453 315 487 263T600 211Q679 211 723 281T768 477V1120H1061V0H768V166Q737 73 663 22T483 -29Q323 -29 242 77T160 391ZM696 1585H932V1339H696V1585ZM301
1585H537V1339H301V1585Z" />
<glyph unicode="&#x1d7;" glyph-name="uni01D7" d="M106 551V1493H401V477Q401 365 458 302T616 238Q717 238 774 301T831 477V1493H1126V551Q1126 247 1005 109T616 -29Q349 -29 228 109T106 551ZM696 1771H932V1525H696V1771ZM301 1771H537V1525H301V1771ZM668
2064H952L666 1800H469L668 2064Z" />
<glyph unicode="&#x1d8;" glyph-name="uni01D8" d="M752 2053H1034L666 1677H469L752 2053ZM160 391V1120H453V436Q453 315 487 263T600 211Q679 211 723 281T768 477V1120H1061V0H768V166Q737 73 663 22T483 -29Q323 -29 242 77T160 391ZM696 1585H932V1339H696V1585ZM301
1585H537V1339H301V1585Z" />
<glyph unicode="&#x1d9;" glyph-name="uni01D9" d="M106 551V1493H401V477Q401 365 458 302T616 238Q717 238 774 301T831 477V1493H1126V551Q1126 247 1005 109T616 -29Q349 -29 228 109T106 551ZM696 1771H932V1525H696V1771ZM301 1771H537V1525H301V1771ZM461
1800L240 2064H418L616 1902L815 2064H993L770 1800H461Z" />
<glyph unicode="&#x1da;" glyph-name="uni01DA" d="M496 1677L240 2053H418L616 1826L815 2053H993L737 1677H496ZM160 391V1120H453V436Q453 315 487 263T600 211Q679 211 723 281T768 477V1120H1061V0H768V166Q737 73 663 22T483 -29Q323 -29 242 77T160 391ZM696
1585H932V1339H696V1585ZM301 1585H537V1339H301V1585Z" />
<glyph unicode="&#x1db;" glyph-name="uni01DB" d="M106 551V1493H401V477Q401 365 458 302T616 238Q717 238 774 301T831 477V1493H1126V551Q1126 247 1005 109T616 -29Q349 -29 228 109T106 551ZM696 1771H932V1525H696V1771ZM301 1771H537V1525H301V1771ZM567
2064L766 1800H569L283 2064H567Z" />
<glyph unicode="&#x1dc;" glyph-name="uni01DC" d="M481 2053L764 1677H567L199 2053H481ZM160 391V1120H453V436Q453 315 487 263T600 211Q679 211 723 281T768 477V1120H1061V0H768V166Q737 73 663 22T483 -29Q323 -29 242 77T160 391ZM696 1585H932V1339H696V1585ZM301
1585H537V1339H301V1585Z" />
<glyph unicode="&#x1dd;" glyph-name="uni01DD" d="M92 534V653H851V663Q850 795 773 855T543 915Q442 915 344 886T139 794V1063Q241 1105 347 1126T571 1147Q852 1147 1000 997T1149 563Q1149 289 1006 130T616 -29Q367 -29 230 118T92 534ZM387 433Q389 317
446 258T616 198Q717 198 777 259T848 433H387Z" />
<glyph unicode="&#x1de;" glyph-name="uni01DE" d="M696 1803H932V1557H696V1803ZM301 1803H537V1557H301V1803ZM301 2017H932V1829H301V2017ZM616 1223L477 612H756L616 1223ZM436 1493H797L1200 0H905L813 369H418L328 0H33L436 1493Z" />
<glyph unicode="&#x1df;" glyph-name="uni01DF" d="M301 1871H932V1683H301V1871ZM700 526Q536 526 471 484T406 340Q406 264 451 219T573 174Q689 174 753 261T817 506V526H700ZM1108 639V0H817V125Q764 51 681 11T498 -29Q307 -29 201 72T94 354Q94 550 221
643T614 737H817V786Q817 857 766 893T614 930Q509 930 411 904T205 819V1069Q302 1109 402 1128T614 1147Q887 1147 997 1036T1108 639ZM696 1585H932V1339H696V1585ZM301 1585H537V1339H301V1585Z" />
<glyph unicode="&#x1e0;" glyph-name="uni01E0" d="M479 2059H754V1813H479V2059ZM616 1223L477 612H756L616 1223ZM436 1493H797L1200 0H905L813 369H418L328 0H33L436 1493ZM301 2017H932V1829H301V2017Z" />
<glyph unicode="&#x1e1;" glyph-name="uni01E1" d="M700 526Q536 526 471 484T406 340Q406 264 451 219T573 174Q689 174 753 261T817 506V526H700ZM1108 639V0H817V125Q764 51 681 11T498 -29Q307 -29 201 72T94 354Q94 550 221 643T614 737H817V786Q817 857
766 893T614 930Q509 930 411 904T205 819V1069Q302 1109 402 1128T614 1147Q887 1147 997 1036T1108 639ZM479 1585H754V1339H479V1585ZM301 1871H932V1683H301V1871Z" />
<glyph unicode="&#x1e2;" glyph-name="uni01E2" d="M444 1870H1075V1682H444V1870ZM1161 1493V1233H870V922H1130V662H870V260H1180V0H616V362H334L248 0H0L358 1493H1161ZM537 1233L389 598H616V1233H537Z" />
<glyph unicode="&#x1e3;" glyph-name="uni01E3" d="M301 1556H932V1368H301V1556ZM489 401V483H416Q329 483 285 444T240 330Q240 259 272 222T365 184Q428 184 458 227T489 358V401ZM963 690V713Q963 838 938 885T850 932Q787 932 762 885T737 713V690H963ZM1188
479H737Q737 335 787 260T932 184Q992 184 1052 213T1171 301V57Q1121 13 1059 -8T913 -29Q810 -29 735 13T618 135Q577 51 512 11T348 -29Q188 -29 101 63T14 326Q14 511 115 602T420 694H496V745Q496 838 457 885T342 932Q285 932 218 905T76 823V1069Q150 1108
220 1127T354 1147Q452 1147 514 1116T612 1020Q641 1081 706 1114T864 1147Q1041 1147 1114 1028T1188 606V479Z" />
<glyph unicode="&#x1e6;" glyph-name="Gcaron" d="M582 1635L361 1899H539L737 1737L936 1899H1114L891 1635H582ZM872 270V555H670V803H1130V119Q1045 46 943 9T723 -29Q433 -29 275 172T117 745Q117 1122 276 1321T737 1520Q827 1520 914 1495T1077 1421V1094Q1015
1174 935 1214T758 1255Q590 1255 507 1129T424 745Q424 496 504 366T737 236Q783 236 817 244T872 270Z" />
<glyph unicode="&#x1e7;" glyph-name="gcaron" d="M732 1262L476 1638H654L852 1411L1051 1638H1229L973 1262H732ZM803 578Q803 728 746 818T596 909Q504 909 448 819T391 578Q391 426 447 336T596 246Q689 246 746 336T803 578ZM1096 84Q1096 -185 975 -304T580
-424Q488 -424 398 -411T215 -369V-100Q298 -146 384 -168T561 -190Q685 -190 744 -132T803 51V172Q760 92 689 53T516 14Q324 14 211 164T98 571Q98 837 211 993T514 1149Q610 1149 685 1104T803 977V1120H1096V84Z" />
<glyph unicode="&#x1e8;" glyph-name="uni01E8" d="M461 1635L240 1899H418L616 1737L815 1899H993L770 1635H461ZM117 1493H412V903L874 1493H1208L737 905L1225 0H897L543 672L412 506V0H117V1493Z" />
<glyph unicode="&#x1e9;" glyph-name="uni01E9" d="M461 1635L240 1899H418L616 1737L815 1899H993L770 1635H461ZM174 1556H467V739L819 1120H1174L750 702L1198 0H874L567 524L467 428V0H174V1556Z" />
<glyph unicode="&#x1ea;" glyph-name="uni01EA" d="M801 240H942Q889 169 871 134T852 74Q852 35 882 11T963 -14Q1001 -14 1039 -7T1118 17V-139Q1064 -150 1017 -155T928 -161Q814 -161 752 -115T690 17Q690 70 717 124T801 240ZM616 1255Q503 1255 451 1135T399
745Q399 477 451 357T616 236Q730 236 782 356T834 745Q834 1014 782 1134T616 1255ZM92 745Q92 1128 224 1324T616 1520Q876 1520 1008 1324T1141 745Q1141 363 1009 167T616 -29Q357 -29 225 167T92 745Z" />
<glyph unicode="&#x1eb;" glyph-name="uni01EB" d="M801 240H942Q889 169 871 134T852 74Q852 35 882 11T963 -14Q1001 -14 1039 -7T1118 17V-139Q1064 -150 1017 -155T928 -161Q814 -161 752 -115T690 17Q690 70 717 124T801 240ZM616 909Q511 909 451 817T391
559Q391 394 451 302T616 209Q722 209 782 301T842 559Q842 724 782 816T616 909ZM98 559Q98 830 238 988T616 1147Q854 1147 994 989T1135 559Q1135 288 995 130T616 -29Q379 -29 239 129T98 559Z" />
<glyph unicode="&#x1ec;" glyph-name="uni01EC" d="M301 1870H932V1682H301V1870ZM801 240H942Q889 169 871 134T852 74Q852 35 882 11T963 -14Q1001 -14 1039 -7T1118 17V-139Q1064 -150 1017 -155T928 -161Q814 -161 752 -115T690 17Q690 70 717 124T801 240ZM616
1255Q503 1255 451 1135T399 745Q399 477 451 357T616 236Q730 236 782 356T834 745Q834 1014 782 1134T616 1255ZM92 745Q92 1128 224 1324T616 1520Q876 1520 1008 1324T1141 745Q1141 363 1009 167T616 -29Q357 -29 225 167T92 745Z" />
<glyph unicode="&#x1ed;" glyph-name="uni01ED" d="M301 1556H932V1368H301V1556ZM801 240H942Q889 169 871 134T852 74Q852 35 882 11T963 -14Q1001 -14 1039 -7T1118 17V-139Q1064 -150 1017 -155T928 -161Q814 -161 752 -115T690 17Q690 70 717 124T801 240ZM616
909Q511 909 451 817T391 559Q391 394 451 302T616 209Q722 209 782 301T842 559Q842 724 782 816T616 909ZM98 559Q98 830 238 988T616 1147Q854 1147 994 989T1135 559Q1135 288 995 130T616 -29Q379 -29 239 129T98 559Z" />
<glyph unicode="&#x1ee;" glyph-name="uni01EE" d="M461 1635L240 1899H418L616 1737L815 1899H993L770 1635H461ZM1223 425Q1223 144 982 35Q841 -28 623 -28Q285 -28 154 88Q10 216 10 439H328Q328 332 425 275Q494 234 592 234Q827 234 868 380Q876 408 876
439Q876 618 652 642Q618 646 579 646H324V864L696 1233H130V1493H1140V1249L739 848Q884 839 962 816Q1069 785 1142 685Q1223 575 1223 425Z" />
<glyph unicode="&#x1ef;" glyph-name="uni01EF" d="M496 1262L240 1638H418L616 1411L815 1638H993L737 1262H496ZM311 452L701 901H135V1120H1030V891L639 436Q784 427 862 404Q975 371 1052 258Q1123 156 1123 13Q1123 -209 970 -324Q817 -440 523 -440Q420
-440 316 -422Q212 -403 110 -366V-69Q207 -123 303 -150Q399 -178 492 -178Q630 -178 703 -125T776 27Q776 129 701 182Q626 234 479 234H311V452Z" />
<glyph unicode="&#x1f0;" glyph-name="uni01F0" d="M513 1267L257 1643H435L633 1416L832 1643H1010L754 1267H513ZM850 43Q850 -209 760 -316T459 -424H143V-199H377Q475 -199 516 -144T557 43V895H260V1120H850V43Z" />
<glyph unicode="&#x1f4;" glyph-name="uni01F4" d="M789 1899H1073L787 1635H590L789 1899ZM872 270V555H670V803H1130V119Q1045 46 943 9T723 -29Q433 -29 275 172T117 745Q117 1122 276 1321T737 1520Q827 1520 914 1495T1077 1421V1094Q1015 1174 935 1214T758
1255Q590 1255 507 1129T424 745Q424 496 504 366T737 236Q783 236 817 244T872 270Z" />
<glyph unicode="&#x1f5;" glyph-name="uni01F5" d="M988 1638H1270L902 1262H705L988 1638ZM803 578Q803 728 746 818T596 909Q504 909 448 819T391 578Q391 426 447 336T596 246Q689 246 746 336T803 578ZM1096 84Q1096 -185 975 -304T580 -424Q488 -424 398
-411T215 -369V-100Q298 -146 384 -168T561 -190Q685 -190 744 -132T803 51V172Q760 92 689 53T516 14Q324 14 211 164T98 571Q98 837 211 993T514 1149Q610 1149 685 1104T803 977V1120H1096V84Z" />
<glyph unicode="&#x1f6;" glyph-name="uni01F6" d="M25 1493H276V924H498V1493H749V551V477Q749 325 766 288Q789 238 845 238Q914 238 936 296Q957 352 957 477V924H1208V551Q1208 247 1105 109T845 -29Q704 -29 601 109T498 551V664H276V0H25V1493Z" />
<glyph unicode="&#x1f8;" glyph-name="uni01F8" d="M567 1899L766 1635H569L283 1899H567ZM119 1493H436L852 408V1493H1112V0H797L379 1085V0H119V1493Z" />
<glyph unicode="&#x1f9;" glyph-name="uni01F9" d="M733 1640L1016 1264H819L451 1640H733ZM1071 727V0H780V682Q780 804 746 856T633 909Q554 909 509 838T463 641V0H172V1120H463V952Q494 1045 569 1096T750 1147Q909 1147 990 1042T1071 727Z" />
<glyph unicode="&#x1fc;" glyph-name="AEacute" d="M888 1899H1172L886 1635H689L888 1899ZM1161 1493V1233H870V922H1130V662H870V260H1180V0H616V362H334L248 0H0L358 1493H1161ZM537 1233L389 598H616V1233H537Z" />
<glyph unicode="&#x1fd;" glyph-name="aeacute" d="M752 1638H1034L666 1262H469L752 1638ZM489 401V483H416Q329 483 285 444T240 330Q240 259 272 222T365 184Q428 184 458 227T489 358V401ZM963 690V713Q963 838 938 885T850 932Q787 932 762 885T737 713V690H963ZM1188
479H737Q737 335 787 260T932 184Q992 184 1052 213T1171 301V57Q1121 13 1059 -8T913 -29Q810 -29 735 13T618 135Q577 51 512 11T348 -29Q188 -29 101 63T14 326Q14 511 115 602T420 694H496V745Q496 838 457 885T342 932Q285 932 218 905T76 823V1069Q150 1108
220 1127T354 1147Q452 1147 514 1116T612 1020Q641 1081 706 1114T864 1147Q1041 1147 1114 1028T1188 606V479Z" />
<glyph unicode="&#x1fe;" glyph-name="Oslashacute" d="M451 354Q475 297 517 267T616 236Q730 236 782 356T834 745Q834 773 833 804T829 888L451 354ZM772 1153Q746 1204 707 1229T616 1255Q504 1255 452 1135T399 756V629L772 1153ZM162 289Q127 377 110 490T92
745Q92 1128 224 1324T616 1520Q719 1520 802 1489T946 1397L1059 1559L1221 1444L1063 1221Q1102 1127 1121 1008T1141 745Q1141 363 1009 167T616 -29Q510 -29 425 4T276 104L156 -63L-6 51L162 289ZM668 1899H952L666 1635H469L668 1899Z" />
<glyph unicode="&#x1ff;" glyph-name="oslashacute" d="M831 675L483 262Q514 235 547 222T618 209Q722 209 782 302T842 559Q842 588 840 617T831 675ZM399 449L745 860Q719 885 688 897T618 909Q512 909 452 817T391 559Q391 525 393 499T399 449ZM188 199Q143
272 121 361T98 559Q98 830 238 988T616 1147Q701 1147 774 1126T915 1059L1063 1235L1202 1114L1042 926Q1088 850 1111 758T1135 559Q1135 288 995 130T616 -29Q533 -29 458 -7T315 61L164 -117L25 2L188 199ZM754 1639H1036L668 1263H471L754 1639Z" />
<glyph unicode="&#x200;" glyph-name="uni0200" d="M616 1223L477 612H756L616 1223ZM436 1493H797L1200 0H905L813 369H418L328 0H33L436 1493ZM395 1899L594 1635H397L111 1899H395ZM770 1899L969 1635H772L486 1899H770Z" />
<glyph unicode="&#x201;" glyph-name="uni0201" d="M700 526Q536 526 471 484T406 340Q406 264 451 219T573 174Q689 174 753 261T817 506V526H700ZM1108 639V0H817V125Q764 51 681 11T498 -29Q307 -29 201 72T94 354Q94 550 221 643T614 737H817V786Q817 857
766 893T614 930Q509 930 411 904T205 819V1069Q302 1109 402 1128T614 1147Q887 1147 997 1036T1108 639ZM736 1638L930 1262H767L519 1638H736ZM373 1638L588 1262H414L142 1638H373Z" />
<glyph unicode="&#x202;" glyph-name="uni0202" d="M616 1223L477 612H756L616 1223ZM436 1493H797L1200 0H905L813 369H418L328 0H33L436 1493ZM281 1635H422Q442 1695 491 1725T616 1756Q693 1756 741 1726T809 1635H952Q937 1764 851 1831T616 1899Q469 1899
383 1832T281 1635Z" />
<glyph unicode="&#x203;" glyph-name="uni0203" d="M700 526Q536 526 471 484T406 340Q406 264 451 219T573 174Q689 174 753 261T817 506V526H700ZM1108 639V0H817V125Q764 51 681 11T498 -29Q307 -29 201 72T94 354Q94 550 221 643T614 737H817V786Q817 857
766 893T614 930Q509 930 411 904T205 819V1069Q302 1109 402 1128T614 1147Q887 1147 997 1036T1108 639ZM281 1309Q287 1453 373 1529T616 1606Q773 1606 859 1530T952 1309H809Q798 1379 749 1416T616 1453T483 1416T422 1309H281Z" />
<glyph unicode="&#x204;" glyph-name="uni0204" d="M1098 0H168V1493H1098V1233H463V911H1038V651H463V260H1098V0ZM395 1899L594 1635H397L111 1899H395ZM770 1899L969 1635H772L486 1899H770Z" />
<glyph unicode="&#x205;" glyph-name="uni0205" d="M1102 55Q1000 13 894 -8T670 -29Q389 -29 241 121T92 555Q92 829 235 988T625 1147Q874 1147 1011 1000T1149 584V465H390Q391 333 468 268T698 203Q799 203 897 232T1102 324V55ZM854 685Q852 801 795 860T625
920Q524 920 464 859T393 684L854 685ZM775 1638L969 1262H806L558 1638H775ZM412 1638L627 1262H453L181 1638H412Z" />
<glyph unicode="&#x206;" glyph-name="uni0206" d="M1098 0H168V1493H1098V1233H463V911H1038V651H463V260H1098V0ZM281 1635H422Q442 1695 491 1725T616 1756Q693 1756 741 1726T809 1635H952Q937 1764 851 1831T616 1899Q469 1899 383 1832T281 1635Z" />
<glyph unicode="&#x207;" glyph-name="uni0207" d="M1102 55Q1000 13 894 -8T670 -29Q389 -29 241 121T92 555Q92 829 235 988T625 1147Q874 1147 1011 1000T1149 584V465H390Q391 333 468 268T698 203Q799 203 897 232T1102 324V55ZM854 685Q852 801 795 860T625
920Q524 920 464 859T393 684L854 685ZM320 1309Q326 1453 412 1529T655 1606Q812 1606 898 1530T991 1309H848Q837 1379 788 1416T655 1453T522 1416T461 1309H320Z" />
<glyph unicode="&#x208;" glyph-name="uni0208" d="M172 1233V1493H1061V1233H764V260H1061V0H172V260H469V1233H172ZM395 1899L594 1635H397L111 1899H395ZM770 1899L969 1635H772L486 1899H770Z" />
<glyph unicode="&#x209;" glyph-name="uni0209" d="M221 1120H801V225H1165V0H143V225H508V895H221V1120ZM736 1638L930 1262H767L519 1638H736ZM373 1638L588 1262H414L142 1638H373Z" />
<glyph unicode="&#x20a;" glyph-name="uni020A" d="M172 1233V1493H1061V1233H764V260H1061V0H172V260H469V1233H172ZM281 1635H422Q442 1695 491 1725T616 1756Q693 1756 741 1726T809 1635H952Q937 1764 851 1831T616 1899Q469 1899 383 1832T281 1635Z" />
<glyph unicode="&#x20b;" glyph-name="uni020B" d="M221 1120H801V225H1165V0H143V225H508V895H221V1120ZM281 1309Q287 1453 373 1529T616 1606Q773 1606 859 1530T952 1309H809Q798 1379 749 1416T616 1453T483 1416T422 1309H281Z" />
<glyph unicode="&#x20c;" glyph-name="uni020C" d="M616 1255Q503 1255 451 1135T399 745Q399 477 451 357T616 236Q730 236 782 356T834 745Q834 1014 782 1134T616 1255ZM92 745Q92 1128 224 1324T616 1520Q876 1520 1008 1324T1141 745Q1141 363 1009 167T616
-29Q357 -29 225 167T92 745ZM395 1899L594 1635H397L111 1899H395ZM770 1899L969 1635H772L486 1899H770Z" />
<glyph unicode="&#x20d;" glyph-name="uni020D" d="M616 909Q511 909 451 817T391 559Q391 394 451 302T616 209Q722 209 782 301T842 559Q842 724 782 816T616 909ZM98 559Q98 830 238 988T616 1147Q854 1147 994 989T1135 559Q1135 288 995 130T616 -29Q379
-29 239 129T98 559ZM736 1638L930 1262H767L519 1638H736ZM373 1638L588 1262H414L142 1638H373Z" />
<glyph unicode="&#x20e;" glyph-name="uni020E" d="M616 1255Q503 1255 451 1135T399 745Q399 477 451 357T616 236Q730 236 782 356T834 745Q834 1014 782 1134T616 1255ZM92 745Q92 1128 224 1324T616 1520Q876 1520 1008 1324T1141 745Q1141 363 1009 167T616
-29Q357 -29 225 167T92 745ZM281 1635H422Q442 1695 491 1725T616 1756Q693 1756 741 1726T809 1635H952Q937 1764 851 1831T616 1899Q469 1899 383 1832T281 1635Z" />
<glyph unicode="&#x20f;" glyph-name="uni020F" d="M616 909Q511 909 451 817T391 559Q391 394 451 302T616 209Q722 209 782 301T842 559Q842 724 782 816T616 909ZM98 559Q98 830 238 988T616 1147Q854 1147 994 989T1135 559Q1135 288 995 130T616 -29Q379
-29 239 129T98 559ZM281 1309Q287 1453 373 1529T616 1606Q773 1606 859 1530T952 1309H809Q798 1379 749 1416T616 1453T483 1416T422 1309H281Z" />
<glyph unicode="&#x210;" glyph-name="uni0210" d="M807 705Q851 696 883 664T963 537L1233 0H909L729 377Q721 393 708 421Q629 590 522 590H428V0H133V1493H559Q847 1493 972 1391T1098 1059Q1098 905 1023 814T807 705ZM428 1245V838H567Q688 838 740 885T793
1042Q793 1151 741 1198T567 1245H428ZM601 1899L800 1635H603L317 1899H601ZM976 1899L1175 1635H978L692 1899H976Z" />
<glyph unicode="&#x211;" glyph-name="uni0211" d="M1151 811Q1103 855 1039 877T897 899Q804 899 735 867T627 772Q603 734 594 680T584 516V0H291V1120H584V946Q627 1042 716 1094T924 1147Q984 1147 1041 1133T1151 1090V811ZM836 1638L1030 1262H867L619 1638H836ZM473
1638L688 1262H514L242 1638H473Z" />
<glyph unicode="&#x212;" glyph-name="uni0212" d="M807 705Q851 696 883 664T963 537L1233 0H909L729 377Q721 393 708 421Q629 590 522 590H428V0H133V1493H559Q847 1493 972 1391T1098 1059Q1098 905 1023 814T807 705ZM428 1245V838H567Q688 838 740 885T793
1042Q793 1151 741 1198T567 1245H428ZM487 1635H628Q648 1695 697 1725T822 1756Q899 1756 947 1726T1015 1635H1158Q1143 1764 1057 1831T822 1899Q675 1899 589 1832T487 1635Z" />
<glyph unicode="&#x213;" glyph-name="uni0213" d="M1151 811Q1103 855 1039 877T897 899Q804 899 735 867T627 772Q603 734 594 680T584 516V0H291V1120H584V946Q627 1042 716 1094T924 1147Q984 1147 1041 1133T1151 1090V811ZM381 1309Q387 1453 473 1529T716
1606Q873 1606 959 1530T1052 1309H909Q898 1379 849 1416T716 1453T583 1416T522 1309H381Z" />
<glyph unicode="&#x214;" glyph-name="uni0214" d="M106 551V1493H401V477Q401 365 458 302T616 238Q717 238 774 301T831 477V1493H1126V551Q1126 247 1005 109T616 -29Q349 -29 228 109T106 551ZM395 1899L594 1635H397L111 1899H395ZM770 1899L969 1635H772L486
1899H770Z" />
<glyph unicode="&#x215;" glyph-name="uni0215" d="M160 391V1120H453V436Q453 315 487 263T600 211Q679 211 723 281T768 477V1120H1061V0H768V166Q737 73 663 22T483 -29Q323 -29 242 77T160 391ZM736 1638L930 1262H767L519 1638H736ZM373 1638L588 1262H414L142
1638H373Z" />
<glyph unicode="&#x216;" glyph-name="uni0216" d="M106 551V1493H401V477Q401 365 458 302T616 238Q717 238 774 301T831 477V1493H1126V551Q1126 247 1005 109T616 -29Q349 -29 228 109T106 551ZM281 1635H422Q442 1695 491 1725T616 1756Q693 1756 741 1726T809
1635H952Q937 1764 851 1831T616 1899Q469 1899 383 1832T281 1635Z" />
<glyph unicode="&#x217;" glyph-name="uni0217" d="M160 391V1120H453V436Q453 315 487 263T600 211Q679 211 723 281T768 477V1120H1061V0H768V166Q737 73 663 22T483 -29Q323 -29 242 77T160 391ZM281 1309Q287 1453 373 1529T616 1606Q773 1606 859 1530T952
1309H809Q798 1379 749 1416T616 1453T483 1416T422 1309H281Z" />
<glyph unicode="&#x218;" glyph-name="Scommaaccent" d="M461 -198H743L566 -504H372L461 -198ZM510 655Q287 740 208 833T129 1085Q129 1288 259 1404T616 1520Q719 1520 822 1497T1026 1427V1139Q931 1206 833 1241T639 1276Q532 1276 475 1233T418 1110Q418
1048 459 1008T633 918L760 870Q940 804 1025 695T1110 420Q1110 194 977 83T573 -29Q462 -29 351 -3T135 76V381Q253 297 363 256T582 215Q691 215 751 264T811 403Q811 470 771 520T655 600L510 655Z" />
<glyph unicode="&#x219;" glyph-name="scommaaccent" d="M461 -198H743L566 -504H372L461 -198ZM991 1085V829Q910 881 823 907T647 934Q549 934 499 906T449 821Q449 741 663 691L674 688L758 668Q918 630 992 546T1067 317Q1067 144 954 58T612 -29Q511 -29
405 -12T190 41V297Q287 242 387 213T582 184Q685 184 738 214T791 301Q791 357 754 387T575 451L494 469Q326 507 249 588T172 805Q172 967 289 1057T618 1147Q713 1147 807 1132T991 1085Z" />
<glyph unicode="&#x21a;" glyph-name="uni021A" d="M461 -198H743L566 -504H372L461 -198ZM764 0H469V1235H90V1493H1143V1235H764V0Z" />
<glyph unicode="&#x21b;" glyph-name="uni021B" d="M564 -198H846L669 -504H475L564 -198ZM690 1438V1120H1073V895H690V365Q690 290 726 258T848 225H1073V0H827Q575 0 486 80T397 379V895H111V1120H397V1438H690Z" />
<glyph unicode="&#x21c;" glyph-name="uni021C" d="M861 674Q1010 638 1094 535T1179 311Q1179 207 1135 120T1007 -40T784 -180T470 -307T54 -430V-147Q78 -142 116 -132T226 -99T367 -50T514 16T647 96T741 191T779 300Q779 364 744 410T662 477T563 498Q507
498 443 473L227 388V642L461 737Q542 770 601 809T689 882T735 954T755 1015T758 1066Q758 1120 733 1159T668 1218T587 1247T507 1256Q352 1256 118 1100V1356Q358 1520 593 1520Q711 1520 808 1492T966 1420T1068 1320T1127 1210T1144 1108Q1144 821 861 674Z"
/>
<glyph unicode="&#x21d;" glyph-name="uni021D" d="M837 461Q922 439 982 403T1070 323T1111 243T1123 167Q1123 -241 110 -433V-204Q132 -199 166 -191T266 -165T394 -125T525 -72T645 -6T729 71T763 159Q763 233 703 276T568 319Q516 319 460 299L266 230V436L477
513Q552 540 605 573T684 632T725 691T742 739T744 779Q744 823 721 855T662 903T590 926T518 933Q379 933 168 807V1014Q373 1147 620 1147Q723 1147 805 1126T940 1072T1027 993T1076 902T1091 808Q1091 695 1018 604T837 461Z" />
<glyph unicode="&#x21e;" glyph-name="uni021E" d="M461 1635L240 1899H418L616 1737L815 1899H993L770 1635H461ZM137 1493H432V924H801V1493H1096V0H801V664H432V0H137V1493Z" />
<glyph unicode="&#x21f;" glyph-name="uni021F" d="M461 1635L240 1899H418L616 1737L815 1899H993L770 1635H461ZM1071 727V0H780V682Q780 803 746 855T633 907Q553 907 508 837T463 641V0H172V1556H463V952Q494 1045 569 1096T750 1147Q909 1147 990 1042T1071 727Z" />
<glyph unicode="&#x220;" glyph-name="uni0220" d="M1125 942V-426H831V1015Q831 1144 784 1199T631 1255Q522 1255 463 1180Q401 1102 401 972V0H106V1493H401V1253Q438 1381 527 1451T743 1522Q932 1522 1028 1377T1125 942Z" />
<glyph unicode="&#x221;" glyph-name="uni0221" d="M958 216Q962 210 1007 211Q1111 211 1111 277T1069 344Q1017 344 958 216ZM858 354Q946 588 1070 588Q1224 588 1225 348Q1227 -29 982 -29Q865 -29 862 -19L819 -140H676Q707 -43 730 28Q662 56 601 177Q571
69 535 33Q473 -29 397 -29Q220 -29 114 125T8 559Q8 843 115 995T404 1147Q464 1147 512 1100Q541 1073 566 1028V1556H858V354ZM301 719T301 557T335 303T429 211T523 303T558 557T524 811T429 903T335 811Z" />
<glyph unicode="&#x224;" glyph-name="uni0224" d="M137 1493H1147V1249L455 260H1161V0H1160Q1153 -216 1070 -316Q980 -424 770 -424H649V-199H688Q786 -199 829 -144Q863 -100 869 0H115V244L786 1233H137V1493Z" />
<glyph unicode="&#x225;" glyph-name="uni0225" d="M186 1120H1081V891L492 219H1081V0H1080Q1073 -216 990 -316Q900 -424 690 -424H569V-199H608Q706 -199 749 -144Q783 -100 789 0H162V229L752 901H186V1120Z" />
<glyph unicode="&#x226;" glyph-name="uni0226" d="M616 1223L477 612H756L616 1223ZM436 1493H797L1200 0H905L813 369H418L328 0H33L436 1493ZM479 1899H754V1653H479V1899Z" />
<glyph unicode="&#x227;" glyph-name="uni0227" d="M700 526Q536 526 471 484T406 340Q406 264 451 219T573 174Q689 174 753 261T817 506V526H700ZM1108 639V0H817V125Q764 51 681 11T498 -29Q307 -29 201 72T94 354Q94 550 221 643T614 737H817V786Q817 857
766 893T614 930Q509 930 411 904T205 819V1069Q302 1109 402 1128T614 1147Q887 1147 997 1036T1108 639ZM479 1585H754V1339H479V1585Z" />
<glyph unicode="&#x228;" glyph-name="uni0228" d="M1098 0H168V1493H1098V1233H463V911H1038V651H463V260H1098V0ZM757 0Q814 -62 841 -115T869 -215Q869 -310 808 -355T619 -401Q571 -401 521 -395T417 -375V-219Q462 -236 504 -245T582 -254Q640 -254 672 -231T705
-168Q705 -142 684 -101T617 0H757Z" />
<glyph unicode="&#x229;" glyph-name="uni0229" d="M1102 55Q1000 13 894 -8T670 -29Q389 -29 241 121T92 555Q92 829 235 988T625 1147Q874 1147 1011 1000T1149 584V465H390Q391 333 468 268T698 203Q799 203 897 232T1102 324V55ZM854 685Q852 801 795 860T625
920Q524 920 464 859T393 684L854 685ZM757 0Q814 -62 841 -115T869 -215Q869 -310 808 -355T619 -401Q571 -401 521 -395T417 -375V-219Q462 -236 504 -245T582 -254Q640 -254 672 -231T705 -168Q705 -142 684 -101T617 0H757Z" />
<glyph unicode="&#x22a;" glyph-name="uni022A" d="M696 1803H932V1557H696V1803ZM301 1803H537V1557H301V1803ZM301 2017H932V1829H301V2017ZM616 1255Q503 1255 451 1135T399 745Q399 477 451 357T616 236Q730 236 782 356T834 745Q834 1014 782 1134T616 1255ZM92
745Q92 1128 224 1324T616 1520Q876 1520 1008 1324T1141 745Q1141 363 1009 167T616 -29Q357 -29 225 167T92 745Z" />
<glyph unicode="&#x22b;" glyph-name="uni022B" d="M301 1871H932V1683H301V1871ZM696 1817H932V1571H696V1817ZM301 1817H537V1571H301V1817ZM616 909Q511 909 451 817T391 559Q391 394 451 302T616 209Q722 209 782 301T842 559Q842 724 782 816T616 909ZM98
559Q98 830 238 988T616 1147Q854 1147 994 989T1135 559Q1135 288 995 130T616 -29Q379 -29 239 129T98 559Z" />
<glyph unicode="&#x22c;" glyph-name="uni022C" d="M616 1255Q503 1255 451 1135T399 745Q399 477 451 357T616 236Q730 236 782 356T834 745Q834 1014 782 1134T616 1255ZM92 745Q92 1128 224 1324T616 1520Q876 1520 1008 1324T1141 745Q1141 363 1009 167T616
-29Q357 -29 225 167T92 745ZM618 1588L564 1622Q559 1625 552 1629Q507 1655 479 1655Q448 1655 428 1625T408 1545V1539H268V1569Q268 1675 322 1740T465 1805Q501 1805 538 1793T614 1756L674 1717Q695 1703 714 1696T750 1688Q786 1688 805 1718T825 1805H965Q965
1800 964 1790T963 1774Q963 1668 910 1604T768 1539Q731 1539 696 1550T618 1588ZM301 2017H932V1829H301V2017Z" />
<glyph unicode="&#x22d;" glyph-name="uni022D" d="M301 1871H932V1683H301V1871ZM618 1587L563 1624Q560 1626 551 1632Q508 1661 481 1661Q445 1661 427 1630T408 1540V1532H268Q268 1668 319 1742T465 1816Q501 1816 537 1803T614 1759L676 1716Q697 1701 715
1693T750 1685Q786 1685 805 1716T825 1806V1814H965Q965 1678 914 1604T768 1530Q732 1530 699 1542T618 1587ZM616 909Q511 909 451 817T391 559Q391 394 451 302T616 209Q722 209 782 301T842 559Q842 724 782 816T616 909ZM98 559Q98 830 238 988T616 1147Q854
1147 994 989T1135 559Q1135 288 995 130T616 -29Q379 -29 239 129T98 559Z" />
<glyph unicode="&#x22e;" glyph-name="uni022E" d="M616 1255Q503 1255 451 1135T399 745Q399 477 451 357T616 236Q730 236 782 356T834 745Q834 1014 782 1134T616 1255ZM92 745Q92 1128 224 1324T616 1520Q876 1520 1008 1324T1141 745Q1141 363 1009 167T616
-29Q357 -29 225 167T92 745ZM479 1899H754V1653H479V1899Z" />
<glyph unicode="&#x22f;" glyph-name="uni022F" d="M616 909Q511 909 451 817T391 559Q391 394 451 302T616 209Q722 209 782 301T842 559Q842 724 782 816T616 909ZM98 559Q98 830 238 988T616 1147Q854 1147 994 989T1135 559Q1135 288 995 130T616 -29Q379
-29 239 129T98 559ZM479 1585H754V1339H479V1585Z" />
<glyph unicode="&#x230;" glyph-name="uni0230" d="M479 2059H754V1813H479V2059ZM301 2017H932V1829H301V2017ZM616 1255Q503 1255 451 1135T399 745Q399 477 451 357T616 236Q730 236 782 356T834 745Q834 1014 782 1134T616 1255ZM92 745Q92 1128 224 1324T616
1520Q876 1520 1008 1324T1141 745Q1141 363 1009 167T616 -29Q357 -29 225 167T92 745Z" />
<glyph unicode="&#x231;" glyph-name="uni0231" d="M301 1871H932V1683H301V1871ZM616 909Q511 909 451 817T391 559Q391 394 451 302T616 209Q722 209 782 301T842 559Q842 724 782 816T616 909ZM98 559Q98 830 238 988T616 1147Q854 1147 994 989T1135 559Q1135
288 995 130T616 -29Q379 -29 239 129T98 559ZM479 1585H754V1339H479V1585Z" />
<glyph unicode="&#x232;" glyph-name="uni0232" d="M301 1870H932V1682H301V1870ZM8 1493H326L616 893L907 1493H1225L764 588V0H469V588L8 1493Z" />
<glyph unicode="&#x233;" glyph-name="uni0233" d="M301 1556H932V1368H301V1556ZM711 -121Q652 -279 570 -351T369 -424H127V-201H246Q336 -201 378 -171T463 -29L485 31L59 1120H367L623 393L868 1120H1176L711 -121Z" />
<glyph unicode="&#x234;" glyph-name="uni0234" d="M917 216Q921 210 966 211Q1070 211 1070 277T1028 344Q976 344 917 216ZM751 200L817 354Q905 588 1029 588Q1183 588 1184 348Q1186 -29 941 -29Q824 -29 821 -19L779 -140H634Q645 -91 668 -25Q511 -9 437
79Q346 187 346 438V1331H49V1556H639V438Q639 306 680 251Q709 213 751 200Z" />
<glyph unicode="&#x235;" glyph-name="uni0235" d="M982 216Q986 210 1022 211Q1104 211 1104 277T1071 344Q1030 344 982 216ZM866 248L902 354Q972 588 1072 588Q1195 588 1196 348Q1197 -29 1001 -29Q908 -29 905 -19L872 -140H755Q764 -91 783 -25Q657 -9
598 79Q525 187 525 438V682Q525 813 507 856Q484 909 457 909Q394 909 363 838Q328 757 328 641V0H37V1120H328V1012Q344 1063 374 1096Q422 1147 506 1147Q633 1147 724 1042T816 727V438Q816 270 866 248Z" />
<glyph unicode="&#x236;" glyph-name="uni0236" d="M854 216Q857 210 893 211Q976 211 976 277T943 344Q901 344 854 216ZM688 438Q687 270 737 248L774 354Q844 588 943 588Q1066 588 1067 348Q1069 -29 873 -29Q779 -29 777 -19L743 -140H627Q636 -91 655 -25Q529
-9 470 79Q397 187 397 438V895H111V1120H397V1438H690V1120H1073V895H690L688 438Z" />
<glyph unicode="&#x237;" glyph-name="dotlessj" d="M850 43Q850 -209 760 -316T459 -424H143V-199H377Q475 -199 516 -144T557 43V895H260V1120H850V43Z" />
<glyph unicode="&#x238;" glyph-name="uni0238" d="M229 719T229 557T266 303T370 211T475 303T514 557T476 811T371 903T267 811ZM1004 395T1004 557T967 811T863 903T758 811T719 557T757 303T862 211T966 303ZM719 961Q756 1054 806 1100T920 1147Q1059 1147
1134 995T1209 559Q1209 279 1135 125T927 -29Q856 -29 804 20T719 166V0H514V166Q481 69 429 20T306 -29Q172 -29 98 125T24 559Q24 843 99 995T313 1147Q376 1147 426 1101T514 961V1556H719V961Z" />
<glyph unicode="&#x239;" glyph-name="uni0239" d="M1004 399T1004 561T967 815T863 907T758 815T719 561T757 307T862 215T966 307ZM229 723T229 561T266 307T370 215T475 307T514 561T476 815T371 907T267 815ZM514 157Q476 64 426 18T313 -29Q174 -29 99 123T24
559Q24 839 98 993T306 1147Q377 1147 429 1098T514 952V1118H719V952Q752 1049 804 1098T927 1147Q1061 1147 1135 993T1209 559Q1209 275 1134 123T920 -29Q857 -29 807 17T719 157V-438H514V157Z" />
<glyph unicode="&#x23a;" glyph-name="uni023A" d="M436 1493H797L857 1272L1059 1559L1221 1444L924 1023L1200 0H905L813 369H461L395 275L328 0H201L156 -63L66 0H33L38 20L-6 51L79 172L436 1493ZM666 1003L616 1223L518 793L666 1003ZM633 612H756L726 743L633 612Z" />
<glyph unicode="&#x23b;" glyph-name="uni023B" d="M460 711L841 1250Q810 1255 786 1255Q624 1255 542 1127T459 745L463 720Q463 716 460 711ZM1081 43Q1011 7 934 -11T772 -29Q475 -29 316 164L156 -63L-6 51L210 356Q152 519 152 745Q152 1122 311 1321T772
1520Q857 1520 935 1502Q971 1494 1004 1482L1059 1559L1221 1444L1081 1246V1120Q1053 1146 1025 1167L507 433Q522 395 542 364Q624 236 786 236Q862 236 933 268T1081 371V43Z" />
<glyph unicode="&#x23c;" glyph-name="uni023C" d="M164 -117L25 2L231 247Q168 377 168 559Q168 836 315 992T721 1149Q811 1149 894 1128Q926 1120 957 1109L1063 1235L1202 1114L1061 947V795Q1023 828 981 851L530 317Q536 309 542 301Q619 211 762 211Q847
211 921 239T1061 326V57Q987 14 902 -7T719 -29Q486 -29 345 97L164 -117ZM466 526L788 908Q775 909 762 909Q619 909 542 818T465 559Q465 542 466 526Z" />
<glyph unicode="&#x23d;" glyph-name="uni023D" d="M278 730V1493H574V730H818V538H574V260H1204V0H278V538H28V730H278Z" />
<glyph unicode="&#x23e;" glyph-name="uni023E" d="M469 0V354L174 -63L12 51L469 698V1235H90V1493H1030L1077 1559L1239 1444L1143 1308V1235H1091L764 772V0H469ZM764 1116L848 1235H764V1116Z" />
<glyph unicode="&#x23f;" glyph-name="uni023F" d="M991 1085V829Q910 881 823 907T647 934Q549 934 499 906T449 821Q449 741 663 691L674 688L758 668Q918 630 992 546T1067 317Q1067 144 954 58T612 -29Q589 -29 566 -28L691 -193Q751 -273 910 -273H1055V-492H918Q638
-492 508 -319L332 -86Q322 -74 190 41V297Q287 242 387 213T582 184Q685 184 738 214T791 301Q791 357 754 387T575 451L494 469Q326 507 249 588T172 805Q172 967 289 1057T618 1147Q713 1147 807 1132T991 1085Z" />
<glyph unicode="&#x240;" glyph-name="uni0240" d="M186 1120H1081V891L419 140Q470 99 515 40L691 -193Q751 -273 910 -273H1081V-492H918Q638 -492 508 -319L332 -86Q267 0 162 0V229L752 901H186V1120Z" />
<glyph unicode="&#x241;" glyph-name="uni0241" d="M458 1213Q380 1213 379 1213Q336 1213 319 1192Q288 1156 286 1108Q285 1095 285 1061H30V1138Q30 1293 78 1359Q96 1383 129 1411Q204 1474 342 1488Q390 1492 458 1492L613 1493Q897 1494 1051 1366Q1203
1240 1203 1006Q1203 771 1051 645T613 518V0H318V797H660Q772 797 833 851T894 1006T833 1160Q772 1214 660 1214L458 1213Z" />
<glyph unicode="&#x244;" glyph-name="uni0244" d="M21 538V730H1212V538H21ZM106 551V1493H401V477Q401 365 458 302T616 238T774 301T831 477V1493H1126V551Q1126 247 1005 109T616 -29Q349 -29 228 109T106 551Z" />
<glyph unicode="&#x245;" glyph-name="uni0245" d="M617 1247L354 0H57L412 1493H821L1176 0H879L617 1247Z" />
<glyph unicode="&#x24c;" glyph-name="uni024C" d="M196 1493H559Q847 1493 972 1391T1098 1059Q1098 905 1023 814T807 705Q851 696 884 664Q915 632 963 537L1233 0H909L729 377Q708 420 708 421Q629 590 522 590H491V0H196V590H21V838H196V1493ZM491 1245V838H567Q688
838 740 885T793 1042T741 1198T567 1245H491Z" />
<glyph unicode="&#x24d;" glyph-name="uni024D" d="M1151 811Q1103 855 1039 877T897 899Q804 899 735 867T627 772Q603 734 594 680Q590 660 588 632H966V438H584V0H291V438H192V632H291V1120H584V946Q627 1042 716 1094T924 1147Q984 1147 1041 1133T1151 1090V811Z" />
<glyph unicode="&#x250;" glyph-name="uni0250" d="M518 592Q682 592 746 634Q812 676 812 778Q812 854 766 899Q722 944 644 944Q528 944 464 856Q400 769 400 612V592H518ZM110 479V1118H400V993Q454 1067 536 1107Q620 1147 720 1147Q910 1147 1017 1046T1124
764Q1124 568 996 474Q870 381 604 381H400V332Q400 261 452 224Q504 188 604 188Q708 188 807 214Q906 241 1012 299V49Q916 9 816 -10T604 -29Q330 -29 220 82T110 479Z" />
<glyph unicode="&#x251;" glyph-name="uni0251" d="M821 961V1119H1113V0H821V166Q774 69 700 20Q625 -29 524 -29Q332 -29 226 125T120 559Q120 843 228 995Q335 1147 534 1147Q624 1147 696 1100Q767 1054 821 961ZM413 719T413 557T467 303T616 211T766 303T821
557T766 811T616 903T467 811Z" />
<glyph unicode="&#x252;" glyph-name="uni0252" d="M412 157V-1H120V1118H412V952Q459 1049 534 1098Q608 1147 709 1147Q901 1147 1007 993T1113 559Q1113 275 1006 123Q898 -29 699 -29Q609 -29 538 18Q466 64 412 157ZM820 399T820 561T766 815T617 907T467
815T412 561T467 307T617 215T766 307Z" />
<glyph unicode="&#x253;" glyph-name="uni0253" d="M850 557Q850 719 796 811T647 903Q552 903 497 811T442 557Q442 395 497 303T647 211Q742 211 796 303T850 557ZM442 961Q496 1054 567 1100T729 1147Q928 1147 1035 995T1143 559Q1143 279 1037 125T739 -29Q638
-29 563 20T442 166V0H150V1088Q150 1340 240 1447T541 1555H857V1330H623Q525 1330 484 1275T442 1088V961Z" />
<glyph unicode="&#x254;" glyph-name="uni0254" d="M172 1063Q246 1106 331 1127T514 1149Q773 1149 919 993T1065 561Q1065 284 918 128T512 -29Q422 -29 339 -8T172 57V325Q236 270 312 241T471 211Q614 211 691 302T768 561Q768 729 691 819T471 909Q386 909
312 881T172 794V1063Z" />
<glyph unicode="&#x255;" glyph-name="uni0255" d="M662 232Q719 208 773 207H778Q925 207 924 264Q923 339 792 339Q709 339 662 232ZM507 334L510 351Q613 532 782 532Q1068 527 1071 294Q1076 -29 761 -29Q659 -29 655 -28Q652 -28 649 -27V-141L449 -140Q449
-47 450 24Q369 62 308 127Q162 283 162 559Q162 836 309 992Q456 1149 715 1149Q805 1149 888 1128Q972 1107 1055 1063V795Q991 850 914 880Q838 909 756 909Q613 909 536 818T459 559Q459 405 507 334Z" />
<glyph unicode="&#x256;" glyph-name="uni0256" d="M366 719T366 557T409 303T528 211T648 303T692 557T648 811T528 903T409 811ZM692 961V1556H982V136Q982 4 1004 -51T1080 -106H1101V-331H1004Q836 -331 764 -223Q692 -116 692 136V166Q655 69 595 20Q536
-29 455 -29Q275 -29 175 125Q77 279 77 559Q77 843 177 995T464 1147Q535 1147 592 1100Q649 1054 692 961Z" />
<glyph unicode="&#x257;" glyph-name="uni0257" d="M365 719T365 557T408 303T527 211T647 303T691 557T647 811T527 903T408 811ZM989 1088V0H691V166Q654 69 594 20T453 -29Q271 -29 171 125T70 559Q70 843 171 995T462 1147Q534 1147 591 1100Q648 1054 691
961L693 1088Q697 1344 766 1447Q838 1555 1006 1555H1103V1330H1082Q1030 1330 1009 1275Q989 1222 989 1088Z" />
<glyph unicode="&#x258;" glyph-name="uni0258" d="M135 55Q135 55 135 324Q242 261 340 232T539 203Q692 203 769 268T847 465H88V584Q88 852 226 1000Q363 1147 612 1147Q859 1147 1002 988T1145 555Q1145 272 996 122Q848 -29 567 -29Q449 -29 343 -8T135 55ZM383
685L844 684Q833 797 773 858Q713 920 612 920Q500 920 442 860Q385 801 383 685Z" />
<glyph unicode="&#x259;" glyph-name="uni0259" d="M92 534V653H851V663Q850 795 773 855T543 915Q442 915 344 886T139 794V1063Q241 1105 347 1126T571 1147Q852 1147 1000 997T1149 563Q1149 289 1006 130T616 -29Q367 -29 230 118T92 534ZM387 433Q389 317
446 258T616 198Q717 198 777 259T848 433H387Z" />
<glyph unicode="&#x25a;" glyph-name="uni025A" d="M607 540L289 295Q295 283 303 272Q348 209 420 209Q498 209 547 268Q595 326 607 436V540ZM869 736Q884 655 884 559Q884 285 760 128T418 -29Q220 -29 101 130Q37 216 7 334L584 777Q568 818 542 846Q483 909
379 909Q294 909 205 876Q116 842 22 774V1050Q118 1098 213 1122Q308 1147 403 1147Q631 1147 758 992Q777 969 793 942L958 1072L1108 1074V903Q1108 678 1111 671Q1140 616 1193 616H1226V436H1154Q1041 436 982 547Q958 638 958 804L869 736Z" />
<glyph unicode="&#x25b;" glyph-name="uni025B" d="M149 312Q149 433 229 508T461 604Q326 623 254 686T182 850Q182 985 307 1062T657 1140Q763 1140 822 1131T1002 1092V877Q897 911 823 924T689 938Q571 938 512 905T453 818Q453 774 510 742T672 710H823V487H672Q551
487 485 440T418 326Q418 265 485 223T686 181Q786 181 856 193T1045 253V34Q911 -2 830 -12T638 -22Q414 -22 282 64T149 312Z" />
<glyph unicode="&#x25c;" glyph-name="uni025C" d="M809 573Q961 550 1046 476T1131 273Q1131 161 973 70T520 -22Q422 -22 318 -8T102 34V270Q190 236 295 219T514 201Q627 201 696 221T765 330Q765 409 685 435T555 462H372V681H489Q593 681 665 708T738 804Q738
853 671 884T481 915Q477 915 381 905T149 863V1099Q270 1123 375 1135T573 1147Q814 1147 954 1068T1094 816Q1094 729 1022 664T809 573Z" />
<glyph unicode="&#x25d;" glyph-name="uni025D" d="M579 573Q693 550 756 476Q820 402 820 273Q820 161 701 69Q584 -22 362 -22Q288 -22 210 -8T48 34V270Q115 236 193 219Q272 201 357 201Q429 201 468 216Q546 246 546 330Q546 409 473 441Q426 462 388 462H251V681H339Q414
681 463 705Q526 735 526 804Q526 850 462 891Q424 915 333 915Q330 915 248 903Q186 894 84 863V1099Q174 1123 254 1135Q333 1147 402 1147Q582 1147 687 1068Q749 1022 774 944L933 1072L1083 1074V903Q1083 690 1092 671Q1120 616 1152 616H1185V436H1113Q1023
436 963 547Q933 638 933 804L699 623L698 626Q650 590 579 573Z" />
<glyph unicode="&#x25e;" glyph-name="uni025E" d="M649 915Q384 915 383 552Q383 188 681 188Q751 188 791 216Q844 253 844 316Q844 388 786 420Q748 442 674 442H542V661H675Q739 661 781 684Q844 718 844 792Q844 847 785 882Q728 916 649 915ZM409 1099Q498
1144 696 1145Q904 1145 1015 1059Q1125 972 1125 824Q1125 726 1067 650Q1011 578 876 552Q1007 526 1067 453Q1125 382 1125 279Q1125 131 1015 45Q906 -41 696 -42Q498 -43 409 18Q108 220 108 552Q108 948 409 1099Z" />
<glyph unicode="&#x25f;" glyph-name="uni025F" d="M850 43Q850 -209 760 -316T459 -424H143V-199H377Q475 -199 516 -144T557 43V438H278V632H557V895H260V1120H850V632H1052V438H850V43Z" />
<glyph unicode="&#x260;" glyph-name="uni0260" d="M502 887Q413 887 364 805Q314 723 314 573Q314 419 362 340Q410 260 502 260Q592 260 641 342Q691 424 691 573V887H502ZM691 190Q632 92 560 46Q489 0 396 0Q232 0 124 162Q17 323 17 573Q17 799 124 960Q232
1120 396 1120H691H693Q698 1324 780 1438Q867 1556 991 1556H1216V1321H1083Q1041 1321 1011 1275Q980 1229 980 1094V874H979V113Q979 -141 842 -284Q706 -426 447 -426Q363 -426 284 -410Q206 -394 127 -361V-98Q202 -152 274 -178Q346 -205 419 -205Q560 -205
625 -128Q691 -51 691 113V190Z" />
<glyph unicode="&#x261;" glyph-name="uni0261" d="M814 190Q753 92 680 46T512 0Q343 0 234 162Q124 323 124 573Q124 799 234 960Q343 1120 512 1120H814H1109V113Q1109 -141 970 -284Q830 -426 564 -426Q478 -426 398 -410Q317 -394 236 -361V-98Q313 -152
387 -178Q461 -205 535 -205Q680 -205 747 -128T814 113V190ZM621 887Q530 887 479 805T428 573Q428 419 477 340Q526 260 621 260Q712 260 763 342T814 573V887H621Z" />
<glyph unicode="&#x262;" glyph-name="uni0262" d="M1079 101Q986 51 885 25Q785 0 678 0Q436 0 295 151Q154 301 154 559Q154 820 298 970Q442 1119 692 1119Q788 1119 877 1099Q965 1079 1044 1039V803Q963 852 883 876Q802 900 722 900Q573 900 492 811Q412
723 412 559Q412 397 489 308Q567 219 710 219Q749 219 783 225Q816 230 843 241L841 409H593V630H1079V101Z" />
<glyph unicode="&#x263;" glyph-name="uni0263" d="M791 590Q1034 208 1036 -179Q1037 -411 628 -415Q178 -420 177 -179Q176 163 442 588L98 1135H421L615 803L812 1135H1135L791 590ZM615 369Q424 59 427 -67Q429 -191 610 -191Q784 -191 784 -67Q784 95 615 369Z" />
<glyph unicode="&#x264;" glyph-name="uni0264" d="M614 136Q659 136 659 223Q659 282 615 354Q571 280 571 223Q571 140 614 136ZM437 586L98 1120H421L615 788L812 1120H1135L790 575Q941 336 942 132Q945 -120 617 -120Q280 -120 280 132Q280 344 437 586Z" />
<glyph unicode="&#x265;" glyph-name="uni0265" d="M167 391V1118H458V436Q458 315 492 263Q527 211 605 211Q685 211 730 282Q775 352 775 477V1118H1066V-438H775V166Q744 73 669 22T488 -29Q329 -29 248 76Q167 182 167 391Z" />
<glyph unicode="&#x266;" glyph-name="uni0266" d="M1066 727V0H775V682Q775 803 740 855Q706 907 628 907Q548 907 503 836Q458 766 458 641V0H167V1088Q167 1340 258 1447Q348 1555 558 1555H679V1330H640Q540 1330 499 1275T458 1088V952Q489 1045 564 1096T745
1147Q904 1147 985 1042Q1066 936 1066 727Z" />
<glyph unicode="&#x267;" glyph-name="uni0267" d="M775 41V682Q775 803 740 855Q706 907 628 907Q548 907 503 836Q458 766 458 641V0H167V1088Q167 1340 258 1447Q348 1555 558 1555H679V1330H640Q540 1330 499 1275T458 1088V952Q489 1045 564 1096T745 1147Q904
1147 985 1042Q1066 936 1066 727L1065 0Q1058 -220 975 -318Q885 -426 675 -426H554V-201H593Q693 -201 734 -146T775 41Z" />
<glyph unicode="&#x268;" glyph-name="uni0268" d="M406 1556H764V1264H406V1556ZM184 1120H764V632H966V438H764V225H1128V0H106V225H470V438H192V632H470V895H184V1120Z" />
<glyph unicode="&#x269;" glyph-name="uni0269" d="M430 895H144V1120H724V460Q724 318 762 272Q800 227 902 226L1088 225V-3H854Q649 -3 540 115Q430 235 430 459V895Z" />
<glyph unicode="&#x26a;" glyph-name="uni026A" d="M764 895V225H1128V0H106V225H470V895H106V1120H1128V895H764Z" />
<glyph unicode="&#x26b;" glyph-name="uni026B" d="M1144 811V578Q1070 518 998 490Q926 463 848 463Q794 463 732 481V465Q732 333 772 278Q814 223 912 223H1146V-2H830Q620 -2 530 106Q438 214 438 465V582Q409 586 380 586Q302 586 232 557T88 465V694Q166
755 238 782Q312 809 394 809Q416 809 438 807V1329H142V1554H732V709Q803 686 864 686Q934 686 1002 716Q1072 747 1144 811Z" />
<glyph unicode="&#x26c;" glyph-name="uni026C" d="M386 816Q358 842 327 842Q268 842 269 792Q270 736 320 736H416Q404 799 386 816ZM711 579V467Q711 335 752 280T891 225H1125V0H809Q600 0 509 108T418 467V578H295Q111 579 108 786Q106 1020 315 1019Q379
1018 418 977V1331H121V1556H711V736H980V580L711 579Z" />
<glyph unicode="&#x26d;" glyph-name="uni026D" d="M412 23V1331H114V1556H704V23Q704 -109 746 -164Q786 -219 884 -219H1118V-444H802Q594 -444 502 -336Q412 -228 412 23Z" />
<glyph unicode="&#x26e;" glyph-name="uni026E" d="M598 452L890 901H469V467Q469 335 499 280T604 225H779V0H542Q386 0 318 108T249 467V1331H26V1556H469V1120H1137V891L844 436Q952 427 1011 404Q1094 371 1154 258Q1207 156 1207 13Q1207 -209 1092 -324Q977
-440 757 -440Q680 -440 602 -422Q524 -403 447 -366V-69Q518 -122 591 -150T734 -178Q837 -178 891 -125T946 27Q946 129 890 182Q834 234 724 234H598V452Z" />
<glyph unicode="&#x26f;" glyph-name="uni026F" d="M545 112Q512 41 461 7T336 -27Q191 -27 136 73Q80 173 80 489V1120H320V401Q320 276 339 234T408 192T478 235T498 401V1120H735V401Q735 278 755 235T825 192T894 234T913 401V1120H1153V0H940V116Q915 50
860 12Q805 -27 737 -27T613 14Q557 54 545 112Z" />
<glyph unicode="&#x270;" glyph-name="uni0270" d="M545 112Q512 41 461 7T336 -27Q191 -27 136 73Q80 173 80 489V1120H320V401Q320 276 339 234T408 192T478 235T498 401V1120H735V401Q735 278 755 235T825 192T894 234T913 401V1120H1153V-426H940V116Q915
50 860 12Q805 -27 737 -27T613 14Q557 54 545 112Z" />
<glyph unicode="&#x271;" glyph-name="uni0271" d="M688 1008Q721 1078 772 1113Q822 1147 897 1147Q1043 1147 1098 1047Q1153 947 1153 631V0Q1149 -218 1078 -318Q1004 -426 830 -426H731V-201H763Q845 -201 879 -146Q913 -91 913 41V719Q913 845 894 886Q874
928 825 928Q774 928 755 885Q735 840 735 719V0H498V719Q498 840 478 885Q459 928 408 928Q358 928 339 886Q320 845 320 719V0H80V1120H293V1004Q319 1072 373 1108Q428 1147 496 1147Q564 1147 620 1106T688 1008Z" />
<glyph unicode="&#x272;" glyph-name="uni0272" d="M1169 682V0H872V111V522Q872 667 867 722Q861 777 848 803Q831 838 801 858Q771 877 733 877Q641 877 588 790Q535 704 535 551V240V20V0Q535 -203 445 -324Q356 -442 186 -442H64V-207H92Q174 -207 207 -161T240
20V240V1120H535V956Q602 1054 677 1100Q752 1147 843 1147Q1003 1147 1086 1028T1169 682Z" />
<glyph unicode="&#x273;" glyph-name="uni0273" d="M695 722Q695 767 676 803T629 858Q600 877 561 877Q476 877 416 790Q363 715 363 551V0H68V1120H363V956Q430 1054 505 1100Q581 1147 671 1147Q832 1147 914 1028Q997 908 997 682V20Q997 -114 1028 -161Q1058
-207 1143 -207H1165V-442H1048Q879 -442 790 -324Q695 -196 695 0V722Z" />
<glyph unicode="&#x274;" glyph-name="uni0274" d="M120 1120H507L784 469V1120H1113V0H726L449 651V0H120V1120Z" />
<glyph unicode="&#x275;" glyph-name="uni0275" d="M98 288T98 559T238 988Q379 1147 616 1147Q854 1147 994 988Q1135 830 1135 559T994 130Q854 -29 616 -29Q379 -29 238 130Q98 288 98 559ZM616 909Q511 909 451 816Q405 745 394 632H802H839Q828 745 782 816Q722
909 616 909ZM832 438H444H401Q415 357 451 302Q511 209 616 209Q722 209 782 302Q818 357 832 438Z" />
<glyph unicode="&#x276;" glyph-name="uni0276" d="M622 902H547Q430 902 372 817T314 561Q314 389 372 304Q430 218 547 218H622V902ZM575 1120H1146V902H865V693H1127V475H865V218H1158V0H575Q569 0 557 -1T539 -2Q315 -2 195 144T75 561Q75 831 195 976T539
1121Q544 1121 557 1120Q569 1120 575 1120Z" />
<glyph unicode="&#x277;" glyph-name="uni0277" d="M813 566Q813 919 617 920Q420 920 420 564Q420 404 435 334T470 264Q501 264 511 342Q518 399 518 490V596H715V488Q715 392 722 347Q735 264 759 264Q783 263 795 343Q813 461 813 566ZM1109 828Q1150 725
1151 496Q1151 255 1073 128Q995 0 862 0Q773 0 705 68Q641 132 617 288Q593 137 528 68Q464 0 371 0Q238 0 161 128Q83 254 82 496Q81 709 125 828Q251 1176 617 1176Q973 1176 1109 828Z" />
<glyph unicode="&#x278;" glyph-name="uni0278" d="M20 288T20 559T182 988Q297 1102 470 1134V1335H173V1560H470H763H1060V1335H763V1134Q936 1102 1051 988Q1213 830 1213 559T1051 130Q936 16 763 -16V-201H1060V-426H763H470H173V-201H470V-16Q297 16 182
130Q20 288 20 559ZM470 246V872Q435 850 407 816Q331 724 331 559T407 302Q435 268 470 246ZM763 871V247Q798 268 826 302Q902 394 902 559T826 816Q798 850 763 871Z" />
<glyph unicode="&#x279;" glyph-name="uni0279" d="M186 309Q234 265 299 243T440 221Q534 221 603 254Q672 286 710 348Q734 386 744 440T754 604V1120H1046V0H754V174Q710 78 622 26Q532 -27 414 -27Q354 -27 296 -12Q238 2 186 30V309Z" />
<glyph unicode="&#x27a;" glyph-name="uni027A" d="M186 309Q234 265 299 243T440 221Q534 221 603 254Q672 286 710 348Q733 383 744 440Q754 487 754 604V1554H1046V0H754V174Q710 78 622 26Q532 -27 414 -27Q354 -27 296 -12Q238 2 186 30V309Z" />
<glyph unicode="&#x27b;" glyph-name="uni027B" d="M77 309Q125 265 190 243Q254 221 331 221Q424 221 494 254Q563 286 601 348Q625 386 634 440Q644 494 644 604V1120H937L936 0Q936 -92 976 -146Q1017 -201 1117 -201H1156V-426H1035Q825 -426 735 -318Q652
-220 645 0H644V41V174Q601 78 512 26Q423 -27 304 -27Q244 -27 186 -12Q129 2 77 30V309Z" />
<glyph unicode="&#x27c;" glyph-name="uni027C" d="M1046 811Q998 855 934 877T792 899Q700 899 630 866Q560 834 522 772Q498 734 489 680T480 516V-426H186V1120H480V946Q522 1042 612 1094Q700 1147 820 1147Q880 1147 937 1132Q994 1118 1046 1090V811Z" />
<glyph unicode="&#x27d;" glyph-name="uni027D" d="M1046 811Q998 855 934 877T792 899Q700 899 630 866Q560 834 522 772Q498 734 489 680T480 516V41Q480 -91 520 -146Q562 -201 664 -201H702V-426H582Q372 -426 282 -318Q186 -206 186 41V1120H480V946Q522
1042 612 1094Q700 1147 820 1147Q880 1147 937 1132Q994 1118 1046 1090V811Z" />
<glyph unicode="&#x27e;" glyph-name="uni027E" d="M136 0V225H422V741Q422 959 510 1040Q600 1120 852 1120H1098V895H872Q788 895 751 862Q714 830 714 755V225H1098V0H136Z" />
<glyph unicode="&#x27f;" glyph-name="uni027F" d="M136 0V225H518V755Q518 830 482 862Q446 895 360 895H136V1120H382Q634 1120 722 1040Q812 959 812 741V225H1098V0H136Z" />
<glyph unicode="&#x280;" glyph-name="uni0280" d="M704 529Q746 521 776 498Q833 453 854 427Q864 415 872 403L1128 0H776L606 283Q598 295 586 316Q534 403 495 426Q468 442 432 442H414V0H104V1120H468Q741 1120 860 1043Q980 967 980 794Q980 678 908 610Q838
543 704 529ZM414 894V648H476Q563 648 604 676L616 684Q665 724 666 782Q666 819 635 844Q628 850 616 858Q573 890 507 893Q493 894 476 894H414Z" />
<glyph unicode="&#x281;" glyph-name="uni0281" d="M502 490H423V219H502Q593 219 632 249Q672 281 672 353Q672 426 632 458Q593 490 502 490ZM423 711H460Q535 711 580 742Q623 771 660 842L805 1120H1168L1001 802Q950 705 900 658Q850 610 787 596Q902 563
959 492Q1016 420 1016 309Q1016 149 906 74Q796 0 560 0H65V1120H423V711Z" />
<glyph unicode="&#x282;" glyph-name="uni0282" d="M988 1085V829Q907 881 820 908Q732 934 644 934Q546 934 496 906Q446 877 446 821Q446 741 660 691L671 688L755 668Q915 630 990 546Q1064 461 1064 317Q1064 144 950 58Q837 -29 609 -29Q546 -29 481 -22Q489
-105 519 -146Q560 -201 660 -201H699V-426H578Q368 -426 278 -318Q187 -211 187 41V297Q284 242 384 213Q485 184 579 184Q682 184 735 214T788 301Q788 357 750 387Q713 417 572 451L491 469Q323 507 246 588T169 805Q169 967 286 1057T615 1147Q710 1147 804
1132Q899 1116 988 1085Z" />
<glyph unicode="&#x283;" glyph-name="uni0283" d="M798 0Q792 -217 708 -316Q616 -424 407 -424H91V-199H325Q424 -199 464 -144Q505 -88 505 43V1198Q505 1400 589 1478T901 1556H1142V1331H913Q846 1331 824 1307Q800 1282 798 1218V0Z" />
<glyph unicode="&#x284;" glyph-name="uni0284" d="M798 438V0H797Q790 -218 708 -316Q617 -424 407 -424H91V-199H325Q423 -199 464 -144T505 43V438H226V632H505V895H208V1120H505V1198Q505 1400 589 1478T901 1556H1142V1331H913Q847 1331 824 1307T798 1218V632H1000V438H798Z"
/>
<glyph unicode="&#x285;" glyph-name="uni0285" d="M435 0V1218Q434 1282 409 1307Q386 1331 320 1331H91V1556H332Q560 1556 644 1478T728 1198V43Q728 -88 769 -144Q809 -199 908 -199H1142V-424H826Q616 -424 525 -316Q441 -217 435 0Z" />
<glyph unicode="&#x286;" glyph-name="uni0286" d="M798 145H937H1105V-65Q1049 -66 933 -66H796Q783 -227 708 -316Q616 -424 407 -424H357V-423Q55 -413 59 -131Q62 145 370 145H505V1198Q505 1400 589 1478T901 1556H1142V1331H913Q849 1331 824 1307Q798 1282
798 1218V145ZM496 -65Q443 -65 371 -65Q266 -65 265 -141Q264 -194 328 -199Q424 -198 464 -144Q485 -115 496 -65ZM328 -199H357H328Z" />
<glyph unicode="&#x287;" glyph-name="uni0287" d="M518 -318V0H136V225H518V755Q518 830 482 862Q446 895 360 895H136V1120H382Q634 1120 722 1040Q812 959 812 741V225H1098V0H812V-318H518Z" />
<glyph unicode="&#x288;" glyph-name="uni0288" d="M714 1438V1120H1098V895H714V-61Q714 -136 751 -168Q788 -201 872 -201H1098V-426H852Q600 -426 510 -346Q422 -265 422 -47V895H136V1120H422V1438H714Z" />
<glyph unicode="&#x289;" glyph-name="uni0289" d="M1072 438V0H778V166Q748 73 673 22T494 -29Q334 -29 252 77T170 391V438H88V632H170V1120H464V632H778V1120H1072V632H1144V438H1072ZM777 438H464V436Q464 315 498 263T610 211Q690 211 734 281Q771 340 777 438Z" />
<glyph unicode="&#x28a;" glyph-name="uni028A" d="M550 837Q486 761 456 680Q413 565 413 458Q413 316 470 228Q527 141 621 141Q716 141 772 228Q829 316 829 458Q829 565 786 680Q755 764 691 836V1120H1148V923H942Q1018 864 1087 731Q1143 623 1143 465Q1143
211 997 54Q851 -104 619 -104Q388 -104 242 53T96 457Q96 619 150 731Q212 858 291 923H85V1120H550V837Z" />
<glyph unicode="&#x28b;" glyph-name="uni028B" d="M977 1027Q1042 968 1101 835Q1149 727 1149 569Q1149 315 1024 158Q899 0 701 0L590 -2Q426 -5 335 116Q245 236 245 460V774V895H84V1120H245H538V774V460Q538 291 546 279Q580 227 617 231L634 233Q730 233
798 330Q859 418 859 560Q859 667 812 782Q779 866 711 938L709 1120Q881 1115 977 1027Z" />
<glyph unicode="&#x28c;" glyph-name="uni028C" d="M80 0L436 1120H797L1153 0H856L617 874L377 0H80Z" />
<glyph unicode="&#x28d;" glyph-name="uni028D" d="M1233 0H988L855 772L722 0H511L379 764L245 0H0L208 1120H484L617 350L749 1120H1025L1233 0Z" />
<glyph unicode="&#x28e;" glyph-name="uni028E" d="M523 1241Q582 1399 664 1472Q747 1544 865 1544H1107V1321H988Q898 1321 856 1290Q814 1260 771 1149L749 1089L1175 0H867L611 727L366 0H58L523 1241Z" />
<glyph unicode="&#x28f;" glyph-name="uni028F" d="M68 1120H403L616 775L828 1120H1165L755 472V0H478V472L68 1120Z" />
<glyph unicode="&#x290;" glyph-name="uni0290" d="M70 1120H966V891L376 219H966V41Q966 -91 1006 -146Q1048 -201 1148 -201H1186V-426H1066Q856 -426 766 -318Q682 -220 675 0H46V229L636 901H70V1120Z" />
<glyph unicode="&#x291;" glyph-name="uni0291" d="M850 220H889Q927 220 930 277Q935 348 903 352Q856 358 850 220ZM142 1120H1037V891L448 219H666Q688 337 738 428Q831 599 909 599Q1111 599 1115 323Q1119 0 876 0H844Q844 -48 847 -112L644 -111Q644 -56
647 0H118V229L708 901H142V1120Z" />
<glyph unicode="&#x292;" glyph-name="uni0292" d="M311 452L701 901H135V1120H1030V891L639 436Q784 427 862 404Q975 371 1052 258Q1123 156 1123 13Q1123 -209 970 -324Q817 -440 523 -440Q420 -440 316 -422Q212 -403 110 -366V-69Q207 -123 303 -150Q399
-178 492 -178Q630 -178 703 -125T776 27Q776 129 701 182Q626 234 479 234H311V452Z" />
<glyph unicode="&#x293;" glyph-name="uni0293" d="M708 -125Q665 -60 477 -51Q328 -45 327 -130Q326 -182 466 -183Q478 -183 491 -183Q590 -181 642 -162Q681 -148 708 -125ZM321 452L711 901H145V1120H1040V891L648 436Q794 427 871 404Q984 371 1062 258Q1132
156 1132 13Q1132 -209 979 -324Q997 -370 997 -410L827 -416V-404L820 -405Q672 -440 509 -440L511 -438H509Q98 -417 101 -116Q104 159 476 159Q656 159 783 68Q770 140 711 182Q636 234 489 234H321V452Z" />
<glyph unicode="&#x294;" glyph-name="uni0294" d="M344 736H428Q623 736 701 850Q752 926 752 997Q751 1093 700 1159Q611 1273 450 1273Q378 1273 306 1251Q236 1230 166 1187V1485Q234 1520 307 1537Q380 1555 543 1555Q759 1556 948 1345Q1067 1212 1067 997Q1067
766 927 621Q836 527 666 496V0H344V736Z" />
<glyph unicode="&#x295;" glyph-name="uni0295" d="M889 736V0H567V496Q397 527 306 621Q166 766 166 997Q166 1212 285 1345Q474 1556 690 1555Q853 1555 926 1537Q999 1520 1067 1485V1187Q997 1230 927 1251Q855 1273 783 1273Q622 1273 533 1159Q482 1093
481 997Q481 926 532 850Q610 736 805 736H889Z" />
<glyph unicode="&#x296;" glyph-name="uni0296" d="M344 819V1555H666V1059Q836 1028 927 934Q1067 789 1067 558Q1067 343 948 210Q759 -1 543 0Q380 0 307 18Q234 35 166 70V368Q236 325 306 304Q378 282 450 282Q611 282 700 396Q751 462 752 558Q752 629 701
705Q623 819 428 819H344Z" />
<glyph unicode="&#x297;" glyph-name="uni0297" d="M481 132Q482 36 533 -30Q622 -144 783 -144Q855 -144 927 -122Q997 -101 1067 -58V-356Q999 -391 926 -408Q853 -426 690 -426Q474 -427 285 -216Q166 -83 166 132V997Q166 1212 285 1345Q474 1556 690 1555Q853
1555 926 1537Q999 1520 1067 1485V1187Q997 1230 927 1251Q855 1273 783 1273Q622 1273 533 1159Q481 1092 481 997V132Z" />
<glyph unicode="&#x298;" glyph-name="uni0298" d="M325 566Q325 432 412 338Q497 244 618 244Q738 244 823 338T908 566Q908 697 822 794T618 891Q497 891 412 794Q325 697 325 566ZM55 565Q55 818 221 1005Q386 1192 619 1192Q847 1192 1013 1005Q1178 818 1178
565Q1178 306 1015 125Q852 -57 619 -57T221 125Q55 306 55 565ZM499 567Q499 620 534 659Q568 698 617 698Q677 698 700 659Q734 612 734 567Q734 513 700 475T617 437T534 475Q499 513 499 567Z" />
<glyph unicode="&#x299;" glyph-name="uni0299" d="M447 465V262H614Q708 262 755 287T802 364Q802 415 755 440T614 465H447ZM447 895V698H603Q675 698 714 722T753 796Q753 844 715 869T603 895H447ZM119 1120H587Q839 1120 952 1050T1065 824Q1065 742 1024
685T904 599Q1004 572 1059 500T1114 321Q1114 159 996 80T636 0H119V1120Z" />
<glyph unicode="&#x29a;" glyph-name="uni029A" d="M584 188Q849 188 850 551Q850 915 552 915Q482 915 442 887Q389 850 389 787Q389 715 447 683Q485 661 559 661H691V442H558Q494 442 452 419Q389 385 389 311Q389 256 448 221Q505 187 584 188ZM824 4Q735
-41 537 -42Q329 -42 218 44Q108 131 108 279Q108 377 166 453Q222 525 357 551Q226 577 166 650Q108 721 108 824Q108 972 218 1058Q327 1144 537 1145Q735 1146 824 1085Q1125 883 1125 551Q1125 155 824 4Z" />
<glyph unicode="&#x29b;" glyph-name="uni029B" d="M987 101Q893 51 793 25Q693 0 586 0Q344 0 203 151Q61 301 61 559Q61 820 205 970Q349 1119 599 1119Q630 1119 660 1117Q665 1346 751 1447Q841 1555 1051 1555H1172V1330H1133Q1033 1330 992 1275T951 1088V803Q870
852 790 876T630 900Q481 900 400 811Q319 723 319 559Q319 397 397 308T618 219Q657 219 690 225Q724 230 750 241L749 409H501V630H987V101Z" />
<glyph unicode="&#x29c;" glyph-name="uni029C" d="M120 1120H446V715H787V1120H1113V0H787V463H446V0H120V1120Z" />
<glyph unicode="&#x29d;" glyph-name="uni029D" d="M972 1323H679V1665H972V1323ZM972 144H1140V-66Q1084 -67 968 -67H967Q951 -233 881 -316Q791 -423 581 -424L392 -425V-424Q90 -414 94 -132Q97 144 405 144H678H679V895H382V1120H972V144ZM669 -67Q648 -66
406 -66Q301 -66 300 -142Q299 -206 392 -200L499 -199Q597 -198 638 -144Q659 -116 669 -67Z" />
<glyph unicode="&#x29e;" glyph-name="uni029E" d="M1128 -426H836V381L484 0H128L552 418L104 1120H428L736 596L836 692V1120H1128V-426Z" />
<glyph unicode="&#x29f;" glyph-name="uni029F" d="M236 1120H560L559 291H998V0H235L236 1120Z" />
<glyph unicode="&#x2a0;" glyph-name="uni02A0" d="M693 158Q651 67 592 18Q535 -29 463 -29Q275 -29 173 123T71 559Q71 839 171 993T454 1147Q536 1147 596 1098Q655 1049 693 952V1088H691Q691 1338 764 1447Q836 1555 1004 1555H1101V1330H1080Q1026 1330
1004 1275Q982 1221 982 1120V-426H693V158ZM366 723T366 561T410 307Q453 215 529 215T649 307T693 561T649 815T529 907T410 815Q366 723 366 561Z" />
<glyph unicode="&#x2a1;" glyph-name="uni02A1" d="M364 736H448Q643 736 721 850Q772 926 772 997Q772 1093 720 1159Q631 1273 470 1273Q398 1273 326 1251Q256 1230 186 1187V1485Q254 1520 327 1537Q400 1555 563 1555Q780 1555 968 1345Q1087 1212 1087 997Q1087
766 947 621Q856 527 686 496V384H718H919V190H686V0H364V190H360H146V384H364V736Z" />
<glyph unicode="&#x2a2;" glyph-name="uni02A2" d="M547 384V496Q377 527 286 621Q146 766 146 997Q146 1212 265 1345Q453 1555 670 1555Q833 1555 906 1537Q979 1520 1047 1485V1187Q977 1230 907 1251Q835 1273 763 1273Q602 1273 513 1159Q461 1093 461 997Q461
926 512 850Q590 736 785 736H869V384H1087V190H873H869V0H547V190H314V384H515H547Z" />
<glyph unicode="&#x2a3;" glyph-name="uni02A3" d="M227 719T227 557T259 303Q292 211 349 211T439 303T472 557T439 811T349 903T259 811Q227 719 227 557ZM472 961V1556H647V1120H1182V891L829 219H1182V0H647H631H472V166Q443 69 399 20Q354 -29 293 -29Q178
-29 115 125Q51 279 51 559Q51 843 116 995Q180 1147 299 1147Q353 1147 396 1100Q439 1054 472 961ZM647 901V259L985 901H647Z" />
<glyph unicode="&#x2a4;" glyph-name="uni02A4" d="M723 444L957 893H619V-8H444V158Q416 61 371 12T266 -37Q151 -37 87 117T23 551Q23 835 88 987Q152 1139 272 1139Q326 1139 369 1092Q412 1046 444 953V1548H619V1112H1154V883L919 428Q1007 419 1053 396Q1121
363 1167 250Q1210 148 1210 5Q1210 -217 1118 -332Q1026 -448 850 -448Q788 -448 726 -430Q663 -411 602 -374V-77Q661 -131 718 -158Q776 -186 831 -186Q914 -186 958 -133T1002 19Q1002 121 957 174Q912 226 824 226H723V444ZM199 711T199 549T232 295Q264 203
321 203T411 295T444 549T411 803T321 895T232 803Q199 711 199 549Z" />
<glyph unicode="&#x2a5;" glyph-name="uni02A5" d="M1047 220H1070Q1092 220 1095 277Q1098 348 1078 352Q1050 358 1047 220ZM203 719T203 557T236 303Q268 211 325 211T415 303T448 557T415 811T325 903T236 811Q203 719 203 557ZM448 961V1556H623V1120H1159V891L805
219H936Q949 337 979 428Q1035 599 1082 599Q1203 599 1205 323Q1208 0 1062 0H1043Q1043 -48 1045 -112L923 -111Q923 -56 925 0H623H607H448V166Q420 69 375 20Q331 -29 270 -29Q155 -29 91 125Q28 279 28 559Q28 843 92 995Q157 1147 276 1147Q330 1147 373
1100Q416 1054 448 961ZM623 901V259L961 901H623Z" />
<glyph unicode="&#x2a6;" glyph-name="uni02A6" d="M1122 1085V829Q1073 881 1021 908Q968 934 915 934Q856 934 826 906Q796 877 796 821Q796 749 925 691L932 688L982 668Q1078 629 1123 546Q1167 461 1167 317Q1167 144 1099 58Q1031 -29 894 -29Q834 -29 770
-12Q707 6 643 40V0H495Q344 0 291 80Q237 161 237 379V895H66V1120H237V1438H413V1120H643V931Q660 1006 700 1057Q771 1147 898 1147Q955 1147 1012 1132Q1068 1116 1122 1085ZM641 225V297Q699 242 760 213Q820 184 876 184Q938 184 970 214T1002 301Q1002 357
979 387Q954 421 872 451L824 469Q723 506 676 588Q630 669 630 805Q630 853 636 895H413V365Q413 290 435 258Q457 225 508 225H641Z" />
<glyph unicode="&#x2a7;" glyph-name="uni02A7" d="M484 1438V1120H714V1198Q714 1400 764 1478Q815 1556 952 1556H1096V1331H959Q919 1331 905 1307T890 1218V1120V895V43V0Q885 -218 836 -316Q781 -424 655 -424H466V-199H606Q665 -199 689 -144Q710 -98 713
0H566Q415 0 362 80Q308 161 308 379V895H137V1120H308V1438H484ZM714 225V895H484V365Q484 290 506 258Q528 225 579 225H714Z" />
<glyph unicode="&#x2a8;" glyph-name="uni02A8" d="M429 1438V1120H659V916Q674 957 694 992Q783 1149 938 1149Q992 1149 1042 1128Q1092 1107 1142 1063V795Q1103 850 1057 880Q1012 909 962 909Q877 909 831 818T784 559Q784 405 813 334L815 351Q877 532 978
532Q1149 527 1151 294Q1154 -29 965 -29Q904 -29 902 -28Q900 -28 898 -27V-141L778 -140Q778 -47 779 24Q730 62 694 127Q674 162 659 202V0H511Q360 0 306 80Q253 161 253 379V895H81V1120H253V1438H429ZM906 232Q940 208 973 207H976Q1064 207 1063 264Q1062
339 984 339Q934 339 906 232ZM652 895H429V365Q429 290 451 258Q473 225 524 225H651Q606 361 606 559Q606 758 652 895Z" />
<glyph unicode="&#x2a9;" glyph-name="uni02A9" d="M413 1218V1120H620H794V952Q813 1045 858 1096T966 1147Q1062 1147 1110 1042Q1159 935 1159 727V43Q1159 -209 1104 -316Q1050 -424 924 -424H852V-199H875Q935 -199 960 -144Q984 -89 984 43V682Q984 804
964 856Q943 909 896 909T821 838Q794 767 794 641V0H620V895H413V0H237V895H74V1120H237V1198Q237 1400 288 1478Q338 1556 475 1556H620V1331H482Q442 1331 428 1307T413 1218Z" />
<glyph unicode="&#x2aa;" glyph-name="uni02AA" d="M1135 1085V829Q1087 881 1034 908Q982 934 929 934Q870 934 840 906Q810 877 810 821Q810 749 938 691L945 688L995 668Q1091 629 1136 546Q1181 461 1181 317Q1181 144 1113 58Q1045 -29 908 -29Q847 -29 784
-12Q720 6 655 41V0H465Q340 0 285 108T230 467V1331H52V1556H406V467Q406 335 431 280Q455 225 514 225H655V297Q713 242 773 213T890 184Q952 184 983 214Q1015 244 1015 301Q1015 357 993 387Q967 421 886 451L837 469Q737 506 690 588Q644 669 644 805Q644
967 714 1057T911 1147Q968 1147 1025 1132Q1082 1116 1135 1085Z" />
<glyph unicode="&#x2ab;" glyph-name="uni02AB" d="M224 467V1331H46V1556H400V467Q400 335 426 280Q450 225 508 225H636L989 896H650V1115H1186V886L833 214H1186V-5H635V0H460Q334 0 279 108T224 467Z" />
<glyph unicode="&#x2ac;" glyph-name="uni02AC" d="M57 627H280L400 195L521 627H712L833 199L954 627H1176L988 0H737L616 431L496 0H246L57 627ZM57 1312H280L400 880L521 1312H712L833 884L954 1312H1176L988 685H737L616 1116L496 685H246L57 1312Z" />
<glyph unicode="&#x2ad;" glyph-name="uni02AD" d="M429 177H286V627H947V177H804V474H429V177ZM429 862H286V1312H947V862H804V1159H429V862Z" />
<glyph unicode="&#x2ae;" glyph-name="uni02AE" d="M568 1118H570V436Q570 315 604 263Q638 211 716 211Q795 211 842 282Q886 353 886 477V1118H1178V-438H886V166Q856 73 780 22Q706 -29 600 -29Q440 -29 360 76Q278 182 278 391V1088Q278 1217 236 1275Q194
1330 94 1330H56V1555H176Q386 1555 476 1447Q562 1348 568 1118Z" />
<glyph unicode="&#x2af;" glyph-name="uni02AF" d="M491 1118H492V436Q492 315 520 263T610 211Q674 211 710 282Q746 352 746 477V1118H975V41Q975 -91 1008 -146T1121 -201H1152V-426H1055Q892 -426 818 -318Q746 -211 746 41V166Q721 73 661 22T516 -29Q389
-29 324 76Q260 182 260 391V1088Q260 1217 225 1275Q192 1330 112 1330H81V1555H178Q346 1555 418 1447Q487 1346 491 1118Z" />
<glyph unicode="&#x2b0;" glyph-name="uni02B0" d="M904 1075V668H718V1050Q718 1118 696 1147T624 1176Q573 1176 544 1137Q515 1097 515 1027V668H329V1540H515V1201Q535 1254 583 1282Q631 1311 699 1311Q800 1311 852 1252Q904 1192 904 1075Z" />
<glyph unicode="&#x2b1;" glyph-name="uni02B1" d="M904 1075V668H718V1050Q718 1118 696 1147T624 1176Q573 1176 544 1137Q515 1097 515 1027V668H329V1277Q329 1418 388 1478Q445 1539 580 1539H657V1413H632Q568 1413 542 1382T516 1277L515 1201Q535 1253
583 1282Q631 1310 699 1310Q800 1310 852 1251T904 1075Z" />
<glyph unicode="&#x2b2;" glyph-name="uni02B2" d="M843 623Q843 482 785 422T592 362H390V488H540Q603 488 629 518Q655 549 655 623V1100H465V1226H843V623ZM843 1340H655V1531H843V1340Z" />
<glyph unicode="&#x2b3;" glyph-name="uni02B3" d="M892 1122Q861 1147 820 1159Q778 1172 729 1172Q667 1172 625 1154Q578 1134 556 1101Q541 1079 535 1049T529 957V668H341V1296H529V1198Q556 1252 613 1281Q670 1311 746 1311Q790 1311 822 1303Q858 1294
892 1279V1122Z" />
<glyph unicode="&#x2b4;" glyph-name="uni02B4" d="M341 842Q372 817 413 805Q455 792 504 792Q566 792 608 810Q655 830 677 863Q692 885 698 915T704 1007V1296H892V668H704V766Q677 712 620 683Q563 653 487 653Q443 653 411 661Q375 670 341 685V842Z" />
<glyph unicode="&#x2b5;" glyph-name="uni02B5" d="M271 841Q302 816 343 804Q384 791 434 791Q493 791 538 810Q582 828 607 863Q622 884 628 914T634 1006V1295H822V668H821Q824 612 847 586Q873 555 937 555H962V429H884Q750 429 692 490Q639 545 634 668V691V765Q607
711 550 682T416 653Q378 653 341 661T271 684V841Z" />
<glyph unicode="&#x2b6;" glyph-name="uni02B6" d="M543 943H493V791H543Q601 791 626 808Q652 826 652 866Q652 907 626 925Q601 943 543 943ZM493 1067H516Q564 1067 593 1084Q620 1099 644 1140L737 1296H969L863 1118Q830 1063 798 1037Q766 1010 726 1002Q799
984 836 944Q872 904 872 841Q872 752 802 710Q731 668 580 668H264V1296H493V1067Z" />
<glyph unicode="&#x2b7;" glyph-name="uni02B7" d="M222 1296H378L463 815L541 1132H692L768 815L855 1296H1011L881 668H703L616 994L530 668H352L222 1296Z" />
<glyph unicode="&#x2b8;" glyph-name="uni02B8" d="M676 601Q638 512 586 472Q533 432 457 432H303V557H379Q436 557 463 574T518 653L532 686L259 1296H456L620 889L777 1296H974L676 601Z" />
<glyph unicode="&#x2b9;" glyph-name="uni02B9" d="M500 1140L565 1638H786L676 1140H500Z" />
<glyph unicode="&#x2bb;" glyph-name="uni02BB" d="M745 903H432V1174L629 1556H844L745 1174V903Z" />
<glyph unicode="&#x2bc;" glyph-name="uni02BC" d="M530 1556H844V1286L647 903H432L530 1286V1556Z" />
<glyph unicode="&#x2bd;" glyph-name="uni02BD" d="M754 1729V1483H632Q633 1361 754 1361V1218Q480 1219 480 1483V1729H754Z" />
<glyph unicode="&#x2be;" glyph-name="uni02BE" d="M474 1140Q529 1140 567 1179Q605 1217 605 1271T566 1363Q528 1402 474 1402V1556Q592 1556 676 1473Q759 1389 759 1271T676 1069Q592 986 474 986V1140Z" />
<glyph unicode="&#x2bf;" glyph-name="uni02BF" d="M759 1140Q759 1140 759 986Q641 986 557 1069Q474 1153 474 1271T557 1473Q641 1556 759 1556V1402Q705 1402 667 1363Q628 1325 628 1271T666 1179Q704 1140 759 1140Z" />
<glyph unicode="&#x2c0;" glyph-name="uni02C0" d="M442 1080H496Q621 1080 670 1144Q703 1187 703 1226Q703 1280 670 1317Q613 1381 510 1381Q464 1381 418 1369Q373 1357 328 1333V1500Q372 1519 419 1529Q465 1539 570 1539Q708 1539 829 1421Q905 1347 905
1226Q905 1097 816 1016Q757 963 648 946V668H442V1080Z" />
<glyph unicode="&#x2c1;" glyph-name="uni02C1" d="M791 1080V668H585V946Q476 963 417 1016Q328 1097 328 1226Q328 1347 404 1421Q525 1539 663 1539Q768 1539 814 1529Q861 1519 905 1500V1333Q860 1357 815 1369Q769 1381 723 1381Q620 1381 563 1317Q530
1280 530 1226Q530 1187 563 1144Q612 1080 737 1080H791Z" />
<glyph unicode="&#x2c6;" glyph-name="circumflex" d="M496 1638H737L993 1262H815L616 1487L418 1262H240L496 1638Z" />
<glyph unicode="&#x2c7;" glyph-name="caron" d="M496 1262L240 1638H418L616 1411L815 1638H993L737 1262H496Z" />
<glyph unicode="&#x2c8;" glyph-name="uni02C8" d="M711 1554V999H522V1554H711Z" />
<glyph unicode="&#x2c9;" glyph-name="uni02C9" d="M301 1556H932V1368H301V1556Z" />
<glyph unicode="&#x2cc;" glyph-name="uni02CC" d="M711 390V-165H522V390H711Z" />
<glyph unicode="&#x2cd;" glyph-name="uni02CD" d="M301 -218H932V-406H301V-218Z" />
<glyph unicode="&#x2d0;" glyph-name="uni02D0" d="M616 740L411 1120H822L616 740ZM617 380L822 0H411L617 380Z" />
<glyph unicode="&#x2d1;" glyph-name="uni02D1" d="M616 740L411 1120H822L616 740Z" />
<glyph unicode="&#x2d2;" glyph-name="uni02D2" d="M474 704Q529 704 567 743Q605 781 605 835T566 927Q528 966 474 966V1120Q592 1120 676 1037Q759 953 759 835T676 633Q592 550 474 550V704Z" />
<glyph unicode="&#x2d3;" glyph-name="uni02D3" d="M759 704Q759 704 759 550Q641 550 557 633Q474 717 474 835T557 1037Q641 1120 759 1120V966Q705 966 667 927Q628 889 628 835T666 743Q704 704 759 704Z" />
<glyph unicode="&#x2d6;" glyph-name="uni02D6" d="M526 649V874H706V649H932V469H706V244H526V469H302V649H526Z" />
<glyph unicode="&#x2d7;" glyph-name="uni02D7" d="M842 469H392V649H842V469Z" />
<glyph unicode="&#x2d8;" glyph-name="breve" d="M281 1606H422Q433 1537 483 1500T616 1462Q699 1462 748 1499T809 1606H952Q946 1462 860 1386T616 1309Q460 1309 374 1385T281 1606Z" />
<glyph unicode="&#x2d9;" glyph-name="dotaccent" d="M479 1585H754V1339H479V1585Z" />
<glyph unicode="&#x2da;" glyph-name="ring" d="M332 1534Q332 1652 415 1735T616 1819Q735 1819 818 1736T901 1534Q901 1416 818 1333T616 1249Q498 1249 415 1332T332 1534ZM485 1534Q485 1479 523 1441T616 1403Q671 1403 709 1441T748 1534Q748 1588 709
1626T616 1665Q562 1665 524 1627T485 1534Z" />
<glyph unicode="&#x2db;" glyph-name="ogonek" d="M557 0H698Q645 -71 627 -106T608 -166Q608 -205 638 -229T719 -254Q757 -254 795 -247T874 -223V-379Q820 -390 773 -395T684 -401Q570 -401 508 -355T446 -223Q446 -170 473 -116T557 0Z" />
<glyph unicode="&#x2dc;" glyph-name="tilde" d="M618 1364L563 1401Q560 1403 551 1409Q508 1438 481 1438Q445 1438 427 1407T408 1317V1309H268Q268 1445 319 1519T465 1593Q501 1593 537 1580T614 1536L676 1493Q697 1478 715 1470T750 1462Q786 1462 805
1493T825 1583V1591H965Q965 1455 914 1381T768 1307Q732 1307 699 1319T618 1364Z" />
<glyph unicode="&#x2dd;" glyph-name="hungarumlaut" d="M854 1638H1085L813 1262H639L854 1638ZM492 1638H709L461 1262H297L492 1638Z" />
<glyph unicode="&#x2de;" glyph-name="uni02DE" d="M-312 883L314 1072L513 1074V903Q513 727 551 671Q589 616 694 616H928V436H641Q457 436 379 547Q313 638 314 804L-312 626V883Z" />
<glyph unicode="&#x2e0;" glyph-name="uni02E0" d="M728 1006Q884 792 885 575Q886 445 624 443Q336 440 336 575Q335 766 505 1005L285 1311H491L616 1125L742 1311H948L728 1006ZM616 882Q494 708 495 638Q496 569 612 569Q723 569 723 638Q723 729 616 882Z" />
<glyph unicode="&#x2e1;" glyph-name="uni02E1" d="M485 930V1414H295V1540H673V930Q673 856 699 825T788 794H938V668H736Q602 668 544 729Q485 789 485 930Z" />
<glyph unicode="&#x2e2;" glyph-name="uni02E2" d="M854 1277V1133Q802 1162 746 1177T634 1192Q571 1192 539 1176T507 1129Q507 1095 644 1056L651 1054L705 1043Q805 1023 855 974Q903 927 903 846Q903 750 830 701Q758 653 612 653Q547 653 479 663Q411 672
342 692V835Q404 804 468 788T592 772Q658 772 692 789T726 838Q726 869 702 886Q672 906 588 922L536 932Q427 953 379 998Q330 1044 330 1120Q330 1210 405 1261Q480 1311 616 1311Q684 1311 737 1303Q797 1294 854 1277Z" />
<glyph unicode="&#x2e3;" glyph-name="uni02E3" d="M955 1296L713 995L976 668H757L616 880L476 668H257L522 995L278 1296H497L616 1109L736 1296H955Z" />
<glyph unicode="&#x2e4;" glyph-name="uni02E4" d="M791 1080V668H585V946Q476 963 417 1016Q328 1097 328 1226Q328 1347 404 1421Q525 1539 663 1539Q768 1539 814 1529Q861 1519 905 1500V1333Q860 1357 815 1369Q769 1381 723 1381Q620 1381 563 1317Q530
1280 530 1226Q530 1187 563 1144Q612 1080 737 1080H791Z" />
<glyph unicode="&#x2e5;" glyph-name="uni02E5" d="M959 1420V0H771V1232H274V1420H959Z" />
<glyph unicode="&#x2e6;" glyph-name="uni02E6" d="M959 1420V0H771V924H274V1112H771V1420H959Z" />
<glyph unicode="&#x2e7;" glyph-name="uni02E7" d="M959 1420V0H771V616H274V804H771V1420H959Z" />
<glyph unicode="&#x2e8;" glyph-name="uni02E8" d="M959 1420V0H771V308H274V496H771V1420H959Z" />
<glyph unicode="&#x2e9;" glyph-name="uni02E9" d="M959 0H274V188H771V1420H959V0Z" />
<glyph unicode="&#x2ee;" glyph-name="uni02EE" d="M768 1556H1081V1286L885 903H670L768 1286V1556ZM248 1556H561V1286L365 903H150L248 1286V1556Z" />
<glyph unicode="&#x2f3;" glyph-name="uni02F3" d="M836 -282Q836 -374 773 -438T616 -502Q524 -502 461 -438T397 -282Q397 -190 460 -127T616 -63Q709 -63 772 -126T836 -282ZM704 -282Q704 -246 679 -221T616 -195Q579 -195 554 -220T529 -282Q529 -320 554
-345T616 -370Q653 -370 678 -345T704 -282Z" />
<glyph unicode="&#x300;" glyph-name="gravecomb" d="M481 1638L764 1262H567L199 1638H481Z" />
<glyph unicode="&#x301;" glyph-name="acutecomb" d="M752 1638H1034L666 1262H469L752 1638Z" />
<glyph unicode="&#x302;" glyph-name="uni0302" d="M496 1638H737L993 1262H815L616 1487L418 1262H240L496 1638Z" />
<glyph unicode="&#x303;" glyph-name="tildecomb" d="M618 1364L563 1401Q560 1403 551 1409Q508 1438 481 1438Q445 1438 427 1407T408 1317V1309H268Q268 1445 319 1519T465 1593Q501 1593 537 1580T614 1536L676 1493Q697 1478 715 1470T750 1462Q786 1462
805 1493T825 1583V1591H965Q965 1455 914 1381T768 1307Q732 1307 699 1319T618 1364Z" />
<glyph unicode="&#x304;" glyph-name="uni0304" d="M301 1556H932V1368H301V1556Z" />
<glyph unicode="&#x305;" glyph-name="uni0305" d="M1233 1547V1357H0V1547H1233Z" />
<glyph unicode="&#x306;" glyph-name="uni0306" d="M281 1606H422Q433 1537 483 1500T616 1462Q699 1462 748 1499T809 1606H952Q946 1462 860 1386T616 1309Q460 1309 374 1385T281 1606Z" />
<glyph unicode="&#x307;" glyph-name="uni0307" d="M479 1585H754V1339H479V1585Z" />
<glyph unicode="&#x308;" glyph-name="uni0308" d="M696 1585H932V1339H696V1585ZM301 1585H537V1339H301V1585Z" />
<glyph unicode="&#x309;" glyph-name="hookabovecomb" d="M842 1552Q842 1461 738 1346V1262H548V1376Q610 1392 656 1438Q678 1459 678 1505Q678 1567 622 1583Q582 1593 556 1591Q532 1591 506 1591Q460 1591 390 1560V1712Q494 1738 592 1738Q816 1738 840
1593Q842 1574 842 1552Z" />
<glyph unicode="&#x30a;" glyph-name="uni030A" d="M332 1534Q332 1652 415 1735T616 1819Q735 1819 818 1736T901 1534Q901 1416 818 1333T616 1249Q498 1249 415 1332T332 1534ZM485 1534Q485 1479 523 1441T616 1403Q671 1403 709 1441T748 1534Q748 1588 709
1626T616 1665Q562 1665 524 1627T485 1534Z" />
<glyph unicode="&#x30b;" glyph-name="uni030B" d="M854 1638H1085L813 1262H639L854 1638ZM492 1638H709L461 1262H297L492 1638Z" />
<glyph unicode="&#x30c;" glyph-name="uni030C" d="M496 1262L240 1638H418L616 1411L815 1638H993L737 1262H496Z" />
<glyph unicode="&#x30d;" glyph-name="uni030D" d="M712 1706V1262H522V1706H712Z" />
<glyph unicode="&#x30e;" glyph-name="uni030E" d="M997 1706V1262H807V1706H997ZM427 1706V1262H237V1706H427Z" />
<glyph unicode="&#x30f;" glyph-name="uni030F" d="M736 1638L930 1262H767L519 1638H736ZM373 1638L588 1262H414L142 1638H373Z" />
<glyph unicode="&#x310;" glyph-name="uni0310" d="M479 1801H754V1555H479V1801ZM281 1606H422Q433 1537 483 1500T616 1462Q699 1462 748 1499T809 1606H952Q946 1462 860 1386T616 1309Q460 1309 374 1385T281 1606Z" />
<glyph unicode="&#x311;" glyph-name="uni0311" d="M281 1309Q287 1453 373 1529T616 1606Q773 1606 859 1530T952 1309H809Q798 1379 749 1416T616 1453T483 1416T422 1309H281Z" />
<glyph unicode="&#x312;" glyph-name="uni0312" d="M729 903H447L624 1209H818L729 903Z" />
<glyph unicode="&#x313;" glyph-name="uni0313" d="M480 1729H754V1483Q754 1219 480 1218V1361Q600 1361 600 1483H480V1729Z" />
<glyph unicode="&#x314;" glyph-name="uni0314" d="M754 1729V1483H632Q633 1361 754 1361V1218Q480 1219 480 1483V1729H754Z" />
<glyph unicode="&#x315;" glyph-name="uni0315" d="M545 1638H827L666 1262H469L545 1638Z" />
<glyph unicode="&#x316;" glyph-name="uni0316" d="M616 -217L899 -593H702L334 -217H616Z" />
<glyph unicode="&#x317;" glyph-name="uni0317" d="M617 -217H899L531 -593H334L617 -217Z" />
<glyph unicode="&#x318;" glyph-name="uni0318" d="M550 -624H368V-435H550V-252H740V-807H550V-624Z" />
<glyph unicode="&#x319;" glyph-name="uni0319" d="M473 -252H662V-435H845V-624H662V-807H473V-252Z" />
<glyph unicode="&#x31a;" glyph-name="uni031A" d="M705 1713H339V1902H894V1347H705V1713Z" />
<glyph unicode="&#x31b;" glyph-name="uni031B" d="M416 850V991Q483 941 519 922T582 903Q621 903 645 932T670 1011Q670 1050 663 1088T639 1167H795Q806 1112 811 1065T817 977Q817 862 771 801T639 739Q586 739 532 766T416 850Z" />
<glyph unicode="&#x31c;" glyph-name="uni031C" d="M726 -502Q634 -502 571 -438T507 -282T570 -127T726 -63V-195Q689 -195 664 -220T639 -282Q639 -320 664 -345T726 -370V-502Z" />
<glyph unicode="&#x31d;" glyph-name="uni031D" d="M343 -624V-435H525V-252H715V-435H898V-624H343Z" />
<glyph unicode="&#x31e;" glyph-name="uni031E" d="M498 -624H315V-435H870V-624H687V-807H498V-624Z" />
<glyph unicode="&#x31f;" glyph-name="uni031F" d="M535 -624H353V-435H535V-252H725V-435H908V-624H725V-807H535V-624Z" />
<glyph unicode="&#x320;" glyph-name="uni0320" d="M339 -441V-252H894V-441H339Z" />
<glyph unicode="&#x321;" glyph-name="uni0321" d="M1071 43Q1071 -207 980 -316Q890 -424 680 -424H559V-199H598Q696 -199 739 -144Q780 -91 780 43V168H1071V43Z" />
<glyph unicode="&#x322;" glyph-name="uni0322" d="M167 41V166H458V41Q458 -93 499 -146Q542 -201 640 -201H679V-426H558Q348 -426 258 -318Q167 -209 167 41Z" />
<glyph unicode="&#x323;" glyph-name="dotbelowcomb" d="M479 -216H754V-462H479V-216Z" />
<glyph unicode="&#x324;" glyph-name="uni0324" d="M696 -216H932V-462H696V-216ZM301 -216H537V-462H301V-216Z" />
<glyph unicode="&#x325;" glyph-name="uni0325" d="M836 -282Q836 -374 773 -438T616 -502Q524 -502 461 -438T397 -282Q397 -190 460 -127T616 -63Q709 -63 772 -126T836 -282ZM704 -282Q704 -246 679 -221T616 -195Q579 -195 554 -220T529 -282Q529 -320 554
-345T616 -370Q653 -370 678 -345T704 -282Z" />
<glyph unicode="&#x326;" glyph-name="uni0326" d="M461 -198H743L566 -504H372L461 -198Z" />
<glyph unicode="&#x327;" glyph-name="uni0327" d="M707 0Q764 -62 791 -115T819 -215Q819 -310 758 -355T569 -401Q521 -401 471 -395T367 -375V-219Q412 -236 454 -245T532 -254Q590 -254 622 -231T655 -168Q655 -142 634 -101T567 0H707Z" />
<glyph unicode="&#x328;" glyph-name="uni0328" d="M769 0H910Q857 -71 839 -106T820 -166Q820 -205 850 -229T931 -254Q969 -254 1007 -247T1086 -223V-379Q1032 -390 985 -395T896 -401Q782 -401 720 -355T658 -223Q658 -170 685 -116T769 0Z" />
<glyph unicode="&#x329;" glyph-name="uni0329" d="M711 -218V-662H522V-218H711Z" />
<glyph unicode="&#x32a;" glyph-name="uni032A" d="M932 -218V-592H744V-406H490V-592H302V-218H932Z" />
<glyph unicode="&#x32b;" glyph-name="uni032B" d="M1024 -192Q1018 -400 897 -464Q849 -489 785 -489Q678 -489 616 -419Q555 -489 448 -489Q268 -489 222 -298Q211 -250 209 -192H352Q371 -329 448 -336Q528 -336 543 -208Q544 -200 545 -192H688Q707 -329 784
-336Q855 -336 876 -227Q880 -209 881 -192H1024Z" />
<glyph unicode="&#x32c;" glyph-name="uni032C" d="M496 -485L240 -109H418L616 -336L815 -109H993L737 -485H496Z" />
<glyph unicode="&#x32d;" glyph-name="uni032D" d="M496 -109H737L993 -485H815L616 -260L418 -485H240L496 -109Z" />
<glyph unicode="&#x32e;" glyph-name="uni032E" d="M281 -194H422Q433 -263 483 -300T616 -338Q699 -338 748 -301T809 -194H952Q946 -338 860 -414T616 -491Q460 -491 374 -415T281 -194Z" />
<glyph unicode="&#x32f;" glyph-name="uni032F" d="M952 -489H811Q800 -420 750 -383T617 -345T485 -382T424 -489H281Q287 -345 373 -269T617 -192Q773 -192 859 -268T952 -489Z" />
<glyph unicode="&#x330;" glyph-name="uni0330" d="M618 -430L563 -393Q560 -391 551 -385Q508 -356 481 -356Q445 -356 427 -387T408 -477V-485H268Q268 -349 319 -275T465 -201Q501 -201 537 -214T614 -258L676 -301Q697 -316 715 -324T750 -332Q786 -332 805
-301T825 -211V-203H965Q965 -339 914 -413T768 -487Q732 -487 699 -475T618 -430Z" />
<glyph unicode="&#x331;" glyph-name="uni0331" d="M301 -218H932V-406H301V-218Z" />
<glyph unicode="&#x332;" glyph-name="uni0332" d="M1233 -293V-483H0V-293H1233Z" />
<glyph unicode="&#x333;" glyph-name="uni0333" d="M1233 -293V-483H0V-293H1233ZM1233 -18V-208H0V-18H1233Z" />
<glyph unicode="&#x334;" glyph-name="uni0334" d="M1145 811V578Q1070 518 999 491T848 463Q758 463 645 514Q623 524 612 528Q535 562 484 574T381 586Q303 586 233 557T88 465V694Q166 755 239 782T395 809Q448 809 498 798T622 756Q633 751 655 741Q771 686
864 686Q934 686 1003 716T1145 811Z" />
<glyph unicode="&#x335;" glyph-name="uni0335" d="M192 438V632H966V438H192Z" />
<glyph unicode="&#x336;" glyph-name="uni0336" d="M0 438V632H1233V438H0Z" />
<glyph unicode="&#x337;" glyph-name="uni0337" d="M164 -117L25 2L1063 1235L1202 1114L164 -117Z" />
<glyph unicode="&#x338;" glyph-name="uni0338" d="M156 -63L-6 51L1059 1559L1221 1444L156 -63Z" />
<glyph unicode="&#x339;" glyph-name="uni0339" d="M507 -502Q507 -502 507 -370Q544 -370 569 -345T594 -282Q594 -245 569 -220T507 -195Q507 -195 507 -63Q599 -63 662 -126T726 -282T663 -438T507 -502Z" />
<glyph unicode="&#x33a;" glyph-name="uni033A" d="M302 -520V-146H490V-332H744V-146H932V-520H302Z" />
<glyph unicode="&#x33b;" glyph-name="uni033B" d="M903 -218V-791H330V-218H903ZM732 -620V-389H501V-620H732Z" />
<glyph unicode="&#x33c;" glyph-name="uni033C" d="M209 -489Q215 -281 336 -217Q384 -192 448 -192Q555 -192 616 -262Q678 -192 785 -192Q965 -192 1011 -383Q1022 -431 1024 -489H881Q862 -352 784 -345Q705 -345 690 -473Q689 -481 688 -489H545Q526 -352
448 -345Q378 -345 357 -454Q353 -472 352 -489H209Z" />
<glyph unicode="&#x33d;" glyph-name="uni033D" d="M616 1321L487 1192L353 1326L482 1455L353 1584L487 1718L616 1589L746 1718L880 1584L751 1455L880 1326L746 1192L616 1321Z" />
<glyph unicode="&#x33e;" glyph-name="uni033E" d="M702 1495L666 1536Q664 1539 660 1544Q628 1579 628 1598Q628 1625 659 1639T750 1653H758V1775Q622 1775 548 1734T474 1610Q474 1583 487 1556Q499 1531 530 1498L574 1452Q588 1437 596 1422Q604 1408 604
1397Q604 1370 572 1355T484 1340H476V1218Q612 1218 686 1259T760 1382Q760 1409 748 1435Q737 1456 702 1495Z" />
<glyph unicode="&#x33f;" glyph-name="uni033F" d="M1233 1547V1357H0V1547H1233ZM1233 1272V1082H0V1272H1233Z" />
<glyph unicode="&#x343;" glyph-name="uni0343" d="M480 1729H754V1483Q754 1219 480 1218V1361Q600 1361 600 1483H480V1729Z" />
<glyph unicode="&#x358;" glyph-name="uni0358" d="M953 1585H1228V1339H953V1585Z" />
<glyph unicode="&#x361;" glyph-name="uni0361" d="M617 1803Q877 1808 1121 1757Q1498 1678 1475 1506H1332Q1319 1577 1121 1613Q917 1650 617 1650T113 1613Q-85 1577 -98 1506H-241Q-265 1679 113 1757Q303 1797 617 1803Z" />
<glyph unicode="&#x374;" glyph-name="uni0374" d="M500 1140L565 1638H786L676 1140H500Z" />
<glyph unicode="&#x375;" glyph-name="uni0375" d="M733 72L668 -426H447L557 72H733Z" />
<glyph unicode="&#x37a;" glyph-name="uni037A" d="M785 -426H606Q518 -426 518 -243V-92H714V-245Q714 -349 765 -349H785V-426Z" />
<glyph unicode="&#x37e;" glyph-name="uni037E" d="M449 367H782V96L586 -287H371L449 96V367ZM449 1063H782V698H449V1063Z" />
<glyph unicode="&#x384;" glyph-name="tonos" d="M752 1638H1034L666 1262H469L752 1638Z" />
<glyph unicode="&#x385;" glyph-name="dieresistonos" d="M696 1585H932V1339H696V1585ZM301 1585H537V1339H301V1585ZM752 2046H1034L666 1670H469L752 2046Z" />
<glyph unicode="&#x386;" glyph-name="Alphatonos" d="M202 1638H484L116 1262H-81L202 1638ZM616 1223L477 612H756L616 1223ZM436 1493H797L1200 0H905L813 369H418L328 0H33L436 1493Z" />
<glyph unicode="&#x387;" glyph-name="anoteleia" d="M449 895H782V530H449V895Z" />
<glyph unicode="&#x388;" glyph-name="Epsilontonos" d="M-68 1638H214L-154 1262H-351L-68 1638ZM1098 0H168V1493H1098V1233H463V911H1038V651H463V260H1098V0Z" />
<glyph unicode="&#x389;" glyph-name="Etatonos" d="M-108 1638H174L-194 1262H-391L-108 1638ZM137 1493H432V924H801V1493H1096V0H801V664H432V0H137V1493Z" />
<glyph unicode="&#x38a;" glyph-name="Iotatonos" d="M-48 1638H234L-134 1262H-331L-48 1638ZM172 1233V1493H1061V1233H764V260H1061V0H172V260H469V1233H172Z" />
<glyph unicode="&#x38c;" glyph-name="Omicrontonos" d="M112 1638H394L26 1262H-171L112 1638ZM616 1255Q503 1255 451 1135T399 745Q399 477 451 357T616 236Q730 236 782 356T834 745Q834 1014 782 1134T616 1255ZM92 745Q92 1128 224 1324T616 1520Q876 1520
1008 1324T1141 745Q1141 363 1009 167T616 -29Q357 -29 225 167T92 745Z" />
<glyph unicode="&#x38e;" glyph-name="Upsilontonos" d="M-213 1638H69L-299 1262H-496L-213 1638ZM8 1493H326L616 893L907 1493H1225L764 588V0H469V588L8 1493Z" />
<glyph unicode="&#x38f;" glyph-name="Omegatonos" d="M157 1638H439L71 1262H-126L157 1638ZM90 211H328Q208 320 154 455T100 782Q100 1094 239 1277T614 1460Q851 1460 992 1277T1133 782Q1133 591 1079 456T905 211H1143V0H672V268Q753 347 792 464T831 748Q831
962 775 1078T616 1194Q514 1194 458 1078T401 748Q401 582 441 464T563 268V0H90V211Z" />
<glyph unicode="&#x390;" glyph-name="iotadieresistonos" d="M763 1120V365Q763 291 800 258Q837 225 921 225H979V0H901Q649 0 559 80Q471 158 471 379V895H270V1120H763ZM696 1585H932V1339H696V1585ZM301 1585H537V1339H301V1585ZM752 2046H1034L666 1670H469L752
2046Z" />
<glyph unicode="&#x391;" glyph-name="Alpha" d="M616 1223L477 612H756L616 1223ZM436 1493H797L1200 0H905L813 369H418L328 0H33L436 1493Z" />
<glyph unicode="&#x392;" glyph-name="Beta" d="M410 678V236H606Q747 236 803 284T860 451Q860 572 801 625T606 678H410ZM410 1260V913H606Q718 913 765 953T813 1085Q813 1177 765 1218T606 1260H410ZM125 1495H606Q855 1495 980 1401T1106 1118Q1106 974 1032
893T815 799Q986 782 1072 684T1159 410Q1159 194 1029 97T606 0H125V1495Z" />
<glyph unicode="&#x393;" glyph-name="Gamma" d="M477 1233V0H182V1493H1112V1233H477Z" />
<glyph unicode="&#x394;" glyph-name="uni0394" d="M1200 0H33L436 1493H797L1200 0ZM845 260L616 1223L387 260H845Z" />
<glyph unicode="&#x395;" glyph-name="Epsilon" d="M1098 0H168V1493H1098V1233H463V911H1038V651H463V260H1098V0Z" />
<glyph unicode="&#x396;" glyph-name="Zeta" d="M137 1493H1147V1249L455 260H1161V0H115V244L786 1233H137V1493Z" />
<glyph unicode="&#x397;" glyph-name="Eta" d="M137 1493H432V924H801V1493H1096V0H801V664H432V0H137V1493Z" />
<glyph unicode="&#x398;" glyph-name="Theta" d="M489 651V911H743V651H489ZM616 1255Q503 1255 451 1135T399 745Q399 477 451 357T616 236Q730 236 782 356T834 745Q834 1014 782 1134T616 1255ZM92 745Q92 1128 224 1324T616 1520Q876 1520 1008 1324T1141
745Q1141 363 1009 167T616 -29Q357 -29 225 167T92 745Z" />
<glyph unicode="&#x399;" glyph-name="Iota" d="M172 1233V1493H1061V1233H764V260H1061V0H172V260H469V1233H172Z" />
<glyph unicode="&#x39a;" glyph-name="Kappa" d="M117 1493H412V903L874 1493H1208L737 905L1225 0H897L543 672L412 506V0H117V1493Z" />
<glyph unicode="&#x39b;" glyph-name="Lambda" d="M328 0H33L436 1493H797L1200 0H905L616 1223L328 0Z" />
<glyph unicode="&#x39c;" glyph-name="Mu" d="M86 1493H438L616 838L793 1493H1147V0H893V1196L735 543H500L340 1196V0H86V1493Z" />
<glyph unicode="&#x39d;" glyph-name="Nu" d="M119 1493H436L852 408V1493H1112V0H797L379 1085V0H119V1493Z" />
<glyph unicode="&#x39e;" glyph-name="Xi" d="M1096 0H137V260H1096V0ZM1096 1233H137V1493H1096V1233ZM856 664H377V924H856V664Z" />
<glyph unicode="&#x39f;" glyph-name="Omicron" d="M616 1255Q503 1255 451 1135T399 745Q399 477 451 357T616 236Q730 236 782 356T834 745Q834 1014 782 1134T616 1255ZM92 745Q92 1128 224 1324T616 1520Q876 1520 1008 1324T1141 745Q1141 363 1009 167T616
-29Q357 -29 225 167T92 745Z" />
<glyph unicode="&#x3a0;" glyph-name="Pi" d="M137 1493H1096V0H801V1233H432V0H137V1493Z" />
<glyph unicode="&#x3a1;" glyph-name="Rho" d="M457 1245V807H578Q723 807 781 856T840 1026Q840 1147 782 1196T578 1245H457ZM162 1493H567Q876 1493 1011 1383T1147 1026Q1147 779 1012 669T567 559H457V0H162V1493Z" />
<glyph unicode="&#x3a3;" glyph-name="Sigma" d="M499 747L98 260V0H1144V260H438L840 747L438 1233H1144V1493H98V1234L499 747Z" />
<glyph unicode="&#x3a4;" glyph-name="Tau" d="M764 0H469V1235H90V1493H1143V1235H764V0Z" />
<glyph unicode="&#x3a5;" glyph-name="Upsilon" d="M8 1493H326L616 893L907 1493H1225L764 588V0H469V588L8 1493Z" />
<glyph unicode="&#x3a6;" glyph-name="Phi" d="M764 526Q785 538 799 553Q880 638 880 745Q880 875 799 938Q781 951 764 965V526ZM764 1233V1161Q917 1138 1008 1064Q1141 956 1141 745Q1141 535 1008 427Q916 352 764 330V260H883V0H350V260H469V330Q317 352
224 427Q92 535 92 745Q92 956 224 1064Q316 1138 469 1161V1233H350V1493H883V1233H764ZM469 526V965L434 938Q353 875 353 745Q353 638 434 553Q448 538 469 526Z" />
<glyph unicode="&#x3a7;" glyph-name="Chi" d="M1206 0H901L616 494L332 0H27L465 758L39 1493H344L616 1018L889 1493H1194L770 758L1206 0Z" />
<glyph unicode="&#x3a8;" glyph-name="Psi" d="M764 260H883V0H350V260H469V392Q322 435 224 568Q80 764 80 1146V1493H375V1146Q375 896 439 758Q455 723 469 705V1493H764V705Q778 723 794 758Q858 896 858 1146V1493H1153V1146Q1153 764 1008 568Q911 435 764
392V260Z" />
<glyph unicode="&#x3a9;" glyph-name="Omega" d="M90 211H328Q208 320 154 455T100 782Q100 1094 239 1277T614 1460Q851 1460 992 1277T1133 782Q1133 591 1079 456T905 211H1143V0H672V268Q753 347 792 464T831 748Q831 962 775 1078T616 1194Q514 1194 458
1078T401 748Q401 582 441 464T563 268V0H90V211Z" />
<glyph unicode="&#x3aa;" glyph-name="Iotadieresis" d="M696 1899H932V1653H696V1899ZM301 1899H537V1653H301V1899ZM172 1233V1493H1061V1233H764V260H1061V0H172V260H469V1233H172Z" />
<glyph unicode="&#x3ab;" glyph-name="Upsilondieresis" d="M696 1899H932V1653H696V1899ZM301 1899H537V1653H301V1899ZM8 1493H326L616 893L907 1493H1225L764 588V0H469V588L8 1493Z" />
<glyph unicode="&#x3ac;" glyph-name="alphatonos" d="M833 1012Q731 1149 500 1145Q311 1142 167 988Q54 868 54 555Q54 279 166 123Q272 -23 453 -25Q656 -27 708 16Q751 52 799 113Q804 103 822 84Q903 0 1062 0H1164V225H1082Q1014 225 985 390L958 543L1151
1120H869L833 1012ZM695 589L596 285Q575 219 506 221Q435 222 381 299Q323 381 323 555Q323 723 381 814Q440 905 505 905Q637 904 665 752L695 589ZM752 1638H1034L666 1262H469L752 1638Z" />
<glyph unicode="&#x3ad;" glyph-name="epsilontonos" d="M149 312Q149 433 229 508T461 604Q326 623 254 686T182 850Q182 985 307 1062T657 1140Q763 1140 822 1131T1002 1092V877Q897 911 823 924T689 938Q571 938 512 905T453 818Q453 774 510 742T672 710H823V487H672Q551
487 485 440T418 326Q418 265 485 223T686 181Q786 181 856 193T1045 253V34Q911 -2 830 -12T638 -22Q414 -22 282 64T149 312ZM752 1638H1034L666 1262H469L752 1638Z" />
<glyph unicode="&#x3ae;" glyph-name="etatonos" d="M1071 727V-426H780V682Q780 804 746 856T633 909Q554 909 509 838T463 641V0H172V1120H463V952Q494 1045 569 1096T750 1147Q909 1147 990 1042T1071 727ZM752 1638H1034L666 1262H469L752 1638Z" />
<glyph unicode="&#x3af;" glyph-name="iotatonos" d="M763 1120V365Q763 291 800 258Q837 225 921 225H979V0H901Q649 0 559 80Q471 158 471 379V895H270V1120H763ZM752 1638H1034L666 1262H469L752 1638Z" />
<glyph unicode="&#x3b0;" glyph-name="upsilondieresistonos" d="M671 0Q419 0 329 80Q241 158 241 379V895H76V1120H533V365Q533 291 570 258Q607 225 664 225Q767 225 829 368Q853 423 865 640Q871 743 839 909Q813 1044 737 1120H1028V1120Q1083 1049 1121
907Q1157 772 1157 638Q1157 342 1029 173Q899 0 671 0ZM696 1585H932V1339H696V1585ZM301 1585H537V1339H301V1585ZM752 2046H1034L666 1670H469L752 2046Z" />
<glyph unicode="&#x3b1;" glyph-name="alpha" d="M833 1012Q731 1149 500 1145Q311 1142 167 988Q54 868 54 555Q54 279 166 123Q272 -23 453 -25Q656 -27 708 16Q751 52 799 113Q804 103 822 84Q903 0 1062 0H1164V225H1082Q1014 225 985 390L958 543L1151 1120H869L833
1012ZM695 589L596 285Q575 219 506 221Q435 222 381 299Q323 381 323 555Q323 723 381 814Q440 905 505 905Q637 904 665 752L695 589Z" />
<glyph unicode="&#x3b2;" glyph-name="beta" d="M422 69V-426H131L132 1113Q132 1569 566 1569Q965 1569 1034 1186Q1078 940 911 810Q1135 737 1135 453Q1135 -3 737 -21Q551 -30 422 69ZM422 402Q520 252 618 240Q834 215 834 450Q834 670 554 657V880Q740 874
746 1139Q749 1328 566 1332Q422 1334 422 1107V402Z" />
<glyph unicode="&#x3b3;" glyph-name="gamma" d="M494 808L613 414L856 1120H1153L751 0V-426H459V0L226 752Q203 824 161 856Q123 885 98 885H56V1120H136Q246 1120 339 1046Q450 957 494 808Z" />
<glyph unicode="&#x3b4;" glyph-name="delta" d="M327 1065Q182 1128 182 1279Q182 1414 308 1492Q433 1569 657 1569Q756 1569 840 1557Q845 1556 850 1555Q881 1551 1002 1521V1306Q990 1310 977 1314Q881 1345 843 1352Q753 1367 672 1367Q568 1367 510 1333L488
1318Q453 1293 453 1249Q453 1147 616 1147Q854 1147 994 989T1135 559T995 130T616 -29Q379 -29 239 129T98 559Q98 822 238 988Q301 1063 327 1065ZM616 909Q511 909 451 817T391 559T451 302T616 209Q722 209 782 301T842 559T782 816T616 909Z" />
<glyph unicode="&#x3b5;" glyph-name="epsilon" d="M149 312Q149 433 229 508T461 604Q326 623 254 686T182 850Q182 985 307 1062T657 1140Q763 1140 822 1131T1002 1092V877Q897 911 823 924T689 938Q571 938 512 905T453 818Q453 774 510 742T672 710H823V487H672Q551
487 485 440T418 326Q418 265 485 223T686 181Q786 181 856 193T1045 253V34Q911 -2 830 -12T638 -22Q414 -22 282 64T149 312Z" />
<glyph unicode="&#x3b6;" glyph-name="zeta" d="M435 534Q435 237 742 225Q882 219 966 142Q1059 54 1059 -104Q1059 -251 968 -342Q884 -426 742 -426V-201Q812 -201 835 -172Q860 -142 860 -104T834 -38Q801 0 742 0Q144 0 143 534Q142 1007 640 1331H169V1556H1045V1331Q435
953 435 534Z" />
<glyph unicode="&#x3b7;" glyph-name="eta" d="M1071 727V-426H780V682Q780 804 746 856T633 909Q554 909 509 838T463 641V0H172V1120H463V952Q494 1045 569 1096T750 1147Q909 1147 990 1042T1071 727Z" />
<glyph unicode="&#x3b8;" glyph-name="theta" d="M839 887Q827 1081 782 1193Q722 1343 616 1343T450 1193Q405 1081 393 887H839ZM393 662Q405 477 450 359Q507 209 616 209T782 359Q827 477 839 662H393ZM854 -24T616 -24T238 191T97 775T237 1359T616 1575T994
1360T1135 776T995 192Z" />
<glyph unicode="&#x3b9;" glyph-name="iota" d="M763 1120V365Q763 291 800 258Q837 225 921 225H979V0H901Q649 0 559 80Q471 158 471 379V895H270V1120H763Z" />
<glyph unicode="&#x3ba;" glyph-name="kappa" d="M174 1120H467V739L819 1120H1174L750 702L1198 0H874L567 524L467 428V0H174V1120Z" />
<glyph unicode="&#x3bb;" glyph-name="lambda" d="M738 1220L1153 0H856L632 655L377 0H80L491 1069L450 1188Q425 1262 386 1292Q347 1321 253 1321H141V1556H291Q473 1556 568 1482Q679 1394 738 1220Z" />
<glyph unicode="&#x3bc;" glyph-name="uni03BC" d="M174 -428V1120H461V440Q461 326 502 269T625 211Q706 211 746 268T786 440V1120H1075V344Q1075 273 1088 242T1133 211Q1147 211 1160 216T1188 233V16Q1145 -7 1108 -18T1036 -29Q964 -29 919 8T846 129Q809
51 754 11T629 -29Q570 -29 529 -6T461 66L463 -428H174Z" />
<glyph unicode="&#x3bd;" glyph-name="nu" d="M576 295Q700 424 756 514Q833 638 836 755Q837 807 814 871Q760 1022 680 1120H987V1120Q1056 1031 1102 907Q1144 793 1144 715Q1144 519 1008 344Q831 116 708 0H352L47 1120H353L576 295Z" />
<glyph unicode="&#x3be;" glyph-name="xi" d="M742 0Q143 0 143 410Q143 714 514 779Q196 821 196 1092Q196 1249 416 1331H169V1556H1045V1331Q488 1331 488 1080Q488 891 944 880V657Q435 648 435 410Q435 239 742 225Q883 218 966 142Q1059 54 1059 -104Q1059
-251 968 -342Q884 -426 742 -426V-201Q812 -201 835 -172Q860 -142 860 -104T834 -38Q801 0 742 0Z" />
<glyph unicode="&#x3bf;" glyph-name="omicron" d="M616 909Q511 909 451 817T391 559Q391 394 451 302T616 209Q722 209 782 301T842 559Q842 724 782 816T616 909ZM98 559Q98 830 238 988T616 1147Q854 1147 994 989T1135 559Q1135 288 995 130T616 -29Q379
-29 239 129T98 559Z" />
<glyph unicode="&#x3c0;" glyph-name="pi" d="M1182 1120V895H1020V362Q1020 233 1044 202T1139 170Q1164 170 1181 171T1214 174V-14Q1170 -27 1121 -33T1016 -39Q937 -39 880 -22T793 27Q762 59 749 102T735 233V268V895H461V0H176V895H14V1120H1182Z" />
<glyph unicode="&#x3c1;" glyph-name="rho" d="M649 1147Q931 1147 1037 993T1143 559Q1143 275 1036 123T729 -29Q639 -29 568 17T442 158V-426H150V552Q150 1147 649 1147ZM850 399T850 561T796 815T647 907T497 815T442 561T497 307T647 215T796 307Z" />
<glyph unicode="&#x3c2;" glyph-name="sigma1" d="M749 225Q890 218 972 142Q1066 54 1066 -104Q1066 -251 974 -342Q891 -426 749 -426V-201Q819 -201 842 -172Q867 -142 867 -104T842 -38Q808 0 749 0Q433 0 314 127Q168 283 168 559Q168 836 315 992T721 1149Q811
1149 894 1128T1061 1063V795Q997 850 921 879T762 909Q619 909 542 818T465 559Q465 390 542 303Q605 232 749 225Z" />
<glyph unicode="&#x3c3;" glyph-name="sigma" d="M956 895Q1135 767 1135 559Q1135 288 995 130T616 -29Q379 -29 239 129T98 559Q98 812 238 978Q360 1120 616 1120H1168V895H956ZM554 887Q487 868 451 812Q391 720 391 559Q391 394 451 302T616 209Q723 209
782 302Q842 396 842 559Q842 714 661 828Q599 867 554 887Z" />
<glyph unicode="&#x3c4;" glyph-name="tau" d="M136 1120H1098V895H763V365Q763 290 800 258Q837 225 921 225H979V0H901Q649 0 559 80Q471 158 471 379V895H136V1120Z" />
<glyph unicode="&#x3c5;" glyph-name="upsilon" d="M671 0Q419 0 329 80Q241 158 241 379V895H76V1120H533V365Q533 291 570 258Q607 225 664 225Q767 225 829 368Q853 423 865 640Q871 743 839 909Q813 1044 737 1120H1028V1120Q1083 1049 1121 907Q1157 772
1157 638Q1157 342 1029 173Q899 0 671 0Z" />
<glyph unicode="&#x3c6;" glyph-name="phi" d="M806 1130Q958 1130 1054 1007Q1168 858 1168 559Q1168 52 763 0V-426H471V0Q65 64 65 559Q65 881 180 996Q311 1125 440 1120V891Q417 889 374 806Q332 720 332 595Q332 356 471 256V648Q471 1130 806 1130ZM817
864Q763 858 763 648V256Q897 353 902 595Q905 729 878 806Q855 868 817 864Z" />
<glyph unicode="&#x3c7;" glyph-name="chi" d="M678 -114L611 32L387 -426H90L468 348L286 752Q251 828 214 856Q176 885 151 885H72V1120H189Q289 1120 392 1046Q474 986 554 808L621 660L846 1120H1143L764 345L946 -58Q981 -134 1018 -162Q1056 -191 1081 -191H1161V-426H1043Q940
-426 840 -352Q757 -290 678 -114Z" />
<glyph unicode="&#x3c8;" glyph-name="psi" d="M763 225Q873 325 873 595V1120H1165V588Q1165 51 763 0V-426H471V0Q69 64 69 588V1120H361V595Q361 304 471 225V1120H763V225Z" />
<glyph unicode="&#x3c9;" glyph-name="omega" d="M743 665Q746 209 818 209Q849 210 862 237Q888 291 888 556T801 1120H1063Q1171 868 1170 518T1054 54Q969 -29 841 -29Q666 -29 617 150Q568 -29 393 -29Q265 -29 180 54Q65 167 64 517T171 1120H433Q346 822
346 557T372 237Q385 210 416 209Q488 209 491 665H743Z" />
<glyph unicode="&#x3ca;" glyph-name="iotadieresis" d="M763 1120V365Q763 291 800 258Q837 225 921 225H979V0H901Q649 0 559 80Q471 158 471 379V895H270V1120H763ZM696 1585H932V1339H696V1585ZM301 1585H537V1339H301V1585Z" />
</font>
</defs>
</svg>
