<?xml version="1.0" standalone="no"?> <!DOCTYPE svg PUBLIC "-//W3C//DTD SVG 1.0//EN" "http://www.w3.org/TR/2001/REC-SVG-20010904/DTD/svg10.dtd" > <svg xmlns="http://www.w3.org/2000/svg" width="100%" height="100%">
<defs >
<font id="DejaVuSerif-Bold" horiz-adv-x="1159" ><font-face
    font-family="DejaVu Serif"
    units-per-em="2048"
    panose-1="2 6 8 3 5 6 5 2 2 4"
    ascent="2529"
    descent="-797"
    alphabetic="0" />
<missing-glyph horiz-adv-x="1229" d="M102 -362V1444H1126V-362H102ZM217 -248H1012V1329H217V-248Z" />
<glyph unicode=" " glyph-name="space" horiz-adv-x="713" />
<glyph unicode="!" glyph-name="exclam" horiz-adv-x="899" d="M260 162Q260 240 315 296T449 352Q527 352 583 296T639 162Q639 83 583 27T449 -29Q371 -29 316 27T260 162ZM262 1493H637L518 651V461H379V651L262 1493Z" />
<glyph unicode="&quot;" glyph-name="quotedbl" horiz-adv-x="1067" d="M432 1493V938H195V1493H432ZM872 1493V938H635V1493H872Z" />
<glyph unicode="#" glyph-name="numbersign" horiz-adv-x="1716" d="M1024 872H760L690 598H954L1024 872ZM911 1470L815 1085H1079L1176 1470H1397L1300 1085H1577V872H1247L1178 598H1462V383H1126L1030 0H809L905 383H641L545 0H322L418 383H139V598H467L537
872H254V1085H592L688 1470H911Z" />
<glyph unicode="$" glyph-name="dollar" horiz-adv-x="1425" d="M195 59V350H315Q332 216 410 150T633 84H647V489Q398 544 290 639T182 897Q182 1077 304 1180T647 1290V1559H768V1290Q880 1284 982 1263T1182 1202V930H1061Q1045 1046 969 1110T768 1177V805Q1037
746 1146 647T1255 367Q1255 182 1129 80T768 -29V-299H647V-29Q537 -27 424 -5T195 59ZM647 1178Q562 1167 513 1125T463 1022Q463 952 505 909T647 838V1178ZM768 84Q869 95 921 138T973 256Q973 330 925 378T768 457V84Z" />
<glyph unicode="%" glyph-name="percent" horiz-adv-x="1946" d="M442 1419Q378 1419 350 1350T322 1114Q322 947 350 877T442 807Q507 807 535 877T563 1114Q563 1280 535 1349T442 1419ZM442 1520Q633 1520 734 1416T836 1114Q836 917 735 812T442 707Q252 707
151 812T49 1114Q49 1311 150 1415T442 1520ZM1354 1520H1526L592 -29H420L1354 1520ZM1503 784Q1694 784 1795 680T1896 379Q1896 182 1795 77T1503 -29Q1313 -29 1212 76T1110 379Q1110 575 1211 679T1503 784ZM1503 684Q1438 684 1410 615T1382 379Q1382 212
1410 142T1503 72Q1568 72 1596 142T1624 379Q1624 545 1596 614T1503 684Z" />
<glyph unicode="&amp;" glyph-name="ampersand" horiz-adv-x="1849" d="M1812 0H1333L1206 131Q1106 51 985 11T721 -29Q421 -29 252 99T82 451Q82 614 168 729T440 928Q389 995 364 1056T338 1174Q338 1338 475 1429T862 1520Q936 1520 1034 1508T1257 1473V1161H1128Q1110
1285 1052 1342T887 1399Q786 1399 728 1351T670 1221Q670 1129 849 947Q869 927 879 918L1339 436Q1399 504 1433 593T1476 795H1294V915H1794V795H1618Q1601 649 1556 536T1436 336L1642 121H1812V0ZM1112 229L547 817Q492 750 464 675T436 516Q436 347 542 238T813
129Q891 129 964 153T1112 229Z" />
<glyph unicode="&apos;" glyph-name="quotesingle" horiz-adv-x="627" d="M432 1493V938H195V1493H432Z" />
<glyph unicode="(" glyph-name="parenleft" horiz-adv-x="969" d="M862 -319Q525 -194 359 39T193 618Q193 964 357 1194T862 1556V1436Q704 1340 635 1152T565 618Q565 274 634 86T862 -199V-319Z" />
<glyph unicode=")" glyph-name="parenright" horiz-adv-x="969" d="M104 -319V-199Q262 -103 331 85T401 618Q401 963 332 1151T104 1436V1556Q445 1424 609 1194T774 618Q774 272 608 39T104 -319Z" />
<glyph unicode="*" glyph-name="asterisk" horiz-adv-x="1071" d="M1026 1212L666 1044L1026 874L928 719L600 958L627 569H444L471 958L143 719L45 874L406 1044L45 1212L143 1370L471 1128L444 1520H627L600 1128L928 1370L1026 1212Z" />
<glyph unicode="+" glyph-name="plus" horiz-adv-x="1716" d="M973 1284V758H1499V528H973V2H743V528H217V758H743V1284H973Z" />
<glyph unicode="," glyph-name="comma" horiz-adv-x="713" d="M27 -197Q131 -113 180 -9T229 233V319H514V311Q514 90 422 -69T137 -338L27 -197Z" />
<glyph unicode="-" glyph-name="hyphen" horiz-adv-x="850" d="M111 684H739V414H111V684Z" />
<glyph unicode="." glyph-name="period" horiz-adv-x="713" d="M166 162Q166 240 222 296T356 352Q435 352 491 296T547 162Q547 83 491 27T356 -29Q278 -29 222 27T166 162Z" />
<glyph unicode="/" glyph-name="slash" horiz-adv-x="748" d="M526 1493H748L221 -190H0L526 1493Z" />
<glyph unicode="0" glyph-name="zero" horiz-adv-x="1425" d="M713 88Q833 88 877 197T922 745Q922 1181 878 1292T713 1403Q593 1403 549 1294T504 745Q504 306 548 197T713 88ZM713 -29Q414 -29 255 170T96 745Q96 1120 255 1320T713 1520Q1011 1520 1170 1320T1329
745Q1329 370 1170 171T713 -29Z" />
<glyph unicode="1" glyph-name="one" horiz-adv-x="1425" d="M281 0V121H561V1329L250 1145V1294L625 1520H940V121H1221V0H281Z" />
<glyph unicode="2" glyph-name="two" horiz-adv-x="1425" d="M270 1124H150V1446Q272 1483 391 1501T633 1520Q918 1520 1077 1404T1237 1079Q1237 931 1149 814T813 535L397 262H1104V438H1241V0H137V244L358 397Q641 592 735 729T829 1049Q829 1222 758 1312T549
1403Q431 1403 360 1332T270 1124Z" />
<glyph unicode="3" glyph-name="three" horiz-adv-x="1425" d="M176 1450Q308 1485 432 1502T674 1520Q944 1520 1088 1424T1233 1147Q1233 1012 1150 928T907 815Q1102 784 1198 682T1294 403Q1294 194 1129 83T649 -29Q531 -29 406 -9T143 51V379H264Q275 237
353 163T569 88Q721 88 804 172T887 412Q887 574 801 662T555 750H489V870H541Q688 870 762 938T836 1141Q836 1268 767 1335T567 1403Q449 1403 380 1339T297 1151H176V1450Z" />
<glyph unicode="4" glyph-name="four" horiz-adv-x="1425" d="M1307 0H485V121H707V393H84V508L709 1520H1085V522H1341V393H1085V121H1307V0ZM707 522V1247L262 522H707Z" />
<glyph unicode="5" glyph-name="five" horiz-adv-x="1425" d="M1155 1493V1231H356V903Q422 954 503 980T674 1006Q950 1006 1110 867T1270 487Q1270 243 1110 107T662 -29Q540 -29 420 -9T168 53V379H288Q294 232 364 160T573 88Q720 88 791 186T862 487Q862
686 793 784T582 883Q506 883 447 852T336 754H236V1493H1155Z" />
<glyph unicode="6" glyph-name="six" horiz-adv-x="1425" d="M504 885Q569 937 649 963T825 989Q1054 989 1184 855T1315 487Q1315 240 1168 106T750 -29Q444 -29 287 155T129 698Q129 1105 304 1312T823 1520Q913 1520 1016 1505T1237 1460V1196H1116Q1091 1298
1022 1350T842 1403Q664 1403 585 1281T504 885ZM727 88Q830 88 874 175T918 479Q918 695 874 782T727 870Q624 870 581 783T537 479Q537 263 580 176T727 88Z" />
<glyph unicode="7" glyph-name="seven" horiz-adv-x="1425" d="M1255 1239L639 0H436L1036 1210H299V1008H162V1493H1255V1239Z" />
<glyph unicode="8" glyph-name="eight" horiz-adv-x="1425" d="M952 795Q1130 766 1222 664T1315 397Q1315 191 1160 81T711 -29Q418 -29 262 81T106 397Q106 562 199 664T469 795Q312 831 234 915T156 1130Q156 1320 298 1420T711 1520Q981 1520 1123 1420T1266
1130Q1266 1000 1188 916T952 795ZM879 1126Q879 1284 841 1343T711 1403Q618 1403 581 1344T543 1126Q543 969 580 911T711 852Q804 852 841 910T879 1126ZM918 414Q918 597 872 666T711 735Q596 735 550 666T504 414Q504 229 550 159T711 88Q824 88 871 158T918
414Z" />
<glyph unicode="9" glyph-name="nine" horiz-adv-x="1425" d="M698 1403Q595 1403 552 1316T508 1012Q508 796 551 709T698 621Q801 621 845 708T889 1012Q889 1228 845 1315T698 1403ZM921 608Q855 555 775 529T600 502Q372 502 242 635T111 1004Q111 1252 257
1386T674 1520Q980 1520 1138 1335T1296 793Q1296 386 1121 179T602 -29Q512 -29 409 -14T188 31V295H309Q334 193 403 141T584 88Q760 88 840 210T921 608Z" />
<glyph unicode=":" glyph-name="colon" horiz-adv-x="756" d="M188 813Q188 892 243 948T377 1004Q455 1004 511 948T567 813Q567 735 512 680T377 625Q298 625 243 680T188 813ZM188 162Q188 240 243 296T377 352Q455 352 511 296T567 162Q567 83 511 27T377
-29Q299 -29 244 27T188 162Z" />
<glyph unicode=";" glyph-name="semicolon" horiz-adv-x="756" d="M188 813Q188 892 243 948T377 1004Q455 1004 511 948T567 813Q567 735 512 680T377 625Q298 625 243 680T188 813ZM53 -188Q158 -105 207 -2T256 240V328H541Q541 103 448 -59T164 -330L53 -188Z" />
<glyph unicode="&lt;" glyph-name="less" horiz-adv-x="1716" d="M1499 979L520 641L1499 305V66L217 530V756L1499 1219V979Z" />
<glyph unicode="=" glyph-name="equal" horiz-adv-x="1716" d="M217 528H1499V301H217V528ZM217 983H1499V756H217V983Z" />
<glyph unicode="&gt;" glyph-name="greater" horiz-adv-x="1716" d="M217 979V1219L1499 756V530L217 66V305L1196 641L217 979Z" />
<glyph unicode="?" glyph-name="question" horiz-adv-x="1200" d="M342 162Q342 240 398 296T532 352Q611 352 667 296T723 162Q723 83 667 27T532 -29Q454 -29 398 27T342 162ZM133 1452Q257 1486 369 1503T586 1520Q838 1520 973 1410T1108 1094Q1108 892 978
776T602 641V436H463V735Q603 778 668 870T733 1116Q733 1260 672 1333T492 1407Q382 1407 323 1341T254 1145H133V1452Z" />
<glyph unicode="@" glyph-name="at" horiz-adv-x="2048" d="M1272 504V580Q1272 709 1210 787T1047 866Q948 866 888 779T827 543Q827 395 887 307T1047 219Q1148 219 1210 296T1272 504ZM1272 240Q1228 168 1157 130T995 92Q804 92 695 212T586 543Q586 754 695
873T995 993Q1085 993 1156 955T1272 846V971H1491V229Q1634 268 1712 385T1790 678Q1790 821 1735 938T1567 1151Q1475 1229 1351 1271T1087 1313Q957 1313 844 1278T637 1174Q495 1068 419 904T342 543Q342 388 390 251T528 12Q635 -107 774 -168T1077 -229Q1199
-229 1313 -195T1530 -94L1587 -188Q1459 -272 1321 -314T1038 -356Q844 -356 682 -293T393 -104Q267 20 201 185T135 543Q135 735 201 900T393 1190Q521 1316 684 1378T1053 1440Q1231 1440 1377 1392T1638 1245Q1771 1134 1837 992T1903 676Q1903 400 1745 246T1303
92H1272V240Z" />
<glyph unicode="A" glyph-name="A" horiz-adv-x="1589" d="M-16 0V121H106L668 1493H907L1470 121H1612V0H913V121H1059L936 426H375L250 121H428V0H-16ZM424 547H887L657 1118L424 547Z" />
<glyph unicode="B" glyph-name="B" horiz-adv-x="1731" d="M96 0V121H287V1372H96V1493H981Q1254 1493 1391 1401T1528 1124Q1528 991 1434 913T1153 815Q1378 794 1498 695T1618 432Q1618 210 1451 105T926 0H96ZM672 870H803Q975 870 1058 932T1141 1124Q1141
1254 1061 1313T803 1372H672V870ZM672 121H815Q1006 121 1098 197T1190 432Q1190 592 1097 671T815 750H672V121Z" />
<glyph unicode="C" glyph-name="C" horiz-adv-x="1630" d="M1526 426Q1467 195 1314 83T903 -29Q525 -29 306 179T86 745Q86 1103 305 1311T903 1520Q1036 1520 1180 1488T1485 1391V1024H1358Q1319 1212 1216 1305T944 1399Q726 1399 620 1239T514 745Q514 412
620 252T946 92Q1095 92 1189 175T1327 426H1526Z" />
<glyph unicode="D" glyph-name="D" horiz-adv-x="1776" d="M672 121H811Q1045 121 1153 271T1262 748Q1262 1073 1154 1222T811 1372H672V121ZM96 0V121H287V1372H96V1493H862Q1264 1493 1477 1301T1690 748Q1690 385 1477 193T862 0H96Z" />
<glyph unicode="E" glyph-name="E" horiz-adv-x="1561" d="M96 0V121H287V1372H96V1493H1438V1141H1300V1356H672V877H1063V1067H1200V551H1063V741H672V137H1319V352H1456V0H96Z" />
<glyph unicode="F" glyph-name="F" horiz-adv-x="1454" d="M96 0V121H287V1372H96V1493H1427V1141H1290V1356H674V877H1053V1067H1190V551H1053V741H674V121H909V0H96Z" />
<glyph unicode="G" glyph-name="G" horiz-adv-x="1749" d="M1409 1024Q1364 1222 1259 1310T963 1399Q731 1399 623 1242T514 745Q514 409 618 251T942 92Q1026 92 1098 111T1229 168V578H1049V698H1587V125Q1419 47 1252 9T909 -29Q525 -29 306 178T86 745Q86
1106 305 1313T909 1520Q1069 1520 1224 1488T1536 1391V1024H1409Z" />
<glyph unicode="H" glyph-name="H" horiz-adv-x="1935" d="M96 0V121H287V1372H96V1493H864V1372H672V870H1266V1372H1075V1493H1843V1372H1651V121H1843V0H1075V121H1266V733H672V121H864V0H96Z" />
<glyph unicode="I" glyph-name="I" horiz-adv-x="958" d="M96 0V121H287V1372H96V1493H864V1372H672V121H864V0H96Z" />
<glyph unicode="J" glyph-name="J" horiz-adv-x="969" d="M-150 -358V-123H-20Q-14 -217 24 -261T139 -305Q236 -305 274 -231T313 49V1372H96V1493H891V1372H700V41Q700 -202 578 -314T188 -426Q105 -426 21 -409T-150 -358Z" />
<glyph unicode="K" glyph-name="K" horiz-adv-x="1780" d="M96 0V121H287V1372H96V1493H864V1372H672V827L1305 1372H1145V1493H1702V1372H1503L967 911L1696 121H1843V0H1337L672 725V121H864V0H96Z" />
<glyph unicode="L" glyph-name="L" horiz-adv-x="1440" d="M96 0V121H287V1372H96V1493H864V1372H672V137H1260V373H1395V0H96Z" />
<glyph unicode="M" glyph-name="M" horiz-adv-x="2267" d="M86 0V121H276V1372H86V1493H702L1128 535L1556 1493H2171V1372H1980V121H2171V0H1403V121H1593V1260L1130 219H877L416 1260V121H606V0H86Z" />
<glyph unicode="N" glyph-name="N" horiz-adv-x="1872" d="M90 0V121H281V1372H90V1493H557L1458 436V1372H1268V1493H1790V1372H1599V0H1337L422 1079V121H612V0H90Z" />
<glyph unicode="O" glyph-name="O" horiz-adv-x="1784" d="M891 92Q1082 92 1175 253T1268 745Q1268 1077 1175 1238T891 1399Q701 1399 608 1237T514 745Q514 417 607 255T891 92ZM891 -29Q514 -29 300 177T86 745Q86 1107 300 1313T891 1520Q1268 1520 1482
1314T1696 745Q1696 383 1482 177T891 -29Z" />
<glyph unicode="P" glyph-name="P" horiz-adv-x="1540" d="M96 0V121H287V1372H96V1493H946Q1195 1493 1342 1375T1489 1057Q1489 857 1342 738T946 618H672V121H913V0H96ZM672 739H784Q914 739 991 825T1069 1057Q1069 1201 992 1286T784 1372H672V739Z" />
<glyph unicode="Q" glyph-name="Q" horiz-adv-x="1784" d="M885 -29Q507 -23 297 181T86 745Q86 1107 300 1313T891 1520Q1268 1520 1482 1314T1696 745Q1696 427 1532 229T1063 -16Q1116 -73 1192 -98T1389 -123H1440V-369H1411Q1221 -369 1094 -287T885 -29ZM891
92Q1082 92 1175 253T1268 745Q1268 1077 1175 1238T891 1399Q701 1399 608 1237T514 745Q514 417 607 255T891 92Z" />
<glyph unicode="R" glyph-name="R" horiz-adv-x="1702" d="M1087 729Q1176 716 1237 670T1343 537L1561 121H1714V0H1223L985 451Q916 591 868 629T733 668H672V121H864V0H96V121H287V1372H96V1493H948Q1208 1493 1349 1389T1491 1092Q1491 936 1391 846T1087
729ZM672 788H803Q943 788 1018 864T1094 1081Q1094 1222 1019 1297T803 1372H672V788Z" />
<glyph unicode="S" glyph-name="S" horiz-adv-x="1479" d="M158 72V426H285Q314 258 422 175T721 92Q876 92 957 151T1038 324Q1038 414 983 464T756 557L532 612Q313 668 224 767T135 1051Q135 1273 282 1396T696 1520Q827 1520 968 1498T1262 1432V1102H1135Q1106
1256 1008 1327T729 1399Q581 1399 506 1348T430 1194Q430 1101 482 1053T737 952L961 897Q1169 845 1262 735T1356 432Q1356 206 1200 89T741 -29Q595 -29 451 -4T158 72Z" />
<glyph unicode="T" glyph-name="T" horiz-adv-x="1524" d="M371 0V121H569V1356H160V1120H23V1493H1503V1120H1368V1356H956V121H1155V0H371Z" />
<glyph unicode="U" glyph-name="U" horiz-adv-x="1786" d="M260 1372H70V1493H838V1372H647V625Q647 346 734 235T1032 123Q1238 123 1324 235T1411 625V1372H1221V1493H1741V1372H1550V604Q1550 262 1402 117T905 -29Q558 -29 409 118T260 606V1372Z" />
<glyph unicode="V" glyph-name="V" horiz-adv-x="1589" d="M1618 1493V1372H1493L930 0H692L129 1372H-12V1493H688V1372H543L946 383L1352 1372H1174V1493H1618Z" />
<glyph unicode="W" glyph-name="W" horiz-adv-x="2300" d="M1745 0H1487L1149 1087L811 0H553L127 1372H-18V1493H690V1372H530L815 455L1137 1493H1421L1749 438L2040 1372H1862V1493H2324V1372H2171L1745 0Z" />
<glyph unicode="X" glyph-name="X" horiz-adv-x="1589" d="M694 575L383 121H567V0H37V121H221L614 692L147 1372H10V1493H752V1372H588L877 952L1163 1372H989V1493H1509V1372H1325L956 836L1446 121H1587V0H842V121H1008L694 575Z" />
<glyph unicode="Y" glyph-name="Y" horiz-adv-x="1462" d="M352 0V121H553V618L109 1372H-18V1493H698V1372H532L868 803L1202 1372H1053V1493H1481V1372H1354L940 670V121H1141V0H352Z" />
<glyph unicode="Z" glyph-name="Z" horiz-adv-x="1495" d="M76 0V141L967 1356H252V1133H115V1493H1411V1352L530 137H1284V346H1421V0H76Z" />
<glyph unicode="[" glyph-name="bracketleft" horiz-adv-x="969" d="M256 1556H823V1436H610V-150H823V-270H256V1556Z" />
<glyph unicode="\" glyph-name="backslash" horiz-adv-x="748" d="M221 1493L748 -190H526L0 1493H221Z" />
<glyph unicode="]" glyph-name="bracketright" horiz-adv-x="969" d="M713 1556V-270H145V-150H358V1436H145V1556H713Z" />
<glyph unicode="^" glyph-name="asciicircum" horiz-adv-x="1716" d="M973 1493L1509 936H1296L858 1251L420 936H207L750 1493H973Z" />
<glyph unicode="_" glyph-name="underscore" horiz-adv-x="1024" d="M1024 -293V-483H0V-293H1024Z" />
<glyph unicode="`" glyph-name="grave" horiz-adv-x="1024" d="M420 1638L678 1262H514L141 1638H420Z" />
<glyph unicode="a" glyph-name="a" horiz-adv-x="1327" d="M1128 653V121H1280V0H774V135Q704 51 618 11T422 -29Q259 -29 172 58T84 309Q84 488 209 577T588 666H774V729Q774 858 713 919T524 981Q418 981 361 938T279 795H166V1024Q261 1058 363 1075T578 1092Q863
1092 995 986T1128 653ZM774 334V547H641Q542 547 489 493T436 338Q436 237 474 187T592 137Q674 137 724 191T774 334Z" />
<glyph unicode="b" glyph-name="b" horiz-adv-x="1432" d="M199 121V1436H47V1556H553V928Q598 1011 674 1051T862 1092Q1089 1092 1219 943T1350 532Q1350 271 1220 121T862 -29Q750 -29 674 11T553 135V0H47V121H199ZM553 479Q553 293 600 210T754 127Q863 127
907 215T952 532Q952 761 908 848T754 936Q648 936 601 853T553 584V479Z" />
<glyph unicode="c" glyph-name="c" horiz-adv-x="1247" d="M1155 332Q1117 150 1000 61T680 -29Q396 -29 240 118T84 532Q84 796 238 944T666 1092Q777 1092 890 1071T1120 1008V713H1008Q992 848 929 913T752 979Q604 979 542 879T479 532Q479 291 540 188T739
84Q846 84 910 148T989 332H1155Z" />
<glyph unicode="d" glyph-name="d" horiz-adv-x="1432" d="M879 479V584Q879 770 831 853T678 936Q568 936 524 849T479 532Q479 303 524 215T678 127Q783 127 831 210T879 479ZM1233 121H1384V0H879V135Q834 52 758 12T569 -29Q343 -29 214 121T84 532Q84 794
213 943T569 1092Q681 1092 757 1052T879 928V1436H727V1556H1233V121Z" />
<glyph unicode="e" glyph-name="e" horiz-adv-x="1303" d="M821 600Q821 810 782 894T649 979Q558 979 519 896T479 618V600H821ZM1210 481H479V473Q479 267 541 176T741 84Q856 84 927 145T1018 322H1184Q1141 141 1013 56T655 -29Q379 -29 232 116T84 532Q84
796 235 944T655 1092Q919 1092 1060 937T1210 481Z" />
<glyph unicode="f" glyph-name="f" horiz-adv-x="881" d="M991 1290H879Q871 1368 834 1406T727 1444Q647 1444 611 1387T575 1200V1063H842V942H575V121H780V0H70V121H221V942H63V1063H221V1196Q221 1373 334 1464T666 1556Q751 1556 832 1547T991 1518V1290Z" />
<glyph unicode="g" glyph-name="g" horiz-adv-x="1432" d="M1233 942V14Q1233 -210 1074 -332T623 -455Q517 -455 408 -439T184 -389V-135H297Q312 -240 381 -291T580 -342Q744 -342 811 -264T879 14V135Q834 52 758 12T569 -29Q343 -29 214 121T84 532Q84 794
213 943T569 1092Q681 1092 757 1052T879 928V1063H1384V942H1233ZM879 584Q879 770 831 853T678 936Q568 936 524 849T479 532Q479 303 524 215T678 127Q783 127 831 210T879 479V584Z" />
<glyph unicode="h" glyph-name="h" horiz-adv-x="1489" d="M70 0V121H221V1436H63V1556H575V913Q639 1008 721 1050T928 1092Q1107 1092 1198 987T1290 676V121H1442V0H807V121H936V686Q936 821 902 873T782 926Q675 926 625 848T575 598V121H705V0H70Z" />
<glyph unicode="i" glyph-name="i" horiz-adv-x="778" d="M188 1364Q188 1445 244 1500T381 1556Q460 1556 515 1501T571 1364Q571 1285 516 1230T381 1174Q300 1174 244 1229T188 1364ZM575 121H727V0H70V121H221V942H70V1063H575V121Z" />
<glyph unicode="j" glyph-name="j" horiz-adv-x="741" d="M178 1364Q178 1445 233 1500T371 1556Q449 1556 505 1500T561 1364Q561 1285 506 1230T371 1174Q290 1174 234 1229T178 1364ZM219 942H68V1063H573V-125Q573 -288 458 -371T117 -455Q57 -455 -11 -445T-152
-416V-190L-39 -191Q-37 -271 -8 -306T88 -342Q161 -342 190 -295T219 -125V942Z" />
<glyph unicode="k" glyph-name="k" horiz-adv-x="1419" d="M709 0H70V121H221V1436H70V1556H575V557L1004 942H877V1063H1362V942H1165L891 696L1339 121H1454V0H844V121H969L674 500L575 412V121H709V0Z" />
<glyph unicode="l" glyph-name="l" horiz-adv-x="778" d="M575 121H727V0H70V121H221V1436H70V1556H575V121Z" />
<glyph unicode="m" glyph-name="m" horiz-adv-x="2167" d="M1243 889Q1317 995 1403 1043T1604 1092Q1787 1092 1877 989T1968 676V121H2120V0H1487V121H1614V623Q1614 822 1584 874T1470 926Q1376 926 1324 854T1272 647V121H1399V0H791V121H918V623Q918 822
887 874T774 926Q679 926 627 854T575 647V121H702V0H70V121H221V942H70V1063H575V913Q637 1006 717 1049T907 1092Q1037 1092 1118 1043T1243 889Z" />
<glyph unicode="n" glyph-name="n" horiz-adv-x="1489" d="M70 0V121H221V942H70V1063H575V913Q639 1008 721 1050T928 1092Q1107 1092 1198 987T1290 676V121H1442V0H807V121H936V686Q936 821 902 873T782 926Q675 926 625 848T575 598V121H705V0H70Z" />
<glyph unicode="o" glyph-name="o" horiz-adv-x="1366" d="M684 84Q796 84 841 180T887 532Q887 788 842 883T684 979Q571 979 525 883T479 532Q479 278 525 181T684 84ZM684 -29Q403 -29 244 120T84 532Q84 795 243 943T684 1092Q966 1092 1125 944T1284 532Q1284
270 1125 121T684 -29Z" />
<glyph unicode="p" glyph-name="p" horiz-adv-x="1432" d="M553 584V479Q553 293 600 210T754 127Q863 127 907 215T952 532Q952 761 908 848T754 936Q648 936 601 853T553 584ZM199 942H47V1063H553V928Q598 1011 674 1051T862 1092Q1089 1092 1219 943T1350
532Q1350 271 1220 121T862 -29Q750 -29 674 11T553 135V-305H717V-426H47V-305H199V942Z" />
<glyph unicode="q" glyph-name="q" horiz-adv-x="1432" d="M1233 942V-305H1384V-426H715V-305H879V135Q834 52 758 12T569 -29Q343 -29 214 121T84 532Q84 794 213 943T569 1092Q681 1092 757 1052T879 928V1063H1384V942H1233ZM879 584Q879 770 831 853T678
936Q568 936 524 849T479 532Q479 303 524 215T678 127Q783 127 831 210T879 479V584Z" />
<glyph unicode="r" glyph-name="r" horiz-adv-x="1079" d="M1100 1075V758H987Q981 843 941 884T825 926Q709 926 642 824T575 541V121H768V0H70V121H221V942H59V1063H575V874Q627 985 712 1038T922 1092Q953 1092 997 1088T1100 1075Z" />
<glyph unicode="s" glyph-name="s" horiz-adv-x="1153" d="M96 31V328H209Q223 209 298 147T502 84Q610 84 667 121T725 229Q725 293 689 328T547 389L401 426Q236 467 162 543T88 750Q88 923 208 1007T578 1092Q672 1092 778 1077T1014 1028V760H901Q892 869
824 924T627 979Q519 979 464 945T408 844Q408 790 440 759T555 707L700 670Q909 617 989 539T1069 322Q1069 142 941 57T541 -29Q442 -29 331 -14T96 31Z" />
<glyph unicode="t" glyph-name="t" horiz-adv-x="946" d="M203 942H49V1063H203V1393H557V1063H852V942H557V291Q557 152 579 118T659 84Q723 84 754 127T787 260H936Q927 100 849 36T578 -29Q359 -29 281 39T203 291V942Z" />
<glyph unicode="u" glyph-name="u" horiz-adv-x="1489" d="M1268 1063V121H1419V0H913V150Q850 55 768 13T561 -29Q382 -29 291 76T199 387V942H47V1063H553V442Q553 244 586 191T707 137Q814 137 863 216T913 467V942H784V1063H1268Z" />
<glyph unicode="v" glyph-name="v" horiz-adv-x="1190" d="M457 0L80 942H-37V1063H573V942H444L713 270L981 942H842V1063H1241V942H1118L741 0H457Z" />
<glyph unicode="w" glyph-name="w" horiz-adv-x="1763" d="M1104 1063L1346 354L1546 942H1407V1063H1804V942H1679L1358 0H1114L889 666L662 0H420L98 942H-18V1063H584V942H459L655 367L893 1063H1104Z" />
<glyph unicode="x" glyph-name="x" horiz-adv-x="1221" d="M719 678L907 942H776V1063H1190V942H1049L778 563L1094 121H1235V0H559V121H696L496 401L295 121H438V0H0V121H152L434 518L129 942H10V1063H659V942H530L719 678Z" />
<glyph unicode="y" glyph-name="y" horiz-adv-x="1190" d="M639 -240Q591 -357 523 -406T340 -455Q291 -455 231 -444T100 -412V-190L213 -191Q216 -268 249 -305T350 -342Q415 -342 455 -307T535 -172L551 -135L88 942H-27V1063H586V942H459L729 313L981 942H840V1063H1239V942H1110L639
-240Z" />
<glyph unicode="z" glyph-name="z" horiz-adv-x="1163" d="M72 0V121L682 946H223V764H104V1063H1094V944L483 119H975V311H1094V0H72Z" />
<glyph unicode="{" glyph-name="braceleft" horiz-adv-x="1317" d="M1133 -213V-334H985Q749 -334 667 -310T535 -223Q506 -187 494 -132T481 35V285Q481 436 428 493T233 551H172V672H233Q374 672 427 729T481 938V1188Q481 1300 493 1354T535 1446Q585 1507
667 1531T985 1556H1133V1436H1030Q918 1436 877 1389T836 1206V936Q836 777 787 710T608 612Q739 578 787 512T836 287V16Q836 -119 877 -166T1030 -213H1133Z" />
<glyph unicode="|" glyph-name="bar" horiz-adv-x="745" d="M479 1565V-483H264V1565H479Z" />
<glyph unicode="}" glyph-name="braceright" horiz-adv-x="1317" d="M186 -213H287Q398 -213 439 -166T481 16V287Q481 444 530 511T711 612Q581 642 531 710T481 936V1206Q481 1342 440 1389T287 1436H186V1556H332Q568 1556 650 1532T782 1446Q811 1409 823
1355T836 1188V938Q836 787 889 730T1083 672H1145V551H1083Q943 551 890 494T836 285V35Q836 -77 824 -132T782 -223Q732 -285 650 -309T332 -334H186V-213Z" />
<glyph unicode="~" glyph-name="asciitilde" horiz-adv-x="1716" d="M1499 831V625Q1406 539 1313 498T1118 457Q1023 457 871 515Q854 521 846 524Q839 527 826 532Q654 598 557 598Q480 598 397 562T217 453V659Q313 746 405 786T598 827Q693 827 844 770Q862
763 870 760L885 754Q1058 686 1159 686Q1236 686 1319 722T1499 831Z" />
<glyph unicode="&#xa0;" glyph-name="nbspace" horiz-adv-x="713" />
<glyph unicode="&#xa1;" glyph-name="exclamdown" horiz-adv-x="899" d="M639 1329Q639 1251 583 1196T449 1141Q370 1141 315 1196T260 1329Q260 1408 315 1464T449 1520Q527 1520 583 1464T639 1329ZM637 0H262L379 842V1032H518V842L637 0Z" />
<glyph unicode="&#xa2;" glyph-name="cent" horiz-adv-x="1425" d="M739 94V969Q640 944 597 844T553 532Q553 321 596 221T739 94ZM1233 332Q1201 175 1107 86T860 -23V-299H739V-29Q462 -23 311 123T160 532Q160 794 311 939T739 1092V1356H860V1087Q919 1083
999 1064T1198 1008V713H1085Q1070 839 1015 903T860 979V88Q951 104 1003 165T1067 332H1233Z" />
<glyph unicode="&#xa3;" glyph-name="sterling" horiz-adv-x="1425" d="M1247 1202H1127Q1121 1299 1072 1353T938 1407Q821 1407 770 1333T719 1083V815H1071V694H719V137H1139V365H1276V0H147V121H340V694H147V815H340V1092Q340 1308 473 1414T881 1520Q946
1520 1036 1511T1247 1485V1202Z" />
<glyph unicode="&#xa4;" glyph-name="currency" horiz-adv-x="1303" d="M653 422Q744 422 808 485T872 641Q872 733 809 796T653 860Q562 860 498 797T434 641Q434 548 497 485T653 422ZM436 268L227 61L76 215L285 424Q254 470 240 523T225 641Q225 704 240 758T285
858L76 1063L229 1221L436 1010Q484 1040 538 1054T653 1069Q708 1069 762 1055T874 1010L1079 1221L1231 1067L1022 862Q1052 806 1066 751T1081 641Q1081 578 1067 526T1022 426L1231 215L1075 61L868 272Q822 242 769 228T653 213Q595 213 541 227T436 268Z"
/>
<glyph unicode="&#xa5;" glyph-name="yen" horiz-adv-x="1425" d="M326 0V121H516V467H113V584H516V643L455 778H113V895H399L176 1372H39V1493H733V1372H563L821 821L1077 1372H926V1493H1362V1372H1227L1006 895H1298V778H948L895 662V584H1298V467H895V121H1085V0H326Z"
/>
<glyph unicode="&#xa6;" glyph-name="brokenbar" horiz-adv-x="745" d="M479 1432V674H264V1432H479ZM479 408V-350H264V408H479Z" />
<glyph unicode="&#xa7;" glyph-name="section" horiz-adv-x="1071" d="M897 1475V1235H778Q772 1321 720 1364T571 1407Q490 1407 445 1370T399 1266Q399 1219 426 1186T543 1106L678 1034Q867 936 937 852T1008 653Q1008 549 951 475T780 358Q863 311 901 248T940
94Q940 -43 831 -119T522 -195Q439 -195 349 -184T156 -150V90H274Q282 0 334 -41T492 -82Q579 -82 625 -45T672 61Q672 108 646 141T528 221L393 293Q205 392 134 476T63 674Q63 777 120 850T293 967Q210 1013 171 1077T131 1231Q131 1367 240 1443T545 1520Q619
1520 706 1509T897 1475ZM395 901Q351 868 328 829T305 745Q305 684 350 633T506 524L674 436Q719 471 742 510T766 592Q766 652 720 703T561 813L395 901Z" />
<glyph unicode="&#xa8;" glyph-name="dieresis" horiz-adv-x="1024" d="M141 1468Q141 1528 185 1571T289 1614Q349 1614 391 1571T434 1468Q434 1408 391 1365T289 1321Q229 1321 185 1365T141 1468ZM588 1468Q588 1528 631 1571T735 1614Q795 1614 839 1571T883
1468Q883 1409 839 1365T735 1321Q675 1321 632 1365T588 1468Z" />
<glyph unicode="&#xa9;" glyph-name="copyright" horiz-adv-x="2048" d="M1024 1485Q1176 1485 1307 1430T1548 1266Q1657 1157 1711 1026T1765 741Q1765 589 1711 459T1548 219Q1439 110 1308 55T1024 0Q872 0 741 55T500 219Q391 328 337 458T283 741Q283 895
337 1026T500 1266Q609 1375 740 1430T1024 1485ZM1024 1331Q903 1331 799 1288T608 1157Q522 1071 479 968T436 741Q436 619 479 516T608 326Q694 240 798 197T1024 154Q1147 154 1250 196T1440 326Q1526 412 1569 515T1612 741Q1612 864 1569 967T1440 1157Q1352
1245 1249 1288T1024 1331ZM1391 580Q1364 441 1273 371T1026 301Q838 301 722 422T606 741Q606 943 723 1063T1036 1184Q1115 1184 1195 1166T1362 1108V885H1257Q1245 979 1193 1032T1059 1085Q955 1085 896 994T836 741Q836 580 895 490T1059 399Q1132 399 1181
445T1253 580H1391Z" />
<glyph unicode="&#xaa;" glyph-name="ordfeminine" horiz-adv-x="997" d="M113 639H911V504H113V639ZM846 1212V850H961V756H582V848Q531 791 467 764T317 737Q194 737 128 798T61 973Q61 1101 155 1164T442 1227H582V1255Q582 1345 535 1389T393 1434Q317 1434
273 1402T219 1307H123V1473Q196 1496 273 1508T434 1520Q648 1520 747 1446T846 1212ZM582 1001V1133H481Q409 1133 368 1096T326 993Q326 931 356 898T444 864Q507 864 544 901T582 1001Z" />
<glyph unicode="&#xab;" glyph-name="guillemotleft" horiz-adv-x="1280" d="M1087 1069V922L848 600L1087 279V131L618 516V684L1087 1069ZM627 1069V922L387 600L627 279V131L158 516V684L627 1069Z" />
<glyph unicode="&#xac;" glyph-name="logicalnot" horiz-adv-x="1716" d="M217 903H1499V287H1270V676H217V903Z" />
<glyph unicode="&#xad;" glyph-name="sfthyphen" horiz-adv-x="850" d="M111 684H739V414H111V684Z" />
<glyph unicode="&#xae;" glyph-name="registered" horiz-adv-x="2048" d="M1166 754Q1205 743 1235 717T1284 649L1384 434H1444V352H1221L1104 606Q1072 674 1043 695T958 717H932V434H1018V352H649V434H735V1077H649V1159H1102Q1222 1159 1291 1104T1360 954Q1360
865 1311 814T1166 754ZM932 799H999Q1078 799 1120 835T1163 938Q1163 1005 1121 1041T999 1077H932V799ZM1024 1485Q1176 1485 1307 1430T1548 1266Q1657 1157 1711 1026T1765 741Q1765 589 1711 459T1548 219Q1439 110 1308 55T1024 0Q872 0 741 55T500 219Q391
328 337 458T283 741Q283 895 337 1026T500 1266Q609 1375 740 1430T1024 1485ZM1024 1331Q903 1331 799 1288T608 1157Q522 1071 479 968T436 741Q436 619 479 516T608 326Q694 240 798 197T1024 154Q1147 154 1250 196T1440 326Q1526 412 1569 515T1612 741Q1612
864 1569 967T1440 1157Q1352 1245 1249 1288T1024 1331Z" />
<glyph unicode="&#xaf;" glyph-name="overscore" horiz-adv-x="1024" d="M197 1548H827V1360H197V1548Z" />
<glyph unicode="&#xb0;" glyph-name="degree" horiz-adv-x="1024" d="M512 1534Q578 1534 639 1509T748 1436Q795 1388 819 1328T844 1200Q844 1133 820 1073T750 967Q702 919 640 894T510 868Q369 868 274 963T178 1200Q178 1341 274 1437T512 1534ZM512 1372Q440
1372 390 1322T340 1200Q340 1128 389 1079T512 1030Q584 1030 634 1079T684 1200Q684 1272 634 1322T512 1372Z" />
<glyph unicode="&#xb1;" glyph-name="plusminus" horiz-adv-x="1716" d="M217 227H1499V0H217V227ZM973 1284V926H1499V698H973V340H743V698H217V926H743V1284H973Z" />
<glyph unicode="&#xb2;" glyph-name="twosuperior" horiz-adv-x="897" d="M188 1284H94V1479Q166 1499 241 1509T397 1520Q578 1520 678 1456T778 1278Q778 1196 724 1132T512 977L268 838H682V934H782V684H86V817L215 901Q402 1024 452 1094T502 1257Q502 1341
461 1388T346 1436Q283 1436 240 1395T188 1284Z" />
<glyph unicode="&#xb3;" glyph-name="threesuperior" horiz-adv-x="897" d="M111 1481Q199 1500 273 1510T412 1520Q592 1520 685 1468T778 1315Q778 1243 726 1196T571 1133Q691 1117 753 1062T815 913Q815 791 713 730T410 668Q330 668 250 678T90 711V911H186Q193
831 236 792T358 752Q446 752 492 795T539 920Q539 1000 490 1043T350 1087H309V1171H340Q421 1171 464 1205T508 1303Q508 1366 469 1401T358 1436Q292 1436 252 1400T207 1299L111 1298V1481Z" />
<glyph unicode="&#xb4;" glyph-name="acute" horiz-adv-x="1024" d="M604 1638H883L510 1262H346L604 1638Z" />
<glyph unicode="&#xb5;" glyph-name="mu" horiz-adv-x="1499" d="M1278 1063V121H1430V0H924V125Q869 42 815 7T686 -29Q655 -29 626 -19T563 12V-305H715V-426H57V-305H209V942H57V1063H563V467Q563 247 597 192T719 137Q825 137 874 216T924 467V942H793V1063H1278Z" />
<glyph unicode="&#xb6;" glyph-name="paragraph" horiz-adv-x="1303" d="M623 1493H1178V1368H1065V-197H913V1368H750V-197H598V649Q383 666 265 776T147 1071Q147 1261 277 1377T623 1493Z" />
<glyph unicode="&#xb7;" glyph-name="middot" horiz-adv-x="713" d="M166 711Q166 789 222 845T356 901Q435 901 491 845T547 711Q547 633 491 578T356 522Q278 522 222 577T166 711Z" />
<glyph unicode="&#xb8;" glyph-name="cedilla" horiz-adv-x="1024" d="M594 0Q656 -64 685 -118T715 -225Q715 -311 651 -356T465 -401Q417 -401 366 -395T263 -375L262 -219Q307 -236 349 -245T428 -254Q488 -254 519 -231T551 -162Q551 -134 535 -101T467 0H594Z" />
<glyph unicode="&#xb9;" glyph-name="onesuperior" horiz-adv-x="897" d="M162 684V778H326V1391L143 1290V1395L365 1520H592V778H756V684H162Z" />
<glyph unicode="&#xba;" glyph-name="ordmasculine" horiz-adv-x="1024" d="M113 639H911V504H113V639ZM512 823Q588 823 621 894T655 1128Q655 1292 622 1363T512 1434Q435 1434 402 1364T369 1128Q369 963 402 893T512 823ZM512 737Q300 737 181 841T61 1128Q61
1311 180 1415T512 1520Q724 1520 843 1416T963 1128Q963 945 844 841T512 737Z" />
<glyph unicode="&#xbb;" glyph-name="guillemotright" horiz-adv-x="1280" d="M193 1069L662 684V516L193 131V279L432 600L193 922V1069ZM653 1069L1122 684V516L653 131V279L893 600L653 922V1069Z" />
<glyph unicode="&#xbc;" glyph-name="onequarter" horiz-adv-x="2136" d="M2044 16H1526V110H1651V231H1288V319L1667 852H1919V325H2066V231H1919V110H2044V16ZM1651 325V659L1411 325H1651ZM162 684V778H326V1391L143 1290V1395L365 1520H592V778H756V684H162ZM1450
1520H1620L686 -29H516L1450 1520Z" />
<glyph unicode="&#xbd;" glyph-name="onehalf" horiz-adv-x="2136" d="M162 684V778H326V1391L143 1290V1395L365 1520H592V778H756V684H162ZM1450 1520H1620L686 -29H516L1450 1520ZM1427 616H1333V811Q1405 831 1480 841T1636 852Q1817 852 1917 788T2017 610Q2017
528 1963 464T1751 309L1507 170H1921V266H2021V16H1325V149L1454 233Q1641 356 1691 426T1741 589Q1741 673 1700 720T1585 768Q1522 768 1479 727T1427 616Z" />
<glyph unicode="&#xbe;" glyph-name="threequarters" horiz-adv-x="2136" d="M2044 16H1526V110H1651V231H1288V319L1667 852H1919V325H2066V231H1919V110H2044V16ZM1651 325V659L1411 325H1651ZM111 1481Q199 1500 273 1510T412 1520Q592 1520 685 1468T778 1315Q778
1243 726 1196T571 1133Q691 1117 753 1062T815 913Q815 791 713 730T410 668Q330 668 250 678T90 711V911H186Q193 831 236 792T358 752Q446 752 492 795T539 920Q539 1000 490 1043T350 1087H309V1171H340Q421 1171 464 1205T508 1303Q508 1366 469 1401T358
1436Q292 1436 252 1400T207 1299L111 1298V1481ZM1450 1520H1620L686 -29H516L1450 1520Z" />
<glyph unicode="&#xbf;" glyph-name="questiondown" horiz-adv-x="1200" d="M858 1329Q858 1251 802 1196T668 1141Q589 1141 534 1196T479 1329Q479 1408 534 1464T668 1520Q746 1520 802 1464T858 1329ZM1067 39Q943 5 831 -12T614 -29Q362 -29 227 81T92 397Q92
599 222 715T598 850V1055H737V756Q598 713 533 621T467 375Q467 230 528 157T709 84Q818 84 877 150T947 346H1067V39Z" />
<glyph unicode="&#xc0;" glyph-name="Agrave" horiz-adv-x="1589" d="M-16 0V121H106L668 1493H907L1470 121H1612V0H913V121H1059L936 426H375L250 121H428V0H-16ZM424 547H887L657 1118L424 547ZM756 1899L938 1635H774L477 1899H756Z" />
<glyph unicode="&#xc1;" glyph-name="Aacute" horiz-adv-x="1589" d="M-16 0V121H106L668 1493H907L1470 121H1612V0H913V121H1059L936 426H375L250 121H428V0H-16ZM424 547H887L657 1118L424 547ZM788 1899H1067L770 1635H606L788 1899Z" />
<glyph unicode="&#xc2;" glyph-name="Acircumflex" horiz-adv-x="1589" d="M-16 0V121H106L668 1493H907L1470 121H1612V0H913V121H1059L936 426H375L250 121H428V0H-16ZM424 547H887L657 1118L424 547ZM618 1899H926L1149 1635H985L772 1796L559 1635H395L618 1899Z" />
<glyph unicode="&#xc3;" glyph-name="Atilde" horiz-adv-x="1589" d="M-16 0V121H106L668 1493H907L1470 121H1612V0H913V121H1059L936 426H375L250 121H428V0H-16ZM424 547H887L657 1118L424 547ZM414 1635V1647Q414 1770 468 1836T622 1903Q683 1903 763 1864Q772
1860 776 1858L848 1825Q876 1812 894 1808T930 1803Q971 1803 995 1828T1020 1897V1901H1130V1886Q1130 1764 1077 1699T922 1633Q888 1633 855 1642T768 1678L711 1706Q684 1719 659 1726T614 1733Q573 1733 549 1708T524 1639V1635H414Z" />
<glyph unicode="&#xc4;" glyph-name="Adieresis" horiz-adv-x="1589" d="M-16 0V121H106L668 1493H907L1470 121H1612V0H913V121H1059L936 426H375L250 121H428V0H-16ZM424 547H887L657 1118L424 547ZM401 1776Q401 1836 445 1879T549 1923Q608 1923 651 1880T694
1776Q694 1716 652 1673T549 1630Q489 1630 445 1673T401 1776ZM848 1776Q848 1836 891 1879T995 1923Q1055 1923 1099 1880T1143 1776Q1143 1716 1099 1673T995 1630Q935 1630 892 1673T848 1776Z" />
<glyph unicode="&#xc5;" glyph-name="Aring" horiz-adv-x="1589" d="M657 1616Q657 1562 696 1524T788 1485Q843 1485 881 1523T920 1616Q920 1670 881 1708T788 1747Q735 1747 696 1709T657 1616ZM-16 0V121H106L625 1384Q567 1421 536 1481T504 1616Q504 1733
587 1817T788 1901Q906 1901 989 1817T1073 1616Q1073 1542 1043 1483T952 1384L1470 121H1612V0H913V121H1059L936 426H375L250 121H428V0H-16ZM424 547H887L659 1118L424 547Z" />
<glyph unicode="&#xc6;" glyph-name="AE" horiz-adv-x="2118" d="M401 545H866V1372H791L401 545ZM676 0V121H866V424H344L201 121H365V0H-63V121H51L643 1372H442V1493H1993V1141H1855V1356H1253V877H1620V1067H1755V551H1620V741H1253V137H1876V352H2011V0H676Z" />
<glyph unicode="&#xc7;" glyph-name="Ccedilla" horiz-adv-x="1630" d="M1526 426Q1467 195 1314 83T903 -29Q525 -29 306 179T86 745Q86 1103 305 1311T903 1520Q1036 1520 1180 1488T1485 1391V1024H1358Q1319 1212 1216 1305T944 1399Q726 1399 620 1239T514
745Q514 412 620 252T946 92Q1095 92 1189 175T1327 426H1526ZM961 0Q1023 -64 1052 -118T1082 -225Q1082 -311 1018 -356T832 -401Q784 -401 733 -395T630 -375L629 -219Q674 -236 716 -245T795 -254Q855 -254 886 -231T918 -162Q918 -134 902 -101T834 0H961Z"
/>
<glyph unicode="&#xc8;" glyph-name="Egrave" horiz-adv-x="1561" d="M96 0V121H287V1372H96V1493H1438V1141H1300V1356H672V877H1063V1067H1200V551H1063V741H672V137H1319V352H1456V0H96ZM799 1899L981 1635H817L520 1899H799Z" />
<glyph unicode="&#xc9;" glyph-name="Eacute" horiz-adv-x="1561" d="M96 0V121H287V1372H96V1493H1438V1141H1300V1356H672V877H1063V1067H1200V551H1063V741H672V137H1319V352H1456V0H96ZM831 1899H1110L813 1635H649L831 1899Z" />
<glyph unicode="&#xca;" glyph-name="Ecircumflex" horiz-adv-x="1561" d="M96 0V121H287V1372H96V1493H1438V1141H1300V1356H672V877H1063V1067H1200V551H1063V741H672V137H1319V352H1456V0H96ZM661 1899H969L1192 1635H1028L815 1796L602 1635H438L661 1899Z" />
<glyph unicode="&#xcb;" glyph-name="Edieresis" horiz-adv-x="1561" d="M96 0V121H287V1372H96V1493H1438V1141H1300V1356H672V877H1063V1067H1200V551H1063V741H672V137H1319V352H1456V0H96ZM444 1776Q444 1836 488 1879T592 1923Q651 1923 694 1880T737 1776Q737
1716 695 1673T592 1630Q532 1630 488 1673T444 1776ZM891 1776Q891 1836 934 1879T1038 1923Q1098 1923 1142 1880T1186 1776Q1186 1716 1142 1673T1038 1630Q978 1630 935 1673T891 1776Z" />
<glyph unicode="&#xcc;" glyph-name="Igrave" horiz-adv-x="958" d="M96 0V121H287V1372H96V1493H864V1372H672V121H864V0H96ZM463 1899L645 1635H481L184 1899H463Z" />
<glyph unicode="&#xcd;" glyph-name="Iacute" horiz-adv-x="958" d="M96 0V121H287V1372H96V1493H864V1372H672V121H864V0H96ZM495 1899H774L477 1635H313L495 1899Z" />
<glyph unicode="&#xce;" glyph-name="Icircumflex" horiz-adv-x="958" d="M96 0V121H287V1372H96V1493H864V1372H672V121H864V0H96ZM325 1899H633L856 1635H692L479 1796L266 1635H102L325 1899Z" />
<glyph unicode="&#xcf;" glyph-name="Idieresis" horiz-adv-x="958" d="M96 0V121H287V1372H96V1493H864V1372H672V121H864V0H96ZM108 1776Q108 1836 152 1879T256 1923Q315 1923 358 1880T401 1776Q401 1716 359 1673T256 1630Q196 1630 152 1673T108 1776ZM555
1776Q555 1836 598 1879T702 1923Q762 1923 806 1880T850 1776Q850 1716 806 1673T702 1630Q642 1630 599 1673T555 1776Z" />
<glyph unicode="&#xd0;" glyph-name="Eth" horiz-adv-x="1790" d="M686 121H825Q1059 121 1166 270T1274 748Q1274 1074 1167 1223T825 1372H686V850H1018V713H686V121ZM109 0V121H301V713H88V850H301V1372H109V1493H877Q1277 1493 1489 1302T1702 748Q1702 385
1490 193T877 0H109Z" />
<glyph unicode="&#xd1;" glyph-name="Ntilde" horiz-adv-x="1872" d="M90 0V121H281V1372H90V1493H557L1458 436V1372H1268V1493H1790V1372H1599V0H1337L422 1079V121H612V0H90ZM578 1635V1647Q578 1770 632 1836T786 1903Q847 1903 927 1864Q936 1860 940 1858L1012
1825Q1040 1812 1058 1808T1094 1803Q1135 1803 1159 1828T1184 1897V1901H1294V1886Q1294 1764 1241 1699T1086 1633Q1052 1633 1019 1642T932 1678L875 1706Q848 1719 823 1726T778 1733Q737 1733 713 1708T688 1639V1635H578Z" />
<glyph unicode="&#xd2;" glyph-name="Ograve" horiz-adv-x="1784" d="M891 92Q1082 92 1175 253T1268 745Q1268 1077 1175 1238T891 1399Q701 1399 608 1237T514 745Q514 417 607 255T891 92ZM891 -29Q514 -29 300 177T86 745Q86 1107 300 1313T891 1520Q1268
1520 1482 1314T1696 745Q1696 383 1482 177T891 -29ZM877 1899L1059 1635H895L598 1899H877Z" />
<glyph unicode="&#xd3;" glyph-name="Oacute" horiz-adv-x="1784" d="M891 92Q1082 92 1175 253T1268 745Q1268 1077 1175 1238T891 1399Q701 1399 608 1237T514 745Q514 417 607 255T891 92ZM891 -29Q514 -29 300 177T86 745Q86 1107 300 1313T891 1520Q1268
1520 1482 1314T1696 745Q1696 383 1482 177T891 -29ZM909 1899H1188L891 1635H727L909 1899Z" />
<glyph unicode="&#xd4;" glyph-name="Ocircumflex" horiz-adv-x="1784" d="M891 92Q1082 92 1175 253T1268 745Q1268 1077 1175 1238T891 1399Q701 1399 608 1237T514 745Q514 417 607 255T891 92ZM891 -29Q514 -29 300 177T86 745Q86 1107 300 1313T891 1520Q1268
1520 1482 1314T1696 745Q1696 383 1482 177T891 -29ZM739 1899H1047L1270 1635H1106L893 1796L680 1635H516L739 1899Z" />
<glyph unicode="&#xd5;" glyph-name="Otilde" horiz-adv-x="1784" d="M891 92Q1082 92 1175 253T1268 745Q1268 1077 1175 1238T891 1399Q701 1399 608 1237T514 745Q514 417 607 255T891 92ZM891 -29Q514 -29 300 177T86 745Q86 1107 300 1313T891 1520Q1268
1520 1482 1314T1696 745Q1696 383 1482 177T891 -29ZM535 1635V1647Q535 1770 589 1836T743 1903Q804 1903 884 1864Q893 1860 897 1858L969 1825Q997 1812 1015 1808T1051 1803Q1092 1803 1116 1828T1141 1897V1901H1251V1886Q1251 1764 1198 1699T1043 1633Q1009
1633 976 1642T889 1678L832 1706Q805 1719 780 1726T735 1733Q694 1733 670 1708T645 1639V1635H535Z" />
<glyph unicode="&#xd6;" glyph-name="Odieresis" horiz-adv-x="1784" d="M891 92Q1082 92 1175 253T1268 745Q1268 1077 1175 1238T891 1399Q701 1399 608 1237T514 745Q514 417 607 255T891 92ZM891 -29Q514 -29 300 177T86 745Q86 1107 300 1313T891 1520Q1268
1520 1482 1314T1696 745Q1696 383 1482 177T891 -29ZM522 1776Q522 1836 566 1879T670 1923Q729 1923 772 1880T815 1776Q815 1716 773 1673T670 1630Q610 1630 566 1673T522 1776ZM969 1776Q969 1836 1012 1879T1116 1923Q1176 1923 1220 1880T1264 1776Q1264
1716 1220 1673T1116 1630Q1056 1630 1013 1673T969 1776Z" />
<glyph unicode="&#xd7;" glyph-name="multiply" horiz-adv-x="1716" d="M1452 1081L1012 641L1452 201L1298 47L858 487L418 47L264 201L705 641L264 1081L418 1237L858 797L1298 1237L1452 1081Z" />
<glyph unicode="&#xd8;" glyph-name="Oslash" horiz-adv-x="1784" d="M535 479L1212 1157Q1170 1276 1089 1337T891 1399Q701 1399 608 1237T514 745Q514 669 519 603T535 479ZM571 334Q616 212 695 152T891 92Q1086 92 1178 259T1270 784Q1270 849 1264 899T1245
993L571 334ZM1516 1280Q1606 1176 1651 1043T1696 745Q1696 383 1482 177T891 -29Q733 -29 601 10T362 127L158 -78L68 12L268 213Q177 315 132 448T86 745Q86 1107 300 1313T891 1520Q1051 1520 1184 1482T1421 1366L1624 1569L1714 1479L1516 1280Z" />
<glyph unicode="&#xd9;" glyph-name="Ugrave" horiz-adv-x="1786" d="M260 1372H70V1493H838V1372H647V625Q647 346 734 235T1032 123Q1238 123 1324 235T1411 625V1372H1221V1493H1741V1372H1550V604Q1550 262 1402 117T905 -29Q558 -29 409 118T260 606V1372ZM928
1899L1110 1635H946L649 1899H928Z" />
<glyph unicode="&#xda;" glyph-name="Uacute" horiz-adv-x="1786" d="M260 1372H70V1493H838V1372H647V625Q647 346 734 235T1032 123Q1238 123 1324 235T1411 625V1372H1221V1493H1741V1372H1550V604Q1550 262 1402 117T905 -29Q558 -29 409 118T260 606V1372ZM960
1899H1239L942 1635H778L960 1899Z" />
<glyph unicode="&#xdb;" glyph-name="Ucircumflex" horiz-adv-x="1786" d="M260 1372H70V1493H838V1372H647V625Q647 346 734 235T1032 123Q1238 123 1324 235T1411 625V1372H1221V1493H1741V1372H1550V604Q1550 262 1402 117T905 -29Q558 -29 409 118T260 606V1372ZM790
1899H1098L1321 1635H1157L944 1796L731 1635H567L790 1899Z" />
<glyph unicode="&#xdc;" glyph-name="Udieresis" horiz-adv-x="1786" d="M260 1372H70V1493H838V1372H647V625Q647 346 734 235T1032 123Q1238 123 1324 235T1411 625V1372H1221V1493H1741V1372H1550V604Q1550 262 1402 117T905 -29Q558 -29 409 118T260 606V1372ZM573
1776Q573 1836 617 1879T721 1923Q780 1923 823 1880T866 1776Q866 1716 824 1673T721 1630Q661 1630 617 1673T573 1776ZM1020 1776Q1020 1836 1063 1879T1167 1923Q1227 1923 1271 1880T1315 1776Q1315 1716 1271 1673T1167 1630Q1107 1630 1064 1673T1020 1776Z"
/>
<glyph unicode="&#xdd;" glyph-name="Yacute" horiz-adv-x="1462" d="M352 0V121H553V618L109 1372H-18V1493H698V1372H532L868 803L1202 1372H1053V1493H1481V1372H1354L940 670V121H1141V0H352ZM747 1899H1026L729 1635H565L747 1899Z" />
<glyph unicode="&#xde;" glyph-name="Thorn" horiz-adv-x="1550" d="M96 0V121H287V1372H96V1493H911V1372H672V1202H946Q1195 1202 1342 1084T1489 766Q1489 567 1342 448T946 328H672V121H913V0H96ZM672 449H784Q914 449 991 535T1069 766Q1069 910 992 995T784
1081H672V449Z" />
<glyph unicode="&#xdf;" glyph-name="germandbls" horiz-adv-x="1556" d="M997 1221Q990 1345 942 1394T782 1444Q673 1444 624 1385T575 1190V0H70V121H221V1147Q221 1348 361 1452T770 1556Q1033 1556 1167 1451T1329 1116H1307Q1152 1116 1073 1071T993 936Q993
896 1016 863T1122 768L1210 705Q1387 577 1436 498T1485 311Q1485 151 1361 61T1012 -29Q932 -29 845 -14T657 31V289H778Q791 182 840 133T983 84Q1059 84 1106 128T1153 244Q1153 349 989 466Q968 481 957 489L868 553Q766 627 721 705T676 889Q676 1023 756
1105T997 1221Z" />
<glyph unicode="&#xe0;" glyph-name="agrave" horiz-adv-x="1327" d="M1128 653V121H1280V0H774V135Q704 51 618 11T422 -29Q259 -29 172 58T84 309Q84 488 209 577T588 666H774V729Q774 858 713 919T524 981Q418 981 361 938T279 795H166V1024Q261 1058 363 1075T578
1092Q863 1092 995 986T1128 653ZM774 334V547H641Q542 547 489 493T436 338Q436 237 474 187T592 137Q674 137 724 191T774 334ZM508 1638L766 1262H602L229 1638H508Z" />
<glyph unicode="&#xe1;" glyph-name="aacute" horiz-adv-x="1327" d="M1128 653V121H1280V0H774V135Q704 51 618 11T422 -29Q259 -29 172 58T84 309Q84 488 209 577T588 666H774V729Q774 858 713 919T524 981Q418 981 361 938T279 795H166V1024Q261 1058 363 1075T578
1092Q863 1092 995 986T1128 653ZM774 334V547H641Q542 547 489 493T436 338Q436 237 474 187T592 137Q674 137 724 191T774 334ZM692 1638H971L598 1262H434L692 1638Z" />
<glyph unicode="&#xe2;" glyph-name="acircumflex" horiz-adv-x="1327" d="M1128 653V121H1280V0H774V135Q704 51 618 11T422 -29Q259 -29 172 58T84 309Q84 488 209 577T588 666H774V729Q774 858 713 919T524 981Q418 981 361 938T279 795H166V1024Q261 1058
363 1075T578 1092Q863 1092 995 986T1128 653ZM774 334V547H641Q542 547 489 493T436 338Q436 237 474 187T592 137Q674 137 724 191T774 334ZM479 1638H721L977 1262H813L600 1487L387 1262H223L479 1638Z" />
<glyph unicode="&#xe3;" glyph-name="atilde" horiz-adv-x="1327" d="M1128 653V121H1280V0H774V135Q704 51 618 11T422 -29Q259 -29 172 58T84 309Q84 488 209 577T588 666H774V729Q774 858 713 919T524 981Q418 981 361 938T279 795H166V1024Q261 1058 363 1075T578
1092Q863 1092 995 986T1128 653ZM774 334V547H641Q542 547 489 493T436 338Q436 237 474 187T592 137Q674 137 724 191T774 334ZM242 1309V1325Q242 1471 295 1546T450 1622Q487 1622 522 1610T604 1567L675 1520L678 1518Q722 1489 758 1489Q799 1489 823 1524T848
1620H958V1604Q958 1458 905 1383T750 1307Q713 1307 678 1319T596 1362L524 1409L523 1410Q478 1440 442 1440Q401 1440 377 1405T352 1309H242Z" />
<glyph unicode="&#xe4;" glyph-name="adieresis" horiz-adv-x="1327" d="M1128 653V121H1280V0H774V135Q704 51 618 11T422 -29Q259 -29 172 58T84 309Q84 488 209 577T588 666H774V729Q774 858 713 919T524 981Q418 981 361 938T279 795H166V1024Q261 1058 363
1075T578 1092Q863 1092 995 986T1128 653ZM774 334V547H641Q542 547 489 493T436 338Q436 237 474 187T592 137Q674 137 724 191T774 334ZM229 1468Q229 1528 273 1571T377 1614Q437 1614 479 1571T522 1468Q522 1408 479 1365T377 1321Q317 1321 273 1365T229
1468ZM676 1468Q676 1528 719 1571T823 1614Q883 1614 927 1571T971 1468Q971 1409 927 1365T823 1321Q763 1321 720 1365T676 1468Z" />
<glyph unicode="&#xe5;" glyph-name="aring" horiz-adv-x="1327" d="M1128 653V121H1280V0H774V135Q704 51 618 11T422 -29Q259 -29 172 58T84 309Q84 488 209 577T588 666H774V729Q774 858 713 919T524 981Q418 981 361 938T279 795H166V1024Q261 1058 363 1075T578
1092Q863 1092 995 986T1128 653ZM774 334V547H641Q542 547 489 493T436 338Q436 237 474 187T592 137Q674 137 724 191T774 334ZM315 1534Q315 1652 398 1735T600 1819Q718 1819 801 1736T885 1534Q885 1416 802 1333T600 1249Q482 1249 399 1332T315 1534ZM469
1534Q469 1479 507 1441T600 1403Q655 1403 693 1441T731 1534Q731 1588 693 1626T600 1665Q545 1665 507 1627T469 1534Z" />
<glyph unicode="&#xe6;" glyph-name="ae" horiz-adv-x="1997" d="M1513 600Q1513 810 1474 894T1341 979Q1250 979 1211 896T1171 618V600H1513ZM975 936Q1052 1014 1144 1053T1348 1092Q1611 1092 1752 937T1902 481H1171V473Q1171 267 1233 176T1434 84Q1548
84 1618 144T1708 322H1876Q1833 141 1706 56T1348 -29Q1214 -29 1110 9T928 127Q839 49 734 10T504 -29Q298 -29 191 57T84 309Q84 489 211 577T598 666H784V729Q784 845 714 912T520 979Q417 979 360 936T279 795H166V1024Q261 1058 363 1075T578 1092Q715 1092
813 1054T975 936ZM784 330V547H651Q542 547 489 492T436 324Q436 211 475 163T604 115Q690 115 737 171T784 330Z" />
<glyph unicode="&#xe7;" glyph-name="ccedilla" horiz-adv-x="1247" d="M1155 332Q1117 150 1000 61T680 -29Q396 -29 240 118T84 532Q84 796 238 944T666 1092Q777 1092 890 1071T1120 1008V713H1008Q992 848 929 913T752 979Q604 979 542 879T479 532Q479 291
540 188T739 84Q846 84 910 148T989 332H1155ZM733 0Q795 -64 824 -118T854 -225Q854 -311 790 -356T604 -401Q556 -401 505 -395T402 -375L401 -219Q446 -236 488 -245T567 -254Q627 -254 658 -231T690 -162Q690 -134 674 -101T606 0H733Z" />
<glyph unicode="&#xe8;" glyph-name="egrave" horiz-adv-x="1303" d="M821 600Q821 810 782 894T649 979Q558 979 519 896T479 618V600H821ZM1210 481H479V473Q479 267 541 176T741 84Q856 84 927 145T1018 322H1184Q1141 141 1013 56T655 -29Q379 -29 232 116T84
532Q84 796 235 944T655 1092Q919 1092 1060 937T1210 481ZM559 1638L817 1262H653L280 1638H559Z" />
<glyph unicode="&#xe9;" glyph-name="eacute" horiz-adv-x="1303" d="M821 600Q821 810 782 894T649 979Q558 979 519 896T479 618V600H821ZM1210 481H479V473Q479 267 541 176T741 84Q856 84 927 145T1018 322H1184Q1141 141 1013 56T655 -29Q379 -29 232 116T84
532Q84 796 235 944T655 1092Q919 1092 1060 937T1210 481ZM743 1638H1022L649 1262H485L743 1638Z" />
<glyph unicode="&#xea;" glyph-name="ecircumflex" horiz-adv-x="1303" d="M821 600Q821 810 782 894T649 979Q558 979 519 896T479 618V600H821ZM1210 481H479V473Q479 267 541 176T741 84Q856 84 927 145T1018 322H1184Q1141 141 1013 56T655 -29Q379 -29 232
116T84 532Q84 796 235 944T655 1092Q919 1092 1060 937T1210 481ZM530 1638H772L1028 1262H864L651 1487L438 1262H274L530 1638Z" />
<glyph unicode="&#xeb;" glyph-name="edieresis" horiz-adv-x="1303" d="M821 600Q821 810 782 894T649 979Q558 979 519 896T479 618V600H821ZM1210 481H479V473Q479 267 541 176T741 84Q856 84 927 145T1018 322H1184Q1141 141 1013 56T655 -29Q379 -29 232
116T84 532Q84 796 235 944T655 1092Q919 1092 1060 937T1210 481ZM280 1468Q280 1528 324 1571T428 1614Q488 1614 530 1571T573 1468Q573 1408 530 1365T428 1321Q368 1321 324 1365T280 1468ZM727 1468Q727 1528 770 1571T874 1614Q934 1614 978 1571T1022 1468Q1022
1409 978 1365T874 1321Q814 1321 771 1365T727 1468Z" />
<glyph unicode="&#xec;" glyph-name="igrave" horiz-adv-x="778" d="M575 121H727V0H70V121H221V942H70V1063H575V121ZM553 1638L811 1262H647L274 1638H553Z" />
<glyph unicode="&#xed;" glyph-name="iacute" horiz-adv-x="778" d="M575 121H727V0H70V121H221V942H70V1063H575V121ZM737 1638H1016L643 1262H479L737 1638Z" />
<glyph unicode="&#xee;" glyph-name="icircumflex" horiz-adv-x="778" d="M575 121H727V0H70V121H221V942H70V1063H575V121ZM524 1638H766L1022 1262H858L645 1487L432 1262H268L524 1638Z" />
<glyph unicode="&#xef;" glyph-name="idieresis" horiz-adv-x="778" d="M575 121H727V0H70V121H221V942H70V1063H575V121ZM274 1468Q274 1528 318 1571T422 1614Q482 1614 524 1571T567 1468Q567 1408 524 1365T422 1321Q362 1321 318 1365T274 1468ZM721 1468Q721
1528 764 1571T868 1614Q928 1614 972 1571T1016 1468Q1016 1409 972 1365T868 1321Q808 1321 765 1365T721 1468Z" />
<glyph unicode="&#xf0;" glyph-name="eth" horiz-adv-x="1366" d="M895 1337Q1083 1188 1183 987T1284 557Q1284 282 1125 127T684 -29Q409 -29 247 117T84 508Q84 738 243 889T647 1040Q689 1040 732 1034T819 1016Q798 1079 766 1134T686 1241L367 1092L317
1192L596 1323Q544 1361 468 1392T291 1446L319 1556Q459 1539 576 1503T784 1411L1114 1565L1161 1462L895 1337ZM838 891Q791 910 754 919T684 928Q573 928 526 833T479 508Q479 274 526 179T684 84Q795 84 841 178T887 508Q887 615 875 710T838 891Z" />
<glyph unicode="&#xf1;" glyph-name="ntilde" horiz-adv-x="1489" d="M70 0V121H221V942H70V1063H575V913Q639 1008 721 1050T928 1092Q1107 1092 1198 987T1290 676V121H1442V0H807V121H936V686Q936 821 902 873T782 926Q675 926 625 848T575 598V121H705V0H70ZM369
1309V1325Q369 1471 422 1546T577 1622Q614 1622 649 1610T731 1567L802 1520L805 1518Q849 1489 885 1489Q926 1489 950 1524T975 1620H1085V1604Q1085 1458 1032 1383T877 1307Q840 1307 805 1319T723 1362L651 1409L650 1410Q605 1440 569 1440Q528 1440 504
1405T479 1309H369Z" />
<glyph unicode="&#xf2;" glyph-name="ograve" horiz-adv-x="1366" d="M684 84Q796 84 841 180T887 532Q887 788 842 883T684 979Q571 979 525 883T479 532Q479 278 525 181T684 84ZM684 -29Q403 -29 244 120T84 532Q84 795 243 943T684 1092Q966 1092 1125 944T1284
532Q1284 270 1125 121T684 -29ZM592 1638L850 1262H686L313 1638H592Z" />
<glyph unicode="&#xf3;" glyph-name="oacute" horiz-adv-x="1366" d="M684 84Q796 84 841 180T887 532Q887 788 842 883T684 979Q571 979 525 883T479 532Q479 278 525 181T684 84ZM684 -29Q403 -29 244 120T84 532Q84 795 243 943T684 1092Q966 1092 1125 944T1284
532Q1284 270 1125 121T684 -29ZM776 1638H1055L682 1262H518L776 1638Z" />
<glyph unicode="&#xf4;" glyph-name="ocircumflex" horiz-adv-x="1366" d="M684 84Q796 84 841 180T887 532Q887 788 842 883T684 979Q571 979 525 883T479 532Q479 278 525 181T684 84ZM684 -29Q403 -29 244 120T84 532Q84 795 243 943T684 1092Q966 1092 1125
944T1284 532Q1284 270 1125 121T684 -29ZM563 1638H805L1061 1262H897L684 1487L471 1262H307L563 1638Z" />
<glyph unicode="&#xf5;" glyph-name="otilde" horiz-adv-x="1366" d="M684 84Q796 84 841 180T887 532Q887 788 842 883T684 979Q571 979 525 883T479 532Q479 278 525 181T684 84ZM684 -29Q403 -29 244 120T84 532Q84 795 243 943T684 1092Q966 1092 1125 944T1284
532Q1284 270 1125 121T684 -29ZM326 1309V1325Q326 1471 379 1546T534 1622Q571 1622 606 1610T688 1567L759 1520L762 1518Q806 1489 842 1489Q883 1489 907 1524T932 1620H1042V1604Q1042 1458 989 1383T834 1307Q797 1307 762 1319T680 1362L608 1409L607 1410Q562
1440 526 1440Q485 1440 461 1405T436 1309H326Z" />
<glyph unicode="&#xf6;" glyph-name="odieresis" horiz-adv-x="1366" d="M684 84Q796 84 841 180T887 532Q887 788 842 883T684 979Q571 979 525 883T479 532Q479 278 525 181T684 84ZM684 -29Q403 -29 244 120T84 532Q84 795 243 943T684 1092Q966 1092 1125
944T1284 532Q1284 270 1125 121T684 -29ZM313 1468Q313 1528 357 1571T461 1614Q521 1614 563 1571T606 1468Q606 1408 563 1365T461 1321Q401 1321 357 1365T313 1468ZM760 1468Q760 1528 803 1571T907 1614Q967 1614 1011 1571T1055 1468Q1055 1409 1011 1365T907
1321Q847 1321 804 1365T760 1468Z" />
<glyph unicode="&#xf7;" glyph-name="divide" horiz-adv-x="1716" d="M709 1012Q709 1073 753 1117T858 1161Q920 1161 964 1117T1008 1012Q1008 950 964 906T858 862Q797 862 753 906T709 1012ZM709 272Q709 334 753 378T858 422Q920 422 964 378T1008 272Q1008
211 964 167T858 123Q797 123 753 167T709 272ZM217 756H1499V528H217V756Z" />
<glyph unicode="&#xf8;" glyph-name="oslash" horiz-adv-x="1366" d="M481 416L868 801Q851 891 806 935T684 979Q574 979 528 884T481 553V416ZM500 262Q515 173 561 129T684 84Q793 84 839 178T885 508V649L500 262ZM1151 913Q1217 841 1250 746T1284 532Q1284
270 1125 121T684 -29Q573 -29 480 -5T307 70L135 -102L51 -16L215 147Q150 222 117 318T84 532Q84 795 243 943T684 1092Q800 1092 894 1067T1061 993L1229 1161L1315 1075L1151 913Z" />
<glyph unicode="&#xf9;" glyph-name="ugrave" horiz-adv-x="1489" d="M1268 1063V121H1419V0H913V150Q850 55 768 13T561 -29Q382 -29 291 76T199 387V942H47V1063H553V442Q553 244 586 191T707 137Q814 137 863 216T913 467V942H784V1063H1268ZM615 1638L873
1262H709L336 1638H615Z" />
<glyph unicode="&#xfa;" glyph-name="uacute" horiz-adv-x="1489" d="M1268 1063V121H1419V0H913V150Q850 55 768 13T561 -29Q382 -29 291 76T199 387V942H47V1063H553V442Q553 244 586 191T707 137Q814 137 863 216T913 467V942H784V1063H1268ZM799 1638H1078L705
1262H541L799 1638Z" />
<glyph unicode="&#xfb;" glyph-name="ucircumflex" horiz-adv-x="1489" d="M1268 1063V121H1419V0H913V150Q850 55 768 13T561 -29Q382 -29 291 76T199 387V942H47V1063H553V442Q553 244 586 191T707 137Q814 137 863 216T913 467V942H784V1063H1268ZM586 1638H828L1084
1262H920L707 1487L494 1262H330L586 1638Z" />
<glyph unicode="&#xfc;" glyph-name="udieresis" horiz-adv-x="1489" d="M1268 1063V121H1419V0H913V150Q850 55 768 13T561 -29Q382 -29 291 76T199 387V942H47V1063H553V442Q553 244 586 191T707 137Q814 137 863 216T913 467V942H784V1063H1268ZM336 1468Q336
1528 380 1571T484 1614Q544 1614 586 1571T629 1468Q629 1408 586 1365T484 1321Q424 1321 380 1365T336 1468ZM783 1468Q783 1528 826 1571T930 1614Q990 1614 1034 1571T1078 1468Q1078 1409 1034 1365T930 1321Q870 1321 827 1365T783 1468Z" />
<glyph unicode="&#xfd;" glyph-name="yacute" horiz-adv-x="1190" d="M639 -240Q591 -357 523 -406T340 -455Q291 -455 231 -444T100 -412V-190L213 -191Q216 -268 249 -305T350 -342Q415 -342 455 -307T535 -172L551 -135L88 942H-27V1063H586V942H459L729 313L981
942H840V1063H1239V942H1110L639 -240ZM688 1638H967L594 1262H430L688 1638Z" />
<glyph unicode="&#xfe;" glyph-name="thorn" horiz-adv-x="1432" d="M553 584V479Q553 293 600 210T754 127Q863 127 907 215T952 532Q952 761 908 848T754 936Q648 936 601 853T553 584ZM199 1436H47V1556H553V928Q598 1011 674 1051T862 1092Q1089 1092 1219
943T1350 532Q1350 271 1220 121T862 -29Q750 -29 674 11T553 135V-305H717V-426H47V-305H199V1436Z" />
<glyph unicode="&#xff;" glyph-name="ydieresis" horiz-adv-x="1190" d="M639 -240Q591 -357 523 -406T340 -455Q291 -455 231 -444T100 -412V-190L213 -191Q216 -268 249 -305T350 -342Q415 -342 455 -307T535 -172L551 -135L88 942H-27V1063H586V942H459L729
313L981 942H840V1063H1239V942H1110L639 -240ZM225 1468Q225 1528 269 1571T373 1614Q433 1614 475 1571T518 1468Q518 1408 475 1365T373 1321Q313 1321 269 1365T225 1468ZM672 1468Q672 1528 715 1571T819 1614Q879 1614 923 1571T967 1468Q967 1409 923 1365T819
1321Q759 1321 716 1365T672 1468Z" />
<glyph unicode="&#x100;" glyph-name="Amacron" horiz-adv-x="1589" d="M473 1872H1103V1684H473V1872ZM-16 0V121H106L668 1493H907L1470 121H1612V0H913V121H1059L936 426H375L250 121H428V0H-16ZM424 547H887L657 1118L424 547Z" />
<glyph unicode="&#x101;" glyph-name="amacron" horiz-adv-x="1327" d="M263 1562H893V1374H263V1562ZM1128 653V121H1280V0H774V135Q704 51 618 11T422 -29Q259 -29 172 58T84 309Q84 488 209 577T588 666H774V729Q774 858 713 919T524 981Q418 981 361 938T279
795H166V1024Q261 1058 363 1075T578 1092Q863 1092 995 986T1128 653ZM774 334V547H641Q542 547 489 493T436 338Q436 237 474 187T592 137Q674 137 724 191T774 334Z" />
<glyph unicode="&#x102;" glyph-name="Abreve" horiz-adv-x="1589" d="M442 1917H567Q573 1844 629 1805T784 1766Q883 1766 939 1805T1001 1917H1126Q1126 1771 1036 1689T784 1606Q621 1606 533 1687T442 1917ZM-16 0V121H106L668 1493H907L1470 121H1612V0H913V121H1059L936
426H375L250 121H428V0H-16ZM424 547H887L657 1118L424 547Z" />
<glyph unicode="&#x103;" glyph-name="abreve" horiz-adv-x="1327" d="M289 1589H414Q420 1516 476 1477T631 1438Q730 1438 786 1477T848 1589H973Q973 1443 883 1361T631 1278Q468 1278 380 1359T289 1589ZM1128 653V121H1280V0H774V135Q704 51 618 11T422 -29Q259
-29 172 58T84 309Q84 488 209 577T588 666H774V729Q774 858 713 919T524 981Q418 981 361 938T279 795H166V1024Q261 1058 363 1075T578 1092Q863 1092 995 986T1128 653ZM774 334V547H641Q542 547 489 493T436 338Q436 237 474 187T592 137Q674 137 724 191T774
334Z" />
<glyph unicode="&#x104;" glyph-name="Aogonek" horiz-adv-x="1589" d="M919 0H1044Q995 -65 976 -102T956 -168Q956 -209 984 -231T1065 -254Q1104 -254 1144 -246T1223 -223L1222 -379Q1168 -390 1120 -395T1030 -401Q917 -401 855 -355T792 -225Q792 -173 823
-119T919 0ZM-16 0V121H106L668 1493H907L1470 121H1612V0H913V121H1059L936 426H375L250 121H428V0H-16ZM424 547H887L657 1118L424 547Z" />
<glyph unicode="&#x105;" glyph-name="aogonek" horiz-adv-x="1327" d="M780 0H905Q856 -65 837 -102T817 -168Q817 -209 845 -231T926 -254Q965 -254 1005 -246T1084 -223L1083 -379Q1029 -390 981 -395T891 -401Q778 -401 716 -355T653 -225Q653 -173 684 -119T780
0ZM1128 653V121H1280V0H774V135Q704 51 618 11T422 -29Q259 -29 172 58T84 309Q84 488 209 577T588 666H774V729Q774 858 713 919T524 981Q418 981 361 938T279 795H166V1024Q261 1058 363 1075T578 1092Q863 1092 995 986T1128 653ZM774 334V547H641Q542 547
489 493T436 338Q436 237 474 187T592 137Q674 137 724 191T774 334Z" />
<glyph unicode="&#x106;" glyph-name="Cacute" horiz-adv-x="1630" d="M1526 426Q1467 195 1314 83T903 -29Q525 -29 306 179T86 745Q86 1103 305 1311T903 1520Q1036 1520 1180 1488T1485 1391V1024H1358Q1319 1212 1216 1305T944 1399Q726 1399 620 1239T514
745Q514 412 620 252T946 92Q1095 92 1189 175T1327 426H1526ZM905 1899H1184L887 1635H723L905 1899Z" />
<glyph unicode="&#x107;" glyph-name="cacute" horiz-adv-x="1247" d="M1155 332Q1117 150 1000 61T680 -29Q396 -29 240 118T84 532Q84 796 238 944T666 1092Q777 1092 890 1071T1120 1008V713H1008Q992 848 929 913T752 979Q604 979 542 879T479 532Q479 291
540 188T739 84Q846 84 910 148T989 332H1155ZM756 1638H1035L662 1262H498L756 1638Z" />
<glyph unicode="&#x108;" glyph-name="Ccircumflex" horiz-adv-x="1630" d="M735 1899H1043L1266 1635H1102L889 1796L676 1635H512L735 1899ZM1526 426Q1467 195 1314 83T903 -29Q525 -29 306 179T86 745Q86 1103 305 1311T903 1520Q1036 1520 1180 1488T1485
1391V1024H1358Q1319 1212 1216 1305T944 1399Q726 1399 620 1239T514 745Q514 412 620 252T946 92Q1095 92 1189 175T1327 426H1526Z" />
<glyph unicode="&#x109;" glyph-name="ccircumflex" horiz-adv-x="1247" d="M543 1638H785L1041 1262H877L664 1487L451 1262H287L543 1638ZM1155 332Q1117 150 1000 61T680 -29Q396 -29 240 118T84 532Q84 796 238 944T666 1092Q777 1092 890 1071T1120 1008V713H1008Q992
848 929 913T752 979Q604 979 542 879T479 532Q479 291 540 188T739 84Q846 84 910 148T989 332H1155Z" />
<glyph unicode="&#x10a;" glyph-name="Cdotaccent" horiz-adv-x="1630" d="M742 1776Q742 1836 785 1879T889 1923Q949 1923 992 1880T1036 1776Q1036 1716 993 1673T889 1630Q829 1630 786 1673T742 1776ZM1526 426Q1467 195 1314 83T903 -29Q525 -29 306 179T86
745Q86 1103 305 1311T903 1520Q1036 1520 1180 1488T1485 1391V1024H1358Q1319 1212 1216 1305T944 1399Q726 1399 620 1239T514 745Q514 412 620 252T946 92Q1095 92 1189 175T1327 426H1526Z" />
<glyph unicode="&#x10b;" glyph-name="cdotaccent" horiz-adv-x="1247" d="M517 1468Q517 1528 560 1571T664 1614T767 1571T811 1468Q811 1409 768 1365T664 1321T561 1365T517 1468ZM1155 332Q1117 150 1000 61T680 -29Q396 -29 240 118T84 532Q84 796 238 944T666
1092Q777 1092 890 1071T1120 1008V713H1008Q992 848 929 913T752 979Q604 979 542 879T479 532Q479 291 540 188T739 84Q846 84 910 148T989 332H1155Z" />
<glyph unicode="&#x10c;" glyph-name="Ccaron" horiz-adv-x="1630" d="M1526 426Q1467 195 1314 83T903 -29Q525 -29 306 179T86 745Q86 1103 305 1311T903 1520Q1036 1520 1180 1488T1485 1391V1024H1358Q1319 1212 1216 1305T944 1399Q726 1399 620 1239T514
745Q514 412 620 252T946 92Q1095 92 1189 175T1327 426H1526ZM735 1635L512 1899H676L889 1737L1102 1899H1266L1043 1635H735Z" />
<glyph unicode="&#x10d;" glyph-name="ccaron" horiz-adv-x="1247" d="M1155 332Q1117 150 1000 61T680 -29Q396 -29 240 118T84 532Q84 796 238 944T666 1092Q777 1092 890 1071T1120 1008V713H1008Q992 848 929 913T752 979Q604 979 542 879T479 532Q479 291
540 188T739 84Q846 84 910 148T989 332H1155ZM543 1262L287 1638H451L664 1411L877 1638H1041L785 1262H543Z" />
<glyph unicode="&#x10e;" glyph-name="Dcaron" horiz-adv-x="1776" d="M672 121H811Q1045 121 1153 271T1262 748Q1262 1073 1154 1222T811 1372H672V121ZM96 0V121H287V1372H96V1493H862Q1264 1493 1477 1301T1690 748Q1690 385 1477 193T862 0H96ZM711 1635L488
1899H652L865 1737L1078 1899H1242L1019 1635H711Z" />
<glyph unicode="&#x10f;" glyph-name="dcaron" horiz-adv-x="1432" d="M879 479V584Q879 770 831 853T678 936Q568 936 524 849T479 532Q479 303 524 215T678 127Q783 127 831 210T879 479ZM1233 121H1384V0H879V135Q834 52 758 12T569 -29Q343 -29 214 121T84
532Q84 794 213 943T569 1092Q681 1092 757 1052T879 928V1436H727V1556H1233V121ZM1466 1554H1745L1561 1178H1397L1466 1554Z" />
<glyph unicode="&#x110;" glyph-name="Dcroat" horiz-adv-x="1790" d="M686 121H825Q1059 121 1166 270T1274 748Q1274 1074 1167 1223T825 1372H686V850H1018V713H686V121ZM109 0V121H301V713H88V850H301V1372H109V1493H877Q1277 1493 1489 1302T1702 748Q1702
385 1490 193T877 0H109Z" />
<glyph unicode="&#x111;" glyph-name="" horiz-adv-x="1432" d="M879 479V584Q879 770 831 853T678 936Q568 936 524 849T479 532Q479 303 524 215T678 127Q783 127 831 210T879 479ZM1233 121H1384V0H879V135Q834 52 758 12T569 -29Q343 -29 214 121T84 532Q84
794 213 943T569 1092Q681 1092 757 1052T879 928V1223H555V1343H879V1436H727V1556H1233V1343H1405V1223H1233V121Z" />
<glyph unicode="&#x112;" glyph-name="Emacron" horiz-adv-x="1561" d="M452 1872H1082V1684H452V1872ZM96 0V121H287V1372H96V1493H1438V1141H1300V1356H672V877H1063V1067H1200V551H1063V741H672V137H1319V352H1456V0H96Z" />
<glyph unicode="&#x113;" glyph-name="emacron" horiz-adv-x="1303" d="M340 1562H970V1374H340V1562ZM821 600Q821 810 782 894T649 979Q558 979 519 896T479 618V600H821ZM1210 481H479V473Q479 267 541 176T741 84Q856 84 927 145T1018 322H1184Q1141 141 1013
56T655 -29Q379 -29 232 116T84 532Q84 796 235 944T655 1092Q919 1092 1060 937T1210 481Z" />
<glyph unicode="&#x114;" glyph-name="Ebreve" horiz-adv-x="1561" d="M475 1899H598Q620 1844 675 1815T815 1786Q899 1786 955 1815T1032 1899H1155Q1127 1768 1042 1702T815 1635Q671 1635 587 1700T475 1899ZM96 0V121H287V1372H96V1493H1438V1141H1300V1356H672V877H1063V1067H1200V551H1063V741H672V137H1319V352H1456V0H96Z"
/>
<glyph unicode="&#x115;" glyph-name="ebreve" horiz-adv-x="1303" d="M309 1589H434Q440 1516 496 1477T651 1438Q750 1438 806 1477T868 1589H993Q993 1443 903 1361T651 1278Q488 1278 400 1359T309 1589ZM821 600Q821 810 782 894T649 979Q558 979 519 896T479
618V600H821ZM1210 481H479V473Q479 267 541 176T741 84Q856 84 927 145T1018 322H1184Q1141 141 1013 56T655 -29Q379 -29 232 116T84 532Q84 796 235 944T655 1092Q919 1092 1060 937T1210 481Z" />
<glyph unicode="&#x116;" glyph-name="Edotaccent" horiz-adv-x="1561" d="M668 1776Q668 1836 711 1879T815 1923Q875 1923 918 1880T962 1776Q962 1716 919 1673T815 1630Q755 1630 712 1673T668 1776ZM96 0V121H287V1372H96V1493H1438V1141H1300V1356H672V877H1063V1067H1200V551H1063V741H672V137H1319V352H1456V0H96Z"
/>
<glyph unicode="&#x117;" glyph-name="edotaccent" horiz-adv-x="1303" d="M504 1468Q504 1528 547 1571T651 1614T754 1571T798 1468Q798 1409 755 1365T651 1321T548 1365T504 1468ZM821 600Q821 810 782 894T649 979Q558 979 519 896T479 618V600H821ZM1210
481H479V473Q479 267 541 176T741 84Q856 84 927 145T1018 322H1184Q1141 141 1013 56T655 -29Q379 -29 232 116T84 532Q84 796 235 944T655 1092Q919 1092 1060 937T1210 481Z" />
<glyph unicode="&#x118;" glyph-name="Eogonek" horiz-adv-x="1561" d="M1154 0H1279Q1230 -65 1211 -102T1191 -168Q1191 -209 1219 -231T1300 -254Q1339 -254 1379 -246T1458 -223L1457 -379Q1403 -390 1355 -395T1265 -401Q1152 -401 1090 -355T1027 -225Q1027
-173 1058 -119T1154 0ZM96 0V121H287V1372H96V1493H1438V1141H1300V1356H672V877H1063V1067H1200V551H1063V741H672V137H1319V352H1456V0H96Z" />
<glyph unicode="&#x119;" glyph-name="eogonek" horiz-adv-x="1303" d="M772 0H897Q848 -65 829 -102T809 -168Q809 -209 837 -231T918 -254Q957 -254 997 -246T1076 -223L1075 -379Q1021 -390 973 -395T883 -401Q770 -401 708 -355T645 -225Q645 -173 676 -119T772
0ZM821 600Q821 810 782 894T649 979Q558 979 519 896T479 618V600H821ZM1210 481H479V473Q479 267 541 176T741 84Q856 84 927 145T1018 322H1184Q1141 141 1013 56T655 -29Q379 -29 232 116T84 532Q84 796 235 944T655 1092Q919 1092 1060 937T1210 481Z" />
<glyph unicode="&#x11a;" glyph-name="Ecaron" horiz-adv-x="1561" d="M96 0V121H287V1372H96V1493H1438V1141H1300V1356H672V877H1063V1067H1200V551H1063V741H672V137H1319V352H1456V0H96ZM657 1641L434 1905H598L811 1743L1024 1905H1188L965 1641H657Z" />
<glyph unicode="&#x11b;" glyph-name="ecaron" horiz-adv-x="1303" d="M821 600Q821 810 782 894T649 979Q558 979 519 896T479 618V600H821ZM1210 481H479V473Q479 267 541 176T741 84Q856 84 927 145T1018 322H1184Q1141 141 1013 56T655 -29Q379 -29 232 116T84
532Q84 796 235 944T655 1092Q919 1092 1060 937T1210 481ZM543 1262L287 1638H451L664 1411L877 1638H1041L785 1262H543Z" />
<glyph unicode="&#x11c;" glyph-name="Gcircumflex" horiz-adv-x="1749" d="M755 1899H1063L1286 1635H1122L909 1796L696 1635H532L755 1899ZM1409 1024Q1364 1222 1259 1310T963 1399Q731 1399 623 1242T514 745Q514 409 618 251T942 92Q1026 92 1098 111T1229
168V578H1049V698H1587V125Q1419 47 1252 9T909 -29Q525 -29 306 178T86 745Q86 1106 305 1313T909 1520Q1069 1520 1224 1488T1536 1391V1024H1409Z" />
<glyph unicode="&#x11d;" glyph-name="gcircumflex" horiz-adv-x="1432" d="M557 1638H799L1055 1262H891L678 1487L465 1262H301L557 1638ZM1233 942V14Q1233 -210 1074 -332T623 -455Q517 -455 408 -439T184 -389V-135H297Q312 -240 381 -291T580 -342Q744 -342
811 -264T879 14V135Q834 52 758 12T569 -29Q343 -29 214 121T84 532Q84 794 213 943T569 1092Q681 1092 757 1052T879 928V1063H1384V942H1233ZM879 584Q879 770 831 853T678 936Q568 936 524 849T479 532Q479 303 524 215T678 127Q783 127 831 210T879 479V584Z"
/>
<glyph unicode="&#x11e;" glyph-name="Gbreve" horiz-adv-x="1749" d="M1409 1024Q1364 1222 1259 1310T963 1399Q731 1399 623 1242T514 745Q514 409 618 251T942 92Q1026 92 1098 111T1229 168V578H1049V698H1587V125Q1419 47 1252 9T909 -29Q525 -29 306 178T86
745Q86 1106 305 1313T909 1520Q1069 1520 1224 1488T1536 1391V1024H1409ZM534 1899H657Q679 1844 734 1815T874 1786Q958 1786 1014 1815T1091 1899H1214Q1186 1768 1101 1702T874 1635Q730 1635 646 1700T534 1899Z" />
<glyph unicode="&#x11f;" glyph-name="gbreve" horiz-adv-x="1432" d="M1233 942V14Q1233 -210 1074 -332T623 -455Q517 -455 408 -439T184 -389V-135H297Q312 -240 381 -291T580 -342Q744 -342 811 -264T879 14V135Q834 52 758 12T569 -29Q343 -29 214 121T84
532Q84 794 213 943T569 1092Q681 1092 757 1052T879 928V1063H1384V942H1233ZM879 584Q879 770 831 853T678 936Q568 936 524 849T479 532Q479 303 524 215T678 127Q783 127 831 210T879 479V584ZM375 1589H500Q506 1516 562 1477T717 1438Q816 1438 872 1477T934
1589H1059Q1059 1443 969 1361T717 1278Q554 1278 466 1359T375 1589Z" />
<glyph unicode="&#x120;" glyph-name="Gdotaccent" horiz-adv-x="1749" d="M762 1776Q762 1836 805 1879T909 1923Q969 1923 1012 1880T1056 1776Q1056 1716 1013 1673T909 1630Q849 1630 806 1673T762 1776ZM1409 1024Q1364 1222 1259 1310T963 1399Q731 1399
623 1242T514 745Q514 409 618 251T942 92Q1026 92 1098 111T1229 168V578H1049V698H1587V125Q1419 47 1252 9T909 -29Q525 -29 306 178T86 745Q86 1106 305 1313T909 1520Q1069 1520 1224 1488T1536 1391V1024H1409Z" />
<glyph unicode="&#x121;" glyph-name="gdotaccent" horiz-adv-x="1432" d="M531 1468Q531 1528 574 1571T678 1614T781 1571T825 1468Q825 1409 782 1365T678 1321T575 1365T531 1468ZM1233 942V14Q1233 -210 1074 -332T623 -455Q517 -455 408 -439T184 -389V-135H297Q312
-240 381 -291T580 -342Q744 -342 811 -264T879 14V135Q834 52 758 12T569 -29Q343 -29 214 121T84 532Q84 794 213 943T569 1092Q681 1092 757 1052T879 928V1063H1384V942H1233ZM879 584Q879 770 831 853T678 936Q568 936 524 849T479 532Q479 303 524 215T678
127Q783 127 831 210T879 479V584Z" />
<glyph unicode="&#x122;" glyph-name="Gcommaaccent" horiz-adv-x="1749" d="M730 -420Q808 -378 845 -326T882 -205V-162H1096V-166Q1096 -277 1026 -356Q957 -436 813 -491L730 -420ZM1409 1024Q1364 1222 1259 1310T963 1399Q731 1399 623 1242T514 745Q514
409 618 251T942 92Q1026 92 1098 111T1229 168V578H1049V698H1587V125Q1419 47 1252 9T909 -29Q525 -29 306 178T86 745Q86 1106 305 1313T909 1520Q1069 1520 1224 1488T1536 1391V1024H1409Z" />
<glyph unicode="&#x123;" glyph-name="gcommaaccent" horiz-adv-x="1432" d="M926 1472Q848 1430 811 1378T774 1257V1214H560V1218Q560 1329 630 1408Q699 1488 843 1543L926 1472ZM1233 942V14Q1233 -210 1074 -332T623 -455Q517 -455 408 -439T184 -389V-135H297Q312
-240 381 -291T580 -342Q744 -342 811 -264T879 14V135Q834 52 758 12T569 -29Q343 -29 214 121T84 532Q84 794 213 943T569 1092Q681 1092 757 1052T879 928V1063H1384V942H1233ZM879 584Q879 770 831 853T678 936Q568 936 524 849T479 532Q479 303 524 215T678
127Q783 127 831 210T879 479V584Z" />
<glyph unicode="&#x124;" glyph-name="Hcircumflex" horiz-adv-x="1935" d="M816 1899H1124L1347 1635H1183L970 1796L757 1635H593L816 1899ZM96 0V121H287V1372H96V1493H864V1372H672V870H1266V1372H1075V1493H1843V1372H1651V121H1843V0H1075V121H1266V733H672V121H864V0H96Z"
/>
<glyph unicode="&#x125;" glyph-name="hcircumflex" horiz-adv-x="1489" d="M170 1899H478L701 1635H537L324 1796L111 1635H-53L170 1899ZM70 0V121H221V1436H63V1556H575V913Q639 1008 721 1050T928 1092Q1107 1092 1198 987T1290 676V121H1442V0H807V121H936V686Q936
821 902 873T782 926Q675 926 625 848T575 598V121H705V0H70Z" />
<glyph unicode="&#x126;" glyph-name="Hbar" horiz-adv-x="1935" d="M96 0V121H287V1053H96V1190H287V1372H96V1493H864V1372H672V1190H1266V1372H1075V1493H1843V1372H1651V1190H1843V1053H1651V121H1843V0H1075V121H1266V733H672V121H864V0H96ZM672 870H1266V1053H672V870Z"
/>
<glyph unicode="&#x127;" glyph-name="hbar" horiz-adv-x="1489" d="M70 0V121H221V1196H63V1333H221V1436H63V1556H575V1333H934V1196H575V913Q639 1008 721 1050T928 1092Q1107 1092 1198 987T1290 676V121H1442V0H807V121H936V686Q936 821 902 873T782 926Q675
926 625 848T575 598V121H705V0H70Z" />
<glyph unicode="&#x128;" glyph-name="Itilde" horiz-adv-x="958" d="M121 1635V1647Q121 1770 175 1836T329 1903Q390 1903 470 1864Q479 1860 483 1858L555 1825Q583 1812 601 1808T637 1803Q678 1803 702 1828T727 1897V1901H837V1886Q837 1764 784 1699T629
1633Q595 1633 562 1642T475 1678L418 1706Q391 1719 366 1726T321 1733Q280 1733 256 1708T231 1639V1635H121ZM96 0V121H287V1372H96V1493H864V1372H672V121H864V0H96Z" />
<glyph unicode="&#x129;" glyph-name="itilde" horiz-adv-x="778" d="M287 1309V1325Q287 1471 340 1546T495 1622Q532 1622 567 1610T649 1567L720 1520L723 1518Q767 1489 803 1489Q844 1489 868 1524T893 1620H1003V1604Q1003 1458 950 1383T795 1307Q758 1307
723 1319T641 1362L569 1409L568 1410Q523 1440 487 1440Q446 1440 422 1405T397 1309H287ZM575 121H727V0H70V121H221V942H70V1063H575V121Z" />
<glyph unicode="&#x12a;" glyph-name="Imacron" horiz-adv-x="958" d="M165 1872H795V1684H165V1872ZM96 0V121H287V1372H96V1493H864V1372H672V121H864V0H96Z" />
<glyph unicode="&#x12b;" glyph-name="imacron" horiz-adv-x="778" d="M7 1563H637V1375H7V1563ZM575 121H727V0H70V121H221V942H70V1063H575V121Z" />
<glyph unicode="&#x12c;" glyph-name="Ibreve" horiz-adv-x="958" d="M139 1899H262Q284 1844 339 1815T479 1786Q563 1786 619 1815T696 1899H819Q791 1768 706 1702T479 1635Q335 1635 251 1700T139 1899ZM96 0V121H287V1372H96V1493H864V1372H672V121H864V0H96Z" />
<glyph unicode="&#x12d;" glyph-name="ibreve" horiz-adv-x="778" d="M303 1589H428Q434 1516 490 1477T645 1438Q744 1438 800 1477T862 1589H987Q987 1443 897 1361T645 1278Q482 1278 394 1359T303 1589ZM575 121H727V0H70V121H221V942H70V1063H575V121Z" />
<glyph unicode="&#x12e;" glyph-name="Iogonek" horiz-adv-x="958" d="M96 0V121H287V1372H96V1493H864V1372H672V121H864V0H96ZM547 0H672Q623 -65 604 -102T584 -168Q584 -209 612 -231T693 -254Q732 -254 772 -246T851 -223L850 -379Q796 -390 748 -395T658
-401Q545 -401 483 -355T420 -225Q420 -173 451 -119T547 0Z" />
<glyph unicode="&#x12f;" glyph-name="iogonek" horiz-adv-x="778" d="M188 1364Q188 1445 244 1500T381 1556Q460 1556 515 1501T571 1364Q571 1285 516 1230T381 1174Q300 1174 244 1229T188 1364ZM575 121H727V0H70V121H221V942H70V1063H575V121ZM450 0H575Q526
-65 507 -102T487 -168Q487 -209 515 -231T596 -254Q635 -254 675 -246T754 -223L753 -379Q699 -390 651 -395T561 -401Q448 -401 386 -355T323 -225Q323 -173 354 -119T450 0Z" />
<glyph unicode="&#x130;" glyph-name="Idot" horiz-adv-x="958" d="M96 0V121H287V1372H96V1493H864V1372H672V121H864V0H96ZM332 1776Q332 1836 375 1879T479 1923Q539 1923 582 1880T626 1776Q626 1716 583 1673T479 1630Q419 1630 376 1673T332 1776Z" />
<glyph unicode="&#x131;" glyph-name="dotlessi" horiz-adv-x="778" d="M575 121H727V0H70V121H221V942H70V1063H575V121Z" />
<glyph unicode="&#x132;" glyph-name="IJ" horiz-adv-x="1929" d="M96 0V121H287V1372H96V1493H864V1372H672V121H864V0H96ZM810 -358V-123H940Q946 -217 984 -261T1099 -305Q1196 -305 1234 -231T1273 49V1372H1056V1493H1851V1372H1660V41Q1660 -202 1538 -314T1148
-426Q1065 -426 981 -409T810 -358Z" />
<glyph unicode="&#x133;" glyph-name="ij" horiz-adv-x="1538" d="M188 1364Q188 1445 244 1500T381 1556Q460 1556 515 1501T571 1364Q571 1285 516 1230T381 1174Q300 1174 244 1229T188 1364ZM575 121H727V0H70V121H221V942H70V1063H575V121ZM974 1364Q974
1445 1029 1500T1167 1556Q1245 1556 1301 1500T1357 1364Q1357 1285 1302 1230T1167 1174Q1086 1174 1030 1229T974 1364ZM1015 942H864V1063H1369V-125Q1369 -288 1254 -371T913 -455Q853 -455 785 -445T644 -416V-190L757 -191Q759 -271 788 -306T884 -342Q957
-342 986 -295T1015 -125V942Z" />
<glyph unicode="&#x134;" glyph-name="Jcircumflex" horiz-adv-x="969" d="M339 1899H647L870 1635H706L493 1796L280 1635H116L339 1899ZM-150 -358V-123H-20Q-14 -217 24 -261T139 -305Q236 -305 274 -231T313 49V1372H96V1493H891V1372H700V41Q700 -202 578
-314T188 -426Q105 -426 21 -409T-150 -358Z" />
<glyph unicode="&#x135;" glyph-name="jcircumflex" horiz-adv-x="741" d="M198 1638H440L696 1262H532L319 1487L106 1262H-58L198 1638ZM219 942H68V1063H573V-125Q573 -288 458 -371T117 -455Q57 -455 -11 -445T-152 -416V-190L-39 -191Q-37 -271 -8 -306T88
-342Q161 -342 190 -295T219 -125V942Z" />
<glyph unicode="&#x136;" glyph-name="Kcommaaccent" horiz-adv-x="1780" d="M790 -391Q868 -349 905 -297T942 -176V-133H1156V-137Q1156 -248 1086 -327Q1017 -407 873 -462L790 -391ZM96 0V121H287V1372H96V1493H864V1372H672V827L1305 1372H1145V1493H1702V1372H1503L967
911L1696 121H1843V0H1337L672 725V121H864V0H96Z" />
<glyph unicode="&#x137;" glyph-name="kcommaaccent" horiz-adv-x="1419" d="M583 -391Q661 -349 698 -297T735 -176V-133H949V-137Q949 -248 879 -327Q810 -407 666 -462L583 -391ZM709 0H70V121H221V1436H70V1556H575V557L1004 942H877V1063H1362V942H1165L891
696L1339 121H1454V0H844V121H969L674 500L575 412V121H709V0Z" />
<glyph unicode="&#x138;" glyph-name="kgreenlandic" horiz-adv-x="1419" d="M709 0H70V121H221V939H70V1060H575V556L1004 939H877V1060H1362V939H1165L891 695L1339 121H1454V0H844V121H969L674 499L575 411V121H709V0Z" />
<glyph unicode="&#x139;" glyph-name="Lacute" horiz-adv-x="1440" d="M582 1900H861L564 1636H400L582 1900ZM96 0V121H287V1372H96V1493H864V1372H672V137H1260V373H1395V0H96Z" />
<glyph unicode="&#x13a;" glyph-name="lacute" horiz-adv-x="778" d="M462 1900H741L444 1636H280L462 1900ZM575 121H727V0H70V121H221V1436H70V1556H575V121Z" />
<glyph unicode="&#x13b;" glyph-name="Lcommaaccent" horiz-adv-x="1440" d="M566 -391Q644 -349 681 -297T718 -176V-133H932V-137Q932 -248 862 -327Q793 -407 649 -462L566 -391ZM96 0V121H287V1372H96V1493H864V1372H672V137H1260V373H1395V0H96Z" />
<glyph unicode="&#x13c;" glyph-name="lcommaaccent" horiz-adv-x="778" d="M220 -391Q298 -349 335 -297T372 -176V-133H586V-137Q586 -248 516 -327Q447 -407 303 -462L220 -391ZM575 121H727V0H70V121H221V1436H70V1556H575V121Z" />
<glyph unicode="&#x13d;" glyph-name="Lcaron" horiz-adv-x="1440" d="M1116 1493H1395L1211 1117H1047L1116 1493ZM96 0V121H287V1372H96V1493H864V1372H672V137H1260V373H1395V0H96Z" />
<glyph unicode="&#x13e;" glyph-name="lcaron" horiz-adv-x="778" d="M778 1556H1057L873 1180H709L778 1556ZM575 121H727V0H70V121H221V1436H70V1556H575V121Z" />
<glyph unicode="&#x13f;" glyph-name="Ldot" horiz-adv-x="1440" d="M1039 887Q1039 965 1095 1021T1229 1077Q1308 1077 1364 1021T1420 887Q1420 809 1364 754T1229 698Q1151 698 1095 753T1039 887ZM96 0V121H287V1372H96V1493H864V1372H672V137H1260V373H1395V0H96Z" />
<glyph unicode="&#x140;" glyph-name="ldot" horiz-adv-x="778" d="M674 883Q674 961 730 1017T864 1073Q943 1073 999 1017T1055 883Q1055 805 999 750T864 694Q786 694 730 749T674 883ZM575 121H727V0H70V121H221V1436H70V1556H575V121Z" />
<glyph unicode="&#x141;" glyph-name="Lslash" horiz-adv-x="1454" d="M109 0V121H301V549L86 422L16 539L301 707V1372H109V1493H877V1372H686V938L1026 1139L1096 1022L686 778V137H1274V373H1409V0H109Z" />
<glyph unicode="&#x142;" glyph-name="lslash" horiz-adv-x="788" d="M580 121H731V0H74V121H225V653L70 557L8 662L225 795V1436H74V1556H580V999L735 1096L799 991L580 858V121Z" />
<glyph unicode="&#x143;" glyph-name="Nacute" horiz-adv-x="1872" d="M956 1900H1235L938 1636H774L956 1900ZM90 0V121H281V1372H90V1493H557L1458 436V1372H1268V1493H1790V1372H1599V0H1337L422 1079V121H612V0H90Z" />
<glyph unicode="&#x144;" glyph-name="nacute" horiz-adv-x="1489" d="M756 1590H1035L662 1214H498L756 1590ZM70 0V121H221V942H70V1063H575V913Q639 1008 721 1050T928 1092Q1107 1092 1198 987T1290 676V121H1442V0H807V121H936V686Q936 821 902 873T782 926Q675
926 625 848T575 598V121H705V0H70Z" />
<glyph unicode="&#x145;" glyph-name="Ncommaaccent" horiz-adv-x="1872" d="M666 -391Q744 -349 781 -297T818 -176V-133H1032V-137Q1032 -248 962 -327Q893 -407 749 -462L666 -391ZM90 0V121H281V1372H90V1493H557L1458 436V1372H1268V1493H1790V1372H1599V0H1337L422
1079V121H612V0H90Z" />
<glyph unicode="&#x146;" glyph-name="ncommaaccent" horiz-adv-x="1489" d="M577 -391Q655 -349 692 -297T729 -176V-133H943V-137Q943 -248 873 -327Q804 -407 660 -462L577 -391ZM70 0V121H221V942H70V1063H575V913Q639 1008 721 1050T928 1092Q1107 1092 1198
987T1290 676V121H1442V0H807V121H936V686Q936 821 902 873T782 926Q675 926 625 848T575 598V121H705V0H70Z" />
<glyph unicode="&#x147;" glyph-name="Ncaron" horiz-adv-x="1872" d="M90 0V121H281V1372H90V1493H557L1458 436V1372H1268V1493H1790V1372H1599V0H1337L422 1079V121H612V0H90ZM765 1635L542 1899H706L919 1737L1132 1899H1296L1073 1635H765Z" />
<glyph unicode="&#x148;" glyph-name="ncaron" horiz-adv-x="1489" d="M70 0V121H221V942H70V1063H575V913Q639 1008 721 1050T928 1092Q1107 1092 1198 987T1290 676V121H1442V0H807V121H936V686Q936 821 902 873T782 926Q675 926 625 848T575 598V121H705V0H70ZM543
1262L287 1638H451L664 1411L877 1638H1041L785 1262H543Z" />
<glyph unicode="&#x149;" glyph-name="napostrophe" horiz-adv-x="2065" d="M350 1070Q446 1137 490 1231T534 1465V1520H803Q795 1313 711 1172T455 934L350 1070ZM599 0V121H750V942H599V1063H1104V913Q1168 1008 1250 1050T1457 1092Q1636 1092 1727 987T1819
676V121H1971V0H1336V121H1465V686Q1465 821 1431 873T1311 926Q1204 926 1154 848T1104 598V121H1234V0H599Z" />
<glyph unicode="&#x14a;" glyph-name="Eng" horiz-adv-x="1786" d="M70 0V121H260V1372H109V1493H647V1339Q727 1436 831 1479Q932 1521 1093 1521Q1319 1521 1434 1380T1550 965V41Q1550 -202 1427 -314T1037 -426Q954 -426 870 -409T699 -358V-123H832Q832 -217
873 -261T991 -305Q1088 -305 1126 -231T1165 49V927Q1165 1176 1116 1273T944 1370Q793 1370 719 1243Q647 1121 647 841V121H838V0H70Z" />
<glyph unicode="&#x14b;" glyph-name="eng" horiz-adv-x="1489" d="M70 0V121H221V942H70V1063H575V913Q639 1008 721 1050T928 1092Q1107 1092 1198 987T1290 676V-125Q1290 -288 1175 -371T834 -455Q774 -455 706 -445T565 -416V-191H678Q680 -271 709 -306T805
-342Q878 -342 907 -295T936 -125V686Q936 821 902 873T782 926Q675 926 625 848T575 598V121H705V0H70Z" />
<glyph unicode="&#x14c;" glyph-name="Omacron" horiz-adv-x="1784" d="M576 1872H1206V1684H576V1872ZM891 92Q1082 92 1175 253T1268 745Q1268 1077 1175 1238T891 1399Q701 1399 608 1237T514 745Q514 417 607 255T891 92ZM891 -29Q514 -29 300 177T86 745Q86
1107 300 1313T891 1520Q1268 1520 1482 1314T1696 745Q1696 383 1482 177T891 -29Z" />
<glyph unicode="&#x14d;" glyph-name="omacron" horiz-adv-x="1366" d="M369 1562H999V1374H369V1562ZM684 84Q796 84 841 180T887 532Q887 788 842 883T684 979Q571 979 525 883T479 532Q479 278 525 181T684 84ZM684 -29Q403 -29 244 120T84 532Q84 795 243
943T684 1092Q966 1092 1125 944T1284 532Q1284 270 1125 121T684 -29Z" />
<glyph unicode="&#x14e;" glyph-name="Obreve" horiz-adv-x="1784" d="M553 1899H676Q698 1844 753 1815T893 1786Q977 1786 1033 1815T1110 1899H1233Q1205 1768 1120 1702T893 1635Q749 1635 665 1700T553 1899ZM891 92Q1082 92 1175 253T1268 745Q1268 1077
1175 1238T891 1399Q701 1399 608 1237T514 745Q514 417 607 255T891 92ZM891 -29Q514 -29 300 177T86 745Q86 1107 300 1313T891 1520Q1268 1520 1482 1314T1696 745Q1696 383 1482 177T891 -29Z" />
<glyph unicode="&#x14f;" glyph-name="obreve" horiz-adv-x="1366" d="M342 1589H467Q473 1516 529 1477T684 1438Q783 1438 839 1477T901 1589H1026Q1026 1443 936 1361T684 1278Q521 1278 433 1359T342 1589ZM684 84Q796 84 841 180T887 532Q887 788 842 883T684
979Q571 979 525 883T479 532Q479 278 525 181T684 84ZM684 -29Q403 -29 244 120T84 532Q84 795 243 943T684 1092Q966 1092 1125 944T1284 532Q1284 270 1125 121T684 -29Z" />
<glyph unicode="&#x150;" glyph-name="Ohungarumlaut" horiz-adv-x="1784" d="M1159 1899H1438L1141 1635H977L1159 1899ZM827 1899H1106L809 1635H645L827 1899ZM891 92Q1082 92 1175 253T1268 745Q1268 1077 1175 1238T891 1399Q701 1399 608 1237T514 745Q514
417 607 255T891 92ZM891 -29Q514 -29 300 177T86 745Q86 1107 300 1313T891 1520Q1268 1520 1482 1314T1696 745Q1696 383 1482 177T891 -29Z" />
<glyph unicode="&#x151;" glyph-name="ohungarumlaut" horiz-adv-x="1366" d="M952 1638H1188L891 1262H727L952 1638ZM586 1638H803L559 1262H397L586 1638ZM684 84Q796 84 841 180T887 532Q887 788 842 883T684 979Q571 979 525 883T479 532Q479 278 525 181T684
84ZM684 -29Q403 -29 244 120T84 532Q84 795 243 943T684 1092Q966 1092 1125 944T1284 532Q1284 270 1125 121T684 -29Z" />
<glyph unicode="&#x152;" glyph-name="OE" horiz-adv-x="2417" d="M1165 121V1372H1038Q774 1372 640 1215T506 748Q506 434 639 278T1038 121H1165ZM2312 0H991Q784 0 649 26T412 109Q255 195 171 361T86 748Q86 968 170 1132T412 1384Q512 1442 646 1467T991
1493H2294V1141H2157V1356H1552V877H1919V1067H2056V551H1919V741H1552V137H2175V352H2312V0Z" />
<glyph unicode="&#x153;" glyph-name="oe" horiz-adv-x="2105" d="M684 84Q796 84 841 180T887 532Q887 788 842 883T684 979Q571 979 525 883T479 532Q479 278 525 181T684 84ZM1624 600Q1624 810 1585 894T1452 979Q1362 979 1323 897T1284 618V600H1624ZM1085
936Q1160 1016 1253 1054T1464 1092Q1724 1092 1865 935T2015 482L1284 481V473Q1284 266 1345 175T1544 84Q1659 84 1730 145T1821 322H1987Q1948 148 1822 60T1487 -29Q1355 -29 1256 9T1085 127Q1015 50 909 11T668 -29Q398 -29 241 122T84 532Q84 795 243 943T684
1092Q811 1092 910 1054T1085 936Z" />
<glyph unicode="&#x154;" glyph-name="Racute" horiz-adv-x="1702" d="M902 1900H1181L884 1636H720L902 1900ZM1087 729Q1176 716 1237 670T1343 537L1561 121H1714V0H1223L985 451Q916 591 868 629T733 668H672V121H864V0H96V121H287V1372H96V1493H948Q1208
1493 1349 1389T1491 1092Q1491 936 1391 846T1087 729ZM672 788H803Q943 788 1018 864T1094 1081Q1094 1222 1019 1297T803 1372H672V788Z" />
<glyph unicode="&#x155;" glyph-name="racute" horiz-adv-x="1079" d="M756 1590H1035L662 1214H498L756 1590ZM1100 1075V758H987Q981 843 941 884T825 926Q709 926 642 824T575 541V121H768V0H70V121H221V942H59V1063H575V874Q627 985 712 1038T922 1092Q953
1092 997 1088T1100 1075Z" />
<glyph unicode="&#x156;" glyph-name="Rcommaaccent" horiz-adv-x="1702" d="M726 -391Q804 -349 841 -297T878 -176V-133H1092V-137Q1092 -248 1022 -327Q953 -407 809 -462L726 -391ZM1087 729Q1176 716 1237 670T1343 537L1561 121H1714V0H1223L985 451Q916
591 868 629T733 668H672V121H864V0H96V121H287V1372H96V1493H948Q1208 1493 1349 1389T1491 1092Q1491 936 1391 846T1087 729ZM672 788H803Q943 788 1018 864T1094 1081Q1094 1222 1019 1297T803 1372H672V788Z" />
<glyph unicode="&#x157;" glyph-name="rcommaaccent" horiz-adv-x="1079" d="M240 -391Q318 -349 355 -297T392 -176V-133H606V-137Q606 -248 536 -327Q467 -407 323 -462L240 -391ZM1100 1075V758H987Q981 843 941 884T825 926Q709 926 642 824T575 541V121H768V0H70V121H221V942H59V1063H575V874Q627
985 712 1038T922 1092Q953 1092 997 1088T1100 1075Z" />
<glyph unicode="&#x158;" glyph-name="Rcaron" horiz-adv-x="1702" d="M1087 729Q1176 716 1237 670T1343 537L1561 121H1714V0H1223L985 451Q916 591 868 629T733 668H672V121H864V0H96V121H287V1372H96V1493H948Q1208 1493 1349 1389T1491 1092Q1491 936 1391
846T1087 729ZM672 788H803Q943 788 1018 864T1094 1081Q1094 1222 1019 1297T803 1372H672V788ZM711 1635L488 1899H652L865 1737L1078 1899H1242L1019 1635H711Z" />
<glyph unicode="&#x159;" glyph-name="rcaron" horiz-adv-x="1079" d="M1100 1075V758H987Q981 843 941 884T825 926Q709 926 642 824T575 541V121H768V0H70V121H221V942H59V1063H575V874Q627 985 712 1038T922 1092Q953 1092 997 1088T1100 1075ZM543 1262L287
1638H451L664 1411L877 1638H1041L785 1262H543Z" />
<glyph unicode="&#x15a;" glyph-name="Sacute" horiz-adv-x="1479" d="M902 1900H1181L884 1636H720L902 1900ZM158 72V426H285Q314 258 422 175T721 92Q876 92 957 151T1038 324Q1038 414 983 464T756 557L532 612Q313 668 224 767T135 1051Q135 1273 282 1396T696
1520Q827 1520 968 1498T1262 1432V1102H1135Q1106 1256 1008 1327T729 1399Q581 1399 506 1348T430 1194Q430 1101 482 1053T737 952L961 897Q1169 845 1262 735T1356 432Q1356 206 1200 89T741 -29Q595 -29 451 -4T158 72Z" />
<glyph unicode="&#x15b;" glyph-name="sacute" horiz-adv-x="1153" d="M756 1590H1035L662 1214H498L756 1590ZM96 31V328H209Q223 209 298 147T502 84Q610 84 667 121T725 229Q725 293 689 328T547 389L401 426Q236 467 162 543T88 750Q88 923 208 1007T578 1092Q672
1092 778 1077T1014 1028V760H901Q892 869 824 924T627 979Q519 979 464 945T408 844Q408 790 440 759T555 707L700 670Q909 617 989 539T1069 322Q1069 142 941 57T541 -29Q442 -29 331 -14T96 31Z" />
<glyph unicode="&#x15c;" glyph-name="Scircumflex" horiz-adv-x="1479" d="M575 1899H883L1106 1635H942L729 1796L516 1635H352L575 1899ZM158 72V426H285Q314 258 422 175T721 92Q876 92 957 151T1038 324Q1038 414 983 464T756 557L532 612Q313 668 224 767T135
1051Q135 1273 282 1396T696 1520Q827 1520 968 1498T1262 1432V1102H1135Q1106 1256 1008 1327T729 1399Q581 1399 506 1348T430 1194Q430 1101 482 1053T737 952L961 897Q1169 845 1262 735T1356 432Q1356 206 1200 89T741 -29Q595 -29 451 -4T158 72Z" />
<glyph unicode="&#x15d;" glyph-name="scircumflex" horiz-adv-x="1153" d="M457 1638H699L955 1262H791L578 1487L365 1262H201L457 1638ZM96 31V328H209Q223 209 298 147T502 84Q610 84 667 121T725 229Q725 293 689 328T547 389L401 426Q236 467 162 543T88
750Q88 923 208 1007T578 1092Q672 1092 778 1077T1014 1028V760H901Q892 869 824 924T627 979Q519 979 464 945T408 844Q408 790 440 759T555 707L700 670Q909 617 989 539T1069 322Q1069 142 941 57T541 -29Q442 -29 331 -14T96 31Z" />
<glyph unicode="&#x15e;" glyph-name="Scedilla" horiz-adv-x="1479" d="M158 72V426H285Q314 258 422 175T721 92Q876 92 957 151T1038 324Q1038 414 983 464T756 557L532 612Q313 668 224 767T135 1051Q135 1273 282 1396T696 1520Q827 1520 968 1498T1262 1432V1102H1135Q1106
1256 1008 1327T729 1399Q581 1399 506 1348T430 1194Q430 1101 482 1053T737 952L961 897Q1169 845 1262 735T1356 432Q1356 206 1200 89T741 -29Q595 -29 451 -4T158 72ZM821 0Q883 -64 912 -118T942 -225Q942 -311 878 -356T692 -401Q644 -401 593 -395T490
-375L489 -219Q534 -236 576 -245T655 -254Q715 -254 746 -231T778 -162Q778 -134 762 -101T694 0H821Z" />
<glyph unicode="&#x15f;" glyph-name="scedilla" horiz-adv-x="1153" d="M96 31V328H209Q223 209 298 147T502 84Q610 84 667 121T725 229Q725 293 689 328T547 389L401 426Q236 467 162 543T88 750Q88 923 208 1007T578 1092Q672 1092 778 1077T1014 1028V760H901Q892
869 824 924T627 979Q519 979 464 945T408 844Q408 790 440 759T555 707L700 670Q909 617 989 539T1069 322Q1069 142 941 57T541 -29Q442 -29 331 -14T96 31ZM660 0Q722 -64 751 -118T781 -225Q781 -311 717 -356T531 -401Q483 -401 432 -395T329 -375L328 -219Q373
-236 415 -245T494 -254Q554 -254 585 -231T617 -162Q617 -134 601 -101T533 0H660Z" />
<glyph unicode="&#x160;" glyph-name="Scaron" horiz-adv-x="1479" d="M158 72V426H285Q314 258 422 175T721 92Q876 92 957 151T1038 324Q1038 414 983 464T756 557L532 612Q313 668 224 767T135 1051Q135 1273 282 1396T696 1520Q827 1520 968 1498T1262 1432V1102H1135Q1106
1256 1008 1327T729 1399Q581 1399 506 1348T430 1194Q430 1101 482 1053T737 952L961 897Q1169 845 1262 735T1356 432Q1356 206 1200 89T741 -29Q595 -29 451 -4T158 72ZM585 1635L362 1899H526L739 1737L952 1899H1116L893 1635H585Z" />
<glyph unicode="&#x161;" glyph-name="scaron" horiz-adv-x="1153" d="M96 31V328H209Q223 209 298 147T502 84Q610 84 667 121T725 229Q725 293 689 328T547 389L401 426Q236 467 162 543T88 750Q88 923 208 1007T578 1092Q672 1092 778 1077T1014 1028V760H901Q892
869 824 924T627 979Q519 979 464 945T408 844Q408 790 440 759T555 707L700 670Q909 617 989 539T1069 322Q1069 142 941 57T541 -29Q442 -29 331 -14T96 31ZM457 1262L201 1638H365L578 1411L791 1638H955L699 1262H457Z" />
<glyph unicode="&#x162;" glyph-name="Tcommaaccent" horiz-adv-x="1524" d="M837 0Q899 -64 928 -118T958 -225Q958 -311 894 -356T708 -401Q660 -401 609 -395T506 -375L505 -219Q550 -236 592 -245T671 -254Q731 -254 762 -231T794 -162Q794 -134 778 -101T710
0H837ZM371 0V121H569V1356H160V1120H23V1493H1503V1120H1368V1356H956V121H1155V0H371Z" />
<glyph unicode="&#x163;" glyph-name="tcommaaccent" horiz-adv-x="946" d="M594 0Q656 -64 685 -118T715 -225Q715 -311 651 -356T465 -401Q417 -401 366 -395T263 -375L262 -219Q307 -236 349 -245T428 -254Q488 -254 519 -231T551 -162Q551 -134 535 -101T467
0H594ZM203 942H49V1063H203V1393H557V1063H852V942H557V291Q557 152 579 118T659 84Q723 84 754 127T787 260H936Q927 100 849 36T578 -29Q359 -29 281 39T203 291V942Z" />
<glyph unicode="&#x164;" glyph-name="Tcaron" horiz-adv-x="1524" d="M371 0V121H569V1356H160V1120H23V1493H1503V1120H1368V1356H956V121H1155V0H371ZM615 1635L392 1899H556L769 1737L982 1899H1146L923 1635H615Z" />
<glyph unicode="&#x165;" glyph-name="tcaron" horiz-adv-x="946" d="M203 942H49V1063H203V1393H557V1063H852V942H557V291Q557 152 579 118T659 84Q723 84 754 127T787 260H936Q927 100 849 36T578 -29Q359 -29 281 39T203 291V942ZM736 1598H1015L831 1222H667L736
1598Z" />
<glyph unicode="&#x166;" glyph-name="Tbar" horiz-adv-x="1524" d="M371 0V121H569V659H322V851H569V1356H160V1120H23V1493H1503V1120H1368V1356H956V851H1203V659H956V121H1155V0H371Z" />
<glyph unicode="&#x167;" glyph-name="tbar" horiz-adv-x="946" d="M203 942H49V1063H203V1393H557V1063H852V942H557V665H741V473H557V291Q557 152 579 118T659 84Q723 84 754 127T787 260H936Q927 100 848 36Q770 -29 578 -29Q359 -29 281 40Q203 108 203 291V473H55V665H203V942Z"
/>
<glyph unicode="&#x168;" glyph-name="Utilde" horiz-adv-x="1786" d="M586 1635V1647Q586 1770 640 1836T794 1903Q855 1903 935 1864Q944 1860 948 1858L1020 1825Q1048 1812 1066 1808T1102 1803Q1143 1803 1167 1828T1192 1897V1901H1302V1886Q1302 1764 1249
1699T1094 1633Q1060 1633 1027 1642T940 1678L883 1706Q856 1719 831 1726T786 1733Q745 1733 721 1708T696 1639V1635H586ZM260 1372H70V1493H838V1372H647V625Q647 346 734 235T1032 123Q1238 123 1324 235T1411 625V1372H1221V1493H1741V1372H1550V604Q1550
262 1402 117T905 -29Q558 -29 409 118T260 606V1372Z" />
<glyph unicode="&#x169;" glyph-name="utilde" horiz-adv-x="1489" d="M349 1309V1325Q349 1471 402 1546T557 1622Q594 1622 629 1610T711 1567L782 1520L785 1518Q829 1489 865 1489Q906 1489 930 1524T955 1620H1065V1604Q1065 1458 1012 1383T857 1307Q820
1307 785 1319T703 1362L631 1409L630 1410Q585 1440 549 1440Q508 1440 484 1405T459 1309H349ZM1268 1063V121H1419V0H913V150Q850 55 768 13T561 -29Q382 -29 291 76T199 387V942H47V1063H553V442Q553 244 586 191T707 137Q814 137 863 216T913 467V942H784V1063H1268Z"
/>
<glyph unicode="&#x16a;" glyph-name="Umacron" horiz-adv-x="1786" d="M653 1872H1283V1684H653V1872ZM260 1372H70V1493H838V1372H647V625Q647 346 734 235T1032 123Q1238 123 1324 235T1411 625V1372H1221V1493H1741V1372H1550V604Q1550 262 1402 117T905 -29Q558
-29 409 118T260 606V1372Z" />
<glyph unicode="&#x16b;" glyph-name="umacron" horiz-adv-x="1489" d="M417 1562H1047V1374H417V1562ZM1268 1063V121H1419V0H913V150Q850 55 768 13T561 -29Q382 -29 291 76T199 387V942H47V1063H553V442Q553 244 586 191T707 137Q814 137 863 216T913 467V942H784V1063H1268Z"
/>
<glyph unicode="&#x16c;" glyph-name="Ubreve" horiz-adv-x="1786" d="M604 1899H727Q749 1844 804 1815T944 1786Q1028 1786 1084 1815T1161 1899H1284Q1256 1768 1171 1702T944 1635Q800 1635 716 1700T604 1899ZM260 1372H70V1493H838V1372H647V625Q647 346
734 235T1032 123Q1238 123 1324 235T1411 625V1372H1221V1493H1741V1372H1550V604Q1550 262 1402 117T905 -29Q558 -29 409 118T260 606V1372Z" />
<glyph unicode="&#x16d;" glyph-name="ubreve" horiz-adv-x="1489" d="M365 1589H490Q496 1516 552 1477T707 1438Q806 1438 862 1477T924 1589H1049Q1049 1443 959 1361T707 1278Q544 1278 456 1359T365 1589ZM1268 1063V121H1419V0H913V150Q850 55 768 13T561
-29Q382 -29 291 76T199 387V942H47V1063H553V442Q553 244 586 191T707 137Q814 137 863 216T913 467V942H784V1063H1268Z" />
<glyph unicode="&#x16e;" glyph-name="Uring" horiz-adv-x="1786" d="M260 1372H70V1493H838V1372H647V625Q647 346 734 235T1032 123Q1238 123 1324 235T1411 625V1372H1221V1493H1741V1372H1550V604Q1550 262 1402 117T905 -29Q558 -29 409 118T260 606V1372ZM760
1879Q760 1997 843 2080T1045 2164Q1163 2164 1246 2081T1330 1879Q1330 1761 1247 1678T1045 1594Q927 1594 844 1677T760 1879ZM914 1879Q914 1824 952 1786T1045 1748Q1100 1748 1138 1786T1176 1879Q1176 1933 1138 1971T1045 2010Q990 2010 952 1972T914 1879Z"
/>
<glyph unicode="&#x16f;" glyph-name="uring" horiz-adv-x="1489" d="M1268 1063V121H1419V0H913V150Q850 55 768 13T561 -29Q382 -29 291 76T199 387V942H47V1063H553V442Q553 244 586 191T707 137Q814 137 863 216T913 467V942H784V1063H1268ZM412 1464Q412
1582 495 1665T697 1749Q815 1749 898 1666T982 1464Q982 1346 899 1263T697 1179Q579 1179 496 1262T412 1464ZM566 1464Q566 1409 604 1371T697 1333Q752 1333 790 1371T828 1464Q828 1518 790 1556T697 1595Q642 1595 604 1557T566 1464Z" />
<glyph unicode="&#x170;" glyph-name="Uhungarumlaut" horiz-adv-x="1786" d="M1210 1899H1489L1192 1635H1028L1210 1899ZM878 1899H1157L860 1635H696L878 1899ZM260 1372H70V1493H838V1372H647V625Q647 346 734 235T1032 123Q1238 123 1324 235T1411 625V1372H1221V1493H1741V1372H1550V604Q1550
262 1402 117T905 -29Q558 -29 409 118T260 606V1372Z" />
<glyph unicode="&#x171;" glyph-name="uhungarumlaut" horiz-adv-x="1489" d="M975 1638H1211L914 1262H750L975 1638ZM609 1638H826L582 1262H420L609 1638ZM1268 1063V121H1419V0H913V150Q850 55 768 13T561 -29Q382 -29 291 76T199 387V942H47V1063H553V442Q553
244 586 191T707 137Q814 137 863 216T913 467V942H784V1063H1268Z" />
<glyph unicode="&#x172;" glyph-name="Uogonek" horiz-adv-x="1786" d="M260 1372H70V1493H838V1372H647V625Q647 346 734 235T1032 123Q1238 123 1324 235T1411 625V1372H1221V1493H1741V1372H1550V604Q1550 262 1402 117T905 -29Q558 -29 409 118T260 606V1372ZM842
-16H967Q918 -81 899 -118T879 -184Q879 -225 907 -247T988 -270Q1027 -270 1067 -262T1146 -239L1145 -395Q1091 -406 1043 -411T953 -417Q840 -417 778 -371T715 -241Q715 -189 746 -135T842 -16Z" />
<glyph unicode="&#x173;" glyph-name="uogonek" horiz-adv-x="1489" d="M1268 1063V121H1419V0H913V150Q850 55 768 13T561 -29Q382 -29 291 76T199 387V942H47V1063H553V442Q553 244 586 191T707 137Q814 137 863 216T913 467V942H784V1063H1268ZM1185 0H1310Q1261
-65 1242 -102T1222 -168Q1222 -209 1250 -231T1331 -254Q1370 -254 1410 -246T1489 -223L1488 -379Q1434 -390 1386 -395T1296 -401Q1183 -401 1121 -355T1058 -225Q1058 -173 1089 -119T1185 0Z" />
<glyph unicode="&#x174;" glyph-name="Wcircumflex" horiz-adv-x="2300" d="M999 1906H1307L1530 1642H1366L1153 1803L940 1642H776L999 1906ZM1745 0H1487L1149 1087L811 0H553L127 1372H-18V1493H690V1372H530L815 455L1137 1493H1421L1749 438L2040 1372H1862V1493H2324V1372H2171L1745
0Z" />
<glyph unicode="&#x175;" glyph-name="wcircumflex" horiz-adv-x="1763" d="M772 1638H1014L1270 1262H1106L893 1487L680 1262H516L772 1638ZM1104 1063L1346 354L1546 942H1407V1063H1804V942H1679L1358 0H1114L889 666L662 0H420L98 942H-18V1063H584V942H459L655
367L893 1063H1104Z" />
<glyph unicode="&#x176;" glyph-name="Ycircumflex" horiz-adv-x="1462" d="M577 1906H885L1108 1642H944L731 1803L518 1642H354L577 1906ZM352 0V121H553V618L109 1372H-18V1493H698V1372H532L868 803L1202 1372H1053V1493H1481V1372H1354L940 670V121H1141V0H352Z" />
<glyph unicode="&#x177;" glyph-name="ycircumflex" horiz-adv-x="1190" d="M485 1638H727L983 1262H819L606 1487L393 1262H229L485 1638ZM639 -240Q591 -357 523 -406T340 -455Q291 -455 231 -444T100 -412V-190L213 -191Q216 -268 249 -305T350 -342Q415 -342
455 -307T535 -172L551 -135L88 942H-27V1063H586V942H459L729 313L981 942H840V1063H1239V942H1110L639 -240Z" />
<glyph unicode="&#x178;" glyph-name="Ydieresis" horiz-adv-x="1462" d="M352 0V121H553V618L109 1372H-18V1493H698V1372H532L868 803L1202 1372H1053V1493H1481V1372H1354L940 670V121H1141V0H352ZM360 1776Q360 1836 404 1879T508 1923Q567 1923 610 1880T653
1776Q653 1716 611 1673T508 1630Q448 1630 404 1673T360 1776ZM807 1776Q807 1836 850 1879T954 1923Q1014 1923 1058 1880T1102 1776Q1102 1716 1058 1673T954 1630Q894 1630 851 1673T807 1776Z" />
<glyph unicode="&#x179;" glyph-name="Zacute" horiz-adv-x="1495" d="M902 1900H1181L884 1636H720L902 1900ZM76 0V141L967 1356H252V1133H115V1493H1411V1352L530 137H1284V346H1421V0H76Z" />
<glyph unicode="&#x17a;" glyph-name="zacute" horiz-adv-x="1163" d="M756 1590H1035L662 1214H498L756 1590ZM72 0V121L682 946H223V764H104V1063H1094V944L483 119H975V311H1094V0H72Z" />
<glyph unicode="&#x17b;" glyph-name="Zdotaccent" horiz-adv-x="1495" d="M605 1802Q605 1862 648 1905T752 1949Q812 1949 855 1906T899 1802Q899 1742 856 1699T752 1656Q692 1656 649 1699T605 1802ZM76 0V141L967 1356H252V1133H115V1493H1411V1352L530 137H1284V346H1421V0H76Z"
/>
<glyph unicode="&#x17c;" glyph-name="zdotaccent" horiz-adv-x="1163" d="M441 1664Q441 1724 484 1767T588 1810T691 1767T735 1664Q735 1605 692 1561T588 1517T485 1561T441 1664ZM72 0V121L682 946H223V764H104V1063H1094V944L483 119H975V311H1094V0H72Z" />
<glyph unicode="&#x17d;" glyph-name="Zcaron" horiz-adv-x="1495" d="M76 0V141L967 1356H252V1133H115V1493H1411V1352L530 137H1284V346H1421V0H76ZM594 1635L371 1899H535L748 1737L961 1899H1125L902 1635H594Z" />
<glyph unicode="&#x17e;" glyph-name="zcaron" horiz-adv-x="1163" d="M72 0V121L682 946H223V764H104V1063H1094V944L483 119H975V311H1094V0H72ZM461 1262L205 1638H369L582 1411L795 1638H959L703 1262H461Z" />
<glyph unicode="&#x17f;" glyph-name="longs" horiz-adv-x="881" d="M575 121H780V0H70V121H221V942H63V1063H221V1196Q221 1373 334 1464T666 1556Q751 1556 832 1547T991 1518V1290H879Q871 1368 834 1406T727 1444Q647 1444 611 1386Q575 1324 575 1200V121Z" />
<glyph unicode="&#x180;" glyph-name="uni0180" horiz-adv-x="1432" d="M199 121V1196H41V1333H199V1436H47V1556H553V1333H912V1196H553V928Q598 1011 674 1051T862 1092Q1089 1092 1219 943T1350 532T1220 121T862 -29Q750 -29 674 11T553 135V0H47V121H199ZM553
479Q553 293 600 210T754 127Q863 127 907 215T952 532T908 848T754 936Q648 936 601 853T553 584V479Z" />
<glyph unicode="&#x181;" glyph-name="uni0181" horiz-adv-x="1731" d="M287 1493H981Q1258 1493 1391 1401Q1528 1306 1528 1124Q1528 991 1434 913Q1339 835 1153 815Q1378 815 1498 695Q1618 596 1618 432Q1618 210 1450 105Q1283 0 926 0H96V121H287V1372Q91
1372 22 1283Q-48 1192 -48 1006H-246V1364Q-163 1433 74 1476Q169 1493 287 1493ZM672 870H803Q975 870 1058 932Q1141 995 1141 1124Q1141 1254 1060 1313Q980 1372 803 1372H672V870ZM672 121H815Q1006 121 1098 197T1190 432Q1190 592 1097 671T815 750H672V121Z"
/>
<glyph unicode="&#x182;" glyph-name="uni0182" horiz-adv-x="1750" d="M672 121H816Q1025 121 1117 197T1209 432Q1209 592 1116 671T816 750H672V121ZM96 1493H1546V1120H1411V1356H672V870H804Q1285 870 1461 736T1637 432Q1637 210 1470 105T927 0H96V121H287V1372H96V1493Z"
/>
<glyph unicode="&#x183;" glyph-name="uni0183" horiz-adv-x="1432" d="M553 479Q553 293 600 210Q648 127 754 127Q863 127 908 215Q952 303 952 532T908 848Q863 936 754 936Q648 936 600 853Q553 770 553 584V479ZM1152 1556V1268H1031V1436H553V928Q598 1011
674 1052Q750 1092 862 1092Q1089 1092 1220 942Q1350 793 1350 532T1220 121Q1089 -29 862 -29Q750 -29 674 12Q598 52 553 135V0H47V121H199V1436H47V1556H1152Z" />
<glyph unicode="&#x184;" glyph-name="uni0184" horiz-adv-x="1750" d="M672 870H804Q1008 870 1149 852Q1162 851 1172 849Q1369 815 1514 698Q1515 696 1517 695Q1637 596 1637 432Q1637 210 1470 105T927 0H96V121H287V834H0V955L672 1493V870ZM672 121H816Q1018
121 1111 193Q1114 195 1117 197Q1209 273 1209 432Q1209 592 1116 671Q1027 746 832 750Q824 750 816 750H672V121Z" />
<glyph unicode="&#x185;" glyph-name="uni0185" horiz-adv-x="1432" d="M553 479Q553 293 600 210T754 127Q863 127 907 215T952 532T908 848T754 936Q648 936 601 853T553 584V479ZM0 1008V1128L553 1557V928Q598 1011 674 1051T862 1092Q1089 1092 1219 943T1350
532T1220 121T862 -29Q750 -29 674 11T553 135V0H47V121H199L198 1008H0Z" />
<glyph unicode="&#x186;" glyph-name="uni0186" horiz-adv-x="1630" d="M86 1065Q145 1296 298 1408T709 1520Q1087 1520 1306 1312T1526 746Q1526 388 1307 180T709 -29Q576 -29 432 3T127 100V467H254Q293 279 396 186T668 92Q886 92 992 252T1098 746Q1098
1079 992 1239T666 1399Q517 1399 423 1316T285 1065H86Z" />
<glyph unicode="&#x187;" glyph-name="uni0187" horiz-adv-x="1630" d="M1526 426Q1467 195 1314 83T903 -29Q525 -29 306 180Q86 388 86 745Q86 1103 306 1312Q525 1520 903 1520Q1036 1520 1180 1488Q1238 1475 1299 1457Q1316 1583 1400 1652Q1485 1721 1587
1721Q1647 1721 1715 1711T1856 1682V1457H1743Q1743 1537 1712 1572Q1682 1608 1616 1608Q1543 1608 1514 1561T1485 1391V1024H1358Q1319 1212 1216 1306Q1113 1399 944 1399Q726 1399 620 1238Q514 1078 514 745T620 252T946 92Q1095 92 1190 175Q1284 258 1327
426H1526Z" />
<glyph unicode="&#x188;" glyph-name="uni0188" horiz-adv-x="1247" d="M1155 332Q1117 150 1000 60Q882 -29 680 -29Q396 -29 240 118T84 532Q84 796 238 944T666 1092Q776 1092 888 1071V1123Q888 1286 1004 1370Q1119 1453 1222 1453Q1282 1453 1350 1443T1491
1414V1189H1378Q1378 1269 1346 1304Q1317 1340 1251 1340Q1178 1340 1149 1293T1120 1123V1008V713H1008Q992 848 929 914Q866 979 752 979Q604 979 542 879Q479 779 479 532Q479 291 540 188Q601 84 739 84Q846 84 910 148Q975 212 989 332H1155Z" />
<glyph unicode="&#x189;" glyph-name="uni0189" horiz-adv-x="1790" d="M686 121H825Q1059 121 1166 270T1274 748Q1274 1074 1167 1223T825 1372H686V850H1018V713H686V121ZM109 0V121H301V713H88V850H301V1372H109V1493H877Q1277 1493 1489 1302T1702 748Q1702
385 1490 193T877 0H109Z" />
<glyph unicode="&#x18a;" glyph-name="uni018A" horiz-adv-x="1776" d="M287 1493H862Q1264 1493 1477 1301T1690 748Q1690 385 1476 192Q1263 0 862 0H96V121H287V1372Q91 1372 22 1283Q-48 1192 -48 1006H-246V1364Q-163 1433 74 1476Q169 1493 287 1493ZM672
121H811Q1045 121 1154 271Q1262 421 1262 748Q1262 1073 1154 1222Q1046 1372 811 1372H672V121Z" />
<glyph unicode="&#x18b;" glyph-name="uni018B" horiz-adv-x="1750" d="M1061 1356H322V1120H187V1493H1637V1372H1446V121H1637V0H806Q431 0 264 105Q96 210 96 432Q96 596 216 695Q218 696 220 698Q364 815 561 849Q571 851 584 852Q725 870 929 870H1061V1356ZM1061
121V750H917H901Q706 750 617 671Q524 592 524 432Q524 273 616 197L622 193Q715 121 917 121H1061Z" />
<glyph unicode="&#x18c;" glyph-name="uni018C" horiz-adv-x="1432" d="M844 479V584Q844 770 796 853Q749 936 643 936Q534 936 490 848Q445 761 445 532T490 215Q534 127 643 127Q749 127 796 210Q844 293 844 479ZM1349 1436H1198V121H1350V0H844V135Q799 52
723 12Q647 -29 535 -29Q308 -29 178 121Q47 271 47 532T178 942Q308 1092 535 1092Q647 1092 723 1052Q799 1011 844 928V1436H366V1268H245V1556H1349V1436Z" />
<glyph unicode="&#x18d;" glyph-name="uni018D" horiz-adv-x="1366" d="M1012 41Q1175 -53 1175 -197Q1175 -366 1042 -435L1030 -441Q901 -504 684 -504Q584 -504 461 -491Q341 -478 225 -454V-241H337Q342 -277 358 -298Q368 -312 413 -345Q479 -391 586 -391Q706
-391 770 -343L803 -316Q842 -281 834 -193Q834 -29 684 -29Q401 -29 243 120Q84 269 84 531T244 942Q403 1092 684 1092T1124 942Q1284 793 1284 531Q1284 268 1124 120Q1029 31 1012 41ZM684 979Q572 979 526 883Q481 787 481 531T526 180Q571 84 684 84T843
180Q889 277 889 531T843 882T684 979Z" />
<glyph unicode="&#x18e;" glyph-name="uni018E" horiz-adv-x="1561" d="M1456 0H96V352H233V137H880V741H489V551H352V1067H489V877H880V1356H252V1141H114V1493H1456V1372H1265V121H1456V0Z" />
<glyph unicode="&#x18f;" glyph-name="uni018F" horiz-adv-x="1784" d="M1266 830Q1266 1099 1162 1238Q1056 1398 836 1398Q687 1398 592 1315Q498 1232 455 1063H256Q315 1294 468 1407Q621 1519 879 1519Q1257 1519 1476 1310Q1696 1102 1696 745Q1696 383
1482 177Q1267 -29 891 -29Q514 -29 300 177T86 745V830H1266ZM1267 669H515Q515 388 608 254Q708 92 891 92Q1082 92 1175 253Q1267 395 1267 669Z" />
<glyph unicode="&#x190;" glyph-name="uni0190" horiz-adv-x="1477" d="M1304 1450V1151H1183Q1169 1274 1100 1338T862 1403Q693 1403 624 1336T554 1137Q554 1006 628 938T969 870H1021V750H955Q676 750 590 662T503 416Q503 257 579 173T848 88Q979 88 1069
157T1167 283H1366Q1320 172 1179 72T800 -29Q420 -29 258 82T96 403Q96 574 197 681T483 815Q323 844 240 928T157 1147Q157 1327 301 1423T792 1520Q924 1520 1048 1503T1304 1450Z" />
<glyph unicode="&#x191;" glyph-name="uni0191" horiz-adv-x="1454" d="M162 -426Q-2 -426 -176 -358V-123H-46Q-46 -266 54 -296Q80 -305 113 -305Q210 -305 248 -230Q288 -155 287 49V1372H96V1493H1427V1141H1290V1356H674V877H1053V1067H1190V551H1053V741H674V41Q674
-222 529 -332Q405 -426 162 -426Z" />
<glyph unicode="&#x192;" glyph-name="florin" horiz-adv-x="881" d="M991 1290H879Q877 1305 875 1318Q864 1375 834 1406Q796 1444 727 1444Q647 1444 611 1386Q575 1329 575 1200V1063H842V942H575V-29Q575 -206 462 -298Q349 -389 130 -389Q45 -389 -36 -380Q-117
-370 -195 -351V-123H-83Q-81 -138 -79 -151Q-68 -208 -38 -239Q0 -277 69 -277Q149 -277 185 -220Q221 -162 221 -33V942H63V1063H221V1196Q221 1373 334 1464Q447 1556 666 1556Q751 1556 832 1546Q913 1537 991 1518V1290Z" />
<glyph unicode="&#x193;" glyph-name="uni0193" horiz-adv-x="1749" d="M1350 1435Q1374 1590 1451 1652Q1536 1721 1638 1721Q1698 1721 1766 1711T1907 1682V1457H1794Q1794 1537 1762 1572Q1733 1608 1667 1608Q1594 1608 1565 1561T1536 1391V1024H1409Q1364
1222 1259 1310Q1154 1399 963 1399Q731 1399 622 1242Q514 1084 514 745Q514 409 618 250Q722 92 942 92Q1026 92 1098 111T1229 168V578H1049V698H1587V125Q1419 47 1252 9Q1084 -29 909 -29Q525 -29 306 178Q86 385 86 745Q86 1106 306 1313Q525 1520 909 1520Q1145
1520 1224 1488L1350 1435Z" />
<glyph unicode="&#x194;" glyph-name="uni0194" horiz-adv-x="1578" d="M674 710L194 1386H10V1493H691V1386H635L902 966L1213 1386H1014V1493H1576V1386H1383L979 855Q1544 90 1356 -44Q1154 -188 771 -188Q364 -188 293 12Q228 193 674 710ZM759 595Q442 212
444 80Q447 -70 771 -67Q1060 -65 1044 85Q1032 202 759 595Z" />
<glyph unicode="&#x195;" glyph-name="uni0195" horiz-adv-x="2136" d="M1290 346Q1290 120 1442 121Q1543 121 1606 233Q1668 345 1668 530Q1668 691 1626 787Q1573 908 1543 935V979H1672Q1848 915 1951 786Q2055 656 2055 514Q2055 406 2005 307Q1956 208 1864
135Q1781 68 1673 33Q1564 -3 1442 -3Q936 -3 936 348V686Q936 821 902 874Q867 926 782 926Q675 926 625 848Q575 769 575 598V121H705V0H70V121H221V1436H63V1556H575V913Q639 1008 721 1050T928 1092Q1107 1092 1198 986Q1290 881 1290 676V346Z" />
<glyph unicode="&#x196;" glyph-name="uni0196" horiz-adv-x="958" d="M287 337V1372H96V1493H864V1372H672V351Q672 220 711 160Q751 99 846 99V0H646Q445 0 408 24Q287 102 287 337Z" />
<glyph unicode="&#x197;" glyph-name="uni0197" horiz-adv-x="958" d="M672 851H920V659H672V121H864V0H96V121H287V659H38V851H287V1372H96V1493H864V1372H672V851Z" />
<glyph unicode="&#x198;" glyph-name="uni0198" horiz-adv-x="1780" d="M1458 1332L967 911L1696 121H1843V0H1337L672 725V121H864V0H96V121H287V1372H96V1493H864V1372H672V827L1305 1372Q1443 1491 1584 1493Q1636 1493 1712 1484Q1780 1474 1853 1455V1230H1740Q1740
1310 1708 1346Q1677 1384 1613 1381Q1509 1377 1458 1332Z" />
<glyph unicode="&#x199;" glyph-name="uni0199" horiz-adv-x="1419" d="M221 1226Q221 1389 336 1472Q452 1556 677 1556Q737 1556 805 1546T946 1517V1292H833Q833 1372 802 1408Q772 1443 706 1443Q633 1443 604 1396Q575 1347 575 1226V557L1004 942H877V1063H1362V942H1165L891
696L1339 121H1454V0H844V121H969L674 500L575 412V121H709V0H70V121H221V1226Z" />
<glyph unicode="&#x19a;" glyph-name="uni019A" horiz-adv-x="778" d="M575 121H727V0H70V121H221V479H70V600H221V1436H70V1556H575V600H727V479H575V121Z" />
<glyph unicode="&#x19b;" glyph-name="uni019B" horiz-adv-x="1436" d="M1228 121H1351V0H952V121H1091L860 700L554 121H683V0H73V121H190L693 1109V1110L272 859L210 964L638 1220Q568 1345 502 1376Q458 1398 370 1400Q305 1400 270 1363Q236 1326 233 1249H120V1470Q194
1492 251 1502Q320 1514 360 1513Q586 1513 725 1272L937 1398L1001 1293L781 1162L782 1160L1228 121Z" />
<glyph unicode="&#x19c;" glyph-name="uni019C" horiz-adv-x="2167" d="M947 174Q873 68 787 20T586 -29Q403 -29 313 74T222 387V1372H70V1493H703V1372H576V440Q576 241 606 189T720 137Q814 137 866 209T918 416V1372H791V1493H1399V1372H1272V440Q1272 241
1303 189T1416 137Q1511 137 1563 209T1615 416V1372H1488V1493H2120V1372H1969V121H2120V0H1615V150Q1553 57 1473 14T1283 -29Q1153 -29 1072 20T947 174Z" />
<glyph unicode="&#x19d;" glyph-name="uni019D" horiz-adv-x="1872" d="M-182 -358V-123H-52Q-52 -266 48 -296Q74 -305 107 -305Q204 -305 242 -230Q281 -156 281 49V1372H90V1493H557L1458 436V1372H1268V1493H1790V1372H1599V0H1337L422 1079V41Q422 -244 312
-348Q231 -426 90 -426Q73 -426 -11 -409T-182 -358Z" />
<glyph unicode="&#x19e;" glyph-name="uni019E" horiz-adv-x="1489" d="M70 0V121H221V942H70V1063H575V913Q639 1008 721 1050T928 1092Q1107 1092 1198 986Q1290 880 1290 676V-305H1441V-426H806V-305H936V686Q936 821 902 874Q867 926 782 926Q675 926 625
848Q575 769 575 598V121H705V0H70Z" />
<glyph unicode="&#x19f;" glyph-name="uni019F" horiz-adv-x="1784" d="M891 -29Q514 -29 300 177T86 745T300 1313T891 1520Q1268 1520 1482 1314T1696 745Q1696 383 1482 177T891 -29ZM891 92Q1082 92 1175 253Q1257 395 1267 669H515Q525 398 608 254Q701 92
891 92ZM516 830H1266Q1256 1098 1175 1238Q1082 1399 891 1399Q701 1399 608 1236Q527 1096 516 830Z" />
<glyph unicode="&#x1a0;" glyph-name="Ohorn" horiz-adv-x="1784" d="M1146 92Q1337 92 1430 253T1523 745Q1523 1077 1430 1238T1146 1399Q956 1399 863 1237T769 745Q769 417 862 255T1146 92ZM1146 -29Q769 -29 555 177T341 745Q341 1107 555 1313T1146 1520Q1523
1520 1737 1314T1951 745Q1951 383 1737 177T1146 -29ZM1383 1248V1374Q1448 1324 1485 1305T1551 1286Q1592 1286 1614 1314T1637 1394Q1637 1434 1629 1474T1606 1552H1762Q1773 1498 1778 1450T1784 1360Q1784 1246 1738 1184T1608 1122Q1556 1122 1502 1153T1383
1248Z" />
<glyph unicode="&#x1a1;" glyph-name="ohorn" horiz-adv-x="1366" d="M685 84Q797 84 842 180T888 532Q888 788 843 883T685 979Q572 979 526 883T480 532Q480 278 526 181T685 84ZM685 -29Q404 -29 245 120T85 532Q85 795 244 943T685 1092Q967 1092 1126 944T1285
532Q1285 270 1126 121T685 -29ZM1125 818V944Q1190 894 1227 875T1293 856Q1334 856 1356 884T1379 964Q1379 1004 1371 1044T1348 1122H1504Q1515 1068 1520 1020T1526 930Q1526 816 1480 754T1350 692Q1298 692 1244 723T1125 818Z" />
<glyph unicode="&#x1a2;" glyph-name="uni01A2" horiz-adv-x="2458" d="M890 -29Q513 -29 299 177T85 745T299 1313T890 1520Q1144 1520 1324 1426Q1410 1459 1492 1476Q1576 1493 1659 1493Q1926 1493 2048 1381T2171 1026V-230H2362V-351H1593V-230H1784V1018Q1784
1223 1746 1297T1610 1372Q1534 1372 1496 1328Q1489 1321 1483 1312Q1695 1106 1695 745Q1695 383 1481 177T890 -29ZM890 92Q1081 92 1174 253T1267 745Q1267 1077 1174 1238T890 1399Q700 1399 607 1237T513 745Q513 417 606 255T890 92Z" />
<glyph unicode="&#x1a3;" glyph-name="uni01A3" horiz-adv-x="1932" d="M1365 -305L1366 733Q1366 856 1337 903Q1308 950 1235 950Q1177 950 1147 923Q1285 777 1285 532Q1285 270 1126 121T685 -29T245 120T85 532Q85 795 244 943T685 1092Q872 1092 1005 1027Q1073
1044 1136 1053Q1204 1063 1264 1063Q1489 1063 1604 980T1720 733V-305H1884V-426H1214V-305H1365ZM685 84Q797 84 842 180T888 532T843 883T685 979T526 883T480 532T526 181T685 84Z" />
<glyph unicode="&#x1a4;" glyph-name="uni01A4" horiz-adv-x="1540" d="M287 1493H946Q1195 1493 1342 1374Q1489 1256 1489 1057Q1489 857 1342 738Q1194 618 946 618H672V121H913V0H96V121H287V1372Q91 1372 22 1283Q-48 1192 -48 1006H-246V1364Q-163 1433
74 1476Q169 1493 287 1493ZM672 739H784Q914 739 992 826Q1069 912 1069 1057Q1069 1201 992 1286Q915 1372 784 1372H672V739Z" />
<glyph unicode="&#x1a5;" glyph-name="uni01A5" horiz-adv-x="1432" d="M553 584V479Q553 293 600 210Q648 127 754 127Q863 127 908 215Q952 303 952 532T908 848Q863 936 754 936Q648 936 600 853Q553 770 553 584ZM199 -305V1123Q199 1286 314 1370Q430 1453
655 1453Q715 1453 783 1443T924 1414V1189H811Q811 1269 780 1304Q750 1340 684 1340Q611 1340 582 1293T553 1123V928Q598 1011 674 1052Q750 1092 862 1092Q1089 1092 1220 942Q1350 793 1350 532T1220 121Q1089 -29 862 -29Q750 -29 674 12Q598 52 553 135V-305H717V-426H47V-305H199Z"
/>
<glyph unicode="&#x1a6;" glyph-name="uni01A6" horiz-adv-x="1702" d="M287 1372H96V1493H860V1372H672V1202H948Q1208 1202 1349 1098T1491 801Q1491 645 1391 555T1087 438Q1176 425 1237 379Q1297 334 1343 246L1561 -170H1714V-291H1223L985 160Q908 307
868 338Q819 377 733 377H672L668 121H860V0H92V121H283L287 1372ZM672 497H803Q943 497 1018 573T1094 790T1019 1006T803 1081H672V497Z" />
<glyph unicode="&#x1a7;" glyph-name="uni01A7" horiz-adv-x="1479" d="M1333 72Q1184 21 1040 -4T750 -29Q447 -29 291 88Q135 206 135 432Q135 625 228 735Q322 845 530 897L754 952Q957 1004 1009 1052Q1061 1101 1061 1194Q1061 1296 986 1348Q910 1399 762
1399Q581 1399 483 1328Q385 1256 356 1102H229V1432Q381 1476 522 1498Q664 1520 795 1520Q1061 1520 1208 1396Q1356 1273 1356 1051Q1356 867 1267 768Q1178 668 959 612L735 557Q563 514 508 464T453 324Q453 210 534 151T770 92Q961 92 1069 175T1206 426H1333V72Z"
/>
<glyph unicode="&#x1a8;" glyph-name="uni01A8" horiz-adv-x="1153" d="M1061 31Q937 1 826 -14T616 -29Q345 -29 216 56Q88 142 88 322Q88 461 168 539T457 670L602 707Q685 728 717 759T749 844Q749 910 694 944Q638 979 530 979Q402 979 334 924Q265 869 256
760H143V1028Q272 1061 378 1076Q485 1092 579 1092Q829 1092 949 1008Q1069 923 1069 750Q1069 620 995 544Q921 467 756 426L610 389Q505 363 468 328Q432 293 432 229Q432 159 490 122Q547 84 655 84Q784 84 859 146Q934 209 948 328H1061V31Z" />
<glyph unicode="&#x1a9;" glyph-name="uni01A9" horiz-adv-x="1448" d="M83 0L747 748L83 1493H1310V1161H1187V1356H676L1074 886L526 278H1187V422H1310V0H83Z" />
<glyph unicode="&#x1aa;" glyph-name="uni01AA" horiz-adv-x="678" d="M753 1523Q753 1434 706 1353Q670 1290 574 1235Q574 1231 573 1227L372 -100Q354 -216 408 -287Q451 -344 524 -344Q593 -344 630 -306T676 -190H788V-418Q710 -437 629 -446T463 -456Q256
-456 131 -365Q-7 -263 18 -96L205 1133Q168 1131 130 1131Q67 1131 19 1142Q-132 1179 -132 1331Q-132 1553 216 1556Q345 1557 458 1473Q532 1418 560 1349Q585 1372 603 1400Q631 1444 643 1523H753ZM218 1223L219 1227Q238 1351 190 1397Q161 1425 132 1427Q0
1434 0 1346Q0 1219 184 1221Q201 1221 218 1223Z" />
<glyph unicode="&#x1ab;" glyph-name="uni01AB" horiz-adv-x="946" d="M203 942H49V1063H203V1393H557V1063H852V942H557V291Q557 152 579 118T659 84H936V-125Q936 -288 821 -371T480 -455Q420 -455 352 -445T211 -416V-191H324Q326 -271 355 -306T451 -342Q523
-342 553 -295Q582 -250 582 -125V-29Q580 -29 578 -29Q359 -29 281 39T203 291V942Z" />
<glyph unicode="&#x1ac;" glyph-name="uni01AC" horiz-adv-x="1524" d="M569 1356Q361 1356 304 1283Q234 1192 234 1006H36V1364Q119 1433 356 1476Q451 1493 569 1493H1503V1120H1368V1356H956V121H1155V0H371V121H569V1356Z" />
<glyph unicode="&#x1ad;" glyph-name="uni01AD" horiz-adv-x="946" d="M203 942H49V1063H203V1226Q203 1389 318 1472Q434 1556 659 1556Q719 1556 787 1546T928 1517V1292H815Q813 1372 784 1408Q754 1443 688 1443Q618 1443 586 1396Q557 1354 557 1226V1063H852V942H557V291Q557
152 579 118T659 84Q723 84 754 127T787 260H936Q936 100 848 36Q770 -29 578 -29Q359 -29 281 40Q203 108 203 291V942Z" />
<glyph unicode="&#x1ae;" glyph-name="uni01AE" horiz-adv-x="1524" d="M569 41V1356H160V1120H23V1493H1503V1120H1368V1356H956V49Q956 -156 994 -230Q1033 -305 1130 -305Q1206 -305 1244 -261Q1283 -217 1289 -123H1419V-358Q1332 -392 1248 -409T1081 -426Q814
-426 692 -314Q569 -202 569 41Z" />
<glyph unicode="&#x1af;" glyph-name="Uhorn" horiz-adv-x="1786" d="M266 1372H76V1493H844V1372H653V625Q653 346 740 235T1038 123Q1244 123 1330 235T1417 625V1372H1227V1493H1747V1372H1556V604Q1556 262 1408 117T911 -29Q564 -29 415 118T266 606V1372ZM1545
1248V1374Q1610 1324 1647 1305T1713 1286Q1754 1286 1776 1314T1799 1394Q1799 1434 1791 1474T1768 1552H1924Q1935 1498 1940 1450T1946 1360Q1946 1246 1900 1184T1770 1122Q1718 1122 1664 1153T1545 1248Z" />
<glyph unicode="&#x1b0;" glyph-name="uhorn" horiz-adv-x="1489" d="M1272 1063V121H1423V0H917V150Q854 55 772 13T565 -29Q386 -29 295 76T203 387V942H51V1063H557V442Q557 244 590 191T711 137Q818 137 867 216T917 467V942H788V1063H1272ZM1248 818V944Q1313
894 1350 875T1416 856Q1457 856 1479 884T1502 964Q1502 1004 1494 1044T1471 1122H1627Q1638 1068 1643 1020T1649 930Q1649 816 1603 754T1473 692Q1421 692 1367 723T1248 818Z" />
<glyph unicode="&#x1b1;" glyph-name="uni01B1" horiz-adv-x="1823" d="M574 1336H240V1211H103V1520H836V1327Q680 1295 600 1143T520 725Q520 430 620 276Q720 121 912 121T1204 276Q1303 430 1303 727Q1303 988 1222 1142Q1141 1295 987 1327V1520H1721V1211H1585V1336H1250Q1487
1244 1609 1084Q1731 923 1731 703Q1731 387 1506 194Q1282 0 912 0T317 194Q92 387 92 703Q92 923 214 1084Q336 1244 574 1336Z" />
<glyph unicode="&#x1b2;" glyph-name="uni01B2" horiz-adv-x="1823" d="M912 121Q1104 121 1203 275T1303 727Q1303 990 1222 1142Q1152 1272 1092 1272V1372H1212Q1459 1282 1609 1084Q1731 923 1731 703Q1731 387 1507 194T912 0H712Q511 0 474 24Q353 102 353
337V1372H162V1493H930V1372H738V373Q738 244 777 182Q815 121 912 121Z" />
<glyph unicode="&#x1b3;" glyph-name="uni01B3" horiz-adv-x="1462" d="M1202 1372Q1274 1495 1446 1495Q1495 1495 1533 1485Q1601 1475 1674 1456V1231H1561Q1559 1311 1530 1346T1434 1382Q1360 1382 1332 1335L940 670V121H1141V0H352V121H553V618L109 1372H-18V1493H698V1372H532L868
803L1202 1372Z" />
<glyph unicode="&#x1b4;" glyph-name="uni01B4" horiz-adv-x="1451" d="M1110 932L639 -240Q591 -357 523 -406T340 -455Q291 -455 231 -444T100 -412V-190L213 -191Q216 -268 249 -305T350 -342Q415 -342 455 -307T535 -172L551 -135L88 942H-27V1063H586V942H459L729
313L981 942Q1042 1093 1212 1092Q1243 1092 1311 1082T1452 1053V828H1339Q1337 908 1308 943T1212 979Q1131 983 1110 932Z" />
<glyph unicode="&#x1b5;" glyph-name="uni01B5" horiz-adv-x="1495" d="M76 0V141L456 659H234V851H597L967 1356H252V1133H115V1493H1411V1352L1048 851H1291V659H909L530 137H1284V346H1421V0H76Z" />
<glyph unicode="&#x1b6;" glyph-name="uni01B6" horiz-adv-x="1163" d="M976 600V479H750L483 119H975V311H1094V0H72V121L337 479H187V600H426L682 946H223V764H104V1063H1094V944L839 600H976Z" />
<glyph unicode="&#x1b7;" glyph-name="uni01B7" horiz-adv-x="1345" d="M730 839Q951 818 1062 734Q1222 613 1222 403Q1222 194 1057 83T577 -29Q459 -29 334 -9T71 51V379H192Q203 237 281 163T497 88Q649 88 732 172T815 412Q815 574 729 662T483 750H417V974L682
1356H252V1133H115V1493H1094V1356L730 839Z" />
<glyph unicode="&#x1b8;" glyph-name="uni01B8" horiz-adv-x="1345" d="M615 839L251 1356V1493H1230V1133H1093V1356H663L928 974V750H862Q703 750 617 662T530 412Q530 257 613 173T848 88Q986 88 1064 162T1153 379H1274V51Q1137 11 1012 -9T768 -29Q454 -29
289 82T123 403Q123 613 283 734Q394 818 615 839Z" />
<glyph unicode="&#x1b9;" glyph-name="uni01B9" horiz-adv-x="1345" d="M615 452Q615 452 251 944V1063H1241V764H1122V946H663L928 588V363H862Q703 363 617 275T530 25Q530 -130 613 -214T848 -299Q986 -299 1064 -225T1153 -8H1274V-336Q1137 -376 1012 -396T768
-416Q454 -416 289 -305T123 16Q123 226 283 347Q394 431 615 452Z" />
<glyph unicode="&#x1bb;" glyph-name="uni01BB" horiz-adv-x="1425" d="M270 1124H150V1446Q272 1483 392 1502Q511 1520 633 1520Q918 1520 1078 1404Q1237 1287 1237 1079Q1237 954 1174 851H1291V659H988Q914 602 813 535L397 262H1104V438H1241V0H137V244L358
397Q573 546 678 659H234V851H797Q829 942 829 1049Q829 1222 758 1312Q686 1403 549 1403Q431 1403 360 1332Q289 1260 270 1124Z" />
<glyph unicode="&#x1bc;" glyph-name="uni01BC" horiz-adv-x="1544" d="M1026 840Q1221 809 1317 707T1413 403Q1413 194 1248 83T768 -29Q650 -29 525 -9T262 51V379H383Q394 237 472 163T688 88Q840 88 923 172T1006 412Q1006 574 920 662T674 750H287V1372H96V1493H1427V1141H1290V1356H674V870Q845
869 1026 840Z" />
<glyph unicode="&#x1bd;" glyph-name="uni01BD" horiz-adv-x="1163" d="M730 472Q993 419 1062 367Q1222 246 1222 16Q1222 -193 1057 -304T577 -416Q459 -416 334 -396T71 -336V-8H192Q203 -150 281 -224T497 -299Q649 -299 732 -215T815 25Q815 187 729 275T483
363H220V942H69V1063H1173V774H1052V942H574V483Q687 481 730 472Z" />
<glyph unicode="&#x1be;" glyph-name="uni01BE" horiz-adv-x="1098" d="M203 1393H557V1049H705V928H557V787Q584 779 673 702Q771 617 771 380Q771 156 673 63T315 -30Q243 -30 177 -14T49 36L46 234H159Q163 152 190 118Q219 83 309 83Q411 83 436 130Q461 178
465 412Q469 623 423 666Q392 696 319 696H203V928H48V1049H203V1393Z" />
<glyph unicode="&#x1c0;" glyph-name="uni01C0" horiz-adv-x="604" d="M410 1493V0H194V1493H410Z" />
<glyph unicode="&#x1c1;" glyph-name="uni01C1" horiz-adv-x="1008" d="M410 1493V0H194V1493H410ZM814 1493V0H598V1493H814Z" />
<glyph unicode="&#x1c2;" glyph-name="uni01C2" horiz-adv-x="940" d="M362 851H18V1013H362V1493H578V1013H922V851H578V642H922V480H578V0H362V480H18V642H362V851Z" />
<glyph unicode="&#x1c3;" glyph-name="uni01C3" horiz-adv-x="604" d="M410 216V0H194V216H410ZM410 1493V432H194V1493H410Z" />
<glyph unicode="&#x1c4;" glyph-name="uni01C4" horiz-adv-x="3271" d="M1852 0V141L2743 1356H2028V1133H1891V1493H3187V1352L2306 137H3060V346H3197V0H1852ZM2370 1635L2147 1899H2311L2524 1737L2737 1899H2901L2678 1635H2370ZM672 121H811Q1045 121 1153
271T1262 748Q1262 1073 1154 1222T811 1372H672V121ZM96 0V121H287V1372H96V1493H862Q1264 1493 1477 1301T1690 748Q1690 385 1477 193T862 0H96Z" />
<glyph unicode="&#x1c5;" glyph-name="uni01C5" horiz-adv-x="2939" d="M1848 0V121L2458 946H1999V764H1880V1063H2870V944L2259 119H2751V311H2870V0H1848ZM2237 1262L1981 1638H2145L2358 1411L2571 1638H2735L2479 1262H2237ZM672 121H811Q1045 121 1153 271T1262
748Q1262 1073 1154 1222T811 1372H672V121ZM96 0V121H287V1372H96V1493H862Q1264 1493 1477 1301T1690 748Q1690 385 1477 193T862 0H96Z" />
<glyph unicode="&#x1c6;" glyph-name="uni01C6" horiz-adv-x="2595" d="M1504 0V121L2114 946H1655V764H1536V1063H2526V944L1915 119H2407V311H2526V0H1504ZM1893 1262L1637 1638H1801L2014 1411L2227 1638H2391L2135 1262H1893ZM879 479V584Q879 770 831 853T678
936Q568 936 524 849T479 532Q479 303 524 215T678 127Q783 127 831 210T879 479ZM1233 121H1384V0H879V135Q834 52 758 12T569 -29Q343 -29 214 121T84 532Q84 794 213 943T569 1092Q681 1092 757 1052T879 928V1436H727V1556H1233V121Z" />
<glyph unicode="&#x1c7;" glyph-name="uni01C7" horiz-adv-x="2409" d="M1290 -358V-123H1420Q1426 -217 1464 -261T1579 -305Q1676 -305 1714 -231T1753 49V1372H1536V1493H2331V1372H2140V41Q2140 -202 2018 -314T1628 -426Q1545 -426 1461 -409T1290 -358ZM96
0V121H287V1372H96V1493H864V1372H672V137H1260V373H1395V0H96Z" />
<glyph unicode="&#x1c8;" glyph-name="uni01C8" horiz-adv-x="2181" d="M1618 1364Q1618 1445 1673 1500T1811 1556Q1889 1556 1945 1500T2001 1364Q2001 1285 1946 1230T1811 1174Q1730 1174 1674 1229T1618 1364ZM1659 942H1508V1063H2013V-125Q2013 -288 1898
-371T1557 -455Q1497 -455 1429 -445T1288 -416V-190L1401 -191Q1403 -271 1432 -306T1528 -342Q1601 -342 1630 -295T1659 -125V942ZM96 0V121H287V1372H96V1493H864V1372H672V137H1260V373H1395V0H96Z" />
<glyph unicode="&#x1c9;" glyph-name="uni01C9" horiz-adv-x="1519" d="M956 1364Q956 1445 1011 1500T1149 1556Q1227 1556 1283 1500T1339 1364Q1339 1285 1284 1230T1149 1174Q1068 1174 1012 1229T956 1364ZM997 942H846V1063H1351V-125Q1351 -288 1236 -371T895
-455Q835 -455 767 -445T626 -416V-190L739 -191Q741 -271 770 -306T866 -342Q939 -342 968 -295T997 -125V942ZM575 121H727V0H70V121H221V1436H70V1556H575V121Z" />
<glyph unicode="&#x1ca;" glyph-name="uni01CA" horiz-adv-x="2841" d="M1722 -358V-123H1852Q1858 -217 1896 -261T2011 -305Q2108 -305 2146 -231T2185 49V1372H1968V1493H2763V1372H2572V41Q2572 -202 2450 -314T2060 -426Q1977 -426 1893 -409T1722 -358ZM90
0V121H281V1372H90V1493H557L1458 436V1372H1268V1493H1790V1372H1599V0H1337L422 1079V121H612V0H90Z" />
<glyph unicode="&#x1cb;" glyph-name="uni01CB" horiz-adv-x="2613" d="M2050 1364Q2050 1445 2105 1500T2243 1556Q2321 1556 2377 1500T2433 1364Q2433 1285 2378 1230T2243 1174Q2162 1174 2106 1229T2050 1364ZM2091 942H1940V1063H2445V-125Q2445 -288 2330
-371T1989 -455Q1929 -455 1861 -445T1720 -416V-190L1833 -191Q1835 -271 1864 -306T1960 -342Q2033 -342 2062 -295T2091 -125V942ZM90 0V121H281V1372H90V1493H557L1458 436V1372H1268V1493H1790V1372H1599V0H1337L422 1079V121H612V0H90Z" />
<glyph unicode="&#x1cc;" glyph-name="uni01CC" horiz-adv-x="2230" d="M1667 1364Q1667 1445 1722 1500T1860 1556Q1938 1556 1994 1500T2050 1364Q2050 1285 1995 1230T1860 1174Q1779 1174 1723 1229T1667 1364ZM1708 942H1557V1063H2062V-125Q2062 -288 1947
-371T1606 -455Q1546 -455 1478 -445T1337 -416V-190L1450 -191Q1452 -271 1481 -306T1577 -342Q1650 -342 1679 -295T1708 -125V942ZM70 0V121H221V942H70V1063H575V913Q639 1008 721 1050T928 1092Q1107 1092 1198 987T1290 676V121H1442V0H807V121H936V686Q936
821 902 873T782 926Q675 926 625 848T575 598V121H705V0H70Z" />
<glyph unicode="&#x1cd;" glyph-name="uni01CD" horiz-adv-x="1589" d="M-16 0V121H106L668 1493H907L1470 121H1612V0H913V121H1059L936 426H375L250 121H428V0H-16ZM424 547H887L657 1118L424 547ZM618 1635L395 1899H559L772 1737L985 1899H1149L926 1635H618Z" />
<glyph unicode="&#x1ce;" glyph-name="uni01CE" horiz-adv-x="1327" d="M1128 653V121H1280V0H774V135Q704 51 618 11T422 -29Q259 -29 172 58T84 309Q84 488 209 577T588 666H774V729Q774 858 713 919T524 981Q418 981 361 938T279 795H166V1024Q261 1058 363
1075T578 1092Q863 1092 995 986T1128 653ZM774 334V547H641Q542 547 489 493T436 338Q436 237 474 187T592 137Q674 137 724 191T774 334ZM481 1262L225 1638H389L602 1411L815 1638H979L723 1262H481Z" />
<glyph unicode="&#x1cf;" glyph-name="uni01CF" horiz-adv-x="958" d="M96 0V121H287V1372H96V1493H864V1372H672V121H864V0H96ZM328 1635L105 1899H269L482 1737L695 1899H859L636 1635H328Z" />
<glyph unicode="&#x1d0;" glyph-name="uni01D0" horiz-adv-x="778" d="M575 121H727V0H70V121H221V942H70V1063H575V121ZM525 1262L269 1638H433L646 1411L859 1638H1023L767 1262H525Z" />
<glyph unicode="&#x1d1;" glyph-name="uni01D1" horiz-adv-x="1784" d="M891 92Q1082 92 1175 253T1268 745Q1268 1077 1175 1238T891 1399Q701 1399 608 1237T514 745Q514 417 607 255T891 92ZM891 -29Q514 -29 300 177T86 745Q86 1107 300 1313T891 1520Q1268
1520 1482 1314T1696 745Q1696 383 1482 177T891 -29ZM740 1635L517 1899H681L894 1737L1107 1899H1271L1048 1635H740Z" />
<glyph unicode="&#x1d2;" glyph-name="uni01D2" horiz-adv-x="1366" d="M684 84Q796 84 841 180T887 532Q887 788 842 883T684 979Q571 979 525 883T479 532Q479 278 525 181T684 84ZM684 -29Q403 -29 244 120T84 532Q84 795 243 943T684 1092Q966 1092 1125 944T1284
532Q1284 270 1125 121T684 -29ZM563 1262L307 1638H471L684 1411L897 1638H1061L805 1262H563Z" />
<glyph unicode="&#x1d3;" glyph-name="uni01D3" horiz-adv-x="1786" d="M260 1372H70V1493H838V1372H647V625Q647 346 734 235T1032 123Q1238 123 1324 235T1411 625V1372H1221V1493H1741V1372H1550V604Q1550 262 1402 117T905 -29Q558 -29 409 118T260 606V1372ZM790
1635L567 1899H731L944 1737L1157 1899H1321L1098 1635H790Z" />
<glyph unicode="&#x1d4;" glyph-name="uni01D4" horiz-adv-x="1489" d="M1268 1063V121H1419V0H913V150Q850 55 768 13T561 -29Q382 -29 291 76T199 387V942H47V1063H553V442Q553 244 586 191T707 137Q814 137 863 216T913 467V942H784V1063H1268ZM583 1262L327
1638H491L704 1411L917 1638H1081L825 1262H583Z" />
<glyph unicode="&#x1d5;" glyph-name="uni01D5" horiz-adv-x="1786" d="M578 2244H1208V2056H578V2244ZM260 1372H70V1493H838V1372H647V625Q647 346 734 235T1032 123Q1238 123 1324 235T1411 625V1372H1221V1493H1741V1372H1550V604Q1550 262 1402 117T905 -29Q558
-29 409 118T260 606V1372ZM573 1776Q573 1836 617 1879T721 1923Q780 1923 823 1880T866 1776Q866 1716 824 1673T721 1630Q661 1630 617 1673T573 1776ZM1020 1776Q1020 1836 1063 1879T1167 1923Q1227 1923 1271 1880T1315 1776Q1315 1716 1271 1673T1167 1630Q1107
1630 1064 1673T1020 1776Z" />
<glyph unicode="&#x1d6;" glyph-name="uni01D6" horiz-adv-x="1489" d="M392 1872H1022V1684H392V1872ZM1268 1063V121H1419V0H913V150Q850 55 768 13T561 -29Q382 -29 291 76T199 387V942H47V1063H553V442Q553 244 586 191T707 137Q814 137 863 216T913 467V942H784V1063H1268ZM336
1468Q336 1528 380 1571T484 1614Q544 1614 586 1571T629 1468Q629 1408 586 1365T484 1321Q424 1321 380 1365T336 1468ZM783 1468Q783 1528 826 1571T930 1614Q990 1614 1034 1571T1078 1468Q1078 1409 1034 1365T930 1321Q870 1321 827 1365T783 1468Z" />
<glyph unicode="&#x1d7;" glyph-name="uni01D7" horiz-adv-x="1786" d="M960 2212H1239L942 1948H778L960 2212ZM260 1372H70V1493H838V1372H647V625Q647 346 734 235T1032 123Q1238 123 1324 235T1411 625V1372H1221V1493H1741V1372H1550V604Q1550 262 1402 117T905
-29Q558 -29 409 118T260 606V1372ZM573 1776Q573 1836 617 1879T721 1923Q780 1923 823 1880T866 1776Q866 1716 824 1673T721 1630Q661 1630 617 1673T573 1776ZM1020 1776Q1020 1836 1063 1879T1167 1923Q1227 1923 1271 1880T1315 1776Q1315 1716 1271 1673T1167
1630Q1107 1630 1064 1673T1020 1776Z" />
<glyph unicode="&#x1d8;" glyph-name="uni01D8" horiz-adv-x="1489" d="M801 2020H1080L707 1644H543L801 2020ZM1268 1063V121H1419V0H913V150Q850 55 768 13T561 -29Q382 -29 291 76T199 387V942H47V1063H553V442Q553 244 586 191T707 137Q814 137 863 216T913
467V942H784V1063H1268ZM336 1468Q336 1528 380 1571T484 1614Q544 1614 586 1571T629 1468Q629 1408 586 1365T484 1321Q424 1321 380 1365T336 1468ZM783 1468Q783 1528 826 1571T930 1614Q990 1614 1034 1571T1078 1468Q1078 1409 1034 1365T930 1321Q870 1321
827 1365T783 1468Z" />
<glyph unicode="&#x1d9;" glyph-name="uni01D9" horiz-adv-x="1786" d="M790 1948L567 2212H731L944 2050L1157 2212H1321L1098 1948H790ZM260 1372H70V1493H838V1372H647V625Q647 346 734 235T1032 123Q1238 123 1324 235T1411 625V1372H1221V1493H1741V1372H1550V604Q1550
262 1402 117T905 -29Q558 -29 409 118T260 606V1372ZM573 1776Q573 1836 617 1879T721 1923Q780 1923 823 1880T866 1776Q866 1716 824 1673T721 1630Q661 1630 617 1673T573 1776ZM1020 1776Q1020 1836 1063 1879T1167 1923Q1227 1923 1271 1880T1315 1776Q1315
1716 1271 1673T1167 1630Q1107 1630 1064 1673T1020 1776Z" />
<glyph unicode="&#x1da;" glyph-name="uni01DA" horiz-adv-x="1489" d="M588 1644L332 2020H496L709 1793L922 2020H1086L830 1644H588ZM1268 1063V121H1419V0H913V150Q850 55 768 13T561 -29Q382 -29 291 76T199 387V942H47V1063H553V442Q553 244 586 191T707
137Q814 137 863 216T913 467V942H784V1063H1268ZM336 1468Q336 1528 380 1571T484 1614Q544 1614 586 1571T629 1468Q629 1408 586 1365T484 1321Q424 1321 380 1365T336 1468ZM783 1468Q783 1528 826 1571T930 1614Q990 1614 1034 1571T1078 1468Q1078 1409 1034
1365T930 1321Q870 1321 827 1365T783 1468Z" />
<glyph unicode="&#x1db;" glyph-name="uni01DB" horiz-adv-x="1786" d="M928 2212L1110 1948H946L649 2212H928ZM260 1372H70V1493H838V1372H647V625Q647 346 734 235T1032 123Q1238 123 1324 235T1411 625V1372H1221V1493H1741V1372H1550V604Q1550 262 1402 117T905
-29Q558 -29 409 118T260 606V1372ZM573 1776Q573 1836 617 1879T721 1923Q780 1923 823 1880T866 1776Q866 1716 824 1673T721 1630Q661 1630 617 1673T573 1776ZM1020 1776Q1020 1836 1063 1879T1167 1923Q1227 1923 1271 1880T1315 1776Q1315 1716 1271 1673T1167
1630Q1107 1630 1064 1673T1020 1776Z" />
<glyph unicode="&#x1dc;" glyph-name="uni01DC" horiz-adv-x="1489" d="M617 2020L875 1644H711L338 2020H617ZM1268 1063V121H1419V0H913V150Q850 55 768 13T561 -29Q382 -29 291 76T199 387V942H47V1063H553V442Q553 244 586 191T707 137Q814 137 863 216T913
467V942H784V1063H1268ZM336 1468Q336 1528 380 1571T484 1614Q544 1614 586 1571T629 1468Q629 1408 586 1365T484 1321Q424 1321 380 1365T336 1468ZM783 1468Q783 1528 826 1571T930 1614Q990 1614 1034 1571T1078 1468Q1078 1409 1034 1365T930 1321Q870 1321
827 1365T783 1468Z" />
<glyph unicode="&#x1dd;" glyph-name="uni01DD" horiz-adv-x="1303" d="M473 463Q473 253 512 169T645 84Q736 84 775 167T815 445V463H473ZM84 582H815V590Q815 796 753 887T553 979Q438 979 367 918T276 741H110Q153 922 281 1007T639 1092Q915 1092 1062 947T1210
531Q1210 267 1059 119T639 -29Q375 -29 234 126T84 582Z" />
<glyph unicode="&#x1de;" glyph-name="uni01DE" horiz-adv-x="1589" d="M454 2244H1084V2056H454V2244ZM-16 0V121H106L668 1493H907L1470 121H1612V0H913V121H1059L936 426H375L250 121H428V0H-16ZM424 547H887L657 1118L424 547ZM401 1776Q401 1836 445 1879T549
1923Q608 1923 651 1880T694 1776Q694 1716 652 1673T549 1630Q489 1630 445 1673T401 1776ZM848 1776Q848 1836 891 1879T995 1923Q1055 1923 1099 1880T1143 1776Q1143 1716 1099 1673T995 1630Q935 1630 892 1673T848 1776Z" />
<glyph unicode="&#x1df;" glyph-name="uni01DF" horiz-adv-x="1327" d="M285 1872H915V1684H285V1872ZM1128 653V121H1280V0H774V135Q704 51 618 11T422 -29Q259 -29 172 58T84 309Q84 488 209 577T588 666H774V729Q774 858 713 919T524 981Q418 981 361 938T279
795H166V1024Q261 1058 363 1075T578 1092Q863 1092 995 986T1128 653ZM774 334V547H641Q542 547 489 493T436 338Q436 237 474 187T592 137Q674 137 724 191T774 334ZM229 1468Q229 1528 273 1571T377 1614Q437 1614 479 1571T522 1468Q522 1408 479 1365T377
1321Q317 1321 273 1365T229 1468ZM676 1468Q676 1528 719 1571T823 1614Q883 1614 927 1571T971 1468Q971 1409 927 1365T823 1321Q763 1321 720 1365T676 1468Z" />
<glyph unicode="&#x1e0;" glyph-name="uni01E0" horiz-adv-x="1589" d="M457 2244H1087V2056H457V2244ZM625 1841Q625 1901 668 1944T772 1987T875 1944T919 1841Q919 1782 876 1738T772 1694T669 1738T625 1841ZM-16 0V121H106L668 1493H907L1470 121H1612V0H913V121H1059L936
426H375L250 121H428V0H-16ZM424 547H887L657 1118L424 547Z" />
<glyph unicode="&#x1e1;" glyph-name="uni01E1" horiz-adv-x="1327" d="M285 1871H915V1683H285V1871ZM453 1468Q453 1528 496 1571T600 1614T703 1571T747 1468Q747 1409 704 1365T600 1321T497 1365T453 1468ZM1128 653V121H1280V0H774V135Q704 51 618 11T422
-29Q259 -29 172 58T84 309Q84 488 209 577T588 666H774V729Q774 858 713 919T524 981Q418 981 361 938T279 795H166V1024Q261 1058 363 1075T578 1092Q863 1092 995 986T1128 653ZM774 334V547H641Q542 547 489 493T436 338Q436 237 474 187T592 137Q674 137 724
191T774 334Z" />
<glyph unicode="&#x1e2;" glyph-name="uni01E2" horiz-adv-x="2118" d="M903 1872H1533V1684H903V1872ZM401 545H866V1372H791L401 545ZM676 0V121H866V424H344L201 121H365V0H-63V121H51L643 1372H442V1493H1993V1141H1855V1356H1253V877H1620V1067H1755V551H1620V741H1253V137H1876V352H2011V0H676Z"
/>
<glyph unicode="&#x1e3;" glyph-name="uni01E3" horiz-adv-x="1997" d="M648 1562H1278V1374H648V1562ZM1513 600Q1513 810 1474 894T1341 979Q1250 979 1211 896T1171 618V600H1513ZM975 936Q1052 1014 1144 1053T1348 1092Q1611 1092 1752 937T1902 481H1171V473Q1171
267 1233 176T1434 84Q1548 84 1618 144T1708 322H1876Q1833 141 1706 56T1348 -29Q1214 -29 1110 9T928 127Q839 49 734 10T504 -29Q298 -29 191 57T84 309Q84 489 211 577T598 666H784V729Q784 845 714 912T520 979Q417 979 360 936T279 795H166V1024Q261 1058
363 1075T578 1092Q715 1092 813 1054T975 936ZM784 330V547H651Q542 547 489 492T436 324Q436 211 475 163T604 115Q690 115 737 171T784 330Z" />
<glyph unicode="&#x1e4;" glyph-name="uni01E4" horiz-adv-x="1834" d="M1409 1024Q1364 1222 1259 1310T963 1399Q731 1399 623 1242T514 745Q514 409 618 251T942 92Q1026 92 1098 111T1229 168V311H860V431H1229V578H1049V698H1587V431H1786V311H1587V125Q1419
47 1252 9T909 -29Q525 -29 306 178T86 745Q86 1106 305 1313T909 1520Q1069 1520 1224 1488T1536 1391V1024H1409Z" />
<glyph unicode="&#x1e5;" glyph-name="uni01E5" horiz-adv-x="1432" d="M879 475H672V596H879Q877 773 831 853Q783 936 678 936Q568 936 524 849T479 532T524 215T678 127Q783 127 831 210Q878 292 879 475ZM1233 475V14Q1233 -210 1074 -332T623 -455Q517 -455
408 -439T184 -389V-135H297Q312 -240 381 -291T580 -342Q744 -342 811 -264T879 14V135Q834 52 758 12T569 -29Q343 -29 214 121T84 532Q84 794 213 943T569 1092Q681 1092 757 1052T879 928V1063H1384V942H1233V596H1384V475H1233Z" />
<glyph unicode="&#x1e6;" glyph-name="Gcaron" horiz-adv-x="1749" d="M756 1635L533 1899H697L910 1737L1123 1899H1287L1064 1635H756ZM1409 1024Q1364 1222 1259 1310T963 1399Q731 1399 623 1242T514 745Q514 409 618 251T942 92Q1026 92 1098 111T1229 168V578H1049V698H1587V125Q1419
47 1252 9T909 -29Q525 -29 306 178T86 745Q86 1106 305 1313T909 1520Q1069 1520 1224 1488T1536 1391V1024H1409Z" />
<glyph unicode="&#x1e7;" glyph-name="gcaron" horiz-adv-x="1432" d="M557 1262L301 1638H465L678 1411L891 1638H1055L799 1262H557ZM1233 942V14Q1233 -210 1074 -332T623 -455Q517 -455 408 -439T184 -389V-135H297Q312 -240 381 -291T580 -342Q744 -342 811
-264T879 14V135Q834 52 758 12T569 -29Q343 -29 214 121T84 532Q84 794 213 943T569 1092Q681 1092 757 1052T879 928V1063H1384V942H1233ZM879 584Q879 770 831 853T678 936Q568 936 524 849T479 532Q479 303 524 215T678 127Q783 127 831 210T879 479V584Z"
/>
<glyph unicode="&#x1e8;" glyph-name="uni01E8" horiz-adv-x="1780" d="M876 1635L653 1899H817L1030 1737L1243 1899H1407L1184 1635H876ZM96 0V121H287V1372H96V1493H864V1372H672V827L1305 1372H1145V1493H1702V1372H1503L967 911L1696 121H1843V0H1337L672
725V121H864V0H96Z" />
<glyph unicode="&#x1e9;" glyph-name="uni01E9" horiz-adv-x="1419" d="M174 1635L-49 1899H115L328 1737L541 1899H705L482 1635H174ZM709 0H70V121H221V1436H70V1556H575V557L1004 942H877V1063H1362V942H1165L891 696L1339 121H1454V0H844V121H969L674 500L575
412V121H709V0Z" />
<glyph unicode="&#x1ea;" glyph-name="uni01EA" horiz-adv-x="1784" d="M828 -16H953Q904 -81 885 -118T865 -184Q865 -225 893 -247T974 -270Q1013 -270 1053 -262T1132 -239L1131 -395Q1077 -406 1029 -411T939 -417Q826 -417 764 -371T701 -241Q701 -189 732
-135T828 -16ZM891 92Q1082 92 1175 253T1268 745Q1268 1077 1175 1238T891 1399Q701 1399 608 1237T514 745Q514 417 607 255T891 92ZM891 -29Q514 -29 300 177T86 745Q86 1107 300 1313T891 1520Q1268 1520 1482 1314T1696 745Q1696 383 1482 177T891 -29Z" />
<glyph unicode="&#x1eb;" glyph-name="uni01EB" horiz-adv-x="1366" d="M622 -16H747Q698 -81 679 -118T659 -184Q659 -225 687 -247T768 -270Q807 -270 847 -262T926 -239L925 -395Q871 -406 823 -411T733 -417Q620 -417 558 -371T495 -241Q495 -189 526 -135T622
-16ZM684 84Q796 84 841 180T887 532Q887 788 842 883T684 979Q571 979 525 883T479 532Q479 278 525 181T684 84ZM684 -29Q403 -29 244 120T84 532Q84 795 243 943T684 1092Q966 1092 1125 944T1284 532Q1284 270 1125 121T684 -29Z" />
<glyph unicode="&#x1ec;" glyph-name="uni01EC" horiz-adv-x="1784" d="M576 1872H1206V1684H576V1872ZM828 -16H953Q904 -81 885 -118T865 -184Q865 -225 893 -247T974 -270Q1013 -270 1053 -262T1132 -239L1131 -395Q1077 -406 1029 -411T939 -417Q826 -417
764 -371T701 -241Q701 -189 732 -135T828 -16ZM891 92Q1082 92 1175 253T1268 745Q1268 1077 1175 1238T891 1399Q701 1399 608 1237T514 745Q514 417 607 255T891 92ZM891 -29Q514 -29 300 177T86 745Q86 1107 300 1313T891 1520Q1268 1520 1482 1314T1696 745Q1696
383 1482 177T891 -29Z" />
<glyph unicode="&#x1ed;" glyph-name="uni01ED" horiz-adv-x="1366" d="M369 1562H999V1374H369V1562ZM622 -16H747Q698 -81 679 -118T659 -184Q659 -225 687 -247T768 -270Q807 -270 847 -262T926 -239L925 -395Q871 -406 823 -411T733 -417Q620 -417 558 -371T495
-241Q495 -189 526 -135T622 -16ZM684 84Q796 84 841 180T887 532Q887 788 842 883T684 979Q571 979 525 883T479 532Q479 278 525 181T684 84ZM684 -29Q403 -29 244 120T84 532Q84 795 243 943T684 1092Q966 1092 1125 944T1284 532Q1284 270 1125 121T684 -29Z"
/>
<glyph unicode="&#x1ee;" glyph-name="uni01EE" horiz-adv-x="1345" d="M504 1635L281 1899H445L658 1737L871 1899H1035L812 1635H504ZM730 839Q951 818 1062 734Q1222 613 1222 403Q1222 194 1057 83T577 -29Q459 -29 334 -9T71 51V379H192Q203 237 281 163T497
88Q649 88 732 172T815 412Q815 574 729 662T483 750H417V974L682 1356H252V1133H115V1493H1094V1356L730 839Z" />
<glyph unicode="&#x1ef;" glyph-name="uni01EF" horiz-adv-x="1163" d="M461 1262L205 1638H369L582 1411L795 1638H959L703 1262H461ZM730 452Q951 431 1062 347Q1222 226 1222 16Q1222 -193 1057 -304T577 -416Q459 -416 334 -396T71 -336V-8H192Q203 -150 281
-224T497 -299Q649 -299 732 -215T815 25Q815 187 729 275T483 363H417V588L682 946H223V764H104V1063H1094V944L730 452Z" />
<glyph unicode="&#x1f0;" glyph-name="uni01F0" horiz-adv-x="778" d="M219 942H68V1063H573V-125Q573 -288 458 -371T117 -455Q57 -455 -11 -445T-152 -416V-190L-39 -191Q-37 -271 -8 -306T88 -342Q161 -342 190 -295T219 -125V942ZM525 1262L269 1638H433L646
1411L859 1638H1023L767 1262H525Z" />
<glyph unicode="&#x1f1;" glyph-name="uni01F1" horiz-adv-x="3271" d="M1852 0V141L2743 1356H2028V1133H1891V1493H3187V1352L2306 137H3060V346H3197V0H1852ZM672 121H811Q1045 121 1153 271T1262 748Q1262 1073 1154 1222T811 1372H672V121ZM96 0V121H287V1372H96V1493H862Q1264
1493 1477 1301T1690 748Q1690 385 1477 193T862 0H96Z" />
<glyph unicode="&#x1f2;" glyph-name="uni01F2" horiz-adv-x="2939" d="M1848 0V121L2458 946H1999V764H1880V1063H2870V944L2259 119H2751V311H2870V0H1848ZM672 121H811Q1045 121 1153 271T1262 748Q1262 1073 1154 1222T811 1372H672V121ZM96 0V121H287V1372H96V1493H862Q1264
1493 1477 1301T1690 748Q1690 385 1477 193T862 0H96Z" />
<glyph unicode="&#x1f3;" glyph-name="uni01F3" horiz-adv-x="2595" d="M1504 0V121L2114 946H1655V764H1536V1063H2526V944L1915 119H2407V311H2526V0H1504ZM879 479V584Q879 770 831 853T678 936Q568 936 524 849T479 532Q479 303 524 215T678 127Q783 127 831
210T879 479ZM1233 121H1384V0H879V135Q834 52 758 12T569 -29Q343 -29 214 121T84 532Q84 794 213 943T569 1092Q681 1092 757 1052T879 928V1436H727V1556H1233V121Z" />
<glyph unicode="&#x1f4;" glyph-name="uni01F4" horiz-adv-x="1749" d="M926 1900H1205L908 1636H744L926 1900ZM1409 1024Q1364 1222 1259 1310T963 1399Q731 1399 623 1242T514 745Q514 409 618 251T942 92Q1026 92 1098 111T1229 168V578H1049V698H1587V125Q1419
47 1252 9T909 -29Q525 -29 306 178T86 745Q86 1106 305 1313T909 1520Q1069 1520 1224 1488T1536 1391V1024H1409Z" />
<glyph unicode="&#x1f5;" glyph-name="uni01F5" horiz-adv-x="1432" d="M770 1638H1049L676 1262H512L770 1638ZM1233 942V14Q1233 -210 1074 -332T623 -455Q517 -455 408 -439T184 -389V-135H297Q312 -240 381 -291T580 -342Q744 -342 811 -264T879 14V135Q834
52 758 12T569 -29Q343 -29 214 121T84 532Q84 794 213 943T569 1092Q681 1092 757 1052T879 928V1063H1384V942H1233ZM879 584Q879 770 831 853T678 936Q568 936 524 849T479 532Q479 303 524 215T678 127Q783 127 831 210T879 479V584Z" />
<glyph unicode="&#x1f6;" glyph-name="uni01F6" horiz-adv-x="2501" d="M1651 625Q1651 296 1701 234Q1791 123 1943 123Q2119 123 2205 235T2292 625V943H2102V1063H2431V604Q2431 259 2283 116Q2131 -29 1816 -29Q1507 -29 1376 118Q1266 241 1266 604V733H672V121H864V0H96V121H287V1372H96V1493H864V1372H672V870H1266V1372H1075V1493H1843V1372H1651V625Z"
/>
<glyph unicode="&#x1f8;" glyph-name="uni01F8" horiz-adv-x="1872" d="M907 1899L1089 1635H925L628 1899H907ZM90 0V121H281V1372H90V1493H557L1458 436V1372H1268V1493H1790V1372H1599V0H1337L422 1079V121H612V0H90Z" />
<glyph unicode="&#x1f9;" glyph-name="uni01F9" horiz-adv-x="1489" d="M572 1638L830 1262H666L293 1638H572ZM70 0V121H221V942H70V1063H575V913Q639 1008 721 1050T928 1092Q1107 1092 1198 987T1290 676V121H1442V0H807V121H936V686Q936 821 902 873T782 926Q675
926 625 848T575 598V121H705V0H70Z" />
<glyph unicode="&#x1fa;" glyph-name="Aringacute" horiz-adv-x="1589" d="M424 547H887L659 1118L424 547ZM657 1484T657 1430T696 1338T788 1299Q843 1299 881 1337T920 1430T881 1522T788 1561Q735 1561 696 1523ZM874 1900H1153L913 1687Q954 1666 990 1631Q1073
1547 1073 1430Q1073 1356 1042 1297Q1028 1270 1008 1247L1470 121H1612V0H913V121H1059L936 426H375L250 121H428V0H-16V121H106L569 1247Q549 1269 536 1296Q504 1356 504 1430Q504 1547 588 1631Q655 1699 744 1712L874 1900Z" />
<glyph unicode="&#x1fb;" glyph-name="aringacute" horiz-adv-x="1327" d="M1128 653V121H1280V0H774V135Q704 51 618 11T422 -29Q259 -29 172 58T84 309Q84 488 209 577T588 666H774V729Q774 858 713 919T524 981Q418 981 361 938T279 795H166V1024Q261 1058
363 1075T578 1092Q863 1092 995 986T1128 653ZM774 334V547H641Q542 547 489 493T436 338T474 187T592 137Q674 137 724 191T774 334ZM686 1900H965L725 1687Q766 1667 802 1632Q885 1548 885 1430T802 1229T600 1145T399 1228T315 1430T398 1632Q466 1699 556
1712L686 1900ZM469 1430Q469 1375 507 1337T600 1299Q655 1299 693 1337T731 1430T693 1522T600 1561Q545 1561 507 1523T469 1430Z" />
<glyph unicode="&#x1fc;" glyph-name="AEacute" horiz-adv-x="2118" d="M1231 1900H1510L1213 1636H1049L1231 1900ZM401 545H866V1372H791L401 545ZM676 0V121H866V424H344L201 121H365V0H-63V121H51L643 1372H442V1493H1993V1141H1855V1356H1253V877H1620V1067H1755V551H1620V741H1253V137H1876V352H2011V0H676Z"
/>
<glyph unicode="&#x1fd;" glyph-name="aeacute" horiz-adv-x="1997" d="M1067 1638H1346L973 1262H809L1067 1638ZM1513 600Q1513 810 1474 894T1341 979Q1250 979 1211 896T1171 618V600H1513ZM975 936Q1052 1014 1144 1053T1348 1092Q1611 1092 1752 937T1902
481H1171V473Q1171 267 1233 176T1434 84Q1548 84 1618 144T1708 322H1876Q1833 141 1706 56T1348 -29Q1214 -29 1110 9T928 127Q839 49 734 10T504 -29Q298 -29 191 57T84 309Q84 489 211 577T598 666H784V729Q784 845 714 912T520 979Q417 979 360 936T279 795H166V1024Q261
1058 363 1075T578 1092Q715 1092 813 1054T975 936ZM784 330V547H651Q542 547 489 492T436 324Q436 211 475 163T604 115Q690 115 737 171T784 330Z" />
<glyph unicode="&#x1fe;" glyph-name="Oslashacute" horiz-adv-x="1784" d="M902 1900H1181L884 1636H720L902 1900ZM535 479L1212 1157Q1170 1276 1089 1337T891 1399Q701 1399 608 1237T514 745Q514 669 519 603T535 479ZM571 334Q616 212 695 152T891 92Q1086
92 1178 259T1270 784Q1270 849 1264 899T1245 993L571 334ZM1516 1280Q1606 1176 1651 1043T1696 745Q1696 383 1482 177T891 -29Q733 -29 601 10T362 127L158 -78L68 12L268 213Q177 315 132 448T86 745Q86 1107 300 1313T891 1520Q1051 1520 1184 1482T1421
1366L1624 1569L1714 1479L1516 1280Z" />
<glyph unicode="&#x1ff;" glyph-name="oslashacute" horiz-adv-x="1366" d="M776 1638H1055L682 1262H518L776 1638ZM481 416L868 801Q851 891 806 935T684 979Q574 979 528 884T481 553V416ZM500 262Q515 173 561 129T684 84Q793 84 839 178T885 508V649L500
262ZM1151 913Q1217 841 1250 746T1284 532Q1284 270 1125 121T684 -29Q573 -29 480 -5T307 70L135 -102L51 -16L215 147Q150 222 117 318T84 532Q84 795 243 943T684 1092Q800 1092 894 1067T1061 993L1229 1161L1315 1075L1151 913Z" />
<glyph unicode="&#x200;" glyph-name="uni0200" horiz-adv-x="1589" d="M566 1904L748 1640H584L287 1904H566ZM898 1904L1080 1640H916L619 1904H898ZM-16 0V121H106L668 1493H907L1470 121H1612V0H913V121H1059L936 426H375L250 121H428V0H-16ZM424 547H887L657
1118L424 547Z" />
<glyph unicode="&#x201;" glyph-name="uni0201" horiz-adv-x="1327" d="M358 1638L583 1262H419L122 1638H358ZM724 1638L913 1262H751L507 1638H724ZM1128 653V121H1280V0H774V135Q704 51 618 11T422 -29Q259 -29 172 58T84 309Q84 488 209 577T588 666H774V729Q774
858 713 919T524 981Q418 981 361 938T279 795H166V1024Q261 1058 363 1075T578 1092Q863 1092 995 986T1128 653ZM774 334V547H641Q542 547 489 493T436 338Q436 237 474 187T592 137Q674 137 724 191T774 334Z" />
<glyph unicode="&#x202;" glyph-name="uni0202" horiz-adv-x="1589" d="M1114 1651H989Q983 1724 927 1763T772 1802T617 1763T555 1651H430Q430 1797 520 1879T772 1962Q935 1962 1023 1881T1114 1651ZM-16 0V121H106L668 1493H907L1470 121H1612V0H913V121H1059L936
426H375L250 121H428V0H-16ZM424 547H887L657 1118L424 547Z" />
<glyph unicode="&#x203;" glyph-name="uni0203" horiz-adv-x="1327" d="M942 1278H817Q811 1351 755 1390T600 1429T445 1390T383 1278H258Q258 1424 348 1506T600 1589Q763 1589 851 1508T942 1278ZM1128 653V121H1280V0H774V135Q704 51 618 11T422 -29Q259 -29
172 58T84 309Q84 488 209 577T588 666H774V729Q774 858 713 919T524 981Q418 981 361 938T279 795H166V1024Q261 1058 363 1075T578 1092Q863 1092 995 986T1128 653ZM774 334V547H641Q542 547 489 493T436 338Q436 237 474 187T592 137Q674 137 724 191T774 334Z"
/>
<glyph unicode="&#x204;" glyph-name="uni0204" horiz-adv-x="1561" d="M614 1904L796 1640H632L335 1904H614ZM946 1904L1128 1640H964L667 1904H946ZM96 0V121H287V1372H96V1493H1438V1141H1300V1356H672V877H1063V1067H1200V551H1063V741H672V137H1319V352H1456V0H96Z" />
<glyph unicode="&#x205;" glyph-name="uni0205" horiz-adv-x="1303" d="M409 1638L634 1262H470L173 1638H409ZM775 1638L964 1262H802L558 1638H775ZM821 600Q821 810 782 894T649 979Q558 979 519 896T479 618V600H821ZM1210 481H479V473Q479 267 541 176T741
84Q856 84 927 145T1018 322H1184Q1141 141 1013 56T655 -29Q379 -29 232 116T84 532Q84 796 235 944T655 1092Q919 1092 1060 937T1210 481Z" />
<glyph unicode="&#x206;" glyph-name="uni0206" horiz-adv-x="1561" d="M1157 1651H1032Q1026 1724 970 1763T815 1802T660 1763T598 1651H473Q473 1797 563 1879T815 1962Q978 1962 1066 1881T1157 1651ZM96 0V121H287V1372H96V1493H1438V1141H1300V1356H672V877H1063V1067H1200V551H1063V741H672V137H1319V352H1456V0H96Z"
/>
<glyph unicode="&#x207;" glyph-name="uni0207" horiz-adv-x="1303" d="M993 1278H868Q862 1351 806 1390T651 1429T496 1390T434 1278H309Q309 1424 399 1506T651 1589Q814 1589 902 1508T993 1278ZM821 600Q821 810 782 894T649 979Q558 979 519 896T479 618V600H821ZM1210
481H479V473Q479 267 541 176T741 84Q856 84 927 145T1018 322H1184Q1141 141 1013 56T655 -29Q379 -29 232 116T84 532Q84 796 235 944T655 1092Q919 1092 1060 937T1210 481Z" />
<glyph unicode="&#x208;" glyph-name="uni0208" horiz-adv-x="958" d="M282 1904L464 1640H300L3 1904H282ZM614 1904L796 1640H632L335 1904H614ZM96 0V121H287V1372H96V1493H864V1372H672V121H864V0H96Z" />
<glyph unicode="&#x209;" glyph-name="uni0209" horiz-adv-x="778" d="M575 121H727V0H70V121H221V942H70V1063H575V121ZM139 1641L364 1265H200L-97 1641H139ZM505 1641L694 1265H532L288 1641H505Z" />
<glyph unicode="&#x20a;" glyph-name="uni020A" horiz-adv-x="958" d="M821 1651H696Q690 1724 634 1763T479 1802T324 1763T262 1651H137Q137 1797 227 1879T479 1962Q642 1962 730 1881T821 1651ZM96 0V121H287V1372H96V1493H864V1372H672V121H864V0H96Z" />
<glyph unicode="&#x20b;" glyph-name="uni020B" horiz-adv-x="778" d="M575 121H727V0H70V121H221V942H70V1063H575V121ZM723 1260H598Q592 1333 536 1372T381 1411T226 1372T164 1260H39Q39 1406 129 1488T381 1571Q544 1571 632 1490T723 1260Z" />
<glyph unicode="&#x20c;" glyph-name="uni020C" horiz-adv-x="1784" d="M694 1904L876 1640H712L415 1904H694ZM1026 1904L1208 1640H1044L747 1904H1026ZM891 92Q1082 92 1175 253T1268 745Q1268 1077 1175 1238T891 1399Q701 1399 608 1237T514 745Q514 417
607 255T891 92ZM891 -29Q514 -29 300 177T86 745Q86 1107 300 1313T891 1520Q1268 1520 1482 1314T1696 745Q1696 383 1482 177T891 -29Z" />
<glyph unicode="&#x20d;" glyph-name="uni020D" horiz-adv-x="1366" d="M442 1638L667 1262H503L206 1638H442ZM808 1638L997 1262H835L591 1638H808ZM684 84Q796 84 841 180T887 532Q887 788 842 883T684 979Q571 979 525 883T479 532Q479 278 525 181T684 84ZM684
-29Q403 -29 244 120T84 532Q84 795 243 943T684 1092Q966 1092 1125 944T1284 532Q1284 270 1125 121T684 -29Z" />
<glyph unicode="&#x20e;" glyph-name="uni020E" horiz-adv-x="1784" d="M1235 1651H1110Q1104 1724 1048 1763T893 1802T738 1763T676 1651H551Q551 1797 641 1879T893 1962Q1056 1962 1144 1881T1235 1651ZM891 92Q1082 92 1175 253T1268 745Q1268 1077 1175
1238T891 1399Q701 1399 608 1237T514 745Q514 417 607 255T891 92ZM891 -29Q514 -29 300 177T86 745Q86 1107 300 1313T891 1520Q1268 1520 1482 1314T1696 745Q1696 383 1482 177T891 -29Z" />
<glyph unicode="&#x20f;" glyph-name="uni020F" horiz-adv-x="1366" d="M1026 1278H901Q895 1351 839 1390T684 1429T529 1390T467 1278H342Q342 1424 432 1506T684 1589Q847 1589 935 1508T1026 1278ZM684 84Q796 84 841 180T887 532Q887 788 842 883T684 979Q571
979 525 883T479 532Q479 278 525 181T684 84ZM684 -29Q403 -29 244 120T84 532Q84 795 243 943T684 1092Q966 1092 1125 944T1284 532Q1284 270 1125 121T684 -29Z" />
<glyph unicode="&#x210;" glyph-name="uni0210" horiz-adv-x="1702" d="M662 1904L844 1640H680L383 1904H662ZM994 1904L1176 1640H1012L715 1904H994ZM1087 729Q1176 716 1237 670T1343 537L1561 121H1714V0H1223L985 451Q916 591 868 629T733 668H672V121H864V0H96V121H287V1372H96V1493H948Q1208
1493 1349 1389T1491 1092Q1491 936 1391 846T1087 729ZM672 788H803Q943 788 1018 864T1094 1081Q1094 1222 1019 1297T803 1372H672V788Z" />
<glyph unicode="&#x211;" glyph-name="uni0211" horiz-adv-x="1079" d="M422 1638L647 1262H483L186 1638H422ZM788 1638L977 1262H815L571 1638H788ZM1100 1075V758H987Q981 843 941 884T825 926Q709 926 642 824T575 541V121H768V0H70V121H221V942H59V1063H575V874Q627
985 712 1038T922 1092Q953 1092 997 1088T1100 1075Z" />
<glyph unicode="&#x212;" glyph-name="uni0212" horiz-adv-x="1702" d="M1207 1651H1082Q1076 1724 1020 1763T865 1802T710 1763T648 1651H523Q523 1797 613 1879T865 1962Q1028 1962 1116 1881T1207 1651ZM1087 729Q1176 716 1237 670T1343 537L1561 121H1714V0H1223L985
451Q916 591 868 629T733 668H672V121H864V0H96V121H287V1372H96V1493H948Q1208 1493 1349 1389T1491 1092Q1491 936 1391 846T1087 729ZM672 788H803Q943 788 1018 864T1094 1081Q1094 1222 1019 1297T803 1372H672V788Z" />
<glyph unicode="&#x213;" glyph-name="uni0213" horiz-adv-x="1079" d="M1006 1278H881Q875 1351 819 1390T664 1429T509 1390T447 1278H322Q322 1424 412 1506T664 1589Q827 1589 915 1508T1006 1278ZM1100 1075V758H987Q981 843 941 884T825 926Q709 926 642
824T575 541V121H768V0H70V121H221V942H59V1063H575V874Q627 985 712 1038T922 1092Q953 1092 997 1088T1100 1075Z" />
<glyph unicode="&#x214;" glyph-name="uni0214" horiz-adv-x="1786" d="M742 1904L924 1640H760L463 1904H742ZM1074 1904L1256 1640H1092L795 1904H1074ZM260 1372H70V1493H838V1372H647V625Q647 346 734 235T1032 123Q1238 123 1324 235T1411 625V1372H1221V1493H1741V1372H1550V604Q1550
262 1402 117T905 -29Q558 -29 409 118T260 606V1372Z" />
<glyph unicode="&#x215;" glyph-name="uni0215" horiz-adv-x="1489" d="M465 1638L690 1262H526L229 1638H465ZM831 1638L1020 1262H858L614 1638H831ZM1268 1063V121H1419V0H913V150Q850 55 768 13T561 -29Q382 -29 291 76T199 387V942H47V1063H553V442Q553 244
586 191T707 137Q814 137 863 216T913 467V942H784V1063H1268Z" />
<glyph unicode="&#x216;" glyph-name="uni0216" horiz-adv-x="1786" d="M1286 1651H1161Q1155 1724 1099 1763T944 1802T789 1763T727 1651H602Q602 1797 692 1879T944 1962Q1107 1962 1195 1881T1286 1651ZM260 1372H70V1493H838V1372H647V625Q647 346 734 235T1032
123Q1238 123 1324 235T1411 625V1372H1221V1493H1741V1372H1550V604Q1550 262 1402 117T905 -29Q558 -29 409 118T260 606V1372Z" />
<glyph unicode="&#x217;" glyph-name="uni0217" horiz-adv-x="1489" d="M1049 1278H924Q918 1351 862 1390T707 1429T552 1390T490 1278H365Q365 1424 455 1506T707 1589Q870 1589 958 1508T1049 1278ZM1268 1063V121H1419V0H913V150Q850 55 768 13T561 -29Q382
-29 291 76T199 387V942H47V1063H553V442Q553 244 586 191T707 137Q814 137 863 216T913 467V942H784V1063H1268Z" />
<glyph unicode="&#x218;" glyph-name="Scommaaccent" horiz-adv-x="1479" d="M158 72V426H285Q314 258 422 175T721 92Q876 92 957 151T1038 324Q1038 414 983 464T756 557L532 612Q313 668 224 767T135 1051Q135 1273 282 1396T696 1520Q827 1520 968 1498T1262
1432V1102H1135Q1106 1256 1008 1327T729 1399Q581 1399 506 1348T430 1194Q430 1101 482 1053T737 952L961 897Q1169 845 1262 735T1356 432Q1356 206 1200 89T741 -29Q595 -29 451 -4T158 72ZM510 -400Q588 -358 625 -306T662 -185V-142H876V-146Q876 -257 806
-336Q737 -416 593 -471L510 -400Z" />
<glyph unicode="&#x219;" glyph-name="scommaaccent" horiz-adv-x="1153" d="M96 31V328H209Q223 209 298 147T502 84Q610 84 667 121T725 229Q725 293 689 328T547 389L401 426Q236 467 162 543T88 750Q88 923 208 1007T578 1092Q672 1092 778 1077T1014 1028V760H901Q892
869 824 924T627 979Q519 979 464 945T408 844Q408 790 440 759T555 707L700 670Q909 617 989 539T1069 322Q1069 142 941 57T541 -29Q442 -29 331 -14T96 31ZM318 -400Q396 -358 433 -306T470 -185V-142H684V-146Q684 -257 614 -336Q545 -416 401 -471L318 -400Z"
/>
<glyph unicode="&#x21a;" glyph-name="uni021A" horiz-adv-x="1524" d="M527 -400Q605 -358 642 -306T679 -185V-142H893V-146Q893 -257 823 -336Q754 -416 610 -471L527 -400ZM371 0V121H569V1356H160V1120H23V1493H1503V1120H1368V1356H956V121H1155V0H371Z" />
<glyph unicode="&#x21b;" glyph-name="uni021B" horiz-adv-x="946" d="M318 -400Q396 -358 433 -306T470 -185V-142H684V-146Q684 -257 614 -336Q545 -416 401 -471L318 -400ZM203 942H49V1063H203V1393H557V1063H852V942H557V291Q557 152 579 118T659 84Q723
84 754 127T787 260H936Q927 100 849 36T578 -29Q359 -29 281 39T203 291V942Z" />
<glyph unicode="&#x21c;" glyph-name="uni021C" horiz-adv-x="1414" d="M264 1024H137V1391Q297 1456 409 1487T676 1520Q921 1523 1074 1411T1227 1133T1151 857T944 674Q1091 655 1176 541T1262 311Q1262 132 1023 -46Q863 -165 604 -277T137 -430V-301Q255
-274 492 -145Q842 46 842 278Q842 389 779 456Q670 573 518 495L310 388V519L523 657Q673 754 732 850Q801 961 801 1110T732 1330Q644 1417 566 1399Q329 1344 264 1024Z" />
<glyph unicode="&#x21d;" glyph-name="uni021D" horiz-adv-x="1244" d="M499 973Q385 973 307 908T213 707H101V1002Q338 1087 572 1087T944 987T1082 773Q1082 569 828 441Q961 426 1037 334T1114 147Q1114 -82 477 -326Q286 -399 101 -433V-320Q249 -286 407
-208Q728 -51 728 104Q728 199 672 254T544 310Q483 310 441 295L257 230V343L444 430Q551 480 628 585Q691 671 691 758Q691 864 633 916Q571 973 499 973Z" />
<glyph unicode="&#x21e;" glyph-name="uni021E" horiz-adv-x="1935" d="M813 1635L590 1899H754L967 1737L1180 1899H1344L1121 1635H813ZM96 0V121H287V1372H96V1493H864V1372H672V870H1266V1372H1075V1493H1843V1372H1651V121H1843V0H1075V121H1266V733H672V121H864V0H96Z"
/>
<glyph unicode="&#x21f;" glyph-name="uni021F" horiz-adv-x="1489" d="M176 1635L-47 1899H117L330 1737L543 1899H707L484 1635H176ZM70 0V121H221V1436H63V1556H575V913Q639 1008 721 1050T928 1092Q1107 1092 1198 987T1290 676V121H1442V0H807V121H936V686Q936
821 902 873T782 926Q675 926 625 848T575 598V121H705V0H70Z" />
<glyph unicode="&#x220;" glyph-name="uni0220" horiz-adv-x="1786" d="M70 0V121H260V1372H109V1493H647V1339Q728 1436 831 1479Q933 1521 1093 1521Q1319 1521 1434 1380T1550 965V-305H1741V-426H975V-305H1165V927Q1165 1176 1116 1273T944 1370Q793 1370
719 1243Q647 1121 647 841V121H838V0H70Z" />
<glyph unicode="&#x221;" glyph-name="uni0221" horiz-adv-x="1619" d="M805 42Q799 33 758 12Q681 -29 569 -29Q343 -29 214 121T84 532Q84 794 213 943T569 1092Q681 1092 757 1052T879 928V1436H727V1556H1233V393L1322 395Q1368 395 1432 384Q1583 358 1583
195Q1583 -27 1235 -30Q1096 -31 994 52Q972 71 973 75Q948 52 930 24Q902 -20 890 -99H780Q780 -21 805 42ZM1233 303V299Q1233 175 1261 129Q1279 102 1319 99Q1451 92 1451 180Q1451 307 1268 305Q1251 305 1233 303ZM879 479V584Q879 770 831 853T678 936Q568
936 524 849T479 532T524 215T678 127Q783 127 831 210T879 479Z" />
<glyph unicode="&#x224;" glyph-name="uni0224" horiz-adv-x="1495" d="M76 0V141L967 1356H252V1133H115V1493H1411V1352L530 137H1136H1421V111Q1421 -110 1329 -269T1044 -538L934 -397Q1045 -307 1087 -209Q1130 -109 1135 0H76Z" />
<glyph unicode="&#x225;" glyph-name="uni0225" horiz-adv-x="1163" d="M72 0V121L682 946H223V764H104V1063H1094V944L483 119H809H1094V111Q1094 -110 1002 -269T717 -538L607 -397Q711 -313 760 -209Q803 -118 808 0H72Z" />
<glyph unicode="&#x226;" glyph-name="uni0226" horiz-adv-x="1589" d="M625 1776Q625 1836 668 1879T772 1923Q832 1923 875 1880T919 1776Q919 1716 876 1673T772 1630Q712 1630 669 1673T625 1776ZM-16 0V121H106L668 1493H907L1470 121H1612V0H913V121H1059L936
426H375L250 121H428V0H-16ZM424 547H887L657 1118L424 547Z" />
<glyph unicode="&#x227;" glyph-name="uni0227" horiz-adv-x="1327" d="M453 1468Q453 1528 496 1571T600 1614T703 1571T747 1468Q747 1409 704 1365T600 1321T497 1365T453 1468ZM1128 653V121H1280V0H774V135Q704 51 618 11T422 -29Q259 -29 172 58T84 309Q84
488 209 577T588 666H774V729Q774 858 713 919T524 981Q418 981 361 938T279 795H166V1024Q261 1058 363 1075T578 1092Q863 1092 995 986T1128 653ZM774 334V547H641Q542 547 489 493T436 338Q436 237 474 187T592 137Q674 137 724 191T774 334Z" />
<glyph unicode="&#x228;" glyph-name="uni0228" horiz-adv-x="1561" d="M886 0Q948 -64 977 -118T1007 -225Q1007 -311 943 -356T757 -401Q709 -401 658 -395T555 -375L554 -219Q599 -236 641 -245T720 -254Q780 -254 811 -231T843 -162Q843 -134 827 -101T759
0H886ZM96 0V121H287V1372H96V1493H1438V1141H1300V1356H672V877H1063V1067H1200V551H1063V741H672V137H1319V352H1456V0H96Z" />
<glyph unicode="&#x229;" glyph-name="uni0229" horiz-adv-x="1303" d="M721 0Q783 -64 812 -118T842 -225Q842 -311 778 -356T592 -401Q544 -401 493 -395T390 -375L389 -219Q434 -236 476 -245T555 -254Q615 -254 646 -231T678 -162Q678 -134 662 -101T594 0H721ZM821
600Q821 810 782 894T649 979Q558 979 519 896T479 618V600H821ZM1210 481H479V473Q479 267 541 176T741 84Q856 84 927 145T1018 322H1184Q1141 141 1013 56T655 -29Q379 -29 232 116T84 532Q84 796 235 944T655 1092Q919 1092 1060 937T1210 481Z" />
<glyph unicode="&#x22a;" glyph-name="uni022A" horiz-adv-x="1784" d="M578 2244H1208V2056H578V2244ZM891 92Q1082 92 1175 253T1268 745Q1268 1077 1175 1238T891 1399Q701 1399 608 1237T514 745Q514 417 607 255T891 92ZM891 -29Q514 -29 300 177T86 745Q86
1107 300 1313T891 1520Q1268 1520 1482 1314T1696 745Q1696 383 1482 177T891 -29ZM522 1776Q522 1836 566 1879T670 1923Q729 1923 772 1880T815 1776Q815 1716 773 1673T670 1630Q610 1630 566 1673T522 1776ZM969 1776Q969 1836 1012 1879T1116 1923Q1176 1923
1220 1880T1264 1776Q1264 1716 1220 1673T1116 1630Q1056 1630 1013 1673T969 1776Z" />
<glyph unicode="&#x22b;" glyph-name="uni022B" horiz-adv-x="1366" d="M369 1872H999V1684H369V1872ZM684 84Q796 84 841 180T887 532Q887 788 842 883T684 979Q571 979 525 883T479 532Q479 278 525 181T684 84ZM684 -29Q403 -29 244 120T84 532Q84 795 243
943T684 1092Q966 1092 1125 944T1284 532Q1284 270 1125 121T684 -29ZM313 1468Q313 1528 357 1571T461 1614Q521 1614 563 1571T606 1468Q606 1408 563 1365T461 1321Q401 1321 357 1365T313 1468ZM760 1468Q760 1528 803 1571T907 1614Q967 1614 1011 1571T1055
1468Q1055 1409 1011 1365T907 1321Q847 1321 804 1365T760 1468Z" />
<glyph unicode="&#x22c;" glyph-name="uni022C" horiz-adv-x="1784" d="M578 2244H1208V2056H578V2244ZM891 92Q1082 92 1175 253T1268 745Q1268 1077 1175 1238T891 1399Q701 1399 608 1237T514 745Q514 417 607 255T891 92ZM891 -29Q514 -29 300 177T86 745Q86
1107 300 1313T891 1520Q1268 1520 1482 1314T1696 745Q1696 383 1482 177T891 -29ZM535 1635V1647Q535 1770 589 1836T743 1903Q804 1903 884 1864Q893 1860 897 1858L969 1825Q997 1812 1015 1808T1051 1803Q1092 1803 1116 1828T1141 1897V1901H1251V1886Q1251
1764 1198 1699T1043 1633Q1009 1633 976 1642T889 1678L832 1706Q805 1719 780 1726T735 1733Q694 1733 670 1708T645 1639V1635H535Z" />
<glyph unicode="&#x22d;" glyph-name="uni022D" horiz-adv-x="1366" d="M369 1872H999V1684H369V1872ZM684 84Q796 84 841 180T887 532Q887 788 842 883T684 979Q571 979 525 883T479 532Q479 278 525 181T684 84ZM684 -29Q403 -29 244 120T84 532Q84 795 243
943T684 1092Q966 1092 1125 944T1284 532Q1284 270 1125 121T684 -29ZM326 1309V1325Q326 1471 379 1546T534 1622Q571 1622 606 1610T688 1567L759 1520L762 1518Q806 1489 842 1489Q883 1489 907 1524T932 1620H1042V1604Q1042 1458 989 1383T834 1307Q797 1307
762 1319T680 1362L608 1409L607 1410Q562 1440 526 1440Q485 1440 461 1405T436 1309H326Z" />
<glyph unicode="&#x22e;" glyph-name="uni022E" horiz-adv-x="1784" d="M744 1776Q744 1836 787 1879T891 1923Q951 1923 994 1880T1038 1776Q1038 1716 995 1673T891 1630Q831 1630 788 1673T744 1776ZM891 92Q1082 92 1175 253T1268 745Q1268 1077 1175 1238T891
1399Q701 1399 608 1237T514 745Q514 417 607 255T891 92ZM891 -29Q514 -29 300 177T86 745Q86 1107 300 1313T891 1520Q1268 1520 1482 1314T1696 745Q1696 383 1482 177T891 -29Z" />
<glyph unicode="&#x22f;" glyph-name="uni022F" horiz-adv-x="1366" d="M537 1468Q537 1528 580 1571T684 1614T787 1571T831 1468Q831 1409 788 1365T684 1321T581 1365T537 1468ZM684 84Q796 84 841 180T887 532Q887 788 842 883T684 979Q571 979 525 883T479
532Q479 278 525 181T684 84ZM684 -29Q403 -29 244 120T84 532Q84 795 243 943T684 1092Q966 1092 1125 944T1284 532Q1284 270 1125 121T684 -29Z" />
<glyph unicode="&#x230;" glyph-name="uni0230" horiz-adv-x="1784" d="M578 2244H1208V2056H578V2244ZM746 1841Q746 1901 789 1944T893 1987T996 1944T1040 1841Q1040 1782 997 1738T893 1694T790 1738T746 1841ZM891 92Q1082 92 1175 253T1268 745Q1268 1077
1175 1238T891 1399Q701 1399 608 1237T514 745Q514 417 607 255T891 92ZM891 -29Q514 -29 300 177T86 745Q86 1107 300 1313T891 1520Q1268 1520 1482 1314T1696 745Q1696 383 1482 177T891 -29Z" />
<glyph unicode="&#x231;" glyph-name="uni0231" horiz-adv-x="1366" d="M369 1872H999V1684H369V1872ZM537 1468Q537 1528 580 1571T684 1614T787 1571T831 1468Q831 1409 788 1365T684 1321T581 1365T537 1468ZM684 84Q796 84 841 180T887 532Q887 788 842 883T684
979Q571 979 525 883T479 532Q479 278 525 181T684 84ZM684 -29Q403 -29 244 120T84 532Q84 795 243 943T684 1092Q966 1092 1125 944T1284 532Q1284 270 1125 121T684 -29Z" />
<glyph unicode="&#x232;" glyph-name="uni0232" horiz-adv-x="1462" d="M491 1872H1121V1684H491V1872ZM352 0V121H553V618L109 1372H-18V1493H698V1372H532L868 803L1202 1372H1053V1493H1481V1372H1354L940 670V121H1141V0H352Z" />
<glyph unicode="&#x233;" glyph-name="uni0233" horiz-adv-x="1190" d="M291 1562H921V1374H291V1562ZM639 -240Q591 -357 523 -406T340 -455Q291 -455 231 -444T100 -412V-190L213 -191Q216 -268 249 -305T350 -342Q415 -342 455 -307T535 -172L551 -135L88 942H-27V1063H586V942H459L729
313L981 942H840V1063H1239V942H1110L639 -240Z" />
<glyph unicode="&#x234;" glyph-name="uni0234" horiz-adv-x="1174" d="M639 222Q732 69 888 70Q1026 69 1026 176Q1026 301 936 300Q681 298 639 222ZM575 524Q575 430 602 316Q750 390 930 390Q1138 390 1138 172Q1138 -38 802 -41Q621 -43 490 30Q479 -2 480
-87V-231H343L344 -87Q348 14 377 93Q354 112 354 112Q221 266 221 524V1436H70V1556H575V524Z" />
<glyph unicode="&#x235;" glyph-name="uni0235" horiz-adv-x="1889" d="M1354 222Q1447 69 1603 70Q1741 69 1741 176Q1741 301 1651 300Q1396 298 1354 222ZM1290 524Q1290 430 1317 316Q1465 390 1645 390Q1853 390 1853 172Q1853 -38 1517 -41Q1336 -43 1205
30Q1194 -2 1195 -87V-231H1058L1059 -87Q1063 14 1092 93Q1069 112 1069 112Q936 266 936 524V686Q936 821 902 873T782 926Q675 926 625 848T575 598V121H705V0H70V121H221V942H70V1063H575V913Q639 1008 721 1050T928 1092Q1107 1092 1198 987T1290 676V524Z"
/>
<glyph unicode="&#x236;" glyph-name="uni0236" horiz-adv-x="1156" d="M621 222Q714 69 870 70Q1008 69 1008 176Q1008 301 918 300Q663 298 621 222ZM203 520V942H49V1063H203V1393H557V1063H852V942H557V520Q557 430 584 316Q732 390 912 390Q1120 390 1120
172Q1120 -38 784 -41Q603 -43 472 30Q461 -2 462 -87V-231H325L326 -87Q330 14 359 93Q336 112 336 112Q203 266 203 520Z" />
<glyph unicode="&#x237;" glyph-name="dotlessj" horiz-adv-x="741" d="M219 942H68V1063H573V-125Q573 -288 458 -371T117 -455Q57 -455 -11 -445T-152 -416V-190L-39 -191Q-37 -271 -8 -306T88 -342Q161 -342 190 -295T219 -125V942Z" />
<glyph unicode="&#x238;" glyph-name="uni0238" horiz-adv-x="2112" d="M1233 479Q1233 293 1280 210T1434 127Q1543 127 1587 215T1632 532T1588 848T1434 936Q1328 936 1281 853T1233 584V479ZM879 121V135Q834 52 758 12T569 -29Q343 -29 214 121T84 532Q84
794 213 943T569 1092Q681 1092 757 1052T879 928V1436H727V1556H1233V928Q1278 1011 1354 1051T1542 1092Q1769 1092 1899 943T2030 532T1900 121T1542 -29Q1430 -29 1354 11T1233 135V121V0H879V121ZM879 479V584Q879 770 831 853T678 936Q568 936 524 849T479
532T524 215T678 127Q783 127 831 210T879 479Z" />
<glyph unicode="&#x239;" glyph-name="uni0239" horiz-adv-x="2112" d="M1233 942V928Q1278 1011 1354 1051T1543 1092Q1769 1092 1898 942T2028 531Q2028 269 1899 120T1543 -29Q1431 -29 1355 11T1233 135V-305H1385V-425L727 -426V-305H879V135Q834 52 758
12T570 -29Q343 -29 213 120T82 531T212 942T570 1092Q682 1092 758 1052T879 928V942V1063H1233V942ZM879 584Q879 770 831 853T678 936Q568 936 524 849T479 532T524 215T678 127Q783 127 831 210T879 479V584ZM1233 584V479Q1233 293 1280 210T1434 127Q1543
127 1587 215T1632 532T1588 848T1434 936Q1328 936 1281 853T1233 584Z" />
<glyph unicode="&#x23a;" glyph-name="uni023A" horiz-adv-x="1589" d="M62 -78L-28 12L-16 25V121H80L124 164L668 1493H907L1066 1107L1528 1569L1618 1479L1118 979L1470 121H1612V0H913V121H1059L936 426H565L260 121H428V0H139L62 -78ZM778 819L657 1118L424
547H506L778 819ZM686 547H887L829 690L686 547ZM368 409L385 426H375L368 409Z" />
<glyph unicode="&#x23b;" glyph-name="uni023B" horiz-adv-x="1630" d="M82 -78L-8 12L236 256Q86 450 86 745Q86 1103 305 1311T903 1520Q1036 1520 1180 1488Q1286 1464 1402 1423L1548 1569L1638 1479L1485 1326V1024H1358Q1343 1098 1317 1158L556 396Q580
312 620 252Q726 92 946 92Q1095 92 1189 175T1327 426H1526Q1467 195 1314 83T903 -29Q540 -29 323 163L82 -78ZM525 546L1250 1270Q1234 1289 1216 1306Q1113 1399 944 1399Q726 1399 620 1239T514 745Q514 636 525 546Z" />
<glyph unicode="&#x23c;" glyph-name="uni023C" horiz-adv-x="1247" d="M1155 332Q1117 150 1000 61T680 -29Q422 -29 270 92L76 -102L-8 -16L186 178Q84 316 84 532Q84 796 238 944T666 1092Q777 1092 890 1071Q965 1057 1042 1034L1170 1161L1256 1075L1120
940V713H1008Q1002 766 988 808L496 317Q511 237 540 188Q601 84 739 84Q846 84 910 148T989 332H1155ZM925 917Q863 979 752 979Q604 979 542 879T479 532Q479 501 480 472L925 917Z" />
<glyph unicode="&#x23d;" glyph-name="uni023D" horiz-adv-x="1440" d="M96 0V121H287V659H38V851H287V1372H96V1493H864V1372H672V851H920V659H672V137H1260V373H1395V0H96Z" />
<glyph unicode="&#x23e;" glyph-name="uni023E" horiz-adv-x="1524" d="M1155 0H371V121H570V461L31 -78L-59 12L570 641V1356H158V1120H23V1493H1421L1497 1569L1587 1479L1503 1395V1120H1366V1258L957 849V121H1155V0ZM1284 1356H957V1029L1284 1356Z" />
<glyph unicode="&#x23f;" glyph-name="uni023F" horiz-adv-x="1153" d="M1014 -402Q887 -440 777 -444Q742 -445 672 -445Q539 -445 444 -386Q343 -324 306 -230L224 -24Q216 -3 195 9Q163 15 130 23Q113 26 96 31V328H209Q231 140 399 96Q446 86 502 84Q695 84
721 197Q725 212 725 229Q725 310 662 347Q625 369 547 389L401 426Q235 468 162 544Q88 620 88 750Q88 996 333 1064Q434 1092 578 1092Q764 1092 1014 1028V760H901Q883 979 627 979Q419 979 409 856Q408 850 408 844Q408 771 471 737Q502 721 555 707L700 670Q906
617 987 540Q1069 461 1069 322Q1069 112 893 30Q777 -24 581 -29Q587 -40 592 -52L636 -162Q675 -260 716 -296Q756 -332 822 -332Q831 -332 864 -295T901 -181L1014 -180V-402Z" />
<glyph unicode="&#x240;" glyph-name="uni0240" horiz-adv-x="1163" d="M274 0H72V121L682 946H223V764H104V1063H1094V944L483 119Q671 120 731 -34L785 -172Q823 -269 865 -306Q905 -342 971 -342Q980 -342 1013 -305T1050 -191L1163 -190V-412Q1092 -433 1032
-444T821 -455Q688 -455 593 -396Q493 -334 455 -240L376 -44Q357 0 274 0Z" />
<glyph unicode="&#x241;" glyph-name="uni0241" horiz-adv-x="1352" d="M365 1372Q262 1372 240 1344Q213 1311 209 1229H96V1427Q158 1461 227 1477T365 1493H758Q1007 1493 1154 1375T1301 1057T1154 739T758 619H719V121H960V0H143V121H334L335 740H596Q726
740 803 826T881 1057Q881 1201 804 1286T596 1372H365Z" />
<glyph unicode="&#x242;" glyph-name="uni0242" horiz-adv-x="1121" d="M365 339Q495 339 572 425T650 656Q650 800 573 885T365 971Q262 971 240 944Q213 910 209 828H96V1026Q158 1060 227 1076T365 1092H527Q776 1092 923 974T1070 656T922 338Q837 269 719
239V121H960V0H173V121H364L365 339Z" />
<glyph unicode="&#x245;" glyph-name="uni0245" horiz-adv-x="1589" d="M250 121H428V0H-16V121H106L668 1493H907L1470 121H1612V0H913V121H1059L657 1118L250 121Z" />
<glyph unicode="&#x250;" glyph-name="uni0250" horiz-adv-x="1327" d="M236 410V942H84V1063H590V928Q660 1012 746 1052T942 1092Q1105 1092 1192 1005T1280 754Q1280 575 1155 486T776 397H590V334Q590 205 651 144T840 82Q946 82 1003 125T1085 268H1198V39Q1103
5 1001 -12T786 -29Q501 -29 369 77T236 410ZM590 729V516H723Q822 516 875 570T928 725T890 876T772 926Q690 926 640 872T590 729Z" />
<glyph unicode="&#x251;" glyph-name="uni0251" horiz-adv-x="1432" d="M879 479V584Q879 770 831 853T678 936Q568 936 524 849T479 532T524 215T678 127Q783 127 831 210T879 479ZM879 1064H1384V943H1233V121H1384V0H879V135Q834 52 758 12T569 -29Q343 -29
214 121T84 532Q84 794 213 943T569 1092Q681 1092 757 1052T879 928V944V1064Z" />
<glyph unicode="&#x252;" glyph-name="uni0252" horiz-adv-x="1432" d="M589 584V479Q589 293 637 210T790 127Q900 127 944 214T989 531T944 848T790 936Q685 936 637 853T589 584ZM589 -1H84V120H235V942H84V1063H589V928Q634 1011 710 1051T899 1092Q1125 1092
1254 942T1384 531Q1384 269 1255 120T899 -29Q787 -29 711 11T589 135V119V-1Z" />
<glyph unicode="&#x253;" glyph-name="uni0253" horiz-adv-x="1432" d="M553 479Q553 293 600 210T754 127Q863 127 907 215T952 532T908 848T754 936Q648 936 601 853T553 584V479ZM199 121V1164H200V1226Q200 1389 315 1472T656 1556Q716 1556 784 1546T925
1517V1292H812Q810 1372 781 1407T685 1443Q612 1443 583 1396T554 1226V930Q599 1011 674 1052Q750 1092 862 1092Q1089 1092 1219 943T1350 532T1220 121T862 -29Q750 -29 674 11T553 135V0H47V121H199Z" />
<glyph unicode="&#x254;" glyph-name="uni0254" horiz-adv-x="1247" d="M84 731Q122 913 239 1002T559 1092Q843 1092 999 945T1155 531Q1155 267 1001 119T573 -29Q462 -29 349 -8T119 55V350H231Q247 215 310 150T487 84Q635 84 697 184T760 531Q760 772 699
875T500 979Q393 979 329 915T250 731H84Z" />
<glyph unicode="&#x255;" glyph-name="uni0255" horiz-adv-x="1247" d="M531 222Q623 71 780 70Q1032 69 1032 186Q1032 302 828 300Q573 298 531 222ZM494 316Q638 388 882 390Q1150 390 1145 158Q1141 -41 694 -41Q510 -41 382 30Q371 -2 372 -87V-231H235L236
-87Q240 14 269 93Q257 103 246 112Q77 266 77 520Q77 775 246 928Q415 1080 694 1080Q855 1080 943 1056Q1031 1033 1120 985V713H1025Q1007 853 945 917Q883 981 768 981Q619 981 543 866Q465 746 467 520Q468 426 494 316Z" />
<glyph unicode="&#x256;" glyph-name="uni0256" horiz-adv-x="1432" d="M879 479V584Q879 770 831 853T678 936Q568 936 524 849T479 532T524 215T678 127Q783 127 831 210T879 479ZM878 133Q833 52 758 12Q681 -29 569 -29Q343 -29 214 121T84 532Q84 794 213
943T569 1092Q681 1092 757 1052T879 928V1436H727V1556H1233V0H1232V-125Q1232 -248 1261 -295T1363 -342Q1429 -342 1458 -307T1490 -191H1603V-416Q1530 -435 1462 -445T1334 -455Q1109 -455 994 -372T878 -125V133Z" />
<glyph unicode="&#x257;" glyph-name="uni0257" horiz-adv-x="1495" d="M1233 121H1384V0H879V135Q834 52 758 12T569 -29Q343 -29 214 121T84 532Q84 794 213 943T569 1092Q681 1092 757 1052T879 928V1116H880V1226Q880 1389 995 1472T1336 1556Q1396 1556 1464
1546T1605 1517V1292H1492Q1490 1372 1461 1407T1365 1443Q1292 1443 1263 1396T1234 1226V816H1233V121ZM879 479V584Q879 770 831 853T678 936Q568 936 524 849T479 532T524 215T678 127Q783 127 831 210T879 479Z" />
<glyph unicode="&#x258;" glyph-name="uni0258" horiz-adv-x="1303" d="M473 600H815V618Q815 813 776 896T645 979Q551 979 512 895T473 600ZM84 481Q93 781 234 936T639 1092Q908 1092 1059 944T1210 532Q1210 262 1063 117T639 -29Q409 -29 281 56T110 322H276Q296
206 367 145T553 84Q691 84 753 175T815 473V481H84Z" />
<glyph unicode="&#x259;" glyph-name="uni0259" horiz-adv-x="1303" d="M473 463Q473 253 512 169T645 84Q736 84 775 167T815 445V463H473ZM84 582H815V590Q815 796 753 887T553 979Q438 979 367 918T276 741H110Q153 922 281 1007T639 1092Q915 1092 1062 947T1210
531Q1210 267 1059 119T639 -29Q375 -29 234 126T84 582Z" />
<glyph unicode="&#x25a;" glyph-name="uni025A" horiz-adv-x="1858" d="M815 606L474 409Q478 242 512 168Q551 84 645 84Q736 84 776 167Q815 249 815 445V606ZM805 738Q790 833 753 888Q691 979 553 979Q438 979 367 918T276 741H110Q153 922 281 1007T639 1092Q915
1092 1062 946Q1081 928 1098 907L1303 1025L1478 1022V979Q1478 885 1525 843Q1574 799 1633 799Q1732 799 1740 831L1858 679Q1781 631 1778 630Q1731 613 1636 613Q1520 613 1427 706Q1346 787 1335 907L1159 805Q1210 689 1210 531Q1210 267 1059 119T639 -29Q375
-29 234 126Q157 212 119 342L297 445L805 738Z" />
<glyph unicode="&#x25b;" glyph-name="uni025B" horiz-adv-x="1245" d="M155 826Q155 941 264 1010Q389 1090 646 1092Q900 1093 1105 1042V829H993Q982 898 908 939Q837 978 744 979Q621 979 556 930Q496 885 496 822Q496 753 553 707Q622 651 750 651H816V500H755Q606
500 516 430Q448 377 449 289Q450 210 512 156Q589 89 742 88Q893 87 977 168Q1017 206 1024 266H1135V32Q868 -25 669 -25Q445 -25 290 36Q100 111 99 283Q99 413 187 481Q290 562 431 576Q293 603 224 669T155 826Z" />
<glyph unicode="&#x25c;" glyph-name="uni025C" horiz-adv-x="1150" d="M1064 812Q1064 721 995 662T788 576Q929 562 1032 481Q1120 413 1120 283Q1119 111 929 36Q774 -25 550 -25Q351 -25 84 32V266H195Q202 206 242 168Q326 87 477 88Q630 89 707 156Q769
210 770 289Q771 377 703 430Q613 500 464 500H403V637H469Q597 637 666 693Q723 739 723 808Q723 871 663 916Q598 965 475 965Q382 964 311 925Q237 884 226 815H114V1028Q319 1079 573 1078Q830 1076 955 996Q1064 927 1064 812Z" />
<glyph unicode="&#x25d;" glyph-name="uni025D" horiz-adv-x="1858" d="M995 662Q926 603 788 576Q928 562 1032 481Q1120 412 1120 283Q1119 111 929 36Q774 -25 550 -25Q351 -25 84 32V266H195Q202 206 242 168Q327 87 477 88Q630 89 707 156Q769 210 770 289Q771
377 703 430Q613 500 464 500H403V637H469Q597 637 666 693Q723 739 723 808Q723 871 663 916Q598 965 475 965Q382 964 311 925Q237 884 226 815H114V1028Q319 1079 573 1078Q830 1076 955 996Q1046 938 1061 849L1302 1025L1477 1022V979Q1477 885 1524 843Q1573
799 1631 799Q1730 799 1739 831L1857 679Q1780 631 1777 630Q1730 613 1635 613Q1519 613 1426 706Q1345 787 1334 907L995 662Z" />
<glyph unicode="&#x25e;" glyph-name="uni025E" horiz-adv-x="1474" d="M791 70Q900 71 957 121Q1014 172 1014 268Q1014 341 944 405Q875 467 735 467H697V587H735Q873 587 944 651Q1014 713 1014 789Q1014 884 957 935Q899 987 791 987Q775 987 701 969Q664
960 600 923Q384 800 384 525Q384 273 600 127Q638 101 701 81Q735 70 791 70ZM819 1092Q1095 1092 1238 1015T1381 797Q1381 695 1280 624Q1177 552 995 528Q1177 504 1280 433Q1381 362 1381 259Q1381 118 1238 41T788 -36Q767 -36 624 -17Q565 -9 452 38Q84
192 84 528Q84 836 452 1018Q521 1052 624 1074Q708 1092 819 1092Z" />
<glyph unicode="&#x25f;" glyph-name="uni025F" horiz-adv-x="792" d="M219 942H68V1063H573V600H727V479H573V-125Q573 -288 458 -371T117 -455Q57 -455 -11 -445T-152 -416V-190L-39 -191Q-37 -271 -8 -306T88 -342Q161 -342 190 -295T219 -125V479H70V600H219V942Z" />
<glyph unicode="&#x260;" glyph-name="uni0260" horiz-adv-x="1432" d="M880 936H678Q568 936 524 849T479 532T524 215T678 127Q783 127 831 210T879 479V584L880 936ZM1233 816V14Q1233 -210 1074 -332T623 -455Q517 -455 408 -439T184 -389V-135H297Q312 -240
381 -291T580 -342Q744 -342 811 -264T879 14V135Q834 52 758 12T569 -29Q343 -29 214 121T84 532Q84 762 216 914Q346 1063 572 1063H880V1226Q880 1389 995 1472T1336 1556Q1396 1556 1464 1546T1605 1517V1292H1492Q1490 1372 1461 1407T1365 1443Q1292 1443
1263 1396T1234 1226V816H1233Z" />
<glyph unicode="&#x261;" glyph-name="uni0261" horiz-adv-x="1432" d="M572 1063H1384V942H1233V14Q1233 -210 1074 -332T623 -455Q517 -455 408 -439T184 -389V-135H297Q312 -240 381 -291T580 -342Q744 -342 811 -264T879 14V135Q834 52 758 12T569 -29Q343
-29 214 121T84 532Q84 762 216 914Q346 1063 572 1063ZM879 584L880 936H678Q568 936 524 849T479 532T524 215T678 127Q783 127 831 210T879 479V584Z" />
<glyph unicode="&#x262;" glyph-name="uni0262" horiz-adv-x="1283" d="M1006 720Q984 835 884 919Q812 980 735 980Q619 980 544 871Q468 762 468 527Q468 294 540 185Q613 75 721 75Q770 75 828 115L829 411H684V495H1168V98Q1051 44 935 17Q819 -9 698 -9Q432
-9 280 134Q128 278 128 527Q128 777 280 920Q432 1064 698 1064Q809 1064 916 1042Q1023 1019 1132 974V720H1006Z" />
<glyph unicode="&#x263;" glyph-name="uni0263" horiz-adv-x="1458" d="M701 305Q652 238 522 40Q440 -84 440 -183Q440 -235 477 -270Q509 -300 640 -300Q764 -300 825 -267Q885 -235 884 -180Q884 -78 828 54Q757 224 701 305ZM1224 -207Q1224 -328 1104 -390Q991
-448 669 -448Q454 -448 364 -372Q300 -319 300 -192Q300 -94 406 80Q508 248 640 404L245 942H126V1063H775V942H646L835 678L1023 942H892V1063H1306V942H1165L894 563Q1054 334 1140 120Q1224 -88 1224 -207Z" />
<glyph unicode="&#x264;" glyph-name="uni0264" horiz-adv-x="1285" d="M84 974Q84 1064 298 1064Q525 1064 784 692Q1078 1066 1168 1066Q1224 1066 1239 970L1238 818H1133V837Q1133 910 1114 910Q1086 910 848 588Q964 426 1025 312Q1096 182 1096 113Q1096
12 990 -46Q936 -76 657 -76Q417 -76 354 -36T291 104Q291 214 446 360Q516 426 566 465Q473 645 272 880Q242 915 224 915Q198 915 198 840V818H84V974ZM476 157Q476 122 498 103Q531 76 632 76Q694 76 717 117Q730 141 730 170Q730 207 696 261Q671 300 628 348Q622
339 556 280Q476 210 476 157Z" />
<glyph unicode="&#x265;" glyph-name="uni0265" horiz-adv-x="1489" d="M1268 1063V-306H1426V-426H914V150Q850 55 768 13T561 -29Q382 -29 291 76T199 387V942H47V1063H682V942H553V377Q553 242 587 190T707 137Q814 137 864 215T914 465V942H784V1063H1268Z" />
<glyph unicode="&#x266;" glyph-name="uni0266" horiz-adv-x="1489" d="M70 0V121H221V1086H222V1226Q222 1389 337 1472T678 1556Q738 1556 806 1546T947 1517V1292H834Q832 1372 803 1407T707 1443Q634 1443 605 1396T576 1226V914Q640 1008 721 1050Q803 1092
928 1092Q1107 1092 1198 987T1290 676V121H1442V0H807V121H936V686Q936 821 902 873T782 926Q675 926 625 848T575 598V121H705V0H70Z" />
<glyph unicode="&#x267;" glyph-name="uni0267" horiz-adv-x="1489" d="M70 0V121H221V1086H222V1226Q222 1389 337 1472T678 1556Q738 1556 806 1546T947 1517V1292H834Q832 1372 803 1407T707 1443Q634 1443 605 1396T576 1226V914Q640 1008 721 1050Q803 1092
928 1092Q1107 1092 1198 987T1290 676V285V121V0V-125Q1290 -288 1175 -371T834 -455Q774 -455 706 -445T565 -416V-191H678Q680 -271 709 -306T805 -342Q878 -342 907 -295T936 -125V0V121V285V686Q936 821 902 873T782 926Q675 926 625 848T575 598V121H705V0H70Z"
/>
<glyph unicode="&#x268;" glyph-name="uni0268" horiz-adv-x="778" d="M188 1364Q188 1445 244 1500T381 1556Q460 1556 515 1501T571 1364Q571 1285 516 1230T381 1174Q300 1174 244 1229T188 1364ZM575 121H727V0H70V121H221V479H70V600H221V942H70V1063H575V600H727V479H575V121Z"
/>
<glyph unicode="&#x269;" glyph-name="uni0269" horiz-adv-x="778" d="M221 337V942H74V1063H575V351Q575 220 617 160Q661 99 752 99V0H579Q393 0 318 48Q221 111 221 337Z" />
<glyph unicode="&#x26a;" glyph-name="uni026A" horiz-adv-x="778" d="M70 1063H727V942H576L575 121H727V0H70V121H221V942H70V1063Z" />
<glyph unicode="&#x26b;" glyph-name="uni026B" horiz-adv-x="837" d="M613 121H765V0H108V121H259V822Q223 819 200 787Q176 752 176 691H66V707Q66 853 119 928Q168 998 259 1004V1436H108V1556H613V877Q633 885 648 906Q672 941 672 1002H782V986Q782 840 729
764Q687 704 613 692V121Z" />
<glyph unicode="&#x26c;" glyph-name="uni026C" horiz-adv-x="1053" d="M826 121H978V0H321V121H472V657H315Q66 660 66 831Q66 1082 357 1082Q423 1082 472 1070V1436H321V1556H826V777H998V657H826V121ZM472 918Q462 991 351 978Q213 962 213 867Q213 771 327
777H472V918Z" />
<glyph unicode="&#x26d;" glyph-name="uni026D" horiz-adv-x="778" d="M221 1436H70V1556H575L576 285V-125Q576 -248 605 -295T707 -342Q773 -342 802 -307T834 -191H947V-416Q874 -435 806 -445T678 -455Q453 -455 338 -372T222 -125L221 1436Z" />
<glyph unicode="&#x26e;" glyph-name="uni026E" horiz-adv-x="1629" d="M1196 452Q1417 431 1528 347Q1688 226 1688 16Q1688 -193 1523 -304T1043 -416Q925 -416 800 -396T537 -336V-8H658Q669 -150 747 -224T963 -299Q1115 -299 1198 -215T1281 25Q1281 187
1195 275T949 363H883V588L1148 946H689V764H575V121H727V0H70V121H221V1436H70V1556H575V1063H1560V944L1196 452Z" />
<glyph unicode="&#x26f;" glyph-name="uni026F" horiz-adv-x="2167" d="M924 174Q850 68 764 20T563 -29Q380 -29 290 74T199 387V942H47V1063H680V942H553V440Q553 241 583 189T697 137Q791 137 843 209T895 416V942H768V1063H1376V942H1249V440Q1249 241 1280
189T1393 137Q1488 137 1540 209T1592 416V942H1465V1063H2097V942H1946V121H2097V0H1592V150Q1530 57 1450 14T1260 -29Q1130 -29 1049 20T924 174Z" />
<glyph unicode="&#x270;" glyph-name="uni0270" horiz-adv-x="2167" d="M924 174Q850 68 764 20T563 -29Q380 -29 290 74T199 387V942H47V1063H680V942H553V440Q553 241 583 189T697 137Q791 137 843 209T895 416V942H768V1063H1376V942H1249V440Q1249 241 1280
189T1393 137Q1488 137 1540 209T1592 416V942H1465V1063H2097V942H1946V-305H2097V-426H1592V150Q1530 57 1450 14T1260 -29Q1130 -29 1049 20T924 174Z" />
<glyph unicode="&#x271;" glyph-name="uni0271" horiz-adv-x="2167" d="M1243 889Q1317 995 1403 1043T1604 1092Q1787 1092 1877 989T1968 676V285V0V-125Q1968 -288 1853 -371T1512 -455Q1452 -455 1384 -445T1243 -416V-191H1356Q1358 -271 1387 -306T1483
-342Q1556 -342 1585 -295T1614 -125V0V285V623Q1614 822 1584 874T1470 926Q1376 926 1324 854T1272 647V121H1399V0H791V121H918V623Q918 822 887 874T774 926Q679 926 627 854T575 647V121H702V0H70V121H221V942H70V1063H575V913Q637 1006 717 1049T907 1092Q1037
1092 1118 1043T1243 889Z" />
<glyph unicode="&#x272;" glyph-name="uni0272" horiz-adv-x="1489" d="M221 942H70V1063H575V913Q639 1008 721 1050T928 1092Q1107 1092 1198 987T1290 676V121H1442V0H807V121H936V686Q936 821 902 873T782 926Q675 926 625 848T575 598V0H574V-125Q574 -288
459 -371T118 -455Q58 -455 -10 -445T-151 -416V-191H-38Q-36 -271 -7 -306T89 -342Q162 -342 191 -295T220 -125V285L221 942Z" />
<glyph unicode="&#x273;" glyph-name="uni0273" horiz-adv-x="1489" d="M70 0V121H221V942H70V1063H575V913Q639 1008 721 1050T928 1092Q1107 1092 1198 987T1290 676V0H1288V-125Q1288 -248 1317 -295T1419 -342Q1485 -342 1514 -307T1546 -191H1659V-416Q1586
-435 1518 -445T1390 -455Q1165 -455 1050 -372T934 -125V235Q935 261 936 285V686Q936 821 902 873T782 926Q675 926 625 848T575 598V121H705V0H70Z" />
<glyph unicode="&#x274;" glyph-name="uni0274" horiz-adv-x="1459" d="M128 0V122H265V938H128V1063H462L1073 439V938H970V1063H1344V938H1207V0H1020L398 635V122H501V0H128Z" />
<glyph unicode="&#x275;" glyph-name="uni0275" horiz-adv-x="1366" d="M965 -29T684 -29T244 120T84 532Q84 795 243 943T684 1092Q966 1092 1125 944T1284 532Q1284 270 1125 121ZM684 84Q796 84 842 180Q882 266 886 479H480Q484 268 525 181Q571 84 684 84ZM480
600H886Q881 801 842 884Q797 979 684 979T525 882Q485 800 480 600Z" />
<glyph unicode="&#x276;" glyph-name="uni0276" horiz-adv-x="2173" d="M1028 87V981H901Q817 981 734 924Q548 797 548 535Q548 290 722 144Q790 87 901 87H1028ZM2058 0H1033Q826 0 691 18T454 78Q297 139 213 258T128 535Q128 692 212 809T454 990Q554 1031
688 1049T1033 1068H2040V816H1903V970H1415V627H1665V763H1802V394H1665V530H1415V98H1921V252H2058V0Z" />
<glyph unicode="&#x277;" glyph-name="uni0277" horiz-adv-x="1534" d="M886 529V489Q886 369 925 263Q997 66 1027 66Q1118 66 1116 430Q1115 603 1060 772Q968 969 761 973Q561 977 465 772Q410 603 409 430Q409 66 498 66Q527 66 600 263Q639 369 639 489V529H886ZM761
272Q732 130 647 50Q562 -29 438 -29Q269 -29 176 83Q84 194 84 400Q84 479 107 560Q136 666 173 727Q391 1085 761 1085Q1134 1085 1352 727Q1390 666 1418 560Q1441 479 1441 400Q1441 194 1349 83Q1256 -29 1087 -29Q964 -29 878 50Q793 130 761 272Z" />
<glyph unicode="&#x278;" glyph-name="uni0278" horiz-adv-x="1366" d="M351 1556H1008V1435H813L812 1086Q1046 1061 1191 944Q1374 795 1374 532Q1374 270 1191 120Q1045 2 812 -23V-315H1008V-436H351V-315H546V-22Q320 4 177 120Q-6 270 -6 532Q-6 795 177
944Q320 1059 546 1085V1435H351V1556ZM546 113V950Q501 926 474 882Q413 786 413 532T474 181Q501 137 546 113ZM812 955V109Q863 133 892 180Q953 276 953 532T893 884Q864 931 812 955Z" />
<glyph unicode="&#x279;" glyph-name="uni0279" horiz-adv-x="1170" d="M59 -12V305H172Q178 220 218 179T334 137Q450 137 517 239T584 522V942H391V1063H1089V942H938V121H1100V0H584V189Q532 78 447 25T237 -29Q206 -29 162 -25T59 -12Z" />
<glyph unicode="&#x27a;" glyph-name="uni027A" horiz-adv-x="1170" d="M59 -12V305H172Q178 220 218 179T334 137Q450 137 517 239Q584 343 584 522V1436H391V1557H1089V1436H938V121H1100V0H584V189Q532 78 447 25T237 -29Q206 -29 162 -25T59 -12Z" />
<glyph unicode="&#x27b;" glyph-name="uni027B" horiz-adv-x="1170" d="M59 -12V305H172Q172 220 218 178Q258 137 334 137Q450 137 517 239T584 522V942H391V1063H1089V942H938V-125Q938 -248 968 -295Q997 -342 1070 -342Q1136 -342 1166 -306Q1195 -271 1197
-191H1310V-416Q1237 -435 1169 -445T1041 -455Q816 -455 700 -372Q585 -288 585 -125V0H584V189Q532 78 446 24Q361 -29 237 -29Q206 -29 162 -24Q117 -20 59 -12Z" />
<glyph unicode="&#x27c;" glyph-name="uni027C" horiz-adv-x="1079" d="M1100 1075V758H987Q981 843 941 884T825 926Q709 926 642 824Q575 720 575 541V-303H768V-424H70V-303H221V942H59V1063H575V874Q627 985 712 1038T922 1092Q953 1092 997 1088T1100 1075Z" />
<glyph unicode="&#x27d;" glyph-name="uni027D" horiz-adv-x="1079" d="M1100 1075V758H987Q981 843 941 884T825 926Q709 926 642 824T575 541V0V-125Q575 -248 604 -295T706 -342Q772 -342 801 -307T833 -191H946V-416Q873 -435 805 -445T677 -455Q452 -455
337 -372T221 -125V0V942H59V1063H575V874Q627 985 712 1038T922 1092Q953 1092 997 1088T1100 1075Z" />
<glyph unicode="&#x27e;" glyph-name="uni027E" horiz-adv-x="925" d="M575 121H768V0H70V121H221V762Q221 925 336 1008T677 1092Q737 1092 805 1082T946 1053V828H833Q831 908 802 943T706 979Q633 979 604 932Q575 883 575 762V121Z" />
<glyph unicode="&#x27f;" glyph-name="uni027F" horiz-adv-x="997" d="M441 121V762Q441 883 412 932Q383 979 310 979Q244 979 215 944T183 828H70V1053Q143 1072 211 1082T339 1092Q564 1092 679 1009T795 762V121H946V0H248V121H441Z" />
<glyph unicode="&#x280;" glyph-name="uni0280" horiz-adv-x="1640" d="M983 519Q1066 510 1121 477Q1177 444 1219 382L1364 121H1525V0H1072L889 321Q831 412 818 426T793 448Q759 469 745 472Q730 476 703 476H647V121H824V0H128V121H304V942H128V1063H855Q1036
1063 1150 1010Q1170 1001 1190 989Q1321 914 1321 777Q1321 666 1228 602Q1149 547 1057 529Q1024 523 983 519ZM647 597H768Q870 597 925 648Q989 708 989 770Q989 842 936 884Q897 916 849 932Q819 942 768 942H647V597Z" />
<glyph unicode="&#x281;" glyph-name="uni0281" horiz-adv-x="1640" d="M983 544Q1024 540 1057 534Q1149 516 1228 461Q1321 396 1321 286Q1321 149 1190 74Q1170 62 1150 53Q1036 0 855 0H128V121H304V942H128V1063H824V942H647V587H703Q730 587 745 591Q759
594 793 615Q805 622 818 636T889 742L1072 1063H1525V942H1364L1219 681Q1177 619 1121 586Q1066 553 983 544ZM647 466V121H768Q819 121 849 131Q897 147 936 179Q989 221 989 293Q989 355 925 415Q870 466 768 466H647Z" />
<glyph unicode="&#x282;" glyph-name="uni0282" horiz-adv-x="1153" d="M96 31V285V328H209Q223 209 298 147T502 84Q610 84 667 121T725 229Q725 293 689 328T547 389L401 426Q235 468 162 544Q88 620 88 750Q88 923 208 1007T578 1092Q672 1092 778 1077T1014
1028V760H901Q892 869 824 924T627 979Q519 979 464 945T408 844Q408 790 440 759Q472 728 555 707L700 670Q909 617 989 539Q1069 461 1069 322Q1069 142 941 57T541 -29Q497 -29 450 -26V-125Q450 -248 479 -295T581 -342Q647 -342 676 -307T708 -191H821V-416Q748
-435 680 -445T552 -455Q327 -455 212 -372T96 -125V31Z" />
<glyph unicode="&#x283;" glyph-name="uni0283" horiz-adv-x="678" d="M18 1196Q-9 1371 131 1464Q244 1556 463 1556Q548 1556 629 1547T788 1518V1290H676Q668 1368 631 1406T524 1444Q442 1444 408 1386Q353 1327 372 1200L573 -127Q595 -273 458 -374Q342
-457 117 -457Q57 -457 -11 -447T-152 -418V-192L-39 -193Q-37 -273 -8 -308T88 -344Q161 -344 190 -297Q234 -224 219 -127L18 1196Z" />
<glyph unicode="&#x284;" glyph-name="uni0284" horiz-adv-x="881" d="M221 1063V1196Q221 1373 334 1464T666 1556Q751 1556 832 1547T991 1518V1290H879Q871 1368 834 1406T727 1444Q646 1444 611 1386Q575 1327 575 1200V942H573V600H727V479H573V-125Q573
-288 458 -371T117 -455Q57 -455 -11 -445T-152 -416V-190L-39 -191Q-37 -271 -8 -306T88 -342Q161 -342 190 -295T219 -125V479H70V600H219V942H68H63V1063H68H221Z" />
<glyph unicode="&#x285;" glyph-name="uni0285" horiz-adv-x="1106" d="M854 720L653 -125Q632 -212 682 -295Q711 -342 784 -342Q850 -342 879 -307T911 -191L1024 -190V-416Q951 -435 883 -445T755 -455Q530 -455 414 -372Q266 -264 299 -125L500 724Q525 830
464 910Q421 968 348 968Q279 968 242 930T196 814H84V1042Q162 1061 243 1070T409 1080Q616 1080 741 988Q892 878 854 720Z" />
<glyph unicode="&#x286;" glyph-name="uni0286" horiz-adv-x="678" d="M753 -423H643Q631 -344 603 -300Q585 -272 560 -249Q532 -318 458 -374Q345 -457 216 -456Q-132 -453 -132 -231Q-132 -79 19 -42Q67 -31 130 -31Q168 -31 205 -33L18 1196Q-7 1363 131 1464Q256
1556 463 1556Q548 1556 629 1547T788 1518V1290H676Q668 1368 631 1406T524 1444Q451 1444 408 1386Q354 1316 372 1200L573 -127Q574 -131 574 -135Q670 -190 706 -253Q753 -334 753 -423ZM218 -123Q201 -121 184 -121Q0 -119 0 -246Q0 -334 132 -327Q161 -325
190 -297Q238 -251 219 -127L218 -123Z" />
<glyph unicode="&#x287;" glyph-name="uni0287" horiz-adv-x="1008" d="M803 121H957V0H803V-330H449V0H154V121H449V772Q449 911 427 945T347 979Q283 979 252 936T219 803H70Q79 963 157 1027T428 1092Q647 1092 725 1024T803 772V121Z" />
<glyph unicode="&#x288;" glyph-name="uni0288" horiz-adv-x="946" d="M203 942H49V1063H203V1393H557V1063H852V942H557V-125Q557 -248 586 -295T688 -342Q754 -342 783 -307T815 -191H928V-416Q855 -435 787 -445T659 -455Q434 -455 319 -372T203 -125V942Z" />
<glyph unicode="&#x289;" glyph-name="uni0289" horiz-adv-x="1489" d="M913 600V942H784V1063H1268V600H1408V479H1268V121H1419V0H913V150Q850 55 768 13T561 -29Q382 -29 291 76T199 387V479H70V600H199V942H47V1063H553V600H913ZM913 479H553V442Q553 244
586 191T707 137Q814 137 863 216T913 467V479Z" />
<glyph unicode="&#x28a;" glyph-name="uni028A" horiz-adv-x="1391" d="M1209 975H927Q1103 911 1206 782Q1310 652 1310 510Q1310 402 1261 303T1119 131Q1036 64 928 29Q819 -7 697 -7Q574 -7 467 28T276 131Q182 206 133 303Q84 400 84 510Q84 652 188 781Q291
911 468 975H85V1096H597V931Q566 910 513 782Q471 684 471 526Q471 341 533 229Q596 117 697 117T860 229Q923 341 923 526Q923 687 881 783Q828 904 798 931V1096H1209V975Z" />
<glyph unicode="&#x28b;" glyph-name="uni028B" horiz-adv-x="1421" d="M727 -3Q221 0 221 348V942H70V1063H575V346Q575 120 727 121Q828 121 891 233Q953 345 953 530Q953 691 911 787Q858 908 828 935V979H957Q1133 915 1236 786Q1340 656 1340 514Q1340 406
1290 307Q1241 208 1149 135Q1066 68 958 33Q849 -3 727 -3Z" />
<glyph unicode="&#x28c;" glyph-name="uni028C" horiz-adv-x="1313" d="M854 1063L1231 121H1348V0H738V121H867L598 793L330 121H469V0H70V121H193L570 1063H854Z" />
<glyph unicode="&#x28d;" glyph-name="uni028D" horiz-adv-x="1857" d="M770 0L528 709L328 121H467V0H70V121H195L516 1063H760L985 397L1212 1063H1454L1776 121H1892V0H1290V121H1415L1219 696L981 0H770Z" />
<glyph unicode="&#x28e;" glyph-name="uni028E" horiz-adv-x="1301" d="M670 1303Q718 1420 786 1469T969 1518Q1018 1518 1078 1507T1209 1475V1253L1096 1254Q1093 1331 1060 1368T959 1405Q894 1405 854 1370T774 1235L758 1198L1221 121H1336V0H723V121H850L580
750L328 121H469V0H70V121H199L670 1303Z" />
<glyph unicode="&#x28f;" glyph-name="uni028F" horiz-adv-x="1488" d="M371 0V121H572V403L255 944H128V1065H844V944H678L887 588L1094 944H945V1065H1373V944H1246L959 455V121H1160V0H371Z" />
<glyph unicode="&#x290;" glyph-name="uni0290" horiz-adv-x="1163" d="M72 0V121L682 946H223V764H104V1063H1094V944L483 119H1094V88H1096V-125Q1096 -248 1125 -295T1227 -342Q1293 -342 1322 -307T1354 -191H1467V-416Q1394 -435 1326 -445T1198 -455Q977
-455 858 -372Q742 -290 742 -125V0H72Z" />
<glyph unicode="&#x291;" glyph-name="uni0291" horiz-adv-x="1163" d="M654 1Q654 -18 654 -39V-183H517L518 -39Q519 -18 521 1L72 0V121L682 946H223V764H104V1063H1094V944L483 119H543Q546 131 551 141Q608 278 696 334Q839 426 980 384Q1092 350 1092 200Q1091
5 654 1ZM676 119H714Q967 119 980 204Q997 304 813 270Q724 253 676 119Z" />
<glyph unicode="&#x292;" glyph-name="uni0292" horiz-adv-x="1163" d="M730 452Q951 431 1062 347Q1222 226 1222 16Q1222 -193 1057 -304T577 -416Q459 -416 334 -396T71 -336V-8H192Q203 -150 281 -224T497 -299Q649 -299 732 -215T815 25Q815 187 729 275T483
363H417V588L682 946H223V764H104V1063H1094V944L730 452Z" />
<glyph unicode="&#x293;" glyph-name="uni0293" horiz-adv-x="1163" d="M577 -416Q229 -416 229 -191Q229 -18 425 5Q425 5 491 9Q676 9 811 -38Q815 -8 815 25Q815 187 729 275T483 363H417V588L682 946H223V764H104V1063H1094V944L730 452Q951 431 1062 347Q1222
226 1222 16Q1222 -167 1096 -275Q1114 -328 1114 -383H1004Q1000 -360 996 -339Q837 -416 577 -416ZM785 -135Q648 -82 545 -81Q361 -79 361 -206Q361 -299 497 -299Q649 -299 732 -214Q765 -181 785 -135Z" />
<glyph unicode="&#x294;" glyph-name="uni0294" horiz-adv-x="1098" d="M410 121V832H526Q599 832 630 862Q676 903 672 1116Q668 1350 643 1398Q618 1445 516 1445Q426 1445 398 1410Q370 1376 366 1294H253L256 1492Q318 1526 384 1542T522 1558Q782 1558 880
1465T978 1148Q978 911 880 826Q791 749 764 741V121H916V0H259V121H410Z" />
<glyph unicode="&#x295;" glyph-name="uni0295" horiz-adv-x="1098" d="M821 121H972V0H315V121H467V741Q440 749 351 826Q253 911 253 1148Q253 1372 351 1465T709 1558Q781 1558 847 1542T975 1492L978 1294H865Q861 1376 834 1410Q805 1445 715 1445Q613 1445
588 1398Q563 1350 559 1116Q555 903 601 862Q632 832 705 832H821V121Z" />
<glyph unicode="&#x296;" glyph-name="uni0296" horiz-adv-x="1098" d="M410 1437H259V1558H916V1437H764V817Q791 809 880 732Q978 647 978 410Q978 186 880 93T522 0Q450 0 384 16T256 66L253 264H366Q370 182 398 148Q426 113 516 113Q618 113 643 160Q668
208 672 442Q676 655 630 696Q599 726 526 726H410V1437Z" />
<glyph unicode="&#x297;" glyph-name="uni0297" horiz-adv-x="1116" d="M559 1116V-14Q559 -303 588 -296Q613 -343 715 -343Q805 -343 834 -308Q861 -274 865 -192H978L975 -390Q913 -424 847 -440T709 -456Q449 -456 351 -363T253 -46V1148Q253 1372 351 1465T709
1558Q781 1558 847 1542T975 1492L978 1294H865Q861 1376 834 1410Q805 1445 715 1445Q613 1445 588 1398Q559 1342 559 1116Z" />
<glyph unicode="&#x298;" glyph-name="uni0298" horiz-adv-x="1784" d="M760 745Q760 798 799 837Q837 876 891 876Q944 876 983 837Q1021 798 1021 745Q1021 691 983 653T891 615T799 653Q760 691 760 745ZM891 92Q1082 92 1175 253T1268 745Q1268 1077 1175
1238T891 1399Q701 1399 608 1237T514 745Q514 417 607 255T891 92ZM891 -29Q514 -29 300 177T86 745T300 1313T891 1520Q1268 1520 1482 1314T1696 745Q1696 383 1482 177T891 -29Z" />
<glyph unicode="&#x299;" glyph-name="uni0299" horiz-adv-x="1423" d="M575 121H665Q783 121 879 165T976 308Q976 401 888 450T665 499H575V121ZM575 654H654Q765 654 853 691T942 800Q942 868 858 905T654 942H575V654ZM70 0V121H221V942H70V1063H788Q1262
1063 1262 800Q1262 705 1176 649T942 580Q1124 566 1232 495T1341 308Q1341 150 1191 75T738 0H70Z" />
<glyph unicode="&#x29a;" glyph-name="uni029A" horiz-adv-x="1474" d="M674 70Q730 70 764 81Q827 101 865 127Q1081 273 1081 525Q1081 800 865 923Q801 960 764 969Q690 987 674 987Q566 987 508 935Q451 884 451 789Q451 713 521 651Q592 587 730 587H768V467H730Q590
467 521 405Q451 341 451 268Q451 172 508 121Q565 71 674 70ZM646 1092Q757 1092 841 1074Q944 1052 1013 1018Q1381 836 1381 528Q1381 192 1013 38Q900 -9 841 -17Q698 -36 677 -36Q370 -36 227 41T84 259Q84 362 185 433Q288 504 470 528Q288 552 185 624Q84
695 84 797Q84 938 227 1015T646 1092Z" />
<glyph unicode="&#x29b;" glyph-name="uni029B" horiz-adv-x="1283" d="M1006 720Q984 835 884 919Q812 980 735 980Q619 980 544 871Q468 762 468 527Q468 294 540 185Q613 75 721 75Q770 75 828 115L829 411H684V495H1168V98Q1051 44 935 17Q819 -9 698 -9Q432
-9 280 134Q128 278 128 527Q128 777 280 920Q433 1064 698 1064Q738 1064 778 1061V1226Q778 1389 893 1472T1234 1556Q1294 1556 1362 1546T1503 1517V1292H1390Q1388 1372 1359 1407T1263 1443Q1190 1443 1161 1396T1132 1226V974V816V720H1006Z" />
<glyph unicode="&#x29c;" glyph-name="uni029C" horiz-adv-x="1499" d="M70 0V121H221V942H70V1063H705V942H575V623H924V942H793V1063H1430V942H1278V121H1430V0H793V121H924V502H575V121H705V0H70Z" />
<glyph unicode="&#x29d;" glyph-name="uni029D" horiz-adv-x="786" d="M223 1364Q223 1445 279 1500T416 1556Q495 1556 550 1501T606 1364Q606 1285 551 1230T416 1174Q335 1174 279 1229T223 1364ZM599 -244Q571 -322 502 -372Q387 -456 261 -456Q-87 -456 -87
-231Q-87 -34 167 -31H175Q221 -31 264 -34V942H113V1063H618V-134Q798 -239 798 -423H688Q676 -344 652 -307T599 -244ZM264 -123Q246 -121 236 -121H223Q45 -121 45 -246Q45 -328 158 -328Q167 -328 186 -327T235 -297Q264 -269 264 -125V-123Z" />
<glyph unicode="&#x29e;" glyph-name="uni029E" horiz-adv-x="1516" d="M829 -426V-305H963V506L534 121H661V0H176V121H373L647 367L199 942H84V1063H694V942H569L864 563L963 651V1063H1468V942H1317V-306H1468V-426H829Z" />
<glyph unicode="&#x29f;" glyph-name="uni029F" horiz-adv-x="1322" d="M128 0V121H319V942H128V1063H896V942H704V137H1072V373H1207V0H128Z" />
<glyph unicode="&#x2a0;" glyph-name="uni02A0" horiz-adv-x="1432" d="M879 584Q879 770 831 853T678 936Q568 936 524 849T479 532T524 215T678 127Q783 127 831 210T879 479V584ZM1232 -305H1384V-426H715V-305H879V135Q834 52 758 12T569 -29Q343 -29 214
121T84 532Q84 794 213 943T569 1092Q681 1092 758 1052Q833 1011 878 930V1226Q878 1389 993 1472T1334 1556Q1394 1556 1462 1546T1603 1517V1292H1490Q1488 1372 1459 1407T1363 1443Q1290 1443 1261 1396T1232 1226V-305Z" />
</font>
</defs>
</svg>
