<?xml version="1.0" standalone="no"?> <!DOCTYPE svg PUBLIC "-//W3C//DTD SVG 1.0//EN" "http://www.w3.org/TR/2001/REC-SVG-20010904/DTD/svg10.dtd" > <svg xmlns="http://www.w3.org/2000/svg" width="100%" height="100%">
<defs >
<font id="DejaVuSerif-Italic" horiz-adv-x="1050" ><font-face
    font-family="DejaVu Serif"
    units-per-em="2048"
    panose-1="2 6 6 3 5 3 5 11 2 4"
    ascent="2513"
    descent="-710"
    alphabetic="0" />
<missing-glyph horiz-adv-x="1229" d="M102 -362V1444H1126V-362H102ZM217 -248H1012V1329H217V-248Z" />
<glyph unicode=" " glyph-name="space" horiz-adv-x="651" />
<glyph unicode="!" glyph-name="exclam" horiz-adv-x="823" d="M146 48T157 104T213 199T316 238Q371 238 402 199T423 104Q412 49 366 10T264 -29Q207 -29 177 9ZM431 1493H689L461 672L412 420H289L338 672L431 1493Z" />
<glyph unicode="&quot;" glyph-name="quotedbl" horiz-adv-x="942" d="M360 1493V938H201V1493H360ZM741 1493V938H582V1493H741Z" />
<glyph unicode="#" glyph-name="numbersign" horiz-adv-x="1716" d="M1042 901H760L676 567H961L1042 901ZM901 1470L799 1055H1081L1184 1470H1356L1251 1055H1559V901H1212L1130 567H1444V414H1092L989 0H817L922 414H639L535 0H365L467 414H158V567H506L588
901H272V1055H627L731 1470H901Z" />
<glyph unicode="$" glyph-name="dollar" horiz-adv-x="1303" d="M581 68Q696 78 766 133T855 283Q872 369 825 429T669 520L581 68ZM699 1187Q594 1180 527 1128T443 987Q427 907 469 854T617 768L699 1187ZM68 72L122 348H230Q207 211 269 141T481 68L576 553Q358
617 281 700T231 922Q262 1082 391 1179T718 1288L770 1556H870L818 1288Q918 1280 1006 1256T1176 1190L1125 928H1016Q1027 1044 971 1111T799 1187L711 735Q944 668 1025 582T1079 350Q1047 184 912 84T562 -31L510 -301H410L462 -31Q366 -29 268 -4T68 72Z"
/>
<glyph unicode="%" glyph-name="percent" horiz-adv-x="1946" d="M591 1427Q503 1427 438 1344T343 1112Q315 965 349 881T469 797Q554 797 619 880T714 1112T710 1343T591 1427ZM1479 694Q1392 694 1326 610T1231 377Q1203 230 1236 147T1356 63T1507 146T1601
377Q1630 525 1597 609T1479 694ZM1496 784Q1654 784 1726 674T1762 377T1610 81T1338 -29Q1178 -29 1107 80T1071 377Q1108 565 1222 674T1496 784ZM1515 1520H1667L431 -29H279L1515 1520ZM450 1520T608 1520T838 1411T875 1114Q838 925 724 816T450 707T220
816T185 1114Q221 1300 335 1410Z" />
<glyph unicode="&amp;" glyph-name="ampersand" horiz-adv-x="1823" d="M1006 231L543 844Q441 766 380 676T299 483Q291 440 291 401Q291 288 360 204Q453 92 625 92Q727 92 824 127T1006 231ZM1581 0H1180L1071 145Q949 57 822 14T556 -29Q298 -29 173 103Q80
201 80 350Q80 402 92 461Q118 594 216 709T490 926Q451 987 439 1048Q433 1077 433 1108Q433 1140 439 1174Q470 1333 603 1426T933 1520Q1000 1520 1086 1503T1280 1452L1230 1194H1117Q1118 1206 1118 1218Q1118 1307 1071 1357Q1018 1413 908 1413Q805 1413
730 1357T637 1210Q633 1189 633 1168Q633 1128 648 1088Q669 1030 756 915L1166 371Q1251 451 1308 543T1396 741L1417 848H1710L1689 741H1517Q1475 611 1404 498T1230 289L1367 106H1602L1581 0Z" />
<glyph unicode="&apos;" glyph-name="quotesingle" horiz-adv-x="563" d="M360 1493V938H201V1493H360Z" />
<glyph unicode="(" glyph-name="parenleft" horiz-adv-x="799" d="M471 -319Q249 -210 171 26T162 618Q231 974 401 1210T835 1556L816 1458Q642 1352 538 1160T365 618Q297 270 326 78T490 -221L471 -319Z" />
<glyph unicode=")" glyph-name="parenright" horiz-adv-x="799" d="M-37 -319L-18 -221Q156 -115 261 77T434 618Q502 967 472 1159T308 1458L327 1556Q550 1447 628 1211T637 618Q568 263 398 27T-37 -319Z" />
<glyph unicode="*" glyph-name="asterisk" horiz-adv-x="1024" d="M991 1237L600 1055L991 870L915 752L567 969L580 588H444L457 969L109 752L33 870L424 1053L33 1237L109 1356L457 1139L444 1520H580L567 1139L915 1356L991 1237Z" />
<glyph unicode="+" glyph-name="plus" horiz-adv-x="1716" d="M938 1284V723H1499V561H938V0H778V561H217V723H778V1284H938Z" />
<glyph unicode="," glyph-name="comma" horiz-adv-x="651" d="M40 -199Q148 -130 210 -37T298 190L305 227H502Q461 56 365 -66T105 -279L40 -199Z" />
<glyph unicode="-" glyph-name="hyphen" horiz-adv-x="692" d="M105 627H617L587 471H75L105 627Z" />
<glyph unicode="." glyph-name="period" horiz-adv-x="651" d="M182 48T193 104T249 199T352 238Q407 238 438 199T459 104Q448 49 402 10T300 -29Q243 -29 213 9Z" />
<glyph unicode="/" glyph-name="slash" horiz-adv-x="690" d="M694 1493H854L-4 -190H-164L694 1493Z" />
<glyph unicode="0" glyph-name="zero" horiz-adv-x="1303" d="M367 70T520 70T781 238T956 745Q1022 1085 979 1253T782 1421T521 1253T346 745Q280 406 323 238ZM500 -29Q257 -29 161 175T135 745Q206 1112 382 1316T802 1520Q1046 1520 1142 1316T1167 745Q1096
379 920 175T500 -29Z" />
<glyph unicode="1" glyph-name="one" horiz-adv-x="1303" d="M143 0L164 106H424L665 1348L326 1153L352 1284L762 1520H900L625 106H885L864 0H143Z" />
<glyph unicode="2" glyph-name="two" horiz-adv-x="1303" d="M335 1137H223L275 1403Q393 1460 507 1490T726 1520Q959 1520 1072 1407T1147 1100Q1105 881 739 576Q711 553 696 541L246 164H869L905 348H1022L954 0H-9L12 109L553 561Q732 711 820 836T936 1100Q965
1251 903 1336T703 1421Q560 1421 469 1350T335 1137Z" />
<glyph unicode="3" glyph-name="three" horiz-adv-x="1303" d="M332 1430Q458 1474 570 1497T776 1520Q995 1520 1099 1426T1171 1163Q1145 1028 1043 938T778 815Q956 789 1037 682T1084 403Q1044 194 882 83T455 -29Q338 -29 232 -4T25 72L81 362H193Q175 218
248 144T479 70Q632 70 737 158T873 401Q907 577 834 667T584 758H489L509 860H559Q734 860 835 932T966 1151Q991 1282 933 1351T739 1421T517 1357T393 1167H281L332 1430Z" />
<glyph unicode="4" glyph-name="four" horiz-adv-x="1303" d="M666 506L820 1300L156 506H666ZM1007 0H327L348 106H588L645 399H-7L14 508L865 1520H1063L866 506H1151L1130 399H845L788 106H1028L1007 0Z" />
<glyph unicode="5" glyph-name="five" horiz-adv-x="1303" d="M1178 1493L1146 1329H462L379 901Q438 937 511 955T670 973Q912 973 1026 839T1095 473Q1049 236 882 104T458 -29Q355 -29 252 -4T46 72L102 362H215Q196 220 263 145T477 70Q635 70 740 174T884
473Q921 667 857 770T634 874Q544 874 469 842T328 743H242L388 1493H1178Z" />
<glyph unicode="6" glyph-name="six" horiz-adv-x="1303" d="M398 70T539 70T776 173T909 471T892 768T695 872Q552 872 458 772T326 483Q287 284 342 177ZM359 822Q441 897 534 934T736 971Q959 971 1062 837T1121 471Q1077 244 911 108T511 -29Q258 -29 159
159T128 698Q204 1090 407 1305T903 1520Q982 1520 1066 1505T1235 1460L1187 1214H1074Q1082 1315 1027 1368T862 1421Q668 1421 545 1274T359 822Z" />
<glyph unicode="7" glyph-name="seven" horiz-adv-x="1303" d="M1280 1391L426 0H277L1092 1329H402L366 1145H249L317 1493H1300L1280 1391Z" />
<glyph unicode="8" glyph-name="eight" horiz-adv-x="1303" d="M888 408Q919 568 857 656T651 745T410 657T282 408Q251 247 313 159T520 70T760 158T888 408ZM988 1133Q1015 1269 961 1345T782 1421Q659 1421 575 1345T464 1133Q438 996 492 920T670 844Q794
844 878 920T988 1133ZM815 795Q980 772 1055 670T1099 408Q1059 198 904 85T500 -29Q253 -29 142 84T71 408Q102 567 217 669T508 795Q362 822 299 909T261 1133Q296 1313 440 1416T802 1520T1122 1417T1191 1133Q1165 997 1068 910T815 795Z" />
<glyph unicode="9" glyph-name="nine" horiz-adv-x="1303" d="M943 669Q862 594 768 557T564 520Q342 520 240 654T182 1020Q226 1247 392 1383T792 1520Q1045 1520 1143 1332T1174 793Q1098 401 895 186T400 -29Q321 -29 237 -14T68 31L116 279H228Q222 178 276
124T440 70Q634 70 757 216T943 669ZM764 1421Q622 1421 527 1318T394 1020T411 722T608 618T845 718T977 1008Q1016 1207 961 1314T764 1421Z" />
<glyph unicode=":" glyph-name="colon" horiz-adv-x="690" d="M139 48T150 104T207 199T309 238T396 199T416 104T360 10T257 -29T170 9ZM265 700T276 756T333 850T435 889Q492 889 522 851T542 756T486 661T384 623Q328 623 297 661Z" />
<glyph unicode=";" glyph-name="semicolon" horiz-adv-x="690" d="M-24 -199Q83 -130 145 -37T234 190L241 227H438Q397 56 301 -66T40 -279L-24 -199ZM294 700T305 756T362 850T464 889T550 850T571 756Q560 700 514 662T412 623T325 661Z" />
<glyph unicode="&lt;" glyph-name="less" horiz-adv-x="1716" d="M1499 1020L461 641L1499 264V94L217 559V725L1499 1190V1020Z" />
<glyph unicode="=" glyph-name="equal" horiz-adv-x="1716" d="M217 926H1499V766H217V926ZM217 518H1499V358H217V518Z" />
<glyph unicode="&gt;" glyph-name="greater" horiz-adv-x="1716" d="M217 1020V1190L1499 725V559L217 94V264L1255 641L217 1020Z" />
<glyph unicode="?" glyph-name="question" horiz-adv-x="1098" d="M224 48T235 104T292 199T395 238Q450 238 481 199T502 104Q492 49 445 10T343 -29Q286 -29 255 9ZM271 1427Q387 1474 487 1497T671 1520Q893 1520 1000 1413T1073 1124Q1036 938 903 820T537
651L487 397H364L428 725Q613 768 722 869T862 1126Q889 1263 831 1342T647 1421Q533 1421 448 1356T318 1167H221L271 1427Z" />
<glyph unicode="@" glyph-name="at" horiz-adv-x="2048" d="M1237 248Q1162 166 1081 126T906 86Q731 86 647 211T601 537T773 862T1081 987Q1174 987 1240 947T1349 825L1376 967H1532L1382 195Q1560 232 1678 357T1833 670Q1854 781 1840 880T1774 1063Q1694
1196 1555 1266T1237 1337Q1147 1337 1056 1318T870 1260Q650 1167 502 979T305 543Q273 376 295 236T393 -8Q479 -127 616 -189T926 -252Q1055 -252 1174 -214T1405 -100L1444 -170Q1318 -263 1172 -309T863 -356Q680 -356 527 -290T272 -100Q168 27 133 190T135
543Q171 727 269 890T521 1180Q672 1306 858 1374T1238 1442Q1452 1442 1612 1359T1861 1120Q1918 1022 1934 907T1927 668Q1875 400 1682 245T1206 86L1237 248ZM1283 485L1303 590Q1327 715 1271 792T1100 870Q979 870 895 783T779 537Q748 378 799 291T972 203Q1086
203 1172 281T1283 485Z" />
<glyph unicode="A" glyph-name="A" horiz-adv-x="1479" d="M370 541H918L782 1251L370 541ZM-157 0L-137 106H-6L796 1493H964L1228 106H1374L1354 0H811L831 106H997L936 434H308L119 106H283L263 0H-157Z" />
<glyph unicode="B" glyph-name="B" horiz-adv-x="1505" d="M381 106H680Q860 106 958 184T1090 432Q1123 601 1056 678T807 756H508L381 106ZM528 862H782Q946 862 1034 925T1148 1124Q1175 1261 1112 1323T884 1386H630L528 862ZM-32 0L-12 106H178L427 1386H237L258
1493H995Q1221 1493 1317 1401T1378 1124Q1353 991 1258 912T1006 815Q1192 791 1271 694T1319 432Q1276 210 1116 105T658 0H-32Z" />
<glyph unicode="C" glyph-name="C" horiz-adv-x="1567" d="M1376 395Q1269 186 1093 79T678 -29Q532 -29 417 21T224 168Q134 280 107 422T115 745Q183 1093 425 1306T997 1520Q1119 1520 1250 1488T1528 1391L1462 1047H1349Q1348 1235 1254 1324T959 1413Q720
1413 564 1244T344 745Q280 417 370 248T699 78Q866 78 989 157T1192 395H1376Z" />
<glyph unicode="D" glyph-name="D" horiz-adv-x="1642" d="M381 106H567Q858 106 1046 272T1294 748T1232 1222T816 1386H630L381 106ZM-32 0L-12 106H178L427 1386H237L258 1493H852Q1238 1493 1415 1296T1524 748Q1456 396 1202 198T562 0H-32Z" />
<glyph unicode="E" glyph-name="E" horiz-adv-x="1495" d="M-32 0L-12 106H178L427 1386H237L258 1493H1460L1396 1161H1273L1313 1370H627L530 870H1019L1055 1057H1178L1082 561H959L995 748H506L385 123H1087L1127 332H1250L1186 0H-32Z" />
<glyph unicode="F" glyph-name="F" horiz-adv-x="1421" d="M-32 0L-12 106H178L427 1386H237L258 1493H1480L1416 1161H1293L1333 1370H627L530 870H1040L1076 1057H1199L1103 561H980L1016 748H506L381 106H620L600 0H-32Z" />
<glyph unicode="G" glyph-name="G" horiz-adv-x="1636" d="M1370 1047Q1371 1234 1278 1323T986 1413Q728 1413 569 1247T344 745Q280 416 378 247T730 78Q843 78 951 106T1164 190L1239 575H958L979 682H1463L1354 125Q1206 48 1045 10T709 -29Q371 -29 209 182T115
745Q184 1099 429 1309T1019 1520Q1147 1520 1277 1491T1550 1401L1482 1047H1370Z" />
<glyph unicode="H" glyph-name="H" horiz-adv-x="1786" d="M-32 0L-12 106H178L427 1386H237L258 1493H841L820 1386H630L530 870H1304L1404 1386H1214L1235 1493H1818L1797 1386H1607L1358 106H1548L1528 0H945L965 106H1156L1280 748H506L381 106H571L551 0H-32Z" />
<glyph unicode="I" glyph-name="I" horiz-adv-x="809" d="M381 106H571L551 0H-32L-12 106H178L427 1386H237L258 1493H841L820 1386H630L381 106Z" />
<glyph unicode="J" glyph-name="J" horiz-adv-x="821" d="M-345 -358L-300 -123H-186Q-202 -222 -168 -270T-45 -319Q74 -319 135 -244T240 49L500 1386H268L289 1493H914L893 1386H703L441 41Q393 -206 273 -316T-68 -426Q-139 -426 -209 -409T-345 -358Z" />
<glyph unicode="K" glyph-name="K" horiz-adv-x="1530" d="M-32 0L-12 106H178L427 1386H237L258 1493H841L820 1386H630L520 821L1273 1386H1111L1132 1493H1628L1607 1386H1439L689 823L1266 106H1436L1416 0H1069L499 709L381 106H571L551 0H-32Z" />
<glyph unicode="L" glyph-name="L" horiz-adv-x="1360" d="M-32 0L-12 106H178L427 1386H237L258 1493H841L820 1386H630L385 123H1067L1115 373H1238L1166 0H-32Z" />
<glyph unicode="M" glyph-name="M" horiz-adv-x="2097" d="M-32 0L-12 106H178L427 1386H226L247 1493H682L999 430L1730 1493H2138L2117 1386H1918L1670 106H1860L1840 0H1256L1276 106H1466L1691 1260L976 219H835L526 1260L301 106H491L471 0H-32Z" />
<glyph unicode="N" glyph-name="N" horiz-adv-x="1792" d="M-42 0L-22 106H179L428 1386H227L248 1493H631L1297 315L1505 1386H1305L1326 1493H1850L1829 1386H1628L1353 -29H1232L521 1229L302 106H503L483 0H-42Z" />
<glyph unicode="O" glyph-name="O" horiz-adv-x="1679" d="M710 78Q955 78 1113 246T1335 745Q1399 1076 1307 1244T970 1413Q724 1413 566 1245T344 745Q280 415 372 247T710 78ZM689 -29Q537 -29 420 21T224 168Q134 280 107 422T115 745T232 1068T448 1323Q565
1421 701 1470T991 1520Q1316 1520 1474 1307T1565 745Q1530 566 1447 423T1231 168Q1114 70 978 21T689 -29Z" />
<glyph unicode="P" glyph-name="P" horiz-adv-x="1378" d="M509 760H773Q922 760 1015 840T1138 1073Q1168 1226 1106 1306T894 1386H630L509 760ZM-32 0L-12 106H178L427 1386H237L258 1493H964Q1188 1493 1297 1380T1368 1073Q1331 881 1178 767T801 653H488L381
106H612L592 0H-32Z" />
<glyph unicode="Q" glyph-name="Q" horiz-adv-x="1679" d="M743 -29Q400 -29 237 182Q124 329 124 548Q124 640 144 745Q179 926 261 1068T477 1323Q594 1421 730 1470T1020 1520Q1345 1520 1503 1307Q1614 1158 1614 942Q1614 850 1594 745Q1536 449 1347 248T883
-12Q924 -79 995 -111T1175 -143H1425L1389 -328H1272Q1007 -328 897 -246Q789 -164 743 -29ZM739 78Q984 78 1142 246T1364 745Q1390 881 1390 990Q1390 1145 1336 1244Q1244 1413 999 1413Q753 1413 595 1245T373 745Q347 610 347 501Q347 346 401 246Q493 78
739 78Z" />
<glyph unicode="R" glyph-name="R" horiz-adv-x="1542" d="M980 741Q1046 722 1088 677T1154 549L1284 106H1466L1446 0H1094L953 475Q913 613 865 653T719 694H496L381 106H592L572 0H-32L-12 106H178L427 1386H237L258 1493H1015Q1233 1493 1331 1389T1393 1094Q1363
940 1259 852T980 741ZM517 801H812Q963 801 1048 872T1163 1094T1135 1315T925 1386H630L517 801Z" />
<glyph unicode="S" glyph-name="S" horiz-adv-x="1403" d="M59 72L125 412L240 411Q212 241 289 160T558 78Q736 78 843 148T977 354Q998 462 953 520T736 633L551 692Q349 757 281 854T245 1120Q282 1310 437 1415T837 1520Q941 1520 1060 1498T1311 1432L1250
1114H1137Q1150 1272 1076 1342T820 1413Q662 1413 567 1349T448 1161Q427 1054 477 993T717 872L891 817Q1082 756 1150 662T1187 408Q1145 191 985 81T549 -29Q426 -29 304 -4T59 72Z" />
<glyph unicode="T" glyph-name="T" horiz-adv-x="1366" d="M246 0L266 106H457L704 1374H265L220 1141H97L165 1493H1491L1423 1141H1300L1345 1374H906L659 106H850L830 0H246Z" />
<glyph unicode="U" glyph-name="U" horiz-adv-x="1726" d="M414 1386H223L244 1493H828L807 1386H616L466 614Q410 328 482 215T783 102T1127 215T1298 614L1448 1386H1257L1278 1493H1782L1761 1386H1571L1417 594Q1351 253 1193 112T720 -29T300 113T260 594L414 1386Z" />
<glyph unicode="V" glyph-name="V" horiz-adv-x="1479" d="M482 1386L701 240L1363 1386H1195L1216 1493H1654L1633 1386H1488L686 0H514L253 1386H104L125 1493H669L648 1386H482Z" />
<glyph unicode="W" glyph-name="W" horiz-adv-x="2105" d="M1416 0H1252L1146 1214L568 0H404L282 1386H134L155 1493H700L679 1386H493L590 283L1165 1493H1327L1435 270L1965 1386H1793L1814 1493H2244L2223 1386H2076L1416 0Z" />
<glyph unicode="X" glyph-name="X" horiz-adv-x="1458" d="M657 639L188 106H381L361 0H-133L-113 106H59L611 733L302 1386H142L163 1493H755L734 1386H558L785 905L1207 1386H1015L1036 1493H1525L1504 1386H1336L830 811L1164 106H1324L1303 0H711L731 106H909L657
639Z" />
<glyph unicode="Y" glyph-name="Y" horiz-adv-x="1352" d="M242 0L262 106H453L558 643L241 1386H101L122 1493H677L656 1386H482L738 782L1228 1386H1060L1081 1493H1515L1494 1386H1353L764 662L655 106H846L826 0H242Z" />
<glyph unicode="Z" glyph-name="Z" horiz-adv-x="1423" d="M-53 0L-39 72L1143 1370H371L328 1147H205L272 1493H1452L1438 1421L256 123H1100L1140 332H1262L1198 0H-53Z" />
<glyph unicode="[" glyph-name="bracketleft" horiz-adv-x="799" d="M353 1556H818L798 1450H524L210 -164H484L464 -270H-1L353 1556Z" />
<glyph unicode="\" glyph-name="backslash" horiz-adv-x="690" d="M324 1493L526 -190H366L164 1493H324Z" />
<glyph unicode="]" glyph-name="bracketright" horiz-adv-x="799" d="M800 1556L446 -270H-19L1 -164H275L589 1450H315L335 1556H800Z" />
<glyph unicode="^" glyph-name="asciicircum" horiz-adv-x="1716" d="M956 1493L1499 936H1346L858 1317L371 936H217L760 1493H956Z" />
<glyph unicode="_" glyph-name="underscore" horiz-adv-x="1024" d="M1024 -403V-483H0V-403H1024Z" />
<glyph unicode="`" glyph-name="grave" horiz-adv-x="1024" d="M564 1636L750 1260H633L367 1636H564Z" />
<glyph unicode="a" glyph-name="a" horiz-adv-x="1221" d="M744 166Q611 -29 396 -29Q220 -29 131 90Q69 174 69 294Q69 345 80 402Q148 755 394 937Q603 1092 856 1092Q1026 1092 1084 1063L898 106H1056L1036 0H712L744 166ZM263 300Q263 86 470 86Q596 86 681
186T805 479L898 961V961Q898 990 818 990Q626 990 477 840Q329 689 276 415Q263 351 263 300Z" />
<glyph unicode="b" glyph-name="b" horiz-adv-x="1311" d="M369 1450H192L213 1556H574L446 897Q519 997 612 1044T828 1092Q1024 1092 1118 937Q1180 835 1180 692Q1180 617 1163 532Q1114 282 960 127T610 -29Q487 -29 413 18T304 166L272 0H88L369 1450ZM365
479Q349 400 349 337Q349 246 381 186Q435 86 575 86Q716 86 810 199T948 532Q968 633 968 712Q968 804 940 865Q890 977 748 977Q608 977 515 876T385 584L365 479Z" />
<glyph unicode="c" glyph-name="c" horiz-adv-x="1147" d="M1012 319Q940 149 812 60T507 -29Q275 -29 164 124Q87 231 87 385Q87 454 102 532Q152 787 322 939T725 1092Q826 1092 921 1069T1108 997L1056 725H949Q949 739 949 751Q949 871 897 929Q839 993 708
993Q559 993 461 878T317 532Q297 427 297 345Q297 249 325 186Q378 70 528 70Q647 70 730 132T864 319H1012Z" />
<glyph unicode="d" glyph-name="d" horiz-adv-x="1311" d="M1229 1556L927 0H743L775 166Q701 66 609 19T393 -29Q197 -29 103 126Q40 229 40 373Q40 447 57 532Q106 782 260 937T611 1092Q734 1092 808 1045T917 897L1024 1450H850L871 1556H1229ZM836 479L856
584Q871 662 871 725Q871 816 839 876Q786 977 646 977Q504 977 410 865T272 532Q252 431 252 353Q252 260 280 199Q330 86 472 86Q612 86 705 186T836 479Z" />
<glyph unicode="e" glyph-name="e" horiz-adv-x="1212" d="M300 408Q296 370 296 336Q296 242 330 180Q389 70 547 70Q663 70 720 105Q822 168 846 249H981Q941 122 792 33Q688 -29 482 -29T165 124Q87 231 87 386Q87 454 102 531Q151 784 320 938T729 1092Q1120
1092 1120 815Q1120 612 915 513Q706 412 300 408ZM813 632Q925 698 925 822Q925 993 698 993Q564 993 471 891T321 514Q642 529 813 632Z" />
<glyph unicode="f" glyph-name="f" horiz-adv-x="758" d="M1020 1305H923Q927 1326 927 1345Q927 1391 903 1419Q869 1458 790 1458Q687 1458 634 1402T553 1200L526 1063H823L802 956H505L307 -66Q272 -244 162 -335T-127 -426L-115 -328Q-10 -328 41 -272Q94
-212 123 -66L321 956H145L166 1063H342L368 1196Q403 1375 513 1465Q623 1556 802 1556Q869 1556 933 1544T1060 1507L1020 1305Z" />
<glyph unicode="g" glyph-name="g" horiz-adv-x="1311" d="M1223 1063L1020 23Q974 -215 826 -330Q665 -455 442 -455Q337 -455 245 -436T72 -379L116 -156H212Q209 -260 267 -308T450 -356Q612 -356 705 -264Q798 -174 836 23L864 166Q791 66 698 19T488 -29Q312
-29 223 90Q167 165 161 269Q157 330 171 402Q240 755 485 937Q694 1091 938 1092Q1162 1093 1223 1063ZM1019 956Q1018 990 910 990Q715 990 568 840Q421 689 367 415Q352 334 356 273Q360 211 385 169Q434 86 562 86Q702 86 795 186T925 479L945 584L1019 956Z"
/>
<glyph unicode="h" glyph-name="h" horiz-adv-x="1319" d="M99 0L381 1450H205L225 1556H585L453 874Q525 982 617 1037T817 1092Q993 1092 1056 991Q1095 930 1095 828Q1095 761 1078 676L967 106H1131L1111 0H762L882 618Q902 721 902 790Q902 851 886 884Q853
956 731 956Q603 956 518 863T398 592L283 0H99Z" />
<glyph unicode="i" glyph-name="i" horiz-adv-x="655" d="M323 1393Q332 1439 372 1473T459 1507Q505 1507 532 1473Q553 1447 553 1415Q553 1404 550 1393Q541 1346 502 1313T415 1280T341 1313Q321 1338 321 1370Q321 1381 323 1393ZM308 106H482L462 0H104L289
956H113L134 1063H494L308 106Z" />
<glyph unicode="j" glyph-name="j" horiz-adv-x="635" d="M374 1393Q382 1439 422 1473T510 1507Q556 1507 583 1473Q603 1447 603 1415Q603 1404 601 1393Q591 1346 553 1313T466 1280Q419 1280 391 1313Q371 1338 371 1370Q371 1381 374 1393ZM334 956H160L180
1063H538L312 -104Q280 -268 164 -361T-123 -455Q-195 -455 -257 -439T-375 -389L-332 -170H-237Q-240 -195 -240 -216Q-240 -278 -215 -311Q-181 -356 -99 -356Q-8 -356 47 -295T128 -104L334 956Z" />
<glyph unicode="k" glyph-name="k" horiz-adv-x="1241" d="M676 664L971 106H1124L1104 0H809L519 543L348 408L269 0H85L367 1450H190L210 1556H571L374 543L903 956H750L770 1063H1069L1049 956L676 664Z" />
<glyph unicode="l" glyph-name="l" horiz-adv-x="655" d="M289 106H463L443 0H85L367 1450H190L210 1556H571L289 106Z" />
<glyph unicode="m" glyph-name="m" horiz-adv-x="1942" d="M1121 856Q1197 973 1291 1032T1495 1092Q1662 1092 1724 988Q1761 926 1761 825Q1761 759 1745 676L1634 106H1800L1780 0H1430L1557 655Q1572 733 1572 789Q1572 851 1554 887Q1520 956 1409 956Q1286
956 1204 863T1086 592L971 0H787L916 662Q930 737 930 791Q930 853 912 888Q877 956 766 956Q643 956 561 863T443 592L328 0H144L330 958H154L174 1063H534L498 874Q569 980 659 1036T849 1092Q973 1092 1044 1031T1121 856Z" />
<glyph unicode="n" glyph-name="n" horiz-adv-x="1319" d="M144 0L330 956H154L174 1063H534L498 874Q570 982 662 1037T862 1092Q1038 1092 1102 991Q1140 930 1140 828Q1140 761 1123 676L1012 106H1176L1156 0H807L927 618Q947 721 947 790Q947 851 931 886Q897
958 776 958Q648 958 563 865T443 592L328 0H144Z" />
<glyph unicode="o" glyph-name="o" horiz-adv-x="1233" d="M526 70Q674 70 772 187T915 532Q935 636 935 717Q935 813 907 876Q854 993 706 993T460 877T317 532Q297 428 297 348Q297 251 326 187Q379 70 526 70ZM507 -29Q275 -29 164 124Q87 231 87 385Q87 454
102 532Q151 786 321 939T725 1092T1069 939Q1145 833 1145 679Q1145 610 1130 532Q1081 278 911 125T507 -29Z" />
<glyph unicode="p" glyph-name="p" horiz-adv-x="1311" d="M469 584L448 479Q433 400 433 337Q433 246 465 186Q519 86 659 86Q800 86 894 199T1032 532Q1051 633 1051 712Q1051 804 1024 865Q973 977 832 977Q692 977 599 876T469 584ZM357 956H180L201 1063H562L530
897Q603 997 696 1044T912 1092Q1108 1092 1201 937Q1263 835 1263 692Q1263 617 1247 532Q1198 282 1044 127T694 -29Q571 -29 497 18T388 166L272 -426H88L357 956Z" />
<glyph unicode="q" glyph-name="q" horiz-adv-x="1311" d="M859 166Q790 66 706 18Q622 -29 511 -29Q335 -29 246 90Q190 165 184 269Q180 330 194 402Q263 755 508 937Q717 1091 962 1092Q1156 1093 1217 1063L948 -320H1125L1104 -426H743L859 166ZM933 990Q741
990 592 840Q444 689 390 415Q375 334 379 273Q383 211 408 169Q457 86 585 86Q711 86 796 186T919 479L1013 961Q1014 990 933 990Z" />
<glyph unicode="r" glyph-name="r" horiz-adv-x="979" d="M1080 1065L1028 799H922Q925 819 925 836Q925 888 901 917Q870 956 795 956Q659 956 568 862T443 592L328 0H144L330 958H154L174 1063H534L498 874Q573 985 668 1038T886 1092Q931 1092 979 1085T1080 1065Z" />
<glyph unicode="s" glyph-name="s" horiz-adv-x="1051" d="M71 307H177Q173 278 173 252Q173 70 420 70Q668 70 704 252Q707 270 707 302Q707 333 673 370T496 457L371 502Q243 546 202 602T160 724Q160 750 165 780Q194 926 317 1009T618 1092Q795 1092 981 1006L936
774H830Q834 797 834 817Q834 890 784 941T616 993Q381 993 349 829Q345 812 345 782Q345 751 377 716T537 639L674 594Q816 547 869 476Q906 426 906 377Q906 167 738 58Q606 -29 404 -29T23 59L71 307Z" />
<glyph unicode="t" glyph-name="t" horiz-adv-x="823" d="M274 956H112L133 1063H295L359 1393H544L480 1063H826L805 956H459L328 281Q313 202 313 156Q313 124 320 108Q339 70 409 70Q481 70 522 112T584 250H723Q687 105 603 38T374 -29Q215 -29 162 42Q130
85 130 165Q130 216 143 281L274 956Z" />
<glyph unicode="u" glyph-name="u" horiz-adv-x="1319" d="M991 1063H1175L989 106H1163L1143 0H785L821 188Q749 82 658 27T459 -29Q282 -29 218 72Q179 132 179 235Q179 302 196 387L306 956H140L161 1063H512L392 444Q372 341 372 273Q372 212 388 178Q421
106 543 106Q671 106 756 200T876 473L991 1063Z" />
<glyph unicode="v" glyph-name="v" horiz-adv-x="1157" d="M538 0H403L198 956H77L97 1063H372L552 225Q667 325 744 452Q904 716 961 956H839L860 1063H1135Q1026 651 888 420Q768 220 538 0Z" />
<glyph unicode="w" glyph-name="w" horiz-adv-x="1753" d="M1197 233Q1330 377 1360 430Q1470 630 1578 956L1423 955L1444 1063H1711L1690 955H1689Q1587 584 1490 405Q1347 150 1190 0H1037L928 795L511 0H364L235 956L115 954L136 1063H410L522 233L957 1063H1086L1197
233Z" />
<glyph unicode="x" glyph-name="x" horiz-adv-x="1155" d="M131 0H6L475 510L239 956H108L128 1063H398L619 649L1000 1063H1125L665 563L908 106H1047L1027 0H748L522 424L131 0Z" />
<glyph unicode="y" glyph-name="y" horiz-adv-x="1157" d="M1178 1054Q1079 482 905 180Q650 -263 445 -396Q354 -455 114 -455Q67 -455 20 -447T-76 -424L-36 -221H58Q56 -237 56 -252Q56 -294 74 -318Q99 -352 164 -352Q340 -352 493 -199L242 956H121L142 1063H417L653
8Q814 249 853 348Q979 659 1004 947H883L904 1054H1178Z" />
<glyph unicode="z" glyph-name="z" horiz-adv-x="1079" d="M815 975Q923 975 1028 1063H1088L1072 977L345 219Q355 216 384 207Q418 196 452 174L501 144Q595 87 663 87Q794 87 948 237L924 116Q753 -52 623 -52Q544 -50 433 19T252 88Q144 88 39 0H-21L-5 86L723
843Q712 847 683 856Q649 867 615 889L566 919Q472 976 404 976Q273 976 119 826L143 947Q314 1115 444 1115Q523 1113 634 1044T815 975Z" />
<glyph unicode="{" glyph-name="braceleft" horiz-adv-x="1303" d="M884 -229L863 -334H801Q552 -334 482 -260T455 35L505 293Q534 443 492 501T307 559H246L266 664H327Q469 664 534 722T629 930L679 1188Q722 1409 821 1482T1169 1556H1231L1210 1452H1142Q1001
1452 950 1408T871 1223L815 936Q784 778 721 710T522 612Q648 578 684 511T689 287L633 0Q606 -141 640 -185T816 -229H884Z" />
<glyph unicode="|" glyph-name="bar" horiz-adv-x="690" d="M426 1565V-483H264V1565H426Z" />
<glyph unicode="}" glyph-name="braceright" horiz-adv-x="1303" d="M93 -229H163Q303 -229 354 -186T432 0L488 287Q519 444 581 511T780 612Q656 642 620 710T614 936L670 1223Q698 1365 664 1408T489 1452H419L440 1556H503Q752 1556 821 1483T847 1188L797
930Q768 780 810 722T995 664H1057L1037 559H975Q833 559 768 501T673 293L623 35Q580 -186 482 -260T135 -334H72L93 -229Z" />
<glyph unicode="~" glyph-name="asciitilde" horiz-adv-x="1716" d="M1499 807V659Q1399 571 1309 529T1126 487Q1030 487 856 553L846 557Q835 561 813 570Q666 627 571 627Q479 627 393 591T217 477V629Q317 716 406 756T590 797Q686 797 860 731L870 727Q881
723 901 715Q1046 657 1143 657Q1235 657 1323 694T1499 807Z" />
<glyph unicode="&#xa0;" glyph-name="nbspace" horiz-adv-x="651" />
<glyph unicode="&#xa1;" glyph-name="exclamdown" horiz-adv-x="823" d="M390 1333T401 1389T457 1483T560 1522Q615 1522 646 1483T667 1389Q656 1333 610 1294T508 1255Q451 1255 421 1294ZM135 0L362 821L411 1073H534L485 821L393 0H135Z" />
<glyph unicode="&#xa2;" glyph-name="cent" horiz-adv-x="1303" d="M719 991Q587 976 500 861T371 532Q330 317 372 202T540 72L719 991ZM1063 319Q998 165 888 79T621 -27L568 -297H468L521 -27Q305 -8 207 142T154 532Q202 774 358 923T738 1090L790 1356H890L838
1090Q928 1082 1007 1059T1160 997L1107 725H1001Q1006 848 961 913T819 991L640 72Q732 84 802 147T915 319H1063Z" />
<glyph unicode="&#xa3;" glyph-name="sterling" horiz-adv-x="1303" d="M1192 1225H1087Q1096 1320 1049 1370T906 1421Q779 1421 704 1344T596 1102L539 807H951L930 700H518L406 121H884L928 348H1044L976 0H-11L10 106H203L318 700H125L146 807H339L396 1102Q436
1307 571 1413T928 1520Q1013 1520 1091 1508T1240 1470L1192 1225Z" />
<glyph unicode="&#xa4;" glyph-name="currency" horiz-adv-x="1303" d="M901 985L1110 1192L1204 1098L995 889Q1038 829 1058 768T1079 641Q1079 572 1059 513T993 397L1200 190L1104 96L897 301Q841 257 782 236T653 215Q589 215 527 235T403 297L199 92L104
186L309 393Q268 455 248 516T227 641Q227 711 248 770T313 887L106 1094L201 1188L408 981Q464 1025 524 1046T653 1067Q719 1067 780 1047T901 985ZM922 643Q922 755 845 832T653 909Q541 909 463 832T385 643Q385 529 462 451T653 373T844 451T922 643Z" />
<glyph unicode="&#xa5;" glyph-name="yen" horiz-adv-x="1303" d="M215 0L235 106H426L498 473H94L114 578H518L531 643L476 784H154L175 889H438L247 1386H108L129 1493H682L661 1386H486L712 782L1168 1386H1001L1022 1493H1454L1433 1386H1291L911 889H1183L1162
784H830L736 662L719 578H1122L1102 473H699L627 106H817L797 0H215Z" />
<glyph unicode="&#xa6;" glyph-name="brokenbar" horiz-adv-x="690" d="M426 408V-350H264V408H426ZM426 1432V674H264V1432H426Z" />
<glyph unicode="&#xa7;" glyph-name="section" horiz-adv-x="1024" d="M432 936Q355 890 320 849T274 754Q248 622 572 419L600 401Q666 439 704 487T754 592Q769 667 713 734T432 936ZM985 1464L946 1262H854Q866 1334 822 1375T690 1417Q590 1417 523 1369T440
1237Q421 1140 640 1003Q663 988 674 981Q848 872 896 797T924 623Q906 528 841 465T654 358Q723 311 747 248T753 94Q728 -37 611 -116T320 -195Q230 -195 153 -182T4 -139L45 70L137 69Q123 -11 169 -51T322 -92Q426 -92 496 -43T583 90Q605 203 401 330Q383
342 373 348Q181 470 133 545T103 719Q121 813 193 879T380 977Q308 1026 281 1089T269 1231Q294 1361 409 1440T691 1520Q769 1520 842 1506T985 1464Z" />
<glyph unicode="&#xa8;" glyph-name="dieresis" horiz-adv-x="1024" d="M534 1569Q582 1569 610 1534Q637 1500 628 1452Q618 1401 579 1368Q539 1335 488 1335Q438 1335 412 1368Q385 1401 395 1452Q404 1500 446 1534Q487 1569 534 1569ZM924 1569Q971 1569
999 1534Q1026 1500 1017 1452Q1007 1401 968 1368Q928 1335 878 1335Q827 1335 801 1368Q774 1401 784 1452Q793 1500 835 1534Q876 1569 924 1569Z" />
<glyph unicode="&#xa9;" glyph-name="copyright" horiz-adv-x="2048" d="M1376 573Q1349 442 1259 372T1026 301Q839 301 728 421T616 741Q616 942 728 1063T1026 1184Q1106 1184 1183 1166T1348 1108V895H1264Q1247 1004 1190 1055T1028 1106Q909 1106 849 1015T788
741Q788 560 848 470T1026 379Q1123 379 1179 426T1257 573H1376ZM872 1485T1024 1485T1307 1430T1548 1266T1711 1026T1765 741Q1765 589 1711 459T1548 219T1308 55T1024 0T741 55T500 219T337 458T283 741Q283 895 337 1026T500 1266T740 1430ZM1024 1382Q893
1382 780 1335T573 1194Q480 1101 433 987T385 741Q385 611 432 498T573 291Q667 197 780 150T1024 102Q1156 102 1269 149T1477 291Q1570 384 1616 497T1663 741Q1663 874 1616 987T1477 1194Q1383 1288 1270 1335T1024 1382Z" />
<glyph unicode="&#xaa;" glyph-name="ordfeminine" horiz-adv-x="973" d="M613 756L647 934Q587 857 523 813Q457 770 384 756Q351 750 323 750Q229 750 178 817Q133 875 133 969Q133 1015 143 1069Q176 1235 282 1354Q389 1472 528 1499Q557 1504 582 1504Q622
1504 654 1491Q707 1469 741 1410L756 1494H882L756 844H884L867 756H613ZM685 1130L702 1216Q708 1248 708 1275Q708 1336 677 1372Q644 1413 584 1413Q564 1413 542 1409Q445 1391 378 1309Q310 1226 285 1096Q275 1045 275 1004Q275 940 299 902Q330 854 395
854Q414 854 436 858Q527 875 596 951Q665 1027 685 1130ZM92 639H790L770 535H72L92 639Z" />
<glyph unicode="&#xab;" glyph-name="guillemotleft" horiz-adv-x="1253" d="M1150 1059L1128 944L764 600L994 256L972 141L584 559L600 641L1150 1059ZM716 1059L694 944L330 600L560 256L538 141L150 559L166 641L716 1059Z" />
<glyph unicode="&#xac;" glyph-name="logicalnot" horiz-adv-x="1716" d="M217 862H1499V287H1339V700H217V862Z" />
<glyph unicode="&#xad;" glyph-name="sfthyphen" horiz-adv-x="692" d="M105 627H617L587 471H75L105 627Z" />
<glyph unicode="&#xae;" glyph-name="registered" horiz-adv-x="2048" d="M895 791H1020Q1103 791 1144 829T1186 942Q1186 1016 1144 1054T1020 1092H895V791ZM1141 754Q1183 740 1212 715T1262 649L1378 420H1454V352H1264L1133 606Q1098 676 1067 699T987 723H895V420H979V352H662V420H745V1092H662V1159H1077Q1205
1159 1270 1103T1335 938Q1335 855 1287 810T1141 754ZM1024 1382Q893 1382 780 1335T573 1194Q480 1101 433 987T385 741Q385 611 432 498T573 291Q667 197 780 150T1024 102Q1156 102 1269 149T1477 291Q1570 384 1616 497T1663 741Q1663 874 1616 987T1477 1194Q1383
1288 1270 1335T1024 1382ZM872 1485T1024 1485T1307 1430T1548 1266T1711 1026T1765 741Q1765 589 1711 459T1548 219T1308 55T1024 0T741 55T500 219T337 458T283 741Q283 895 337 1026T500 1266T740 1430Z" />
<glyph unicode="&#xaf;" glyph-name="overscore" horiz-adv-x="1024" d="M396 1526H994L966 1378H368L396 1526Z" />
<glyph unicode="&#xb0;" glyph-name="degree" horiz-adv-x="1024" d="M512 1382Q436 1382 384 1330T332 1200Q332 1124 383 1073T512 1022Q588 1022 640 1073T692 1200T639 1328T512 1382ZM512 1520Q576 1520 635 1496T737 1425Q783 1380 806 1323T829 1200Q829
1068 737 977T510 885Q375 885 285 975T195 1200Q195 1334 287 1427T512 1520Z" />
<glyph unicode="&#xb1;" glyph-name="plusminus" horiz-adv-x="1716" d="M938 1284V893H1499V731H938V340H778V731H217V893H778V1284H938ZM217 160H1499V0H217V160Z" />
<glyph unicode="&#xb2;" glyph-name="twosuperior" horiz-adv-x="821" d="M209 1296H139L170 1454Q242 1486 315 1503T458 1520Q596 1520 668 1454T721 1284Q697 1162 469 988L447 971L167 756H552L573 864H647L609 668H7L22 743L356 997Q457 1074 506 1135T568
1262Q584 1347 545 1396T422 1446Q344 1446 290 1408T209 1296Z" />
<glyph unicode="&#xb3;" glyph-name="threesuperior" horiz-adv-x="821" d="M199 1468Q277 1494 346 1507T475 1520Q613 1520 677 1466T722 1313Q708 1241 646 1191T484 1124Q600 1108 649 1049T679 889Q656 775 557 714T295 653Q223 653 156 667T27 709L60 879L129
878Q120 804 161 766T295 727Q389 727 448 771T524 897Q542 990 501 1037T358 1085H305L319 1159H346Q443 1159 499 1196T571 1307Q584 1374 551 1410T441 1446Q359 1446 309 1414T240 1317H170L199 1468Z" />
<glyph unicode="&#xb4;" glyph-name="acute" horiz-adv-x="1024" d="M858 1638H1057L643 1262H526L858 1638Z" />
<glyph unicode="&#xb5;" glyph-name="mu" horiz-adv-x="1331" d="M1044 1063H1228L1041 104H1215L1195 0H837L874 188Q801 82 717 27T542 -29Q485 -29 442 -11T366 43L275 -426H91L360 956H194L215 1063H565L444 444Q425 342 425 274Q425 212 441 178Q475 106
596 106Q724 106 809 200T929 473L1044 1063Z" />
<glyph unicode="&#xb6;" glyph-name="paragraph" horiz-adv-x="1303" d="M797 1493H1335L1314 1386H1196L889 -197H782L1089 1386H858L551 -197H444L608 649Q396 666 300 776T240 1071Q277 1261 429 1377T797 1493Z" />
<glyph unicode="&#xb7;" glyph-name="middot" horiz-adv-x="651" d="M190 711Q201 767 247 805T350 844Q405 844 436 805T457 711Q446 655 400 617T298 578Q241 578 210 616T190 711Z" />
<glyph unicode="&#xb8;" glyph-name="cedilla" horiz-adv-x="1024" d="M616 0Q668 -64 688 -120T700 -225Q684 -306 613 -350T429 -395Q387 -395 344 -389T257 -371L283 -240Q320 -257 358 -265T431 -274Q488 -274 526 -248T573 -176Q579 -148 566 -104T519 0H616Z" />
<glyph unicode="&#xb9;" glyph-name="onesuperior" horiz-adv-x="821" d="M95 668L111 752H283L406 1386L185 1280L203 1374L468 1503H570L424 752H597L581 668H95Z" />
<glyph unicode="&#xba;" glyph-name="ordmasculine" horiz-adv-x="963" d="M439 813Q545 813 614 892T713 1128T706 1364T562 1444Q458 1444 388 1363T288 1128Q257 973 295 893T439 813ZM425 737Q250 737 165 844T114 1128Q148 1305 275 1412T577 1520T837 1413T888
1128T727 844T425 737ZM61 639H749L729 535H41L61 639Z" />
<glyph unicode="&#xbb;" glyph-name="guillemotright" horiz-adv-x="1253" d="M716 1059L1104 641L1088 559L538 141L560 256L924 600L694 944L716 1059ZM282 1059L670 641L654 559L104 141L126 256L489 600L260 944L282 1059Z" />
<glyph unicode="&#xbc;" glyph-name="onequarter" horiz-adv-x="1985" d="M1462 303L1541 710L1154 303H1462ZM1691 0H1257L1273 84H1419L1446 221H1048L1064 305L1567 835H1708L1605 303H1769L1753 221H1589L1562 84H1707L1691 0ZM95 668L111 752H283L406 1386L185
1280L203 1374L468 1503H570L424 752H597L581 668H95ZM1539 1520H1689L445 -29H295L1539 1520Z" />
<glyph unicode="&#xbd;" glyph-name="onehalf" horiz-adv-x="1985" d="M95 668L111 752H283L406 1386L185 1280L203 1374L468 1503H570L424 752H597L581 668H95ZM1539 1520H1689L445 -29H295L1539 1520ZM1242 628H1172L1203 786Q1275 818 1348 835T1491 852Q1629
852 1701 786T1754 616Q1730 494 1502 320L1480 303L1200 88H1585L1606 196H1680L1642 0H1040L1055 75L1389 329Q1490 406 1539 467T1601 594Q1617 679 1578 728T1455 778Q1377 778 1323 740T1242 628Z" />
<glyph unicode="&#xbe;" glyph-name="threequarters" horiz-adv-x="1985" d="M1462 303L1541 710L1154 303H1462ZM1691 0H1257L1273 84H1419L1446 221H1048L1064 305L1567 835H1708L1605 303H1769L1753 221H1589L1562 84H1707L1691 0ZM199 1468Q277 1494 346 1507T475
1520Q613 1520 677 1466T722 1313Q708 1241 646 1191T484 1124Q600 1108 649 1049T679 889Q656 775 557 714T295 653Q223 653 156 667T27 709L60 879L129 878Q120 804 161 766T295 727Q389 727 448 771T524 897Q542 990 501 1037T358 1085H305L319 1159H346Q443
1159 499 1196T571 1307Q584 1374 551 1410T441 1446Q359 1446 309 1414T240 1317H170L199 1468ZM1539 1520H1689L445 -29H295L1539 1520Z" />
<glyph unicode="&#xbf;" glyph-name="questiondown" horiz-adv-x="1098" d="M914 1445T903 1389T846 1294T744 1255Q689 1255 658 1294T637 1389Q647 1444 694 1483T796 1522Q853 1522 883 1484ZM867 66Q751 19 652 -4T467 -27Q246 -27 138 80T65 369Q102 555
235 673T602 842L652 1096H775L711 768Q526 725 416 624T276 367Q249 230 307 151T492 72Q605 72 690 137T821 326H917L867 66Z" />
<glyph unicode="&#xc0;" glyph-name="Agrave" horiz-adv-x="1479" d="M370 541H918L782 1251L370 541ZM-157 0L-137 106H-6L796 1493H964L1228 106H1374L1354 0H811L831 106H997L936 434H308L119 106H283L263 0H-157ZM866 1899L997 1635H880L670 1899H866Z" />
<glyph unicode="&#xc1;" glyph-name="Aacute" horiz-adv-x="1479" d="M370 541H918L782 1251L370 541ZM-157 0L-137 106H-6L796 1493H964L1228 106H1374L1354 0H811L831 106H997L936 434H308L119 106H283L263 0H-157ZM1051 1899H1248L934 1635H817L1051 1899Z" />
<glyph unicode="&#xc2;" glyph-name="Acircumflex" horiz-adv-x="1479" d="M370 541H918L782 1251L370 541ZM-157 0L-137 106H-6L796 1493H964L1228 106H1374L1354 0H811L831 106H997L936 434H308L119 106H283L263 0H-157ZM852 1899H1028L1207 1635H1091L920 1796L685
1635H569L852 1899Z" />
<glyph unicode="&#xc3;" glyph-name="Atilde" horiz-adv-x="1479" d="M370 541H918L782 1251L370 541ZM-157 0L-137 106H-6L796 1493H964L1228 106H1374L1354 0H811L831 106H997L936 434H308L119 106H283L263 0H-157ZM913 1715L870 1743Q853 1756 834 1763T798
1770Q759 1770 727 1741Q696 1713 683 1667L587 1668Q608 1768 671 1827Q733 1886 818 1886Q854 1886 884 1877Q913 1868 962 1837L1006 1811Q1026 1798 1047 1791Q1067 1784 1084 1784Q1125 1784 1154 1811Q1183 1839 1192 1886H1289Q1267 1781 1204 1724Q1142
1667 1048 1667Q981 1667 917 1712L913 1715Z" />
<glyph unicode="&#xc4;" glyph-name="Adieresis" horiz-adv-x="1479" d="M370 541H918L782 1251L370 541ZM-157 0L-137 106H-6L796 1493H964L1228 106H1374L1354 0H811L831 106H997L936 434H308L119 106H283L263 0H-157ZM750 1884Q798 1884 825 1849Q853 1814
844 1768Q834 1718 794 1685Q754 1651 704 1651Q655 1651 628 1685Q601 1718 611 1768Q620 1814 661 1849Q703 1884 750 1884ZM1140 1884Q1187 1884 1214 1849Q1242 1814 1233 1768Q1223 1718 1183 1685Q1143 1651 1094 1651Q1044 1651 1017 1685Q990 1718 1000
1768Q1009 1814 1050 1849Q1092 1884 1140 1884Z" />
<glyph unicode="&#xc5;" glyph-name="Aring" horiz-adv-x="1479" d="M1006 1563T1018 1626T995 1733T896 1778Q832 1778 780 1735T715 1626Q703 1563 738 1519T837 1475Q900 1475 953 1519ZM330 541H876L742 1251L330 541ZM-197 0L-176 106H-45L692 1384Q627 1421
602 1482T592 1626Q614 1740 710 1820T920 1901T1098 1821T1141 1626Q1126 1546 1075 1483T944 1384L1188 106H1335L1314 0H771L792 106H958L897 434H269L80 106H244L223 0H-197Z" />
<glyph unicode="&#xc6;" glyph-name="AE" horiz-adv-x="2050" d="M386 541H875L1039 1386H939L386 541ZM580 0L600 106H790L854 434H316L100 106H264L244 0H-180L-160 106H-29L810 1386H595L616 1493H2072L2008 1161H1885L1925 1370H1237L1140 870H1632L1668 1057H1791L1695
561H1572L1608 748H1116L995 123H1700L1740 332H1863L1799 0H580Z" />
<glyph unicode="&#xc7;" glyph-name="Ccedilla" horiz-adv-x="1567" d="M1376 395Q1269 186 1093 79T678 -29Q532 -29 417 21T224 168Q134 280 107 422T115 745Q183 1093 425 1306T997 1520Q1119 1520 1250 1488T1528 1391L1462 1047H1349Q1348 1235 1254 1324T959
1413Q720 1413 564 1244T344 745Q280 417 370 248T699 78Q866 78 989 157T1192 395H1376ZM738 0Q790 -64 810 -120T822 -225Q806 -306 735 -350T551 -395Q509 -395 466 -389T379 -371L405 -240Q442 -257 480 -265T553 -274Q610 -274 648 -248T695 -176Q701 -148
688 -104T641 0H738Z" />
<glyph unicode="&#xc8;" glyph-name="Egrave" horiz-adv-x="1495" d="M-32 0L-12 106H178L427 1386H237L258 1493H1460L1396 1161H1273L1313 1370H627L530 870H1019L1055 1057H1178L1082 561H959L995 748H506L385 123H1087L1127 332H1250L1186 0H-32ZM946 1899L1077
1635H960L750 1899H946Z" />
<glyph unicode="&#xc9;" glyph-name="Eacute" horiz-adv-x="1495" d="M-32 0L-12 106H178L427 1386H237L258 1493H1460L1396 1161H1273L1313 1370H627L530 870H1019L1055 1057H1178L1082 561H959L995 748H506L385 123H1087L1127 332H1250L1186 0H-32ZM1059 1899H1256L942
1635H825L1059 1899Z" />
<glyph unicode="&#xca;" glyph-name="Ecircumflex" horiz-adv-x="1495" d="M-32 0L-12 106H178L427 1386H237L258 1493H1460L1396 1161H1273L1313 1370H627L530 870H1019L1055 1057H1178L1082 561H959L995 748H506L385 123H1087L1127 332H1250L1186 0H-32ZM908
1899H1084L1263 1635H1147L976 1796L741 1635H625L908 1899Z" />
<glyph unicode="&#xcb;" glyph-name="Edieresis" horiz-adv-x="1495" d="M-32 0L-12 106H178L427 1386H237L258 1493H1460L1396 1161H1273L1313 1370H627L530 870H1019L1055 1057H1178L1082 561H959L995 748H506L385 123H1087L1127 332H1250L1186 0H-32ZM812 1884Q860
1884 887 1849Q915 1814 906 1768Q896 1718 856 1685Q816 1651 766 1651Q717 1651 690 1685Q663 1718 673 1768Q682 1814 723 1849Q765 1884 812 1884ZM1202 1884Q1249 1884 1276 1849Q1304 1814 1295 1768Q1285 1718 1245 1685Q1205 1651 1156 1651Q1106 1651
1079 1685Q1052 1718 1062 1768Q1071 1814 1112 1849Q1154 1884 1202 1884Z" />
<glyph unicode="&#xcc;" glyph-name="Igrave" horiz-adv-x="809" d="M381 106H571L551 0H-32L-12 106H178L427 1386H237L258 1493H841L820 1386H630L381 106ZM569 1899L700 1635H583L373 1899H569Z" />
<glyph unicode="&#xcd;" glyph-name="Iacute" horiz-adv-x="809" d="M381 106H571L551 0H-32L-12 106H178L427 1386H237L258 1493H841L820 1386H630L381 106ZM718 1899H915L601 1635H484L718 1899Z" />
<glyph unicode="&#xce;" glyph-name="Icircumflex" horiz-adv-x="809" d="M381 106H571L551 0H-32L-12 106H178L427 1386H237L258 1493H841L820 1386H630L381 106ZM567 1899H743L922 1635H806L635 1796L400 1635H284L567 1899Z" />
<glyph unicode="&#xcf;" glyph-name="Idieresis" horiz-adv-x="809" d="M381 106H571L551 0H-32L-12 106H178L427 1386H237L258 1493H841L820 1386H630L381 106ZM435 1884Q483 1884 510 1849Q538 1814 529 1768Q519 1718 479 1685Q439 1651 389 1651Q340 1651
313 1685Q286 1718 296 1768Q305 1814 346 1849Q388 1884 435 1884ZM825 1884Q872 1884 899 1849Q927 1814 918 1768Q908 1718 868 1685Q828 1651 779 1651Q729 1651 702 1685Q675 1718 685 1768Q694 1814 735 1849Q777 1884 825 1884Z" />
<glyph unicode="&#xd0;" glyph-name="Eth" horiz-adv-x="1653" d="M389 106H577Q868 106 1056 272T1305 748T1242 1222T826 1386H638L533 844H869L845 719H509L389 106ZM-22 0L-2 106H188L308 719H108L132 844H332L437 1386H247L268 1493H862Q1248 1493 1425 1296T1534
748Q1466 396 1212 198T572 0H-22Z" />
<glyph unicode="&#xd1;" glyph-name="Ntilde" horiz-adv-x="1792" d="M-42 0L-22 106H179L428 1386H227L248 1493H631L1297 315L1505 1386H1305L1326 1493H1850L1829 1386H1628L1353 -29H1232L521 1229L302 106H503L483 0H-42ZM1107 1715L1064 1743Q1047 1756
1028 1763T992 1770Q953 1770 921 1741Q890 1713 877 1667L781 1668Q802 1768 865 1827Q927 1886 1012 1886Q1048 1886 1078 1877Q1107 1868 1156 1837L1200 1811Q1220 1798 1241 1791Q1261 1784 1278 1784Q1319 1784 1348 1811Q1377 1839 1386 1886H1483Q1461
1781 1398 1724Q1336 1667 1242 1667Q1175 1667 1111 1712L1107 1715Z" />
<glyph unicode="&#xd2;" glyph-name="Ograve" horiz-adv-x="1679" d="M710 78Q955 78 1113 246T1335 745Q1399 1076 1307 1244T970 1413Q724 1413 566 1245T344 745Q280 415 372 247T710 78ZM689 -29Q537 -29 420 21T224 168Q134 280 107 422T115 745T232 1068T448
1323Q565 1421 701 1470T991 1520Q1316 1520 1474 1307T1565 745Q1530 566 1447 423T1231 168Q1114 70 978 21T689 -29ZM1038 1899L1169 1635H1052L842 1899H1038Z" />
<glyph unicode="&#xd3;" glyph-name="Oacute" horiz-adv-x="1679" d="M710 78Q955 78 1113 246T1335 745Q1399 1076 1307 1244T970 1413Q724 1413 566 1245T344 745Q280 415 372 247T710 78ZM689 -29Q537 -29 420 21T224 168Q134 280 107 422T115 745T232 1068T448
1323Q565 1421 701 1470T991 1520Q1316 1520 1474 1307T1565 745Q1530 566 1447 423T1231 168Q1114 70 978 21T689 -29ZM1151 1899H1348L1034 1635H917L1151 1899Z" />
<glyph unicode="&#xd4;" glyph-name="Ocircumflex" horiz-adv-x="1679" d="M710 78Q955 78 1113 246T1335 745Q1399 1076 1307 1244T970 1413Q724 1413 566 1245T344 745Q280 415 372 247T710 78ZM689 -29Q537 -29 420 21T224 168Q134 280 107 422T115 745T232
1068T448 1323Q565 1421 701 1470T991 1520Q1316 1520 1474 1307T1565 745Q1530 566 1447 423T1231 168Q1114 70 978 21T689 -29ZM1000 1899H1176L1355 1635H1239L1068 1796L833 1635H717L1000 1899Z" />
<glyph unicode="&#xd5;" glyph-name="Otilde" horiz-adv-x="1679" d="M710 78Q955 78 1113 246T1335 745Q1399 1076 1307 1244T970 1413Q724 1413 566 1245T344 745Q280 415 372 247T710 78ZM689 -29Q537 -29 420 21T224 168Q134 280 107 422T115 745T232 1068T448
1323Q565 1421 701 1470T991 1520Q1316 1520 1474 1307T1565 745Q1530 566 1447 423T1231 168Q1114 70 978 21T689 -29ZM1049 1715L1006 1743Q989 1756 970 1763T934 1770Q895 1770 863 1741Q832 1713 819 1667L723 1668Q744 1768 807 1827Q869 1886 954 1886Q990
1886 1020 1877Q1049 1868 1098 1837L1142 1811Q1162 1798 1183 1791Q1203 1784 1220 1784Q1261 1784 1290 1811Q1319 1839 1328 1886H1425Q1403 1781 1340 1724Q1278 1667 1184 1667Q1117 1667 1053 1712L1049 1715Z" />
<glyph unicode="&#xd6;" glyph-name="Odieresis" horiz-adv-x="1679" d="M710 78Q955 78 1113 246T1335 745Q1399 1076 1307 1244T970 1413Q724 1413 566 1245T344 745Q280 415 372 247T710 78ZM689 -29Q537 -29 420 21T224 168Q134 280 107 422T115 745T232 1068T448
1323Q565 1421 701 1470T991 1520Q1316 1520 1474 1307T1565 745Q1530 566 1447 423T1231 168Q1114 70 978 21T689 -29ZM904 1884Q952 1884 979 1849Q1007 1814 998 1768Q988 1718 948 1685Q908 1651 858 1651Q809 1651 782 1685Q755 1718 765 1768Q774 1814 815
1849Q857 1884 904 1884ZM1294 1884Q1341 1884 1368 1849Q1396 1814 1387 1768Q1377 1718 1337 1685Q1297 1651 1248 1651Q1198 1651 1171 1685Q1144 1718 1154 1768Q1163 1814 1204 1849Q1246 1884 1294 1884Z" />
<glyph unicode="&#xd7;" glyph-name="multiply" horiz-adv-x="1716" d="M1434 1104L971 641L1434 180L1319 68L858 528L397 68L283 180L743 641L283 1104L397 1217L858 756L1319 1217L1434 1104Z" />
<glyph unicode="&#xd8;" glyph-name="Oslash" horiz-adv-x="1679" d="M1310 1239Q1262 1327 1178 1370T970 1413Q724 1413 566 1245T344 745Q321 626 318 530T333 352L1310 1239ZM368 256Q414 167 499 123T710 78Q955 78 1113 246T1335 745Q1357 862 1360 960T1345
1141L368 256ZM1494 1276Q1560 1168 1578 1037T1565 745Q1498 400 1256 186T689 -29Q548 -29 438 14T243 143L22 -57L-43 12L184 219Q118 324 101 454T115 745Q182 1091 424 1305T990 1520Q1131 1520 1243 1478T1435 1352L1651 1550L1717 1479L1494 1276Z" />
<glyph unicode="&#xd9;" glyph-name="Ugrave" horiz-adv-x="1726" d="M414 1386H223L244 1493H828L807 1386H616L466 614Q410 328 482 215T783 102T1127 215T1298 614L1448 1386H1257L1278 1493H1782L1761 1386H1571L1417 594Q1351 253 1193 112T720 -29T300 113T260
594L414 1386ZM1102 1899L1233 1635H1116L906 1899H1102Z" />
<glyph unicode="&#xda;" glyph-name="Uacute" horiz-adv-x="1726" d="M414 1386H223L244 1493H828L807 1386H616L466 614Q410 328 482 215T783 102T1127 215T1298 614L1448 1386H1257L1278 1493H1782L1761 1386H1571L1417 594Q1351 253 1193 112T720 -29T300 113T260
594L414 1386ZM1215 1899H1412L1098 1635H981L1215 1899Z" />
<glyph unicode="&#xdb;" glyph-name="Ucircumflex" horiz-adv-x="1726" d="M414 1386H223L244 1493H828L807 1386H616L466 614Q410 328 482 215T783 102T1127 215T1298 614L1448 1386H1257L1278 1493H1782L1761 1386H1571L1417 594Q1351 253 1193 112T720 -29T300
113T260 594L414 1386ZM1064 1899H1240L1419 1635H1303L1132 1796L897 1635H781L1064 1899Z" />
<glyph unicode="&#xdc;" glyph-name="Udieresis" horiz-adv-x="1726" d="M414 1386H223L244 1493H828L807 1386H616L466 614Q410 328 482 215T783 102T1127 215T1298 614L1448 1386H1257L1278 1493H1782L1761 1386H1571L1417 594Q1351 253 1193 112T720 -29T300
113T260 594L414 1386ZM968 1884Q1016 1884 1043 1849Q1071 1814 1062 1768Q1052 1718 1012 1685Q972 1651 922 1651Q873 1651 846 1685Q819 1718 829 1768Q838 1814 879 1849Q921 1884 968 1884ZM1358 1884Q1405 1884 1432 1849Q1460 1814 1451 1768Q1441 1718
1401 1685Q1361 1651 1312 1651Q1262 1651 1235 1685Q1208 1718 1218 1768Q1227 1814 1268 1849Q1310 1884 1358 1884Z" />
<glyph unicode="&#xdd;" glyph-name="Yacute" horiz-adv-x="1352" d="M242 0L262 106H453L558 643L241 1386H101L122 1493H677L656 1386H482L738 782L1228 1386H1060L1081 1493H1515L1494 1386H1353L764 662L655 106H846L826 0H242ZM987 1899H1184L870 1635H753L987
1899Z" />
<glyph unicode="&#xde;" glyph-name="Thorn" horiz-adv-x="1384" d="M445 434H709Q858 434 952 514T1075 748Q1105 900 1043 980T831 1061H567L445 434ZM-32 0L-12 106H178L427 1386H237L258 1493H882L861 1386H630L588 1167H901Q1125 1167 1234 1054T1305 748Q1268
554 1114 440T737 326H424L381 106H612L592 0H-32Z" />
<glyph unicode="&#xdf;" glyph-name="germandbls" horiz-adv-x="1368" d="M1027 1210Q1042 1329 985 1393T809 1458Q677 1458 604 1394T503 1190L259 -66Q224 -244 114 -335T-175 -426L-163 -328Q-58 -328 -7 -272Q46 -212 75 -66L318 1186Q352 1362 485 1459T828
1556Q1041 1556 1132 1452T1195 1137H1173Q1028 1137 934 1083T822 936Q811 884 830 846T914 760L993 705Q1128 606 1171 521T1192 322Q1162 167 1028 69T708 -29Q623 -29 543 -11T390 43L435 276H544Q529 175 574 123T721 70Q832 70 907 130T1003 295Q1019 379
991 438Q962 495 859 569L784 623Q692 689 660 752Q628 817 644 899Q668 1021 768 1103T1027 1210Z" />
<glyph unicode="&#xe0;" glyph-name="agrave" horiz-adv-x="1221" d="M744 166Q611 -29 396 -29Q220 -29 131 90Q69 174 69 294Q69 345 80 402Q148 755 394 937Q603 1092 856 1092Q1026 1092 1084 1063L898 106H1056L1036 0H712L744 166ZM263 300Q263 86 470 86Q596
86 681 186T805 479L898 961V961Q898 990 818 990Q626 990 477 840Q329 689 276 415Q263 351 263 300ZM621 1636L807 1260H690L424 1636H621Z" />
<glyph unicode="&#xe1;" glyph-name="aacute" horiz-adv-x="1221" d="M744 166Q611 -29 396 -29Q220 -29 131 90Q69 174 69 294Q69 345 80 402Q148 755 394 937Q603 1092 856 1092Q1026 1092 1084 1063L898 106H1056L1036 0H712L744 166ZM263 300Q263 86 470 86Q596
86 681 186T805 479L898 961V961Q898 990 818 990Q626 990 477 840Q329 689 276 415Q263 351 263 300ZM915 1638H1114L700 1262H583L915 1638Z" />
<glyph unicode="&#xe2;" glyph-name="acircumflex" horiz-adv-x="1221" d="M744 166Q611 -29 396 -29Q220 -29 131 90Q69 174 69 294Q69 345 80 402Q148 755 394 937Q603 1092 856 1092Q1026 1092 1084 1063L898 106H1056L1036 0H712L744 166ZM263 300Q263 86
470 86Q596 86 681 186T805 479L898 961V961Q898 990 818 990Q626 990 477 840Q329 689 276 415Q263 351 263 300ZM714 1638H882L1043 1262H927L775 1522L521 1262H405L714 1638Z" />
<glyph unicode="&#xe3;" glyph-name="atilde" horiz-adv-x="1221" d="M744 166Q611 -29 396 -29Q220 -29 131 90Q69 174 69 294Q69 345 80 402Q148 755 394 937Q603 1092 856 1092Q1026 1092 1084 1063L898 106H1056L1036 0H712L744 166ZM263 300Q263 86 470 86Q596
86 681 186T805 479L898 961V961Q898 990 818 990Q626 990 477 840Q329 689 276 415Q263 351 263 300ZM760 1370L714 1425Q693 1449 678 1456Q663 1464 644 1464Q602 1464 570 1424Q538 1385 519 1309H423Q451 1444 516 1518Q581 1591 672 1591Q710 1591 740 1577Q769
1563 800 1530L846 1475Q864 1452 880 1444Q895 1436 916 1436Q959 1436 991 1476T1041 1591H1137Q1109 1456 1044 1382Q979 1309 888 1309Q850 1309 820 1323Q791 1337 760 1370Z" />
<glyph unicode="&#xe4;" glyph-name="adieresis" horiz-adv-x="1221" d="M744 166Q611 -29 396 -29Q220 -29 131 90Q69 174 69 294Q69 345 80 402Q148 755 394 937Q603 1092 856 1092Q1026 1092 1084 1063L898 106H1056L1036 0H712L744 166ZM263 300Q263 86 470
86Q596 86 681 186T805 479L898 961V961Q898 990 818 990Q626 990 477 840Q329 689 276 415Q263 351 263 300ZM591 1569Q639 1569 667 1534Q694 1500 685 1452Q675 1401 636 1368Q596 1335 545 1335Q495 1335 469 1368Q442 1401 452 1452Q461 1500 503 1534Q544
1569 591 1569ZM981 1569Q1028 1569 1056 1534Q1083 1500 1074 1452Q1064 1401 1025 1368Q985 1335 935 1335Q884 1335 858 1368Q831 1401 841 1452Q850 1500 892 1534Q933 1569 981 1569Z" />
<glyph unicode="&#xe5;" glyph-name="aring" horiz-adv-x="1221" d="M744 166Q611 -29 396 -29Q220 -29 131 90Q69 174 69 294Q69 345 80 402Q148 755 394 937Q603 1092 856 1092Q1026 1092 1084 1063L898 106H1056L1036 0H712L744 166ZM263 300Q263 86 470 86Q596
86 681 186T805 479L898 961V961Q898 990 818 990Q626 990 477 840Q329 689 276 415Q263 351 263 300ZM1055 1639T1033 1524T916 1329T706 1249T527 1329T485 1524T602 1718Q697 1798 812 1798T991 1718Q1055 1639 1033 1524ZM911 1524Q923 1587 888 1631Q852 1675
788 1675Q723 1675 671 1632Q620 1588 607 1524Q594 1459 630 1416Q665 1372 730 1372Q794 1372 846 1416Q899 1460 911 1524Z" />
<glyph unicode="&#xe6;" glyph-name="ae" horiz-adv-x="1925" d="M1526 632Q1638 698 1638 822Q1638 993 1411 993Q1277 993 1184 891T1034 514Q1351 528 1526 632ZM1195 -29Q957 -29 851 167Q707 -29 410 -29Q403 -29 396 -29Q220 -29 131 90Q69 174 69 294Q69
345 80 402Q148 755 394 937Q603 1092 856 1092Q1026 1092 1084 1063L1065 966Q1224 1092 1442 1092Q1833 1092 1833 815Q1833 416 1013 408Q1009 370 1009 336Q1009 242 1043 180Q1102 70 1260 70Q1376 70 1433 105Q1535 168 1559 249H1694Q1654 122 1505 33Q1401
-29 1195 -29ZM276 415Q263 350 263 297Q263 86 470 86Q596 86 681 186T805 479L898 961Q898 990 818 990Q626 990 477 840Q329 689 276 415Z" />
<glyph unicode="&#xe7;" glyph-name="ccedilla" horiz-adv-x="1147" d="M1012 319Q940 149 812 60T507 -29Q275 -29 164 124Q87 231 87 385Q87 454 102 532Q152 787 322 939T725 1092Q826 1092 921 1069T1108 997L1056 725H949Q949 739 949 751Q949 871 897 929Q839
993 708 993Q559 993 461 878T317 532Q297 427 297 345Q297 249 325 186Q378 70 528 70Q647 70 730 132T864 319H1012ZM812 0Q864 -64 884 -120T896 -225Q880 -306 809 -350T625 -395Q583 -395 540 -389T453 -371L479 -240Q516 -257 554 -265T627 -274Q684 -274
722 -248T769 -176Q775 -148 762 -104T715 0H812Z" />
<glyph unicode="&#xe8;" glyph-name="egrave" horiz-adv-x="1212" d="M300 408Q296 370 296 336Q296 242 330 180Q389 70 547 70Q663 70 720 105Q822 168 846 249H981Q941 122 792 33Q688 -29 482 -29T165 124Q87 231 87 386Q87 454 102 531Q151 784 320 938T729
1092Q1120 1092 1120 815Q1120 612 915 513Q706 412 300 408ZM813 632Q925 698 925 822Q925 993 698 993Q564 993 471 891T321 514Q642 529 813 632ZM658 1636L844 1260H727L461 1636H658Z" />
<glyph unicode="&#xe9;" glyph-name="eacute" horiz-adv-x="1212" d="M300 408Q296 370 296 336Q296 242 330 180Q389 70 547 70Q663 70 720 105Q822 168 846 249H981Q941 122 792 33Q688 -29 482 -29T165 124Q87 231 87 386Q87 454 102 531Q151 784 320 938T729
1092Q1120 1092 1120 815Q1120 612 915 513Q706 412 300 408ZM813 632Q925 698 925 822Q925 993 698 993Q564 993 471 891T321 514Q642 529 813 632ZM952 1638H1151L737 1262H620L952 1638Z" />
<glyph unicode="&#xea;" glyph-name="ecircumflex" horiz-adv-x="1212" d="M300 408Q296 370 296 336Q296 242 330 180Q389 70 547 70Q663 70 720 105Q822 168 846 249H981Q941 122 792 33Q688 -29 482 -29T165 124Q87 231 87 386Q87 454 102 531Q151 784 320
938T729 1092Q1120 1092 1120 815Q1120 612 915 513Q706 412 300 408ZM813 632Q925 698 925 822Q925 993 698 993Q564 993 471 891T321 514Q642 529 813 632ZM751 1638H919L1080 1262H964L812 1522L558 1262H442L751 1638Z" />
<glyph unicode="&#xeb;" glyph-name="edieresis" horiz-adv-x="1212" d="M300 408Q296 370 296 336Q296 242 330 180Q389 70 547 70Q663 70 720 105Q822 168 846 249H981Q941 122 792 33Q688 -29 482 -29T165 124Q87 231 87 386Q87 454 102 531Q151 784 320 938T729
1092Q1120 1092 1120 815Q1120 612 915 513Q706 412 300 408ZM813 632Q925 698 925 822Q925 993 698 993Q564 993 471 891T321 514Q642 529 813 632ZM628 1569Q676 1569 704 1534Q731 1500 722 1452Q712 1401 673 1368Q633 1335 582 1335Q532 1335 506 1368Q479
1401 489 1452Q498 1500 540 1534Q581 1569 628 1569ZM1018 1569Q1065 1569 1093 1534Q1120 1500 1111 1452Q1101 1401 1062 1368Q1022 1335 972 1335Q921 1335 895 1368Q868 1401 878 1452Q887 1500 929 1534Q970 1569 1018 1569Z" />
<glyph unicode="&#xec;" glyph-name="igrave" horiz-adv-x="655" d="M351 106H525L505 0H147L333 956H157L177 1063H537L351 106ZM380 1636L566 1260H449L183 1636H380Z" />
<glyph unicode="&#xed;" glyph-name="iacute" horiz-adv-x="655" d="M351 106H525L505 0H147L333 956H157L177 1063H537L351 106ZM674 1638H873L459 1262H342L674 1638Z" />
<glyph unicode="&#xee;" glyph-name="icircumflex" horiz-adv-x="655" d="M351 106H525L505 0H147L333 956H157L177 1063H537L351 106ZM473 1638H641L802 1262H686L534 1522L280 1262H164L473 1638Z" />
<glyph unicode="&#xef;" glyph-name="idieresis" horiz-adv-x="655" d="M351 106H525L505 0H147L333 956H157L177 1063H537L351 106ZM350 1569Q398 1569 426 1534Q453 1500 444 1452Q434 1401 395 1368Q355 1335 304 1335Q254 1335 228 1368Q201 1401 211 1452Q220
1500 262 1534Q303 1569 350 1569ZM740 1569Q787 1569 815 1534Q842 1500 833 1452Q823 1401 784 1368Q744 1335 694 1335Q643 1335 617 1368Q590 1401 600 1452Q609 1500 651 1534Q692 1569 740 1569Z" />
<glyph unicode="&#xf0;" glyph-name="eth" horiz-adv-x="1233" d="M853 928Q810 937 770 941T690 946Q517 946 414 839T267 508Q227 298 283 184T481 70Q625 70 725 184T866 512Q888 624 885 729T853 928ZM866 1307Q1016 1140 1071 945T1085 532Q1036 278 866
125T462 -29Q233 -29 120 122T54 518Q100 754 269 899T667 1044Q702 1044 738 1041T826 1030Q814 1083 788 1136T723 1245L372 1096L350 1174L669 1309Q619 1367 549 1407T387 1470L422 1556Q536 1530 631 1483T806 1368L1157 1518L1178 1440L866 1307Z" />
<glyph unicode="&#xf1;" glyph-name="ntilde" horiz-adv-x="1319" d="M144 0L330 956H154L174 1063H534L498 874Q570 982 662 1037T862 1092Q1038 1092 1102 991Q1140 930 1140 828Q1140 761 1123 676L1012 106H1176L1156 0H807L927 618Q947 721 947 790Q947 851
931 886Q897 958 776 958Q648 958 563 865T443 592L328 0H144ZM790 1370L744 1425Q723 1449 708 1456Q693 1464 674 1464Q632 1464 600 1424Q568 1385 549 1309H453Q481 1444 546 1518Q611 1591 702 1591Q740 1591 770 1577Q799 1563 830 1530L876 1475Q894 1452
910 1444Q925 1436 946 1436Q989 1436 1021 1476T1071 1591H1167Q1139 1456 1074 1382Q1009 1309 918 1309Q880 1309 850 1323Q821 1337 790 1370Z" />
<glyph unicode="&#xf2;" glyph-name="ograve" horiz-adv-x="1233" d="M526 70Q674 70 772 187T915 532Q935 636 935 717Q935 813 907 876Q854 993 706 993T460 877T317 532Q297 428 297 348Q297 251 326 187Q379 70 526 70ZM507 -29Q275 -29 164 124Q87 231 87
385Q87 454 102 532Q151 786 321 939T725 1092T1069 939Q1145 833 1145 679Q1145 610 1130 532Q1081 278 911 125T507 -29ZM668 1636L854 1260H737L471 1636H668Z" />
<glyph unicode="&#xf3;" glyph-name="oacute" horiz-adv-x="1233" d="M526 70Q674 70 772 187T915 532Q935 636 935 717Q935 813 907 876Q854 993 706 993T460 877T317 532Q297 428 297 348Q297 251 326 187Q379 70 526 70ZM507 -29Q275 -29 164 124Q87 231 87
385Q87 454 102 532Q151 786 321 939T725 1092T1069 939Q1145 833 1145 679Q1145 610 1130 532Q1081 278 911 125T507 -29ZM962 1638H1161L747 1262H630L962 1638Z" />
<glyph unicode="&#xf4;" glyph-name="ocircumflex" horiz-adv-x="1233" d="M526 70Q674 70 772 187T915 532Q935 636 935 717Q935 813 907 876Q854 993 706 993T460 877T317 532Q297 428 297 348Q297 251 326 187Q379 70 526 70ZM507 -29Q275 -29 164 124Q87 231
87 385Q87 454 102 532Q151 786 321 939T725 1092T1069 939Q1145 833 1145 679Q1145 610 1130 532Q1081 278 911 125T507 -29ZM761 1638H929L1090 1262H974L822 1522L568 1262H452L761 1638Z" />
<glyph unicode="&#xf5;" glyph-name="otilde" horiz-adv-x="1233" d="M526 70Q674 70 772 187T915 532Q935 636 935 717Q935 813 907 876Q854 993 706 993T460 877T317 532Q297 428 297 348Q297 251 326 187Q379 70 526 70ZM507 -29Q275 -29 164 124Q87 231 87
385Q87 454 102 532Q151 786 321 939T725 1092T1069 939Q1145 833 1145 679Q1145 610 1130 532Q1081 278 911 125T507 -29ZM807 1370L761 1425Q740 1449 725 1456Q710 1464 691 1464Q649 1464 617 1424Q585 1385 566 1309H470Q498 1444 563 1518Q628 1591 719 1591Q757
1591 787 1577Q816 1563 847 1530L893 1475Q911 1452 927 1444Q942 1436 963 1436Q1006 1436 1038 1476T1088 1591H1184Q1156 1456 1091 1382Q1026 1309 935 1309Q897 1309 867 1323Q838 1337 807 1370Z" />
<glyph unicode="&#xf6;" glyph-name="odieresis" horiz-adv-x="1233" d="M526 70Q674 70 772 187T915 532Q935 636 935 717Q935 813 907 876Q854 993 706 993T460 877T317 532Q297 428 297 348Q297 251 326 187Q379 70 526 70ZM507 -29Q275 -29 164 124Q87 231
87 385Q87 454 102 532Q151 786 321 939T725 1092T1069 939Q1145 833 1145 679Q1145 610 1130 532Q1081 278 911 125T507 -29ZM638 1569Q686 1569 714 1534Q741 1500 732 1452Q722 1401 683 1368Q643 1335 592 1335Q542 1335 516 1368Q489 1401 499 1452Q508 1500
550 1534Q591 1569 638 1569ZM1028 1569Q1075 1569 1103 1534Q1130 1500 1121 1452Q1111 1401 1072 1368Q1032 1335 982 1335Q931 1335 905 1368Q878 1401 888 1452Q897 1500 939 1534Q980 1569 1028 1569Z" />
<glyph unicode="&#xf7;" glyph-name="divide" horiz-adv-x="1716" d="M725 1012Q725 1068 763 1106T858 1145Q913 1145 952 1106T991 1012Q991 956 952 918T858 879Q801 879 763 917T725 1012ZM725 216T725 272T763 367T858 406Q913 406 952 367T991 272Q991 217
952 178T858 139Q801 139 763 177ZM217 723H1499V561H217V723Z" />
<glyph unicode="&#xf8;" glyph-name="oslash" horiz-adv-x="1233" d="M908 879Q881 936 831 964T706 993Q559 993 460 876T317 532Q303 460 299 401T300 293L908 879ZM325 190Q353 129 402 100T526 70Q673 70 772 187T915 532Q930 608 934 668T933 780L325 190ZM1080
922Q1128 848 1140 749T1130 532Q1081 278 911 125T507 -29Q413 -29 338 -3T207 78L30 -94L-33 -31L150 147Q104 224 92 320T102 532Q151 786 321 939T725 1092Q819 1092 894 1067T1023 991L1195 1157L1258 1094L1080 922Z" />
<glyph unicode="&#xf9;" glyph-name="ugrave" horiz-adv-x="1319" d="M991 1063H1175L989 106H1163L1143 0H785L821 188Q749 82 658 27T459 -29Q282 -29 218 72Q179 132 179 235Q179 302 196 387L306 956H140L161 1063H512L392 444Q372 341 372 273Q372 212 388
178Q421 106 543 106Q671 106 756 200T876 473L991 1063ZM636 1636L822 1260H705L439 1636H636Z" />
<glyph unicode="&#xfa;" glyph-name="uacute" horiz-adv-x="1319" d="M991 1063H1175L989 106H1163L1143 0H785L821 188Q749 82 658 27T459 -29Q282 -29 218 72Q179 132 179 235Q179 302 196 387L306 956H140L161 1063H512L392 444Q372 341 372 273Q372 212 388
178Q421 106 543 106Q671 106 756 200T876 473L991 1063ZM930 1638H1129L715 1262H598L930 1638Z" />
<glyph unicode="&#xfb;" glyph-name="ucircumflex" horiz-adv-x="1319" d="M991 1063H1175L989 106H1163L1143 0H785L821 188Q749 82 658 27T459 -29Q282 -29 218 72Q179 132 179 235Q179 302 196 387L306 956H140L161 1063H512L392 444Q372 341 372 273Q372 212
388 178Q421 106 543 106Q671 106 756 200T876 473L991 1063ZM729 1638H897L1058 1262H942L790 1522L536 1262H420L729 1638Z" />
<glyph unicode="&#xfc;" glyph-name="udieresis" horiz-adv-x="1319" d="M991 1063H1175L989 106H1163L1143 0H785L821 188Q749 82 658 27T459 -29Q282 -29 218 72Q179 132 179 235Q179 302 196 387L306 956H140L161 1063H512L392 444Q372 341 372 273Q372 212
388 178Q421 106 543 106Q671 106 756 200T876 473L991 1063ZM606 1569Q654 1569 682 1534Q709 1500 700 1452Q690 1401 651 1368Q611 1335 560 1335Q510 1335 484 1368Q457 1401 467 1452Q476 1500 518 1534Q559 1569 606 1569ZM996 1569Q1043 1569 1071 1534Q1098
1500 1089 1452Q1079 1401 1040 1368Q1000 1335 950 1335Q899 1335 873 1368Q846 1401 856 1452Q865 1500 907 1534Q948 1569 996 1569Z" />
<glyph unicode="&#xfd;" glyph-name="yacute" horiz-adv-x="1157" d="M1178 1054Q1079 482 905 180Q650 -263 445 -396Q354 -455 114 -455Q67 -455 20 -447T-76 -424L-36 -221H58Q56 -237 56 -252Q56 -294 74 -318Q99 -352 164 -352Q340 -352 493 -199L242 956H121L142
1063H417L653 8Q814 249 853 348Q979 659 1004 947H883L904 1054H1178ZM926 1638H1125L711 1262H594L926 1638Z" />
<glyph unicode="&#xfe;" glyph-name="thorn" horiz-adv-x="1311" d="M424 584L403 479Q388 400 388 337Q388 246 420 186Q474 86 614 86Q755 86 849 199T987 532Q1006 633 1006 712Q1006 804 979 865Q928 977 787 977Q647 977 554 876T424 584ZM408 1450H231L252
1556H613L485 897Q558 997 650 1044T866 1092Q1062 1092 1156 937Q1218 835 1218 692Q1218 617 1202 532Q1153 282 999 127T649 -29Q526 -29 452 18T342 166L227 -426H43L408 1450Z" />
<glyph unicode="&#xff;" glyph-name="ydieresis" horiz-adv-x="1157" d="M1178 1054Q1079 482 905 180Q650 -263 445 -396Q354 -455 114 -455Q67 -455 20 -447T-76 -424L-36 -221H58Q56 -237 56 -252Q56 -294 74 -318Q99 -352 164 -352Q340 -352 493 -199L242
956H121L142 1063H417L653 8Q814 249 853 348Q979 659 1004 947H883L904 1054H1178ZM602 1569Q650 1569 678 1534Q705 1500 696 1452Q686 1401 647 1368Q607 1335 556 1335Q506 1335 480 1368Q453 1401 463 1452Q472 1500 514 1534Q555 1569 602 1569ZM992 1569Q1039
1569 1067 1534Q1094 1500 1085 1452Q1075 1401 1036 1368Q996 1335 946 1335Q895 1335 869 1368Q842 1401 852 1452Q861 1500 903 1534Q944 1569 992 1569Z" />
<glyph unicode="&#x100;" glyph-name="Amacron" horiz-adv-x="1479" d="M620 1841H1218L1190 1693H592L620 1841ZM370 541H918L782 1251L370 541ZM-157 0L-137 106H-6L796 1493H964L1228 106H1374L1354 0H811L831 106H997L936 434H308L119 106H283L263 0H-157Z" />
<glyph unicode="&#x101;" glyph-name="amacron" horiz-adv-x="1221" d="M431 1526H1029L1001 1378H403L431 1526ZM744 166Q611 -29 396 -29Q220 -29 131 90Q69 174 69 294Q69 345 80 402Q148 755 394 937Q603 1092 856 1092Q1026 1092 1084 1063L898 106H1056L1036
0H712L744 166ZM263 300Q263 86 470 86Q596 86 681 186T805 479L898 961V961Q898 990 818 990Q626 990 477 840Q329 689 276 415Q263 351 263 300Z" />
<glyph unicode="&#x102;" glyph-name="Abreve" horiz-adv-x="1479" d="M623 1897H719Q717 1818 762 1783Q807 1747 907 1747T1066 1783Q1125 1818 1153 1897H1249Q1211 1754 1118 1682T880 1610T670 1682T623 1897ZM370 541H918L782 1251L370 541ZM-157 0L-137
106H-6L796 1493H964L1228 106H1374L1354 0H811L831 106H997L936 434H308L119 106H283L263 0H-157Z" />
<glyph unicode="&#x103;" glyph-name="abreve" horiz-adv-x="1221" d="M447 1837H543Q541 1758 586 1723Q631 1687 731 1687T890 1723Q949 1758 977 1837H1073Q1035 1694 942 1622T704 1550T494 1622T447 1837ZM744 166Q611 -29 396 -29Q220 -29 131 90Q69 174
69 294Q69 345 80 402Q148 755 394 937Q603 1092 856 1092Q1026 1092 1084 1063L898 106H1056L1036 0H712L744 166ZM263 300Q263 86 470 86Q596 86 681 186T805 479L898 961V961Q898 990 818 990Q626 990 477 840Q329 689 276 415Q263 351 263 300Z" />
<glyph unicode="&#x104;" glyph-name="Aogonek" horiz-adv-x="1479" d="M814 0H908L907 -2Q796 -125 787 -172Q778 -218 806 -246T890 -274Q917 -274 947 -268T1010 -248L984 -375Q947 -384 913 -388T846 -393Q733 -393 680 -349T642 -223Q651 -174 691 -122T814
0ZM370 541H918L782 1251L370 541ZM-157 0L-137 106H-6L796 1493H964L1228 106H1374L1354 0H811L831 106H997L936 434H308L119 106H283L263 0H-157Z" />
<glyph unicode="&#x105;" glyph-name="aogonek" horiz-adv-x="1221" d="M709 0H803L802 -2Q691 -125 682 -172Q673 -218 701 -246T785 -274Q812 -274 842 -268T905 -248L879 -375Q842 -384 808 -388T741 -393Q628 -393 575 -349T537 -223Q546 -174 586 -122T709
0ZM744 166Q611 -29 396 -29Q220 -29 131 90Q69 174 69 294Q69 345 80 402Q148 755 394 937Q603 1092 856 1092Q1026 1092 1084 1063L898 106H1056L1036 0H712L744 166ZM263 300Q263 86 470 86Q596 86 681 186T805 479L898 961V961Q898 990 818 990Q626 990 477
840Q329 689 276 415Q263 351 263 300Z" />
<glyph unicode="&#x106;" glyph-name="Cacute" horiz-adv-x="1567" d="M1376 395Q1269 186 1093 79T678 -29Q532 -29 417 21T224 168Q134 280 107 422T115 745Q183 1093 425 1306T997 1520Q1119 1520 1250 1488T1528 1391L1462 1047H1349Q1348 1235 1254 1324T959
1413Q720 1413 564 1244T344 745Q280 417 370 248T699 78Q866 78 989 157T1192 395H1376ZM1133 1899H1330L1016 1635H899L1133 1899Z" />
<glyph unicode="&#x107;" glyph-name="cacute" horiz-adv-x="1147" d="M1012 319Q940 149 812 60T507 -29Q275 -29 164 124Q87 231 87 385Q87 454 102 532Q152 787 322 939T725 1092Q826 1092 921 1069T1108 997L1056 725H949Q949 739 949 751Q949 871 897 929Q839
993 708 993Q559 993 461 878T317 532Q297 427 297 345Q297 249 325 186Q378 70 528 70Q647 70 730 132T864 319H1012ZM952 1638H1151L737 1262H620L952 1638Z" />
<glyph unicode="&#x108;" glyph-name="Ccircumflex" horiz-adv-x="1567" d="M990 1899H1166L1345 1635H1229L1058 1796L823 1635H707L990 1899ZM1376 395Q1269 186 1093 79T678 -29Q532 -29 417 21T224 168Q134 280 107 422T115 745Q183 1093 425 1306T997 1520Q1119
1520 1250 1488T1528 1391L1462 1047H1349Q1348 1235 1254 1324T959 1413Q720 1413 564 1244T344 745Q280 417 370 248T699 78Q866 78 989 157T1192 395H1376Z" />
<glyph unicode="&#x109;" glyph-name="ccircumflex" horiz-adv-x="1147" d="M761 1638H929L1090 1262H974L822 1522L568 1262H452L761 1638ZM1012 319Q940 149 812 60T507 -29Q275 -29 164 124Q87 231 87 385Q87 454 102 532Q152 787 322 939T725 1092Q826 1092
921 1069T1108 997L1056 725H949Q949 739 949 751Q949 871 897 929Q839 993 708 993Q559 993 461 878T317 532Q297 427 297 345Q297 249 325 186Q378 70 528 70Q647 70 730 132T864 319H1012Z" />
<glyph unicode="&#x10a;" glyph-name="Cdotaccent" horiz-adv-x="1567" d="M1063 1886T1110 1886T1185 1851T1204 1770Q1194 1720 1154 1687Q1114 1653 1064 1653T987 1687Q960 1720 970 1770Q979 1816 1021 1851ZM1376 395Q1269 186 1093 79T678 -29Q532 -29
417 21T224 168Q134 280 107 422T115 745Q183 1093 425 1306T997 1520Q1119 1520 1250 1488T1528 1391L1462 1047H1349Q1348 1235 1254 1324T959 1413Q720 1413 564 1244T344 745Q280 417 370 248T699 78Q866 78 989 157T1192 395H1376Z" />
<glyph unicode="&#x10b;" glyph-name="cdotaccent" horiz-adv-x="1147" d="M781 1569T829 1569T905 1534Q932 1500 923 1452Q913 1401 874 1368Q834 1335 783 1335T706 1368Q679 1401 689 1452Q698 1500 740 1534Q781 1569 829 1569ZM1012 319Q940 149 812 60T507
-29Q275 -29 164 124Q87 231 87 385Q87 454 102 532Q152 787 322 939T725 1092Q826 1092 921 1069T1108 997L1056 725H949Q949 739 949 751Q949 871 897 929Q839 993 708 993Q559 993 461 878T317 532Q297 427 297 345Q297 249 325 186Q378 70 528 70Q647 70 730
132T864 319H1012Z" />
<glyph unicode="&#x10c;" glyph-name="Ccaron" horiz-adv-x="1567" d="M1376 395Q1269 186 1093 79T678 -29Q532 -29 417 21T224 168Q134 280 107 422T115 745Q183 1093 425 1306T997 1520Q1119 1520 1250 1488T1528 1391L1462 1047H1349Q1348 1235 1254 1324T959
1413Q720 1413 564 1244T344 745Q280 417 370 248T699 78Q866 78 989 157T1192 395H1376ZM939 1635L760 1899H876L1047 1737L1282 1899H1398L1115 1635H939Z" />
<glyph unicode="&#x10d;" glyph-name="ccaron" horiz-adv-x="1147" d="M1012 319Q940 149 812 60T507 -29Q275 -29 164 124Q87 231 87 385Q87 454 102 532Q152 787 322 939T725 1092Q826 1092 921 1069T1108 997L1056 725H949Q949 739 949 751Q949 871 897 929Q839
993 708 993Q559 993 461 878T317 532Q297 427 297 345Q297 249 325 186Q378 70 528 70Q647 70 730 132T864 319H1012ZM675 1262L514 1638H630L782 1378L1036 1638H1152L843 1262H675Z" />
<glyph unicode="&#x10e;" glyph-name="Dcaron" horiz-adv-x="1642" d="M381 106H567Q858 106 1046 272T1294 748T1232 1222T816 1386H630L381 106ZM-32 0L-12 106H178L427 1386H237L258 1493H852Q1238 1493 1415 1296T1524 748Q1456 396 1202 198T562 0H-32ZM861
1635L682 1899H798L969 1737L1204 1899H1320L1037 1635H861Z" />
<glyph unicode="&#x10f;" glyph-name="dcaron" horiz-adv-x="1311" d="M1229 1556L927 0H743L775 166Q701 66 609 19T393 -29Q197 -29 103 126Q40 229 40 373Q40 447 57 532Q106 782 260 937T611 1092Q734 1092 808 1045T917 897L1024 1450H850L871 1556H1229ZM836
479L856 584Q871 662 871 725Q871 816 839 876Q786 977 646 977Q504 977 410 865T272 532Q252 431 252 353Q252 260 280 199Q330 86 472 86Q612 86 705 186T836 479ZM1468 1554H1667L1449 1178H1332L1468 1554Z" />
<glyph unicode="&#x110;" glyph-name="Dcroat" horiz-adv-x="1653" d="M389 106H577Q868 106 1056 272T1305 748T1242 1222T826 1386H638L533 844H869L845 719H509L389 106ZM-22 0L-2 106H188L308 719H108L132 844H332L437 1386H247L268 1493H862Q1248 1493 1425
1296T1534 748Q1466 396 1212 198T572 0H-22Z" />
<glyph unicode="&#x111;" glyph-name="" horiz-adv-x="1311" d="M1165 1227L927 0H743L775 166Q701 66 609 19T393 -29Q197 -29 103 126Q40 229 40 373Q40 447 57 532Q106 782 260 937T611 1092Q734 1092 808 1045T917 897L981 1227H655L676 1333H1002L1024 1450H850L871
1556H1229L1186 1333H1362L1341 1227H1165ZM836 479L856 584Q871 662 871 725Q871 816 839 876Q786 977 646 977Q504 977 410 865T272 532Q252 431 252 353Q252 260 280 199Q330 86 472 86Q612 86 705 186T836 479Z" />
<glyph unicode="&#x112;" glyph-name="Emacron" horiz-adv-x="1495" d="M659 1842H1257L1229 1694H631L659 1842ZM-32 0L-12 106H178L427 1386H237L258 1493H1460L1396 1161H1273L1313 1370H627L530 870H1019L1055 1057H1178L1082 561H959L995 748H506L385 123H1087L1127
332H1250L1186 0H-32Z" />
<glyph unicode="&#x113;" glyph-name="emacron" horiz-adv-x="1212" d="M490 1527H1088L1060 1379H462L490 1527ZM300 408Q296 370 296 336Q296 242 330 180Q389 70 547 70Q663 70 720 105Q822 168 846 249H981Q941 122 792 33Q688 -29 482 -29T165 124Q87 231
87 386Q87 454 102 531Q151 784 320 938T729 1092Q1120 1092 1120 815Q1120 612 915 513Q706 412 300 408ZM813 632Q925 698 925 822Q925 993 698 993Q564 993 471 891T321 514Q642 529 813 632Z" />
<glyph unicode="&#x114;" glyph-name="Ebreve" horiz-adv-x="1495" d="M683 1901H777Q784 1846 832 1819T972 1792T1123 1819T1211 1901H1305Q1262 1784 1170 1721Q1077 1659 946 1659Q814 1659 747 1721T683 1901ZM-32 0L-12 106H178L427 1386H237L258 1493H1460L1396
1161H1273L1313 1370H627L530 870H1019L1055 1057H1178L1082 561H959L995 748H506L385 123H1087L1127 332H1250L1186 0H-32Z" />
<glyph unicode="&#x115;" glyph-name="ebreve" horiz-adv-x="1212" d="M503 1608H599Q597 1529 642 1494Q687 1458 787 1458T946 1494Q1005 1529 1033 1608H1129Q1091 1465 998 1393T760 1321T550 1393T503 1608ZM300 408Q296 370 296 336Q296 242 330 180Q389
70 547 70Q663 70 720 105Q822 168 846 249H981Q941 122 792 33Q688 -29 482 -29T165 124Q87 231 87 386Q87 454 102 531Q151 784 320 938T729 1092Q1120 1092 1120 815Q1120 612 915 513Q706 412 300 408ZM813 632Q925 698 925 822Q925 993 698 993Q564 993 471
891T321 514Q642 529 813 632Z" />
<glyph unicode="&#x116;" glyph-name="Edotaccent" horiz-adv-x="1495" d="M981 1886T1028 1886T1103 1851T1122 1770Q1112 1720 1072 1687Q1032 1653 982 1653T905 1687Q878 1720 888 1770Q897 1816 939 1851ZM-32 0L-12 106H178L427 1386H237L258 1493H1460L1396
1161H1273L1313 1370H627L530 870H1019L1055 1057H1178L1082 561H959L995 748H506L385 123H1087L1127 332H1250L1186 0H-32Z" />
<glyph unicode="&#x117;" glyph-name="edotaccent" horiz-adv-x="1212" d="M771 1569T819 1569T895 1534Q922 1500 913 1452Q903 1401 864 1368Q824 1335 773 1335T696 1368Q669 1401 679 1452Q688 1500 730 1534Q771 1569 819 1569ZM300 408Q296 370 296 336Q296
242 330 180Q389 70 547 70Q663 70 720 105Q822 168 846 249H981Q941 122 792 33Q688 -29 482 -29T165 124Q87 231 87 386Q87 454 102 531Q151 784 320 938T729 1092Q1120 1092 1120 815Q1120 612 915 513Q706 412 300 408ZM813 632Q925 698 925 822Q925 993 698
993Q564 993 471 891T321 514Q642 529 813 632Z" />
<glyph unicode="&#x118;" glyph-name="Eogonek" horiz-adv-x="1495" d="M944 0H1038L1037 -2Q926 -125 917 -172Q908 -218 936 -246T1020 -274Q1047 -274 1077 -268T1140 -248L1114 -375Q1077 -384 1043 -388T976 -393Q863 -393 810 -349T772 -223Q781 -174 821
-122T944 0ZM-32 0L-12 106H178L427 1386H237L258 1493H1460L1396 1161H1273L1313 1370H627L530 870H1019L1055 1057H1178L1082 561H959L995 748H506L385 123H1087L1127 332H1250L1186 0H-32Z" />
<glyph unicode="&#x119;" glyph-name="eogonek" horiz-adv-x="1212" d="M616 0H710L709 -2Q598 -125 589 -172Q580 -218 608 -246T692 -274Q719 -274 749 -268T812 -248L786 -375Q749 -384 715 -388T648 -393Q535 -393 482 -349T444 -223Q453 -174 493 -122T616
0ZM300 408Q296 370 296 336Q296 242 330 180Q389 70 547 70Q663 70 720 105Q822 168 846 249H981Q941 122 792 33Q688 -29 482 -29T165 124Q87 231 87 386Q87 454 102 531Q151 784 320 938T729 1092Q1120 1092 1120 815Q1120 612 915 513Q706 412 300 408ZM813
632Q925 698 925 822Q925 993 698 993Q564 993 471 891T321 514Q642 529 813 632Z" />
<glyph unicode="&#x11a;" glyph-name="Ecaron" horiz-adv-x="1495" d="M-32 0L-12 106H178L427 1386H237L258 1493H1460L1396 1161H1273L1313 1370H627L530 870H1019L1055 1057H1178L1082 561H959L995 748H506L385 123H1087L1127 332H1250L1186 0H-32ZM939 1635L760
1899H876L1047 1737L1282 1899H1398L1115 1635H939Z" />
<glyph unicode="&#x11b;" glyph-name="ecaron" horiz-adv-x="1212" d="M300 408Q296 370 296 336Q296 242 330 180Q389 70 547 70Q663 70 720 105Q822 168 846 249H981Q941 122 792 33Q688 -29 482 -29T165 124Q87 231 87 386Q87 454 102 531Q151 784 320 938T729
1092Q1120 1092 1120 815Q1120 612 915 513Q706 412 300 408ZM813 632Q925 698 925 822Q925 993 698 993Q564 993 471 891T321 514Q642 529 813 632ZM675 1262L514 1638H630L782 1378L1036 1638H1152L843 1262H675Z" />
<glyph unicode="&#x11c;" glyph-name="Gcircumflex" horiz-adv-x="1636" d="M1016 1899H1192L1371 1635H1255L1084 1796L849 1635H733L1016 1899ZM1370 1047Q1371 1234 1278 1323T986 1413Q728 1413 569 1247T344 745Q280 416 378 247T730 78Q843 78 951 106T1164
190L1239 575H958L979 682H1463L1354 125Q1206 48 1045 10T709 -29Q371 -29 209 182T115 745Q184 1099 429 1309T1019 1520Q1147 1520 1277 1491T1550 1401L1482 1047H1370Z" />
<glyph unicode="&#x11d;" glyph-name="gcircumflex" horiz-adv-x="1311" d="M749 1638H917L1078 1262H962L810 1522L556 1262H440L749 1638ZM1223 1063L1020 23Q974 -215 826 -330Q665 -455 442 -455Q337 -455 245 -436T72 -379L116 -156H212Q209 -260 267 -308T450
-356Q612 -356 705 -264Q798 -174 836 23L864 166Q791 66 698 19T488 -29Q312 -29 223 90Q167 165 161 269Q157 330 171 402Q240 755 485 937Q694 1091 938 1092Q1162 1093 1223 1063ZM1019 956Q1018 990 910 990Q715 990 568 840Q421 689 367 415Q352 334 356
273Q360 211 385 169Q434 86 562 86Q702 86 795 186T925 479L945 584L1019 956Z" />
<glyph unicode="&#x11e;" glyph-name="Gbreve" horiz-adv-x="1636" d="M1370 1047Q1371 1234 1278 1323T986 1413Q728 1413 569 1247T344 745Q280 416 378 247T730 78Q843 78 951 106T1164 190L1239 575H958L979 682H1463L1354 125Q1206 48 1045 10T709 -29Q371
-29 209 182T115 745Q184 1099 429 1309T1019 1520Q1147 1520 1277 1491T1550 1401L1482 1047H1370ZM785 1901H879Q886 1846 934 1819T1074 1792T1225 1819T1313 1901H1407Q1364 1784 1272 1721Q1179 1659 1048 1659Q916 1659 849 1721T785 1901Z" />
<glyph unicode="&#x11f;" glyph-name="gbreve" horiz-adv-x="1311" d="M1223 1063L1020 23Q974 -215 826 -330Q665 -455 442 -455Q337 -455 245 -436T72 -379L116 -156H212Q209 -260 267 -308T450 -356Q612 -356 705 -264Q798 -174 836 23L864 166Q791 66 698
19T488 -29Q312 -29 223 90Q167 165 161 269Q157 330 171 402Q240 755 485 937Q694 1091 938 1092Q1162 1093 1223 1063ZM1019 956Q1018 990 910 990Q715 990 568 840Q421 689 367 415Q352 334 356 273Q360 211 385 169Q434 86 562 86Q702 86 795 186T925 479L945
584L1019 956ZM552 1608H648Q646 1529 691 1494Q736 1458 836 1458T995 1494Q1054 1529 1082 1608H1178Q1140 1465 1047 1393T809 1321T599 1393T552 1608Z" />
<glyph unicode="&#x120;" glyph-name="Gdotaccent" horiz-adv-x="1636" d="M1089 1886T1136 1886T1211 1851T1230 1770Q1220 1720 1180 1687Q1140 1653 1090 1653T1013 1687Q986 1720 996 1770Q1005 1816 1047 1851ZM1370 1047Q1371 1234 1278 1323T986 1413Q728
1413 569 1247T344 745Q280 416 378 247T730 78Q843 78 951 106T1164 190L1239 575H958L979 682H1463L1354 125Q1206 48 1045 10T709 -29Q371 -29 209 182T115 745Q184 1099 429 1309T1019 1520Q1147 1520 1277 1491T1550 1401L1482 1047H1370Z" />
<glyph unicode="&#x121;" glyph-name="gdotaccent" horiz-adv-x="1311" d="M769 1569T817 1569T893 1534Q920 1500 911 1452Q901 1401 862 1368Q822 1335 771 1335T694 1368Q667 1401 677 1452Q686 1500 728 1534Q769 1569 817 1569ZM1223 1063L1020 23Q974 -215
826 -330Q665 -455 442 -455Q337 -455 245 -436T72 -379L116 -156H212Q209 -260 267 -308T450 -356Q612 -356 705 -264Q798 -174 836 23L864 166Q791 66 698 19T488 -29Q312 -29 223 90Q167 165 161 269Q157 330 171 402Q240 755 485 937Q694 1091 938 1092Q1162
1093 1223 1063ZM1019 956Q1018 990 910 990Q715 990 568 840Q421 689 367 415Q352 334 356 273Q360 211 385 169Q434 86 562 86Q702 86 795 186T925 479L945 584L1019 956Z" />
<glyph unicode="&#x122;" glyph-name="Gcommaaccent" horiz-adv-x="1636" d="M674 -410Q750 -368 785 -312T820 -176V-154H978Q971 -257 913 -330Q855 -404 738 -458L674 -410ZM1370 1047Q1371 1234 1278 1323T986 1413Q728 1413 569 1247T344 745Q280 416 378
247T730 78Q843 78 951 106T1164 190L1239 575H958L979 682H1463L1354 125Q1206 48 1045 10T709 -29Q371 -29 209 182T115 745Q184 1099 429 1309T1019 1520Q1147 1520 1277 1491T1550 1401L1482 1047H1370Z" />
<glyph unicode="&#x123;" glyph-name="gcommaaccent" horiz-adv-x="1311" d="M1050 1470Q966 1428 920 1372T859 1236L854 1214H696Q723 1317 796 1390Q868 1464 996 1518L1050 1470ZM1223 1063L1020 23Q974 -215 826 -330Q665 -455 442 -455Q337 -455 245 -436T72
-379L116 -156H212Q209 -260 267 -308T450 -356Q612 -356 705 -264Q798 -174 836 23L864 166Q791 66 698 19T488 -29Q312 -29 223 90Q167 165 161 269Q157 330 171 402Q240 755 485 937Q694 1091 938 1092Q1162 1093 1223 1063ZM1019 956Q1018 990 910 990Q715
990 568 840Q421 689 367 415Q352 334 356 273Q360 211 385 169Q434 86 562 86Q702 86 795 186T925 479L945 584L1019 956Z" />
<glyph unicode="&#x124;" glyph-name="Hcircumflex" horiz-adv-x="1786" d="M1054 1899H1230L1409 1635H1293L1122 1796L887 1635H771L1054 1899ZM-32 0L-12 106H178L427 1386H237L258 1493H841L820 1386H630L530 870H1304L1404 1386H1214L1235 1493H1818L1797
1386H1607L1358 106H1548L1528 0H945L965 106H1156L1280 748H506L381 106H571L551 0H-32Z" />
<glyph unicode="&#x125;" glyph-name="hcircumflex" horiz-adv-x="1319" d="M395 1899H571L750 1635H634L463 1796L228 1635H112L395 1899ZM99 0L381 1450H205L225 1556H585L453 874Q525 982 617 1037T817 1092Q993 1092 1056 991Q1095 930 1095 828Q1095 761
1078 676L967 106H1131L1111 0H762L882 618Q902 721 902 790Q902 851 886 884Q853 956 731 956Q603 956 518 863T398 592L283 0H99Z" />
<glyph unicode="&#x126;" glyph-name="Hbar" horiz-adv-x="1786" d="M530 870H1304L1342 1067H568L530 870ZM-32 0L-12 106H178L365 1067H175L199 1189H389L427 1386H237L258 1493H841L820 1386H630L592 1189H1366L1404 1386H1214L1235 1493H1818L1797 1386H1607L1569
1189H1759L1735 1067H1545L1358 106H1548L1528 0H945L965 106H1155L1280 748H506L381 106H571L551 0H-32Z" />
<glyph unicode="&#x127;" glyph-name="hbar" horiz-adv-x="1319" d="M99 0L334 1210H158L182 1332H358L381 1450H205L225 1556H585L542 1332H858L834 1210H518L453 874Q525 982 617 1037T817 1092Q993 1092 1056 991Q1095 930 1095 828Q1095 761 1078 676L967
106H1131L1111 0H762L882 618Q902 721 902 790Q902 851 886 884Q853 956 731 956Q603 956 518 863T398 592L283 0H99Z" />
<glyph unicode="&#x128;" glyph-name="Itilde" horiz-adv-x="809" d="M572 1715L529 1743Q512 1756 493 1763T457 1770Q418 1770 386 1741Q355 1713 342 1667L246 1668Q267 1768 330 1827Q392 1886 477 1886Q513 1886 543 1877Q572 1868 621 1837L665 1811Q685
1798 706 1791Q726 1784 743 1784Q784 1784 813 1811Q842 1839 851 1886H948Q926 1781 863 1724Q801 1667 707 1667Q640 1667 576 1712L572 1715ZM381 106H571L551 0H-32L-12 106H178L427 1386H237L258 1493H841L820 1386H630L381 106Z" />
<glyph unicode="&#x129;" glyph-name="itilde" horiz-adv-x="655" d="M446 1370L400 1425Q379 1449 364 1456Q349 1464 330 1464Q288 1464 256 1424Q224 1385 205 1309H109Q137 1444 202 1518Q267 1591 358 1591Q396 1591 426 1577Q455 1563 486 1530L532 1475Q550
1452 566 1444Q581 1436 602 1436Q645 1436 677 1476T727 1591H823Q795 1456 730 1382Q665 1309 574 1309Q536 1309 506 1323Q477 1337 446 1370ZM351 106H525L505 0H147L333 956H157L177 1063H537L351 106Z" />
<glyph unicode="&#x12a;" glyph-name="Imacron" horiz-adv-x="809" d="M326 1842H924L896 1694H298L326 1842ZM381 106H571L551 0H-32L-12 106H178L427 1386H237L258 1493H841L820 1386H630L381 106Z" />
<glyph unicode="&#x12b;" glyph-name="imacron" horiz-adv-x="655" d="M138 1526H736L708 1378H110L138 1526ZM351 106H525L505 0H147L333 956H157L177 1063H537L351 106Z" />
<glyph unicode="&#x12c;" glyph-name="Ibreve" horiz-adv-x="809" d="M322 1901H416Q423 1846 471 1819T611 1792T762 1819T850 1901H944Q901 1784 809 1721Q716 1659 585 1659Q453 1659 386 1721T322 1901ZM381 106H571L551 0H-32L-12 106H178L427 1386H237L258
1493H841L820 1386H630L381 106Z" />
<glyph unicode="&#x12d;" glyph-name="ibreve" horiz-adv-x="655" d="M206 1608H302Q300 1529 345 1494Q390 1458 490 1458T649 1494Q708 1529 736 1608H832Q794 1465 701 1393T463 1321T253 1393T206 1608ZM351 106H525L505 0H147L333 956H157L177 1063H537L351 106Z" />
<glyph unicode="&#x12e;" glyph-name="Iogonek" horiz-adv-x="809" d="M419 106H609L589 0H6L26 106H216L465 1386H275L296 1493H879L858 1386H668L419 106ZM305 0H399L398 -2Q287 -125 278 -172Q269 -218 297 -246T381 -274Q408 -274 438 -268T501 -248L475 -375Q438
-384 404 -388T337 -393Q224 -393 171 -349T133 -223Q142 -174 182 -122T305 0Z" />
<glyph unicode="&#x12f;" glyph-name="iogonek" horiz-adv-x="655" d="M361 1393Q370 1439 410 1473T497 1507Q543 1507 570 1473Q591 1447 591 1415Q591 1404 588 1393Q579 1346 540 1313T453 1280T379 1313Q359 1338 359 1370Q359 1381 361 1393ZM346 106H520L500
0H142L327 956H151L172 1063H532L346 106ZM232 0H326L325 -2Q214 -125 205 -172Q196 -218 224 -246T308 -274Q335 -274 365 -268T428 -248L402 -375Q365 -384 331 -388T264 -393Q151 -393 98 -349T60 -223Q69 -174 109 -122T232 0Z" />
<glyph unicode="&#x130;" glyph-name="Idot" horiz-adv-x="809" d="M381 106H571L551 0H-32L-12 106H178L427 1386H237L258 1493H841L820 1386H630L381 106ZM580 1886T627 1886T702 1851T721 1770Q711 1720 671 1687Q631 1653 581 1653T504 1687Q477 1720 487
1770Q496 1816 538 1851Z" />
<glyph unicode="&#x131;" glyph-name="dotlessi" horiz-adv-x="655" d="M351 106H525L505 0H147L333 956H157L177 1063H537L351 106Z" />
<glyph unicode="&#x132;" glyph-name="IJ" horiz-adv-x="1641" d="M475 -358L520 -123H634Q618 -222 652 -270T775 -319Q894 -319 955 -244T1060 49L1320 1386H1088L1109 1493H1734L1713 1386H1523L1261 41Q1213 -206 1093 -316T752 -426Q681 -426 611 -409T475
-358ZM381 106H571L551 0H-32L-12 106H178L427 1386H237L258 1493H841L820 1386H630L381 106Z" />
<glyph unicode="&#x133;" glyph-name="ij" horiz-adv-x="1092" d="M958 1393Q966 1439 1006 1473T1094 1507Q1140 1507 1167 1473Q1187 1447 1187 1415Q1187 1404 1185 1393Q1175 1346 1137 1313T1050 1280Q1003 1280 975 1313Q955 1338 955 1370Q955 1381 958
1393ZM918 956H744L764 1063H1122L896 -104Q864 -268 748 -361T461 -455Q389 -455 327 -439T209 -389L252 -170H347Q344 -195 344 -216Q344 -278 369 -311Q403 -356 485 -356Q576 -356 631 -295T712 -104L918 956ZM323 1393Q332 1439 372 1473T459 1507Q505 1507
532 1473Q553 1447 553 1415Q553 1404 550 1393Q541 1346 502 1313T415 1280T341 1313Q321 1338 321 1370Q321 1381 323 1393ZM308 106H482L462 0H104L289 956H113L134 1063H494L308 106Z" />
<glyph unicode="&#x134;" glyph-name="Jcircumflex" horiz-adv-x="821" d="M575 1899H751L930 1635H814L643 1796L408 1635H292L575 1899ZM-345 -358L-300 -123H-186Q-202 -222 -168 -270T-45 -319Q74 -319 135 -244T240 49L500 1386H268L289 1493H914L893 1386H703L441
41Q393 -206 273 -316T-68 -426Q-139 -426 -209 -409T-345 -358Z" />
<glyph unicode="&#x135;" glyph-name="jcircumflex" horiz-adv-x="635" d="M407 1638H575L736 1262H620L468 1522L214 1262H98L407 1638ZM377 956H203L224 1063H582L355 -104Q323 -268 207 -361T-80 -455Q-152 -455 -214 -439T-332 -389L-289 -170H-194Q-206 -266
-172 -311T-56 -356Q35 -356 90 -295T171 -104L377 956Z" />
<glyph unicode="&#x136;" glyph-name="Kcommaaccent" horiz-adv-x="1530" d="M657 -381Q733 -339 768 -283T803 -147V-125H961Q954 -228 896 -301Q838 -375 721 -429L657 -381ZM-32 0L-12 106H178L427 1386H237L258 1493H841L820 1386H630L520 821L1273 1386H1111L1132
1493H1628L1607 1386H1439L689 823L1266 106H1436L1416 0H1069L499 709L381 106H571L551 0H-32Z" />
<glyph unicode="&#x137;" glyph-name="kcommaaccent" horiz-adv-x="1241" d="M476 -381Q552 -339 587 -283T622 -147V-125H780Q773 -228 715 -301Q657 -375 540 -429L476 -381ZM676 664L971 106H1124L1104 0H809L519 543L348 408L269 0H85L367 1450H190L210 1556H571L374
543L903 956H750L770 1063H1069L1049 956L676 664Z" />
<glyph unicode="&#x138;" glyph-name="kgreenlandic" horiz-adv-x="1241" d="M317 0H133L318 953H141L162 1060H523L422 541L950 953H797L818 1060H1117L1096 953L724 662L1020 106H1173L1152 0H857L567 541L396 406L317 0Z" />
<glyph unicode="&#x139;" glyph-name="Lacute" horiz-adv-x="1360" d="M670 1901H867L553 1637H436L670 1901ZM-32 0L-12 106H178L427 1386H237L258 1493H841L820 1386H630L385 123H1067L1115 373H1238L1166 0H-32Z" />
<glyph unicode="&#x13a;" glyph-name="lacute" horiz-adv-x="655" d="M571 1900H768L454 1636H337L571 1900ZM289 106H463L443 0H85L367 1450H190L210 1556H571L289 106Z" />
<glyph unicode="&#x13b;" glyph-name="Lcommaaccent" horiz-adv-x="1360" d="M531 -381Q607 -339 642 -283T677 -147V-125H835Q828 -228 770 -301Q712 -375 595 -429L531 -381ZM-32 0L-12 106H178L427 1386H237L258 1493H841L820 1386H630L385 123H1067L1115 373H1238L1166
0H-32Z" />
<glyph unicode="&#x13c;" glyph-name="lcommaaccent" horiz-adv-x="655" d="M140 -381Q216 -339 251 -283T286 -147V-125H444Q437 -228 379 -301Q321 -375 204 -429L140 -381ZM289 106H463L443 0H85L367 1450H190L210 1556H571L289 106Z" />
<glyph unicode="&#x13d;" glyph-name="Lcaron" horiz-adv-x="1360" d="M931 1492H1130L912 1116H795L931 1492ZM-32 0L-12 106H178L427 1386H237L258 1493H841L820 1386H630L385 123H1067L1115 373H1238L1166 0H-32Z" />
<glyph unicode="&#x13e;" glyph-name="lcaron" horiz-adv-x="820" d="M809 1556H1008L790 1180H673L809 1556ZM289 106H463L443 0H85L367 1450H190L210 1556H571L289 106Z" />
<glyph unicode="&#x13f;" glyph-name="Ldot" horiz-adv-x="1375" d="M1025 845Q1036 901 1082 939T1185 978Q1240 978 1271 939T1292 845Q1281 789 1235 751T1133 712Q1076 712 1045 750T1025 845ZM-32 0L-12 106H178L427 1386H237L258 1493H841L820 1386H630L385
123H1067L1115 373H1238L1166 0H-32Z" />
<glyph unicode="&#x140;" glyph-name="ldot" horiz-adv-x="952" d="M594 836Q605 892 651 930T754 969Q809 969 840 930T861 836Q850 780 804 742T702 703Q645 703 614 741T594 836ZM289 106H463L443 0H85L367 1450H190L210 1556H571L289 106Z" />
<glyph unicode="&#x141;" glyph-name="Lslash" horiz-adv-x="1370" d="M-22 0L-2 106H188L282 586L103 473L51 565L309 727L437 1386H247L268 1493H850L829 1386H638L538 870L889 1096L941 1004L511 729L393 123H1077L1125 373H1248L1176 0H-22Z" />
<glyph unicode="&#x142;" glyph-name="lslash" horiz-adv-x="664" d="M297 106H473L453 0H93L225 680L68 584L24 670L250 811L375 1450H201L221 1556H579L459 940L626 1038L669 952L434 811L297 106Z" />
<glyph unicode="&#x143;" glyph-name="Nacute" horiz-adv-x="1792" d="M1186 1900H1383L1069 1636H952L1186 1900ZM-42 0L-22 106H179L428 1386H227L248 1493H631L1297 315L1505 1386H1305L1326 1493H1850L1829 1386H1628L1353 -29H1232L521 1229L302 106H503L483 0H-42Z" />
<glyph unicode="&#x144;" glyph-name="nacute" horiz-adv-x="1319" d="M924 1846H1123L709 1470H592L924 1846ZM144 0L330 956H154L174 1063H534L498 874Q570 982 662 1037T862 1092Q1038 1092 1102 991Q1140 930 1140 828Q1140 761 1123 676L1012 106H1176L1156
0H807L927 618Q947 721 947 790Q947 851 931 886Q897 958 776 958Q648 958 563 865T443 592L328 0H144Z" />
<glyph unicode="&#x145;" glyph-name="Ncommaaccent" horiz-adv-x="1792" d="M717 -410Q793 -368 828 -312T863 -176V-154H1021Q1014 -257 956 -330Q898 -404 781 -458L717 -410ZM-42 0L-22 106H179L428 1386H227L248 1493H631L1297 315L1505 1386H1305L1326 1493H1850L1829
1386H1628L1353 -29H1232L521 1229L302 106H503L483 0H-42Z" />
<glyph unicode="&#x146;" glyph-name="ncommaaccent" horiz-adv-x="1319" d="M531 -381Q607 -339 642 -283T677 -147V-125H835Q828 -228 770 -301Q712 -375 595 -429L531 -381ZM144 0L330 956H154L174 1063H534L498 874Q570 982 662 1037T862 1092Q1038 1092 1102
991Q1140 930 1140 828Q1140 761 1123 676L1012 106H1176L1156 0H807L927 618Q947 721 947 790Q947 851 931 886Q897 958 776 958Q648 958 563 865T443 592L328 0H144Z" />
<glyph unicode="&#x147;" glyph-name="Ncaron" horiz-adv-x="1792" d="M-42 0L-22 106H179L428 1386H227L248 1493H631L1297 315L1505 1386H1305L1326 1493H1850L1829 1386H1628L1353 -29H1232L521 1229L302 106H503L483 0H-42ZM990 1645L811 1909H927L1098 1747L1333
1909H1449L1166 1645H990Z" />
<glyph unicode="&#x148;" glyph-name="ncaron" horiz-adv-x="1319" d="M144 0L330 956H154L174 1063H534L498 874Q570 982 662 1037T862 1092Q1038 1092 1102 991Q1140 930 1140 828Q1140 761 1123 676L1012 106H1176L1156 0H807L927 618Q947 721 947 790Q947
851 931 886Q897 958 776 958Q648 958 563 865T443 592L328 0H144ZM675 1262L514 1638H630L782 1378L1036 1638H1152L843 1262H675Z" />
<glyph unicode="&#x149;" glyph-name="napostrophe" horiz-adv-x="1774" d="M543 0L729 956H553L573 1063H933L897 874Q969 982 1061 1037T1261 1092Q1437 1092 1501 991Q1539 930 1539 828Q1539 761 1522 676L1411 106H1575L1555 0H1206L1326 618Q1346 721 1346
790Q1346 851 1330 886Q1296 958 1175 958Q1047 958 962 865T842 592L727 0H543ZM335 1094Q425 1158 476 1243T552 1457L564 1520H758Q723 1346 637 1226Q552 1105 398 1014L335 1094Z" />
<glyph unicode="&#x14a;" glyph-name="Eng" horiz-adv-x="1726" d="M818 -181Q818 -319 964 -319Q1083 -319 1144 -245T1249 49L1410 881Q1440 1031 1440 1130T1414 1282Q1360 1391 1165 1391T840 1263T662 887L511 107H701L680 0H96L117 107H308L556 1386H380L401
1493H780L741 1292Q935 1522 1249 1522Q1502 1522 1593 1376Q1647 1289 1647 1167T1623 922L1452 41Q1404 -206 1284 -316T943 -426Q798 -426 665 -358L711 -123H823Q818 -155 818 -181Z" />
<glyph unicode="&#x14b;" glyph-name="eng" horiz-adv-x="1319" d="M831 -104L971 618Q991 721 991 790Q991 851 975 886Q941 958 820 958Q692 958 607 865T487 592L372 0H188L374 956H198L219 1063H579L542 874Q614 982 706 1037T906 1092Q1080 1092 1146 991Q1184
932 1184 829Q1184 762 1167 676L1016 -104Q984 -268 869 -361T582 -455Q510 -455 448 -439T329 -389L372 -170H467Q464 -195 464 -216Q464 -278 489 -311Q523 -356 605 -356Q696 -356 751 -294Q806 -234 831 -104Z" />
<glyph unicode="&#x14c;" glyph-name="Omacron" horiz-adv-x="1679" d="M785 1842H1383L1355 1694H757L785 1842ZM710 78Q955 78 1113 246T1335 745Q1399 1076 1307 1244T970 1413Q724 1413 566 1245T344 745Q280 415 372 247T710 78ZM689 -29Q537 -29 420 21T224
168Q134 280 107 422T115 745T232 1068T448 1323Q565 1421 701 1470T991 1520Q1316 1520 1474 1307T1565 745Q1530 566 1447 423T1231 168Q1114 70 978 21T689 -29Z" />
<glyph unicode="&#x14d;" glyph-name="omacron" horiz-adv-x="1233" d="M500 1526H1098L1070 1378H472L500 1526ZM526 70Q674 70 772 187T915 532Q935 636 935 717Q935 813 907 876Q854 993 706 993T460 877T317 532Q297 428 297 348Q297 251 326 187Q379 70 526
70ZM507 -29Q275 -29 164 124Q87 231 87 385Q87 454 102 532Q151 786 321 939T725 1092T1069 939Q1145 833 1145 679Q1145 610 1130 532Q1081 278 911 125T507 -29Z" />
<glyph unicode="&#x14e;" glyph-name="Obreve" horiz-adv-x="1679" d="M805 1901H899Q906 1846 954 1819T1094 1792T1245 1819T1333 1901H1427Q1384 1784 1292 1721Q1199 1659 1068 1659Q936 1659 869 1721T805 1901ZM710 78Q955 78 1113 246T1335 745Q1399 1076
1307 1244T970 1413Q724 1413 566 1245T344 745Q280 415 372 247T710 78ZM689 -29Q537 -29 420 21T224 168Q134 280 107 422T115 745T232 1068T448 1323Q565 1421 701 1470T991 1520Q1316 1520 1474 1307T1565 745Q1530 566 1447 423T1231 168Q1114 70 978 21T689
-29Z" />
<glyph unicode="&#x14f;" glyph-name="obreve" horiz-adv-x="1233" d="M513 1608H609Q607 1529 652 1494Q697 1458 797 1458T956 1494Q1015 1529 1043 1608H1139Q1101 1465 1008 1393T770 1321T560 1393T513 1608ZM526 70Q674 70 772 187T915 532Q935 636 935
717Q935 813 907 876Q854 993 706 993T460 877T317 532Q297 428 297 348Q297 251 326 187Q379 70 526 70ZM507 -29Q275 -29 164 124Q87 231 87 385Q87 454 102 532Q151 786 321 939T725 1092T1069 939Q1145 833 1145 679Q1145 610 1130 532Q1081 278 911 125T507
-29Z" />
<glyph unicode="&#x150;" glyph-name="Ohungarumlaut" horiz-adv-x="1679" d="M1414 1899H1611L1297 1635H1180L1414 1899ZM1097 1899H1294L980 1635H863L1097 1899ZM710 78Q955 78 1113 246T1335 745Q1399 1076 1307 1244T970 1413Q724 1413 566 1245T344 745Q280
415 372 247T710 78ZM689 -29Q537 -29 420 21T224 168Q134 280 107 422T115 745T232 1068T448 1323Q565 1421 701 1470T991 1520Q1316 1520 1474 1307T1565 745Q1530 566 1447 423T1231 168Q1114 70 978 21T689 -29Z" />
<glyph unicode="&#x151;" glyph-name="ohungarumlaut" horiz-adv-x="1233" d="M817 1638H987L669 1262H555L817 1638ZM1147 1638H1325L964 1262H848L1147 1638ZM526 70Q674 70 772 187T915 532Q935 636 935 717Q935 813 907 876Q854 993 706 993T460 877T317 532Q297
428 297 348Q297 251 326 187Q379 70 526 70ZM507 -29Q275 -29 164 124Q87 231 87 385Q87 454 102 532Q151 786 321 939T725 1092T1069 939Q1145 833 1145 679Q1145 610 1130 532Q1081 278 911 125T507 -29Z" />
<glyph unicode="&#x152;" glyph-name="OE" horiz-adv-x="2329" d="M1012 106L1261 1386H1074Q782 1386 596 1222T349 750Q288 439 411 273T825 106H1012ZM2020 0H791Q406 0 229 198T120 750Q188 1101 441 1297T1081 1493H2293L2229 1161H2106L2146 1370H1460L1363
870H1855L1891 1057H2012L1916 561H1795L1831 748H1339L1218 123H1921L1961 332H2084L2020 0Z" />
<glyph unicode="&#x153;" glyph-name="oe" horiz-adv-x="2025" d="M526 70Q674 70 772 187T915 532T907 876T706 993T460 877T317 532T326 187T526 70ZM1626 632Q1738 698 1738 822Q1738 993 1511 993Q1377 993 1284 891T1134 514Q1453 529 1626 632ZM1113 408Q1109
370 1109 336Q1109 242 1143 180Q1202 70 1360 70Q1476 70 1533 105Q1635 168 1659 249H1794Q1754 122 1605 33Q1501 -29 1295 -29T978 124Q963 144 952 165Q932 144 910 124Q740 -29 507 -29Q275 -29 164 124Q87 231 87 385Q87 454 102 532Q151 786 321 939T725
1092T1069 939Q1083 920 1094 899Q1113 919 1133 938Q1302 1092 1542 1092Q1933 1092 1933 815Q1933 612 1728 513Q1519 412 1113 408Z" />
<glyph unicode="&#x154;" glyph-name="Racute" horiz-adv-x="1542" d="M1081 1900H1278L964 1636H847L1081 1900ZM980 741Q1046 722 1088 677T1154 549L1284 106H1466L1446 0H1094L953 475Q913 613 865 653T719 694H496L381 106H592L572 0H-32L-12 106H178L427
1386H237L258 1493H1015Q1233 1493 1331 1389T1393 1094Q1363 940 1259 852T980 741ZM517 801H812Q963 801 1048 872T1163 1094T1135 1315T925 1386H630L517 801Z" />
<glyph unicode="&#x155;" glyph-name="racute" horiz-adv-x="979" d="M924 1846H1123L709 1470H592L924 1846ZM1080 1065L1028 799H922Q925 819 925 836Q925 888 901 917Q870 956 795 956Q659 956 568 862T443 592L328 0H144L330 958H154L174 1063H534L498 874Q573
985 668 1038T886 1092Q931 1092 979 1085T1080 1065Z" />
<glyph unicode="&#x156;" glyph-name="Rcommaaccent" horiz-adv-x="1542" d="M671 -381Q747 -339 782 -283T817 -147V-125H975Q968 -228 910 -301Q852 -375 735 -429L671 -381ZM980 741Q1046 722 1088 677T1154 549L1284 106H1466L1446 0H1094L953 475Q913 613
865 653T719 694H496L381 106H592L572 0H-32L-12 106H178L427 1386H237L258 1493H1015Q1233 1493 1331 1389T1393 1094Q1363 940 1259 852T980 741ZM517 801H812Q963 801 1048 872T1163 1094T1135 1315T925 1386H630L517 801Z" />
<glyph unicode="&#x157;" glyph-name="rcommaaccent" horiz-adv-x="979" d="M224 -381Q300 -339 335 -283T370 -147V-125H528Q521 -228 463 -301Q405 -375 288 -429L224 -381ZM1080 1065L1028 799H922Q925 819 925 836Q925 888 901 917Q870 956 795 956Q659 956
568 862T443 592L328 0H144L330 958H154L174 1063H534L498 874Q573 985 668 1038T886 1092Q931 1092 979 1085T1080 1065Z" />
<glyph unicode="&#x158;" glyph-name="Rcaron" horiz-adv-x="1542" d="M980 741Q1046 722 1088 677T1154 549L1284 106H1466L1446 0H1094L953 475Q913 613 865 653T719 694H496L381 106H592L572 0H-32L-12 106H178L427 1386H237L258 1493H1015Q1233 1493 1331
1389T1393 1094Q1363 940 1259 852T980 741ZM517 801H812Q963 801 1048 872T1163 1094T1135 1315T925 1386H630L517 801ZM849 1635L670 1899H786L957 1737L1192 1899H1308L1025 1635H849Z" />
<glyph unicode="&#x159;" glyph-name="rcaron" horiz-adv-x="979" d="M1080 1065L1028 799H922Q925 819 925 836Q925 888 901 917Q870 956 795 956Q659 956 568 862T443 592L328 0H144L330 958H154L174 1063H534L498 874Q573 985 668 1038T886 1092Q931 1092 979
1085T1080 1065ZM633 1262L472 1638H588L740 1378L994 1638H1110L801 1262H633Z" />
<glyph unicode="&#x15a;" glyph-name="Sacute" horiz-adv-x="1403" d="M1081 1900H1278L964 1636H847L1081 1900ZM59 72L125 412L240 411Q212 241 289 160T558 78Q736 78 843 148T977 354Q998 462 953 520T736 633L551 692Q349 757 281 854T245 1120Q282 1310
437 1415T837 1520Q941 1520 1060 1498T1311 1432L1250 1114H1137Q1150 1272 1076 1342T820 1413Q662 1413 567 1349T448 1161Q427 1054 477 993T717 872L891 817Q1082 756 1150 662T1187 408Q1145 191 985 81T549 -29Q426 -29 304 -4T59 72Z" />
<glyph unicode="&#x15b;" glyph-name="sacute" horiz-adv-x="1051" d="M924 1846H1123L709 1470H592L924 1846ZM71 307H177Q173 278 173 252Q173 70 420 70Q668 70 704 252Q707 270 707 302Q707 333 673 370T496 457L371 502Q243 546 202 602T160 724Q160 750
165 780Q194 926 317 1009T618 1092Q795 1092 981 1006L936 774H830Q834 797 834 817Q834 890 784 941T616 993Q381 993 349 829Q345 812 345 782Q345 751 377 716T537 639L674 594Q816 547 869 476Q906 426 906 377Q906 167 738 58Q606 -29 404 -29T23 59L71 307Z"
/>
<glyph unicode="&#x15c;" glyph-name="Scircumflex" horiz-adv-x="1403" d="M862 1899H1038L1217 1635H1101L930 1796L695 1635H579L862 1899ZM59 72L125 412L240 411Q212 241 289 160T558 78Q736 78 843 148T977 354Q998 462 953 520T736 633L551 692Q349 757
281 854T245 1120Q282 1310 437 1415T837 1520Q941 1520 1060 1498T1311 1432L1250 1114H1137Q1150 1272 1076 1342T820 1413Q662 1413 567 1349T448 1161Q427 1054 477 993T717 872L891 817Q1082 756 1150 662T1187 408Q1145 191 985 81T549 -29Q426 -29 304 -4T59
72Z" />
<glyph unicode="&#x15d;" glyph-name="scircumflex" horiz-adv-x="1051" d="M671 1638H839L1000 1262H884L732 1522L478 1262H362L671 1638ZM71 307H177Q173 278 173 252Q173 70 420 70Q668 70 704 252Q707 270 707 302Q707 333 673 370T496 457L371 502Q243 546
202 602T160 724Q160 750 165 780Q194 926 317 1009T618 1092Q795 1092 981 1006L936 774H830Q834 797 834 817Q834 890 784 941T616 993Q381 993 349 829Q345 812 345 782Q345 751 377 716T537 639L674 594Q816 547 869 476Q906 426 906 377Q906 167 738 58Q606
-29 404 -29T23 59L71 307Z" />
<glyph unicode="&#x15e;" glyph-name="Scedilla" horiz-adv-x="1403" d="M59 72L125 412L240 411Q212 241 289 160T558 78Q736 78 843 148T977 354Q998 462 953 520T736 633L551 692Q349 757 281 854T245 1120Q282 1310 437 1415T837 1520Q941 1520 1060 1498T1311
1432L1250 1114H1137Q1150 1272 1076 1342T820 1413Q662 1413 567 1349T448 1161Q427 1054 477 993T717 872L891 817Q1082 756 1150 662T1187 408Q1145 191 985 81T549 -29Q426 -29 304 -4T59 72ZM852 0Q904 -64 924 -120T936 -225Q920 -306 849 -350T665 -395Q623
-395 580 -389T493 -371L519 -240Q556 -257 594 -265T667 -274Q724 -274 762 -248T809 -176Q815 -148 802 -104T755 0H852Z" />
<glyph unicode="&#x15f;" glyph-name="scedilla" horiz-adv-x="1051" d="M71 307H177Q173 278 173 252Q173 70 420 70Q668 70 704 252Q707 270 707 302Q707 333 673 370T496 457L371 502Q243 546 202 602T160 724Q160 750 165 780Q194 926 317 1009T618 1092Q795
1092 981 1006L936 774H830Q834 797 834 817Q834 890 784 941T616 993Q381 993 349 829Q345 812 345 782Q345 751 377 716T537 639L674 594Q816 547 869 476Q906 426 906 377Q906 167 738 58Q606 -29 404 -29T23 59L71 307ZM458 0Q510 -64 530 -120T542 -225Q526
-306 455 -350T271 -395Q229 -395 186 -389T99 -371L125 -240Q162 -257 200 -265T273 -274Q330 -274 368 -248T415 -176Q421 -148 408 -104T361 0H458Z" />
<glyph unicode="&#x160;" glyph-name="Scaron" horiz-adv-x="1403" d="M59 72L125 412L240 411Q212 241 289 160T558 78Q736 78 843 148T977 354Q998 462 953 520T736 633L551 692Q349 757 281 854T245 1120Q282 1310 437 1415T837 1520Q941 1520 1060 1498T1311
1432L1250 1114H1137Q1150 1272 1076 1342T820 1413Q662 1413 567 1349T448 1161Q427 1054 477 993T717 872L891 817Q1082 756 1150 662T1187 408Q1145 191 985 81T549 -29Q426 -29 304 -4T59 72ZM819 1635L640 1899H756L927 1737L1162 1899H1278L995 1635H819Z"
/>
<glyph unicode="&#x161;" glyph-name="scaron" horiz-adv-x="1051" d="M71 307H177Q173 278 173 252Q173 70 420 70Q668 70 704 252Q707 270 707 302Q707 333 673 370T496 457L371 502Q243 546 202 602T160 724Q160 750 165 780Q194 926 317 1009T618 1092Q795
1092 981 1006L936 774H830Q834 797 834 817Q834 890 784 941T616 993Q381 993 349 829Q345 812 345 782Q345 751 377 716T537 639L674 594Q816 547 869 476Q906 426 906 377Q906 167 738 58Q606 -29 404 -29T23 59L71 307ZM595 1262L434 1638H550L702 1378L956
1638H1072L763 1262H595Z" />
<glyph unicode="&#x162;" glyph-name="Tcommaaccent" horiz-adv-x="1366" d="M834 0Q886 -64 906 -120T918 -225Q902 -306 831 -350T647 -395Q605 -395 562 -389T475 -371L501 -240Q538 -257 576 -265T649 -274Q706 -274 744 -248T791 -176Q797 -148 784 -104T737
0H834ZM246 0L266 106H457L704 1374H265L220 1141H97L165 1493H1491L1423 1141H1300L1345 1374H906L659 106H850L830 0H246Z" />
<glyph unicode="&#x163;" glyph-name="tcommaaccent" horiz-adv-x="823" d="M436 0Q488 -64 508 -120T520 -225Q504 -306 433 -350T249 -395Q207 -395 164 -389T77 -371L103 -240Q140 -257 178 -265T251 -274Q308 -274 346 -248T393 -176Q399 -148 386 -104T339
0H436ZM274 956H112L133 1063H295L359 1393H544L480 1063H826L805 956H459L328 281Q313 202 313 156Q313 124 320 108Q339 70 409 70Q481 70 522 112T584 250H723Q687 105 603 38T374 -29Q215 -29 162 42Q130 85 130 165Q130 216 143 281L274 956Z" />
<glyph unicode="&#x164;" glyph-name="Tcaron" horiz-adv-x="1366" d="M246 0L266 106H457L704 1374H265L220 1141H97L165 1493H1491L1423 1141H1300L1345 1374H906L659 106H850L830 0H246ZM795 1635L616 1899H732L903 1737L1138 1899H1254L971 1635H795Z" />
<glyph unicode="&#x165;" glyph-name="tcaron" horiz-adv-x="823" d="M274 956H112L133 1063H295L359 1393H544L480 1063H826L805 956H459L328 281Q313 202 313 156Q313 124 320 108Q339 70 409 70Q481 70 522 112T584 250H723Q687 105 603 38T374 -29Q215 -29
162 42Q130 85 130 165Q130 216 143 281L274 956ZM775 1613H974L756 1237H639L775 1613Z" />
<glyph unicode="&#x166;" glyph-name="Tbar" horiz-adv-x="1366" d="M246 0L266 106H457L569 679H303L326 798H592L704 1374H265L220 1141H97L165 1493H1491L1423 1141H1300L1345 1374H906L794 798H1060L1037 679H771L659 106H850L830 0H246Z" />
<glyph unicode="&#x167;" glyph-name="tbar" horiz-adv-x="823" d="M274 956H112L133 1063H295L359 1393H544L480 1063H826L805 956H459L414 723H604L576 581H386L328 281Q313 202 313 156Q313 124 320 108Q339 70 409 70Q481 70 522 112Q564 155 584 250H723Q687
105 603 38T374 -29Q215 -29 163 42Q130 85 130 165Q130 216 143 281L201 581H66L94 723H229L274 956Z" />
<glyph unicode="&#x168;" glyph-name="Utilde" horiz-adv-x="1726" d="M1113 1715L1070 1743Q1053 1756 1034 1763T998 1770Q959 1770 927 1741Q896 1713 883 1667L787 1668Q808 1768 871 1827Q933 1886 1018 1886Q1054 1886 1084 1877Q1113 1868 1162 1837L1206
1811Q1226 1798 1247 1791Q1267 1784 1284 1784Q1325 1784 1354 1811Q1383 1839 1392 1886H1489Q1467 1781 1404 1724Q1342 1667 1248 1667Q1181 1667 1117 1712L1113 1715ZM414 1386H223L244 1493H828L807 1386H616L466 614Q410 328 482 215T783 102T1127 215T1298
614L1448 1386H1257L1278 1493H1782L1761 1386H1571L1417 594Q1351 253 1193 112T720 -29T300 113T260 594L414 1386Z" />
<glyph unicode="&#x169;" glyph-name="utilde" horiz-adv-x="1319" d="M775 1370L729 1425Q708 1449 693 1456Q678 1464 659 1464Q617 1464 585 1424Q553 1385 534 1309H438Q466 1444 531 1518Q596 1591 687 1591Q725 1591 755 1577Q784 1563 815 1530L861 1475Q879
1452 895 1444Q910 1436 931 1436Q974 1436 1006 1476T1056 1591H1152Q1124 1456 1059 1382Q994 1309 903 1309Q865 1309 835 1323Q806 1337 775 1370ZM991 1063H1175L989 106H1163L1143 0H785L821 188Q749 82 658 27T459 -29Q282 -29 218 72Q179 132 179 235Q179
302 196 387L306 956H140L161 1063H512L392 444Q372 341 372 273Q372 212 388 178Q421 106 543 106Q671 106 756 200T876 473L991 1063Z" />
<glyph unicode="&#x16a;" glyph-name="Umacron" horiz-adv-x="1726" d="M810 1842H1408L1380 1694H782L810 1842ZM414 1386H223L244 1493H828L807 1386H616L466 614Q410 328 482 215T783 102T1127 215T1298 614L1448 1386H1257L1278 1493H1782L1761 1386H1571L1417
594Q1351 253 1193 112T720 -29T300 113T260 594L414 1386Z" />
<glyph unicode="&#x16b;" glyph-name="umacron" horiz-adv-x="1319" d="M516 1526H1114L1086 1378H488L516 1526ZM991 1063H1175L989 106H1163L1143 0H785L821 188Q749 82 658 27T459 -29Q282 -29 218 72Q179 132 179 235Q179 302 196 387L306 956H140L161 1063H512L392
444Q372 341 372 273Q372 212 388 178Q421 106 543 106Q671 106 756 200T876 473L991 1063Z" />
<glyph unicode="&#x16c;" glyph-name="Ubreve" horiz-adv-x="1726" d="M869 1901H963Q970 1846 1018 1819T1158 1792T1309 1819T1397 1901H1491Q1448 1784 1356 1721Q1263 1659 1132 1659Q1000 1659 933 1721T869 1901ZM414 1386H223L244 1493H828L807 1386H616L466
614Q410 328 482 215T783 102T1127 215T1298 614L1448 1386H1257L1278 1493H1782L1761 1386H1571L1417 594Q1351 253 1193 112T720 -29T300 113T260 594L414 1386Z" />
<glyph unicode="&#x16d;" glyph-name="ubreve" horiz-adv-x="1319" d="M481 1608H577Q575 1529 620 1494Q665 1458 765 1458T924 1494Q983 1529 1011 1608H1107Q1069 1465 976 1393T738 1321T528 1393T481 1608ZM991 1063H1175L989 106H1163L1143 0H785L821 188Q749
82 658 27T459 -29Q282 -29 218 72Q179 132 179 235Q179 302 196 387L306 956H140L161 1063H512L392 444Q372 341 372 273Q372 212 388 178Q421 106 543 106Q671 106 756 200T876 473L991 1063Z" />
<glyph unicode="&#x16e;" glyph-name="Uring" horiz-adv-x="1726" d="M414 1386H223L244 1493H828L807 1386H616L466 614Q410 328 482 215T783 102T1127 215T1298 614L1448 1386H1257L1278 1493H1782L1761 1386H1571L1417 594Q1351 253 1193 112T720 -29T300 113T260
594L414 1386ZM1432 1994T1410 1879T1293 1684T1083 1604T904 1684T862 1879T979 2073Q1074 2153 1189 2153T1368 2073Q1432 1994 1410 1879ZM1288 1879Q1300 1942 1265 1986Q1229 2030 1165 2030Q1100 2030 1048 1987Q997 1943 984 1879Q971 1814 1007 1771Q1042
1727 1107 1727Q1171 1727 1223 1771Q1276 1815 1288 1879Z" />
<glyph unicode="&#x16f;" glyph-name="uring" horiz-adv-x="1319" d="M991 1063H1175L989 106H1163L1143 0H785L821 188Q749 82 658 27T459 -29Q282 -29 218 72Q179 132 179 235Q179 302 196 387L306 956H140L161 1063H512L392 444Q372 341 372 273Q372 212 388
178Q421 106 543 106Q671 106 756 200T876 473L991 1063ZM1079 1875T1057 1760T940 1565T730 1485T551 1565T509 1760T626 1954Q721 2034 836 2034T1015 1954Q1079 1875 1057 1760ZM935 1760Q947 1823 912 1867Q876 1911 812 1911Q747 1911 695 1868Q644 1824 631
1760Q618 1695 654 1652Q689 1608 754 1608Q818 1608 870 1652Q923 1696 935 1760Z" />
<glyph unicode="&#x170;" glyph-name="Uhungarumlaut" horiz-adv-x="1726" d="M1478 1899H1675L1361 1635H1244L1478 1899ZM1161 1899H1358L1044 1635H927L1161 1899ZM414 1386H223L244 1493H828L807 1386H616L466 614Q410 328 482 215T783 102T1127 215T1298
614L1448 1386H1257L1278 1493H1782L1761 1386H1571L1417 594Q1351 253 1193 112T720 -29T300 113T260 594L414 1386Z" />
<glyph unicode="&#x171;" glyph-name="uhungarumlaut" horiz-adv-x="1319" d="M763 1638H933L615 1262H501L763 1638ZM1093 1638H1271L910 1262H794L1093 1638ZM991 1063H1175L989 106H1163L1143 0H785L821 188Q749 82 658 27T459 -29Q282 -29 218 72Q179 132
179 235Q179 302 196 387L306 956H140L161 1063H512L392 444Q372 341 372 273Q372 212 388 178Q421 106 543 106Q671 106 756 200T876 473L991 1063Z" />
<glyph unicode="&#x172;" glyph-name="Uogonek" horiz-adv-x="1726" d="M676 -16H770L769 -18Q658 -141 649 -188Q640 -234 668 -262T752 -290Q779 -290 809 -284T872 -264L846 -391Q809 -400 775 -404T708 -409Q595 -409 542 -365T504 -239Q513 -190 553 -138T676
-16ZM414 1386H223L244 1493H828L807 1386H616L466 614Q410 328 482 215T783 102T1127 215T1298 614L1448 1386H1257L1278 1493H1782L1761 1386H1571L1417 594Q1351 253 1193 112T720 -29T300 113T260 594L414 1386Z" />
<glyph unicode="&#x173;" glyph-name="uogonek" horiz-adv-x="1319" d="M977 0H1071L1070 -2Q959 -125 950 -172Q941 -218 969 -246T1053 -274Q1080 -274 1110 -268T1173 -248L1147 -375Q1110 -384 1076 -388T1009 -393Q896 -393 843 -349T805 -223Q814 -174 854
-122T977 0ZM991 1063H1175L989 106H1163L1143 0H785L821 188Q749 82 658 27T459 -29Q282 -29 218 72Q179 132 179 235Q179 302 196 387L306 956H140L161 1063H512L392 444Q372 341 372 273Q372 212 388 178Q421 106 543 106Q671 106 756 200T876 473L991 1063Z"
/>
<glyph unicode="&#x174;" glyph-name="Wcircumflex" horiz-adv-x="2105" d="M1416 0H1252L1146 1214L568 0H404L282 1386H134L155 1493H700L679 1386H493L590 283L1165 1493H1327L1435 270L1965 1386H1793L1814 1493H2244L2223 1386H2076L1416 0ZM1192 1906H1368L1547
1642H1431L1260 1803L1025 1642H909L1192 1906Z" />
<glyph unicode="&#x175;" glyph-name="wcircumflex" horiz-adv-x="1753" d="M1015 1638H1183L1344 1262H1228L1076 1522L822 1262H706L1015 1638ZM1197 233Q1330 377 1360 430Q1470 630 1578 956L1423 955L1444 1063H1711L1690 955H1689Q1587 584 1490 405Q1347
150 1190 0H1037L928 795L511 0H364L235 956L115 954L136 1063H410L522 233L957 1063H1086L1197 233Z" />
<glyph unicode="&#x176;" glyph-name="Ycircumflex" horiz-adv-x="1352" d="M242 0L262 106H453L558 643L241 1386H101L122 1493H677L656 1386H482L738 782L1228 1386H1060L1081 1493H1515L1494 1386H1353L764 662L655 106H846L826 0H242ZM809 1906H985L1164 1642H1048L877
1803L642 1642H526L809 1906Z" />
<glyph unicode="&#x177;" glyph-name="ycircumflex" horiz-adv-x="1157" d="M708 1638H876L1037 1262H921L769 1522L515 1262H399L708 1638ZM1178 1054Q1079 482 905 180Q650 -263 445 -396Q354 -455 114 -455Q67 -455 20 -447T-76 -424L-36 -221H58Q56 -237 56
-252Q56 -294 74 -318Q99 -352 164 -352Q340 -352 493 -199L242 956H121L142 1063H417L653 8Q814 249 853 348Q979 659 1004 947H883L904 1054H1178Z" />
<glyph unicode="&#x178;" glyph-name="Ydieresis" horiz-adv-x="1352" d="M242 0L262 106H453L558 643L241 1386H101L122 1493H677L656 1386H482L738 782L1228 1386H1060L1081 1493H1515L1494 1386H1353L764 662L655 106H846L826 0H242ZM740 1884Q788 1884 815
1849Q843 1814 834 1768Q824 1718 784 1685Q744 1651 694 1651Q645 1651 618 1685Q591 1718 601 1768Q610 1814 651 1849Q693 1884 740 1884ZM1130 1884Q1177 1884 1204 1849Q1232 1814 1223 1768Q1213 1718 1173 1685Q1133 1651 1084 1651Q1034 1651 1007 1685Q980
1718 990 1768Q999 1814 1040 1849Q1082 1884 1130 1884Z" />
<glyph unicode="&#x179;" glyph-name="Zacute" horiz-adv-x="1423" d="M1081 1900H1278L964 1636H847L1081 1900ZM-53 0L-39 72L1143 1370H371L328 1147H205L272 1493H1452L1438 1421L256 123H1100L1140 332H1262L1198 0H-53Z" />
<glyph unicode="&#x17a;" glyph-name="zacute" horiz-adv-x="1079" d="M924 1846H1123L709 1470H592L924 1846ZM815 975Q923 975 1028 1063H1088L1072 977L345 219Q355 216 384 207Q418 196 452 174L501 144Q595 87 663 87Q794 87 948 237L924 116Q753 -52 623
-52Q544 -50 433 19T252 88Q144 88 39 0H-21L-5 86L723 843Q712 847 683 856Q649 867 615 889L566 919Q472 976 404 976Q273 976 119 826L143 947Q314 1115 444 1115Q523 1113 634 1044T815 975Z" />
<glyph unicode="&#x17b;" glyph-name="Zdotaccent" horiz-adv-x="1423" d="M-53 0L-39 72L1143 1370H371L328 1147H205L272 1493H1452L1438 1421L256 123H1100L1140 332H1262L1198 0H-53ZM899 1904T946 1904T1021 1869T1040 1788Q1030 1738 990 1705Q950 1671
900 1671T823 1705Q796 1738 806 1788Q815 1834 857 1869Z" />
<glyph unicode="&#x17c;" glyph-name="zdotaccent" horiz-adv-x="1079" d="M724 1759T772 1759T848 1724Q875 1690 866 1642Q856 1591 817 1558Q777 1525 726 1525T649 1558Q622 1591 632 1642Q641 1690 683 1724Q724 1759 772 1759ZM815 975Q923 975 1028 1063H1088L1072
977L345 219Q355 216 384 207Q418 196 452 174L501 144Q595 87 663 87Q794 87 948 237L924 116Q753 -52 623 -52Q544 -50 433 19T252 88Q144 88 39 0H-21L-5 86L723 843Q712 847 683 856Q649 867 615 889L566 919Q472 976 404 976Q273 976 119 826L143 947Q314
1115 444 1115Q523 1113 634 1044T815 975Z" />
<glyph unicode="&#x17d;" glyph-name="Zcaron" horiz-adv-x="1423" d="M-53 0L-39 72L1143 1370H371L328 1147H205L272 1493H1452L1438 1421L256 123H1100L1140 332H1262L1198 0H-53ZM831 1635L652 1899H768L939 1737L1174 1899H1290L1007 1635H831Z" />
<glyph unicode="&#x17e;" glyph-name="zcaron" horiz-adv-x="1079" d="M815 975Q923 975 1028 1063H1088L1072 977L345 219Q355 216 384 207Q418 196 452 174L501 144Q595 87 663 87Q794 87 948 237L924 116Q753 -52 623 -52Q544 -50 433 19T252 88Q144 88 39
0H-21L-5 86L723 843Q712 847 683 856Q649 867 615 889L566 919Q472 976 404 976Q273 976 119 826L143 947Q314 1115 444 1115Q523 1113 634 1044T815 975ZM610 1262L449 1638H565L717 1378L971 1638H1087L778 1262H610Z" />
<glyph unicode="&#x17f;" glyph-name="longs" horiz-adv-x="758" d="M1020 1305H923Q927 1326 927 1345Q927 1391 903 1419Q869 1458 790 1458Q687 1458 634 1402T553 1200L307 -66Q272 -244 162 -335T-127 -426L-115 -328Q-10 -328 41 -272Q94 -212 123 -66L321
956H145L166 1063H342L368 1196Q403 1374 513 1465T802 1556Q869 1556 933 1544T1060 1507L1020 1305Z" />
<glyph unicode="&#x180;" glyph-name="uni0180" horiz-adv-x="1311" d="M369 1450H193L214 1556H574L531 1332H847L823 1210H507L446 897Q519 997 612 1044T828 1092Q1024 1092 1118 937Q1180 835 1180 692Q1180 617 1163 532Q1114 282 960 127T610 -29Q487 -29
413 18T304 166L272 0H88L323 1210H147L171 1332H347L369 1450ZM365 479Q349 400 349 337Q349 246 381 186Q435 86 575 86Q716 86 810 199T948 532Q968 633 968 712Q968 804 940 865Q890 977 748 977Q608 977 515 876T385 584L365 479Z" />
<glyph unicode="&#x181;" glyph-name="uni0181" horiz-adv-x="1505" d="M427 1386Q200 1386 115 1297Q26 1206 -10 1020H-139L-72 1364Q45 1440 232 1476Q350 1493 448 1493H995Q1219 1493 1317 1400Q1414 1308 1378 1124Q1353 991 1258 912Q1163 833 1006 815Q1194
791 1272 694Q1351 596 1319 432Q1276 210 1116 105T658 0H-32L-12 106H178L427 1386ZM528 862H782Q946 862 1035 925Q1122 988 1148 1124Q1179 1281 1112 1324Q1017 1386 884 1386H630L528 862ZM381 106H680Q860 106 958 184T1090 432Q1122 599 1055 678Q988 756
807 756H508L381 106Z" />
<glyph unicode="&#x182;" glyph-name="uni0182" horiz-adv-x="1505" d="M381 106H680Q860 106 958 184T1090 432Q1101 487 1101 533Q1101 626 1056 678Q988 756 807 756H508L381 106ZM258 1493H1459L1394 1160H1271L1312 1370H627L528 862H782Q1162 862 1272 694Q1327
608 1327 508Q1327 471 1319 432Q1276 210 1116 105T658 0H-32L-12 106H178L427 1386H237L258 1493Z" />
<glyph unicode="&#x183;" glyph-name="uni0183" horiz-adv-x="1311" d="M365 479Q327 287 382 186Q435 86 575 86Q716 86 810 199Q905 312 948 532Q991 753 940 865Q890 977 748 977Q608 977 516 876Q422 775 385 584L365 479ZM1166 1556L1114 1289H1009L1037
1433H550L446 897Q519 997 613 1044Q705 1092 828 1092Q1024 1092 1118 937T1163 532T960 126Q806 -29 610 -29Q487 -29 413 18Q338 66 304 166L272 0H-89L-69 106H108L369 1450H192L213 1556H1166Z" />
<glyph unicode="&#x184;" glyph-name="uni0184" horiz-adv-x="1505" d="M381 106H680Q860 106 958 184T1090 432Q1123 601 1056 678T807 756H508L381 106ZM181 1098L651 1493L528 862H782Q1162 862 1272 694Q1347 576 1319 432Q1276 210 1116 105T658 0H-32L-12
106H178L351 992H161L181 1098Z" />
<glyph unicode="&#x185;" glyph-name="uni0185" horiz-adv-x="1311" d="M365 479Q327 287 381 187T575 86Q716 86 810 199T948 532Q991 753 941 865T748 977Q608 977 515 876T385 584L365 479ZM574 1556L446 897Q519 997 612 1044T828 1092Q1024 1092 1118 937T1163
532T960 127T610 -29Q487 -29 413 18T304 166L272 0H-89L-69 106H108L306 1125H129L154 1251L574 1556Z" />
<glyph unicode="&#x186;" glyph-name="uni0186" horiz-adv-x="1567" d="M183 1096Q290 1305 466 1412T881 1520Q1027 1520 1142 1470T1335 1323Q1425 1211 1452 1069T1444 746Q1376 398 1134 185T562 -29Q440 -29 309 3T31 100L97 444H210Q211 256 305 167T600
78Q839 78 995 247T1215 746Q1279 1074 1189 1243T860 1413Q693 1413 570 1334T367 1096H183Z" />
<glyph unicode="&#x187;" glyph-name="uni0187" horiz-adv-x="1567" d="M1365 395Q1259 186 1082 78Q906 -29 668 -29Q522 -29 407 21T213 168Q123 280 96 422Q69 565 104 745Q172 1093 414 1306Q657 1520 986 1520Q1108 1520 1240 1488Q1334 1465 1435 1425Q1452
1512 1545 1570Q1631 1630 1745 1630Q1817 1630 1880 1614Q1942 1597 1997 1564L1955 1345H1860Q1878 1441 1837 1486Q1804 1531 1722 1531Q1631 1531 1576 1470T1496 1279L1451 1047H1338Q1337 1235 1244 1324Q1149 1413 948 1413Q709 1413 553 1244Q397 1074
333 745Q269 417 360 248Q450 78 689 78Q856 78 979 158Q1102 237 1181 395H1365Z" />
<glyph unicode="&#x188;" glyph-name="uni0188" horiz-adv-x="1147" d="M991 319Q919 149 791 60T486 -29Q254 -29 143 124Q32 278 81 532Q131 787 301 940Q472 1092 704 1092Q805 1092 900 1068Q947 1057 994 1039Q1039 1183 1135 1255Q1205 1308 1329 1308Q1401
1308 1463 1292Q1526 1275 1581 1242L1539 1023H1444Q1462 1119 1422 1164Q1388 1209 1306 1209Q1215 1209 1159 1148Q1105 1087 1080 957L1035 725H928Q934 865 876 929Q818 993 687 993Q538 993 439 878Q341 762 296 532T304 186Q357 70 507 70Q626 70 709 132T843
319H991Z" />
<glyph unicode="&#x189;" glyph-name="uni0189" horiz-adv-x="1653" d="M389 106H577Q868 106 1056 272T1305 748T1242 1222T826 1386H638L533 844H869L845 719H509L389 106ZM-22 0L-2 106H188L308 719H108L132 844H332L437 1386H247L268 1493H862Q1248 1493 1425
1296T1534 748Q1466 396 1212 198T572 0H-22Z" />
<glyph unicode="&#x18a;" glyph-name="uni018A" horiz-adv-x="1642" d="M427 1386Q200 1386 115 1297Q26 1206 -10 1020H-139L-72 1364Q86 1467 232 1476Q329 1493 448 1493H852Q1238 1493 1415 1296Q1593 1099 1524 748Q1456 396 1202 198T562 0H-32L-12 106H178L427
1386ZM381 106H567Q858 106 1046 272Q1234 438 1294 748T1232 1222T816 1386H630L381 106Z" />
<glyph unicode="&#x18b;" glyph-name="uni018B" horiz-adv-x="1505" d="M862 106L989 756H690Q509 756 411 678Q314 601 281 432Q248 262 315 184T563 106H862ZM1525 1493L1504 1386H1314L1066 106H1256L1235 0H545Q248 0 129 105T52 432Q80 576 201 694Q375 862
755 862H1009L1108 1370H423L383 1161H260L324 1493H1525Z" />
<glyph unicode="&#x18c;" glyph-name="uni018C" horiz-adv-x="1311" d="M792 479L812 584Q849 775 796 876Q742 977 602 977Q460 977 366 865Q272 753 229 532Q186 312 236 199Q287 86 428 86Q568 86 662 186Q754 287 792 479ZM409 1556H1362L1341 1450H1164L903
106H1080L1060 0H699L731 166Q657 66 565 18Q472 -29 349 -29Q153 -29 59 126Q-35 282 14 532T217 937T567 1092Q690 1092 765 1044Q838 997 873 897L977 1433H490L462 1289H357L409 1556Z" />
<glyph unicode="&#x18d;" glyph-name="uni018D" horiz-adv-x="1233" d="M814 27Q875 2 899 -47Q926 -103 899 -240Q874 -369 763 -437Q652 -504 456 -504Q402 -504 301 -488Q200 -471 94 -440L133 -243L245 -218Q240 -307 303 -353Q366 -398 460 -398T633 -349Q716
-297 726 -231Q744 -136 714 -104Q651 -29 553 -29Q320 -29 209 124Q99 277 148 531T367 938Q538 1092 771 1092Q1003 1092 1114 938Q1225 785 1176 531T957 124Q881 57 814 27ZM752 993Q604 993 505 876Q407 759 363 531T371 186Q424 70 572 70T819 186Q917 303
961 531T952 876T752 993Z" />
<glyph unicode="&#x18e;" glyph-name="uni018E" horiz-adv-x="1495" d="M1186 0H-32L32 332H155L115 123H817L938 748H449L413 561H290L386 1057H509L473 870H962L1059 1370H373L333 1161H210L274 1493H1476L1455 1386H1265L1016 106H1206L1186 0Z" />
<glyph unicode="&#x18f;" glyph-name="uni018F" horiz-adv-x="1679" d="M981 1413Q803 1413 679 1334Q556 1254 477 1096H293Q400 1305 576 1412Q753 1520 991 1520Q1316 1520 1474 1307T1565 745Q1530 566 1447 422Q1365 280 1231 168Q1113 70 978 20Q842 -29
689 -29Q537 -29 419 21Q302 71 224 168Q134 280 107 422Q80 564 115 745L129 816H1347Q1401 1095 1307 1244Q1215 1413 981 1413ZM1324 694H335Q278 402 372 246Q464 78 710 78Q955 78 1113 246Q1267 402 1324 694Z" />
<glyph unicode="&#x190;" glyph-name="uni0190" horiz-adv-x="1276" d="M1425 1430L1374 1167H1262Q1264 1187 1264 1205Q1264 1303 1207 1362T979 1421T724 1352T611 1144Q604 1106 604 1073Q604 986 657 934Q729 862 948 862H998L977 756H882Q663 756 556 667T416
412Q406 361 406 317Q406 220 455 158Q527 70 663 70T907 139T1033 265H1217Q1159 160 1020 66T641 -29T282 82Q193 166 193 303Q193 350 203 403Q237 574 359 681T670 815Q521 847 453 938Q405 1003 405 1091Q405 1125 412 1163Q445 1331 586 1425T965 1520T1425
1430Z" />
<glyph unicode="&#x191;" glyph-name="uni0191" horiz-adv-x="1421" d="M-99 -426Q-244 -426 -376 -358L-331 -123H-217Q-255 -319 -76 -319Q43 -319 105 -244Q168 -167 209 49L469 1386H279L300 1493H1522L1457 1161H1334L1375 1370H669L571 870H1081L1118 1057H1241L1144
561H1021L1058 748H548L410 41Q349 -272 164 -371Q60 -426 -99 -426Z" />
<glyph unicode="&#x192;" glyph-name="florin" horiz-adv-x="758" d="M1020 1305H923Q927 1326 927 1345Q927 1391 903 1419Q869 1458 790 1458Q687 1458 634 1402T553 1200L526 1063H823L802 956H505L316 -19Q281 -197 171 -288T-118 -379Q-185 -379 -249 -367T-376
-330L-336 -128H-239Q-243 -149 -243 -168Q-243 -214 -219 -242Q-185 -281 -106 -281Q-3 -281 50 -225T132 -19L321 956H145L166 1063H342L368 1196Q403 1374 513 1465T802 1556Q869 1556 933 1544T1060 1507L1020 1305Z" />
<glyph unicode="&#x193;" glyph-name="uni0193" horiz-adv-x="1636" d="M1742 1531Q1617 1531 1558 1413Q1532 1359 1516 1279L1471 1047H1358L1359 1052Q1359 1319 1157 1387Q1081 1413 975 1413Q717 1413 558 1247T333 745Q230 215 541 105Q619 78 720 78Q946
78 1153 190L1228 575H947L968 682H1452L1344 125Q1048 -29 699 -29Q361 -29 198 182Q36 394 104 745Q173 1099 418 1310Q663 1520 1008 1520Q1220 1520 1453 1436Q1492 1513 1565 1570Q1640 1630 1765 1630Q1906 1630 2017 1564L1975 1345H1880Q1908 1492 1804
1522Q1778 1531 1742 1531Z" />
<glyph unicode="&#x194;" glyph-name="uni0194" horiz-adv-x="1458" d="M630 733L321 1386H161L181 1493H773L753 1386H577L803 905L1226 1386H1034L1054 1493H1543L1523 1386H1355L848 811Q1270 126 1053 -44Q869 -188 517 -188Q162 -188 139 12Q119 193 630
733ZM677 636Q315 258 276 56Q249 -82 537 -82Q809 -82 836 56Q877 268 677 636Z" />
<glyph unicode="&#x195;" glyph-name="uni0195" horiz-adv-x="1909" d="M99 0L381 1450H205L226 1556H586L453 874Q525 982 617 1037Q710 1092 818 1092Q996 1092 1057 991Q1120 888 1079 676L1016 351Q990 220 1021 160T1144 99Q1269 99 1406 229Q1518 336 1555
526Q1585 680 1544 783Q1502 885 1393 931L1405 990H1517Q1658 926 1722 797Q1787 667 1757 510Q1735 399 1674 303Q1612 205 1517 131Q1432 64 1331 29Q1229 -7 1123 -7Q963 -7 874 94Q798 180 831 351L883 618Q920 813 887 884Q853 956 731 956Q603 956 518 863T399
592L283 0H99Z" />
<glyph unicode="&#x196;" glyph-name="uni0196" horiz-adv-x="809" d="M429 351Q404 220 434 160Q466 99 557 99H570L551 0H538Q337 0 285 54Q188 155 226 351L427 1386H237L258 1493H841L820 1386H630L429 351Z" />
<glyph unicode="&#x197;" glyph-name="uni0197" horiz-adv-x="809" d="M381 106H571L551 0H-32L-12 106H178L280 628H15L48 798H313L427 1386H237L258 1493H841L820 1386H630L516 798H781L748 628H483L381 106Z" />
<glyph unicode="&#x198;" glyph-name="uni0198" horiz-adv-x="1530" d="M1271 1386Q1445 1517 1569 1517Q1636 1517 1698 1500Q1766 1482 1817 1451L1774 1232H1679Q1698 1328 1657 1373Q1628 1411 1568 1416Q1481 1416 1394 1356L687 823L1264 106H1434L1414
0H1067L496 709L379 106H569L549 0H-34L-14 106H176L425 1386H235L256 1493H839L818 1386H628L518 821L1271 1386Z" />
<glyph unicode="&#x199;" glyph-name="uni0199" horiz-adv-x="1241" d="M374 543L903 956H750L770 1063H1069L1049 956L676 664L971 106H1124L1104 0H809L519 543L348 408L269 0H85L319 1205Q351 1367 467 1462Q582 1556 753 1556Q830 1556 888 1540Q950 1523
1005 1490L963 1271H868Q886 1363 845 1412Q808 1457 730 1457Q639 1457 584 1396Q530 1337 504 1205L374 543Z" />
<glyph unicode="&#x19a;" glyph-name="uni019A" horiz-adv-x="655" d="M-1 464L20 570H196L367 1450H190L210 1556H571L380 570H554L533 464H359L289 106H463L443 0H85L175 464H-1Z" />
<glyph unicode="&#x19b;" glyph-name="uni019B" horiz-adv-x="1298" d="M634 1307Q615 1399 586 1429Q557 1460 504 1460Q444 1460 411 1431Q376 1401 357 1333H263L302 1536Q355 1551 406 1559Q457 1567 504 1567Q615 1567 667 1521Q720 1476 746 1352L912 1450L955
1364L765 1249L991 107H1110L1089 0H690L711 107H870L729 841L272 107H442L421 0H-68L-47 107H74L676 1084L658 1183L354 996L310 1082L637 1285L634 1307Z" />
<glyph unicode="&#x19c;" glyph-name="uni019C" horiz-adv-x="1942" d="M797 207Q721 90 627 31T423 -29Q257 -29 194 74Q132 177 173 387L368 1389H202L222 1495H732L712 1389H552L361 408Q329 245 363 176T509 107Q633 107 715 200Q798 294 832 471L1011 1389H851L871
1495H1375L1355 1389H1195L1002 401Q972 242 1006 175T1152 107Q1276 107 1358 200Q1441 294 1475 471L1654 1389H1494L1514 1495H2024L2004 1389H1838L1588 105H1764L1744 0H1384L1420 189Q1349 83 1259 27T1069 -29Q945 -29 874 32T797 207Z" />
<glyph unicode="&#x19d;" glyph-name="uni019D" horiz-adv-x="1792" d="M-378 -358L-333 -123H-219Q-238 -222 -200 -270Q-166 -319 -78 -319Q41 -319 102 -244T207 49L467 1386H266L287 1493H670L1336 315L1544 1386H1344L1365 1493H1889L1868 1386H1667L1392
-29H1271L560 1228L329 41Q281 -206 161 -316T-152 -426Q-172 -426 -241 -409Q-312 -392 -378 -358Z" />
<glyph unicode="&#x19e;" glyph-name="uni019E" horiz-adv-x="1319" d="M185 0L371 956H195L216 1063H576L539 874Q611 982 703 1037Q796 1092 904 1092Q1080 1092 1143 991T1165 676L971 -319H1135L1114 -426H765L968 618Q1006 813 972 886Q938 958 817 958Q689
958 604 864Q519 771 484 592L369 0H185Z" />
<glyph unicode="&#x19f;" glyph-name="uni019F" horiz-adv-x="1679" d="M689 -29Q537 -29 420 21T224 168Q134 280 107 422T115 745T232 1068T448 1323Q565 1421 701 1470T991 1520Q1316 1520 1474 1307T1565 745Q1530 566 1447 422Q1365 280 1231 168Q1113 70
978 20Q842 -29 689 -29ZM710 78Q955 78 1113 246Q1258 402 1324 694H335Q287 402 372 246Q464 78 710 78ZM1347 816Q1389 1095 1307 1244Q1215 1413 970 1413Q724 1413 566 1244Q426 1095 359 816H1347Z" />
<glyph unicode="&#x1a0;" glyph-name="Ohorn" horiz-adv-x="1679" d="M1339 1313L1358 1407L1359 1406Q1465 1319 1512 1319Q1558 1319 1593 1352T1638 1442Q1644 1469 1643 1498T1635 1557L1762 1556Q1764 1520 1762 1487T1753 1421Q1731 1308 1675 1246T1537
1184Q1488 1184 1442 1214T1339 1313ZM961 78Q1206 78 1364 246T1586 745Q1650 1076 1558 1244T1221 1413Q975 1413 817 1245T595 745Q531 415 623 247T961 78ZM940 -29Q788 -29 671 21T475 168Q385 280 358 422T366 745T483 1068T699 1323Q816 1421 952 1470T1242
1520Q1567 1520 1725 1307T1816 745Q1781 566 1698 423T1482 168Q1365 70 1229 21T940 -29Z" />
<glyph unicode="&#x1a1;" glyph-name="ohorn" horiz-adv-x="1233" d="M978 845L997 939L998 938Q1104 851 1151 851Q1197 851 1232 884T1277 974Q1283 1001 1282 1030T1274 1089L1401 1088Q1403 1052 1401 1019T1392 953Q1370 840 1314 778T1176 716Q1127 716
1081 746T978 845ZM779 70Q927 70 1025 187T1168 532Q1188 636 1188 717Q1188 813 1160 876Q1107 993 959 993T713 877T570 532Q550 428 550 348Q550 251 579 187Q632 70 779 70ZM760 -29Q528 -29 417 124Q340 231 340 385Q340 454 355 532Q404 786 574 939T978
1092T1322 939Q1398 833 1398 679Q1398 610 1383 532Q1334 278 1164 125T760 -29Z" />
<glyph unicode="&#x1a2;" glyph-name="uni01A2" horiz-adv-x="2129" d="M718 -29Q566 -29 448 21T252 168Q162 280 135 422T143 745T260 1068T477 1323Q594 1421 729 1470T1019 1520Q1223 1520 1361 1436Q1426 1462 1490 1476Q1567 1493 1638 1493Q1858 1493 1935
1383T1965 1026L1724 -214H1914L1893 -321H1268L1289 -214H1521L1760 1018Q1803 1236 1771 1311T1619 1386Q1531 1386 1478 1338Q1491 1323 1503 1307Q1661 1094 1593 745Q1558 566 1476 422Q1393 280 1259 168Q1141 70 1006 20Q871 -29 718 -29ZM739 78Q984 78
1141 246T1363 745Q1428 1076 1336 1244T998 1413Q752 1413 595 1245T372 745Q308 415 400 247T739 78Z" />
<glyph unicode="&#x1a3;" glyph-name="uni01A3" horiz-adv-x="1653" d="M1005 1033Q1006 1035 1052 1046Q1121 1063 1193 1063Q1364 1063 1443 970T1491 712L1290 -319H1466L1445 -426H1085L1307 712Q1332 841 1301 902T1178 964Q1113 964 1098 951L1107 939Q1218
786 1169 532T949 125T546 -29Q314 -29 203 124T140 532T360 939T764 1092Q908 1092 1005 1033ZM565 70Q713 70 811 187T953 532T945 876T744 993T498 877T356 532T364 187T565 70Z" />
<glyph unicode="&#x1a4;" glyph-name="uni01A4" horiz-adv-x="1378" d="M448 1493H964Q1188 1493 1297 1380Q1406 1266 1368 1073Q1331 881 1178 767T801 653H488L381 106H612L592 0H-32L-12 106H178L427 1386Q200 1386 115 1297Q26 1206 -10 1020H-139L-72 1364Q40
1437 232 1476Q350 1493 448 1493ZM509 760H773Q922 760 1015 840Q1109 921 1138 1073Q1168 1226 1106 1306T894 1386H630L509 760Z" />
<glyph unicode="&#x1a5;" glyph-name="uni01A5" horiz-adv-x="1311" d="M432 584L412 479Q375 287 429 186Q483 86 623 86Q764 86 858 199Q953 312 995 532Q1038 753 987 865Q937 977 796 977Q656 977 563 876T432 584ZM351 1115Q383 1281 498 1373Q614 1466 785
1466Q852 1466 919 1449Q981 1433 1037 1400L994 1181H899Q918 1274 878 1322Q841 1367 762 1367Q671 1367 615 1305Q561 1245 536 1115L493 897Q565 995 660 1044Q752 1092 875 1092Q1071 1092 1165 937T1211 532T1007 126Q853 -29 657 -29Q534 -29 460 18Q386
66 351 166L236 -426H51L351 1115Z" />
<glyph unicode="&#x1a6;" glyph-name="uni01A6" horiz-adv-x="1542" d="M459 1386H269L290 1493H894L873 1386H662L620 1168H984Q1202 1168 1300 1064Q1371 989 1371 867Q1371 821 1361 769Q1301 460 948 416Q1015 397 1056 352T1122 224L1253 -219H1435L1414
-325H1062L922 150Q881 289 833 329T687 369H464L413 106H624L603 0H-1L20 106H210L459 1386ZM485 476H780Q931 476 1017 547T1132 769Q1142 819 1142 881T1103 990Q1045 1061 894 1061H599L485 476Z" />
<glyph unicode="&#x1a7;" glyph-name="uni01A7" horiz-adv-x="1403" d="M1104 72Q962 21 830 -4Q697 -29 574 -29Q299 -29 182 81T106 408Q137 567 242 662Q347 756 562 817L758 872Q970 932 1044 993T1139 1161Q1163 1284 1093 1348Q1023 1413 865 1413Q684 1413
582 1342Q479 1272 432 1114H319L380 1432Q529 1475 657 1498Q786 1520 890 1520Q1134 1520 1248 1415T1326 1120Q1293 951 1187 854Q1080 757 854 692L645 633Q452 578 384 520Q317 462 296 354Q270 219 350 148Q429 78 607 78Q798 78 908 160Q1017 241 1055 412H1170L1104
72Z" />
<glyph unicode="&#x1a8;" glyph-name="uni01A8" horiz-adv-x="1051" d="M854 59Q748 15 646 -7T440 -29Q237 -29 138 58Q40 144 69 295Q91 406 171 476Q251 547 411 594L566 639Q709 681 762 722Q815 762 828 829Q844 911 792 952Q741 993 625 993Q508 993 429
935T325 774H219L264 1006Q371 1048 468 1070T650 1092Q839 1092 930 1009T992 780Q972 678 898 612Q824 546 678 502L537 457Q374 408 318 365Q262 322 249 252Q231 163 287 116Q343 70 467 70Q605 70 688 129Q769 188 796 307H902L854 59Z" />
<glyph unicode="&#x1a9;" glyph-name="uni01A9" horiz-adv-x="1448" d="M973 814L298 188H1078L1106 332H1229L1165 0H-62L747 748L228 1493H1455L1391 1161H1268L1308 1370H613L973 814Z" />
<glyph unicode="&#x1aa;" glyph-name="uni01AA" horiz-adv-x="664" d="M356 1459Q197 1459 177 1352Q153 1229 464 1229Q478 1229 492 1230Q518 1325 479 1397Q445 1459 356 1459ZM685 1333Q728 1394 746 1489L759 1553H859L845 1489Q800 1269 661 1183Q467 643
213 -105Q176 -214 220 -295Q250 -357 341 -357Q423 -357 475 -311Q526 -267 552 -171H647L604 -389Q536 -423 468 -439Q398 -455 326 -455Q155 -455 76 -362Q-21 -247 28 -105Q26 -91 457 1129Q452 1129 448 1129Q-90 1129 -40 1359Q3 1558 378 1558Q539 1558
623 1465Q676 1404 685 1333Z" />
<glyph unicode="&#x1ab;" glyph-name="uni01AB" horiz-adv-x="823" d="M407 956H245L266 1063H428L492 1393H677L613 1063H959L938 956H592L461 281Q434 146 453 108T542 70Q614 70 655 112T717 250H856L787 -104Q755 -268 640 -361T353 -455Q281 -455 219 -439T100
-389L143 -170H238Q226 -266 260 -311T376 -356Q467 -356 522 -294Q576 -234 602 -104L619 -17Q568 -29 506 -29Q347 -29 295 41T276 281L407 956Z" />
<glyph unicode="&#x1ac;" glyph-name="uni01AC" horiz-adv-x="1366" d="M727 1493H1491L1423 1141H1300L1345 1374H906L659 106H850L830 0H246L266 106H457L704 1374Q477 1374 391 1285Q303 1194 267 1008H138L207 1364Q324 1440 511 1476Q634 1493 727 1493Z" />
<glyph unicode="&#x1ad;" glyph-name="uni01AD" horiz-adv-x="823" d="M464 1063H810L789 956H443L312 281Q286 146 304 108T393 70Q465 70 506 112Q548 155 568 250H707Q679 105 587 38Q503 -29 358 -29Q199 -29 147 42Q94 112 127 281L258 956H96L117 1063H279L307
1205Q338 1367 455 1462Q570 1556 741 1556Q818 1556 876 1540Q938 1523 993 1490L951 1271H856Q874 1367 833 1412Q800 1457 718 1457Q627 1457 572 1396Q517 1337 492 1205L464 1063Z" />
<glyph unicode="&#x1ae;" glyph-name="uni01AE" horiz-adv-x="1366" d="M1117 -358Q1037 -392 961 -409Q883 -426 812 -426Q592 -426 515 -316T486 41L745 1374H306L261 1141H138L207 1493H1533L1464 1141H1341L1386 1374H947L690 49Q648 -166 680 -244Q710 -319
831 -319Q919 -319 973 -270Q1026 -222 1048 -123H1162L1117 -358Z" />
<glyph unicode="&#x1af;" glyph-name="Uhorn" horiz-adv-x="1726" d="M1539 1313L1558 1407L1559 1406Q1665 1319 1712 1319Q1758 1319 1793 1352T1838 1442Q1844 1469 1843 1498T1835 1557L1962 1556Q1964 1520 1962 1487T1953 1421Q1931 1308 1875 1246T1737
1184Q1688 1184 1642 1214T1539 1313ZM664 1386H473L494 1493H1078L1057 1386H866L716 614Q660 328 732 215T1033 102T1377 215T1548 614L1698 1386H1507L1528 1493H2032L2011 1386H1821L1667 594Q1601 253 1443 112T970 -29T550 113T510 594L664 1386Z" />
<glyph unicode="&#x1b0;" glyph-name="uhorn" horiz-adv-x="1319" d="M1064 845L1083 939L1084 938Q1190 851 1237 851Q1283 851 1318 884T1363 974Q1369 1001 1368 1030T1360 1089L1487 1088Q1489 1052 1487 1019T1478 953Q1456 840 1400 778T1262 716Q1213 716
1167 746T1064 845ZM1236 1063H1420L1234 106H1408L1388 0H1030L1066 188Q994 82 903 27T704 -29Q527 -29 463 72Q424 132 424 235Q424 302 441 387L551 956H385L406 1063H757L637 444Q617 341 617 273Q617 212 633 178Q666 106 788 106Q916 106 1001 200T1121
473L1236 1063Z" />
<glyph unicode="&#x1b1;" glyph-name="uni01B1" horiz-adv-x="1698" d="M696 1356H360L333 1219H216L275 1520H867L831 1338Q638 1268 514 1112Q392 957 347 725Q293 446 397 276Q501 107 723 107T1115 276Q1285 446 1339 725Q1384 958 1323 1113T1095 1338L1131
1520H1721L1662 1219H1545L1572 1356H1238Q1430 1269 1518 1093T1564 703Q1535 552 1452 421Q1369 290 1239 187Q1122 96 985 48T702 0T440 48Q322 95 241 187Q150 290 117 422Q85 553 114 703Q155 916 313 1092Q469 1269 696 1356Z" />
<glyph unicode="&#x1b2;" glyph-name="uni01B2" horiz-adv-x="1556" d="M563 0Q348 -11 286 54Q188 155 226 351L427 1386H237L258 1493H841L820 1386H630L429 351Q405 226 434 160Q455 113 584 107Q796 98 976 276Q1146 446 1200 725Q1248 974 1183 1113Q1121
1244 974 1272L996 1386H1104V1386Q1310 1303 1382 1128Q1467 920 1425 703Q1395 552 1312 421Q1227 287 1099 187Q983 96 845 48Q733 9 563 0Z" />
<glyph unicode="&#x1b3;" glyph-name="uni01B3" horiz-adv-x="1512" d="M655 106H846L826 0H242L262 106H453L558 643L241 1386H101L122 1493H677L656 1386H482L738 782L1228 1386Q1379 1493 1515 1493Q1582 1493 1649 1476Q1712 1460 1767 1427L1725 1208H1630Q1641
1304 1608 1349Q1574 1394 1492 1394Q1366 1394 1301 1322L764 662L655 106Z" />
<glyph unicode="&#x1b4;" glyph-name="uni01B4" horiz-adv-x="1525" d="M437 -240Q363 -364 293 -409T112 -455Q65 -455 17 -447T-78 -424L-38 -221H56Q49 -289 71 -318T154 -348Q209 -348 248 -318T343 -195L447 -18L240 956H119L139 1063H628L608 956H438L595
225L983 864Q1118 1086 1363 1085Q1456 1085 1496 1068Q1610 1022 1615 1019L1572 800H1477Q1489 896 1456 941Q1421 986 1339 986Q1174 986 1086 840L437 -240Z" />
<glyph unicode="&#x1b5;" glyph-name="uni01B5" horiz-adv-x="1423" d="M1191 798L1158 628H716L256 123H1100L1140 332H1262L1198 0H-53L-39 72L467 628H219L252 798H622L1143 1370H371L328 1147H205L272 1493H1452L1438 1421L871 798H1191Z" />
<glyph unicode="&#x1b6;" glyph-name="uni01B6" horiz-adv-x="1079" d="M159 464L179 570H460L723 843Q712 847 683 856Q653 866 615 889L566 919Q473 976 404 976Q273 976 119 826L143 947Q315 1116 444 1115Q521 1114 634 1044Q745 975 815 975Q923 975 1028
1063H1088L1072 977L681 570H913L893 464H580L345 219Q355 216 384 207Q414 197 452 174L501 144Q594 87 663 87Q794 87 948 237L924 116Q752 -53 623 -52Q546 -51 433 19Q322 88 252 88Q144 88 39 0H-21L-5 86L358 464H159Z" />
<glyph unicode="&#x1b7;" glyph-name="uni01B7" horiz-adv-x="1156" d="M551 852H456L476 954L901 1370H374L331 1147H208L275 1493H1148L1124 1368L668 923L746 916Q924 887 1003 766Q1080 646 1043 454Q997 220 832 95Q668 -29 404 -29Q287 -29 182 -1Q75 27
-24 84L39 408H151Q130 247 200 164T429 81Q582 81 691 181Q798 280 832 452Q870 649 799 751Q727 852 551 852Z" />
<glyph unicode="&#x1b8;" glyph-name="uni01B8" horiz-adv-x="1156" d="M694 852Q518 852 408 751Q297 649 259 452Q225 280 294 181Q363 81 516 81Q674 81 777 164T922 408H1034L971 84Q850 27 733 -1Q616 -29 499 -29Q235 -29 119 95Q2 220 48 454Q85 646 210
766Q335 887 525 916L605 923L323 1368L347 1493H1220L1153 1147H1030L1073 1370H546L809 954L789 852H694Z" />
<glyph unicode="&#x1b9;" glyph-name="uni01B9" horiz-adv-x="1156" d="M694 423Q518 423 408 322Q297 220 259 23Q225 -149 294 -248Q364 -348 517 -348Q675 -348 778 -265T922 -21H1034L971 -345Q850 -402 733 -430Q616 -458 499 -458Q235 -458 119 -334Q3 -209
48 25Q85 217 210 337Q335 458 525 487L605 494L330 977L347 1063H1217L1160 772H1054L1090 956H563L809 525L789 423H694Z" />
<glyph unicode="&#x1bb;" glyph-name="uni01BB" horiz-adv-x="1303" d="M335 1137H223L275 1403Q393 1460 508 1490Q622 1520 726 1520Q959 1520 1072 1407T1147 1100Q1121 965 972 798H1128L1095 628H800L246 164H869L905 348H1022L954 0H-9L12 109L553 561Q594
595 630 628H156L189 798H792Q807 818 821 836Q909 962 936 1100Q965 1251 904 1336Q841 1421 703 1421Q560 1421 469 1350Q363 1279 335 1137Z" />
<glyph unicode="&#x1bc;" glyph-name="uni01BC" horiz-adv-x="1406" d="M888 840Q1067 814 1147 707T1190 403Q1149 194 987 83T561 -29Q444 -29 338 -4T131 72L187 362H299Q281 218 353 144T584 70Q737 70 843 158T979 401Q1013 577 940 667T690 758H308L430
1386H240L261 1493H1346L1281 1161H1158L1199 1370H630L531 860H665Q750 860 888 840Z" />
<glyph unicode="&#x1bd;" glyph-name="uni01BD" horiz-adv-x="1156" d="M571 525L749 504Q928 475 1006 354Q1084 234 1043 25Q998 -209 832 -334Q668 -458 404 -458Q288 -458 182 -430Q75 -402 -24 -345L39 -21H151Q130 -182 201 -265T430 -348Q583 -348 691
-248Q798 -149 832 23Q870 220 799 322Q727 423 551 423H239L343 958H166L187 1063H1140L1088 796H983L1011 940H524L443 525H571Z" />
<glyph unicode="&#x1be;" glyph-name="uni01BE" horiz-adv-x="1098" d="M536 1393H720L656 1064H830L810 958H636L603 787Q715 779 782 702Q862 608 817 380Q774 156 658 63Q543 -30 372 -30Q300 -30 237 -14Q175 2 120 36L162 254H257Q245 158 280 114Q313 68
395 68Q486 68 541 130Q595 190 632 380Q670 574 639 634Q608 696 517 696H401L452 958H276L296 1064H472L536 1393Z" />
<glyph unicode="&#x1c0;" glyph-name="uni01C0" horiz-adv-x="604" d="M528 1493L238 0H76L366 1493H528Z" />
<glyph unicode="&#x1c1;" glyph-name="uni01C1" horiz-adv-x="1008" d="M528 1493L238 0H76L366 1493H528ZM932 1493L642 0H480L770 1493H932Z" />
<glyph unicode="&#x1c2;" glyph-name="uni01C2" horiz-adv-x="940" d="M409 851H38L70 1013H441L534 1493H696L603 1013H974L942 851H571L531 642H902L870 480H499L406 0H244L337 480H-34L-2 642H369L409 851Z" />
<glyph unicode="&#x1c3;" glyph-name="uni01C3" horiz-adv-x="604" d="M268 156L238 0H76L106 156H268ZM528 1493L299 312H137L366 1493H528Z" />
<glyph unicode="&#x1c4;" glyph-name="uni01C4" horiz-adv-x="3065" d="M381 106H567Q858 106 1046 272T1294 748T1232 1222T816 1386H630L381 106ZM-32 0L-12 106H178L427 1386H237L258 1493H852Q1238 1493 1415 1296T1524 748Q1456 396 1202 198T562 0H-32ZM1589
0L1603 72L2785 1370H2013L1970 1147H1847L1914 1493H3094L3080 1421L1898 123H2742L2782 332H2904L2840 0H1589ZM2473 1635L2294 1899H2410L2581 1737L2816 1899H2932L2649 1635H2473Z" />
<glyph unicode="&#x1c5;" glyph-name="uni01C5" horiz-adv-x="2721" d="M381 106H567Q858 106 1046 272T1294 748T1232 1222T816 1386H630L381 106ZM-32 0L-12 106H178L427 1386H237L258 1493H852Q1238 1493 1415 1296T1524 748Q1456 396 1202 198T562 0H-32ZM2457
975Q2565 975 2670 1063H2730L2714 977L1987 219Q1997 216 2026 207Q2060 196 2094 174L2143 144Q2237 87 2305 87Q2436 87 2590 237L2566 116Q2395 -52 2265 -52Q2186 -50 2075 19T1894 88Q1786 88 1681 0H1621L1637 86L2365 843Q2354 847 2325 856Q2291 867 2257
889L2208 919Q2114 976 2046 976Q1915 976 1761 826L1785 947Q1956 1115 2086 1115Q2165 1113 2276 1044T2457 975ZM2252 1262L2091 1638H2207L2359 1378L2613 1638H2729L2420 1262H2252Z" />
<glyph unicode="&#x1c6;" glyph-name="uni01C6" horiz-adv-x="2390" d="M1229 1556L927 0H743L775 166Q701 66 609 19T393 -29Q197 -29 103 126Q40 229 40 373Q40 447 57 532Q106 782 260 937T611 1092Q734 1092 808 1045T917 897L1024 1450H850L871 1556H1229ZM836
479L856 584Q871 662 871 725Q871 816 839 876Q786 977 646 977Q504 977 410 865T272 532Q252 431 252 353Q252 260 280 199Q330 86 472 86Q612 86 705 186T836 479ZM2126 975Q2234 975 2339 1063H2399L2383 977L1656 219Q1666 216 1695 207Q1729 196 1763 174L1812
144Q1906 87 1974 87Q2105 87 2259 237L2235 116Q2064 -52 1934 -52Q1855 -50 1744 19T1563 88Q1455 88 1350 0H1290L1306 86L2034 843Q2023 847 1994 856Q1960 867 1926 889L1877 919Q1783 976 1715 976Q1584 976 1430 826L1454 947Q1625 1115 1755 1115Q1834
1113 1945 1044T2126 975ZM1921 1262L1760 1638H1876L2028 1378L2282 1638H2398L2089 1262H1921Z" />
<glyph unicode="&#x1c7;" glyph-name="uni01C7" horiz-adv-x="2181" d="M-32 0L-12 106H178L427 1386H237L258 1493H841L820 1386H630L385 123H1067L1115 373H1238L1166 0H-32ZM1015 -358L1060 -123H1174Q1158 -222 1192 -270T1315 -319Q1434 -319 1495 -244T1600
49L1860 1386H1628L1649 1493H2274L2253 1386H2063L1801 41Q1753 -206 1633 -316T1292 -426Q1221 -426 1151 -409T1015 -358Z" />
<glyph unicode="&#x1c8;" glyph-name="uni01C8" horiz-adv-x="1995" d="M-32 0L-12 106H178L427 1386H237L258 1493H841L820 1386H630L385 123H1067L1115 373H1238L1166 0H-32ZM1734 1393Q1742 1439 1782 1473T1870 1507Q1916 1507 1943 1473Q1963 1447 1963 1415Q1963
1404 1961 1393Q1951 1346 1913 1313T1826 1280Q1779 1280 1751 1313Q1731 1338 1731 1370Q1731 1381 1734 1393ZM1694 956H1520L1540 1063H1898L1672 -104Q1640 -268 1524 -361T1237 -455Q1165 -455 1103 -439T985 -389L1028 -170H1123Q1120 -195 1120 -216Q1120
-278 1145 -311Q1179 -356 1261 -356Q1352 -356 1407 -295T1488 -104L1694 956Z" />
<glyph unicode="&#x1c9;" glyph-name="uni01C9" horiz-adv-x="1290" d="M289 106H463L443 0H85L367 1450H190L210 1556H571L289 106ZM1029 1393Q1037 1439 1077 1473T1165 1507Q1211 1507 1238 1473Q1258 1447 1258 1415Q1258 1404 1256 1393Q1246 1346 1208 1313T1121
1280Q1074 1280 1046 1313Q1026 1338 1026 1370Q1026 1381 1029 1393ZM989 956H815L835 1063H1193L967 -104Q935 -268 819 -361T532 -455Q460 -455 398 -439T280 -389L323 -170H418Q415 -195 415 -216Q415 -278 440 -311Q474 -356 556 -356Q647 -356 702 -295T783
-104L989 956Z" />
<glyph unicode="&#x1ca;" glyph-name="uni01CA" horiz-adv-x="2613" d="M-42 0L-22 106H179L428 1386H227L248 1493H631L1297 315L1505 1386H1305L1326 1493H1850L1829 1386H1628L1353 -29H1232L521 1229L302 106H503L483 0H-42ZM1447 -358L1492 -123H1606Q1590
-222 1624 -270T1747 -319Q1866 -319 1927 -244T2032 49L2292 1386H2060L2081 1493H2706L2685 1386H2495L2233 41Q2185 -206 2065 -316T1724 -426Q1653 -426 1583 -409T1447 -358Z" />
<glyph unicode="&#x1cb;" glyph-name="uni01CB" horiz-adv-x="2427" d="M-42 0L-22 106H179L428 1386H227L248 1493H631L1297 315L1505 1386H1305L1326 1493H1850L1829 1386H1628L1353 -29H1232L521 1229L302 106H503L483 0H-42ZM2166 1393Q2174 1439 2214 1473T2302
1507Q2348 1507 2375 1473Q2395 1447 2395 1415Q2395 1404 2393 1393Q2383 1346 2345 1313T2258 1280Q2211 1280 2183 1313Q2163 1338 2163 1370Q2163 1381 2166 1393ZM2126 956H1952L1972 1063H2330L2104 -104Q2072 -268 1956 -361T1669 -455Q1597 -455 1535 -439T1417
-389L1460 -170H1555Q1552 -195 1552 -216Q1552 -278 1577 -311Q1611 -356 1693 -356Q1784 -356 1839 -295T1920 -104L2126 956Z" />
<glyph unicode="&#x1cc;" glyph-name="uni01CC" horiz-adv-x="1954" d="M144 0L330 956H154L174 1063H534L498 874Q570 982 662 1037T862 1092Q1038 1092 1102 991Q1140 930 1140 828Q1140 761 1123 676L1012 106H1176L1156 0H807L927 618Q947 721 947 790Q947
851 931 886Q897 958 776 958Q648 958 563 865T443 592L328 0H144ZM1693 1393Q1701 1439 1741 1473T1829 1507Q1875 1507 1902 1473Q1922 1447 1922 1415Q1922 1404 1920 1393Q1910 1346 1872 1313T1785 1280Q1738 1280 1710 1313Q1690 1338 1690 1370Q1690 1381
1693 1393ZM1653 956H1479L1499 1063H1857L1631 -104Q1599 -268 1483 -361T1196 -455Q1124 -455 1062 -439T944 -389L987 -170H1082Q1079 -195 1079 -216Q1079 -278 1104 -311Q1138 -356 1220 -356Q1311 -356 1366 -295T1447 -104L1653 956Z" />
<glyph unicode="&#x1cd;" glyph-name="uni01CD" horiz-adv-x="1479" d="M370 541H918L782 1251L370 541ZM-157 0L-137 106H-6L796 1493H964L1228 106H1374L1354 0H811L831 106H997L936 434H308L119 106H283L263 0H-157ZM767 1635L588 1899H704L875 1737L1110 1899H1226L943
1635H767Z" />
<glyph unicode="&#x1ce;" glyph-name="uni01CE" horiz-adv-x="1221" d="M744 166Q611 -29 396 -29Q220 -29 131 90Q69 174 69 294Q69 345 80 402Q148 755 394 937Q603 1092 856 1092Q1026 1092 1084 1063L898 106H1056L1036 0H712L744 166ZM263 300Q263 86 470
86Q596 86 681 186T805 479L898 961V961Q898 990 818 990Q626 990 477 840Q329 689 276 415Q263 351 263 300ZM610 1262L449 1638H565L717 1378L971 1638H1087L778 1262H610Z" />
<glyph unicode="&#x1cf;" glyph-name="uni01CF" horiz-adv-x="809" d="M381 106H571L551 0H-32L-12 106H178L427 1386H237L258 1493H841L820 1386H630L381 106ZM495 1635L316 1899H432L603 1737L838 1899H954L671 1635H495Z" />
<glyph unicode="&#x1d0;" glyph-name="uni01D0" horiz-adv-x="655" d="M351 106H525L505 0H147L333 956H157L177 1063H537L351 106ZM385 1262L224 1638H340L492 1378L746 1638H862L553 1262H385Z" />
<glyph unicode="&#x1d1;" glyph-name="uni01D1" horiz-adv-x="1679" d="M710 78Q955 78 1113 246T1335 745Q1399 1076 1307 1244T970 1413Q724 1413 566 1245T344 745Q280 415 372 247T710 78ZM689 -29Q537 -29 420 21T224 168Q134 280 107 422T115 745T232 1068T448
1323Q565 1421 701 1470T991 1520Q1316 1520 1474 1307T1565 745Q1530 566 1447 423T1231 168Q1114 70 978 21T689 -29ZM943 1635L764 1899H880L1051 1737L1286 1899H1402L1119 1635H943Z" />
<glyph unicode="&#x1d2;" glyph-name="uni01D2" horiz-adv-x="1233" d="M526 70Q674 70 772 187T915 532Q935 636 935 717Q935 813 907 876Q854 993 706 993T460 877T317 532Q297 428 297 348Q297 251 326 187Q379 70 526 70ZM507 -29Q275 -29 164 124Q87 231
87 385Q87 454 102 532Q151 786 321 939T725 1092T1069 939Q1145 833 1145 679Q1145 610 1130 532Q1081 278 911 125T507 -29ZM680 1262L519 1638H635L787 1378L1041 1638H1157L848 1262H680Z" />
<glyph unicode="&#x1d3;" glyph-name="uni01D3" horiz-adv-x="1726" d="M414 1386H223L244 1493H828L807 1386H616L466 614Q410 328 482 215T783 102T1127 215T1298 614L1448 1386H1257L1278 1493H1782L1761 1386H1571L1417 594Q1351 253 1193 112T720 -29T300
113T260 594L414 1386ZM999 1635L820 1899H936L1107 1737L1342 1899H1458L1175 1635H999Z" />
<glyph unicode="&#x1d4;" glyph-name="uni01D4" horiz-adv-x="1319" d="M991 1063H1175L989 106H1163L1143 0H785L821 188Q749 82 658 27T459 -29Q282 -29 218 72Q179 132 179 235Q179 302 196 387L306 956H140L161 1063H512L392 444Q372 341 372 273Q372 212
388 178Q421 106 543 106Q671 106 756 200T876 473L991 1063ZM655 1262L494 1638H610L762 1378L1016 1638H1132L823 1262H655Z" />
<glyph unicode="&#x1d5;" glyph-name="uni01D5" horiz-adv-x="1726" d="M955 2205H1553L1525 2057H927L955 2205ZM414 1386H223L244 1493H828L807 1386H616L466 614Q410 328 482 215T783 102T1127 215T1298 614L1448 1386H1257L1278 1493H1782L1761 1386H1571L1417
594Q1351 253 1193 112T720 -29T300 113T260 594L414 1386ZM968 1884Q1016 1884 1043 1849Q1071 1814 1062 1768Q1052 1718 1012 1685Q972 1651 922 1651Q873 1651 846 1685Q819 1718 829 1768Q838 1814 879 1849Q921 1884 968 1884ZM1358 1884Q1405 1884 1432
1849Q1460 1814 1451 1768Q1441 1718 1401 1685Q1361 1651 1312 1651Q1262 1651 1235 1685Q1208 1718 1218 1768Q1227 1814 1268 1849Q1310 1884 1358 1884Z" />
<glyph unicode="&#x1d6;" glyph-name="uni01D6" horiz-adv-x="1319" d="M991 1063H1175L989 106H1163L1143 0H785L821 188Q749 82 658 27T459 -29Q282 -29 218 72Q179 132 179 235Q179 302 196 387L306 956H140L161 1063H512L392 444Q372 341 372 273Q372 212
388 178Q421 106 543 106Q671 106 756 200T876 473L991 1063ZM606 1569Q654 1569 682 1534Q709 1500 700 1452Q690 1401 651 1368Q611 1335 560 1335Q510 1335 484 1368Q457 1401 467 1452Q476 1500 518 1534Q559 1569 606 1569ZM996 1569Q1043 1569 1071 1534Q1098
1500 1089 1452Q1079 1401 1040 1368Q1000 1335 950 1335Q899 1335 873 1368Q846 1401 856 1452Q865 1500 907 1534Q948 1569 996 1569ZM568 1842H1166L1138 1694H540L568 1842Z" />
<glyph unicode="&#x1d7;" glyph-name="uni01D7" horiz-adv-x="1726" d="M1289 2222H1486L1172 1958H1055L1289 2222ZM414 1386H223L244 1493H828L807 1386H616L466 614Q410 328 482 215T783 102T1127 215T1298 614L1448 1386H1257L1278 1493H1782L1761 1386H1571L1417
594Q1351 253 1193 112T720 -29T300 113T260 594L414 1386ZM968 1884Q1016 1884 1043 1849Q1071 1814 1062 1768Q1052 1718 1012 1685Q972 1651 922 1651Q873 1651 846 1685Q819 1718 829 1768Q838 1814 879 1849Q921 1884 968 1884ZM1358 1884Q1405 1884 1432
1849Q1460 1814 1451 1768Q1441 1718 1401 1685Q1361 1651 1312 1651Q1262 1651 1235 1685Q1208 1718 1218 1768Q1227 1814 1268 1849Q1310 1884 1358 1884Z" />
<glyph unicode="&#x1d8;" glyph-name="uni01D8" horiz-adv-x="1319" d="M991 1063H1175L989 106H1163L1143 0H785L821 188Q749 82 658 27T459 -29Q282 -29 218 72Q179 132 179 235Q179 302 196 387L306 956H140L161 1063H512L392 444Q372 341 372 273Q372 212
388 178Q421 106 543 106Q671 106 756 200T876 473L991 1063ZM606 1569Q654 1569 682 1534Q709 1500 700 1452Q690 1401 651 1368Q611 1335 560 1335Q510 1335 484 1368Q457 1401 467 1452Q476 1500 518 1534Q559 1569 606 1569ZM996 1569Q1043 1569 1071 1534Q1098
1500 1089 1452Q1079 1401 1040 1368Q1000 1335 950 1335Q899 1335 873 1368Q846 1401 856 1452Q865 1500 907 1534Q948 1569 996 1569ZM1017 2010H1216L802 1634H685L1017 2010Z" />
<glyph unicode="&#x1d9;" glyph-name="uni01D9" horiz-adv-x="1726" d="M1105 1961L926 2225H1042L1213 2063L1448 2225H1564L1281 1961H1105ZM414 1386H223L244 1493H828L807 1386H616L466 614Q410 328 482 215T783 102T1127 215T1298 614L1448 1386H1257L1278
1493H1782L1761 1386H1571L1417 594Q1351 253 1193 112T720 -29T300 113T260 594L414 1386ZM968 1884Q1016 1884 1043 1849Q1071 1814 1062 1768Q1052 1718 1012 1685Q972 1651 922 1651Q873 1651 846 1685Q819 1718 829 1768Q838 1814 879 1849Q921 1884 968 1884ZM1358
1884Q1405 1884 1432 1849Q1460 1814 1451 1768Q1441 1718 1401 1685Q1361 1651 1312 1651Q1262 1651 1235 1685Q1208 1718 1218 1768Q1227 1814 1268 1849Q1310 1884 1358 1884Z" />
<glyph unicode="&#x1da;" glyph-name="uni01DA" horiz-adv-x="1319" d="M991 1063H1175L989 106H1163L1143 0H785L821 188Q749 82 658 27T459 -29Q282 -29 218 72Q179 132 179 235Q179 302 196 387L306 956H140L161 1063H512L392 444Q372 341 372 273Q372 212
388 178Q421 106 543 106Q671 106 756 200T876 473L991 1063ZM606 1569Q654 1569 682 1534Q709 1500 700 1452Q690 1401 651 1368Q611 1335 560 1335Q510 1335 484 1368Q457 1401 467 1452Q476 1500 518 1534Q559 1569 606 1569ZM996 1569Q1043 1569 1071 1534Q1098
1500 1089 1452Q1079 1401 1040 1368Q1000 1335 950 1335Q899 1335 873 1368Q846 1401 856 1452Q865 1500 907 1534Q948 1569 996 1569ZM720 1634L559 2010H675L827 1750L1081 2010H1197L888 1634H720Z" />
<glyph unicode="&#x1db;" glyph-name="uni01DB" horiz-adv-x="1726" d="M1154 2226L1285 1962H1168L958 2226H1154ZM414 1386H223L244 1493H828L807 1386H616L466 614Q410 328 482 215T783 102T1127 215T1298 614L1448 1386H1257L1278 1493H1782L1761 1386H1571L1417
594Q1351 253 1193 112T720 -29T300 113T260 594L414 1386ZM968 1884Q1016 1884 1043 1849Q1071 1814 1062 1768Q1052 1718 1012 1685Q972 1651 922 1651Q873 1651 846 1685Q819 1718 829 1768Q838 1814 879 1849Q921 1884 968 1884ZM1358 1884Q1405 1884 1432
1849Q1460 1814 1451 1768Q1441 1718 1401 1685Q1361 1651 1312 1651Q1262 1651 1235 1685Q1208 1718 1218 1768Q1227 1814 1268 1849Q1310 1884 1358 1884Z" />
<glyph unicode="&#x1dc;" glyph-name="uni01DC" horiz-adv-x="1319" d="M991 1063H1175L989 106H1163L1143 0H785L821 188Q749 82 658 27T459 -29Q282 -29 218 72Q179 132 179 235Q179 302 196 387L306 956H140L161 1063H512L392 444Q372 341 372 273Q372 212
388 178Q421 106 543 106Q671 106 756 200T876 473L991 1063ZM606 1569Q654 1569 682 1534Q709 1500 700 1452Q690 1401 651 1368Q611 1335 560 1335Q510 1335 484 1368Q457 1401 467 1452Q476 1500 518 1534Q559 1569 606 1569ZM996 1569Q1043 1569 1071 1534Q1098
1500 1089 1452Q1079 1401 1040 1368Q1000 1335 950 1335Q899 1335 873 1368Q846 1401 856 1452Q865 1500 907 1534Q948 1569 996 1569ZM738 2008L924 1632H807L541 2008H738Z" />
<glyph unicode="&#x1dd;" glyph-name="uni01DD" horiz-adv-x="1212" d="M106 551H899L900 559Q942 774 883 884Q823 993 665 993Q544 993 453 930Q364 866 309 741H161Q239 916 374 1004Q510 1092 703 1092Q936 1092 1047 938Q1159 785 1110 531Q1061 279 892
125T497 -29Q256 -29 156 120Q56 268 106 551ZM302 445Q272 259 327 164Q380 70 516 70Q643 70 734 165T878 445H302Z" />
<glyph unicode="&#x1de;" glyph-name="uni01DE" horiz-adv-x="1479" d="M724 2205H1322L1294 2057H696L724 2205ZM370 541H918L782 1251L370 541ZM-157 0L-137 106H-6L796 1493H964L1228 106H1374L1354 0H811L831 106H997L936 434H308L119 106H283L263 0H-157ZM750
1884Q798 1884 825 1849Q853 1814 844 1768Q834 1718 794 1685Q754 1651 704 1651Q655 1651 628 1685Q601 1718 611 1768Q620 1814 661 1849Q703 1884 750 1884ZM1140 1884Q1187 1884 1214 1849Q1242 1814 1233 1768Q1223 1718 1183 1685Q1143 1651 1094 1651Q1044
1651 1017 1685Q990 1718 1000 1768Q1009 1814 1050 1849Q1092 1884 1140 1884Z" />
<glyph unicode="&#x1df;" glyph-name="uni01DF" horiz-adv-x="1221" d="M744 166Q611 -29 396 -29Q220 -29 131 90Q69 174 69 294Q69 345 80 402Q148 755 394 937Q603 1092 856 1092Q1026 1092 1084 1063L898 106H1056L1036 0H712L744 166ZM263 300Q263 86 470
86Q596 86 681 186T805 479L898 961V961Q898 990 818 990Q626 990 477 840Q329 689 276 415Q263 351 263 300ZM591 1569Q639 1569 667 1534Q694 1500 685 1452Q675 1401 636 1368Q596 1335 545 1335Q495 1335 469 1368Q442 1401 452 1452Q461 1500 503 1534Q544
1569 591 1569ZM981 1569Q1028 1569 1056 1534Q1083 1500 1074 1452Q1064 1401 1025 1368Q985 1335 935 1335Q884 1335 858 1368Q831 1401 841 1452Q850 1500 892 1534Q933 1569 981 1569ZM528 1842H1126L1098 1694H500L528 1842Z" />
<glyph unicode="&#x1e0;" glyph-name="uni01E0" horiz-adv-x="1479" d="M942 1886T989 1886T1064 1851T1083 1770Q1073 1720 1033 1687Q993 1653 943 1653T866 1687Q839 1720 849 1770Q858 1816 900 1851ZM370 541H918L782 1251L370 541ZM-157 0L-137 106H-6L796
1493H964L1228 106H1374L1354 0H811L831 106H997L936 434H308L119 106H283L263 0H-157ZM724 2205H1322L1294 2057H696L724 2205Z" />
<glyph unicode="&#x1e1;" glyph-name="uni01E1" horiz-adv-x="1221" d="M537 1841H1135L1107 1693H509L537 1841ZM734 1569T782 1569T858 1534Q885 1500 876 1452Q866 1401 827 1368Q787 1335 736 1335T659 1368Q632 1401 642 1452Q651 1500 693 1534Q734 1569
782 1569ZM999 166Q866 -29 651 -29Q475 -29 386 90Q324 174 324 294Q324 345 335 402Q403 755 649 937Q858 1092 1111 1092Q1281 1092 1339 1063L1153 106H1311L1291 0H967L999 166ZM518 300Q518 86 725 86Q851 86 936 186T1060 479L1153 961V961Q1153 990 1073
990Q881 990 732 840Q584 689 531 415Q518 351 518 300Z" />
<glyph unicode="&#x1e2;" glyph-name="uni01E2" horiz-adv-x="2050" d="M1144 1841H1742L1714 1693H1116L1144 1841ZM386 541H875L1039 1386H939L386 541ZM580 0L600 106H790L854 434H316L100 106H264L244 0H-180L-160 106H-29L810 1386H595L616 1493H2072L2008
1161H1885L1925 1370H1237L1140 870H1632L1668 1057H1791L1695 561H1572L1608 748H1116L995 123H1700L1740 332H1863L1799 0H580Z" />
<glyph unicode="&#x1e3;" glyph-name="uni01E3" horiz-adv-x="1925" d="M817 1526H1415L1387 1378H789L817 1526ZM1526 632Q1638 698 1638 822Q1638 993 1411 993Q1277 993 1184 891T1034 514Q1351 528 1526 632ZM1195 -29Q957 -29 851 167Q707 -29 410 -29Q403
-29 396 -29Q220 -29 131 90Q69 174 69 294Q69 345 80 402Q148 755 394 937Q603 1092 856 1092Q1026 1092 1084 1063L1065 966Q1224 1092 1442 1092Q1833 1092 1833 815Q1833 416 1013 408Q1009 370 1009 336Q1009 242 1043 180Q1102 70 1260 70Q1376 70 1433 105Q1535
168 1559 249H1694Q1654 122 1505 33Q1401 -29 1195 -29ZM276 415Q263 350 263 297Q263 86 470 86Q596 86 681 186T805 479L898 961Q898 990 818 990Q626 990 477 840Q329 689 276 415Z" />
<glyph unicode="&#x1e4;" glyph-name="uni01E4" horiz-adv-x="1736" d="M1370 1047Q1371 1234 1278 1323T986 1413Q728 1413 569 1247T344 745Q319 615 319 510Q319 349 378 247Q476 78 730 78Q843 78 951 106T1164 190L1189 320H745L766 427H1210L1239 575H958L979
682H1463L1413 427H1614L1593 320H1392L1354 125Q1206 48 1045 10T709 -29Q371 -29 209 182Q95 331 95 550Q95 641 115 745Q184 1099 429 1309T1019 1520Q1147 1520 1277 1491T1550 1401L1482 1047H1370Z" />
<glyph unicode="&#x1e5;" glyph-name="uni01E5" horiz-adv-x="1311" d="M1019 956Q1018 990 910 990Q715 990 568 840Q421 689 367 415Q352 334 356 273Q360 211 385 169Q434 86 562 86Q702 86 795 186T925 479H681L702 586H946L1019 956ZM1109 479L1020 23Q974
-215 826 -330Q665 -455 442 -455Q337 -455 245 -436T72 -379L116 -156H212Q209 -260 267 -308T450 -356Q611 -356 705 -264Q798 -173 836 23L864 166Q791 66 698 19T488 -29Q312 -29 223 90Q167 165 161 269Q157 330 171 402Q240 755 485 937Q694 1091 938 1092Q1162
1093 1223 1063L1130 586H1303L1282 479H1109Z" />
<glyph unicode="&#x1e6;" glyph-name="Gcaron" horiz-adv-x="1636" d="M939 1635L760 1899H876L1047 1737L1282 1899H1398L1115 1635H939ZM1370 1047Q1371 1234 1278 1323T986 1413Q728 1413 569 1247T344 745Q280 416 378 247T730 78Q843 78 951 106T1164 190L1239
575H958L979 682H1463L1354 125Q1206 48 1045 10T709 -29Q371 -29 209 182T115 745Q184 1099 429 1309T1019 1520Q1147 1520 1277 1491T1550 1401L1482 1047H1370Z" />
<glyph unicode="&#x1e7;" glyph-name="gcaron" horiz-adv-x="1311" d="M706 1262L545 1638H661L813 1378L1067 1638H1183L874 1262H706ZM1223 1063L1020 23Q974 -215 826 -330Q665 -455 442 -455Q337 -455 245 -436T72 -379L116 -156H212Q209 -260 267 -308T450
-356Q612 -356 705 -264Q798 -174 836 23L864 166Q791 66 698 19T488 -29Q312 -29 223 90Q167 165 161 269Q157 330 171 402Q240 755 485 937Q694 1091 938 1092Q1162 1093 1223 1063ZM1019 956Q1018 990 910 990Q715 990 568 840Q421 689 367 415Q352 334 356
273Q360 211 385 169Q434 86 562 86Q702 86 795 186T925 479L945 584L1019 956Z" />
<glyph unicode="&#x1e8;" glyph-name="uni01E8" horiz-adv-x="1530" d="M-32 0L-12 106H178L427 1386H237L258 1493H841L820 1386H630L520 821L1273 1386H1111L1132 1493H1628L1607 1386H1439L689 823L1266 106H1436L1416 0H1069L499 709L381 106H571L551 0H-32ZM915
1635L736 1899H852L1023 1737L1258 1899H1374L1091 1635H915Z" />
<glyph unicode="&#x1e9;" glyph-name="uni01E9" horiz-adv-x="1241" d="M419 1711L240 1975H356L527 1813L762 1975H878L595 1711H419ZM676 664L971 106H1124L1104 0H809L519 543L348 408L269 0H85L367 1450H190L210 1556H571L374 543L903 956H750L770 1063H1069L1049
956L676 664Z" />
<glyph unicode="&#x1ea;" glyph-name="uni01EA" horiz-adv-x="1679" d="M710 78Q955 78 1113 246T1335 745Q1399 1076 1307 1244T970 1413Q724 1413 566 1245T344 745Q280 415 372 247T710 78ZM689 -29Q537 -29 420 21T224 168Q134 280 107 422T115 745T232 1068T448
1323Q565 1421 701 1470T991 1520Q1316 1520 1474 1307T1565 745Q1530 566 1447 423T1231 168Q1114 70 978 21T689 -29ZM656 -16H750L749 -18Q638 -141 629 -188Q620 -234 648 -262T732 -290Q759 -290 789 -284T852 -264L826 -391Q789 -400 755 -404T688 -409Q575
-409 522 -365T484 -239Q493 -190 533 -138T656 -16Z" />
<glyph unicode="&#x1eb;" glyph-name="uni01EB" horiz-adv-x="1233" d="M526 70Q674 70 772 187T915 532Q935 636 935 717Q935 813 907 876Q854 993 706 993T460 877T317 532Q297 428 297 348Q297 251 326 187Q379 70 526 70ZM507 -29Q275 -29 164 124Q87 231
87 385Q87 454 102 532Q151 786 321 939T725 1092T1069 939Q1145 833 1145 679Q1145 610 1130 532Q1081 278 911 125T507 -29ZM723 240H817L816 238Q705 115 696 68Q687 22 715 -6T799 -34Q826 -34 856 -28T919 -8L893 -135Q856 -144 822 -148T755 -153Q642 -153
589 -109T551 17Q560 66 600 118T723 240Z" />
<glyph unicode="&#x1ec;" glyph-name="uni01EC" horiz-adv-x="1679" d="M710 78Q955 78 1113 246T1335 745Q1399 1076 1307 1244T970 1413Q724 1413 566 1245T344 745Q280 415 372 247T710 78ZM689 -29Q537 -29 420 21T224 168Q134 280 107 422T115 745T232 1068T448
1323Q565 1421 701 1470T991 1520Q1316 1520 1474 1307T1565 745Q1530 566 1447 423T1231 168Q1114 70 978 21T689 -29ZM656 -16H750L749 -18Q638 -141 629 -188Q620 -234 648 -262T732 -290Q759 -290 789 -284T852 -264L826 -391Q789 -400 755 -404T688 -409Q575
-409 522 -365T484 -239Q493 -190 533 -138T656 -16ZM724 1842H1322L1294 1694H696L724 1842Z" />
<glyph unicode="&#x1ed;" glyph-name="uni01ED" horiz-adv-x="1233" d="M526 70Q674 70 772 187T915 532Q935 636 935 717Q935 813 907 876Q854 993 706 993T460 877T317 532Q297 428 297 348Q297 251 326 187Q379 70 526 70ZM507 -29Q275 -29 164 124Q87 231
87 385Q87 454 102 532Q151 786 321 939T725 1092T1069 939Q1145 833 1145 679Q1145 610 1130 532Q1081 278 911 125T507 -29ZM723 240H817L816 238Q705 115 696 68Q687 22 715 -6T799 -34Q826 -34 856 -28T919 -8L893 -135Q856 -144 822 -148T755 -153Q642 -153
589 -109T551 17Q560 66 600 118T723 240ZM500 1526H1098L1070 1378H472L500 1526Z" />
<glyph unicode="&#x1ee;" glyph-name="uni01EE" horiz-adv-x="1156" d="M693 1635L514 1899H630L801 1737L1036 1899H1152L869 1635H693ZM551 852H456L476 954L901 1370H374L331 1147H208L275 1493H1148L1124 1368L668 923L746 916Q924 887 1003 766Q1080 646
1043 454Q997 220 832 95Q668 -29 404 -29Q287 -29 182 -1Q75 27 -24 84L39 408H151Q130 247 200 164T429 81Q582 81 691 181Q798 280 832 452Q870 649 799 751Q727 852 551 852Z" />
<glyph unicode="&#x1ef;" glyph-name="uni01EF" horiz-adv-x="1156" d="M610 1262L449 1638H565L717 1378L971 1638H1087L778 1262H610ZM551 423H456L476 525L890 956H363L327 772H221L278 1063H1148L1131 977L668 494L746 487Q924 458 1003 337Q1080 217 1043
25Q998 -209 832 -334Q668 -458 404 -458Q287 -458 182 -430Q75 -402 -24 -345L39 -21H151Q130 -182 201 -265T430 -348Q583 -348 691 -248Q798 -149 832 23Q870 220 799 322Q727 423 551 423Z" />
<glyph unicode="&#x1f0;" glyph-name="uni01F0" horiz-adv-x="655" d="M427 1262L266 1638H382L534 1378L788 1638H904L595 1262H427ZM377 956H203L224 1063H582L355 -104Q323 -268 207 -361T-80 -455Q-152 -455 -214 -439T-332 -389L-289 -170H-194Q-206 -266
-172 -311T-56 -356Q35 -356 90 -295T171 -104L377 956Z" />
<glyph unicode="&#x1f1;" glyph-name="uni01F1" horiz-adv-x="3065" d="M1589 0L1603 72L2785 1370H2013L1970 1147H1847L1914 1493H3094L3080 1421L1898 123H2742L2782 332H2904L2840 0H1589ZM381 106H567Q858 106 1046 272T1294 748T1232 1222T816 1386H630L381
106ZM-32 0L-12 106H178L427 1386H237L258 1493H852Q1238 1493 1415 1296T1524 748Q1456 396 1202 198T562 0H-32Z" />
<glyph unicode="&#x1f2;" glyph-name="uni01F2" horiz-adv-x="2721" d="M2457 975Q2565 975 2670 1063H2730L2714 977L1987 219Q1997 216 2026 207Q2060 196 2094 174L2143 144Q2237 87 2305 87Q2436 87 2590 237L2566 116Q2395 -52 2265 -52Q2186 -50 2075 19T1894
88Q1786 88 1681 0H1621L1637 86L2365 843Q2354 847 2325 856Q2291 867 2257 889L2208 919Q2114 976 2046 976Q1915 976 1761 826L1785 947Q1956 1115 2086 1115Q2165 1113 2276 1044T2457 975ZM381 106H567Q858 106 1046 272T1294 748T1232 1222T816 1386H630L381
106ZM-32 0L-12 106H178L427 1386H237L258 1493H852Q1238 1493 1415 1296T1524 748Q1456 396 1202 198T562 0H-32Z" />
<glyph unicode="&#x1f3;" glyph-name="uni01F3" horiz-adv-x="2390" d="M2126 975Q2234 975 2339 1063H2399L2383 977L1656 219Q1666 216 1695 207Q1729 196 1763 174L1812 144Q1906 87 1974 87Q2105 87 2259 237L2235 116Q2064 -52 1934 -52Q1855 -50 1744 19T1563
88Q1455 88 1350 0H1290L1306 86L2034 843Q2023 847 1994 856Q1960 867 1926 889L1877 919Q1783 976 1715 976Q1584 976 1430 826L1454 947Q1625 1115 1755 1115Q1834 1113 1945 1044T2126 975ZM1229 1556L927 0H743L775 166Q701 66 609 19T393 -29Q197 -29 103
126Q40 229 40 373Q40 447 57 532Q106 782 260 937T611 1092Q734 1092 808 1045T917 897L1024 1450H850L871 1556H1229ZM836 479L856 584Q871 662 871 725Q871 816 839 876Q786 977 646 977Q504 977 410 865T272 532Q252 431 252 353Q252 260 280 199Q330 86 472
86Q612 86 705 186T836 479Z" />
<glyph unicode="&#x1f4;" glyph-name="uni01F4" horiz-adv-x="1636" d="M1145 1900H1342L1028 1636H911L1145 1900ZM1370 1047Q1371 1234 1278 1323T986 1413Q728 1413 569 1247T344 745Q280 416 378 247T730 78Q843 78 951 106T1164 190L1239 575H958L979 682H1463L1354
125Q1206 48 1045 10T709 -29Q371 -29 209 182T115 745Q184 1099 429 1309T1019 1520Q1147 1520 1277 1491T1550 1401L1482 1047H1370Z" />
<glyph unicode="&#x1f5;" glyph-name="uni01F5" horiz-adv-x="1311" d="M950 1638H1149L735 1262H618L950 1638ZM1223 1063L1020 23Q974 -215 826 -330Q665 -455 442 -455Q337 -455 245 -436T72 -379L116 -156H212Q209 -260 267 -308T450 -356Q612 -356 705 -264Q798
-174 836 23L864 166Q791 66 698 19T488 -29Q312 -29 223 90Q167 165 161 269Q157 330 171 402Q240 755 485 937Q694 1091 938 1092Q1162 1093 1223 1063ZM1019 956Q1018 990 910 990Q715 990 568 840Q421 689 367 415Q352 334 356 273Q360 211 385 169Q434 86
562 86Q702 86 795 186T925 479L945 584L1019 956Z" />
<glyph unicode="&#x1f6;" glyph-name="uni01F6" horiz-adv-x="2363" d="M1253 594L1283 748H509L384 106H574L554 0H-29L-9 106H181L430 1386H240L261 1493H844L823 1386H633L533 870H1307L1407 1386H1217L1238 1493H1821L1800 1386H1610L1460 614Q1404 328 1476
215Q1548 102 1678 102Q1822 102 1914 215Q2010 333 2065 614L2131 955H1957L1978 1063H2336L2245 594Q2179 253 2019 112Q1862 -29 1662 -29Q1401 -29 1294 113Q1187 255 1253 594Z" />
<glyph unicode="&#x1f8;" glyph-name="uni01F8" horiz-adv-x="1792" d="M1026 1899L1157 1635H1040L830 1899H1026ZM-42 0L-22 106H179L428 1386H227L248 1493H631L1297 315L1505 1386H1305L1326 1493H1850L1829 1386H1628L1353 -29H1232L521 1229L302 106H503L483
0H-42Z" />
<glyph unicode="&#x1f9;" glyph-name="uni01F9" horiz-adv-x="1319" d="M658 1636L844 1260H727L461 1636H658ZM399 0L585 956H409L429 1063H789L753 874Q825 982 917 1037T1117 1092Q1293 1092 1357 991Q1395 930 1395 828Q1395 761 1378 676L1267 106H1431L1411
0H1062L1182 618Q1202 721 1202 790Q1202 851 1186 886Q1152 958 1031 958Q903 958 818 865T698 592L583 0H399Z" />
<glyph unicode="&#x1fa;" glyph-name="Aringacute" horiz-adv-x="1479" d="M752 1206L718 1208L331 541H879L752 1206ZM974 1396T986 1459T963 1566T864 1611Q800 1611 748 1568T683 1459Q671 1396 706 1352T805 1308Q868 1308 921 1352ZM1013 1899H1210L965 1723Q1025
1704 1066 1654Q1131 1573 1109 1459Q1093 1379 1042 1316Q1011 1278 971 1250L1188 106H1335L1314 0H771L792 106H958L897 434H269L80 106H244L223 0H-197L-176 106H-45L616 1249Q585 1278 570 1315Q544 1376 560 1459Q582 1573 678 1654Q753 1717 840 1730L1013
1899Z" />
<glyph unicode="&#x1fb;" glyph-name="aringacute" horiz-adv-x="1221" d="M897 106H1055L1035 0H711L743 166Q675 66 591 18Q506 -29 395 -29Q219 -29 130 90Q74 165 68 269Q65 330 79 402Q147 755 393 937Q602 1091 846 1092Q1023 1093 1083 1063L897 106ZM817
990Q625 990 476 840Q328 689 275 415Q259 334 263 273Q268 211 292 169Q341 86 469 86Q595 86 680 186T804 479L897 961Q898 990 817 990ZM952 1899H1149L928 1714Q974 1694 1006 1654Q1070 1574 1048 1459T931 1264T721 1184T542 1264T500 1459T617 1654Q703
1725 804 1732L952 1899ZM926 1459Q938 1522 903 1566T803 1610Q738 1610 686 1567T622 1459Q609 1394 644 1351T744 1307Q808 1307 861 1351T926 1459Z" />
<glyph unicode="&#x1fc;" glyph-name="AEacute" horiz-adv-x="2050" d="M1481 1900H1678L1364 1636H1247L1481 1900ZM386 541H875L1039 1386H939L386 541ZM580 0L600 106H790L854 434H316L100 106H264L244 0H-180L-160 106H-29L810 1386H595L616 1493H2072L2008
1161H1885L1925 1370H1237L1140 870H1632L1668 1057H1791L1695 561H1572L1608 748H1116L995 123H1700L1740 332H1863L1799 0H580Z" />
<glyph unicode="&#x1fd;" glyph-name="aeacute" horiz-adv-x="1925" d="M1273 1643H1472L1058 1267H941L1273 1643ZM1526 632Q1638 698 1638 822Q1638 993 1411 993Q1277 993 1184 891T1034 514Q1351 528 1526 632ZM1195 -29Q957 -29 851 167Q707 -29 410 -29Q403
-29 396 -29Q220 -29 131 90Q69 174 69 294Q69 345 80 402Q148 755 394 937Q603 1092 856 1092Q1026 1092 1084 1063L1065 966Q1224 1092 1442 1092Q1833 1092 1833 815Q1833 416 1013 408Q1009 370 1009 336Q1009 242 1043 180Q1102 70 1260 70Q1376 70 1433 105Q1535
168 1559 249H1694Q1654 122 1505 33Q1401 -29 1195 -29ZM276 415Q263 350 263 297Q263 86 470 86Q596 86 681 186T805 479L898 961Q898 990 818 990Q626 990 477 840Q329 689 276 415Z" />
<glyph unicode="&#x1fe;" glyph-name="Oslashacute" horiz-adv-x="1679" d="M1117 1900H1314L1000 1636H883L1117 1900ZM1311 1239Q1263 1327 1179 1370T971 1413Q725 1413 567 1245T345 745Q322 626 319 530T334 352L1311 1239ZM369 256Q415 167 500 123T711
78Q956 78 1114 246T1336 745Q1358 862 1361 960T1346 1141L369 256ZM1495 1276Q1561 1168 1579 1037T1566 745Q1499 400 1257 186T690 -29Q549 -29 439 14T244 143L23 -57L-42 12L185 219Q119 324 102 454T116 745Q183 1091 425 1305T991 1520Q1132 1520 1244
1478T1436 1352L1652 1550L1718 1479L1495 1276Z" />
<glyph unicode="&#x1ff;" glyph-name="oslashacute" horiz-adv-x="1233" d="M962 1638H1161L747 1262H630L962 1638ZM908 879Q881 936 831 964T706 993Q559 993 460 876T317 532Q303 460 299 401T300 293L908 879ZM325 190Q353 129 402 100T526 70Q673 70 772
187T915 532Q930 608 934 668T933 780L325 190ZM1080 922Q1128 848 1140 749T1130 532Q1081 278 911 125T507 -29Q413 -29 338 -3T207 78L30 -94L-33 -31L150 147Q104 224 92 320T102 532Q151 786 321 939T725 1092Q819 1092 894 1067T1023 991L1195 1157L1258
1094L1080 922Z" />
<glyph unicode="&#x200;" glyph-name="uni0200" horiz-adv-x="1479" d="M737 1899L867 1635H750L540 1899H737ZM1054 1899L1184 1635H1067L857 1899H1054ZM370 541H918L782 1251L370 541ZM-157 0L-137 106H-6L796 1493H964L1228 106H1374L1354 0H811L831 106H997L936
434H308L119 106H283L263 0H-157Z" />
<glyph unicode="&#x201;" glyph-name="uni0201" horiz-adv-x="1221" d="M822 1638L1011 1262H897L652 1638H822ZM492 1638L718 1262H602L314 1638H492ZM999 166Q866 -29 651 -29Q475 -29 386 90Q324 174 324 294Q324 345 335 402Q403 755 649 937Q858 1092 1111
1092Q1281 1092 1339 1063L1153 106H1311L1291 0H967L999 166ZM518 300Q518 86 725 86Q851 86 936 186T1060 479L1153 961V961Q1153 990 1073 990Q881 990 732 840Q584 689 531 415Q518 351 518 300Z" />
<glyph unicode="&#x202;" glyph-name="uni0202" horiz-adv-x="1479" d="M1244 1694H1148Q1150 1773 1105 1808Q1060 1844 960 1844T801 1808Q742 1773 714 1694H618Q656 1837 749 1909T987 1981T1197 1909T1244 1694ZM370 541H918L782 1251L370 541ZM-157 0L-137
106H-6L796 1493H964L1228 106H1374L1354 0H811L831 106H997L936 434H308L119 106H283L263 0H-157Z" />
<glyph unicode="&#x203;" glyph-name="uni0203" horiz-adv-x="1221" d="M1043 1321H947Q949 1400 904 1435Q859 1471 759 1471T600 1435Q541 1400 513 1321H417Q455 1464 548 1536T786 1608T996 1536T1043 1321ZM999 166Q866 -29 651 -29Q475 -29 386 90Q324 174
324 294Q324 345 335 402Q403 755 649 937Q858 1092 1111 1092Q1281 1092 1339 1063L1153 106H1311L1291 0H967L999 166ZM518 300Q518 86 725 86Q851 86 936 186T1060 479L1153 961V961Q1153 990 1073 990Q881 990 732 840Q584 689 531 415Q518 351 518 300Z" />
<glyph unicode="&#x204;" glyph-name="uni0204" horiz-adv-x="1495" d="M743 1899L873 1635H756L546 1899H743ZM1060 1899L1190 1635H1073L863 1899H1060ZM-32 0L-12 106H178L427 1386H237L258 1493H1460L1396 1161H1273L1313 1370H627L530 870H1019L1055 1057H1178L1082
561H959L995 748H506L385 123H1087L1127 332H1250L1186 0H-32Z" />
<glyph unicode="&#x205;" glyph-name="uni0205" horiz-adv-x="1212" d="M859 1638L1048 1262H934L689 1638H859ZM529 1638L755 1262H639L351 1638H529ZM555 408Q551 370 551 336Q551 242 585 180Q644 70 802 70Q918 70 975 105Q1077 168 1101 249H1236Q1196 122
1047 33Q943 -29 737 -29T420 124Q342 231 342 386Q342 454 357 531Q406 784 575 938T984 1092Q1375 1092 1375 815Q1375 612 1170 513Q961 412 555 408ZM1068 632Q1180 698 1180 822Q1180 993 953 993Q819 993 726 891T576 514Q897 529 1068 632Z" />
<glyph unicode="&#x206;" glyph-name="uni0206" horiz-adv-x="1495" d="M1253 1694H1157Q1159 1773 1114 1808Q1069 1844 969 1844T810 1808Q751 1773 723 1694H627Q665 1837 758 1909T996 1981T1206 1909T1253 1694ZM-32 0L-12 106H178L427 1386H237L258 1493H1460L1396
1161H1273L1313 1370H627L530 870H1019L1055 1057H1178L1082 561H959L995 748H506L385 123H1087L1127 332H1250L1186 0H-32Z" />
<glyph unicode="&#x207;" glyph-name="uni0207" horiz-adv-x="1212" d="M1080 1321H984Q986 1400 941 1435Q896 1471 796 1471T637 1435Q578 1400 550 1321H454Q492 1464 585 1536T823 1608T1033 1536T1080 1321ZM555 408Q551 370 551 336Q551 242 585 180Q644
70 802 70Q918 70 975 105Q1077 168 1101 249H1236Q1196 122 1047 33Q943 -29 737 -29T420 124Q342 231 342 386Q342 454 357 531Q406 784 575 938T984 1092Q1375 1092 1375 815Q1375 612 1170 513Q961 412 555 408ZM1068 632Q1180 698 1180 822Q1180 993 953 993Q819
993 726 891T576 514Q897 529 1068 632Z" />
<glyph unicode="&#x208;" glyph-name="uni0208" horiz-adv-x="809" d="M422 1899L552 1635H435L225 1899H422ZM739 1899L869 1635H752L542 1899H739ZM381 106H571L551 0H-32L-12 106H178L427 1386H237L258 1493H841L820 1386H630L381 106Z" />
<glyph unicode="&#x209;" glyph-name="uni0209" horiz-adv-x="655" d="M558 106H732L712 0H354L540 956H364L384 1063H744L558 106ZM538 1636L727 1260H613L368 1636H538ZM208 1636L434 1260H318L30 1636H208Z" />
<glyph unicode="&#x20a;" glyph-name="uni020A" horiz-adv-x="809" d="M917 1694H821Q823 1773 778 1808Q733 1844 633 1844T474 1808Q415 1773 387 1694H291Q329 1837 422 1909T660 1981T870 1909T917 1694ZM381 106H571L551 0H-32L-12 106H178L427 1386H237L258
1493H841L820 1386H630L381 106Z" />
<glyph unicode="&#x20b;" glyph-name="uni020B" horiz-adv-x="655" d="M558 106H732L712 0H354L540 956H364L384 1063H744L558 106ZM748 1263H652Q654 1342 609 1377Q564 1413 464 1413T305 1377Q246 1342 218 1263H122Q160 1406 253 1478T491 1550T701 1478T748 1263Z" />
<glyph unicode="&#x20c;" glyph-name="uni020C" horiz-adv-x="1679" d="M842 1899L972 1635H855L645 1899H842ZM1159 1899L1289 1635H1172L962 1899H1159ZM965 78Q1210 78 1368 246T1590 745Q1654 1076 1562 1244T1225 1413Q979 1413 821 1245T599 745Q535 415
627 247T965 78ZM944 -29Q792 -29 675 21T479 168Q389 280 362 422T370 745T487 1068T703 1323Q820 1421 956 1470T1246 1520Q1571 1520 1729 1307T1820 745Q1785 566 1702 423T1486 168Q1369 70 1233 21T944 -29Z" />
<glyph unicode="&#x20d;" glyph-name="uni020D" horiz-adv-x="1233" d="M869 1638L1058 1262H944L699 1638H869ZM539 1638L765 1262H649L361 1638H539ZM781 70Q929 70 1027 187T1170 532Q1190 636 1190 717Q1190 813 1162 876Q1109 993 961 993T715 877T572 532Q552
428 552 348Q552 251 581 187Q634 70 781 70ZM762 -29Q530 -29 419 124Q342 231 342 385Q342 454 357 532Q406 786 576 939T980 1092T1324 939Q1400 833 1400 679Q1400 610 1385 532Q1336 278 1166 125T762 -29Z" />
<glyph unicode="&#x20e;" glyph-name="uni020E" horiz-adv-x="1679" d="M1345 1694H1249Q1251 1773 1206 1808Q1161 1844 1061 1844T902 1808Q843 1773 815 1694H719Q757 1837 850 1909T1088 1981T1298 1909T1345 1694ZM965 78Q1210 78 1368 246T1590 745Q1654
1076 1562 1244T1225 1413Q979 1413 821 1245T599 745Q535 415 627 247T965 78ZM944 -29Q792 -29 675 21T479 168Q389 280 362 422T370 745T487 1068T703 1323Q820 1421 956 1470T1246 1520Q1571 1520 1729 1307T1820 745Q1785 566 1702 423T1486 168Q1369 70 1233
21T944 -29Z" />
<glyph unicode="&#x20f;" glyph-name="uni020F" horiz-adv-x="1233" d="M1090 1321H994Q996 1400 951 1435Q906 1471 806 1471T647 1435Q588 1400 560 1321H464Q502 1464 595 1536T833 1608T1043 1536T1090 1321ZM781 70Q929 70 1027 187T1170 532Q1190 636 1190
717Q1190 813 1162 876Q1109 993 961 993T715 877T572 532Q552 428 552 348Q552 251 581 187Q634 70 781 70ZM762 -29Q530 -29 419 124Q342 231 342 385Q342 454 357 532Q406 786 576 939T980 1092T1324 939Q1400 833 1400 679Q1400 610 1385 532Q1336 278 1166
125T762 -29Z" />
<glyph unicode="&#x210;" glyph-name="uni0210" horiz-adv-x="1542" d="M737 1899L867 1635H750L540 1899H737ZM1054 1899L1184 1635H1067L857 1899H1054ZM980 741Q1046 722 1088 677T1154 549L1284 106H1466L1446 0H1094L953 475Q913 613 865 653T719 694H496L381
106H592L572 0H-32L-12 106H178L427 1386H237L258 1493H1015Q1233 1493 1331 1389T1393 1094Q1363 940 1259 852T980 741ZM517 801H812Q963 801 1048 872T1163 1094T1135 1315T925 1386H630L517 801Z" />
<glyph unicode="&#x211;" glyph-name="uni0211" horiz-adv-x="979" d="M817 1638L1006 1262H892L647 1638H817ZM487 1638L713 1262H597L309 1638H487ZM1335 1065L1283 799H1177Q1180 819 1180 836Q1180 888 1156 917Q1125 956 1050 956Q914 956 823 862T698 592L583
0H399L585 958H409L429 1063H789L753 874Q828 985 923 1038T1141 1092Q1186 1092 1234 1085T1335 1065Z" />
<glyph unicode="&#x212;" glyph-name="uni0212" horiz-adv-x="1542" d="M1242 1694H1146Q1148 1773 1103 1808Q1058 1844 958 1844T799 1808Q740 1773 712 1694H616Q654 1837 747 1909T985 1981T1195 1909T1242 1694ZM980 741Q1046 722 1088 677T1154 549L1284
106H1466L1446 0H1094L953 475Q913 613 865 653T719 694H496L381 106H592L572 0H-32L-12 106H178L427 1386H237L258 1493H1015Q1233 1493 1331 1389T1393 1094Q1363 940 1259 852T980 741ZM517 801H812Q963 801 1048 872T1163 1094T1135 1315T925 1386H630L517
801Z" />
<glyph unicode="&#x213;" glyph-name="uni0213" horiz-adv-x="979" d="M1038 1321H942Q944 1400 899 1435Q854 1471 754 1471T595 1435Q536 1400 508 1321H412Q450 1464 543 1536T781 1608T991 1536T1038 1321ZM1335 1065L1283 799H1177Q1180 819 1180 836Q1180
888 1156 917Q1125 956 1050 956Q914 956 823 862T698 592L583 0H399L585 958H409L429 1063H789L753 874Q828 985 923 1038T1141 1092Q1186 1092 1234 1085T1335 1065Z" />
<glyph unicode="&#x214;" glyph-name="uni0214" horiz-adv-x="1726" d="M917 1899L1047 1635H930L720 1899H917ZM1234 1899L1364 1635H1247L1037 1899H1234ZM414 1386H223L244 1493H828L807 1386H616L466 614Q410 328 482 215T783 102T1127 215T1298 614L1448
1386H1257L1278 1493H1782L1761 1386H1571L1417 594Q1351 253 1193 112T720 -29T300 113T260 594L414 1386Z" />
<glyph unicode="&#x215;" glyph-name="uni0215" horiz-adv-x="1319" d="M837 1638L1026 1262H912L667 1638H837ZM507 1638L733 1262H617L329 1638H507ZM991 1063H1175L989 106H1163L1143 0H785L821 188Q749 82 658 27T459 -29Q282 -29 218 72Q179 132 179 235Q179
302 196 387L306 956H140L161 1063H512L392 444Q372 341 372 273Q372 212 388 178Q421 106 543 106Q671 106 756 200T876 473L991 1063Z" />
<glyph unicode="&#x216;" glyph-name="uni0216" horiz-adv-x="1726" d="M1414 1694H1318Q1320 1773 1275 1808Q1230 1844 1130 1844T971 1808Q912 1773 884 1694H788Q826 1837 919 1909T1157 1981T1367 1909T1414 1694ZM414 1386H223L244 1493H828L807 1386H616L466
614Q410 328 482 215T783 102T1127 215T1298 614L1448 1386H1257L1278 1493H1782L1761 1386H1571L1417 594Q1351 253 1193 112T720 -29T300 113T260 594L414 1386Z" />
<glyph unicode="&#x217;" glyph-name="uni0217" horiz-adv-x="1319" d="M1058 1321H962Q964 1400 919 1435Q874 1471 774 1471T615 1435Q556 1400 528 1321H432Q470 1464 563 1536T801 1608T1011 1536T1058 1321ZM991 1063H1175L989 106H1163L1143 0H785L821 188Q749
82 658 27T459 -29Q282 -29 218 72Q179 132 179 235Q179 302 196 387L306 956H140L161 1063H512L392 444Q372 341 372 273Q372 212 388 178Q421 106 543 106Q671 106 756 200T876 473L991 1063Z" />
<glyph unicode="&#x218;" glyph-name="Scommaaccent" horiz-adv-x="1403" d="M59 72L125 412L240 411Q212 241 289 160T558 78Q736 78 843 148T977 354Q998 462 953 520T736 633L551 692Q349 757 281 854T245 1120Q282 1310 437 1415T837 1520Q941 1520 1060 1498T1311
1432L1250 1114H1137Q1150 1272 1076 1342T820 1413Q662 1413 567 1349T448 1161Q427 1054 477 993T717 872L891 817Q1082 756 1150 662T1187 408Q1145 191 985 81T549 -29Q426 -29 304 -4T59 72ZM528 -412Q604 -370 639 -314T674 -178V-156H832Q825 -259 767 -332Q709
-406 592 -460L528 -412Z" />
<glyph unicode="&#x219;" glyph-name="scommaaccent" horiz-adv-x="1051" d="M71 307H177Q173 278 173 252Q173 70 420 70Q668 70 704 252Q707 270 707 302Q707 333 673 370T496 457L371 502Q243 546 202 602T160 724Q160 750 165 780Q194 926 317 1009T618 1092Q795
1092 981 1006L936 774H830Q834 797 834 817Q834 890 784 941T616 993Q381 993 349 829Q345 812 345 782Q345 751 377 716T537 639L674 594Q816 547 869 476Q906 426 906 377Q906 167 738 58Q606 -29 404 -29T23 59L71 307ZM311 -412Q387 -370 422 -314T457 -178V-156H615Q608
-259 550 -332Q492 -406 375 -460L311 -412Z" />
<glyph unicode="&#x21a;" glyph-name="uni021A" horiz-adv-x="1366" d="M246 0L266 106H457L704 1374H265L220 1141H97L165 1493H1491L1423 1141H1300L1345 1374H906L659 106H850L830 0H246ZM446 -412Q522 -370 557 -314T592 -178V-156H750Q743 -259 685 -332Q627
-406 510 -460L446 -412Z" />
<glyph unicode="&#x21b;" glyph-name="uni021B" horiz-adv-x="823" d="M274 956H112L133 1063H295L359 1393H544L480 1063H826L805 956H459L328 281Q313 202 313 156Q313 124 320 108Q339 70 409 70Q481 70 522 112T584 250H723Q687 105 603 38T374 -29Q215 -29
162 42Q130 85 130 165Q130 216 143 281L274 956ZM262 -412Q338 -370 373 -314T408 -178V-156H566Q559 -259 501 -332Q443 -406 326 -460L262 -412Z" />
<glyph unicode="&#x21c;" glyph-name="uni021C" horiz-adv-x="1284" d="M320 1391Q662 1520 845 1520T1140 1416T1219 1137T1088 857T856 674Q990 655 1053 541T1094 314Q1052 96 886 -36T462 -263T-34 -430L-11 -315Q194 -246 387 -160T710 41T866 291T837 498Q741
619 557 537L304 424L325 532L583 655Q736 728 863 864Q959 967 989 1123T949 1346T761 1418T528 1320Q427 1217 367 1047H254L320 1391Z" />
<glyph unicode="&#x21d;" glyph-name="uni021D" horiz-adv-x="1068" d="M426 943Q310 876 252 708H145L198 980Q296 1023 430 1056T701 1086T939 999T1015 792T905 580T699 431Q820 416 879 329T924 160Q889 -17 741 -125T343 -317T-77 -433L-57 -333Q108 -290
286 -221T593 -49Q693 31 712 133T681 293Q602 381 431 319L209 239L228 339L451 425Q577 473 682 576Q778 670 798 774T758 933T609 988Q504 988 426 943Z" />
<glyph unicode="&#x21e;" glyph-name="uni021E" horiz-adv-x="1786" d="M989 1635L810 1899H926L1097 1737L1332 1899H1448L1165 1635H989ZM-32 0L-12 106H178L427 1386H237L258 1493H841L820 1386H630L530 870H1304L1404 1386H1214L1235 1493H1818L1797 1386H1607L1358
106H1548L1528 0H945L965 106H1156L1280 748H506L381 106H571L551 0H-32Z" />
<glyph unicode="&#x21f;" glyph-name="uni021F" horiz-adv-x="1319" d="M419 1711L240 1975H356L527 1813L762 1975H878L595 1711H419ZM354 0L636 1450H460L480 1556H840L708 874Q780 982 872 1037T1072 1092Q1248 1092 1311 991Q1350 930 1350 828Q1350 761 1333
676L1222 106H1386L1366 0H1017L1137 618Q1157 721 1157 790Q1157 851 1141 884Q1108 956 986 956Q858 956 773 863T653 592L538 0H354Z" />
<glyph unicode="&#x220;" glyph-name="uni0220" horiz-adv-x="1726" d="M741 1292Q935 1522 1249 1522Q1502 1522 1593 1376Q1647 1289 1647 1167T1623 922L1382 -319H1572L1551 -426H966L986 -319H1177L1410 881Q1440 1031 1440 1130T1414 1282Q1360 1391 1165
1391T840 1263T662 887L511 107H701L680 0H96L117 107H308L556 1386H380L401 1493H780L741 1292Z" />
<glyph unicode="&#x221;" glyph-name="uni0221" horiz-adv-x="1667" d="M1108 -51Q1375 -51 1396 56Q1420 179 1001 179Q987 179 973 178Q946 83 985 11Q1019 -51 1108 -51ZM847 479L868 584Q905 775 851 876T657 977Q515 977 421 865T284 532Q241 312 291 199T484
86Q624 86 717 186T847 479ZM993 279Q1000 279 1008 279H1017Q1554 279 1505 49Q1462 -150 1087 -150Q926 -150 842 -57Q789 4 780 75Q737 14 719 -81L706 -145H606L620 -81Q633 -15 656 39Q638 28 620 18Q528 -29 405 -29Q209 -29 115 126T68 532T271 937T623
1092Q746 1092 820 1045T929 897L1036 1450H862L883 1556H1241L993 279Z" />
<glyph unicode="&#x224;" glyph-name="uni0224" horiz-adv-x="1423" d="M-16 0L-2 72L1180 1370H408L365 1147H242L309 1493H1489L1475 1421L293 123H1062H1259Q1218 -48 1122 -170T862 -383L797 -303Q905 -234 967 -140Q1008 -79 1033 0H-16Z" />
<glyph unicode="&#x225;" glyph-name="uni0225" horiz-adv-x="1079" d="M18 0L34 86L869 956H342L307 772H201L257 1063H1127L1110 977L275 106H763H960Q919 -65 823 -187T563 -400L498 -320Q606 -251 668 -158Q713 -89 739 0H18Z" />
<glyph unicode="&#x226;" glyph-name="uni0226" horiz-adv-x="1479" d="M942 1886T989 1886T1064 1851T1083 1770Q1073 1720 1033 1687Q993 1653 943 1653T866 1687Q839 1720 849 1770Q858 1816 900 1851ZM370 541H918L782 1251L370 541ZM-157 0L-137 106H-6L796
1493H964L1228 106H1374L1354 0H811L831 106H997L936 434H308L119 106H283L263 0H-157Z" />
<glyph unicode="&#x227;" glyph-name="uni0227" horiz-adv-x="1221" d="M734 1569T782 1569T858 1534Q885 1500 876 1452Q866 1401 827 1368Q787 1335 736 1335T659 1368Q632 1401 642 1452Q651 1500 693 1534Q734 1569 782 1569ZM999 166Q866 -29 651 -29Q475
-29 386 90Q324 174 324 294Q324 345 335 402Q403 755 649 937Q858 1092 1111 1092Q1281 1092 1339 1063L1153 106H1311L1291 0H967L999 166ZM518 300Q518 86 725 86Q851 86 936 186T1060 479L1153 961V961Q1153 990 1073 990Q881 990 732 840Q584 689 531 415Q518
351 518 300Z" />
<glyph unicode="&#x228;" glyph-name="uni0228" horiz-adv-x="1495" d="M653 0Q705 -64 725 -120T737 -225Q721 -306 650 -350T466 -395Q424 -395 381 -389T294 -371L320 -240Q357 -257 395 -265T468 -274Q525 -274 563 -248T610 -176Q616 -148 603 -104T556 0H653ZM-32
0L-12 106H178L427 1386H237L258 1493H1460L1396 1161H1273L1313 1370H627L530 870H1019L1055 1057H1178L1082 561H959L995 748H506L385 123H1087L1127 332H1250L1186 0H-32Z" />
<glyph unicode="&#x229;" glyph-name="uni0229" horiz-adv-x="1212" d="M549 0Q601 -64 621 -120T633 -225Q617 -306 546 -350T362 -395Q320 -395 277 -389T190 -371L216 -240Q253 -257 291 -265T364 -274Q421 -274 459 -248T506 -176Q512 -148 499 -104T452 0H549ZM555
408Q551 370 551 336Q551 242 585 180Q644 70 802 70Q918 70 975 105Q1077 168 1101 249H1236Q1196 122 1047 33Q943 -29 737 -29T420 124Q342 231 342 386Q342 454 357 531Q406 784 575 938T984 1092Q1375 1092 1375 815Q1375 612 1170 513Q961 412 555 408ZM1068
632Q1180 698 1180 822Q1180 993 953 993Q819 993 726 891T576 514Q897 529 1068 632Z" />
<glyph unicode="&#x22a;" glyph-name="uni022A" horiz-adv-x="1679" d="M889 2205H1487L1459 2057H861L889 2205ZM965 78Q1210 78 1368 246T1590 745Q1654 1076 1562 1244T1225 1413Q979 1413 821 1245T599 745Q535 415 627 247T965 78ZM944 -29Q792 -29 675 21T479
168Q389 280 362 422T370 745T487 1068T703 1323Q820 1421 956 1470T1246 1520Q1571 1520 1729 1307T1820 745Q1785 566 1702 423T1486 168Q1369 70 1233 21T944 -29ZM1159 1884Q1207 1884 1234 1849Q1262 1814 1253 1768Q1243 1718 1203 1685Q1163 1651 1113 1651Q1064
1651 1037 1685Q1010 1718 1020 1768Q1029 1814 1070 1849Q1112 1884 1159 1884ZM1549 1884Q1596 1884 1623 1849Q1651 1814 1642 1768Q1632 1718 1592 1685Q1552 1651 1503 1651Q1453 1651 1426 1685Q1399 1718 1409 1768Q1418 1814 1459 1849Q1501 1884 1549
1884Z" />
<glyph unicode="&#x22b;" glyph-name="uni022B" horiz-adv-x="1233" d="M526 70Q674 70 772 187T915 532Q935 636 935 717Q935 813 907 876Q854 993 706 993T460 877T317 532Q297 428 297 348Q297 251 326 187Q379 70 526 70ZM507 -29Q275 -29 164 124Q87 231
87 385Q87 454 102 532Q151 786 321 939T725 1092T1069 939Q1145 833 1145 679Q1145 610 1130 532Q1081 278 911 125T507 -29ZM638 1569Q686 1569 714 1534Q741 1500 732 1452Q722 1401 683 1368Q643 1335 592 1335Q542 1335 516 1368Q489 1401 499 1452Q508 1500
550 1534Q591 1569 638 1569ZM1028 1569Q1075 1569 1103 1534Q1130 1500 1121 1452Q1111 1401 1072 1368Q1032 1335 982 1335Q931 1335 905 1368Q878 1401 888 1452Q897 1500 939 1534Q980 1569 1028 1569ZM600 1842H1198L1170 1694H572L600 1842Z" />
<glyph unicode="&#x22c;" glyph-name="uni022C" horiz-adv-x="1679" d="M889 2205H1487L1459 2057H861L889 2205ZM965 78Q1210 78 1368 246T1590 745Q1654 1076 1562 1244T1225 1413Q979 1413 821 1245T599 745Q535 415 627 247T965 78ZM944 -29Q792 -29 675 21T479
168Q389 280 362 422T370 745T487 1068T703 1323Q820 1421 956 1470T1246 1520Q1571 1520 1729 1307T1820 745Q1785 566 1702 423T1486 168Q1369 70 1233 21T944 -29ZM1304 1715L1261 1743Q1244 1756 1225 1763T1189 1770Q1150 1770 1118 1741Q1087 1713 1074 1667L978
1668Q999 1768 1062 1827Q1124 1886 1209 1886Q1245 1886 1275 1877Q1304 1868 1353 1837L1397 1811Q1417 1798 1438 1791Q1458 1784 1475 1784Q1516 1784 1545 1811Q1574 1839 1583 1886H1680Q1658 1781 1595 1724Q1533 1667 1439 1667Q1372 1667 1308 1712L1304
1715Z" />
<glyph unicode="&#x22d;" glyph-name="uni022D" horiz-adv-x="1233" d="M526 70Q674 70 772 187T915 532Q935 636 935 717Q935 813 907 876Q854 993 706 993T460 877T317 532Q297 428 297 348Q297 251 326 187Q379 70 526 70ZM507 -29Q275 -29 164 124Q87 231
87 385Q87 454 102 532Q151 786 321 939T725 1092T1069 939Q1145 833 1145 679Q1145 610 1130 532Q1081 278 911 125T507 -29ZM807 1370L761 1425Q740 1449 725 1456Q710 1464 691 1464Q649 1464 617 1424Q585 1385 566 1309H470Q498 1444 563 1518Q628 1591 719
1591Q757 1591 787 1577Q816 1563 847 1530L893 1475Q911 1452 927 1444Q942 1436 963 1436Q1006 1436 1038 1476T1088 1591H1184Q1156 1456 1091 1382Q1026 1309 935 1309Q897 1309 867 1323Q838 1337 807 1370ZM592 1842H1190L1162 1694H564L592 1842Z" />
<glyph unicode="&#x22e;" glyph-name="uni022E" horiz-adv-x="1679" d="M1043 1886T1090 1886T1165 1851T1184 1770Q1174 1720 1134 1687Q1094 1653 1044 1653T967 1687Q940 1720 950 1770Q959 1816 1001 1851ZM710 78Q955 78 1113 246T1335 745Q1399 1076 1307
1244T970 1413Q724 1413 566 1245T344 745Q280 415 372 247T710 78ZM689 -29Q537 -29 420 21T224 168Q134 280 107 422T115 745T232 1068T448 1323Q565 1421 701 1470T991 1520Q1316 1520 1474 1307T1565 745Q1530 566 1447 423T1231 168Q1114 70 978 21T689 -29Z"
/>
<glyph unicode="&#x22f;" glyph-name="uni022F" horiz-adv-x="1233" d="M526 70Q674 70 772 187T915 532Q935 636 935 717Q935 813 907 876Q854 993 706 993T460 877T317 532Q297 428 297 348Q297 251 326 187Q379 70 526 70ZM507 -29Q275 -29 164 124Q87 231
87 385Q87 454 102 532Q151 786 321 939T725 1092T1069 939Q1145 833 1145 679Q1145 610 1130 532Q1081 278 911 125T507 -29ZM781 1824T829 1824T905 1789Q932 1755 923 1707Q913 1656 874 1623Q834 1590 783 1590T706 1623Q679 1656 689 1707Q698 1755 740 1789Q781
1824 829 1824Z" />
<glyph unicode="&#x230;" glyph-name="uni0230" horiz-adv-x="1679" d="M823 2205H1421L1393 2057H795L823 2205ZM1036 1942T1084 1942T1160 1907Q1187 1873 1178 1825Q1168 1774 1129 1741Q1089 1708 1038 1708T961 1741Q934 1774 944 1825Q953 1873 995 1907Q1036
1942 1084 1942ZM965 78Q1210 78 1368 246T1590 745Q1654 1076 1562 1244T1225 1413Q979 1413 821 1245T599 745Q535 415 627 247T965 78ZM944 -29Q792 -29 675 21T479 168Q389 280 362 422T370 745T487 1068T703 1323Q820 1421 956 1470T1246 1520Q1571 1520 1729
1307T1820 745Q1785 566 1702 423T1486 168Q1369 70 1233 21T944 -29Z" />
<glyph unicode="&#x231;" glyph-name="uni0231" horiz-adv-x="1233" d="M526 70Q674 70 772 187T915 532Q935 636 935 717Q935 813 907 876Q854 993 706 993T460 877T317 532Q297 428 297 348Q297 251 326 187Q379 70 526 70ZM507 -29Q275 -29 164 124Q87 231
87 385Q87 454 102 532Q151 786 321 939T725 1092T1069 939Q1145 833 1145 679Q1145 610 1130 532Q1081 278 911 125T507 -29ZM781 1824T829 1824T905 1789Q932 1755 923 1707Q913 1656 874 1623Q834 1590 783 1590T706 1623Q679 1656 689 1707Q698 1755 740 1789Q781
1824 829 1824ZM600 1842H1198L1170 1694H572L600 1842Z" />
<glyph unicode="&#x232;" glyph-name="uni0232" horiz-adv-x="1352" d="M619 1842H1217L1189 1694H591L619 1842ZM242 0L262 106H453L558 643L241 1386H101L122 1493H677L656 1386H482L738 782L1228 1386H1060L1081 1493H1515L1494 1386H1353L764 662L655 106H846L826
0H242Z" />
<glyph unicode="&#x233;" glyph-name="uni0233" horiz-adv-x="1157" d="M456 1526H1054L1026 1378H428L456 1526ZM1178 1054Q1079 482 905 180Q650 -263 445 -396Q354 -455 114 -455Q67 -455 20 -447T-76 -424L-36 -221H58Q56 -237 56 -252Q56 -294 74 -318Q99
-352 164 -352Q340 -352 493 -199L242 956H121L142 1063H417L653 8Q814 249 853 348Q979 659 1004 947H883L904 1054H1178Z" />
<glyph unicode="&#x234;" glyph-name="uni0234" horiz-adv-x="1025" d="M417 164Q467 70 605 70Q763 68 784 177Q809 301 697 300Q517 298 417 164ZM393 532Q363 373 378 268Q546 408 735 408Q939 408 893 170Q854 -29 583 -29Q430 -29 337 42Q322 10 306 -75L278
-219H164L193 -75Q216 26 255 105L240 124Q163 295 209 532L388 1450H211L232 1556H593L393 532Z" />
<glyph unicode="&#x235;" glyph-name="uni0235" horiz-adv-x="1703" d="M1140 164Q1190 70 1328 70Q1486 68 1508 177Q1532 301 1420 300Q1240 298 1140 164ZM948 618Q986 813 952 885T797 958Q669 958 584 865T464 592L349 0H165L351 956H175L196 1063H556L519
874Q591 982 683 1037T883 1092Q1059 1092 1122 991T1145 676L1117 532Q1082 355 1101 268Q1269 408 1458 408Q1662 408 1616 170Q1578 -29 1307 -29Q1153 -29 1060 42Q1045 10 1030 -75L1002 -219H888L917 -75Q939 26 979 105L963 124Q886 296 932 532L948 618Z"
/>
<glyph unicode="&#x236;" glyph-name="uni0236" horiz-adv-x="1011" d="M419 164Q469 70 607 70Q765 68 786 177Q810 301 699 300Q519 298 419 164ZM478 956L395 532Q364 373 380 268Q548 408 737 408Q941 408 895 170Q856 -29 585 -29Q432 -29 339 42Q324 10
308 -75L280 -219H166L195 -75Q218 26 257 105L242 124Q164 296 210 532L293 956H131L152 1063H314L378 1393H563L499 1063H845L824 956H478Z" />
<glyph unicode="&#x237;" glyph-name="dotlessj" horiz-adv-x="635" d="M377 956H203L224 1063H582L355 -104Q323 -268 207 -361T-80 -455Q-152 -455 -214 -439T-332 -389L-289 -170H-194Q-206 -266 -172 -311T-56 -356Q35 -356 90 -295T171 -104L377 956Z" />
<glyph unicode="&#x238;" glyph-name="uni0238" horiz-adv-x="1966" d="M836 479L856 584Q893 775 840 876T646 977Q504 977 410 865T272 532Q229 312 279 199T472 86Q612 86 705 186T836 479ZM1020 479Q982 287 1036 187T1230 86Q1371 86 1465 199T1603 532Q1646
753 1595 865T1404 977Q1264 977 1171 876T1040 584L1020 479ZM743 0L775 166Q701 66 609 19T393 -29Q197 -29 103 126T57 532T260 937T611 1092Q734 1092 808 1045T917 897L1024 1450H847L868 1556H1229L1101 897Q1174 997 1267 1044T1483 1092Q1679 1092 1773
937T1818 532T1615 127T1265 -29Q1142 -29 1068 18T959 166L927 0H743Z" />
<glyph unicode="&#x239;" glyph-name="uni0239" horiz-adv-x="1966" d="M940 584Q977 775 923 876T729 977Q587 977 493 865T356 532Q313 312 363 199T556 86Q696 86 789 186T919 479L940 584ZM1033 1063H1217L1185 897Q1258 997 1351 1044T1567 1092Q1763 1092
1856 937T1902 532T1699 127T1349 -29Q1226 -29 1152 18T1043 166L948 -319H1122H1124L1103 -426H1101H743L859 166Q785 66 693 19T477 -29Q281 -29 187 126T140 532T343 937T695 1092Q818 1092 892 1045T1001 897L1033 1063ZM1124 584L1103 479Q1066 287 1120
187T1314 86Q1455 86 1549 199T1687 532Q1730 753 1679 865T1487 977Q1347 977 1254 876T1124 584Z" />
<glyph unicode="&#x23a;" glyph-name="uni023A" horiz-adv-x="1479" d="M-157 0L-137 106H-37L30 167L796 1493H964L1042 1085L1553 1550L1619 1479L1063 975L1228 106H1374L1354 0H811L831 106H997L936 434H466L137 136L119 106H283L263 0H-13L-76 -57L-130 0H-157ZM291
404L324 434H308L291 404ZM848 909L782 1251L370 541H442L848 909ZM584 541H918L869 799L584 541Z" />
<glyph unicode="&#x23b;" glyph-name="uni023B" horiz-adv-x="1567" d="M-32 -57L-97 12L167 252Q124 331 107 422Q80 565 115 745Q182 1093 424 1306T996 1520Q1118 1520 1250 1488Q1349 1464 1456 1422L1597 1550L1663 1479L1520 1349L1461 1047H1348Q1348 1121
1333 1180L351 290Q359 268 370 248Q460 78 699 78Q866 78 989 157T1192 395H1376Q1269 186 1093 79T678 -29Q532 -29 417 21T224 168L220 172L-32 -57ZM324 394L1294 1275Q1277 1302 1254 1324Q1160 1413 959 1413Q720 1413 564 1244T344 745Q304 538 324 394Z"
/>
<glyph unicode="&#x23c;" glyph-name="uni023C" horiz-adv-x="1147" d="M-9 -94L-72 -31L136 170Q60 314 102 532Q152 787 322 939T725 1092Q826 1092 921 1068Q976 1055 1028 1034L1156 1157L1219 1094L1106 984L1056 725H949Q951 782 943 827L313 218Q319 201
325 186Q378 70 528 70Q647 70 730 132T864 319H1012Q940 149 812 60T507 -29Q298 -29 187 95L-9 -94ZM297 326L907 916Q902 923 897 929Q839 993 708 993Q559 993 461 878T317 532Q294 414 297 326Z" />
<glyph unicode="&#x23d;" glyph-name="uni023D" horiz-adv-x="1360" d="M-32 0L-12 106H178L280 628H15L48 798H313L427 1386H237L258 1493H841L820 1386H630L516 798H781L748 628H483L385 123H1067L1115 373H1238L1166 0H-32Z" />
<glyph unicode="&#x23e;" glyph-name="uni023E" horiz-adv-x="1366" d="M830 0H246L266 106H457L545 557L-133 -57L-197 12L576 714L704 1374H265L220 1141H97L165 1493H1434L1497 1550L1563 1479L1472 1397L1423 1141H1300L1323 1262L790 779L659 106H850L830
0ZM1303 1374H906L821 936L1303 1374Z" />
<glyph unicode="&#x23f;" glyph-name="uni023F" horiz-adv-x="1051" d="M340 -33L382 -195Q407 -288 429 -318Q452 -348 531 -348Q574 -348 608 -319T662 -221H756L717 -424Q664 -439 613 -447T501 -455Q359 -455 304 -415Q223 -355 195 -240L152 -57Q136 10 109
39Q87 48 65 59L113 307H219Q200 188 259 129T456 70Q580 70 654 116T745 252Q759 322 720 365T537 457L413 502Q284 546 236 612T207 780Q235 926 358 1009T670 1092Q754 1092 843 1070T1023 1006L978 774H872Q888 877 831 935T657 993Q541 993 474 952T390 829Q377
762 414 722T578 639L716 594Q857 547 910 477T941 295Q912 144 780 58T444 -29Q389 -29 337 -23L340 -33Z" />
<glyph unicode="&#x240;" glyph-name="uni0240" horiz-adv-x="1079" d="M237 0H23L40 86L875 956H348L312 772H206L263 1063H1133L1116 977L281 106H329Q556 106 621 -122L642 -195Q670 -292 689 -318Q712 -348 752 -348Q795 -348 829 -319T883 -221H977L937 -424Q885
-439 834 -447T721 -455Q619 -455 564 -415Q482 -355 455 -240L434 -146Q400 0 237 0Z" />
<glyph unicode="&#x241;" glyph-name="uni0241" horiz-adv-x="1195" d="M467 1387Q381 1387 338 1349Q287 1305 262 1209H166L208 1427Q277 1461 346 1477T487 1493H781Q1005 1493 1114 1380T1186 1074Q1148 880 995 766T618 652Q618 652 570 652L463 106H694L674
0H50L70 106H260L388 760H590Q739 760 832 840T956 1074Q985 1226 923 1306T712 1387H467Z" />
<glyph unicode="&#x242;" glyph-name="uni0242" horiz-adv-x="950" d="M306 359Q453 359 548 440Q642 520 672 673Q701 825 639 906Q577 986 428 986Q343 986 299 948Q248 904 223 808H127L169 1026Q238 1060 307 1076T448 1092H497Q721 1092 830 978Q939 865
902 673Q864 477 711 365Q606 288 470 263L419 0H236L306 359Z" />
<glyph unicode="&#x245;" glyph-name="uni0245" horiz-adv-x="1479" d="M997 106L782 1251L119 106H283L263 0H-157L-137 106H-6L796 1493H964L1228 106H1374L1354 0H811L831 106H997Z" />
<glyph unicode="&#x250;" glyph-name="uni0250" horiz-adv-x="1221" d="M488 729L445 504H682Q819 504 897 563T999 744Q1021 855 966 920T794 985Q679 985 594 914Q511 843 488 729ZM240 399L349 957H185L205 1063H553L531 948Q606 1022 693 1057T887 1092Q1064
1092 1149 998T1204 744Q1172 579 1036 488T682 397H424L410 324Q386 203 447 136Q507 70 640 70Q750 70 825 120T935 268H1030L988 53Q884 12 789 -8Q695 -29 609 -29Q388 -29 294 80Q200 190 240 399Z" />
<glyph unicode="&#x251;" glyph-name="uni0251" horiz-adv-x="1311" d="M831 262L770 151Q722 65 616 10Q548 -26 438 -25Q240 -23 148 130Q54 286 103 536Q150 781 305 941Q452 1092 698 1091Q869 1091 941 1024Q1006 965 1010 836L1011 799L1071 910Q1128 1015
1241 1067H1342L1330 1008Q1228 978 1176 884L1017 600L1028 294Q1033 137 1068 120Q1117 95 1257 170L1234 49Q1008 -68 889 54Q834 110 833 191L831 262ZM826 458L821 752Q816 986 680 987Q566 988 454 865Q362 764 317 532Q274 312 325 199Q380 76 516 86Q633
95 763 340L826 458Z" />
<glyph unicode="&#x252;" glyph-name="uni0252" horiz-adv-x="1383" d="M614 804L675 915Q722 1001 829 1056Q897 1092 1007 1091Q1204 1089 1297 936Q1391 780 1342 530Q1294 285 1139 125Q993 -26 746 -25Q576 -25 503 42Q438 101 435 230L434 267L373 156Q317
51 203 -1H103L114 58Q216 88 268 182L427 466L417 772Q412 929 377 946Q327 971 187 896L211 1017Q437 1134 556 1012Q610 956 612 875L614 804ZM618 608L624 314Q629 80 764 79Q879 78 990 201Q1083 302 1128 534Q1170 754 1120 867Q1065 990 928 980Q812 971
681 726L618 608Z" />
<glyph unicode="&#x253;" glyph-name="uni0253" horiz-adv-x="1311" d="M446 897Q518 995 613 1044Q705 1092 828 1092Q1024 1092 1118 937T1163 532T960 126Q806 -29 610 -29Q487 -29 413 18Q338 66 304 166L272 0H88L277 973L322 1205Q354 1369 470 1462Q585
1556 756 1556Q833 1556 891 1540Q953 1523 1008 1490L966 1271H871Q882 1367 848 1412Q815 1457 733 1457Q642 1457 587 1396Q532 1337 507 1205L446 897ZM365 479Q327 287 382 186Q435 86 575 86Q716 86 810 199Q905 312 948 532Q991 753 940 865Q890 977 748
977Q608 977 516 876Q422 775 385 584L365 479Z" />
<glyph unicode="&#x254;" glyph-name="uni0254" horiz-adv-x="1147" d="M143 744Q215 914 343 1003T648 1092Q880 1092 991 939Q1102 785 1053 531Q1003 276 833 123Q662 -29 430 -29Q329 -29 234 -5Q138 18 47 66L99 338H206Q200 198 259 134Q316 70 447 70Q596
70 695 185Q793 301 838 531T829 877Q777 993 627 993Q508 993 425 931T291 744H143Z" />
<glyph unicode="&#x255;" glyph-name="uni0255" horiz-adv-x="1147" d="M359 164Q408 72 547 70Q812 68 834 177Q858 302 639 300Q459 298 359 164ZM320 268Q471 400 728 400Q993 400 943 170Q901 -29 526 -29Q373 -29 279 42Q264 10 249 -75L221 -219H107L136
-75Q158 26 198 105Q190 115 182 124Q71 278 121 532Q170 787 341 940Q511 1092 743 1092Q844 1092 940 1068Q1035 1045 1127 997L1074 725H967Q973 865 916 929Q857 993 726 993Q577 993 479 878Q380 762 336 532Q305 373 320 268Z" />
<glyph unicode="&#x256;" glyph-name="uni0256" horiz-adv-x="1325" d="M949 -104Q924 -234 954 -294Q986 -356 1077 -356Q1159 -356 1211 -311Q1261 -266 1287 -170H1382L1339 -389Q1271 -422 1202 -438Q1134 -455 1062 -455Q891 -455 811 -362Q732 -268 764
-104L809 128L816 166Q743 66 650 18Q557 -29 434 -29Q238 -29 143 126Q50 282 98 532T301 937T652 1092Q775 1092 850 1044Q924 997 958 897L1066 1450H892L912 1556H1270Q1110 726 949 -104ZM877 479L898 584Q935 775 881 876Q827 977 687 977Q545 977 451 865Q356
753 313 532Q271 312 322 199Q372 86 514 86Q654 86 747 186Q840 287 877 479Z" />
<glyph unicode="&#x257;" glyph-name="uni0257" horiz-adv-x="1398" d="M916 897L976 1205Q1008 1369 1124 1462Q1239 1556 1410 1556Q1487 1556 1545 1540Q1607 1523 1662 1490L1620 1271H1525Q1536 1367 1502 1412Q1469 1457 1387 1457Q1296 1457 1241 1396Q1186
1337 1161 1205L927 0H743L775 166Q700 64 609 18Q516 -29 393 -29Q195 -29 102 126Q8 282 57 532T260 937T611 1092Q734 1092 809 1044Q881 997 916 897ZM836 479L856 584Q893 775 840 876Q786 977 646 977Q504 977 410 865Q315 753 272 532Q229 312 280 199Q330
86 472 86Q612 86 706 186Q798 287 836 479Z" />
<glyph unicode="&#x258;" glyph-name="uni0258" horiz-adv-x="1212" d="M98 512Q158 795 316 944Q474 1092 715 1092Q941 1092 1050 938T1110 532Q1061 278 889 124Q718 -29 485 -29Q292 -29 190 59Q89 147 79 322H227Q234 197 299 134Q364 70 485 70Q643 70 746
180Q848 289 890 504L891 512H98ZM336 618H912Q932 803 878 898T696 993Q560 993 469 898Q378 804 336 618Z" />
<glyph unicode="&#x259;" glyph-name="uni0259" horiz-adv-x="1212" d="M106 551H899L900 559Q942 774 883 884Q823 993 665 993Q544 993 453 930Q364 866 309 741H161Q239 916 374 1004Q510 1092 703 1092Q936 1092 1047 938Q1159 785 1110 531Q1061 279 892
125T497 -29Q256 -29 156 120Q56 268 106 551ZM302 445Q272 259 327 164Q380 70 516 70Q643 70 734 165T878 445H302Z" />
</font>
</defs>
</svg>
